<?xml version="1.0" encoding="UTF-8"?> <svg xmlns="http://www.w3.org/2000/svg" width="197" height="46" viewBox="0 0 197 46" fill="none"><path d="M69.035 22.1561C68.6017 21.9112 68.2249 21.6568 67.9046 21.3931C67.5843 21.1293 67.2829 20.8091 67.0003 20.4323C66.7177 20.0366 66.5105 19.6222 66.3786 19.1889C66.2467 18.7367 66.1902 18.1998 66.209 17.5781C66.2279 16.9564 66.3409 16.2876 66.5482 15.5717C67.1322 13.6689 68.5546 12.2842 70.8153 11.4176L70.2218 8.50689H76.4389L75.9585 10.4568C76.6367 10.4191 77.2301 10.4097 77.7388 10.4285C78.2475 10.4474 78.6525 10.4662 78.9539 10.485L79.4061 10.5415L78.6996 18.3128C78.6996 18.3128 77.9649 18.1433 76.4954 17.8042C74.0651 17.3897 72.8311 17.6158 72.7934 18.4824C72.7934 18.765 73.0195 19.0287 73.4717 19.2736L69.035 22.1561ZM74.8564 19.8671C74.9129 19.9048 75.0165 19.9424 75.1672 19.9801C75.6005 20.1497 75.9396 20.2816 76.1845 20.3758C76.4295 20.47 76.7686 20.6207 77.2019 20.8279C77.6352 21.0351 77.9743 21.2235 78.2192 21.3931C78.483 21.5626 78.775 21.7887 79.0952 22.0713C79.4155 22.3351 79.6604 22.6177 79.83 22.9191C79.9995 23.2017 80.1408 23.5408 80.2539 23.9364C80.3669 24.3132 80.414 24.7183 80.3952 25.1516C80.301 27.5065 78.775 29.1079 75.8172 29.9556L76.4389 33.0359H70.2218L70.8153 30.6056C69.911 30.6244 68.9879 30.6056 68.0459 30.5491C67.1228 30.4926 66.4257 30.4266 65.9547 30.3513L65.22 30.2665L67.0851 24.6146C67.3488 24.7088 67.6879 24.8125 68.1024 24.9255C68.5169 25.0385 69.1668 25.1987 70.0523 25.4059C70.9566 25.5943 71.7007 25.6414 72.2848 25.5472C72.8876 25.4342 73.1891 25.1516 73.1891 24.6994C73.1891 24.6241 73.1702 24.5487 73.1325 24.4733C73.1137 24.3791 73.0666 24.2944 72.9913 24.219C72.9347 24.1437 72.8688 24.0777 72.7934 24.0212C72.7369 23.9458 72.6427 23.8799 72.5108 23.8234C72.3978 23.748 72.2942 23.6821 72.2 23.6256C72.1058 23.569 71.9739 23.5031 71.8044 23.4278C71.6348 23.3524 71.4935 23.2959 71.3805 23.2582C71.2674 23.2017 71.1073 23.1357 70.9001 23.0604C70.7117 22.9662 70.561 22.8908 70.4479 22.8343L74.8564 19.8671ZM88.296 18.765C88.296 19.0287 88.4844 19.2831 88.8612 19.528C89.2569 19.7541 89.7373 19.9613 90.3024 20.1497C90.8865 20.3192 91.5082 20.5547 92.1676 20.8562C92.8458 21.1576 93.4581 21.4873 94.0044 21.8452C94.5696 22.2032 95.0312 22.693 95.3891 23.3147C95.7659 23.9364 95.9355 24.6429 95.8978 25.4342C95.8601 26.2066 95.6623 26.9036 95.3043 27.5253C94.9464 28.1282 94.4942 28.6274 93.9479 29.0231C93.4015 29.3999 92.7422 29.7296 91.9697 30.0121C91.1973 30.2759 90.4343 30.4737 89.6807 30.6056C88.9272 30.7186 88.1076 30.794 87.2222 30.8317L88.2113 25.6602C88.5315 25.5284 88.6917 25.3023 88.6917 24.982C88.6917 24.6241 88.3902 24.2849 87.7874 23.9647C87.1845 23.6256 86.4875 23.3053 85.6962 23.0039C84.9238 22.7024 84.1608 22.2597 83.4072 21.6757C82.6725 21.0728 82.1638 20.3287 81.8812 19.4432C81.5986 18.5577 81.6551 17.3614 82.0508 15.8543C82.9362 13.0284 85.5832 11.3611 89.9916 10.8524L89.1721 17.9455C88.5881 18.0773 88.296 18.3505 88.296 18.765ZM94.9087 10.7959L94.2022 18.5954C92.7139 18.1433 91.3951 17.8984 90.2459 17.8607L91.4611 10.7111C91.819 10.7111 92.1864 10.7111 92.5632 10.7111C92.94 10.6923 93.2602 10.6923 93.524 10.7111C93.7878 10.7299 94.0232 10.7488 94.2305 10.7676C94.4566 10.7676 94.6261 10.777 94.7391 10.7959H94.9087ZM80.7226 30.5491L82.5877 24.8972C84.2267 25.4436 85.6491 25.7544 86.8548 25.8298L85.8092 30.8882C84.9803 30.8882 84.1419 30.8599 83.2942 30.8034C82.4464 30.7469 81.8058 30.6904 81.3725 30.6339L80.7226 30.5491ZM107.205 25.4059L110.878 30.323L112.235 32.1598L106.922 35.0988L105.396 30.8599C105.245 30.8599 105.132 30.8599 105.057 30.8599C103.418 30.8599 101.901 30.4172 100.507 29.5317C99.1318 28.6274 98.0391 27.4029 97.229 25.858C96.4378 24.2944 96.0422 22.5988 96.0422 20.7714C96.0422 18.944 96.4378 17.2578 97.229 15.713C98.0391 14.1681 99.1318 12.9436 100.507 12.0393C101.901 11.135 103.408 10.6828 105.029 10.6828C106.668 10.6828 108.175 11.135 109.55 12.0393C110.944 12.9436 112.037 14.1681 112.828 15.713C113.638 17.2578 114.043 18.944 114.043 20.7714C114.043 22.2597 113.77 23.6632 113.224 24.982C112.696 26.2819 111.952 27.4029 110.991 28.3449L108.165 24.332C108.618 23.5785 108.844 22.7495 108.844 21.8452C108.844 20.6583 108.486 19.6504 107.77 18.8215C107.054 17.9737 106.187 17.5498 105.17 17.5498C104.492 17.5498 103.87 17.7476 103.305 18.1433C102.74 18.5201 102.297 19.0382 101.977 19.6975C101.656 20.3569 101.496 21.0728 101.496 21.8452C101.496 23.0321 101.854 24.0495 102.57 24.8972C103.286 25.7262 104.153 26.1406 105.17 26.1406C105.923 26.1406 106.602 25.8957 107.205 25.4059ZM114.681 12.3501L121.858 11.5589C121.821 11.898 121.774 12.3407 121.717 12.8871C121.661 13.4334 121.585 14.4413 121.491 15.9108C121.397 17.3803 121.331 18.7179 121.293 19.9236C121.256 21.1293 121.274 22.3256 121.35 23.5125C121.444 24.6994 121.604 25.5189 121.83 25.9711V30.5773C120.869 30.5397 119.927 30.2947 119.004 29.8426C118.1 29.3904 117.299 28.7405 116.602 27.8927C116.037 27.1956 115.585 26.1877 115.246 24.869C114.907 23.5502 114.69 22.2032 114.596 20.8279C114.521 19.4338 114.483 18.0868 114.483 16.7868C114.483 15.4869 114.521 14.4225 114.596 13.5935L114.681 12.3501ZM129.178 12.2371C129.215 12.5197 129.253 12.9153 129.291 13.424C129.347 13.9138 129.394 14.8464 129.432 16.2217C129.488 17.5969 129.488 18.8874 129.432 20.0932C129.394 21.2989 129.234 22.58 128.952 23.9364C128.669 25.2929 128.283 26.3761 127.793 27.1862C126.644 29.0702 125.071 30.1723 123.074 30.4926V25.9146C123.3 25.5755 123.488 25.0668 123.639 24.3886C123.808 23.7103 123.921 22.9568 123.978 22.1278C124.034 21.2989 124.072 20.4229 124.091 19.4997C124.11 18.5766 124.1 17.6911 124.063 16.8434C124.044 15.9956 124.016 15.2232 123.978 14.5261C123.959 13.829 123.931 13.2733 123.893 12.8588L123.865 12.2371H129.178ZM130.185 11.248L138.013 10.8241L136.035 30.4643L131.203 30.2947L130.185 11.248ZM149.26 22.58L154.177 29.3622L148.44 31.0012L145.586 23.5408L144.399 23.4843V30.7186H139.567L138.436 12.4914C139.661 11.8886 141.385 11.4082 143.608 11.0502L143.947 15.7695L144.371 21.3083C144.446 21.2706 144.54 21.2235 144.653 21.167C144.766 21.0917 144.974 20.9221 145.275 20.6583C145.576 20.3946 145.831 20.1026 146.038 19.7823C146.245 19.462 146.424 19.0287 146.575 18.4824C146.726 17.9172 146.763 17.3238 146.688 16.7021C146.556 15.5529 145.972 14.6862 144.936 14.1022L144.766 10.9089C145.03 10.8712 145.284 10.843 145.529 10.8241C147.79 10.6169 149.674 11.1067 151.181 12.2936C152.688 13.4805 153.414 14.9971 153.357 16.8434C153.338 17.5216 153.178 18.181 152.877 18.8215C152.594 19.462 152.255 19.999 151.859 20.4323C151.464 20.8656 151.068 21.2518 150.673 21.5909C150.277 21.93 149.947 22.1749 149.683 22.3256L149.26 22.58ZM164.99 22.58L169.907 29.3622L164.17 31.0012L161.316 23.5408L160.129 23.4843V30.7186H155.297L154.167 12.4914C155.391 11.8886 157.115 11.4082 159.338 11.0502L159.677 15.7695L160.101 21.3083C160.176 21.2706 160.27 21.2235 160.384 21.167C160.497 21.0917 160.704 20.9221 161.005 20.6583C161.307 20.3946 161.561 20.1026 161.768 19.7823C161.975 19.462 162.154 19.0287 162.305 18.4824C162.456 17.9172 162.494 17.3238 162.418 16.7021C162.286 15.5529 161.702 14.6862 160.666 14.1022L160.497 10.9089C160.76 10.8712 161.015 10.843 161.26 10.8241C163.52 10.6169 165.404 11.1067 166.911 12.2936C168.419 13.4805 169.144 14.9971 169.087 16.8434C169.069 17.5216 168.908 18.181 168.607 18.8215C168.324 19.462 167.985 19.999 167.59 20.4323C167.194 20.8656 166.798 21.2518 166.403 21.5909C166.007 21.93 165.677 22.1749 165.414 22.3256L164.99 22.58ZM182.36 18.8498L182.444 23.0886L176.51 22.6648L176.199 19.6975L182.36 18.8498ZM169.897 11.7567L174.193 11.4176L176.227 29.6448L170.915 29.7296L169.897 11.7567ZM175.295 11.3328L184.055 10.6546L183.547 17.7194L175.945 17.4651L175.295 11.3328ZM177.245 29.6165L176.68 24.4168L183.547 23.7386V29.5035L177.245 29.6165ZM184.549 11.1915L192.066 12.0958L189.833 30.5491L186.018 30.4643L184.549 11.1915ZM191.755 25.4624L196.502 24.9255V30.6621L190.794 30.5491L191.755 25.4624Z" fill="#FFF3CF"></path><path d="M48.8353 16.3085C48.8353 16.3085 53.1229 13.2662 53.066 9.08652C53.0085 4.90756 48.7231 1.79475 45.6851 0.460994C42.6464 -0.872761 40.081 2.58104 39.9522 4.15436C39.8235 5.72839 37.9545 9.90015 37.9545 9.90015C37.9545 9.90015 36.1524 8.55201 32.7216 7.37868C29.2915 6.20535 25.1522 5.72335 22.1242 6.70605C19.0956 7.68874 15.4878 9.77641 15.4878 9.77641C15.4878 9.77641 15.0958 9.02249 14.6181 8.28367C14.1404 7.54486 13.3671 4.15148 13.0441 3.30044C12.7203 2.4494 11.6391 0.851624 9.8629 0.349487C8.29534 -0.0936587 6.46736 0.706307 6.05946 0.900543C5.92997 0.984712 5.80048 1.06816 5.67099 1.15233C5.6379 1.29549 5.55589 1.43289 5.40482 1.53793C4.58399 2.11128 3.71568 2.6314 2.956 3.28677C2.60422 3.63496 2.26467 3.99609 1.93518 4.36514C1.82728 4.49823 1.72081 4.63203 1.61362 4.76512C1.43521 5.04425 1.25967 5.32481 1.07551 5.59818C0.971198 5.75285 0.841707 5.90896 0.709338 6.06722C0.585603 6.41829 0.471939 6.77223 0.379137 7.13193C0.379857 7.14488 0.382734 7.15639 0.382734 7.16933C0.385612 8.20598 0.167636 9.22392 0.0683594 10.2491C0.0697982 10.3361 0.0733952 10.4231 0.0762727 10.5102C0.0899412 10.5577 0.105048 10.6059 0.117278 10.6534C0.148931 10.7008 0.176988 10.7526 0.199289 10.8131C0.455393 11.5109 0.680563 12.2209 0.952493 12.9122C1.20284 12.9835 1.39924 13.1799 1.36902 13.459C2.14597 14.3503 2.92291 15.2409 3.7682 16.0704C3.7941 16.0956 3.81568 16.1222 3.83582 16.1488C4.83218 16.6344 5.65373 17.4459 6.376 18.2775C6.41269 18.3192 6.44074 18.3638 6.46448 18.4084C6.56016 18.476 6.66088 18.5386 6.76375 18.6091C7.03856 18.7998 7.25366 19.0062 7.43782 19.2875C7.59609 19.5292 7.56156 19.7637 7.43135 19.9371C7.49465 20.0616 7.52559 20.2019 7.50688 20.3364C7.54573 20.4457 7.55005 20.5695 7.50185 20.6975C7.43926 20.8651 7.36444 21.0241 7.28243 21.1774C7.27452 21.2241 7.25869 21.2723 7.23927 21.3205C7.2256 21.496 7.14431 21.6687 6.97022 21.7975C6.96734 21.7996 6.96446 21.8025 6.96086 21.8047C6.6285 22.3579 6.28032 22.9003 5.91127 23.4276C5.87458 23.5075 5.83861 23.5859 5.80192 23.6629C5.34583 24.9937 4.8811 26.3203 4.3063 27.6051C4.23724 28.2116 4.16818 28.818 4.09912 29.4252C4.06962 29.6856 3.97826 30.0633 3.92215 30.4381C3.94157 30.4985 3.95236 30.5654 3.95308 30.6395C3.9538 30.9072 3.95884 31.1776 3.97035 31.4481C3.9761 31.4596 3.98042 31.4726 3.98689 31.4841C4.10559 31.6898 4.09408 31.8891 4.01279 32.0517C4.01279 32.0553 4.01279 32.0589 4.01351 32.0625C4.0207 32.1028 4.02862 32.1423 4.03653 32.1826C4.25595 32.4826 4.38688 32.8157 4.46889 33.1675C4.63003 33.4891 4.79549 33.8085 4.95016 34.1322C4.96814 34.1696 4.98109 34.207 4.99189 34.2437C5.37101 34.7027 5.72639 35.1825 6.09543 35.6494C6.17169 35.7458 6.21341 35.8494 6.23212 35.9515C6.24003 35.9616 6.24651 35.9724 6.25442 35.9825C6.29686 36.0112 6.33859 36.0451 6.376 36.0904C6.48606 36.2328 6.60692 36.3666 6.73713 36.4918C6.83137 36.5911 6.88101 36.699 6.90187 36.8062C6.93856 36.8529 6.97597 36.8997 7.01338 36.9465C7.1328 36.9637 7.24718 37.0206 7.33926 37.1335C7.36444 37.1644 7.38746 37.1968 7.41192 37.2285C7.54645 37.2774 7.66515 37.3745 7.75939 37.5025C7.92557 37.7284 8.10182 37.9457 8.30469 38.1356C8.65072 38.3191 8.9579 38.573 9.2881 38.7931C9.46507 38.578 9.79239 38.486 10.0471 38.6133C10.0751 38.6198 10.1046 38.632 10.1305 38.6399C10.2032 38.6615 10.2758 38.6816 10.3478 38.7032C10.4665 38.7392 10.5859 38.7795 10.7017 38.8269C10.7017 38.7536 10.7017 38.696 10.7031 38.6615C10.7089 38.4442 13.4886 38.8579 13.4886 38.8579C13.4886 38.8579 13.5721 38.9162 13.6922 39.0341C13.9339 38.9687 14.2087 39.032 14.3792 39.3089C14.4476 39.4262 14.5231 39.5377 14.6023 39.6471C14.7915 39.8327 14.9591 40.0427 15.1224 40.2571C15.5296 40.6715 15.9209 41.1024 16.3194 41.5254C16.3295 41.534 16.3389 41.5434 16.3482 41.5527C16.9827 41.9923 17.5921 42.4671 18.1877 42.9606C18.8193 43.3728 19.4431 43.7944 20.0452 44.2469C20.0891 44.2476 20.1329 44.2483 20.1768 44.2497C20.2963 44.1965 20.4344 44.1828 20.5804 44.2339C20.6653 44.2634 20.7495 44.2965 20.8322 44.3317C21.3581 44.4397 21.8674 44.6396 22.3365 44.9001C22.4206 44.9468 22.4868 45.0015 22.5364 45.0612C22.7163 45.0828 22.8803 45.1051 23.0069 45.1403C23.0623 45.1554 23.1184 45.1749 23.1738 45.1914C24.0141 45.1569 24.8673 45.3605 25.6752 45.5583C25.7341 45.5727 25.7924 45.5849 25.8514 45.5986C26.1543 45.6274 26.4535 45.6799 26.7521 45.7382C27.2564 45.7252 27.7722 45.672 28.2405 45.6835C29.4563 45.3259 30.7181 45.1972 31.9497 44.9008C32.0403 44.8792 32.1295 44.8547 32.2173 44.8296C32.2691 44.7303 32.3461 44.6425 32.4497 44.5785C33.2863 44.0605 34.2208 43.7404 35.0841 43.2764C35.6956 42.6685 36.2991 42.052 36.8962 41.4297C36.9178 41.388 36.943 41.3463 36.9754 41.3074C37.53 40.6369 38.0998 39.6226 38.953 39.2564C38.989 39.2176 39.0257 39.1794 39.0616 39.1406C39.3041 38.8816 39.6098 38.9054 39.8321 39.0622C39.9508 38.9356 40.0609 38.8658 40.1429 38.8579C40.3623 38.8363 43.3801 38.5651 44.0744 38.4183C44.7686 38.2716 45.3146 37.3213 45.3146 37.3213L46.3807 36.4911C46.3807 36.4911 49.823 33.6941 49.0374 28.9986C48.2519 24.3038 45.7455 21.0018 45.7455 21.0018C45.7455 21.0018 45.58 20.1796 45.9858 19.3084C46.3908 18.4372 48.8353 16.3078 48.8353 16.3078V16.3085Z" fill="#FF5D00"></path><path d="M4.30612 27.6043C4.25648 28.0403 4.20684 28.477 4.1572 28.9129C4.09461 29.5129 4.02555 30.1121 3.95361 30.6891C3.95505 30.9409 3.95937 31.1948 3.97016 31.4488C3.97591 31.4603 3.98023 31.474 3.9867 31.4848C4.00973 31.5243 4.02627 31.5639 4.03994 31.6027C3.97304 30.779 4.32194 28.1331 4.7248 26.6188C4.59171 26.9497 4.45215 27.2785 4.30612 27.6043Z" fill="#FFA664"></path><path d="M7.69501 37.2628L7.39574 36.8362C7.39574 36.8362 6.24759 35.2852 5.87854 35.1967C5.52748 35.1125 4.28509 32.7371 4.07215 31.8076C4.07071 31.8954 4.04985 31.9774 4.01172 32.0522C4.01172 32.0558 4.01172 32.0594 4.01244 32.063C4.01963 32.1033 4.02755 32.1429 4.03546 32.1831C4.25487 32.4831 4.3858 32.8162 4.46781 33.168C4.62896 33.4896 4.79442 33.809 4.94909 34.1327C4.96707 34.1701 4.98002 34.2075 4.99081 34.2442C5.36993 34.7032 5.72531 35.183 6.09436 35.6499C6.17062 35.7463 6.21234 35.8499 6.23105 35.952C6.23896 35.9621 6.24543 35.9729 6.25335 35.983C6.29579 36.0117 6.33752 36.0456 6.37493 36.0909C6.48499 36.2333 6.60585 36.3671 6.73606 36.4923C6.8303 36.5916 6.87994 36.6995 6.9008 36.8067C6.93749 36.8534 6.9749 36.9002 7.01231 36.947C7.13173 36.9642 7.24611 37.0211 7.33819 37.134C7.36337 37.1649 7.38639 37.1973 7.41085 37.229C7.54538 37.2779 7.66408 37.375 7.75832 37.5031C7.9245 37.7289 8.10075 37.9462 8.30362 38.1361C8.64893 38.3196 8.95611 38.5728 9.28631 38.7929C9.43091 38.6167 9.67694 38.526 9.90139 38.5678C9.27192 38.2642 7.92378 37.5872 7.69573 37.2628H7.69501Z" fill="#FFA664"></path><path d="M52.5208 7.18504C51.3949 2.73775 46.2347 0.0393088 43.7075 0.288219C41.1802 0.537848 40.1918 3.31399 39.9004 4.51825C39.6091 5.72251 38.6401 8.42024 38.4178 8.64253C38.1955 8.86554 37.9545 9.89931 37.9545 9.89931C37.9545 9.89931 34.874 7.93321 32.9993 7.37784C31.1238 6.82247 32.3813 6.66492 31.1238 6.82247C29.8671 6.97929 27.9636 7.22964 29.0721 9.77629C30.1807 12.3222 31.3195 14.0243 29.8074 15.4516C28.2952 16.8789 28.0679 17.6313 28.4959 18.9838C28.9239 20.3363 30.1009 22.6836 29.5124 23.7095C28.9239 24.7361 27.8154 26.2648 28.9239 27.4072C30.0325 28.5496 30.3383 29.7639 30.0239 31.0214C29.5599 32.876 27.0686 32.1861 27.0686 32.1861C27.0686 32.1861 24.0191 32.5954 23.0933 31.3372C22.1674 30.079 23.1098 28.9791 23.7386 27.8791C24.3673 26.7792 24.1896 26.0425 23.4141 25.3109C22.6386 24.5792 23.581 24.2375 23.8954 22.7585C24.2098 21.2794 22.9192 21.0046 23.0933 19.7277C23.2674 18.4507 24.1767 18.0659 23.0933 16.294C22.0099 14.5221 20.679 15.271 21.03 13.0891C21.3811 10.9072 21.3077 10.818 21.03 9.44825C20.7524 8.07853 19.5625 7.92242 19.5625 7.92242L15.4878 9.77557C15.4878 9.77557 13.3325 4.22833 12.8786 2.93199C12.4247 1.63636 9.94707 0.150095 8.43562 0.186065C6.92418 0.222035 6.24003 1.01984 6.24003 1.01984C6.24003 1.01984 6.22636 0.942147 6.19687 0.809779C6.02134 0.923443 5.84581 1.03711 5.67099 1.15077C5.6379 1.29393 5.55589 1.43133 5.40482 1.53637C4.58399 2.10972 3.71568 2.62984 2.956 3.28521C2.60422 3.6334 2.26467 3.99453 1.93519 4.36358C1.82728 4.49667 1.72081 4.63048 1.61362 4.76356C1.43521 5.04269 1.25967 5.32325 1.07551 5.59662C0.971198 5.75129 0.841707 5.9074 0.709338 6.06566C0.585603 6.41673 0.471939 6.77067 0.379137 7.13037C0.379857 7.14332 0.382734 7.15483 0.382734 7.16778C0.385612 8.20442 0.167636 9.22236 0.0683594 10.2475C0.0697982 10.3345 0.0733952 10.4216 0.0762727 10.5086C0.0899412 10.5561 0.105048 10.6043 0.117278 10.6518C0.148931 10.6993 0.176988 10.7511 0.199289 10.8115C0.455393 11.5093 0.680563 12.2194 0.952494 12.9107C1.20284 12.9819 1.39924 13.1783 1.36902 13.4574C2.14597 14.3488 2.92291 15.2394 3.7682 16.0688C3.7941 16.094 3.81568 16.1206 3.83582 16.1472C4.83218 16.6328 5.65373 17.4443 6.376 18.2759C6.41269 18.3176 6.44074 18.3623 6.46448 18.4069C6.56016 18.4745 6.66088 18.5371 6.76375 18.6076C7.03856 18.7982 7.25366 19.0047 7.43782 19.286C7.59609 19.5277 7.56156 19.7622 7.43135 19.9356C7.49466 20.06 7.52559 20.2003 7.50689 20.3348C7.54573 20.4442 7.55005 20.5679 7.50185 20.696C7.43926 20.8636 7.36445 21.0226 7.28243 21.1758C7.27452 21.2226 7.25869 21.2708 7.23927 21.319C7.2256 21.4945 7.14431 21.6671 6.97022 21.7959C6.96734 21.7981 6.96446 21.801 6.96087 21.8031C6.62851 22.3563 6.28032 22.8987 5.91127 23.4261C5.87458 23.5059 5.83861 23.5843 5.80192 23.6613C5.60841 24.2267 5.41273 24.7908 5.20842 25.3519C5.97746 23.8052 7.55437 21.4175 7.84212 20.4895C8.1824 19.391 8.72122 20.778 8.84496 22.7563C8.96869 24.7339 9.45284 24.5469 9.76075 24.1692C10.0686 23.7915 9.20825 25.5001 9.71686 28.1813C10.2255 30.8624 11.5614 31.2272 11.6786 31.1236C11.7966 31.02 11.0427 33.0609 12.3628 34.2407C13.6822 35.4198 15.472 34.2407 15.472 34.2407C15.472 34.2407 16.0562 34.8047 16.2051 36.5269C16.354 38.2484 15.4734 41.1217 16.3849 40.785C17.2964 40.4483 17.7906 40.1692 17.4654 40.9375C17.3403 41.2332 17.1475 41.5799 16.9842 42.0087C17.387 42.3108 17.7813 42.6252 18.1697 42.9461C18.8071 43.3619 19.438 43.7878 20.0459 44.2446C20.0898 44.2453 20.1337 44.246 20.1776 44.2475C20.297 44.1942 20.4351 44.1806 20.5811 44.2316C20.666 44.2611 20.7502 44.2942 20.8329 44.3295C21.3588 44.4374 21.8681 44.6374 22.3372 44.8978C22.4213 44.9445 22.4875 44.9992 22.5372 45.0589C22.717 45.0805 22.881 45.1028 23.0077 45.1381C23.063 45.1532 23.1192 45.1726 23.1745 45.1891C24.0148 45.1546 24.868 45.3582 25.6759 45.556C25.7349 45.5704 25.7931 45.5826 25.8521 45.5963C26.155 45.6251 26.4543 45.6776 26.7528 45.7359C27.2571 45.7229 27.7729 45.6697 28.2412 45.6812C29.457 45.3237 30.7188 45.1949 31.9504 44.8985C32.0411 44.8769 32.1303 44.8525 32.218 44.8273C32.2698 44.728 32.3468 44.6402 32.4504 44.5762C33.2871 44.0583 34.2215 43.7381 35.0848 43.2741C35.6963 42.6662 36.2999 42.0497 36.897 41.4274C36.9186 41.3857 36.9437 41.344 36.9761 41.3051C37.2106 41.0217 37.4473 40.6771 37.7077 40.3447C37.8451 39.1441 37.4574 38.5506 38.4343 37.1715C39.453 35.7342 38.7868 35.1716 40.3767 35.4529C41.9665 35.7342 41.614 31.8746 41.614 31.8746C41.614 31.8746 41.4953 31.9631 42.5953 31.02C43.6952 30.0768 42.5953 26.777 42.5953 26.777C42.5953 26.777 44.0096 28.8201 44.4808 25.5202C44.952 22.2204 44.4412 20.3694 44.4412 20.3694C44.4412 20.3694 44.993 22.2103 45.4441 20.8801C45.8951 19.5493 45.606 19.85 45.9865 19.3068C46.3671 18.7637 48.8792 16.6796 50.2158 15.0509C51.5525 13.4215 53.648 11.6309 52.5215 7.1836L52.5208 7.18504Z" fill="#FFA664"></path><path d="M43.1168 18.9845C43.1168 18.9845 40.2709 17.1349 36.0114 17.1644C31.7519 17.1939 30.7864 18.6082 30.7864 18.6082L29.9268 20.4923C30.0973 20.5988 31.5447 22.8167 33.6043 24.267C33.9223 24.1583 34.246 24.0799 34.5733 24.0181C35.6409 23.6994 36.756 23.5202 37.8638 23.4346C38.953 23.3498 40.0918 23.3512 41.1644 23.6008C41.4514 23.6116 41.7392 23.6382 42.0277 23.6821C42.0277 23.6821 42.0284 23.6821 42.0291 23.6821C42.0464 23.685 42.0644 23.6871 42.0816 23.6893C42.6571 23.1016 43.0578 22.4196 43.306 21.711C44.0082 19.7082 43.1161 18.9845 43.1161 18.9845H43.1168Z" fill="#639EFD"></path><path d="M22.6634 18.6082C22.6634 18.6082 21.0663 16.7227 16.2032 17.2708C11.3401 17.819 10.0661 18.9226 9.715 18.9844C9.715 18.9844 9.12366 20.8081 10.7013 22.9951C10.8221 23.1634 10.943 23.3231 11.0631 23.4763C11.5135 23.3756 11.9984 23.444 12.4429 23.5353C12.6595 23.5799 12.8731 23.6368 13.0861 23.6972C13.112 23.6929 13.1379 23.6878 13.1638 23.6842C13.9062 23.5742 14.6285 23.5634 15.3702 23.6885C15.4601 23.7037 15.5493 23.7238 15.6385 23.7425C16.3982 23.7569 17.155 23.8288 17.8844 24.0152C17.9456 24.031 17.9952 24.0634 18.0333 24.1065C18.1341 24.1259 18.2355 24.1439 18.3355 24.1662C18.7189 24.2238 19.0937 24.3259 19.4455 24.4935C19.4829 24.5079 19.5203 24.523 19.5577 24.5374C22.095 23.149 23.1964 20.6772 23.1964 20.6772L22.6641 18.6089L22.6634 18.6082Z" fill="#639EFD"></path><path d="M5.3866 4.84996C5.26718 4.88305 5.1492 4.92693 5.03482 4.98017C3.76509 5.56935 2.85074 7.29158 3.07087 8.1196C3.31043 9.02244 4.27873 9.80873 4.26578 10.2799C4.25283 10.7511 4.21183 11.1281 4.21183 11.1281C4.21183 11.1281 5.61896 11.4626 5.87866 12.6C6.13836 13.7373 6.31462 14.2754 6.31462 14.2754C6.31462 14.2754 8.46848 15.789 8.40373 16.0991C8.33899 16.4092 8.07785 14.9538 8.28647 15.0524C8.4951 15.1509 10.3432 13.0906 10.3432 13.0906L10.9756 9.99649C10.9756 9.99649 11.0849 10.2102 10.4972 9.14545C9.90942 8.08075 9.53894 6.65348 9.41016 6.58154C9.28139 6.5096 8.44402 6.96137 7.44838 5.63553C6.45274 4.30969 5.98082 4.30969 5.98082 4.30969C5.98082 4.30969 6.40382 4.57155 5.87794 4.51903C5.35207 4.46652 5.38516 4.85068 5.38516 4.85068L5.3866 4.84996Z" fill="#FF7A9D"></path><path d="M43.6769 6.63759C43.6769 6.63759 43.6013 8.03609 42.9409 8.92238C42.2813 9.80867 42.1064 9.77702 42.1064 9.77702C42.1064 9.77702 42.9719 13.0841 42.9409 13.3323C42.91 13.5805 44.8121 15.0523 44.8121 15.0523L44.8876 15.8271C44.8876 15.8271 45.3257 15.3904 46.0034 14.8782C46.6811 14.366 46.9703 14.2754 46.9703 14.2754C46.9703 14.2754 46.9954 12.6373 48.0954 11.8518C49.1953 11.0662 49.4363 10.895 49.2371 10.823C49.0378 10.7518 48.8472 9.56264 49.4925 9.29287C50.1377 9.0231 50.1557 8.11954 50.1557 8.11954C50.1557 8.11954 49.968 5.87431 48.5601 5.0132C47.1523 4.15137 46.4919 4.93191 46.2717 5.0132C46.0516 5.09449 44.7301 6.48292 44.6056 6.41745C44.4812 6.35199 43.6762 6.63759 43.6762 6.63759H43.6769Z" fill="#FF7A9D"></path><path opacity="0.39" d="M26.2793 29.977C26.0944 29.7655 24.0513 29.1367 24.2089 30.3942C24.3664 31.6517 25.939 32.6524 26.7238 32.6229C27.5087 32.5941 29.0619 31.5409 29.0712 30.4172C29.0799 29.2935 27.4828 30.0237 27.0246 29.9734C26.5663 29.923 26.28 29.977 26.28 29.977H26.2793Z" fill="black"></path><path d="M24.5468 33.4559C24.5238 33.5365 24.9274 35.2127 25.59 35.3177C26.2525 35.4227 26.5669 35.4227 26.5669 35.4227C26.5669 35.4227 27.8316 35.7314 28.2992 34.8702C28.7668 34.0091 28.6092 32.7516 28.6092 32.7516L27.0683 32.1876L25.5892 33.0099L24.5461 33.4559H24.5468Z" fill="white"></path><path opacity="0.21" d="M10.7017 38.6614C10.7017 38.6614 9.75281 38.4074 9.13126 38.2937C8.5097 38.1801 8.49603 38.093 7.94282 37.2629C7.38961 36.432 6.29613 35.5795 5.8796 35.1968C5.46235 34.814 4.25377 33.6939 4.20989 29.6819C4.1991 28.7064 4.39118 27.6928 4.68685 26.7166C4.56527 27.0151 4.43794 27.3115 4.30701 27.6057C4.23795 28.2129 4.16888 28.8201 4.09982 29.4272C4.07033 29.6876 3.97896 30.0653 3.92285 30.4401C3.94228 30.5006 3.95307 30.5675 3.95379 30.6416C3.95451 30.9092 3.95954 31.1797 3.97105 31.4502C3.97681 31.4617 3.98112 31.4746 3.9876 31.4861C4.1063 31.6919 4.09479 31.8911 4.0135 32.0537C4.0135 32.0573 4.0135 32.0609 4.01421 32.0645C4.02141 32.1048 4.02932 32.1444 4.03724 32.1847C4.25665 32.4846 4.38758 32.8177 4.46959 33.1695C4.63073 33.4911 4.7962 33.8105 4.95086 34.1342C4.96885 34.1716 4.9818 34.209 4.99259 34.2457C5.37171 34.7047 5.72709 35.1845 6.09614 35.6514C6.17239 35.7478 6.21412 35.8514 6.23282 35.9536C6.24074 35.9636 6.24721 35.9744 6.25512 35.9845C6.29757 36.0133 6.33929 36.0471 6.3767 36.0924C6.48677 36.2348 6.60763 36.3687 6.73784 36.4938C6.83208 36.5931 6.88172 36.701 6.90258 36.8082C6.93927 36.855 6.97668 36.9017 7.01408 36.9485C7.1335 36.9657 7.24789 37.0226 7.33997 37.1355C7.36515 37.1665 7.38817 37.1988 7.41263 37.2305C7.54715 37.2794 7.66585 37.3765 7.76009 37.5046C7.92627 37.7305 8.10253 37.9477 8.30539 38.1376C8.65142 38.3211 8.9586 38.575 9.28881 38.7952C9.46578 38.5801 9.7931 38.488 10.0478 38.6153C10.0758 38.6218 10.1053 38.634 10.1312 38.6419C10.2039 38.6635 10.2765 38.6837 10.3485 38.7052C10.4816 38.7455 10.6154 38.7901 10.7441 38.8455C10.7341 38.7678 10.7211 38.7045 10.7039 38.6628L10.7017 38.6614Z" fill="black"></path><path opacity="0.21" d="M7.43032 19.9384C7.49363 20.0628 7.52456 20.2031 7.50586 20.3376C7.54471 20.447 7.54902 20.5707 7.50082 20.6988C7.43824 20.8664 7.36342 21.0254 7.28141 21.1786C7.2735 21.2254 7.25767 21.2736 7.23825 21.3218C7.23321 21.3851 7.21954 21.4477 7.1958 21.5081C7.40586 21.1858 7.53895 21.0016 7.53895 21.0016C7.53895 21.0016 7.86771 20.1794 7.69506 19.7276C7.67204 19.6672 7.60442 19.5607 7.50442 19.4211C7.5778 19.6139 7.53751 19.7959 7.43104 19.9377L7.43032 19.9384Z" fill="black"></path><path opacity="0.21" d="M3.76725 16.0717C3.79315 16.0969 3.81473 16.1235 3.83487 16.1501C4.83123 16.6357 5.65278 17.4472 6.37505 18.2788C6.41174 18.3205 6.43979 18.3651 6.46353 18.4097C6.55921 18.4774 6.65993 18.54 6.7628 18.6105C6.86855 18.6831 6.96279 18.7608 7.052 18.8421C6.17218 17.7659 4.64563 16.107 4.04781 15.7401C3.21403 15.2279 0.0105764 13.2661 0.465233 8.64326C0.722776 6.02539 2.45579 3.90318 3.91041 2.55432C3.58164 2.78525 3.26008 3.02552 2.95649 3.28738C2.60471 3.63557 2.26515 3.99671 1.93567 4.36575C1.82776 4.49884 1.72129 4.63265 1.6141 4.76574C1.43569 5.04486 1.26016 5.32542 1.076 5.59879C0.971686 5.75346 0.842195 5.90957 0.709827 6.06784C0.586091 6.4189 0.472427 6.77284 0.379625 7.13254C0.380345 7.14549 0.383222 7.157 0.383222 7.16995C0.3861 8.20659 0.168124 9.22454 0.0688477 10.2497C0.0702864 10.3367 0.0738835 10.4238 0.076761 10.5108C0.0904295 10.5583 0.105537 10.6065 0.117766 10.654C0.14942 10.7014 0.177476 10.7532 0.199777 10.8137C0.455881 11.5115 0.681051 12.2215 0.952981 12.9129C1.20333 12.9841 1.39973 13.1805 1.36951 13.4596C2.14646 14.3509 2.9234 15.2415 3.76869 16.071L3.76725 16.0717Z" fill="black"></path><path opacity="0.21" d="M7.06083 21.719C7.03349 21.7471 7.004 21.7744 6.97019 21.7996C6.96731 21.8017 6.96443 21.8046 6.96084 21.8068C6.62848 22.36 6.28029 22.9024 5.91124 23.4297C5.87455 23.5096 5.83858 23.588 5.80189 23.665C5.67528 24.0333 5.54867 24.4016 5.41846 24.7685C5.9875 23.4851 6.63351 22.3916 7.06083 21.719Z" fill="black"></path><path opacity="0.53" d="M42.1062 9.77626C42.1235 9.80863 42.9407 13.3315 42.9407 13.3315L44.4406 14.5185L44.8866 15.8264L46.5528 14.5185C46.5528 14.5185 46.2262 13.907 45.5888 13.9005C44.9514 13.8941 44.4924 13.6998 44.3291 13.0898L44.1658 12.4797C44.1658 12.4797 43.6385 12.884 43.1162 11.9747C42.5939 11.0654 42.7076 9.24463 42.7076 9.24463L42.1055 9.77626H42.1062Z" fill="black"></path><path opacity="0.53" d="M29.9268 20.4923L31.2512 18.0701C31.2512 18.0701 32.2828 17.1464 36.4963 17.327C40.7097 17.5076 43.1168 18.9838 43.1168 18.9838L43.6765 20.6758C43.6765 20.6758 43.2341 21.67 43.3075 21.7103C43.3808 21.7505 44.1369 20.6643 40.3018 19.0075C36.4668 17.3507 34.3539 18.1852 32.5813 18.3967C30.8087 18.6082 29.9268 20.4923 29.9268 20.4923Z" fill="black"></path><path opacity="0.53" d="M11.2737 9.77626C11.2565 9.80863 10.4392 13.3315 10.4392 13.3315L8.93929 14.5185L8.49326 15.8264L6.82715 14.5185C6.82715 14.5185 7.15375 13.907 7.79113 13.9005C8.42852 13.8941 8.88749 13.6998 9.05079 13.0898L9.21409 12.4797C9.21409 12.4797 9.74141 12.884 10.2637 11.9747C10.786 11.0654 10.6723 9.24463 10.6723 9.24463L11.2744 9.77626H11.2737Z" fill="black"></path><path opacity="0.53" d="M23.4534 20.4923L22.129 18.0701C22.129 18.0701 21.0974 17.1464 16.8839 17.327C12.6704 17.5076 9.75181 18.6075 9.75181 18.6075L9.70361 20.6758C9.70361 20.6758 10.146 21.67 10.0727 21.7103C9.99928 21.7505 9.2432 20.6643 13.0783 19.0075C16.9134 17.3507 19.0262 18.1852 20.7988 18.3967C22.5707 18.6082 23.4534 20.4923 23.4534 20.4923Z" fill="black"></path><path opacity="0.39" d="M14.7812 29.9222L17.8293 30.4294C17.8293 30.4294 19.5336 32.7034 21.2234 32.594C22.9133 32.484 24.2089 32.594 24.2089 32.594C24.2089 32.594 24.3657 35.2652 26.5656 35.4227C28.7655 35.5795 28.6087 32.7516 28.6087 32.7516C28.6087 32.7516 29.7554 32.7379 31.7517 32.4372C33.7481 32.1365 35.5228 29.9229 35.5228 29.9229L38.3514 29.7661L35.6803 31.0229C35.6803 31.0229 35.6336 33.2998 32.0661 33.8515C30.1425 34.1494 29.5518 33.5372 29.5518 33.5372C29.5518 33.5372 29.395 36.837 26.4088 36.5227C23.4233 36.2083 23.7377 34.0084 23.7377 34.0084C23.7377 34.0084 21.0256 34.8911 19.4012 33.4897C17.4524 31.8085 17.138 31.0229 17.138 31.0229L14.7812 29.9229V29.9222Z" fill="black"></path><path opacity="0.39" d="M20.7256 37.027C21.2234 38.0938 28.5828 41.898 33.638 36.9939C33.638 36.9939 30.8093 41.1434 26.2527 40.2938C21.6953 39.4441 20.7263 37.027 20.7263 37.027H20.7256Z" fill="black"></path><path opacity="0.39" d="M19.052 43.536C19.1419 43.5691 19.2081 43.6007 19.2412 43.6295C19.4556 43.8209 18.8801 43.1389 17.2197 42.1864C17.542 42.4339 17.8571 42.69 18.17 42.949C18.4657 43.1418 18.7607 43.3367 19.052 43.5353V43.536Z" fill="black"></path><path opacity="0.39" d="M14.6014 39.647C14.7906 39.8326 14.9582 40.0427 15.1215 40.2571C15.5294 40.6714 15.9207 41.1023 16.3193 41.5261C16.3301 41.5354 16.3401 41.5462 16.3509 41.5556C16.3797 41.5757 16.4092 41.5951 16.438 41.6153C15.5891 40.8117 15.2373 39.783 14.2935 39.1974C14.3237 39.2298 14.3524 39.2672 14.3783 39.3089C14.4467 39.4262 14.5222 39.5377 14.6014 39.647Z" fill="black"></path><path opacity="0.39" d="M39.0619 39.1405C39.1885 39.0059 39.3316 38.9506 39.4712 38.9477C39.5266 38.7973 39.5626 38.7009 39.5626 38.7009L38.9576 38.8578C38.7461 39.1304 38.5245 39.411 38.2993 39.6901C38.4986 39.5088 38.7151 39.3592 38.9518 39.257C38.9885 39.2182 39.0245 39.1793 39.0612 39.1405H39.0619Z" fill="black"></path><path opacity="0.39" d="M35.3622 43.0014C35.8787 42.4834 36.3888 41.9583 36.8952 41.4295C36.9168 41.3878 36.942 41.3461 36.9744 41.3072C37.0815 41.1777 37.1895 41.0353 37.2988 40.8871C36.5391 41.7626 35.824 42.4964 35.3687 42.7834C35.1572 42.9165 35.1924 42.9841 35.3615 43.0014H35.3622Z" fill="black"></path><path d="M26.2793 29.3482C26.0944 29.1367 24.0513 28.5079 24.2089 29.7654C24.3664 31.0229 25.939 32.0236 26.7238 31.9941C27.5087 31.9646 29.0619 30.9121 29.0712 29.7884C29.0799 28.6648 27.4828 29.3949 27.0246 29.3446C26.5663 29.2942 26.28 29.3482 26.28 29.3482H26.2793Z" fill="#FF7A9D"></path><path d="M26.9054 33.2041C26.8399 32.9674 26.6572 32.7106 26.4364 32.5933C26.1184 32.4257 25.7587 32.4236 25.4616 32.5703C25.3213 32.5574 25.1789 32.5689 25.0695 32.5991C24.8328 32.6646 24.576 32.8473 24.4587 33.0681C24.3336 33.3055 24.271 33.5926 24.3559 33.8552C24.3904 33.9364 24.4242 34.0177 24.4587 34.099C24.5494 34.2523 24.6717 34.3746 24.8249 34.4652C25.1263 34.6954 25.568 34.722 25.9256 34.6414C26.2932 34.5587 26.6076 34.3077 26.8018 33.9904C26.9385 33.7667 26.9737 33.4537 26.9047 33.2034L26.9054 33.2041Z" fill="white"></path><path d="M30.3865 20.5579C30.2563 20.3838 30.4095 20.2342 30.4599 20.0536C30.4721 20.0083 30.4779 19.9608 30.4851 19.9148C30.5153 19.7356 30.5505 19.5579 30.5973 19.3817C30.7664 18.7486 31.0692 18.163 31.4519 17.6329C32.0994 16.7365 32.9936 15.9754 33.9403 15.4128C33.982 15.3876 34.0252 15.3646 34.0698 15.3437C34.0964 15.3308 34.1238 15.3186 34.1504 15.3071C34.1806 15.2934 34.1741 15.297 34.1446 15.3092C34.1626 15.302 34.1806 15.2941 34.1986 15.2869C34.3518 15.2279 34.5065 15.1747 34.664 15.1279C35.6259 14.8423 36.6014 14.7265 37.6063 14.7589C38.8142 14.7977 40.0293 15.0963 41.0357 15.7862C42.3033 16.6552 43.0104 18.0674 43.3219 19.54C43.373 19.7817 43.414 20.0263 43.4478 20.2709C43.4651 20.3982 43.6262 20.4651 43.7377 20.4356C43.8737 20.3996 43.9197 20.2709 43.9025 20.1457C43.6716 18.4745 43.0263 16.7991 41.6954 15.6977C40.658 14.8394 39.3581 14.4186 38.0294 14.3107C36.9388 14.2222 35.8165 14.3301 34.759 14.6107C34.4295 14.6977 34.0936 14.7999 33.79 14.9567C33.377 15.1689 32.9936 15.4732 32.6303 15.7603C32.1828 16.1142 31.7634 16.507 31.3958 16.9444C30.8894 17.5458 30.4764 18.2249 30.2275 18.9738C30.1556 19.1911 30.0988 19.4134 30.057 19.6378C30.0355 19.7536 30.0254 19.8738 29.9844 19.9845C29.8794 20.2709 29.7736 20.5205 29.9793 20.7953C30.1592 21.0356 30.5685 20.8003 30.3865 20.5572V20.5579Z" fill="black"></path><path d="M41.3701 7.37855C41.373 8.00946 41.5435 8.6231 41.7118 9.22596C41.891 9.86693 42.0133 10.5129 42.1499 11.1633C42.2909 11.8309 42.4348 12.5006 42.4564 13.1848C42.465 13.4531 42.4744 13.7243 42.4708 13.9934C42.4679 14.2265 42.4607 14.5171 42.3104 14.7106C42.1262 14.9473 42.4578 15.2832 42.6434 15.0437C42.9967 14.589 42.9413 14.0142 42.9319 13.4711C42.919 12.7654 42.8219 12.0819 42.6787 11.392C42.5384 10.7158 42.4233 10.0331 42.2406 9.36696C42.0615 8.7159 41.8442 8.05982 41.8413 7.37783C41.8399 7.07425 41.3687 7.07425 41.3701 7.37783V7.37855Z" fill="black"></path><path d="M42.5297 13.2567C43.1318 13.8459 43.7095 14.4617 44.2735 15.0875C44.3584 15.1825 44.5202 15.1746 44.6065 15.0875C44.7008 14.9933 44.6922 14.8494 44.6065 14.7545C44.0425 14.1279 43.4649 13.5128 42.8627 12.9236C42.6455 12.7114 42.3124 13.0445 42.5297 13.2567Z" fill="black"></path><path d="M43.6917 15.7854C44.0867 15.4387 44.6018 15.2847 45.0974 15.143L44.8075 14.8531C44.5701 15.6531 44.6327 16.5012 44.7442 17.317C44.8032 17.7515 44.8773 18.1839 44.9449 18.617C45.0125 19.05 45.06 19.4889 45.1485 19.9183C45.3082 20.6881 45.6449 21.3988 46.0334 22.0772C46.4779 22.8542 46.9384 23.6175 47.3477 24.4145C47.7556 25.2095 48.1606 26.0174 48.434 26.8698C48.7023 27.7065 48.8635 28.5762 48.9563 29.4489C49.1044 30.8373 48.8591 32.2387 48.2412 33.4919C47.9995 33.9825 47.7088 34.4551 47.3642 34.881C47.2434 35.0299 47.1168 35.1745 46.9801 35.3098C46.934 35.3558 46.8858 35.3997 46.8369 35.4428C46.8182 35.4601 46.7981 35.4759 46.7779 35.4918C46.8376 35.4443 46.7743 35.4932 46.7592 35.5026C46.506 35.6673 46.742 36.0752 46.9973 35.9097C47.2204 35.7651 47.4067 35.5565 47.5786 35.3565C47.8844 35.0004 48.1563 34.6134 48.3915 34.2076C49.0649 33.048 49.4512 31.7229 49.4721 30.3798C49.485 29.5417 49.357 28.6906 49.185 27.8727C48.9987 26.9871 48.7002 26.149 48.3189 25.3303C47.9311 24.4973 47.5103 23.6793 47.0527 22.8822C46.6448 22.1708 46.1801 21.4794 45.8787 20.7133C45.5212 19.804 45.4507 18.8083 45.2981 17.8501C45.1485 16.9113 44.9859 15.9099 45.2629 14.979C45.314 14.8071 45.1435 14.6402 44.973 14.6891C44.3939 14.8545 43.8191 15.0488 43.3594 15.4523C43.1306 15.6531 43.4651 15.9854 43.6925 15.7854H43.6917Z" fill="black"></path><path d="M42.3394 9.94328C43.8034 8.7829 44.1026 6.65062 43.8753 4.90609C43.8098 4.4054 43.7019 3.91189 43.5336 3.43494C43.4336 3.15078 42.9775 3.27307 43.0789 3.56011C43.6264 5.11184 43.6832 7.06283 42.889 8.54263C42.6667 8.95628 42.3739 9.31669 42.0056 9.60877C41.7682 9.79725 42.1034 10.1289 42.3387 9.94185L42.3394 9.94328Z" fill="black"></path><path d="M44.0405 6.9347C44.3009 6.70953 44.693 6.64551 45.0066 6.52681C45.3203 6.40811 45.5944 6.24624 45.8289 5.99877C46.2332 5.57217 46.5879 4.81537 47.2447 4.7571C47.859 4.70315 48.4439 5.17147 48.8504 5.57865C49.2331 5.96208 49.5928 6.42394 49.7539 6.94909C49.841 7.23181 49.91 7.52461 49.9518 7.8174C49.9719 7.96128 49.9848 8.10803 49.9784 8.25335C49.9762 8.30515 49.9712 8.35335 49.9568 8.40299C49.9467 8.43752 49.933 8.44759 49.946 8.43967C49.6899 8.60082 49.9259 9.00872 50.1841 8.84685C50.4222 8.69722 50.456 8.39651 50.4503 8.13897C50.4431 7.81308 50.3791 7.48432 50.3021 7.16851C50.1546 6.56206 49.8813 6.05201 49.4806 5.57145C49.0237 5.02328 48.3964 4.47078 47.677 4.32187C47.3346 4.25065 46.9835 4.2823 46.6728 4.4492C46.339 4.62905 46.0944 4.93479 45.8627 5.22687C45.5965 5.5621 45.3426 5.88871 44.934 6.05273C44.5189 6.21963 44.0542 6.30164 43.7074 6.60234C43.4779 6.80162 43.8125 7.13326 44.0405 6.93542V6.9347Z" fill="black"></path><path d="M45.3731 16.0982C45.3976 15.9054 45.5156 15.6745 45.6508 15.5133C45.8155 15.3169 46.0098 15.1565 46.2141 15.0141C46.6349 14.7198 47.1004 14.4983 47.5241 14.2091C47.6291 14.1371 47.6759 14.0019 47.609 13.8868C47.5478 13.7825 47.3925 13.7299 47.2867 13.8019C46.3961 14.4098 45.0573 14.8702 44.9026 16.0982C44.8868 16.2248 45.0221 16.3342 45.1386 16.3342C45.2789 16.3342 45.358 16.2255 45.3746 16.0982H45.3731Z" fill="black"></path><path d="M47.2051 14.0935C47.2849 13.3655 47.5324 12.6619 48.0461 12.1274C48.3007 11.8627 48.5705 11.5871 48.8957 11.4087C49.2201 11.231 49.6107 11.2418 49.9222 11.026C50.1704 10.8548 49.9345 10.4462 49.6841 10.6188C49.3597 10.8433 48.9309 10.8325 48.5914 11.0397C48.2338 11.2569 47.9216 11.5634 47.6403 11.8699C47.077 12.4821 46.8231 13.2799 46.7339 14.0921C46.7202 14.2194 46.8526 14.3266 46.9698 14.328C47.1087 14.3295 47.1914 14.2187 47.2058 14.0921L47.2051 14.0935Z" fill="black"></path><path d="M49.2457 10.8424C49.3134 10.5597 49.2292 10.2691 49.2925 9.99139C49.3472 9.75111 49.5472 9.58565 49.704 9.41012C49.8946 9.1979 50.0925 9.00151 50.3184 8.82597C50.5443 8.65044 50.7817 8.49218 51.0119 8.32384C51.1147 8.24902 51.1651 8.11953 51.0967 8.00155C51.0378 7.90012 50.8773 7.84112 50.7745 7.91666C50.5241 8.10011 50.2673 8.2742 50.022 8.46484C49.7731 8.65836 49.5587 8.87345 49.3457 9.1051C49.1544 9.31372 48.9601 9.51084 48.863 9.78349C48.7537 10.0899 48.8652 10.4101 48.7911 10.7173C48.7206 11.0122 49.1752 11.1381 49.2457 10.8424Z" fill="black"></path><path d="M37.9536 40.621C38.2658 39.8649 38.9902 39.18 39.7923 38.9879C40.188 38.893 40.5995 38.8973 41.0038 38.8786C41.3383 38.8628 41.6728 38.8635 42.0081 38.8664C42.6491 38.8721 43.3087 38.8807 43.9332 38.7103C44.5849 38.5318 45.1295 38.1311 45.4648 37.5398C45.9381 36.7053 45.8763 35.6874 45.6712 34.7831C45.6043 34.4874 45.1497 34.6126 45.2166 34.9083C45.3935 35.6866 45.4655 36.5808 45.0576 37.3017C44.736 37.87 44.2058 38.1844 43.5771 38.3095C42.9483 38.4347 42.2944 38.3937 41.6577 38.3923C41.3009 38.3916 40.9448 38.4081 40.5887 38.4239C40.2024 38.4412 39.8075 38.4714 39.4398 38.5987C38.5694 38.9002 37.8471 39.6527 37.4996 40.4943C37.3838 40.7742 37.8399 40.8965 37.9543 40.6195L37.9536 40.621Z" fill="black"></path><path d="M45.5059 37.2543C47.2116 36.8572 47.8648 34.4817 47.3274 32.9969C47.2253 32.7135 46.7692 32.8358 46.8728 33.1221C47.1253 33.8206 47.0627 34.6148 46.8217 35.3076C46.585 35.9867 46.1124 36.6291 45.3807 36.7996C45.0851 36.8687 45.2102 37.3233 45.5059 37.2543Z" fill="black"></path><path d="M37.763 9.97489C38.1817 9.66771 38.427 9.18787 38.6378 8.7253C38.8687 8.21741 39.0975 7.7016 39.3061 7.18436C39.5723 6.52396 39.7766 5.83982 39.9442 5.14848C40.0996 4.50534 40.2427 3.84925 40.5204 3.24496C41.0542 2.07955 42.157 0.991106 43.3951 0.603353C44.5634 0.237901 45.8907 0.67745 46.9281 1.22563C49.1193 2.38313 51.1617 4.14421 52.2192 6.4254C53.2983 8.75264 52.8738 11.4993 51.3394 13.5201C50.9128 14.0812 50.3991 14.5725 49.8812 15.048C49.3646 15.5221 48.8395 15.9876 48.3172 16.4559C47.7949 16.9242 47.2518 17.4199 46.7568 17.94C46.3137 18.4062 45.8864 18.8925 45.6418 19.4953C45.5274 19.7781 45.4648 20.0701 45.426 20.3716C45.3871 20.6715 45.859 20.6687 45.8972 20.3716C45.9806 19.7284 46.282 19.1795 46.7043 18.6954C47.1921 18.1364 47.7302 17.6235 48.2784 17.1242C49.3438 16.1545 50.5034 15.243 51.4387 14.1423C53.1141 12.1698 53.781 9.38714 52.9213 6.91099C52.0753 4.47441 50.0545 2.53708 47.8906 1.22851C46.805 0.5717 45.6159 0.0299965 44.3239 0.00841468C42.9779 -0.0146059 41.7801 0.793273 40.9233 1.77668C40.4801 2.28529 40.1471 2.8529 39.9161 3.48668C39.6773 4.14133 39.55 4.82763 39.368 5.49882C39.1773 6.20311 38.9385 6.89013 38.6342 7.55341C38.409 8.04548 38.2292 8.55912 37.9565 9.02817C37.8428 9.22384 37.7105 9.43103 37.5249 9.56771C37.2832 9.7454 37.5177 10.1547 37.763 9.97489Z" fill="black"></path><path d="M26.5279 32.1357C27.115 32.622 27.8157 32.7867 28.5645 32.809C29.3703 32.8327 30.1882 32.8155 30.9925 32.7687C31.6745 32.7292 32.3816 32.6961 33.0277 32.4551C33.5974 32.2428 34.1355 31.9436 34.6154 31.5695C35.0952 31.1954 35.5858 30.6954 35.6858 30.0732L35.4585 30.2465C36.3556 30.2113 37.2519 30.1415 38.1332 29.9624C38.4303 29.9019 38.3044 29.4473 38.008 29.5077C37.1678 29.6782 36.3146 29.7408 35.4585 29.7746C35.3642 29.7782 35.2477 29.8444 35.2312 29.948C35.1549 30.4271 34.8017 30.8026 34.4449 31.1048C34.0233 31.4616 33.5255 31.7515 33.0133 31.9572C32.4586 32.1803 31.8845 32.2335 31.2918 32.2774C30.5299 32.3335 29.7659 32.3342 29.0019 32.3407C28.2473 32.3472 27.4689 32.3054 26.861 31.8026C26.6287 31.6105 26.2934 31.9421 26.5279 32.1357Z" fill="black"></path><path d="M26.782 29.5892C27.2302 29.6467 27.6388 29.3403 28.0625 29.2503C28.4028 29.1777 28.7862 29.3841 28.833 29.7474C28.8797 30.1078 28.5524 30.4819 28.333 30.7366C28.1136 30.9913 27.8467 31.2718 27.5186 31.4121C27.3129 31.5006 27.0913 31.5617 26.8726 31.6049C26.6899 31.6409 26.4863 31.6682 26.3216 31.6114C26.0338 31.5128 25.9108 31.9675 26.1964 32.066C26.4043 32.1373 26.6352 32.1149 26.8489 32.0847C27.087 32.0502 27.3222 31.9883 27.5474 31.9049C27.9711 31.7473 28.2985 31.4812 28.5992 31.1466C28.915 30.7956 29.2783 30.3524 29.3063 29.8604C29.3344 29.3683 28.9416 28.8863 28.4481 28.7899C28.1459 28.7302 27.8625 28.8021 27.5805 28.9093C27.3309 29.0043 27.0568 29.1532 26.782 29.1187C26.6554 29.1021 26.546 29.2388 26.546 29.3546C26.546 29.4956 26.6546 29.5741 26.782 29.5906V29.5892Z" fill="black"></path><path d="M26.4486 32.3063C26.537 32.5106 26.5083 32.7753 26.4968 32.9911C26.4831 33.2472 26.4514 33.5041 26.4586 33.7616C26.4737 34.3414 26.4133 34.9472 26.5622 35.5133C26.5896 35.6169 26.686 35.6816 26.7896 35.6867C27.2586 35.7083 27.7312 35.6277 28.119 35.3486C28.4262 35.127 28.6154 34.8838 28.7132 34.5206C28.8082 34.1659 28.8549 33.7918 28.8686 33.4256C28.8787 33.1566 28.8988 32.7868 28.7355 32.5544C28.5621 32.3084 28.1535 32.5437 28.3283 32.7926C28.3326 32.799 28.3607 32.853 28.3499 32.8249C28.3391 32.7969 28.3629 32.8688 28.365 32.876C28.3773 32.9242 28.3837 32.9631 28.3873 32.9933C28.4039 33.1364 28.4024 33.2825 28.3974 33.4264C28.3859 33.7314 28.3478 34.0364 28.2751 34.3328C28.2593 34.3975 28.2413 34.4623 28.2204 34.5256C28.2003 34.5853 28.2017 34.5882 28.1787 34.6335C28.1693 34.6515 28.1593 34.6695 28.1492 34.6867C28.1341 34.709 28.1355 34.7069 28.1557 34.681C28.1384 34.7004 28.1211 34.7198 28.1039 34.7385C28.0355 34.8112 27.9629 34.8824 27.8823 34.9421C27.5615 35.1817 27.1816 35.2342 26.791 35.2162L27.0183 35.3896C26.9413 35.0975 26.937 34.7961 26.9377 34.4961C26.9377 34.2105 26.9255 33.9227 26.9313 33.6371C26.9421 33.1177 27.0716 32.5645 26.8572 32.0696C26.8061 31.9516 26.6356 31.9279 26.5349 31.9847C26.4133 32.0538 26.4004 32.1912 26.45 32.307L26.4486 32.3063Z" fill="black"></path><path d="M26.2147 6.74247C26.6089 6.77196 27.0002 6.66837 27.3937 6.65542C27.857 6.6396 28.3225 6.69787 28.7865 6.70074C29.2642 6.70362 29.744 6.7029 30.2202 6.75542C30.6965 6.80793 31.1346 6.93814 31.5806 7.08922C32.4791 7.39424 33.3525 7.76904 34.2078 8.17838C35.0668 8.58915 35.8941 9.05963 36.7487 9.47832C37.1624 9.68119 37.5674 9.87543 37.9185 10.1769C38.1969 10.4164 38.5062 10.7265 38.8839 10.7883C39.181 10.8365 39.3083 10.3826 39.0091 10.3337C38.6767 10.2797 38.4127 9.9783 38.1674 9.77183C37.858 9.51141 37.512 9.33013 37.1509 9.15172C36.2876 8.72655 35.4481 8.25607 34.5812 7.83667C33.723 7.42158 32.8475 7.03814 31.9482 6.71873C31.4993 6.55902 31.0461 6.40507 30.5742 6.33026C30.1023 6.25544 29.6562 6.23745 29.1944 6.2317C28.6534 6.22522 28.1139 6.18853 27.5736 6.18134C27.1197 6.17559 26.6686 6.30364 26.2154 6.26983C25.9125 6.24753 25.914 6.71873 26.2154 6.74103L26.2147 6.74247Z" fill="black"></path><path d="M23.3047 20.7958C23.5248 20.5016 23.3838 20.2584 23.2874 19.9556C23.2759 19.9189 23.2694 19.8815 23.2629 19.8441C23.2327 19.675 23.2039 19.5059 23.1622 19.339C22.9975 18.6765 22.6946 18.0484 22.3054 17.4895C21.6486 16.5456 20.7688 15.7809 19.8113 15.1536C19.4962 14.9471 19.1717 14.8054 18.8113 14.6939C17.8164 14.3875 16.7481 14.2572 15.7086 14.2875C14.4065 14.3249 13.0792 14.6421 11.9958 15.3896C10.6412 16.3248 9.85201 17.8067 9.51246 19.3908C9.45851 19.6412 9.41606 19.8937 9.38081 20.1469C9.36355 20.2742 9.41175 20.3987 9.54555 20.4368C9.65562 20.4685 9.8182 20.398 9.83547 20.2721C10.0542 18.6901 10.6318 17.1219 11.8807 16.0665C12.8166 15.2759 14.031 14.8853 15.2381 14.7853C16.2891 14.6975 17.3258 14.791 18.3358 15.0507C18.5157 15.0968 18.6948 15.1486 18.8703 15.209C18.9423 15.2335 19.0135 15.2608 19.0847 15.2881C19.1005 15.2946 19.1164 15.3011 19.1322 15.3076C19.1408 15.3112 19.0854 15.2867 19.1336 15.3076C19.161 15.3198 19.1876 15.332 19.2142 15.3442C19.5401 15.5018 19.8393 15.7327 20.1285 15.9478C20.5882 16.2902 21.0184 16.6758 21.4011 17.1024C21.9018 17.6607 22.3234 18.3067 22.573 19.0167C22.6932 19.3585 22.7284 19.7095 22.8241 20.0541C22.8737 20.2332 23.027 20.3858 22.8975 20.5584C22.7155 20.8016 23.1248 21.0368 23.3047 20.7965V20.7958Z" fill="black"></path><path d="M11.4419 7.37857C11.439 8.06055 11.2211 8.71664 11.0426 9.36769C10.8592 10.0338 10.7441 10.7166 10.6045 11.3928C10.4614 12.0834 10.3643 12.7668 10.3513 13.4718C10.3412 14.015 10.2866 14.5898 10.6398 15.0444C10.8254 15.284 11.157 14.948 10.9729 14.7113C10.8283 14.525 10.8168 14.2473 10.8124 14.0222C10.8074 13.756 10.8189 13.4884 10.8254 13.2222C10.8427 12.5251 10.9901 11.8431 11.1333 11.1633C11.2678 10.5245 11.3858 9.88925 11.562 9.25978C11.734 8.64542 11.9109 8.0217 11.9131 7.37857C11.9145 7.07498 11.4426 7.07498 11.4419 7.37857Z" fill="black"></path><path d="M10.4206 12.9235C9.81848 13.5127 9.24081 14.1285 8.67681 14.7544C8.59192 14.8486 8.58328 14.9947 8.67681 15.0875C8.76313 15.1738 8.92428 15.1824 9.00988 15.0875C9.57389 14.4609 10.1516 13.8458 10.7537 13.2566C10.9709 13.0444 10.6372 12.7106 10.4206 12.9235Z" fill="black"></path><path d="M9.92603 15.4523C9.46634 15.0488 8.89154 14.8545 8.31243 14.6891C8.14194 14.6402 7.97144 14.8071 8.02252 14.979C8.26711 15.8034 8.16496 16.6897 8.03762 17.5256C7.97 17.9717 7.8959 18.4162 7.829 18.8623C7.7621 19.3083 7.71318 19.7241 7.59664 20.1442C7.38226 20.9183 6.98299 21.6132 6.57582 22.2988C6.10246 23.0952 5.65715 23.9052 5.24998 24.7376C4.8615 25.531 4.49965 26.3317 4.26585 27.1856C4.03276 28.0374 3.88097 28.9295 3.8263 29.8107C3.74069 31.2013 4.0565 32.5962 4.68957 33.8343C4.94495 34.3335 5.25285 34.8055 5.60823 35.2393C5.80535 35.4803 6.02332 35.7385 6.28806 35.9097C6.54344 36.0752 6.78012 35.6673 6.52618 35.5026C6.51035 35.4925 6.49524 35.4817 6.48086 35.4709C6.52186 35.5026 6.49668 35.4838 6.47366 35.4637C6.4269 35.4234 6.38158 35.3824 6.33698 35.34C6.22619 35.2328 6.12188 35.1184 6.02116 35.0004C5.72549 34.6537 5.47011 34.2717 5.2471 33.8746C4.59029 32.7063 4.24642 31.3761 4.28815 30.0344C4.31476 29.1784 4.46296 28.3101 4.6759 27.4813C4.89819 26.6152 5.24998 25.8095 5.64132 25.008C6.03771 24.1959 6.46791 23.4009 6.93048 22.6247C7.33334 21.9492 7.7326 21.265 7.97791 20.514C8.12467 20.0637 8.19157 19.6032 8.26135 19.1364C8.33545 18.6407 8.41746 18.1465 8.49228 17.6508C8.63184 16.73 8.74694 15.7624 8.47717 14.8538L8.18726 15.1437C8.68292 15.2854 9.19801 15.4394 9.59295 15.7861C9.82028 15.9854 10.1548 15.6531 9.92603 15.4531V15.4523Z" fill="black"></path><path d="M11.2776 9.6102C9.91002 8.52608 9.65679 6.53911 9.87909 4.91257C9.94167 4.45287 10.0503 3.99894 10.2043 3.56083C10.3057 3.27451 9.85031 3.15077 9.7496 3.43565C9.15969 5.10752 9.13523 7.19304 9.987 8.78146C10.2258 9.22677 10.5474 9.62891 10.9438 9.94328C11.179 10.1296 11.515 9.79868 11.2769 9.6102H11.2776Z" fill="black"></path><path d="M9.57737 6.60171C9.26731 6.33338 8.86014 6.23698 8.48317 6.10173C8.10765 5.96721 7.85514 5.75787 7.60336 5.45284C7.13791 4.88884 6.66958 4.21908 5.84588 4.28743C5.10778 4.34857 4.46105 4.85215 3.97546 5.37731C3.55245 5.83412 3.20714 6.35352 3.03881 6.95637C2.94097 7.30816 2.86399 7.67217 2.84025 8.0369C2.82155 8.32034 2.83378 8.6786 3.10211 8.84694C3.35966 9.0088 3.59634 8.60091 3.34023 8.43976C3.36037 8.45199 3.33807 8.43113 3.33807 8.43041C3.32728 8.38869 3.31649 8.35056 3.31146 8.30739C3.29563 8.17647 3.3093 8.03906 3.32368 7.90885C3.35318 7.64196 3.41361 7.3765 3.48411 7.11752C3.62439 6.60315 3.90208 6.16432 4.25674 5.76794C4.65672 5.32119 5.20274 4.83416 5.82502 4.76079C6.51851 4.67949 6.90411 5.34421 7.28754 5.80606C7.52998 6.09742 7.79543 6.32691 8.14722 6.47366C8.49756 6.6197 8.95222 6.68085 9.24573 6.93479C9.47378 7.13262 9.80902 6.80027 9.57881 6.60171H9.57737Z" fill="black"></path><path d="M8.38134 16.0983C8.22667 14.8703 6.88788 14.4099 5.99727 13.802C5.89224 13.7301 5.73613 13.7819 5.67498 13.8869C5.60664 14.0035 5.65412 14.1373 5.75987 14.2092C6.18359 14.4984 6.64904 14.7207 7.06988 15.0142C7.27419 15.1567 7.46843 15.3171 7.63317 15.5135C7.76841 15.6739 7.88639 15.9048 7.91085 16.0983C7.92668 16.225 8.00797 16.3343 8.14681 16.3343C8.26192 16.3343 8.3986 16.2257 8.38278 16.0983H8.38134Z" fill="black"></path><path d="M6.55052 14.0933C6.46131 13.2797 6.20665 12.484 5.64408 11.8711C5.3628 11.5647 5.04987 11.2582 4.69305 11.0409C4.33623 10.8237 3.92474 10.8446 3.60029 10.6201C3.34994 10.4474 3.11398 10.8553 3.36217 11.0273C3.66719 11.2381 4.04487 11.2316 4.36644 11.397C4.7024 11.5697 4.97937 11.8589 5.23835 12.128C5.75271 12.6617 5.99947 13.366 6.07932 14.0941C6.09299 14.2214 6.17787 14.3286 6.31528 14.33C6.43182 14.3315 6.56491 14.2207 6.55124 14.0941L6.55052 14.0933Z" fill="black"></path><path d="M4.49254 10.7166C4.4206 10.4166 4.52636 10.1029 4.4278 9.80222C4.33572 9.52093 4.13357 9.31734 3.93789 9.1044C3.73071 8.87851 3.52208 8.66701 3.27965 8.47853C3.02858 8.28286 2.76528 8.10445 2.50918 7.91669C2.4063 7.84115 2.2466 7.89942 2.18689 8.00158C2.11711 8.12099 2.16818 8.24833 2.27178 8.32386C2.49767 8.48932 2.73075 8.64543 2.95304 8.81665C3.18325 8.99434 3.38612 9.19361 3.57963 9.41015C3.73215 9.58064 3.92422 9.74035 3.98609 9.96911C4.02062 10.0979 4.00767 10.2346 4.00264 10.3662C3.99688 10.5274 4.00048 10.6849 4.03861 10.8425C4.10911 11.1374 4.56376 11.0122 4.49326 10.7173L4.49254 10.7166Z" fill="black"></path><path d="M16.0302 40.9383C15.7525 40.2606 15.2691 39.6038 14.7245 39.1161C14.0662 38.5269 13.2569 38.4485 12.4116 38.4132C11.6994 38.3837 10.9836 38.4262 10.2722 38.3801C9.62039 38.3377 8.95495 38.1802 8.49742 37.6823C7.81183 36.9356 7.85788 35.8349 8.06794 34.9098C8.13484 34.6141 7.6809 34.4882 7.61328 34.7846C7.41545 35.6536 7.3507 36.6219 7.76579 37.4406C8.09815 38.0974 8.68949 38.5413 9.39666 38.7233C10.0902 38.9017 10.8175 38.8693 11.5268 38.865C11.9275 38.8629 12.3267 38.8787 12.7267 38.8981C13.1267 38.9175 13.5677 38.9607 13.9475 39.1513C14.3288 39.3427 14.6194 39.6535 14.8863 39.9801C15.1532 40.3067 15.4151 40.6728 15.5748 41.0642C15.6885 41.3412 16.1446 41.2196 16.0295 40.939L16.0302 40.9383Z" fill="black"></path><path d="M7.90374 36.7995C7.17212 36.6291 6.69947 35.9866 6.46279 35.3075C6.2218 34.6148 6.15849 33.8205 6.41172 33.122C6.51531 32.8364 6.05993 32.7134 5.95706 32.9968C5.41967 34.4824 6.07216 36.8571 7.77856 37.2542C8.07352 37.3225 8.19941 36.8686 7.90374 36.7995Z" fill="black"></path><path d="M15.7587 9.56774C15.3494 9.26703 15.135 8.6836 14.9422 8.2347C14.6984 7.66782 14.4358 7.10741 14.2329 6.5247C13.7775 5.22116 13.6538 3.77015 12.9416 2.5666C12.602 1.99253 12.1366 1.48104 11.6222 1.05947C11.1086 0.63791 10.518 0.272459 9.86835 0.106999C8.6425 -0.205218 7.28717 0.210591 6.19945 0.776754C3.9535 1.94433 1.8464 3.74281 0.724145 6.04918C-0.423287 8.40736 -0.180852 11.195 1.26513 13.3726C2.04999 14.5538 3.16217 15.474 4.21032 16.4113C4.7621 16.9041 5.31675 17.3947 5.84263 17.9156C6.32678 18.3947 6.84115 18.8975 7.14041 19.5177C7.26918 19.7846 7.34976 20.0788 7.38716 20.3723C7.42457 20.6658 7.89721 20.673 7.85837 20.3723C7.77995 19.7637 7.56845 19.209 7.20012 18.7163C6.78143 18.1566 6.26923 17.6609 5.76133 17.1825C4.73044 16.2113 3.61826 15.3214 2.63054 14.3049C1.72122 13.369 1.03636 12.2518 0.69465 10.9871C0.370203 9.78428 0.370923 8.50519 0.729181 7.31028C1.45289 4.89744 3.45784 2.9709 5.55127 1.68607C6.60302 1.04077 7.76125 0.482522 9.02234 0.481083C10.3273 0.479644 11.4927 1.38752 12.2517 2.38604C13.0891 3.48743 13.2222 4.88952 13.62 6.17436C13.8149 6.80311 14.0739 7.39589 14.3329 7.99946C14.5437 8.49009 14.7322 9.00014 15.03 9.44688C15.166 9.65119 15.3214 9.83103 15.5199 9.97707C15.7645 10.1569 16.0005 9.74758 15.758 9.56989L15.7587 9.56774Z" fill="black"></path><path d="M26.5012 29.1172C26.2602 29.1481 26.0236 29.033 25.8041 28.9474C25.5581 28.851 25.3013 28.7517 25.0322 28.764C24.5344 28.7863 24.0711 29.1416 23.9913 29.6474C23.9107 30.1617 24.2416 30.615 24.551 30.9912C24.8344 31.3358 25.1646 31.6653 25.5804 31.8415C25.825 31.9451 26.0804 32.0235 26.3423 32.0696C26.5825 32.1113 26.8516 32.1466 27.0875 32.066C27.3731 31.9681 27.2501 31.5128 26.9624 31.6113C26.6566 31.7164 26.22 31.5768 25.9128 31.4682C25.5718 31.348 25.3178 31.1358 25.0725 30.8732C24.9265 30.7164 24.7905 30.5509 24.6733 30.3718C24.579 30.2279 24.4812 30.0754 24.4538 29.9056C24.3949 29.5373 24.7164 29.2352 25.0718 29.2344C25.5689 29.2344 25.9905 29.6539 26.5012 29.5884C26.6271 29.5726 26.7372 29.4913 26.7372 29.3524C26.7372 29.2373 26.6286 29.1006 26.5012 29.1165V29.1172Z" fill="black"></path><path d="M26.4288 32.0681C26.2145 32.5623 26.344 33.1162 26.3547 33.6356C26.3605 33.9119 26.3476 34.1903 26.3483 34.4665C26.349 34.7759 26.3468 35.0873 26.2677 35.3881L26.495 35.2147C26.1044 35.2327 25.7246 35.1794 25.4037 34.9406C25.3231 34.8809 25.2505 34.8097 25.1821 34.737C25.1642 34.7183 25.1469 34.6989 25.1303 34.6794C25.1498 34.7061 25.1519 34.7082 25.1361 34.6859C25.1246 34.6687 25.1145 34.6514 25.1044 34.6334C25.049 34.5334 25.0188 34.4406 24.9814 34.3234C24.8879 34.0277 24.8188 33.7191 24.7829 33.4104C24.7663 33.2694 24.7555 33.127 24.762 32.9853C24.7649 32.9184 24.7656 32.9241 24.7735 32.8709C24.7764 32.8508 24.7829 32.8299 24.7901 32.8105C24.7706 32.863 24.7965 32.8026 24.8052 32.7903C24.9793 32.5407 24.5707 32.3047 24.398 32.5522C24.2376 32.7824 24.2822 33.1493 24.3117 33.4104C24.3541 33.7824 24.4275 34.1557 24.5469 34.5111C24.6685 34.8715 24.8519 35.1212 25.1649 35.347C25.5526 35.6269 26.0253 35.7067 26.4943 35.6852C26.5972 35.6808 26.6943 35.6154 26.7216 35.5118C26.8706 34.9449 26.8101 34.3399 26.8252 33.7601C26.8317 33.5112 26.8022 33.2622 26.7878 33.0148C26.7749 32.7925 26.7432 32.517 26.8346 32.3055C26.8857 32.1875 26.8684 32.0537 26.7497 31.9832C26.6504 31.9242 26.4778 31.9508 26.4274 32.0681H26.4288Z" fill="black"></path><path d="M22.9519 20.5895C22.944 20.6895 22.872 20.6975 22.7958 20.7507C22.6627 20.8442 22.567 20.9795 22.4749 21.1118C22.2533 21.4298 22.0814 21.7773 21.8462 22.0866C21.3858 22.6923 20.8023 23.2484 20.2146 23.7297C19.3139 24.4671 18.1722 24.9419 17.0363 25.1663C14.9213 25.5843 12.6142 25.044 11.1423 23.4067C10.7172 22.934 10.3683 22.3794 10.1229 21.7924C10.0064 21.514 9.91648 21.2197 9.8582 20.9233C9.80713 20.6615 9.75821 20.3306 9.91863 20.0975C10.0913 19.8471 9.68267 19.6112 9.51146 19.8594C9.17334 20.3507 9.38412 21.1039 9.5575 21.6183C9.75101 22.1938 10.0424 22.742 10.3992 23.2319C11.1056 24.2009 12.0761 24.9275 13.1976 25.3483C15.4508 26.1936 18.1212 25.7426 20.0916 24.4052C20.475 24.1448 20.8218 23.8362 21.1541 23.5153C21.4894 23.1923 21.8239 22.8664 22.1145 22.5017C22.4051 22.137 22.6159 21.7291 22.8814 21.3485C22.9785 21.2104 23.0648 21.1471 23.195 21.0528C23.3547 20.9377 23.4065 20.7787 23.4224 20.5881C23.4475 20.286 22.9756 20.2874 22.9512 20.5881L22.9519 20.5895Z" fill="black"></path><path d="M27.0684 6.2708C26.6627 6.30102 26.2591 6.19239 25.8541 6.18232C25.3901 6.17153 24.9246 6.2262 24.4599 6.22908C23.9952 6.23195 23.5269 6.23339 23.0636 6.28375C22.5751 6.33699 22.1125 6.45569 21.6471 6.61107C20.7457 6.91322 19.8673 7.28515 19.0083 7.69088C18.1458 8.09806 17.3163 8.56711 16.4624 8.99083C16.0301 9.20521 15.5783 9.398 15.1999 9.70303C14.9258 9.9246 14.6402 10.2749 14.2755 10.3339C13.9769 10.3821 14.1035 10.8368 14.4006 10.7886C14.7337 10.7346 15.0121 10.4814 15.2589 10.2699C15.5574 10.0138 15.8552 9.81885 16.2078 9.64044C17.0545 9.21312 17.8875 8.76134 18.7386 8.34265C19.5925 7.92325 20.4622 7.53406 21.3572 7.21105C21.8039 7.04919 22.2578 6.88804 22.7269 6.80387C23.188 6.72114 23.6592 6.70819 24.1268 6.70316C24.6556 6.6974 25.1829 6.66071 25.7109 6.65352C26.1649 6.64704 26.6159 6.77582 27.0691 6.742C27.3699 6.7197 27.372 6.24778 27.0691 6.2708H27.0684Z" fill="black"></path><path d="M26.2534 31.9596C25.7247 32.3969 25.0592 32.4898 24.3945 32.4977C23.6384 32.5063 22.8766 32.4977 22.122 32.4538C21.5033 32.4178 20.8659 32.3905 20.2774 32.1811C19.7681 31.9998 19.2796 31.7294 18.848 31.4042C18.4164 31.079 17.9718 30.6546 17.884 30.105C17.8675 30.0014 17.7524 29.9359 17.6567 29.9316C16.8013 29.8978 15.9481 29.8352 15.1071 29.6647C14.8108 29.6043 14.6841 30.0589 14.982 30.1194C15.8632 30.2985 16.7596 30.3683 17.6567 30.4035L17.4293 30.2301C17.5164 30.774 17.9128 31.2315 18.3178 31.5783C18.7847 31.9783 19.3206 32.2955 19.8875 32.5322C20.4997 32.7876 21.1285 32.853 21.7867 32.9034C22.6126 32.966 23.4428 32.971 24.2708 32.9703C25.1146 32.9696 25.9196 32.8466 26.5879 32.2934C26.8217 32.0998 26.4865 31.7675 26.2549 31.9603L26.2534 31.9596Z" fill="black"></path><path d="M15.9514 41.3195C16.7456 42.2914 17.8046 43.041 18.9009 43.636C20.2304 44.3582 21.6735 44.8762 23.1468 45.2114C24.7532 45.5762 26.415 45.7294 28.0603 45.628C29.7724 45.5229 31.4623 45.1417 33.032 44.4439C34.6801 43.7115 36.1592 42.6166 37.3462 41.2591C37.5066 41.0757 37.6613 40.8879 37.8109 40.6958C37.9958 40.4599 37.6649 40.1239 37.4778 40.3627C36.37 41.7763 34.9844 42.9425 33.3816 43.7568C31.9018 44.5086 30.2695 44.951 28.6199 45.1122C27.02 45.2683 25.3963 45.1791 23.8194 44.8726C22.3533 44.5877 20.9131 44.1244 19.5757 43.4568C18.4643 42.9022 17.3924 42.2065 16.5464 41.2879C16.4564 41.19 16.3694 41.0893 16.2852 40.9865C16.0932 40.7512 15.7615 41.0864 15.9522 41.3195H15.9514Z" fill="black"></path><path d="M19.0561 23.0672C18.1863 23.2197 17.3108 23.4182 16.4339 23.524C15.7289 23.6096 15.1275 23.2125 14.4268 23.1679C14.0692 23.1449 13.8549 23.3513 13.7793 23.6118C13.6621 23.5916 13.5383 23.5715 13.4074 23.5463C13.329 23.5312 13.2542 23.5067 13.1815 23.4758C13.1779 23.4722 13.175 23.4686 13.1722 23.465C12.988 23.2772 12.8038 23.0902 12.6197 22.9024C12.4988 22.7794 12.365 22.7154 12.2319 22.6974C12.165 22.6427 12.0981 22.5881 12.0312 22.5334C11.9564 22.4679 11.8808 22.4068 11.8024 22.3528C11.1485 21.9032 10.3212 22.9535 10.9456 23.4636C11.114 23.601 11.2816 23.7384 11.4499 23.8758C11.7298 24.1434 11.9837 24.4427 12.3168 24.6491C12.3967 24.7448 12.5074 24.8232 12.6556 24.8693C13.1959 25.0297 13.7354 25.1894 14.2757 25.3498C14.3958 25.3858 14.5181 25.3793 14.6325 25.3455C14.6534 25.3491 14.6743 25.3534 14.6958 25.357C14.775 25.3707 14.8483 25.3685 14.9188 25.3599C15.5828 25.4311 16.2526 25.4275 16.9238 25.3383C17.841 25.2153 19.1165 25.0038 19.7445 24.2491C20.2078 23.6923 19.7676 22.9427 19.0568 23.0672H19.0561Z" fill="#639EFD"></path><path d="M40.9759 22.9282C40.9263 22.9613 40.8767 22.9922 40.827 23.0232C40.7069 23.0498 40.5896 23.0807 40.4745 23.1153C40.3242 22.9958 40.1234 22.9318 39.8832 22.9807C39.7573 23.0066 39.6307 23.0318 39.5048 23.0577C39.4148 23.0721 39.3242 23.085 39.2343 23.0937C39.0933 23.0081 38.9163 22.9728 38.712 23.0224C38.5429 23.0635 38.4178 23.116 38.2717 23.2102C38.2163 23.2455 38.171 23.2872 38.13 23.3311C37.7372 23.3908 37.2279 23.4253 36.9279 23.6347C36.7265 23.5922 36.525 23.5419 36.3229 23.4757C36.2646 23.4562 36.2085 23.4483 36.1538 23.4455C35.9963 23.357 35.8344 23.2872 35.6675 23.234C35.5603 23.0419 35.3668 22.898 35.0855 22.8858C34.8884 22.8771 34.6985 22.8958 34.5251 22.9484C34.3043 22.9023 34.0669 22.9037 33.7971 22.9814C33.3237 23.1181 33.0604 23.8109 33.4849 24.1634C34.0885 24.6641 34.7654 24.9792 35.5121 25.0562C35.7855 25.1864 36.0747 25.295 36.3639 25.3713C37.1344 25.5749 37.9135 25.5633 38.6911 25.4152C38.8048 25.3936 38.8954 25.3482 38.9695 25.2893C39.3681 25.1619 39.7609 25.0202 40.1479 24.8641C40.2328 24.8396 40.317 24.813 40.4004 24.7842C40.5572 24.8238 40.7313 24.8065 40.9033 24.7037C41.2327 24.5058 41.5356 24.2828 41.832 24.039C42.45 23.5303 41.6414 22.4851 40.9752 22.9282H40.9759Z" fill="#639EFD"></path><path d="M29.8604 20.5895C29.8726 20.7405 29.9042 20.8851 30.015 20.9959C30.1114 21.0916 30.233 21.1333 30.3208 21.2412C30.5718 21.5491 30.7366 21.9232 30.9711 22.2455C31.4567 22.9131 32.0739 23.5174 32.7099 24.0425C33.6918 24.854 34.922 25.3928 36.1701 25.631C38.4974 26.0755 41.0412 25.4547 42.6037 23.5929C43.0447 23.0678 43.4029 22.4714 43.6504 21.8311C43.8655 21.275 44.1489 20.4067 43.7727 19.86C43.6015 19.6118 43.1929 19.847 43.3655 20.0981C43.5022 20.2974 43.4821 20.5664 43.449 20.7945C43.4072 21.0844 43.3209 21.3707 43.2188 21.6455C43.0274 22.1613 42.7411 22.6548 42.4066 23.0908C41.7519 23.944 40.8433 24.5878 39.8297 24.9425C37.7427 25.6727 35.3637 25.2569 33.53 24.0656C33.1703 23.8318 32.848 23.5505 32.5379 23.2548C32.2279 22.9591 31.9099 22.6534 31.6293 22.3232C31.3488 21.993 31.1315 21.6175 30.8984 21.2477C30.8006 21.0923 30.6927 20.9197 30.5524 20.7995C30.4711 20.7297 30.3431 20.706 30.333 20.5902C30.3085 20.2902 29.8366 20.2873 29.8618 20.5902L29.8604 20.5895Z" fill="black"></path><path d="M38.685 17.2759C37.7016 17.1939 36.7132 17.2148 35.7204 17.2428C35.5888 17.2464 35.4765 17.2191 35.383 17.1716C35.0945 17.1831 34.8061 17.1831 34.5154 17.1572C33.7313 17.8608 33.2378 18.8816 33.2378 20.0175C33.2378 22.1397 34.9579 23.8598 37.0801 23.8598C39.2023 23.8598 40.9224 22.1397 40.9224 20.0175C40.9224 19.2075 40.6713 18.4557 40.2425 17.8363C39.703 17.7112 39.203 17.4608 38.685 17.2766V17.2759Z" fill="black"></path><path d="M37.08 20.0169C37.8579 20.0169 38.4885 19.3862 38.4885 18.6083C38.4885 17.8303 37.8579 17.1997 37.08 17.1997C36.302 17.1997 35.6714 17.8303 35.6714 18.6083C35.6714 19.3862 36.302 20.0169 37.08 20.0169Z" fill="white"></path><path d="M30.8663 18.9205C31.2483 18.2565 31.9749 17.9328 32.6878 17.7486C33.4683 17.5464 34.2784 17.4932 35.0805 17.4536C36.1071 17.4033 37.125 17.3716 38.1494 17.4961C39.2889 17.6349 40.3867 17.9579 41.4709 18.327C41.8888 18.4694 42.2464 18.6737 42.6219 18.8989C42.8147 19.0147 43.3298 19.4169 43.5111 19.0939C43.66 18.8291 43.2528 18.591 43.1039 18.8557C43.1823 18.8219 43.2614 18.7874 43.3398 18.7536C43.3291 18.7507 43.3183 18.7478 43.3075 18.7435C43.3377 18.773 43.278 18.7291 43.2708 18.7255C43.206 18.6939 43.1435 18.6579 43.0801 18.6219C42.9212 18.5313 42.7651 18.4349 42.6082 18.3399C42.2284 18.1083 41.827 17.9464 41.4032 17.809C40.3105 17.4536 39.2235 17.1493 38.0796 17.0163C37.0495 16.8968 36.0236 16.9335 34.9906 16.986C34.1856 17.027 33.3705 17.0875 32.5864 17.2867C31.7468 17.5004 30.9066 17.9033 30.4591 18.6816C30.3073 18.9449 30.7145 19.1831 30.8663 18.9198V18.9205Z" fill="black"></path><path d="M18.7311 17.1264C18.0275 17.1185 17.3261 17.1624 16.6168 17.1789C15.9456 17.1948 15.2657 17.1552 14.596 17.2092C14.2219 17.3401 13.8651 17.5163 13.5356 17.7559C13.3536 17.8883 13.1738 17.9134 13.0169 17.8681C12.6026 18.4811 12.3608 19.2206 12.3608 20.0162C12.3608 22.1384 14.0809 23.8585 16.2031 23.8585C18.3253 23.8585 20.0454 22.1384 20.0454 20.0162C20.0454 18.863 19.5361 17.83 18.7311 17.1257V17.1264Z" fill="black"></path><path d="M16.204 20.0169C16.9819 20.0169 17.6126 19.3862 17.6126 18.6083C17.6126 17.8303 16.9819 17.1997 16.204 17.1997C15.426 17.1997 14.7954 17.8303 14.7954 18.6083C14.7954 19.3862 15.426 20.0169 16.204 20.0169Z" fill="white"></path><path d="M22.8245 18.683C22.0375 17.3148 20.1778 17.1097 18.7621 17.0148C17.8607 16.9543 16.9513 16.9004 16.0485 16.9472C14.9464 17.004 13.8529 17.1982 12.7961 17.5162C11.7782 17.8227 10.7682 18.2198 9.85813 18.773C9.59914 18.9305 9.83582 19.3384 10.0962 19.1802C10.8401 18.7277 11.648 18.3888 12.4724 18.1133C13.4939 17.7723 14.5507 17.5363 15.6248 17.4471C16.5305 17.3716 17.4333 17.414 18.3398 17.4615C19.0728 17.4996 19.8102 17.5558 20.5246 17.7313C21.2389 17.9068 22.0231 18.2349 22.418 18.9212C22.5691 19.1837 22.977 18.9471 22.8252 18.683H22.8245Z" fill="black"></path><path d="M22.7829 20.5895C22.775 20.6895 22.7031 20.6975 22.6268 20.7507C22.4937 20.8442 22.3981 20.9795 22.306 21.1118C22.0844 21.4298 21.9125 21.7773 21.6772 22.0866C21.2168 22.6923 20.6334 23.2484 20.0456 23.7297C19.145 24.4671 18.0033 24.9419 16.8674 25.1663C14.7523 25.5843 12.4453 25.044 10.9734 23.4067C10.5482 22.934 10.1993 22.3794 9.954 21.7924C9.83745 21.514 9.74753 21.2197 9.68926 20.9233C9.63818 20.6615 9.58926 20.3306 9.74969 20.0975C9.92234 19.8471 9.51373 19.6112 9.34251 19.8594C9.0044 20.3507 9.21518 21.1039 9.38855 21.6183C9.58207 22.1938 9.87342 22.742 10.2302 23.2319C10.9367 24.2009 11.9071 24.9275 13.0287 25.3483C15.2818 26.1936 17.9522 25.7426 19.9226 24.4052C20.3061 24.1448 20.6528 23.8362 20.9852 23.5153C21.3175 23.1945 21.6549 22.8664 21.9456 22.5017C22.2362 22.137 22.447 21.7291 22.7124 21.3485C22.8095 21.2104 22.8959 21.1471 23.0261 21.0528C23.1858 20.9377 23.2376 20.7787 23.2534 20.5881C23.2786 20.286 22.8067 20.2874 22.7822 20.5881L22.7829 20.5895Z" fill="black"></path></svg> 