<?xml version="1.0" encoding="UTF-8"?> <svg xmlns="http://www.w3.org/2000/svg" width="73" height="72" viewBox="0 0 73 72" fill="none"><path fill-rule="evenodd" clip-rule="evenodd" d="M37.5597 7.8895L35.2513 2.98076L30.7122 2.74337C18.8224 2.12155 12.8775 1.81064 8.99069 5.31114C5.10384 8.81165 4.79293 14.7565 4.17111 26.6463L3.79113 33.9119L6.62052 34.1501L3.54755 38.5693L3.37537 41.8615C2.75355 53.7513 2.44264 59.6961 5.94314 63.583C9.44365 67.4699 15.3885 67.7808 27.2783 68.4026L33.2586 68.7153L35.5288 65.4506L37.1601 68.9194L42.4935 69.1983C54.3833 69.8201 60.3281 70.1311 64.215 66.6305C68.1018 63.13 68.4128 57.1852 69.0346 45.2954L69.4146 38.03L66.5861 37.7918L69.6581 33.374L69.8303 30.0802C70.4521 18.1904 70.7631 12.2455 67.2625 8.35869C63.762 4.47184 57.8172 4.16093 45.9274 3.53911L40.7723 3.2695L37.5597 7.8895Z" fill="url(#paint0_linear_10_2356)"></path><path d="M33.1088 18.4113C31.787 18.7701 30.0875 19.6576 28.2936 20.885L26.8018 21.9047L26.1976 21.6026C25.8577 21.4326 25.3856 21.1305 25.1401 20.9417C24.4037 20.3563 24.3092 20.5262 24.838 21.4893C25.971 23.5853 28.9734 26.5122 32.0136 28.5516C33.8453 29.7602 33.9019 29.779 35.9036 29.2692C36.64 29.0992 36.9044 29.1181 37.4898 29.3447C37.8863 29.5147 38.415 29.6469 38.6983 29.6469C39.718 29.6469 43.6835 26.8144 45.6096 24.6994C46.7426 23.4531 48.5365 20.9417 48.5365 20.5829C48.5365 20.2808 48.2532 20.3563 47.8567 20.7906C47.3846 21.3004 46.5915 21.7159 46.0628 21.7159C45.8173 21.7159 45.1564 21.3382 44.5899 20.885C43.4191 19.9786 41.984 19.2044 40.4167 18.6568C39.0004 18.1469 34.544 17.9959 33.1088 18.4113Z" fill="white"></path><path d="M24.7812 25.9076C24.0447 27.4372 23.8181 28.8345 23.6104 33.2154C23.2705 40.7687 22.9495 42.9214 21.6843 46.3204C21.2689 47.4534 20.9856 48.4165 21.0234 48.4731C21.08 48.5298 21.9109 47.9633 22.874 47.2268C23.8181 46.4715 24.7056 45.905 24.8189 45.9428C24.9322 45.9805 25.6309 46.9813 26.3862 48.1521C27.1227 49.3417 27.8214 50.3426 27.9347 50.3803C28.0291 50.4181 28.8033 49.8327 29.6342 49.1151L31.1448 47.7744L31.4847 48.2276C31.6924 48.4731 32.7121 50.0593 33.7885 51.7588C35.9601 55.2333 36.3566 55.7809 36.621 55.6299C36.7154 55.5732 37.8484 53.836 39.1324 51.7966C40.3976 49.7572 41.5117 48.001 41.5684 47.9066C41.6439 47.8122 42.3615 48.3409 43.2112 49.0774C44.0421 49.8138 44.7974 50.4181 44.9107 50.4181C45.024 50.4181 45.7605 49.3984 46.5536 48.1521C47.3467 46.9058 48.0831 45.8861 48.1775 45.8861C48.2908 45.8861 49.1783 46.5281 50.1603 47.3212C51.1422 48.1143 51.9731 48.7375 52.0297 48.6997C52.0675 48.6619 51.7276 47.6234 51.2744 46.4148C49.9337 42.8648 49.8581 42.3172 49.2916 32.1957C49.1028 28.589 48.9706 27.9281 48.2153 26.1909L47.7243 25.0956L47.2522 25.5299C47.0068 25.7754 46.5347 26.2853 46.2326 26.6818L45.6472 27.4183L45.9871 28.7779C46.3081 30.0619 46.3081 30.1752 46.006 31.1194C45.6094 32.2902 44.3442 33.5176 43.1735 33.8197C41.9083 34.1407 41.4551 34.4429 41.3984 34.9527C41.3229 35.6325 41.795 36.1423 43.6078 37.2565C44.4953 37.8041 45.2317 38.3328 45.2695 38.4272C45.3073 38.5405 44.6275 39.0504 43.7777 39.5602C40.7375 41.3919 39.9633 42.6382 37.8484 49.0774C37.1308 51.2112 36.5454 53.0051 36.5077 53.0429C36.3755 53.2128 36.2433 52.854 35.7146 50.9657C34.9781 48.3409 33.4108 44.2433 32.58 42.7704C31.8246 41.3919 31.1259 40.731 29.2943 39.6546C28.5767 39.2203 27.878 38.7671 27.7836 38.6349C27.6137 38.4461 28.0102 38.1062 29.4076 37.1809L31.2581 35.9724V35.1415V34.2918L30.1818 33.9708C28.69 33.5365 27.8403 32.9511 27.3115 32.0447C26.6884 30.9494 26.594 30.1186 26.915 28.7968C27.1605 27.7015 27.1605 27.6449 26.7261 26.9084C26.4807 26.493 26.0275 25.9076 25.7253 25.6244L25.1588 25.0956L24.7812 25.9076Z" fill="white"></path><path d="M28.8979 29.8352C28.8979 30.6283 29.3323 31.4214 29.9365 31.6858C30.6919 32.0257 32.4858 31.9879 32.4858 31.6291C32.4858 31.3459 29.5022 29.2687 29.1057 29.2687C28.9924 29.2687 28.8979 29.5331 28.8979 29.8352Z" fill="white"></path><path d="M42.6638 29.7978C42.2862 30.081 41.5875 30.5342 41.0965 30.8175C39.8313 31.5728 39.9257 31.9127 41.4175 31.9127C43.2492 31.9127 44.42 30.9686 44.1178 29.76C43.9668 29.1369 43.5513 29.1558 42.6638 29.7978Z" fill="white"></path><path d="M35.5447 31.4592C34.374 32.0634 33.7319 33.3475 33.4487 35.7079C33.2976 36.822 33.1466 37.3508 32.9388 37.4829C32.7689 37.5774 32.4101 37.8417 32.1646 38.0494L31.7114 38.4271L32.9011 39.6734C34.2229 41.0519 35.016 42.3926 35.8091 44.6208C36.4134 46.3581 36.4889 46.3392 37.3953 44.0543C38.1884 41.996 39.0948 40.542 40.2655 39.3524L41.2097 38.3705L40.3788 37.804L39.5291 37.2186L39.4158 35.6513C39.1703 32.4411 37.3953 30.5339 35.5447 31.4592Z" fill="white"></path><defs><linearGradient id="paint0_linear_10_2356" x1="34.8856" y1="68.8005" x2="38.3195" y2="3.14129" gradientUnits="userSpaceOnUse"><stop stop-color="#C98F00"></stop><stop offset="1" stop-color="#FF6C17"></stop></linearGradient></defs></svg> 