<?xml version="1.0" encoding="UTF-8"?> <svg xmlns="http://www.w3.org/2000/svg" width="49" height="50" viewBox="0 0 49 50" fill="none"><path fill-rule="evenodd" clip-rule="evenodd" d="M25.0541 6.06823L23.4978 2.75892L20.4379 2.59889C12.4222 2.17968 8.4143 1.97007 5.79389 4.33001C3.17348 6.68995 2.96387 10.6978 2.54466 18.7136L2.28849 23.6119L4.19566 23.7725L2.1243 26.7513L2.0082 28.9712C1.58898 36.987 1.37937 40.9949 3.73932 43.6153C6.09926 46.2357 10.1071 46.4453 18.1229 46.8645L22.1543 47.0753L23.6849 44.8743L24.7846 47.2129L28.3805 47.401C36.3963 47.8202 40.4042 48.0298 43.0246 45.6698C45.645 43.3099 45.8546 39.302 46.2738 31.2863L46.53 26.3881L44.6227 26.2275L46.6942 23.2486L46.8103 21.0286C47.2295 13.0129 47.4391 9.00499 45.0791 6.38459C42.7192 3.76418 38.7113 3.55457 30.6956 3.13536L27.2199 2.95358L25.0541 6.06823Z" fill="url(#paint0_linear_9_908)"></path><g clip-path="url(#clip0_9_908)"><path d="M25.8302 23.4461L33.0961 15H31.3743L25.0653 22.3336L20.0263 15H14.2144L21.8343 26.0898L14.2144 34.9468H15.9363L22.5988 27.2022L27.9203 34.9468H33.7323L25.8297 23.4461H25.8302ZM23.4718 26.1875L22.6997 25.0832L16.5567 16.2962H19.2014L24.1589 23.3876L24.931 24.4919L31.3751 33.7095H28.7304L23.4718 26.1879V26.1875Z" fill="#92785E"></path></g><defs><linearGradient id="paint0_linear_9_908" x1="23.2515" y1="47.1328" x2="25.5666" y2="2.86716" gradientUnits="userSpaceOnUse"><stop stop-color="#23180D"></stop><stop offset="1" stop-color="#342414"></stop></linearGradient><clipPath id="clip0_9_908"><rect width="19.9468" height="19.9468" fill="white" transform="translate(14 15)"></rect></clipPath></defs></svg> 