<?xml version="1.0" encoding="UTF-8"?> <svg xmlns="http://www.w3.org/2000/svg" width="644" height="155" viewBox="0 0 644 155" fill="none"><mask id="path-1-outside-1_20_9" maskUnits="userSpaceOnUse" x="20" y="11.1895" width="602" height="140" fill="black"><rect fill="white" x="20" y="11.1895" width="602" height="140"></rect><path d="M48.9557 83.853C47.0298 82.7645 45.3552 81.6341 43.9318 80.4619C42.5083 79.2896 41.1686 77.8662 39.9126 76.1916C38.6567 74.4332 37.7356 72.5911 37.1495 70.6653C36.5634 68.6557 36.3122 66.2694 36.3959 63.5062C36.4796 60.7431 36.982 57.7706 37.9031 54.5888C40.4988 46.1319 46.8205 39.9776 56.8683 36.126L54.2307 23.1895H81.8622L79.727 31.8557C82.7414 31.6882 85.3789 31.6463 87.6397 31.7301C89.9004 31.8138 91.7006 31.8975 93.0403 31.9813L95.0499 32.2325L91.91 66.7718C91.91 66.7718 88.6444 66.0182 82.1134 64.511C71.312 62.6689 65.8276 63.6737 65.6601 67.5253C65.6601 68.7813 66.6649 69.9536 68.6744 71.0421L48.9557 83.853ZM74.8287 73.6796C75.0799 73.8471 75.5404 74.0145 76.2103 74.182C78.1361 74.9356 79.6433 75.5217 80.7318 75.9404C81.8203 76.359 83.3275 77.0289 85.2533 77.9499C87.1791 78.871 88.6863 79.7083 89.7748 80.4619C90.9471 81.2155 92.2449 82.2202 93.6683 83.4762C95.0918 84.6485 96.1803 85.9044 96.9339 87.2441C97.6874 88.5001 98.3154 90.0073 98.8178 91.7656C99.3202 93.4403 99.5295 95.2405 99.4458 97.1663C99.0272 107.633 92.2449 114.75 79.099 118.518L81.8622 132.208H54.2307L56.8683 121.407C52.8492 121.49 48.7463 121.407 44.5597 121.155C40.4569 120.904 37.3588 120.611 35.2655 120.276L32 119.899L40.2894 94.78C41.4617 95.1986 42.9688 95.6592 44.8109 96.1616C46.653 96.6639 49.5418 97.3757 53.4772 98.2967C57.4963 99.134 60.8037 99.3433 63.3994 98.9247C66.0788 98.4223 67.4185 97.1663 67.4185 95.1568C67.4185 94.8218 67.3347 94.4869 67.1673 94.152C67.0835 93.7333 66.8742 93.3565 66.5393 93.0216C66.2881 92.6867 65.995 92.3936 65.6601 92.1424C65.4089 91.8075 64.9903 91.5144 64.4041 91.2633C63.9017 90.9283 63.4412 90.6353 63.0226 90.3841C62.6039 90.1329 62.0178 89.8398 61.2642 89.5049C60.5106 89.17 59.8826 88.9188 59.3802 88.7513C58.8778 88.5001 58.1661 88.207 57.2451 87.8721C56.4078 87.4535 55.7379 87.1185 55.2355 86.8673L74.8287 73.6796Z"></path><path d="M134.561 68.7813C134.561 69.9536 135.398 71.0839 137.073 72.1724C138.831 73.1772 140.967 74.0983 143.478 74.9356C146.074 75.6892 148.837 76.7358 151.768 78.0755C154.782 79.4152 157.504 80.8805 159.932 82.4714C162.444 84.0623 164.495 86.2394 166.086 89.0025C167.761 91.7656 168.514 94.9056 168.347 98.4223C168.179 101.855 167.3 104.953 165.709 107.717C164.118 110.396 162.109 112.615 159.681 114.373C157.252 116.048 154.322 117.513 150.889 118.769C147.456 119.941 144.065 120.821 140.715 121.407C137.366 121.909 133.724 122.244 129.788 122.411L134.184 99.4271C135.608 98.841 136.319 97.8362 136.319 96.4127C136.319 94.8218 134.98 93.3147 132.3 91.8912C129.621 90.3841 126.523 88.9606 123.006 87.6209C119.573 86.2812 116.182 84.3135 112.833 81.7178C109.567 79.0384 107.306 75.731 106.05 71.7957C104.794 67.8603 105.046 62.5433 106.804 55.8448C110.739 43.285 122.504 35.8748 142.097 33.614L138.455 65.139C135.859 65.7251 134.561 66.9392 134.561 68.7813ZM163.951 33.3628L160.811 68.0277C154.196 66.0182 148.335 64.9297 143.227 64.7622L148.628 32.9861C150.219 32.9861 151.852 32.9861 153.526 32.9861C155.201 32.9023 156.624 32.9023 157.797 32.9861C158.969 33.0698 160.015 33.1535 160.937 33.2372C161.941 33.2372 162.695 33.2791 163.197 33.3628H163.951ZM100.901 121.155L109.19 96.0359C116.475 98.4642 122.797 99.8457 128.156 100.181L123.509 122.663C119.824 122.663 116.098 122.537 112.33 122.286C108.562 122.035 105.716 121.783 103.79 121.532L100.901 121.155Z"></path><path d="M218.599 98.2967L234.927 120.151L240.956 128.314L217.343 141.377L210.561 122.537C209.891 122.537 209.389 122.537 209.054 122.537C201.769 122.537 195.029 120.569 188.833 116.634C182.72 112.615 177.864 107.172 174.264 100.306C170.747 93.3565 168.988 85.8207 168.988 77.6987C168.988 69.5768 170.747 62.0828 174.264 55.2168C177.864 48.3508 182.72 42.9082 188.833 38.8891C195.029 34.87 201.728 32.8605 208.928 32.8605C216.213 32.8605 222.912 34.87 229.024 38.8891C235.22 42.9082 240.077 48.3508 243.593 55.2168C247.194 62.0828 248.994 69.5768 248.994 77.6987C248.994 84.3135 247.78 90.5515 245.352 96.4127C243.007 102.19 239.7 107.172 235.43 111.359L222.87 93.524C224.879 90.1747 225.884 86.4906 225.884 82.4714C225.884 77.1963 224.293 72.7167 221.111 69.0325C217.93 65.2646 214.078 63.3806 209.556 63.3806C206.542 63.3806 203.779 64.2598 201.267 66.0182C198.755 67.6928 196.787 69.9954 195.364 72.926C193.941 75.8566 193.229 79.0384 193.229 82.4714C193.229 87.7465 194.82 92.268 198.001 96.0359C201.183 99.7201 205.035 101.562 209.556 101.562C212.906 101.562 215.92 100.474 218.599 98.2967Z"></path><path d="M251.827 40.2707L283.729 36.754C283.561 38.2611 283.352 40.2288 283.101 42.6571C282.849 45.0853 282.514 49.5649 282.096 56.096C281.677 62.627 281.384 68.572 281.217 73.9308C281.049 79.2896 281.133 84.6066 281.468 89.8817C281.886 95.1568 282.598 98.7991 283.603 100.809V121.281C279.333 121.114 275.146 120.025 271.043 118.015C267.024 116.006 263.466 113.117 260.367 109.349C257.856 106.251 255.846 101.772 254.339 95.9104C252.832 90.0491 251.869 84.0623 251.45 77.9499C251.115 71.7538 250.948 65.767 250.948 59.9895C250.948 54.212 251.115 49.4812 251.45 45.797L251.827 40.2707ZM316.258 39.7683C316.426 41.0243 316.593 42.7827 316.761 45.0434C317.012 47.2204 317.221 51.3651 317.389 57.4775C317.64 63.59 317.64 69.3256 317.389 74.6844C317.221 80.0432 316.51 85.737 315.254 91.7656C313.998 97.7943 312.281 102.609 310.104 106.209C304.996 114.583 298.005 119.481 289.129 120.904V100.557C290.134 99.0503 290.971 96.7895 291.641 93.7752C292.395 90.7609 292.897 87.4116 293.148 83.7274C293.4 80.0432 293.567 76.1497 293.651 72.0468C293.735 67.944 293.693 64.0086 293.525 60.2407C293.441 56.4728 293.316 53.0398 293.148 49.9417C293.065 46.8436 292.939 44.3735 292.772 42.5315L292.646 39.7683H316.258Z"></path><path d="M320.738 35.3724L355.528 33.4884L346.736 120.779L325.259 120.025L320.738 35.3724Z"></path><path d="M405.512 85.737L427.366 115.88L401.87 123.165L389.184 90.0073L383.909 89.7561V121.909H362.432L357.408 40.8987C362.851 38.2193 370.512 36.0841 380.392 34.4932L381.9 55.468L383.784 80.0851C384.119 79.9176 384.537 79.7083 385.04 79.4571C385.542 79.1222 386.463 78.3686 387.803 77.1963C389.142 76.0241 390.273 74.7263 391.194 73.3028C392.115 71.8794 392.91 69.9536 393.58 67.5253C394.25 65.0134 394.418 62.3758 394.083 59.6127C393.496 54.5051 390.901 50.6534 386.296 48.0577L385.542 33.8652C386.714 33.6978 387.845 33.5722 388.933 33.4884C398.981 32.5674 407.354 34.7444 414.053 40.0195C420.751 45.2946 423.975 52.035 423.724 60.2407C423.64 63.255 422.928 66.1856 421.588 69.0325C420.332 71.8794 418.825 74.2657 417.067 76.1916C415.309 78.1174 413.55 79.8339 411.792 81.3411C410.033 82.8482 408.568 83.9367 407.396 84.6066L405.512 85.737Z"></path><path d="M475.425 85.737L497.279 115.88L471.782 123.165L459.097 90.0073L453.822 89.7561V121.909H432.345L427.321 40.8987C432.763 38.2193 440.425 36.0841 450.305 34.4932L451.812 55.468L453.696 80.0851C454.031 79.9176 454.45 79.7083 454.952 79.4571C455.455 79.1222 456.376 78.3686 457.715 77.1963C459.055 76.0241 460.185 74.7263 461.106 73.3028C462.028 71.8794 462.823 69.9536 463.493 67.5253C464.163 65.0134 464.33 62.3758 463.995 59.6127C463.409 54.5051 460.813 50.6534 456.208 48.0577L455.455 33.8652C456.627 33.6978 457.757 33.5722 458.846 33.4884C468.894 32.5674 477.267 34.7444 483.965 40.0195C490.664 45.2946 493.887 52.035 493.636 60.2407C493.552 63.255 492.841 66.1856 491.501 69.0325C490.245 71.8794 488.738 74.2657 486.98 76.1916C485.221 78.1174 483.463 79.8339 481.704 81.3411C479.946 82.8482 478.481 83.9367 477.309 84.6066L475.425 85.737Z"></path><path d="M552.625 69.1581L553.002 87.9977L526.626 86.1138L525.245 72.926L552.625 69.1581ZM497.236 37.6332L516.327 36.126L525.37 117.136L501.758 117.513L497.236 37.6332ZM521.225 35.7492L560.161 32.7349L557.9 64.1342L524.114 63.0038L521.225 35.7492ZM529.892 117.011L527.38 93.9008L557.9 90.8865V116.508L529.892 117.011Z"></path><path d="M562.354 35.1212L595.763 39.1403L585.84 121.155L568.885 120.779L562.354 35.1212ZM594.381 98.5479L615.481 96.1616V121.658L590.111 121.155L594.381 98.5479Z"></path><path d="M45.9557 78.853C44.0298 77.7645 42.3552 76.6341 40.9318 75.4619C39.5083 74.2896 38.1686 72.8662 36.9126 71.1916C35.6567 69.4332 34.7356 67.5911 34.1495 65.6653C33.5634 63.6557 33.3122 61.2694 33.3959 58.5062C33.4796 55.7431 33.982 52.7706 34.9031 49.5888C37.4988 41.1319 43.8205 34.9776 53.8683 31.126L51.2307 18.1895H78.8622L76.727 26.8557C79.7414 26.6882 82.3789 26.6463 84.6397 26.7301C86.9004 26.8138 88.7006 26.8975 90.0403 26.9813L92.0499 27.2325L88.91 61.7718C88.91 61.7718 85.6444 61.0182 79.1134 59.511C68.312 57.6689 62.8276 58.6737 62.6601 62.5253C62.6601 63.7813 63.6649 64.9536 65.6744 66.0421L45.9557 78.853ZM71.8287 68.6796C72.0799 68.8471 72.5404 69.0145 73.2103 69.182C75.1361 69.9356 76.6433 70.5217 77.7318 70.9404C78.8203 71.359 80.3275 72.0289 82.2533 72.9499C84.1791 73.871 85.6863 74.7083 86.7748 75.4619C87.9471 76.2155 89.2449 77.2202 90.6683 78.4762C92.0918 79.6485 93.1803 80.9044 93.9339 82.2441C94.6874 83.5001 95.3154 85.0073 95.8178 86.7656C96.3202 88.4403 96.5295 90.2405 96.4458 92.1663C96.0272 102.633 89.2449 109.75 76.099 113.518L78.8622 127.208H51.2307L53.8683 116.407C49.8492 116.49 45.7463 116.407 41.5597 116.155C37.4569 115.904 34.3588 115.611 32.2655 115.276L29 114.899L37.2894 89.78C38.4617 90.1986 39.9688 90.6592 41.8109 91.1616C43.653 91.6639 46.5418 92.3757 50.4772 93.2967C54.4963 94.134 57.8037 94.3433 60.3994 93.9247C63.0788 93.4223 64.4185 92.1663 64.4185 90.1568C64.4185 89.8218 64.3347 89.4869 64.1673 89.152C64.0835 88.7333 63.8742 88.3565 63.5393 88.0216C63.2881 87.6867 62.995 87.3936 62.6601 87.1424C62.4089 86.8075 61.9903 86.5144 61.4041 86.2633C60.9017 85.9283 60.4412 85.6353 60.0226 85.3841C59.6039 85.1329 59.0178 84.8398 58.2642 84.5049C57.5106 84.17 56.8826 83.9188 56.3802 83.7513C55.8778 83.5001 55.1661 83.207 54.2451 82.8721C53.4078 82.4535 52.7379 82.1185 52.2355 81.8673L71.8287 68.6796Z"></path><path d="M131.561 63.7813C131.561 64.9536 132.398 66.0839 134.073 67.1724C135.831 68.1772 137.967 69.0983 140.478 69.9356C143.074 70.6892 145.837 71.7358 148.768 73.0755C151.782 74.4152 154.504 75.8805 156.932 77.4714C159.444 79.0623 161.495 81.2394 163.086 84.0025C164.761 86.7656 165.514 89.9056 165.347 93.4223C165.179 96.8553 164.3 99.9534 162.709 102.717C161.118 105.396 159.109 107.615 156.681 109.373C154.252 111.048 151.322 112.513 147.889 113.769C144.456 114.941 141.065 115.821 137.715 116.407C134.366 116.909 130.724 117.244 126.788 117.411L131.184 94.4271C132.608 93.841 133.319 92.8362 133.319 91.4127C133.319 89.8218 131.98 88.3147 129.3 86.8912C126.621 85.3841 123.523 83.9606 120.006 82.6209C116.573 81.2812 113.182 79.3135 109.833 76.7178C106.567 74.0384 104.306 70.731 103.05 66.7957C101.794 62.8603 102.046 57.5433 103.804 50.8448C107.739 38.285 119.504 30.8748 139.097 28.614L135.455 60.139C132.859 60.7251 131.561 61.9392 131.561 63.7813ZM160.951 28.3628L157.811 63.0277C151.196 61.0182 145.335 59.9297 140.227 59.7622L145.628 27.9861C147.219 27.9861 148.852 27.9861 150.526 27.9861C152.201 27.9023 153.624 27.9023 154.797 27.9861C155.969 28.0698 157.015 28.1535 157.937 28.2372C158.941 28.2372 159.695 28.2791 160.197 28.3628H160.951ZM97.901 116.155L106.19 91.0359C113.475 93.4642 119.797 94.8457 125.156 95.1807L120.509 117.663C116.824 117.663 113.098 117.537 109.33 117.286C105.562 117.035 102.716 116.783 100.79 116.532L97.901 116.155Z"></path><path d="M215.599 93.2967L231.927 115.151L237.956 123.314L214.343 136.377L207.561 117.537C206.891 117.537 206.389 117.537 206.054 117.537C198.769 117.537 192.029 115.569 185.833 111.634C179.72 107.615 174.864 102.172 171.264 95.3063C167.747 88.3565 165.988 80.8207 165.988 72.6987C165.988 64.5768 167.747 57.0828 171.264 50.2168C174.864 43.3508 179.72 37.9082 185.833 33.8891C192.029 29.87 198.728 27.8605 205.928 27.8605C213.213 27.8605 219.912 29.87 226.024 33.8891C232.22 37.9082 237.077 43.3508 240.593 50.2168C244.194 57.0828 245.994 64.5768 245.994 72.6987C245.994 79.3135 244.78 85.5515 242.352 91.4127C240.007 97.1902 236.7 102.172 232.43 106.359L219.87 88.524C221.879 85.1747 222.884 81.4905 222.884 77.4714C222.884 72.1963 221.293 67.7167 218.111 64.0325C214.93 60.2646 211.078 58.3806 206.556 58.3806C203.542 58.3806 200.779 59.2598 198.267 61.0182C195.755 62.6928 193.787 64.9954 192.364 67.926C190.941 70.8566 190.229 74.0384 190.229 77.4714C190.229 82.7465 191.82 87.268 195.001 91.0359C198.183 94.7201 202.035 96.5622 206.556 96.5622C209.906 96.5622 212.92 95.4737 215.599 93.2967Z"></path><path d="M248.827 35.2707L280.729 31.754C280.561 33.2611 280.352 35.2288 280.101 37.6571C279.849 40.0853 279.514 44.5649 279.096 51.096C278.677 57.627 278.384 63.572 278.217 68.9308C278.049 74.2896 278.133 79.6066 278.468 84.8817C278.886 90.1568 279.598 93.7991 280.603 95.8087V116.281C276.333 116.114 272.146 115.025 268.043 113.015C264.024 111.006 260.466 108.117 257.367 104.349C254.856 101.251 252.846 96.7716 251.339 90.9104C249.832 85.0491 248.869 79.0623 248.45 72.9499C248.115 66.7538 247.948 60.767 247.948 54.9895C247.948 49.212 248.115 44.4812 248.45 40.797L248.827 35.2707ZM313.258 34.7683C313.426 36.0243 313.593 37.7827 313.761 40.0434C314.012 42.2204 314.221 46.3651 314.389 52.4775C314.64 58.59 314.64 64.3256 314.389 69.6844C314.221 75.0432 313.51 80.737 312.254 86.7656C310.998 92.7943 309.281 97.6089 307.104 101.209C301.996 109.583 295.005 114.481 286.129 115.904V95.5575C287.134 94.0503 287.971 91.7895 288.641 88.7752C289.395 85.7609 289.897 82.4116 290.148 78.7274C290.4 75.0432 290.567 71.1497 290.651 67.0468C290.735 62.944 290.693 59.0086 290.525 55.2407C290.441 51.4728 290.316 48.0398 290.148 44.9417C290.065 41.8436 289.939 39.3735 289.772 37.5315L289.646 34.7683H313.258Z"></path><path d="M317.738 30.3724L352.528 28.4884L343.736 115.779L322.259 115.025L317.738 30.3724Z"></path><path d="M402.512 80.737L424.366 110.88L398.87 118.165L386.184 85.0073L380.909 84.7561V116.909H359.432L354.408 35.8987C359.851 33.2193 367.512 31.0841 377.392 29.4932L378.9 50.468L380.784 75.0851C381.119 74.9176 381.537 74.7083 382.04 74.4571C382.542 74.1222 383.463 73.3686 384.803 72.1963C386.142 71.0241 387.273 69.7263 388.194 68.3028C389.115 66.8794 389.91 64.9536 390.58 62.5253C391.25 60.0134 391.418 57.3758 391.083 54.6127C390.496 49.5051 387.901 45.6534 383.296 43.0577L382.542 28.8652C383.714 28.6978 384.845 28.5722 385.933 28.4884C395.981 27.5674 404.354 29.7444 411.053 35.0195C417.751 40.2946 420.975 47.035 420.724 55.2407C420.64 58.255 419.928 61.1856 418.588 64.0325C417.332 66.8794 415.825 69.2657 414.067 71.1916C412.309 73.1174 410.55 74.8339 408.792 76.3411C407.033 77.8482 405.568 78.9367 404.396 79.6066L402.512 80.737Z"></path><path d="M472.425 80.737L494.279 110.88L468.782 118.165L456.097 85.0073L450.822 84.7561V116.909H429.345L424.321 35.8987C429.763 33.2193 437.425 31.0841 447.305 29.4932L448.812 50.468L450.696 75.0851C451.031 74.9176 451.45 74.7083 451.952 74.4571C452.455 74.1222 453.376 73.3686 454.715 72.1963C456.055 71.0241 457.185 69.7263 458.106 68.3028C459.028 66.8794 459.823 64.9536 460.493 62.5253C461.163 60.0134 461.33 57.3758 460.995 54.6127C460.409 49.5051 457.813 45.6534 453.208 43.0577L452.455 28.8652C453.627 28.6978 454.757 28.5722 455.846 28.4884C465.894 27.5674 474.267 29.7444 480.965 35.0195C487.664 40.2946 490.887 47.035 490.636 55.2407C490.552 58.255 489.841 61.1856 488.501 64.0325C487.245 66.8794 485.738 69.2657 483.98 71.1916C482.221 73.1174 480.463 74.8339 478.704 76.3411C476.946 77.8482 475.481 78.9367 474.309 79.6066L472.425 80.737Z"></path><path d="M549.625 64.1581L550.002 82.9977L523.626 81.1138L522.245 67.926L549.625 64.1581ZM494.236 32.6332L513.327 31.126L522.37 112.136L498.758 112.513L494.236 32.6332ZM518.225 30.7492L557.161 27.7349L554.9 59.1342L521.114 58.0038L518.225 30.7492ZM526.892 112.011L524.38 88.9008L554.9 85.8865V111.508L526.892 112.011Z"></path><path d="M559.354 30.1212L592.763 34.1403L582.84 116.155L565.885 115.779L559.354 30.1212ZM591.381 93.5479L612.481 91.1616V116.658L587.111 116.155L591.381 93.5479Z"></path></mask><path d="M48.9557 83.853C47.0298 82.7645 45.3552 81.6341 43.9318 80.4619C42.5083 79.2896 41.1686 77.8662 39.9126 76.1916C38.6567 74.4332 37.7356 72.5911 37.1495 70.6653C36.5634 68.6557 36.3122 66.2694 36.3959 63.5062C36.4796 60.7431 36.982 57.7706 37.9031 54.5888C40.4988 46.1319 46.8205 39.9776 56.8683 36.126L54.2307 23.1895H81.8622L79.727 31.8557C82.7414 31.6882 85.3789 31.6463 87.6397 31.7301C89.9004 31.8138 91.7006 31.8975 93.0403 31.9813L95.0499 32.2325L91.91 66.7718C91.91 66.7718 88.6444 66.0182 82.1134 64.511C71.312 62.6689 65.8276 63.6737 65.6601 67.5253C65.6601 68.7813 66.6649 69.9536 68.6744 71.0421L48.9557 83.853ZM74.8287 73.6796C75.0799 73.8471 75.5404 74.0145 76.2103 74.182C78.1361 74.9356 79.6433 75.5217 80.7318 75.9404C81.8203 76.359 83.3275 77.0289 85.2533 77.9499C87.1791 78.871 88.6863 79.7083 89.7748 80.4619C90.9471 81.2155 92.2449 82.2202 93.6683 83.4762C95.0918 84.6485 96.1803 85.9044 96.9339 87.2441C97.6874 88.5001 98.3154 90.0073 98.8178 91.7656C99.3202 93.4403 99.5295 95.2405 99.4458 97.1663C99.0272 107.633 92.2449 114.75 79.099 118.518L81.8622 132.208H54.2307L56.8683 121.407C52.8492 121.49 48.7463 121.407 44.5597 121.155C40.4569 120.904 37.3588 120.611 35.2655 120.276L32 119.899L40.2894 94.78C41.4617 95.1986 42.9688 95.6592 44.8109 96.1616C46.653 96.6639 49.5418 97.3757 53.4772 98.2967C57.4963 99.134 60.8037 99.3433 63.3994 98.9247C66.0788 98.4223 67.4185 97.1663 67.4185 95.1568C67.4185 94.8218 67.3347 94.4869 67.1673 94.152C67.0835 93.7333 66.8742 93.3565 66.5393 93.0216C66.2881 92.6867 65.995 92.3936 65.6601 92.1424C65.4089 91.8075 64.9903 91.5144 64.4041 91.2633C63.9017 90.9283 63.4412 90.6353 63.0226 90.3841C62.6039 90.1329 62.0178 89.8398 61.2642 89.5049C60.5106 89.17 59.8826 88.9188 59.3802 88.7513C58.8778 88.5001 58.1661 88.207 57.2451 87.8721C56.4078 87.4535 55.7379 87.1185 55.2355 86.8673L74.8287 73.6796Z" fill="url(#paint0_linear_20_9)"></path><path d="M134.561 68.7813C134.561 69.9536 135.398 71.0839 137.073 72.1724C138.831 73.1772 140.967 74.0983 143.478 74.9356C146.074 75.6892 148.837 76.7358 151.768 78.0755C154.782 79.4152 157.504 80.8805 159.932 82.4714C162.444 84.0623 164.495 86.2394 166.086 89.0025C167.761 91.7656 168.514 94.9056 168.347 98.4223C168.179 101.855 167.3 104.953 165.709 107.717C164.118 110.396 162.109 112.615 159.681 114.373C157.252 116.048 154.322 117.513 150.889 118.769C147.456 119.941 144.065 120.821 140.715 121.407C137.366 121.909 133.724 122.244 129.788 122.411L134.184 99.4271C135.608 98.841 136.319 97.8362 136.319 96.4127C136.319 94.8218 134.98 93.3147 132.3 91.8912C129.621 90.3841 126.523 88.9606 123.006 87.6209C119.573 86.2812 116.182 84.3135 112.833 81.7178C109.567 79.0384 107.306 75.731 106.05 71.7957C104.794 67.8603 105.046 62.5433 106.804 55.8448C110.739 43.285 122.504 35.8748 142.097 33.614L138.455 65.139C135.859 65.7251 134.561 66.9392 134.561 68.7813ZM163.951 33.3628L160.811 68.0277C154.196 66.0182 148.335 64.9297 143.227 64.7622L148.628 32.9861C150.219 32.9861 151.852 32.9861 153.526 32.9861C155.201 32.9023 156.624 32.9023 157.797 32.9861C158.969 33.0698 160.015 33.1535 160.937 33.2372C161.941 33.2372 162.695 33.2791 163.197 33.3628H163.951ZM100.901 121.155L109.19 96.0359C116.475 98.4642 122.797 99.8457 128.156 100.181L123.509 122.663C119.824 122.663 116.098 122.537 112.33 122.286C108.562 122.035 105.716 121.783 103.79 121.532L100.901 121.155Z" fill="url(#paint1_linear_20_9)"></path><path d="M218.599 98.2967L234.927 120.151L240.956 128.314L217.343 141.377L210.561 122.537C209.891 122.537 209.389 122.537 209.054 122.537C201.769 122.537 195.029 120.569 188.833 116.634C182.72 112.615 177.864 107.172 174.264 100.306C170.747 93.3565 168.988 85.8207 168.988 77.6987C168.988 69.5768 170.747 62.0828 174.264 55.2168C177.864 48.3508 182.72 42.9082 188.833 38.8891C195.029 34.87 201.728 32.8605 208.928 32.8605C216.213 32.8605 222.912 34.87 229.024 38.8891C235.22 42.9082 240.077 48.3508 243.593 55.2168C247.194 62.0828 248.994 69.5768 248.994 77.6987C248.994 84.3135 247.78 90.5515 245.352 96.4127C243.007 102.19 239.7 107.172 235.43 111.359L222.87 93.524C224.879 90.1747 225.884 86.4906 225.884 82.4714C225.884 77.1963 224.293 72.7167 221.111 69.0325C217.93 65.2646 214.078 63.3806 209.556 63.3806C206.542 63.3806 203.779 64.2598 201.267 66.0182C198.755 67.6928 196.787 69.9954 195.364 72.926C193.941 75.8566 193.229 79.0384 193.229 82.4714C193.229 87.7465 194.82 92.268 198.001 96.0359C201.183 99.7201 205.035 101.562 209.556 101.562C212.906 101.562 215.92 100.474 218.599 98.2967Z" fill="url(#paint2_linear_20_9)"></path><path d="M251.827 40.2707L283.729 36.754C283.561 38.2611 283.352 40.2288 283.101 42.6571C282.849 45.0853 282.514 49.5649 282.096 56.096C281.677 62.627 281.384 68.572 281.217 73.9308C281.049 79.2896 281.133 84.6066 281.468 89.8817C281.886 95.1568 282.598 98.7991 283.603 100.809V121.281C279.333 121.114 275.146 120.025 271.043 118.015C267.024 116.006 263.466 113.117 260.367 109.349C257.856 106.251 255.846 101.772 254.339 95.9104C252.832 90.0491 251.869 84.0623 251.45 77.9499C251.115 71.7538 250.948 65.767 250.948 59.9895C250.948 54.212 251.115 49.4812 251.45 45.797L251.827 40.2707ZM316.258 39.7683C316.426 41.0243 316.593 42.7827 316.761 45.0434C317.012 47.2204 317.221 51.3651 317.389 57.4775C317.64 63.59 317.64 69.3256 317.389 74.6844C317.221 80.0432 316.51 85.737 315.254 91.7656C313.998 97.7943 312.281 102.609 310.104 106.209C304.996 114.583 298.005 119.481 289.129 120.904V100.557C290.134 99.0503 290.971 96.7895 291.641 93.7752C292.395 90.7609 292.897 87.4116 293.148 83.7274C293.4 80.0432 293.567 76.1497 293.651 72.0468C293.735 67.944 293.693 64.0086 293.525 60.2407C293.441 56.4728 293.316 53.0398 293.148 49.9417C293.065 46.8436 292.939 44.3735 292.772 42.5315L292.646 39.7683H316.258Z" fill="url(#paint3_linear_20_9)"></path><path d="M320.738 35.3724L355.528 33.4884L346.736 120.779L325.259 120.025L320.738 35.3724Z" fill="url(#paint4_linear_20_9)"></path><path d="M405.512 85.737L427.366 115.88L401.87 123.165L389.184 90.0073L383.909 89.7561V121.909H362.432L357.408 40.8987C362.851 38.2193 370.512 36.0841 380.392 34.4932L381.9 55.468L383.784 80.0851C384.119 79.9176 384.537 79.7083 385.04 79.4571C385.542 79.1222 386.463 78.3686 387.803 77.1963C389.142 76.0241 390.273 74.7263 391.194 73.3028C392.115 71.8794 392.91 69.9536 393.58 67.5253C394.25 65.0134 394.418 62.3758 394.083 59.6127C393.496 54.5051 390.901 50.6534 386.296 48.0577L385.542 33.8652C386.714 33.6978 387.845 33.5722 388.933 33.4884C398.981 32.5674 407.354 34.7444 414.053 40.0195C420.751 45.2946 423.975 52.035 423.724 60.2407C423.64 63.255 422.928 66.1856 421.588 69.0325C420.332 71.8794 418.825 74.2657 417.067 76.1916C415.309 78.1174 413.55 79.8339 411.792 81.3411C410.033 82.8482 408.568 83.9367 407.396 84.6066L405.512 85.737Z" fill="url(#paint5_linear_20_9)"></path><path d="M475.425 85.737L497.279 115.88L471.782 123.165L459.097 90.0073L453.822 89.7561V121.909H432.345L427.321 40.8987C432.763 38.2193 440.425 36.0841 450.305 34.4932L451.812 55.468L453.696 80.0851C454.031 79.9176 454.45 79.7083 454.952 79.4571C455.455 79.1222 456.376 78.3686 457.715 77.1963C459.055 76.0241 460.185 74.7263 461.106 73.3028C462.028 71.8794 462.823 69.9536 463.493 67.5253C464.163 65.0134 464.33 62.3758 463.995 59.6127C463.409 54.5051 460.813 50.6534 456.208 48.0577L455.455 33.8652C456.627 33.6978 457.757 33.5722 458.846 33.4884C468.894 32.5674 477.267 34.7444 483.965 40.0195C490.664 45.2946 493.887 52.035 493.636 60.2407C493.552 63.255 492.841 66.1856 491.501 69.0325C490.245 71.8794 488.738 74.2657 486.98 76.1916C485.221 78.1174 483.463 79.8339 481.704 81.3411C479.946 82.8482 478.481 83.9367 477.309 84.6066L475.425 85.737Z" fill="url(#paint6_linear_20_9)"></path><path d="M552.625 69.1581L553.002 87.9977L526.626 86.1138L525.245 72.926L552.625 69.1581ZM497.236 37.6332L516.327 36.126L525.37 117.136L501.758 117.513L497.236 37.6332ZM521.225 35.7492L560.161 32.7349L557.9 64.1342L524.114 63.0038L521.225 35.7492ZM529.892 117.011L527.38 93.9008L557.9 90.8865V116.508L529.892 117.011Z" fill="url(#paint7_linear_20_9)"></path><path d="M562.354 35.1212L595.763 39.1403L585.84 121.155L568.885 120.779L562.354 35.1212ZM594.381 98.5479L615.481 96.1616V121.658L590.111 121.155L594.381 98.5479Z" fill="url(#paint8_linear_20_9)"></path><path d="M45.9557 78.853C44.0298 77.7645 42.3552 76.6341 40.9318 75.4619C39.5083 74.2896 38.1686 72.8662 36.9126 71.1916C35.6567 69.4332 34.7356 67.5911 34.1495 65.6653C33.5634 63.6557 33.3122 61.2694 33.3959 58.5062C33.4796 55.7431 33.982 52.7706 34.9031 49.5888C37.4988 41.1319 43.8205 34.9776 53.8683 31.126L51.2307 18.1895H78.8622L76.727 26.8557C79.7414 26.6882 82.3789 26.6463 84.6397 26.7301C86.9004 26.8138 88.7006 26.8975 90.0403 26.9813L92.0499 27.2325L88.91 61.7718C88.91 61.7718 85.6444 61.0182 79.1134 59.511C68.312 57.6689 62.8276 58.6737 62.6601 62.5253C62.6601 63.7813 63.6649 64.9536 65.6744 66.0421L45.9557 78.853ZM71.8287 68.6796C72.0799 68.8471 72.5404 69.0145 73.2103 69.182C75.1361 69.9356 76.6433 70.5217 77.7318 70.9404C78.8203 71.359 80.3275 72.0289 82.2533 72.9499C84.1791 73.871 85.6863 74.7083 86.7748 75.4619C87.9471 76.2155 89.2449 77.2202 90.6683 78.4762C92.0918 79.6485 93.1803 80.9044 93.9339 82.2441C94.6874 83.5001 95.3154 85.0073 95.8178 86.7656C96.3202 88.4403 96.5295 90.2405 96.4458 92.1663C96.0272 102.633 89.2449 109.75 76.099 113.518L78.8622 127.208H51.2307L53.8683 116.407C49.8492 116.49 45.7463 116.407 41.5597 116.155C37.4569 115.904 34.3588 115.611 32.2655 115.276L29 114.899L37.2894 89.78C38.4617 90.1986 39.9688 90.6592 41.8109 91.1616C43.653 91.6639 46.5418 92.3757 50.4772 93.2967C54.4963 94.134 57.8037 94.3433 60.3994 93.9247C63.0788 93.4223 64.4185 92.1663 64.4185 90.1568C64.4185 89.8218 64.3347 89.4869 64.1673 89.152C64.0835 88.7333 63.8742 88.3565 63.5393 88.0216C63.2881 87.6867 62.995 87.3936 62.6601 87.1424C62.4089 86.8075 61.9903 86.5144 61.4041 86.2633C60.9017 85.9283 60.4412 85.6353 60.0226 85.3841C59.6039 85.1329 59.0178 84.8398 58.2642 84.5049C57.5106 84.17 56.8826 83.9188 56.3802 83.7513C55.8778 83.5001 55.1661 83.207 54.2451 82.8721C53.4078 82.4535 52.7379 82.1185 52.2355 81.8673L71.8287 68.6796Z" fill="url(#paint9_linear_20_9)"></path><path d="M131.561 63.7813C131.561 64.9536 132.398 66.0839 134.073 67.1724C135.831 68.1772 137.967 69.0983 140.478 69.9356C143.074 70.6892 145.837 71.7358 148.768 73.0755C151.782 74.4152 154.504 75.8805 156.932 77.4714C159.444 79.0623 161.495 81.2394 163.086 84.0025C164.761 86.7656 165.514 89.9056 165.347 93.4223C165.179 96.8553 164.3 99.9534 162.709 102.717C161.118 105.396 159.109 107.615 156.681 109.373C154.252 111.048 151.322 112.513 147.889 113.769C144.456 114.941 141.065 115.821 137.715 116.407C134.366 116.909 130.724 117.244 126.788 117.411L131.184 94.4271C132.608 93.841 133.319 92.8362 133.319 91.4127C133.319 89.8218 131.98 88.3147 129.3 86.8912C126.621 85.3841 123.523 83.9606 120.006 82.6209C116.573 81.2812 113.182 79.3135 109.833 76.7178C106.567 74.0384 104.306 70.731 103.05 66.7957C101.794 62.8603 102.046 57.5433 103.804 50.8448C107.739 38.285 119.504 30.8748 139.097 28.614L135.455 60.139C132.859 60.7251 131.561 61.9392 131.561 63.7813ZM160.951 28.3628L157.811 63.0277C151.196 61.0182 145.335 59.9297 140.227 59.7622L145.628 27.9861C147.219 27.9861 148.852 27.9861 150.526 27.9861C152.201 27.9023 153.624 27.9023 154.797 27.9861C155.969 28.0698 157.015 28.1535 157.937 28.2372C158.941 28.2372 159.695 28.2791 160.197 28.3628H160.951ZM97.901 116.155L106.19 91.0359C113.475 93.4642 119.797 94.8457 125.156 95.1807L120.509 117.663C116.824 117.663 113.098 117.537 109.33 117.286C105.562 117.035 102.716 116.783 100.79 116.532L97.901 116.155Z" fill="url(#paint10_linear_20_9)"></path><path d="M215.599 93.2967L231.927 115.151L237.956 123.314L214.343 136.377L207.561 117.537C206.891 117.537 206.389 117.537 206.054 117.537C198.769 117.537 192.029 115.569 185.833 111.634C179.72 107.615 174.864 102.172 171.264 95.3063C167.747 88.3565 165.988 80.8207 165.988 72.6987C165.988 64.5768 167.747 57.0828 171.264 50.2168C174.864 43.3508 179.72 37.9082 185.833 33.8891C192.029 29.87 198.728 27.8605 205.928 27.8605C213.213 27.8605 219.912 29.87 226.024 33.8891C232.22 37.9082 237.077 43.3508 240.593 50.2168C244.194 57.0828 245.994 64.5768 245.994 72.6987C245.994 79.3135 244.78 85.5515 242.352 91.4127C240.007 97.1902 236.7 102.172 232.43 106.359L219.87 88.524C221.879 85.1747 222.884 81.4905 222.884 77.4714C222.884 72.1963 221.293 67.7167 218.111 64.0325C214.93 60.2646 211.078 58.3806 206.556 58.3806C203.542 58.3806 200.779 59.2598 198.267 61.0182C195.755 62.6928 193.787 64.9954 192.364 67.926C190.941 70.8566 190.229 74.0384 190.229 77.4714C190.229 82.7465 191.82 87.268 195.001 91.0359C198.183 94.7201 202.035 96.5622 206.556 96.5622C209.906 96.5622 212.92 95.4737 215.599 93.2967Z" fill="url(#paint11_linear_20_9)"></path><path d="M248.827 35.2707L280.729 31.754C280.561 33.2611 280.352 35.2288 280.101 37.6571C279.849 40.0853 279.514 44.5649 279.096 51.096C278.677 57.627 278.384 63.572 278.217 68.9308C278.049 74.2896 278.133 79.6066 278.468 84.8817C278.886 90.1568 279.598 93.7991 280.603 95.8087V116.281C276.333 116.114 272.146 115.025 268.043 113.015C264.024 111.006 260.466 108.117 257.367 104.349C254.856 101.251 252.846 96.7716 251.339 90.9104C249.832 85.0491 248.869 79.0623 248.45 72.9499C248.115 66.7538 247.948 60.767 247.948 54.9895C247.948 49.212 248.115 44.4812 248.45 40.797L248.827 35.2707ZM313.258 34.7683C313.426 36.0243 313.593 37.7827 313.761 40.0434C314.012 42.2204 314.221 46.3651 314.389 52.4775C314.64 58.59 314.64 64.3256 314.389 69.6844C314.221 75.0432 313.51 80.737 312.254 86.7656C310.998 92.7943 309.281 97.6089 307.104 101.209C301.996 109.583 295.005 114.481 286.129 115.904V95.5575C287.134 94.0503 287.971 91.7895 288.641 88.7752C289.395 85.7609 289.897 82.4116 290.148 78.7274C290.4 75.0432 290.567 71.1497 290.651 67.0468C290.735 62.944 290.693 59.0086 290.525 55.2407C290.441 51.4728 290.316 48.0398 290.148 44.9417C290.065 41.8436 289.939 39.3735 289.772 37.5315L289.646 34.7683H313.258Z" fill="url(#paint12_linear_20_9)"></path><path d="M317.738 30.3724L352.528 28.4884L343.736 115.779L322.259 115.025L317.738 30.3724Z" fill="url(#paint13_linear_20_9)"></path><path d="M402.512 80.737L424.366 110.88L398.87 118.165L386.184 85.0073L380.909 84.7561V116.909H359.432L354.408 35.8987C359.851 33.2193 367.512 31.0841 377.392 29.4932L378.9 50.468L380.784 75.0851C381.119 74.9176 381.537 74.7083 382.04 74.4571C382.542 74.1222 383.463 73.3686 384.803 72.1963C386.142 71.0241 387.273 69.7263 388.194 68.3028C389.115 66.8794 389.91 64.9536 390.58 62.5253C391.25 60.0134 391.418 57.3758 391.083 54.6127C390.496 49.5051 387.901 45.6534 383.296 43.0577L382.542 28.8652C383.714 28.6978 384.845 28.5722 385.933 28.4884C395.981 27.5674 404.354 29.7444 411.053 35.0195C417.751 40.2946 420.975 47.035 420.724 55.2407C420.64 58.255 419.928 61.1856 418.588 64.0325C417.332 66.8794 415.825 69.2657 414.067 71.1916C412.309 73.1174 410.55 74.8339 408.792 76.3411C407.033 77.8482 405.568 78.9367 404.396 79.6066L402.512 80.737Z" fill="url(#paint14_linear_20_9)"></path><path d="M472.425 80.737L494.279 110.88L468.782 118.165L456.097 85.0073L450.822 84.7561V116.909H429.345L424.321 35.8987C429.763 33.2193 437.425 31.0841 447.305 29.4932L448.812 50.468L450.696 75.0851C451.031 74.9176 451.45 74.7083 451.952 74.4571C452.455 74.1222 453.376 73.3686 454.715 72.1963C456.055 71.0241 457.185 69.7263 458.106 68.3028C459.028 66.8794 459.823 64.9536 460.493 62.5253C461.163 60.0134 461.33 57.3758 460.995 54.6127C460.409 49.5051 457.813 45.6534 453.208 43.0577L452.455 28.8652C453.627 28.6978 454.757 28.5722 455.846 28.4884C465.894 27.5674 474.267 29.7444 480.965 35.0195C487.664 40.2946 490.887 47.035 490.636 55.2407C490.552 58.255 489.841 61.1856 488.501 64.0325C487.245 66.8794 485.738 69.2657 483.98 71.1916C482.221 73.1174 480.463 74.8339 478.704 76.3411C476.946 77.8482 475.481 78.9367 474.309 79.6066L472.425 80.737Z" fill="url(#paint15_linear_20_9)"></path><path d="M549.625 64.1581L550.002 82.9977L523.626 81.1138L522.245 67.926L549.625 64.1581ZM494.236 32.6332L513.327 31.126L522.37 112.136L498.758 112.513L494.236 32.6332ZM518.225 30.7492L557.161 27.7349L554.9 59.1342L521.114 58.0038L518.225 30.7492ZM526.892 112.011L524.38 88.9008L554.9 85.8865V111.508L526.892 112.011Z" fill="url(#paint16_linear_20_9)"></path><path d="M559.354 30.1212L592.763 34.1403L582.84 116.155L565.885 115.779L559.354 30.1212ZM591.381 93.5479L612.481 91.1616V116.658L587.111 116.155L591.381 93.5479Z" fill="url(#paint17_linear_20_9)"></path><path d="M48.9557 83.853C47.0298 82.7645 45.3552 81.6341 43.9318 80.4619C42.5083 79.2896 41.1686 77.8662 39.9126 76.1916C38.6567 74.4332 37.7356 72.5911 37.1495 70.6653C36.5634 68.6557 36.3122 66.2694 36.3959 63.5062C36.4796 60.7431 36.982 57.7706 37.9031 54.5888C40.4988 46.1319 46.8205 39.9776 56.8683 36.126L54.2307 23.1895H81.8622L79.727 31.8557C82.7414 31.6882 85.3789 31.6463 87.6397 31.7301C89.9004 31.8138 91.7006 31.8975 93.0403 31.9813L95.0499 32.2325L91.91 66.7718C91.91 66.7718 88.6444 66.0182 82.1134 64.511C71.312 62.6689 65.8276 63.6737 65.6601 67.5253C65.6601 68.7813 66.6649 69.9536 68.6744 71.0421L48.9557 83.853ZM74.8287 73.6796C75.0799 73.8471 75.5404 74.0145 76.2103 74.182C78.1361 74.9356 79.6433 75.5217 80.7318 75.9404C81.8203 76.359 83.3275 77.0289 85.2533 77.9499C87.1791 78.871 88.6863 79.7083 89.7748 80.4619C90.9471 81.2155 92.2449 82.2202 93.6683 83.4762C95.0918 84.6485 96.1803 85.9044 96.9339 87.2441C97.6874 88.5001 98.3154 90.0073 98.8178 91.7656C99.3202 93.4403 99.5295 95.2405 99.4458 97.1663C99.0272 107.633 92.2449 114.75 79.099 118.518L81.8622 132.208H54.2307L56.8683 121.407C52.8492 121.49 48.7463 121.407 44.5597 121.155C40.4569 120.904 37.3588 120.611 35.2655 120.276L32 119.899L40.2894 94.78C41.4617 95.1986 42.9688 95.6592 44.8109 96.1616C46.653 96.6639 49.5418 97.3757 53.4772 98.2967C57.4963 99.134 60.8037 99.3433 63.3994 98.9247C66.0788 98.4223 67.4185 97.1663 67.4185 95.1568C67.4185 94.8218 67.3347 94.4869 67.1673 94.152C67.0835 93.7333 66.8742 93.3565 66.5393 93.0216C66.2881 92.6867 65.995 92.3936 65.6601 92.1424C65.4089 91.8075 64.9903 91.5144 64.4041 91.2633C63.9017 90.9283 63.4412 90.6353 63.0226 90.3841C62.6039 90.1329 62.0178 89.8398 61.2642 89.5049C60.5106 89.17 59.8826 88.9188 59.3802 88.7513C58.8778 88.5001 58.1661 88.207 57.2451 87.8721C56.4078 87.4535 55.7379 87.1185 55.2355 86.8673L74.8287 73.6796Z" stroke="#CFF4FF" stroke-width="12.48" mask="url(#path-1-outside-1_20_9)"></path><path d="M134.561 68.7813C134.561 69.9536 135.398 71.0839 137.073 72.1724C138.831 73.1772 140.967 74.0983 143.478 74.9356C146.074 75.6892 148.837 76.7358 151.768 78.0755C154.782 79.4152 157.504 80.8805 159.932 82.4714C162.444 84.0623 164.495 86.2394 166.086 89.0025C167.761 91.7656 168.514 94.9056 168.347 98.4223C168.179 101.855 167.3 104.953 165.709 107.717C164.118 110.396 162.109 112.615 159.681 114.373C157.252 116.048 154.322 117.513 150.889 118.769C147.456 119.941 144.065 120.821 140.715 121.407C137.366 121.909 133.724 122.244 129.788 122.411L134.184 99.4271C135.608 98.841 136.319 97.8362 136.319 96.4127C136.319 94.8218 134.98 93.3147 132.3 91.8912C129.621 90.3841 126.523 88.9606 123.006 87.6209C119.573 86.2812 116.182 84.3135 112.833 81.7178C109.567 79.0384 107.306 75.731 106.05 71.7957C104.794 67.8603 105.046 62.5433 106.804 55.8448C110.739 43.285 122.504 35.8748 142.097 33.614L138.455 65.139C135.859 65.7251 134.561 66.9392 134.561 68.7813ZM163.951 33.3628L160.811 68.0277C154.196 66.0182 148.335 64.9297 143.227 64.7622L148.628 32.9861C150.219 32.9861 151.852 32.9861 153.526 32.9861C155.201 32.9023 156.624 32.9023 157.797 32.9861C158.969 33.0698 160.015 33.1535 160.937 33.2372C161.941 33.2372 162.695 33.2791 163.197 33.3628H163.951ZM100.901 121.155L109.19 96.0359C116.475 98.4642 122.797 99.8457 128.156 100.181L123.509 122.663C119.824 122.663 116.098 122.537 112.33 122.286C108.562 122.035 105.716 121.783 103.79 121.532L100.901 121.155Z" stroke="#CFF4FF" stroke-width="12.48" mask="url(#path-1-outside-1_20_9)"></path><path d="M218.599 98.2967L234.927 120.151L240.956 128.314L217.343 141.377L210.561 122.537C209.891 122.537 209.389 122.537 209.054 122.537C201.769 122.537 195.029 120.569 188.833 116.634C182.72 112.615 177.864 107.172 174.264 100.306C170.747 93.3565 168.988 85.8207 168.988 77.6987C168.988 69.5768 170.747 62.0828 174.264 55.2168C177.864 48.3508 182.72 42.9082 188.833 38.8891C195.029 34.87 201.728 32.8605 208.928 32.8605C216.213 32.8605 222.912 34.87 229.024 38.8891C235.22 42.9082 240.077 48.3508 243.593 55.2168C247.194 62.0828 248.994 69.5768 248.994 77.6987C248.994 84.3135 247.78 90.5515 245.352 96.4127C243.007 102.19 239.7 107.172 235.43 111.359L222.87 93.524C224.879 90.1747 225.884 86.4906 225.884 82.4714C225.884 77.1963 224.293 72.7167 221.111 69.0325C217.93 65.2646 214.078 63.3806 209.556 63.3806C206.542 63.3806 203.779 64.2598 201.267 66.0182C198.755 67.6928 196.787 69.9954 195.364 72.926C193.941 75.8566 193.229 79.0384 193.229 82.4714C193.229 87.7465 194.82 92.268 198.001 96.0359C201.183 99.7201 205.035 101.562 209.556 101.562C212.906 101.562 215.92 100.474 218.599 98.2967Z" stroke="#CFF4FF" stroke-width="12.48" mask="url(#path-1-outside-1_20_9)"></path><path d="M251.827 40.2707L283.729 36.754C283.561 38.2611 283.352 40.2288 283.101 42.6571C282.849 45.0853 282.514 49.5649 282.096 56.096C281.677 62.627 281.384 68.572 281.217 73.9308C281.049 79.2896 281.133 84.6066 281.468 89.8817C281.886 95.1568 282.598 98.7991 283.603 100.809V121.281C279.333 121.114 275.146 120.025 271.043 118.015C267.024 116.006 263.466 113.117 260.367 109.349C257.856 106.251 255.846 101.772 254.339 95.9104C252.832 90.0491 251.869 84.0623 251.45 77.9499C251.115 71.7538 250.948 65.767 250.948 59.9895C250.948 54.212 251.115 49.4812 251.45 45.797L251.827 40.2707ZM316.258 39.7683C316.426 41.0243 316.593 42.7827 316.761 45.0434C317.012 47.2204 317.221 51.3651 317.389 57.4775C317.64 63.59 317.64 69.3256 317.389 74.6844C317.221 80.0432 316.51 85.737 315.254 91.7656C313.998 97.7943 312.281 102.609 310.104 106.209C304.996 114.583 298.005 119.481 289.129 120.904V100.557C290.134 99.0503 290.971 96.7895 291.641 93.7752C292.395 90.7609 292.897 87.4116 293.148 83.7274C293.4 80.0432 293.567 76.1497 293.651 72.0468C293.735 67.944 293.693 64.0086 293.525 60.2407C293.441 56.4728 293.316 53.0398 293.148 49.9417C293.065 46.8436 292.939 44.3735 292.772 42.5315L292.646 39.7683H316.258Z" stroke="#CFF4FF" stroke-width="12.48" mask="url(#path-1-outside-1_20_9)"></path><path d="M320.738 35.3724L355.528 33.4884L346.736 120.779L325.259 120.025L320.738 35.3724Z" stroke="#CFF4FF" stroke-width="12.48" mask="url(#path-1-outside-1_20_9)"></path><path d="M405.512 85.737L427.366 115.88L401.87 123.165L389.184 90.0073L383.909 89.7561V121.909H362.432L357.408 40.8987C362.851 38.2193 370.512 36.0841 380.392 34.4932L381.9 55.468L383.784 80.0851C384.119 79.9176 384.537 79.7083 385.04 79.4571C385.542 79.1222 386.463 78.3686 387.803 77.1963C389.142 76.0241 390.273 74.7263 391.194 73.3028C392.115 71.8794 392.91 69.9536 393.58 67.5253C394.25 65.0134 394.418 62.3758 394.083 59.6127C393.496 54.5051 390.901 50.6534 386.296 48.0577L385.542 33.8652C386.714 33.6978 387.845 33.5722 388.933 33.4884C398.981 32.5674 407.354 34.7444 414.053 40.0195C420.751 45.2946 423.975 52.035 423.724 60.2407C423.64 63.255 422.928 66.1856 421.588 69.0325C420.332 71.8794 418.825 74.2657 417.067 76.1916C415.309 78.1174 413.55 79.8339 411.792 81.3411C410.033 82.8482 408.568 83.9367 407.396 84.6066L405.512 85.737Z" stroke="#CFF4FF" stroke-width="12.48" mask="url(#path-1-outside-1_20_9)"></path><path d="M475.425 85.737L497.279 115.88L471.782 123.165L459.097 90.0073L453.822 89.7561V121.909H432.345L427.321 40.8987C432.763 38.2193 440.425 36.0841 450.305 34.4932L451.812 55.468L453.696 80.0851C454.031 79.9176 454.45 79.7083 454.952 79.4571C455.455 79.1222 456.376 78.3686 457.715 77.1963C459.055 76.0241 460.185 74.7263 461.106 73.3028C462.028 71.8794 462.823 69.9536 463.493 67.5253C464.163 65.0134 464.33 62.3758 463.995 59.6127C463.409 54.5051 460.813 50.6534 456.208 48.0577L455.455 33.8652C456.627 33.6978 457.757 33.5722 458.846 33.4884C468.894 32.5674 477.267 34.7444 483.965 40.0195C490.664 45.2946 493.887 52.035 493.636 60.2407C493.552 63.255 492.841 66.1856 491.501 69.0325C490.245 71.8794 488.738 74.2657 486.98 76.1916C485.221 78.1174 483.463 79.8339 481.704 81.3411C479.946 82.8482 478.481 83.9367 477.309 84.6066L475.425 85.737Z" stroke="#CFF4FF" stroke-width="12.48" mask="url(#path-1-outside-1_20_9)"></path><path d="M552.625 69.1581L553.002 87.9977L526.626 86.1138L525.245 72.926L552.625 69.1581ZM497.236 37.6332L516.327 36.126L525.37 117.136L501.758 117.513L497.236 37.6332ZM521.225 35.7492L560.161 32.7349L557.9 64.1342L524.114 63.0038L521.225 35.7492ZM529.892 117.011L527.38 93.9008L557.9 90.8865V116.508L529.892 117.011Z" stroke="#CFF4FF" stroke-width="12.48" mask="url(#path-1-outside-1_20_9)"></path><path d="M562.354 35.1212L595.763 39.1403L585.84 121.155L568.885 120.779L562.354 35.1212ZM594.381 98.5479L615.481 96.1616V121.658L590.111 121.155L594.381 98.5479Z" stroke="#CFF4FF" stroke-width="12.48" mask="url(#path-1-outside-1_20_9)"></path><path d="M45.9557 78.853C44.0298 77.7645 42.3552 76.6341 40.9318 75.4619C39.5083 74.2896 38.1686 72.8662 36.9126 71.1916C35.6567 69.4332 34.7356 67.5911 34.1495 65.6653C33.5634 63.6557 33.3122 61.2694 33.3959 58.5062C33.4796 55.7431 33.982 52.7706 34.9031 49.5888C37.4988 41.1319 43.8205 34.9776 53.8683 31.126L51.2307 18.1895H78.8622L76.727 26.8557C79.7414 26.6882 82.3789 26.6463 84.6397 26.7301C86.9004 26.8138 88.7006 26.8975 90.0403 26.9813L92.0499 27.2325L88.91 61.7718C88.91 61.7718 85.6444 61.0182 79.1134 59.511C68.312 57.6689 62.8276 58.6737 62.6601 62.5253C62.6601 63.7813 63.6649 64.9536 65.6744 66.0421L45.9557 78.853ZM71.8287 68.6796C72.0799 68.8471 72.5404 69.0145 73.2103 69.182C75.1361 69.9356 76.6433 70.5217 77.7318 70.9404C78.8203 71.359 80.3275 72.0289 82.2533 72.9499C84.1791 73.871 85.6863 74.7083 86.7748 75.4619C87.9471 76.2155 89.2449 77.2202 90.6683 78.4762C92.0918 79.6485 93.1803 80.9044 93.9339 82.2441C94.6874 83.5001 95.3154 85.0073 95.8178 86.7656C96.3202 88.4403 96.5295 90.2405 96.4458 92.1663C96.0272 102.633 89.2449 109.75 76.099 113.518L78.8622 127.208H51.2307L53.8683 116.407C49.8492 116.49 45.7463 116.407 41.5597 116.155C37.4569 115.904 34.3588 115.611 32.2655 115.276L29 114.899L37.2894 89.78C38.4617 90.1986 39.9688 90.6592 41.8109 91.1616C43.653 91.6639 46.5418 92.3757 50.4772 93.2967C54.4963 94.134 57.8037 94.3433 60.3994 93.9247C63.0788 93.4223 64.4185 92.1663 64.4185 90.1568C64.4185 89.8218 64.3347 89.4869 64.1673 89.152C64.0835 88.7333 63.8742 88.3565 63.5393 88.0216C63.2881 87.6867 62.995 87.3936 62.6601 87.1424C62.4089 86.8075 61.9903 86.5144 61.4041 86.2633C60.9017 85.9283 60.4412 85.6353 60.0226 85.3841C59.6039 85.1329 59.0178 84.8398 58.2642 84.5049C57.5106 84.17 56.8826 83.9188 56.3802 83.7513C55.8778 83.5001 55.1661 83.207 54.2451 82.8721C53.4078 82.4535 52.7379 82.1185 52.2355 81.8673L71.8287 68.6796Z" stroke="#CFF4FF" stroke-width="12.48" mask="url(#path-1-outside-1_20_9)"></path><path d="M131.561 63.7813C131.561 64.9536 132.398 66.0839 134.073 67.1724C135.831 68.1772 137.967 69.0983 140.478 69.9356C143.074 70.6892 145.837 71.7358 148.768 73.0755C151.782 74.4152 154.504 75.8805 156.932 77.4714C159.444 79.0623 161.495 81.2394 163.086 84.0025C164.761 86.7656 165.514 89.9056 165.347 93.4223C165.179 96.8553 164.3 99.9534 162.709 102.717C161.118 105.396 159.109 107.615 156.681 109.373C154.252 111.048 151.322 112.513 147.889 113.769C144.456 114.941 141.065 115.821 137.715 116.407C134.366 116.909 130.724 117.244 126.788 117.411L131.184 94.4271C132.608 93.841 133.319 92.8362 133.319 91.4127C133.319 89.8218 131.98 88.3147 129.3 86.8912C126.621 85.3841 123.523 83.9606 120.006 82.6209C116.573 81.2812 113.182 79.3135 109.833 76.7178C106.567 74.0384 104.306 70.731 103.05 66.7957C101.794 62.8603 102.046 57.5433 103.804 50.8448C107.739 38.285 119.504 30.8748 139.097 28.614L135.455 60.139C132.859 60.7251 131.561 61.9392 131.561 63.7813ZM160.951 28.3628L157.811 63.0277C151.196 61.0182 145.335 59.9297 140.227 59.7622L145.628 27.9861C147.219 27.9861 148.852 27.9861 150.526 27.9861C152.201 27.9023 153.624 27.9023 154.797 27.9861C155.969 28.0698 157.015 28.1535 157.937 28.2372C158.941 28.2372 159.695 28.2791 160.197 28.3628H160.951ZM97.901 116.155L106.19 91.0359C113.475 93.4642 119.797 94.8457 125.156 95.1807L120.509 117.663C116.824 117.663 113.098 117.537 109.33 117.286C105.562 117.035 102.716 116.783 100.79 116.532L97.901 116.155Z" stroke="#CFF4FF" stroke-width="12.48" mask="url(#path-1-outside-1_20_9)"></path><path d="M215.599 93.2967L231.927 115.151L237.956 123.314L214.343 136.377L207.561 117.537C206.891 117.537 206.389 117.537 206.054 117.537C198.769 117.537 192.029 115.569 185.833 111.634C179.72 107.615 174.864 102.172 171.264 95.3063C167.747 88.3565 165.988 80.8207 165.988 72.6987C165.988 64.5768 167.747 57.0828 171.264 50.2168C174.864 43.3508 179.72 37.9082 185.833 33.8891C192.029 29.87 198.728 27.8605 205.928 27.8605C213.213 27.8605 219.912 29.87 226.024 33.8891C232.22 37.9082 237.077 43.3508 240.593 50.2168C244.194 57.0828 245.994 64.5768 245.994 72.6987C245.994 79.3135 244.78 85.5515 242.352 91.4127C240.007 97.1902 236.7 102.172 232.43 106.359L219.87 88.524C221.879 85.1747 222.884 81.4905 222.884 77.4714C222.884 72.1963 221.293 67.7167 218.111 64.0325C214.93 60.2646 211.078 58.3806 206.556 58.3806C203.542 58.3806 200.779 59.2598 198.267 61.0182C195.755 62.6928 193.787 64.9954 192.364 67.926C190.941 70.8566 190.229 74.0384 190.229 77.4714C190.229 82.7465 191.82 87.268 195.001 91.0359C198.183 94.7201 202.035 96.5622 206.556 96.5622C209.906 96.5622 212.92 95.4737 215.599 93.2967Z" stroke="#CFF4FF" stroke-width="12.48" mask="url(#path-1-outside-1_20_9)"></path><path d="M248.827 35.2707L280.729 31.754C280.561 33.2611 280.352 35.2288 280.101 37.6571C279.849 40.0853 279.514 44.5649 279.096 51.096C278.677 57.627 278.384 63.572 278.217 68.9308C278.049 74.2896 278.133 79.6066 278.468 84.8817C278.886 90.1568 279.598 93.7991 280.603 95.8087V116.281C276.333 116.114 272.146 115.025 268.043 113.015C264.024 111.006 260.466 108.117 257.367 104.349C254.856 101.251 252.846 96.7716 251.339 90.9104C249.832 85.0491 248.869 79.0623 248.45 72.9499C248.115 66.7538 247.948 60.767 247.948 54.9895C247.948 49.212 248.115 44.4812 248.45 40.797L248.827 35.2707ZM313.258 34.7683C313.426 36.0243 313.593 37.7827 313.761 40.0434C314.012 42.2204 314.221 46.3651 314.389 52.4775C314.64 58.59 314.64 64.3256 314.389 69.6844C314.221 75.0432 313.51 80.737 312.254 86.7656C310.998 92.7943 309.281 97.6089 307.104 101.209C301.996 109.583 295.005 114.481 286.129 115.904V95.5575C287.134 94.0503 287.971 91.7895 288.641 88.7752C289.395 85.7609 289.897 82.4116 290.148 78.7274C290.4 75.0432 290.567 71.1497 290.651 67.0468C290.735 62.944 290.693 59.0086 290.525 55.2407C290.441 51.4728 290.316 48.0398 290.148 44.9417C290.065 41.8436 289.939 39.3735 289.772 37.5315L289.646 34.7683H313.258Z" stroke="#CFF4FF" stroke-width="12.48" mask="url(#path-1-outside-1_20_9)"></path><path d="M317.738 30.3724L352.528 28.4884L343.736 115.779L322.259 115.025L317.738 30.3724Z" stroke="#CFF4FF" stroke-width="12.48" mask="url(#path-1-outside-1_20_9)"></path><path d="M402.512 80.737L424.366 110.88L398.87 118.165L386.184 85.0073L380.909 84.7561V116.909H359.432L354.408 35.8987C359.851 33.2193 367.512 31.0841 377.392 29.4932L378.9 50.468L380.784 75.0851C381.119 74.9176 381.537 74.7083 382.04 74.4571C382.542 74.1222 383.463 73.3686 384.803 72.1963C386.142 71.0241 387.273 69.7263 388.194 68.3028C389.115 66.8794 389.91 64.9536 390.58 62.5253C391.25 60.0134 391.418 57.3758 391.083 54.6127C390.496 49.5051 387.901 45.6534 383.296 43.0577L382.542 28.8652C383.714 28.6978 384.845 28.5722 385.933 28.4884C395.981 27.5674 404.354 29.7444 411.053 35.0195C417.751 40.2946 420.975 47.035 420.724 55.2407C420.64 58.255 419.928 61.1856 418.588 64.0325C417.332 66.8794 415.825 69.2657 414.067 71.1916C412.309 73.1174 410.55 74.8339 408.792 76.3411C407.033 77.8482 405.568 78.9367 404.396 79.6066L402.512 80.737Z" stroke="#CFF4FF" stroke-width="12.48" mask="url(#path-1-outside-1_20_9)"></path><path d="M472.425 80.737L494.279 110.88L468.782 118.165L456.097 85.0073L450.822 84.7561V116.909H429.345L424.321 35.8987C429.763 33.2193 437.425 31.0841 447.305 29.4932L448.812 50.468L450.696 75.0851C451.031 74.9176 451.45 74.7083 451.952 74.4571C452.455 74.1222 453.376 73.3686 454.715 72.1963C456.055 71.0241 457.185 69.7263 458.106 68.3028C459.028 66.8794 459.823 64.9536 460.493 62.5253C461.163 60.0134 461.33 57.3758 460.995 54.6127C460.409 49.5051 457.813 45.6534 453.208 43.0577L452.455 28.8652C453.627 28.6978 454.757 28.5722 455.846 28.4884C465.894 27.5674 474.267 29.7444 480.965 35.0195C487.664 40.2946 490.887 47.035 490.636 55.2407C490.552 58.255 489.841 61.1856 488.501 64.0325C487.245 66.8794 485.738 69.2657 483.98 71.1916C482.221 73.1174 480.463 74.8339 478.704 76.3411C476.946 77.8482 475.481 78.9367 474.309 79.6066L472.425 80.737Z" stroke="#CFF4FF" stroke-width="12.48" mask="url(#path-1-outside-1_20_9)"></path><path d="M549.625 64.1581L550.002 82.9977L523.626 81.1138L522.245 67.926L549.625 64.1581ZM494.236 32.6332L513.327 31.126L522.37 112.136L498.758 112.513L494.236 32.6332ZM518.225 30.7492L557.161 27.7349L554.9 59.1342L521.114 58.0038L518.225 30.7492ZM526.892 112.011L524.38 88.9008L554.9 85.8865V111.508L526.892 112.011Z" stroke="#CFF4FF" stroke-width="12.48" mask="url(#path-1-outside-1_20_9)"></path><path d="M559.354 30.1212L592.763 34.1403L582.84 116.155L565.885 115.779L559.354 30.1212ZM591.381 93.5479L612.481 91.1616V116.658L587.111 116.155L591.381 93.5479Z" stroke="#CFF4FF" stroke-width="12.48" mask="url(#path-1-outside-1_20_9)"></path><defs><linearGradient id="paint0_linear_20_9" x1="322.241" y1="27.7101" x2="322.241" y2="127.164" gradientUnits="userSpaceOnUse"><stop stop-color="#15558A"></stop><stop offset="1" stop-color="#0C406B"></stop></linearGradient><linearGradient id="paint1_linear_20_9" x1="322.241" y1="27.7101" x2="322.241" y2="127.164" gradientUnits="userSpaceOnUse"><stop stop-color="#15558A"></stop><stop offset="1" stop-color="#0C406B"></stop></linearGradient><linearGradient id="paint2_linear_20_9" x1="322.241" y1="27.7101" x2="322.241" y2="127.164" gradientUnits="userSpaceOnUse"><stop stop-color="#15558A"></stop><stop offset="1" stop-color="#0C406B"></stop></linearGradient><linearGradient id="paint3_linear_20_9" x1="322.241" y1="27.7101" x2="322.241" y2="127.164" gradientUnits="userSpaceOnUse"><stop stop-color="#15558A"></stop><stop offset="1" stop-color="#0C406B"></stop></linearGradient><linearGradient id="paint4_linear_20_9" x1="322.241" y1="27.7101" x2="322.241" y2="127.164" gradientUnits="userSpaceOnUse"><stop stop-color="#15558A"></stop><stop offset="1" stop-color="#0C406B"></stop></linearGradient><linearGradient id="paint5_linear_20_9" x1="322.241" y1="27.7101" x2="322.241" y2="127.164" gradientUnits="userSpaceOnUse"><stop stop-color="#15558A"></stop><stop offset="1" stop-color="#0C406B"></stop></linearGradient><linearGradient id="paint6_linear_20_9" x1="322.241" y1="27.7101" x2="322.241" y2="127.164" gradientUnits="userSpaceOnUse"><stop stop-color="#15558A"></stop><stop offset="1" stop-color="#0C406B"></stop></linearGradient><linearGradient id="paint7_linear_20_9" x1="322.241" y1="27.7101" x2="322.241" y2="127.164" gradientUnits="userSpaceOnUse"><stop stop-color="#15558A"></stop><stop offset="1" stop-color="#0C406B"></stop></linearGradient><linearGradient id="paint8_linear_20_9" x1="322.241" y1="27.7101" x2="322.241" y2="127.164" gradientUnits="userSpaceOnUse"><stop stop-color="#15558A"></stop><stop offset="1" stop-color="#0C406B"></stop></linearGradient><linearGradient id="paint9_linear_20_9" x1="317.529" y1="28.4995" x2="317.529" y2="126.691" gradientUnits="userSpaceOnUse"><stop stop-color="#3985C4"></stop><stop offset="1" stop-color="#2D699B"></stop></linearGradient><linearGradient id="paint10_linear_20_9" x1="317.529" y1="28.4995" x2="317.529" y2="126.691" gradientUnits="userSpaceOnUse"><stop stop-color="#3985C4"></stop><stop offset="1" stop-color="#2D699B"></stop></linearGradient><linearGradient id="paint11_linear_20_9" x1="317.529" y1="28.4995" x2="317.529" y2="126.691" gradientUnits="userSpaceOnUse"><stop stop-color="#3985C4"></stop><stop offset="1" stop-color="#2D699B"></stop></linearGradient><linearGradient id="paint12_linear_20_9" x1="317.529" y1="28.4995" x2="317.529" y2="126.691" gradientUnits="userSpaceOnUse"><stop stop-color="#3985C4"></stop><stop offset="1" stop-color="#2D699B"></stop></linearGradient><linearGradient id="paint13_linear_20_9" x1="317.529" y1="28.4995" x2="317.529" y2="126.691" gradientUnits="userSpaceOnUse"><stop stop-color="#3985C4"></stop><stop offset="1" stop-color="#2D699B"></stop></linearGradient><linearGradient id="paint14_linear_20_9" x1="317.529" y1="28.4995" x2="317.529" y2="126.691" gradientUnits="userSpaceOnUse"><stop stop-color="#3985C4"></stop><stop offset="1" stop-color="#2D699B"></stop></linearGradient><linearGradient id="paint15_linear_20_9" x1="317.529" y1="28.4995" x2="317.529" y2="126.691" gradientUnits="userSpaceOnUse"><stop stop-color="#3985C4"></stop><stop offset="1" stop-color="#2D699B"></stop></linearGradient><linearGradient id="paint16_linear_20_9" x1="317.529" y1="28.4995" x2="317.529" y2="126.691" gradientUnits="userSpaceOnUse"><stop stop-color="#3985C4"></stop><stop offset="1" stop-color="#2D699B"></stop></linearGradient><linearGradient id="paint17_linear_20_9" x1="317.529" y1="28.4995" x2="317.529" y2="126.691" gradientUnits="userSpaceOnUse"><stop stop-color="#3985C4"></stop><stop offset="1" stop-color="#2D699B"></stop></linearGradient></defs></svg> 