<?xml version="1.0" encoding="UTF-8"?> <svg xmlns="http://www.w3.org/2000/svg" width="202" height="205" viewBox="0 0 202 205" fill="none"><path d="M200.839 202.015C200.839 202.015 196.801 199.307 192.233 195.624C187.665 191.941 180.245 192.368 180.245 192.368C180.245 192.368 183.82 190.111 191.764 182.601C199.701 175.09 200.791 164.125 200.791 164.125C200.791 164.125 194.634 166.743 188.743 167.911C182.851 169.078 174.329 172.28 174.329 172.28L172.259 173.134C172.259 173.134 177.814 169.638 180.034 163.042C182.255 156.446 183.134 151.915 182.694 151.469C182.255 151.024 169.039 157.162 169.027 154.695C169.015 152.228 170.731 149.104 170.731 149.104C170.731 149.104 167.282 145.981 162.733 149.104C158.183 152.228 155.776 153.431 155.174 154.033C154.572 154.635 158.658 142.496 157.816 135.022C156.973 127.548 155.108 126.416 155.108 126.416C155.108 126.416 149.992 125.038 142.65 132.013C135.308 138.988 131.998 142.4 131.998 142.4C131.998 142.4 134.105 137.646 131.998 134.101C129.892 130.557 130.048 128.932 128.466 129.75C126.883 130.563 123.471 134.872 123.471 134.872C123.471 134.872 123.964 128.342 120.913 129.756C117.862 131.17 112.801 136.171 111.724 136.075C110.646 135.979 115.358 126.597 115.407 125.875C115.455 125.152 123.399 112.96 121.232 102.206C119.066 91.4513 117.736 91.4212 115.689 89.9287C113.649 88.4422 104.225 94.6408 104.225 94.6408L91.3163 103.048C91.3163 103.048 97.0274 93.7923 92.7004 91.7161C88.3734 89.6398 79.3464 96.8615 79.3464 96.8615C79.3464 96.8615 84.564 88.9056 84.6663 76.6348C84.7686 64.364 79.5931 55.3369 78.2631 55.6378C76.9331 55.9387 73.7496 59.5796 73.7496 59.5796C73.7496 59.5796 76.1327 45.7141 69.6152 44.5044C63.0976 43.2948 58.5179 52.6649 58.5179 52.6649L55.7917 57.5816C55.7917 57.5816 55.6593 53.1223 54.564 48.2115C53.4687 43.3008 49.5751 43.5596 47.3123 45.2326C45.0495 46.9056 37.9121 52.6288 37.9121 52.6288C37.9121 52.6288 37.0635 42.1453 34.4336 42.7231C31.8037 43.3008 25.0455 48.35 25.0455 48.35C25.0455 48.35 32.6162 38.2818 28.0004 24.5426C23.3845 10.8033 16.3073 11.7301 14.4296 12.7712C12.552 13.8124 9.04947 16.4483 7.1899 19.9448C5.33031 23.4412 3.29623 25.8966 3.29623 25.8966C3.29623 25.8966 3.38049 21.6599 -0.759933 23.1524C-4.90036 24.6449 -6.95856 28.1835 -6.95856 28.1835C-6.95856 28.1835 -8.51118 17.4232 -16.3347 10.2015C-24.1581 2.97986 -34.0518 -1.76839 -38.132 0.903622C-42.2123 3.58166 -40.5874 4.91164 -43.2053 9.365C-45.8232 13.8184 -46.2083 22.8936 -49.0248 23.7662C-51.8412 24.6388 -57.131 7.04204 -63.811 5.30884C-70.4971 3.58166 -77.7249 8.37202 -78.6276 8.08316C-79.5302 7.79429 -81.3297 148.617 -81.9315 148.015C-82.5333 147.413 -78.9224 194.354 -79.5242 193.752C-80.126 193.15 -78.0258 199.77 -77.5744 200.071C-77.123 200.372 169.581 200.071 169.581 200.071L200.839 202.015Z" fill="#FF541F"></path><path opacity="0.58" d="M-32.9989 63.4976C-32.2648 59.8265 -31.5726 56.0292 -30.0862 52.5688C-28.8284 49.638 -26.7341 46.966 -23.5145 46.1595C-22.7321 45.9609 -21.8775 46.4063 -21.6609 47.2127C-20.1925 52.7373 -19.3921 58.4304 -19.2717 64.1415C-16.0882 62.6731 -13.7051 59.9951 -11.7793 57.0342C-9.23967 53.1345 -7.31984 48.8677 -4.8705 44.9138C-3.46227 42.639 -1.87959 40.4544 0.02211 38.5708C0.768356 37.8306 1.82155 38.1014 2.38724 38.8777C3.04321 39.7744 3.56679 40.7373 3.97601 41.7423C5.73329 38.0713 7.78546 34.5507 10.1626 31.2288C10.6741 30.5126 11.8476 30.1214 12.5276 30.9218C20.1886 40.0271 18.311 52.6109 15.5788 63.4193C16.8306 62.9559 18.0884 62.4986 19.3401 62.0352C20.0623 61.7704 21.0432 62.3361 21.1936 63.0883C21.3802 64.0392 21.3381 65.0141 21.0973 65.9228C25.0031 65.0863 28.969 64.5266 32.959 64.2438C34.1144 64.1656 34.8125 65.5798 34.2588 66.5066C33.4644 67.8366 32.7603 69.2027 32.1465 70.6109C33.3501 69.6841 34.5537 68.7573 35.7573 67.8306C37.8035 66.2538 40.301 64.5748 42.7202 66.5186C44.6761 68.0954 45.2538 71.0262 45.645 73.3672C45.8617 74.6851 45.982 76.0031 46.0121 77.321C47.637 75.5698 49.5026 74.0412 51.5728 72.7955C52.6139 72.1696 53.7513 72.994 53.8356 74.0953L54.0222 76.5748C56.1104 73.8004 58.7523 71.4534 61.7914 69.7323C62.8145 69.1545 64.0061 69.8948 64.0542 71.0322C64.4815 81.1545 62.0442 91.313 57.1274 100.16C60.5036 100.039 63.8737 99.9128 67.2498 99.7924C67.9901 99.7684 68.628 100.394 68.7543 101.092C71.4143 100.105 74.3271 99.8285 77.1977 100.322C78.2328 100.503 78.4735 101.742 78.0944 102.531C75.2478 108.482 71.3962 113.935 66.7684 118.623C67.5868 118.442 68.4053 118.262 69.2178 118.081C70.5116 117.792 71.8055 117.504 73.0994 117.221C74.1646 116.986 75.2779 116.763 76.3552 117.028C77.3963 117.281 78.2689 118.051 78.5878 119.08C78.9248 120.158 78.648 121.259 78.3531 122.312C78.1485 123.052 77.9379 123.792 77.7332 124.533C78.2929 123.991 79.2619 124.075 79.8336 124.581C82.1927 126.651 83.3963 129.63 83.4023 132.645C91.4003 126.013 99.4043 119.375 107.402 112.743C108.492 111.841 110.369 112.659 109.918 114.206C107.101 123.901 103.876 133.469 100.265 142.894C101.378 142.25 102.582 141.756 103.84 141.437C104.79 141.197 105.735 141.895 105.741 142.888C105.753 144.314 105.639 145.734 105.416 147.13C107.029 145.933 108.804 144.958 110.7 144.224C111.621 143.869 112.62 144.777 112.602 145.674C112.59 146.288 112.548 146.896 112.47 147.498C114.973 145.891 117.856 144.904 120.865 144.603C121.743 144.519 122.279 145.367 122.369 146.107C122.604 147.991 122.49 149.905 122.068 151.746C122.201 151.656 122.333 151.56 122.465 151.469C123.109 151.042 124.175 151.307 124.524 152.011C124.626 152.222 124.71 152.438 124.77 152.655C131.805 148.779 138.937 145.078 146.159 141.564C147.35 140.986 148.662 141.937 148.367 143.261C146.821 150.206 143.956 156.759 139.996 162.633C141.452 162.194 142.903 161.748 144.359 161.309C146.05 160.797 146.893 163.144 145.521 164.059C144.678 164.619 143.836 165.185 142.999 165.744C148.614 165.931 154.223 166.117 159.838 166.304C160.891 166.34 161.83 167.586 161.138 168.567C158.339 172.527 154.819 175.909 150.756 178.503C151.906 178.725 153.055 178.948 154.199 179.171C155.234 179.375 155.739 181.006 154.861 181.686C154.674 181.831 154.482 181.981 154.295 182.125C157.033 182.047 159.741 181.614 162.395 180.789C163.587 180.422 164.863 181.915 164.092 182.998C158.026 191.556 148.704 197.634 138.413 199.74C136.578 200.113 134.718 200.354 132.847 200.474C129.079 201.51 125.264 202.352 121.346 202.575C115.647 202.894 110.062 201.546 104.508 200.499C93.1275 198.356 81.5126 198.567 70.0061 199.319C58.2047 200.089 46.4153 201.149 34.644 202.256C23.0352 203.351 11.1435 205.349 -0.501465 203.754C-1.71109 203.586 -2.95679 203.333 -3.85349 202.436C-4.87053 201.419 -4.97285 200.017 -4.77426 198.669C-4.31689 195.558 -3.55862 192.458 -2.82442 189.401C-1.3199 183.173 0.551727 177.04 2.75433 171.028C3.25984 169.656 5.19168 169.548 5.65508 171.028C5.93793 171.931 6.22675 172.834 6.5096 173.736C9.33807 169.096 12.1606 164.456 14.9891 159.816C15.5728 158.86 17.0171 158.824 17.5888 159.816C19.1535 162.531 19.9479 165.582 19.9419 168.663C22.9991 166.087 26.0502 163.512 29.1074 160.936C29.968 160.208 31.8577 160.575 31.6771 162.001C31.3582 164.499 31.1956 167.002 31.1896 169.512C32.8687 168.717 34.5477 167.929 36.2207 167.134C37.0271 166.755 38.2308 167.002 38.4294 168.031C38.5317 168.567 38.634 169.102 38.7363 169.638C44.3451 167.104 49.2679 163.157 53.0111 158.288C51.7714 158.535 50.5076 158.685 49.2378 158.733C48.0161 158.781 47.4745 157.439 47.9379 156.47C48.0884 156.158 48.2388 155.839 48.3893 155.526C45.0673 155.471 41.7995 156.242 38.8566 157.885C37.31 158.751 35.9499 156.795 37.0331 155.52C41.9078 149.772 45.5427 143.062 47.7513 135.877C43.1596 137.712 38.7002 139.855 34.3913 142.292C33.1455 142.996 31.9961 141.841 32.1826 140.595C32.5919 137.778 33.0071 134.962 33.4164 132.146C29.4083 134.282 25.972 137.465 23.5287 141.293C22.7162 142.569 20.7904 142.039 20.7242 140.535C20.5497 136.569 20.3752 132.609 20.2007 128.643C18.7022 129.473 17.3782 130.623 16.3732 132.019C15.6871 132.97 13.9058 133.042 13.623 131.658C11.8296 122.956 8.92287 114.543 4.96298 106.611C4.57784 120.41 3.16359 134.168 0.750351 147.762C0.509628 149.11 -1.36203 149.128 -1.99995 148.123C-5.64087 142.4 -9.8956 137.116 -14.68 132.326C-16.7502 136.34 -18.2246 140.619 -19.0912 145.066C-19.2717 146.005 -20.5295 146.462 -21.2998 145.963C-26.5415 142.611 -29.5566 137.062 -31.3921 131.267C-33.5466 124.454 -34.5155 117.179 -35.2497 110.095C-36.8565 94.5748 -36.0801 78.8135 -33.0109 63.5096L-32.9989 63.4976Z" fill="#8E1E00"></path><path d="M158.429 198.495C165.946 198.458 173.318 196.021 179.727 192.163C186.136 188.306 192.1 182.613 195.976 175.915C198.112 172.226 199.629 168.206 200.357 164.005L201.019 164.517C196.295 166.701 191.204 167.736 186.185 169C181.165 170.264 175.894 172.063 171.567 175.367C171.103 175.722 170.652 174.934 171.109 174.585C175.358 171.341 180.341 169.56 185.474 168.248C190.608 166.936 195.765 165.955 200.562 163.734C200.935 163.56 201.296 163.843 201.224 164.246C199.894 171.913 195.934 178.912 190.632 184.539C185.234 190.268 178.403 194.715 170.941 197.237C166.915 198.597 162.684 199.373 158.429 199.391C157.845 199.391 157.845 198.488 158.429 198.488V198.495Z" fill="black"></path><path d="M173.409 172.906C174.997 170.294 176.773 167.808 178.325 165.173C179.992 162.35 181.647 159.281 182.135 156.001C182.376 154.388 182.249 152.727 181.461 151.283L181.972 151.487C177.742 153.203 173.776 155.429 169.208 156.157C168.889 156.206 168.546 155.959 168.654 155.604C169.064 154.268 169.599 152.974 170.027 151.644C170.267 150.898 170.7 149.718 170.183 148.996C169.461 147.991 167.403 148.256 166.374 148.346C164.37 148.515 162.462 149.303 160.753 150.326C158.815 151.481 156.973 153.004 155.758 154.93C155.451 155.417 154.668 154.966 154.975 154.472C156.131 152.643 157.798 151.169 159.597 149.983C161.397 148.797 163.539 147.798 165.73 147.509C167.174 147.317 169.298 147.094 170.538 148.081C171.387 148.761 171.387 149.851 171.188 150.825C170.833 152.547 170.039 154.165 169.527 155.845L168.973 155.291C173.535 154.563 177.507 152.336 181.738 150.621C181.918 150.549 182.159 150.669 182.249 150.825C183.754 153.576 183.14 156.831 182.093 159.624C180.835 162.97 178.933 166.039 176.995 169.024C176.057 170.468 175.094 171.889 174.197 173.357C173.896 173.851 173.114 173.399 173.415 172.9L173.409 172.906Z" fill="black"></path><path d="M154.307 154.575C155.631 151.12 156.492 147.473 156.973 143.808C157.485 139.885 157.599 135.81 156.823 131.911C156.42 129.877 155.764 127.897 154.704 126.103L155.216 126.308C150.45 127.397 146.171 129.714 142.398 132.795C138.624 135.877 135.555 139.301 132.317 142.719C131.92 143.14 131.282 142.503 131.679 142.081C135.019 138.549 138.305 134.914 142.115 131.869C145.924 128.823 150.203 126.525 154.975 125.435C155.174 125.393 155.378 125.465 155.487 125.64C157.425 128.926 158.105 132.807 158.243 136.575C158.393 140.685 157.894 144.838 156.973 148.84C156.51 150.868 155.92 152.866 155.18 154.803C154.975 155.339 154.103 155.11 154.307 154.563V154.575Z" fill="black"></path><path d="M131.571 142.28C132.113 140.312 132.407 138.248 132.305 136.208C132.215 134.348 131.691 132.23 130.373 130.827C129.453 129.846 128.508 130.659 127.725 131.399C126.401 132.651 125.204 134.023 123.796 135.191C123.519 135.419 123.001 135.293 123.025 134.872C123.128 133 123.055 129.624 120.317 130.298C118.066 130.851 116.075 132.699 114.486 134.3C113.625 135.166 112.801 136.081 112.115 137.098C111.79 137.58 111.007 137.128 111.332 136.641C112.813 134.45 114.835 132.494 116.989 130.978C118.524 129.895 121.298 128.3 122.929 130.087C124.048 131.315 124.012 133.325 123.922 134.866L123.152 134.547C124.747 133.223 126.04 131.562 127.641 130.256C128.622 129.455 129.772 129.064 130.813 129.991C132.299 131.315 132.967 133.608 133.154 135.515C133.382 137.85 133.057 140.264 132.438 142.514C132.281 143.074 131.415 142.833 131.565 142.274L131.571 142.28Z" fill="black"></path><path d="M110.67 134.908C114.522 125.471 121.19 116.511 121.081 105.919C121.051 103.09 120.479 100.382 119.697 97.674C119.15 95.7843 118.59 93.8044 117.531 92.1314C116.784 90.9519 115.725 90.1154 114.281 90.1695C112.114 90.2478 110.165 91.6981 108.389 92.7693C102.732 96.1695 96.5878 98.9077 91.641 103.361C91.1956 103.758 90.654 103.175 91.003 102.723C92.002 101.447 92.67 99.8827 93.1154 98.3421C93.5607 96.8014 93.8797 95.1043 93.4223 93.5637C92.2909 89.7302 87.314 92.4323 85.2378 93.7503C83.6249 94.7733 82.1083 95.9529 80.6941 97.2347C80.2668 97.6259 79.6229 96.988 80.0562 96.5968C81.4524 95.333 82.9509 94.1595 84.5276 93.1304C86.1946 92.0471 88.0722 90.988 90.0762 90.7292C91.653 90.5246 93.2417 91.0782 93.988 92.5587C94.7763 94.1234 94.5837 96.0552 94.2046 97.7041C93.7472 99.7142 92.9048 101.724 91.6289 103.355L90.991 102.717C95.5707 98.5948 101.156 95.9108 106.445 92.8536C109.292 91.2046 113.86 87.4313 117.146 90.2658C118.439 91.3791 119.125 93.1123 119.691 94.677C120.594 97.1745 121.346 99.8044 121.719 102.434C122.484 107.851 121.412 113.195 119.414 118.232C117.121 124.015 113.896 129.377 111.543 135.136C111.326 135.666 110.453 135.437 110.67 134.896V134.908Z" fill="black"></path><path d="M80.5556 93.7262C82.1805 89.6098 83.4803 85.337 83.9798 80.9258C84.4131 77.0622 84.2085 73.1926 83.4864 69.3772C82.9869 66.7533 82.343 64.1475 81.4643 61.6259C81.0731 60.5005 80.6338 59.3812 80.0621 58.334C79.6468 57.5697 79.1533 56.7152 78.4131 56.2277C76.2045 54.7653 74.6157 59.8987 74.1945 61.1204C74.032 61.5898 73.3158 61.5296 73.3098 61C73.2858 58.6108 73.3098 56.2217 73.1052 53.8385C72.9006 51.4554 72.5456 48.7593 71.1494 46.7372C69.7532 44.7152 67.1955 44.5828 65.1012 45.6841C62.3148 47.1585 60.4252 50.1314 58.9568 52.8155C57.2657 55.9027 55.9237 59.2247 55.009 62.6249C54.8585 63.1846 53.9859 62.9499 54.1363 62.3842C54.9969 59.2006 56.2366 56.0833 57.7532 53.1585C59.2697 50.2337 61.2377 47.0381 64.1083 45.2207C66.1785 43.9087 69.0611 43.4935 71.011 45.2267C72.9608 46.9599 73.4844 49.7342 73.8094 52.1114C74.2186 55.0602 74.1764 58.0331 74.2065 61L73.3219 60.8797C73.8575 59.3391 74.4533 57.7202 75.4583 56.4203C75.9819 55.7402 76.71 55.0843 77.6188 55.0662C79.5807 55.0301 80.7602 57.5938 81.4222 59.0682C82.5897 61.6921 83.3539 64.5025 83.9738 67.3009C84.7983 71.008 85.2617 74.7753 85.0752 78.5788C84.8104 83.8927 83.372 89.0381 81.4282 93.9729C81.2175 94.5086 80.345 94.2738 80.5556 93.7322V93.7262Z" fill="black"></path><path d="M55.3578 57.7022C54.7199 55.6861 54.9125 53.4836 54.8824 51.4013C54.8523 49.4575 54.8342 46.9178 53.1612 45.5939C49.7189 42.8677 45.4039 46.9058 42.9185 49.1144C41.4019 50.4685 39.9155 52.0091 38.1341 53.0202C37.8994 53.1526 37.5263 53.0442 37.4722 52.7494C37.2074 51.4073 37.1472 50.0232 36.9787 48.6691C36.7861 47.1345 36.6056 45.3531 35.7991 43.9991C35.089 42.8075 33.9155 43.1626 32.8503 43.6862C31.3097 44.4505 29.9315 45.5337 28.5835 46.5869C27.3859 47.5257 26.2064 48.645 24.8403 49.3311C24.4792 49.5116 23.9315 49.1084 24.2204 48.7112C30.4611 40.3762 30.7379 28.623 25.1833 19.8607C23.8533 17.7664 22.1803 15.6541 20.1522 14.1977C18.7861 13.2168 17.1371 12.6089 15.446 12.9399C11.9074 13.638 9.40999 17.2609 7.6106 20.0894C5.2455 23.8145 3.47014 27.8466 1.41197 31.7403L0.629593 31.283C1.91746 29.616 4.55943 25.0422 1.3518 23.8506C-2.46966 22.4304 -5.244 26.1435 -6.94109 28.9841C-7.88593 30.5668 -8.67431 32.2338 -9.58905 33.8346C-9.87791 34.3401 -10.6602 33.8827 -10.3714 33.3772C-8.46965 30.0613 -6.97719 26.1014 -3.76957 23.7905C-1.21189 21.949 3.91547 22.2739 3.73493 26.312C3.64466 28.292 2.5915 30.2057 1.40594 31.7343C1.06292 32.1797 0.346741 31.8065 0.623569 31.2769C2.57342 27.5939 4.26453 23.7784 6.4551 20.2218C8.36282 17.1165 10.8724 13.4093 14.5314 12.2418C18.75 10.8938 22.2706 14.4384 24.6116 17.4835C27.8794 21.7323 29.751 26.968 30.0278 32.312C30.3408 38.312 28.6015 44.3481 24.9967 49.1626L24.3769 48.5427C25.7309 47.8627 26.8924 46.7554 28.078 45.8286C29.4922 44.7213 30.9486 43.5598 32.5855 42.8015C33.6748 42.296 35.0529 41.9048 36.0339 42.8376C37.1352 43.8847 37.424 45.7203 37.6587 47.1465C37.9476 48.9159 37.9837 50.7393 38.3327 52.4966L37.6707 52.2258C39.41 51.2388 40.8543 49.7222 42.3408 48.4043C43.9717 46.9539 45.6808 45.4615 47.6667 44.5287C49.3759 43.7283 51.2956 43.4454 53.0047 44.4083C54.9064 45.4795 55.5082 47.4896 55.6888 49.5477C55.9174 52.1475 55.418 54.9339 56.2124 57.4555C56.3869 58.0091 55.5143 58.2498 55.3397 57.6962L55.3578 57.7022Z" fill="black"></path><path d="M175.641 191.116C179.246 191.411 182.833 192.158 186.305 193.126C190.193 194.21 194.201 195.606 197.547 197.923C199.015 198.94 200.399 200.18 201.23 201.786C201.495 202.304 200.718 202.761 200.448 202.244C198.907 199.253 195.459 197.508 192.504 196.226C188.839 194.643 184.933 193.572 181.015 192.801C179.24 192.452 177.441 192.164 175.635 192.019C175.057 191.971 175.057 191.068 175.635 191.116H175.641Z" fill="black"></path></svg> 