<?xml version="1.0" encoding="UTF-8"?> <svg xmlns="http://www.w3.org/2000/svg" width="257" height="425" viewBox="0 0 257 425" fill="none"><path d="M255.83 326.73L253.69 278.05L252.85 193.29L250.17 102.22C250.17 102.22 251.8 77.38 237.4 66.94C223 56.5 206.29 53.54 206.29 53.54C206.29 53.54 204.99 49.5 205.99 48.5C206.99 47.5 206.49 38.22 206.49 38.22L208.91 36.26C209.14 35.53 209.41 34.81 209.7 34.13C209.28 32.83 208.66 31.53 208.41 30.43C207.82 27.76 207.79 25.14 208.64 22.52C208.7 22.32 208.78 22.14 208.86 21.96C208.94 21.42 209.04 20.89 209.15 20.35C209.22 20.03 209.31 19.74 209.42 19.46C209.42 19.4 209.42 19.35 209.41 19.29C208.87 18.45 208.58 17.48 208.7 16.46C208.79 15.68 208.8 14.9 208.8 14.12C208.8 14.07 208.8 14.03 208.8 13.98C208.8 12.66 208.79 11.35 209.1 10.05C209.13 9.71 209.17 9.37 209.18 9.03C209.19 8.74 209.2 8.43001 209.18 8.13C208.25 7.86 207.2 7.56999 206.04 7.25999C205.13 7.51999 204.09 7.51001 202.92 7.10001C196.11 4.71001 188.35 5.15 181.21 5.03C173.83 4.91 166.55 4.73 159.26 3.53C157.84 3.3 156.83 2.67 156.18 1.83C149.54 2.26 142.77 3.01001 136.28 1.74001C135.42 1.57001 134.71 1.26001 134.14 0.850006C129.75 1.20001 125.26 1.06 120.91 1.7C114.37 2.67 107.89 3.85 101.25 3.72C100.23 3.7 99.3701 3.45 98.6401 3.05C95.0101 3.41 91.37 3.37001 88.12 2.21001C82.46 2.67001 76.7701 2.24 71.3201 4.16C69.8001 4.7 68.4801 4.56 67.4201 4.02C64.1401 4.68 60.85 5.27 57.53 5.66C56.43 6.11 55.32 6.53 54.19 6.88C53.01 7.24001 51.6501 7.51 50.3901 7.95C50.6601 8.58 50.83 9.26 50.87 9.94C50.89 10.66 50.98 11.38 51.05 12.1C51.36 12.77 51.53 13.51 51.5 14.28C51.45 15.67 51.2601 17.12 50.7901 18.43C50.73 18.59 50.65 18.73 50.58 18.89C50.76 19.19 50.9201 19.49 51.0401 19.83C51.5 21.15 51.82 22.51 51.88 23.9L52.41 23.99L50.31 31.02L51.7301 35.77C51.7301 35.77 54.26 37.79 54.62 42.64C54.98 47.49 53.43 52.51 53.43 52.51C53.43 52.51 21.94 65.74 14.96 69.62C13.77 70.28 12.6901 74.32 11.7001 80.57C11.6801 80.6 11.6601 80.62 11.6401 80.65C10.7801 82.07 10.1901 83.59 9.76005 85.15C9.63005 85.31 9.53004 85.52 9.47004 85.77C8.76004 89.2 8.35004 92.68 8.03004 96.16C7.28004 99 6.79004 101.89 6.56004 104.82C6.53004 105.24 6.70005 105.58 6.98005 105.83C6.37005 109.46 6.31006 113.13 6.42006 116.8C6.22006 119.4 6.02005 121.99 5.82005 124.59C5.76005 125.37 6.22005 125.83 6.79005 125.97C6.86005 127.72 6.93005 129.46 7.01005 131.21C7.02005 131.45 7.08006 131.66 7.17006 131.84C5.34006 163.13 4.41005 194.47 4.41005 194.47L2.12004 293.29C2.12004 293.29 -0.749962 360.05 2.12004 369.76C4.99004 379.46 3.67003 390.64 23.83 407.55C43.99 424.46 93.6 419.87 94.8 421.17C95.99 422.47 208.99 418.98 208.99 418.98C208.99 418.98 242.8 410.61 249.39 386.04C255.99 361.47 254.64 348.49 254.64 348.49L255.82 326.7L255.83 326.73Z" fill="#839496"></path><path d="M46.4701 91.44C42.5001 91 20.5801 97 20.5801 97C20.5801 97 26.6601 145.24 28.0801 147.62C29.5001 150 29.5001 170 29.5001 171C29.5001 172 31.9001 183.7 33.7001 184.35C35.5001 185 37.4401 186.15 36.4701 185.58C35.5001 185.01 21.9101 181.33 17.7001 181.67C13.4901 182.01 -0.239931 184.98 2.13007 183.49C4.50007 182 5.44007 314.65 5.44007 314.65C5.44007 314.65 30.7101 314.99 30.6001 316.49C30.4901 317.99 23.2601 332.76 19.3701 341.88C15.4801 351 17.8201 365.07 24.1501 374.03C30.4801 382.99 50.4901 372 56.4901 364C62.4901 356 86.4901 341 92.4901 340C98.4901 339 119.77 340.77 118.63 341.88C117.49 342.99 106.49 329 106.49 329C106.49 329 126.09 329.29 126.29 331.65C126.49 334.01 122.49 337 135.49 343C148.49 349 158.58 352.28 162.03 351.14C165.48 350 166.2 344.61 166.2 344.61C166.2 344.61 183.25 358.93 187.37 358.96C191.49 358.99 217.68 346.25 220.58 345.62C223.48 344.99 234.48 345.99 238.48 346.99C242.48 347.99 247.24 353.07 247.24 353.07L254.31 334.04L253.77 246.64C253.77 246.64 244.48 238.04 239.98 238.52C235.48 239 220.67 240.66 220.58 240.33C220.49 240 217.52 242.14 217.52 242.14L216.64 236.01L231.49 234L247.25 228.45L246.49 222C246.49 222 243.04 205.6 242.77 204.3C242.5 203 232.56 203.83 232.56 203.83L229.5 206.01C229.5 206.01 249.25 160.18 247.88 151.6C246.51 143.02 229.54 116.97 227.02 114.49C224.5 112.01 222.28 109.98 222.28 109.98C222.28 109.98 232.64 103.54 232.57 103.78C232.5 104.02 233.94 99.28 233.94 99.28C233.94 99.28 219.81 77.1 216.66 76.56C213.51 76.02 208.51 78.46 206.51 79.74C204.51 81.02 194.73 87.63 194.73 87.63C194.73 87.63 190.66 86.99 187.58 85.5C184.5 84.01 167.04 81.61 164.77 81.82C162.5 82.03 149.5 81.02 148.5 81.02C147.5 81.02 144 81.82 144 81.82L136.51 98.85C136.51 98.85 102.5 74.02 101.5 73.02C100.5 72.02 76.3901 91.9 75.4501 91.46C74.5101 91.02 65.1801 104.96 64.3401 105.99C63.5001 107.02 51.4101 105.01 51.4101 105.01L46.7401 90.42L46.4801 91.47L46.4701 91.44Z" fill="#A3D880"></path><path d="M242.88 373.92C243.12 371.1 242.61 368.24 241.17 365.63C240.09 363.67 238.46 361.93 236.53 360.69C236.49 360.65 236.46 360.61 236.41 360.57C233.57 357.82 229.5 356.7 226.19 357.74C225.48 357.54 224.71 357.5 223.94 357.62C223.78 357.65 223.64 357.69 223.49 357.72C222.49 356.82 221.08 356.34 219.81 356.85C214.15 359.11 209.09 363.63 209.28 370.18C208.91 369.84 208.46 369.56 207.91 369.36C204.25 368.02 200.55 369.08 197.15 371.12C196.29 371.54 195.46 372.07 194.65 372.69C194.53 372.69 194.41 372.66 194.29 372.66C190.76 372.73 187.7 374.42 185.73 377.09C185.7 377.09 185.68 377.1 185.65 377.11C184.66 377.38 183.96 377.89 183.5 378.51C183.3 378.61 183.11 378.72 182.91 378.82C184.04 377.01 183.52 374.43 181.92 373.22C180.71 370.58 179.17 368.09 177.09 366.04C174.52 363.49 170.37 362.01 167.12 364.11C165.58 363.67 164.05 363.5 162.55 363.55C162.44 363.53 162.34 363.5 162.22 363.49C157.26 362.99 152.37 364.4 149.28 367.83C149.11 367.91 148.93 367.99 148.76 368.07C147.16 368.82 146.65 370.33 146.86 371.8C145.99 370.67 144.57 370.02 142.85 370.6C142.65 370.67 142.46 370.75 142.26 370.82C141.74 369.56 140.62 368.52 139.27 368.2C139.18 368.13 139.1 368.05 139.01 367.98C137.65 364.84 136.26 361.52 134.18 359.03C131.58 355.92 127.82 355.58 124 355.81C122.46 355.9 120.95 356.1 119.46 356.37C117.45 355.71 115.1 355.6 112.79 355.92C107.17 356.71 102.37 360.04 99.45 364.88C98.89 365.81 98.77 366.71 98.93 367.53C95.51 367.06 92.07 367.16 88.73 367.85C88.33 367.86 87.92 367.95 87.52 368.13C84.15 368.98 80.91 370.44 77.92 372.54C77.68 372.52 77.45 372.49 77.21 372.48C73.59 372.22 69.98 372.2 66.38 372.78C60.78 373.68 55.52 376.13 51.75 380.37C49.43 381.12 47.24 382.14 45.38 383.6C44.23 382.81 43.08 382.11 41.92 381.54C38.76 379.97 33.32 378.68 29.04 379.44C28.39 373.93 23.91 370.11 19.85 366.8C17.5 364.88 15.07 363.07 12.63 361.27C11.73 360.61 10.61 359.52 9.43998 359.78C6.93998 359.05 3.82999 361.14 4.31999 364.61C4.46999 365.68 4.64999 366.74 4.84999 367.79C4.67999 368.42 4.66998 369.14 4.93998 369.95C6.89998 375.97 8.64999 382.12 11.13 387.95C12.8 391.87 14.94 397.13 19.53 398.18C19.83 398.25 20.13 398.26 20.43 398.25C21.41 399.27 22.59 400.16 23.7 400.92C23.96 401.15 24.23 401.37 24.49 401.6C30.76 411.32 44.4 413.91 55.4 412.59C56.23 412.49 56.91 412.19 57.47 411.76C63.8 414.36 72.11 411.28 78.4 410.01C79.06 409.88 79.59 409.62 80.02 409.28C83.14 410.95 86.01 408.1 85.9 405.37C87.08 404.94 88.06 404.02 88.27 402.73C88.35 402.26 88.43 401.79 88.53 401.32C88.94 401.2 89.33 401.01 89.71 400.72C89.82 401.24 90.02 401.75 90.31 402.27C92.46 406.05 95.65 405.69 98.91 403.54C100.41 404.28 102.04 404.35 103.71 403.93C107.19 406.35 111.07 404.79 114.5 401.79C123.34 402.9 132.18 404.02 141.02 405.13C142.55 405.32 143.67 404.51 144.32 403.35C147.18 403.35 150.03 403.28 152.89 403.16C153.31 404.73 154.51 406.13 156.51 406.37C167.93 407.74 179.34 407.16 190.56 404.82C189.75 407.21 189.99 409.55 192.15 411.49C194.28 413.4 196.97 412.49 198.28 410.72C200.05 411.22 202.1 411.05 203.97 410.78C213.42 409.42 223.9 406.08 231.04 399.44C232.98 397.64 234.11 395.1 232.52 392.83C233.55 392.23 234.21 391.23 234.47 390.14C235.4 390.16 236.35 389.8 237.18 388.88C240.71 384.97 243.58 379.29 242.88 373.95V373.92ZM13.28 366.24C13.17 365.89 13.06 365.55 12.94 365.21C13.5 365.63 14.07 366.05 14.62 366.47C16.43 367.84 18.2 369.26 19.91 370.75C21.09 371.78 22.37 372.91 23.45 374.18C20.14 371.43 16.74 368.79 13.27 366.24H13.28ZM167.39 386.74C170.47 384.97 173.6 383.34 176.8 382C173.68 383.6 170.54 385.18 167.39 386.74ZM208.33 388.13C208.36 388.22 208.4 388.31 208.44 388.4C208.02 388.81 207.73 389.28 207.55 389.78C206.85 390.06 206.16 390.35 205.48 390.67C206.47 389.9 207.41 389.03 208.33 388.14V388.13Z" fill="#545951"></path><path d="M59.16 405.96C58.04 399.91 55.04 389.19 48.41 386.57C48.35 386.05 48.18 385.53 47.88 385.06C45.67 381.62 41.1 379.64 37.15 381.25C36.33 381.58 35.59 382.13 35.04 382.8C32.69 382.67 30.49 383.36 28.72 385.26C27 386.12 25.46 387.44 24.3 388.98C21.96 389.64 20.19 392.08 21.96 394.61C22.01 394.68 22.07 394.75 22.12 394.83C22.15 395.78 22.5 396.54 23.05 397.06C23.4 398.19 23.94 399.28 24.59 400.26C28.5 406.15 35.15 410.04 42.08 411.07C42.88 411.19 43.6 411.09 44.24 410.85C47.23 411.75 50.36 412.33 53.59 412.57C55.49 412.71 56.68 411.7 57.17 410.36C58.55 409.57 59.53 408.02 59.15 405.97L59.16 405.96Z" fill="#EA8C26"></path><path d="M242.29 370.53C241.8 367.95 240.83 365.58 239.24 363.88C238.88 363.01 238.49 362.19 238.1 361.44C236.42 358.27 233.17 356.88 229.68 357.36C227.99 357.59 226.56 358.17 225.37 358.98C222.33 359.06 219.45 359.66 216.62 360.73C216.03 360.51 215.42 360.33 214.79 360.18C214.31 360.77 213.8 361.34 213.29 361.89C212.95 362.25 212.64 362.59 212.34 362.92C211.93 363.91 211.42 364.8 210.69 365.67C210.4 366.01 210.07 366.27 209.7 366.45C210.34 367.18 211.24 367.7 212.44 367.8C212.51 367.8 212.58 367.82 212.65 367.83C212.61 369.86 213.89 371.94 216.51 371.98C217.04 371.98 217.6 371.99 218.17 372.01C218.75 372.92 219.28 373.86 219.78 374.75C221.03 376.98 220.46 376.01 220.65 377.87C220.76 378.97 220.3 379.45 220.65 380.59C222.23 385.76 229.74 384.96 232.98 388.1C235.33 390.38 238.55 389.06 239.67 386.34C239.72 386.21 239.77 386.07 239.82 385.94C240.39 385.24 240.85 384.42 241.18 383.59C242.08 381.32 242.65 378.3 242.69 375.2C242.8 374.51 242.9 373.81 242.99 373.11C243.11 372 242.82 371.15 242.31 370.53H242.29Z" fill="#EA8C26"></path><path d="M84.4 328.6C85.74 326.29 87.39 324.61 89.28 323.41C88.77 323.32 88.26 323.23 87.75 323.15C86.93 324.57 85.38 325.63 83.36 325.34C78.22 324.59 73.16 322.87 67.98 322.48C63.87 322.17 60.06 322.21 56.18 320.83C51.08 320.94 46.7 321.16 45 321.5C40 322.5 29 324.5 22.46 337.22C15.92 349.94 19 362.5 27.24 366.35C35.47 370.21 32.01 372.49 44.94 362.64C57.87 352.79 73 338.5 77.62 335.65C78.98 334.81 80.61 333.77 82.72 332.83C83.06 331.36 83.64 329.91 84.4 328.59V328.6Z" fill="#52A020"></path><path d="M52.17 287.58C51.37 278.89 51.04 270.67 50.68 269.26C49.99 266.51 38.99 270.51 38.99 271.51C38.99 271.91 39.14 274.75 39.29 278C44.8 278.71 49.62 282.48 52.16 287.59L52.17 287.58Z" fill="#52A020"></path><path d="M118.64 314.65C118 313.5 80.24 317.59 77.62 318.05C75 318.51 60.13 315.69 56.07 308.1C55.33 306.71 54.7 304.62 54.17 302.13C53.85 305.06 53.19 307.97 52.29 310.79C52.11 313.04 51.83 314.6 51.5 315.63C60.98 315.96 104.52 322.32 104.52 322.32C104.52 322.32 107.01 318.89 112.01 317.7C117.01 316.51 119.29 315.8 118.65 314.65H118.64Z" fill="#52A020"></path><path d="M127 324.5C129 321.5 145.09 311.8 162.04 325.65C179 339.5 178.15 345.72 187.57 344.61C196.99 343.5 220.59 334.05 220.59 334.05C220.59 334.05 212.74 325.99 224.87 315.74C237 305.49 245.44 311.22 245.44 311.22C245.44 311.22 250.06 255.11 249.53 253.8C249 252.49 235.62 254.5 230.81 249.5C226 244.5 220.19 249.5 220.6 249.5C221.01 249.5 217.54 249.5 217.54 249.5C217.54 249.5 213.01 279.38 214.51 278.44C216.01 277.5 202.01 313.5 201.01 313.5C200.01 313.5 195.89 314.65 195.89 314.65C195.89 314.65 154.81 313.1 147.41 314.3C140.01 315.5 127.32 317.7 127.32 317.7L127 324.5Z" fill="#52A020"></path><path d="M131.74 334.05C132 334.5 150.51 344.72 156.25 344.61C161.99 344.5 164.08 344.61 164.08 344.61C164.08 344.61 152.76 336.61 146.38 334.05C140 331.49 138.02 331.79 136.51 331.64C135 331.49 131.61 331.64 131.61 331.64V335.65L131.74 334.05Z" fill="#52A020"></path><path d="M68.77 304.97C73 311.5 77 260.5 76 254.5C75 248.5 75.4501 237.07 75.4501 237.07C75.4501 237.07 58.2801 232.87 54.6401 231.68C51.0001 230.49 64.55 298.43 68.78 304.96L68.77 304.97Z" fill="#52A020"></path><path d="M27.27 285.21C27.88 284.6 28.54 284.06 29.26 283.62C28.18 262.25 25.87 227.47 24.51 207.61C23.93 207.7 23.33 207.72 22.71 207.67C18.47 207.36 15.19 203.95 13.25 200.41C11.9 197.94 10.97 194.9 10.77 191.95C8.47002 192.35 6.23002 193.13 4.43002 194.49L4.29004 302.11C4.29004 302.11 11.24 301.93 17.87 301.86C18.27 298.02 20.1 293.94 21.63 291.32C22.99 288.99 24.84 286.55 27.28 285.21H27.27Z" fill="#52A020"></path><path d="M80 316.49C81 315.5 80.27 298.65 123.64 287.57C167.01 276.49 184.37 301.58 184.68 305.54L185 309.5C185 309.5 190.64 309.59 191.32 309.54C192 309.49 204.17 303.39 204.09 280.94C204.01 258.49 205.21 241.49 204.61 240.49C204.01 239.49 186.11 218.94 186.56 221.21C187.01 223.48 183.01 233.49 182.01 231.49C181.01 229.49 151.61 216.56 149.81 217.02C148.01 217.48 135.28 211.75 135.28 211.75C135.28 211.75 135.22 209.28 133.12 209.88C131.02 210.48 93.8 215.77 93.8 215.77C93.8 215.77 86.63 217.99 86.82 218.24C87.01 218.49 81.9 305.47 75.46 316.48H80.01L80 316.49Z" fill="#52A020"></path><path d="M101.79 146C101.79 146 92 134.5 85.12 128.47C78.24 122.44 64.34 119.29 64.34 119.29C64.34 119.29 61 118.5 61.28 114.48C61.56 110.46 28 107.5 24.85 107.7L22.47 109.97L25.57 125.27C39.73 127.21 44.84 147.05 47.1 158.84C48.97 168.61 50.08 179.72 45.57 188.95C44.1 191.97 41.46 196.06 38.24 199.22C39.58 206.99 40.88 214.77 40.77 215.02C40.54 215.52 46 215.52 48.34 215.81C50.68 216.1 52 217.52 59.07 221.25C66.14 224.97 75 226.53 75 226.53V211.53L99 168.53L95.66 160.13C92.32 151.73 101.79 146.03 101.79 146.03V146Z" fill="#52A020"></path><path d="M173.62 186.65L188.29 208.1C188.29 208.1 194.17 196.53 204.09 203.02C214.01 209.51 211.41 205.38 211.41 205.38C211.41 205.38 238.01 158.51 237.01 158.51C236.01 158.51 228.31 145.45 231.16 137.98C234.01 130.51 234.21 133.25 234.21 133.25L209.52 109.98L204.79 110.53C204.79 110.53 188.02 127.52 189.02 127.52C190.02 127.52 183.42 175.62 182.22 177.07C181.02 178.52 177.68 189.39 177.68 189.39L173.64 186.67L173.62 186.65Z" fill="#52A020"></path><path d="M72.17 112.62C74 110.5 103.38 84.71 105.19 85.61C107 86.51 132.36 108.32 132.36 108.32C132.36 108.32 136.54 109.44 135.27 109.97C134 110.5 136.22 94.38 140.11 91.94C144 89.5 176.41 93.62 177.7 94.56C178.99 95.5 170.55 177.05 170.55 177.05C170.55 177.05 133.58 171.52 130.79 172.01C128 172.5 111 170.5 111 170.5L110.3 167.09L117.58 149.54C117.58 149.54 118.16 148.74 117.58 147.62C117 146.5 101.78 134.76 101.78 134.76C101.78 134.76 103.57 131.13 101.78 131.32C99.99 131.51 72.16 112.62 72.16 112.62H72.17Z" fill="#52A020"></path><path d="M105.95 181.63C107 186.5 103.9 198 105.95 197.25C108 196.5 135.27 195.69 135.27 195.69C135.27 195.69 154.05 211.01 154.52 209.25C154.99 207.49 147.85 191.95 147.85 191.95L154.55 183.48L123.64 177.04L105.24 180.16L105.96 181.63H105.95Z" fill="#52A020"></path><path d="M221 220.5C221.17 220.33 221.78 219.9 222.65 219.33C226.79 216.61 237.02 210.45 237.02 210.45C237.02 210.45 242.54 204.1 242.77 204.3C243 204.5 228.99 205.5 229.49 206C229.99 206.5 220.99 220.5 220.99 220.5H221Z" fill="#52A020"></path><path d="M195.5 97C197 95.5 210.81 85.67 211.4 85.58C211.99 85.49 223.83 94.5 226.92 97C230.01 99.5 229.53 101.24 228.77 102.37C228.01 103.5 221 107.69 221 107.69C221 107.69 210.38 100.44 209.69 101.47C209 102.5 191.64 123.51 191.32 122.01C191 120.51 195.5 97 195.5 97Z" fill="#52A020"></path><path opacity="0.25" d="M37.45 215C37 219.5 38.89 312.22 38.89 312.22C38.89 312.22 53.28 311.95 54.64 310.22C56 308.49 49.03 256.44 48.02 253.97C47.01 251.5 46.21 243.44 54.11 253.97C62.01 264.5 64.46 304.59 66.73 305.55C69 306.51 75.9 237.65 75.45 237.08C75 236.51 62.28 232.76 54.64 228.13C47 223.5 46.18 210.09 45.59 204.3C45 198.51 40.18 190.95 45.59 193.23C51 195.51 59.5 200.01 59.25 197.26C59 194.51 65.68 131.98 64.34 133.24C63 134.5 52.18 166.14 45.59 169.32C39 172.5 32 171.67 32 171.67C32 171.67 40 182.8 39 186.65C38 190.5 37.45 215 37.45 215Z" fill="black"></path><path opacity="0.25" d="M33.7 323.84C28 330.5 17.13 336.54 19.06 348.52C20.99 360.5 41.44 355.35 66.72 338.92C92 322.5 117.33 329.29 115.66 329.39C113.99 329.49 68.26 321.55 54.63 322.02C41 322.49 33.7 323.83 33.7 323.83V323.84Z" fill="black"></path><path opacity="0.25" d="M153.19 316.49C160 316.49 171.18 338.72 172.09 344.61C173 350.5 177.2 355.66 191.1 355.08C205 354.5 221 342.81 223.5 335.66C226 328.51 234.78 240.55 231.89 241.53C229 242.51 217.53 240.51 217.53 240.51C217.53 240.51 211.43 282.02 206.96 296.02L202.5 310.01L188.29 313.12L153.19 316.5V316.49Z" fill="black"></path><path opacity="0.25" d="M185.8 216.61C181.62 212.58 177.44 208.55 173.27 204.52C171.54 202.85 169.74 201.21 167.98 199.53L160.76 191.38C160.49 191.08 160.2 190.86 159.89 190.68C159.86 189.97 159.62 189.21 159.33 188.71C158.84 187.88 157.89 187.09 156.94 186.87C155.92 186.64 154.77 186.69 153.86 187.27C152.92 187.87 152.45 188.64 152.02 189.66C151.94 189.84 151.89 190.04 151.83 190.23C151.2 190.98 150.92 192 151.23 193.22C151.19 193.87 151.18 194.53 151.26 195.16C151.37 196.07 151.57 196.86 152.09 197.56C152.08 198.24 152.29 198.97 152.8 199.71C154.74 202.53 156.7 205.33 158.78 208.04C159.25 208.71 159.74 209.36 160.24 210.01C159.9 211.48 160.35 213.11 162.07 214.14C162.71 214.53 163.35 214.91 163.99 215.3C161.36 216.58 160.19 220.53 163.52 222.22C167.53 224.24 171.53 226.27 175.54 228.29C176.61 228.83 177.65 228.86 178.56 228.58C178.81 228.67 179.06 228.78 179.31 228.87C181.42 229.65 183.24 228.25 184 226.44C184.21 226.14 184.39 225.81 184.54 225.46C184.82 224.8 185.09 224.13 185.37 223.47C185.56 223.01 185.66 222.57 185.68 222.16C187.22 220.82 187.79 218.5 185.82 216.6L185.8 216.61Z" fill="black"></path><path opacity="0.25" d="M127.32 91.94C125 96.5 101.25 108.46 99.13 114.48C97.01 120.5 84.76 123.9 87.88 122.7C91 121.5 117.17 143.5 117.59 146C118.01 148.5 119.16 149.54 119.16 149.54L120.52 154L107.35 176.42C107.35 176.42 94.25 193.42 99.13 191.96C104.01 190.5 129.59 184.18 130.8 185.34C132.01 186.5 147.86 191.96 147.86 191.96L153.87 187.26C153.87 187.26 131.6 180.75 130.8 180.62C130 180.49 125.01 147.61 125.01 147.61C125.01 147.61 127.7 125.76 128.35 121.63C129 117.5 136.03 104.44 136.52 101.47C137.01 98.5 127.33 91.93 127.33 91.93L127.32 91.94Z" fill="black"></path><path opacity="0.09" d="M255.14 327.73L253 279.05L252.16 194.29L249.48 103.22C249.48 103.22 251.11 78.38 236.71 67.94C222.31 57.5 205.6 54.54 205.6 54.54C205.6 54.54 204.3 50.5 205.3 49.5C206.3 48.5 205.8 39.22 205.8 39.22L208.74 36.84C209 35.91 209.33 35 209.69 34.13C209.27 32.83 208.65 31.53 208.41 30.42C208.35 30.13 208.29 29.85 208.24 29.56L207.31 27.8L208 27.4C207.93 25.76 208.12 24.14 208.64 22.51C208.7 22.31 208.78 22.13 208.86 21.95C208.94 21.41 209.04 20.88 209.15 20.34C209.22 20.02 209.31 19.73 209.42 19.45C209.42 19.38 209.41 19.32 209.4 19.25C208.87 18.42 208.57 17.46 208.69 16.45C208.78 15.67 208.79 14.89 208.79 14.11C208.79 14.06 208.79 14.02 208.79 13.97C208.79 12.66 208.78 11.36 209.08 10.07C209.1 9.82001 209.13 9.57 209.15 9.31C205.62 8.28 200.17 6.81 193.15 5.27C189.15 4.99 185.09 5.09 181.21 5.02C173.83 4.9 166.55 4.72 159.26 3.52C157.84 3.29 156.83 2.66001 156.18 1.82001C149.54 2.25001 142.77 3 136.28 1.73C135.42 1.56 134.71 1.25 134.14 0.839996C129.75 1.19 125.26 1.05 120.91 1.69C114.37 2.66 107.89 3.84001 101.25 3.71001C100.23 3.69001 99.37 3.43999 98.64 3.03999C95.01 3.39999 91.37 3.36 88.12 2.2C82.46 2.66 76.77 2.22999 71.32 4.14999C69.8 4.68999 68.48 4.54999 67.42 4.00999C64.15 4.66999 60.86 5.25999 57.55 5.64999C56.44 6.09999 55.33 6.52 54.18 6.88C53 7.24001 51.65 7.51 50.39 7.94C50.65 8.58 50.82 9.25 50.86 9.94C50.88 10.66 50.97 11.38 51.04 12.1C51.35 12.77 51.52 13.51 51.49 14.28C51.44 15.67 51.25 17.12 50.78 18.43C50.72 18.59 50.64 18.73 50.57 18.89C50.75 19.19 50.91 19.49 51.03 19.83C51.61 21.5 51.99 23.23 51.87 25C51.79 26.18 51.39 27.23 50.79 28.09L49.62 32.02L51.04 36.77C51.04 36.77 53.57 38.79 53.93 43.64C54.29 48.49 52.74 53.51 52.74 53.51C52.74 53.51 21.25 66.74 14.27 70.62C13.08 71.28 12 75.32 11.01 81.57C10.99 81.6 10.97 81.62 10.95 81.65C10.09 83.07 9.49999 84.59 9.06999 86.15C8.93999 86.31 8.83998 86.52 8.77998 86.77C8.06998 90.2 7.65998 93.68 7.33998 97.16C6.58998 100 6.09998 102.89 5.86998 105.82C5.83998 106.24 6.00999 106.58 6.28999 106.83C5.67999 110.46 5.61999 114.13 5.72999 117.8C5.52999 120.4 5.32999 122.99 5.12999 125.59C5.06999 126.37 5.52999 126.83 6.09999 126.97C6.16999 128.72 6.23999 130.46 6.31999 132.21C6.32999 132.45 6.38999 132.66 6.47999 132.84C4.64999 164.13 3.71998 195.47 3.71998 195.47L1.42997 294.29C1.42997 294.29 -1.44003 361.05 1.42997 370.76C4.29997 380.46 2.98 391.64 23.14 408.55C43.3 425.46 92.91 420.87 94.11 422.17C95.3 423.47 208.3 419.98 208.3 419.98C208.3 419.98 242.11 411.61 248.7 387.04C255.3 362.47 253.95 349.49 253.95 349.49L255.13 327.7L255.14 327.73Z" fill="#8FBFC1"></path><path opacity="0.37" d="M229.08 98.91C229.23 88.46 223.13 78.26 215.32 78.55C214.34 78.59 213.38 78.75 212.43 79.04C210.28 72.41 206.04 67.37 200.24 67.58C193.11 67.84 184.98 76.04 185.46 87.21C188.6 160.77 192.78 234.4 193.88 308.14C194.19 328.88 194.15 349.63 193.64 370.38C193.38 380.84 199.68 391.03 207.4 390.74C215.14 390.45 221.91 382.32 222.18 371.11C222.21 369.76 222.23 368.4 222.26 367.05C228.01 364.49 232.28 357.48 232.63 348.47C235.8 265.11 227.92 182.22 229.08 98.91Z" fill="white"></path><path opacity="0.3" d="M54.64 19.97C58 19.5 106.01 17.53 125.01 15.52C144.01 13.51 204.78 23.53 204.78 23.53C204.78 23.53 205.22 27.6 200.61 27.55C196 27.5 107.09 26.46 98.05 26.48C89.01 26.5 81.75 34.39 89.88 33.95C98.01 33.51 157.3 32.73 171.65 33.12C186 33.51 195.89 34.15 195.89 34.15L198.2 55.01C198.2 55.01 206.5 66.68 200.25 67.6C194 68.52 99.94 68.79 75.47 89.15C51 109.51 70.34 345.28 72.17 377.4C74 409.52 177.84 415.43 177.84 415.43C177.84 415.43 40 438.52 18 392.52C-4.00003 346.52 7.14996 140.57 7.14996 140.57C7.14996 140.57 6.39998 81.92 18.2 71.72C30 61.52 56.01 56.56 56.01 56.56V36.35L53.73 28.96L54.63 19.99L54.64 19.97Z" fill="black"></path><path d="M180.77 81.41C195 75.5 194.15 306.87 194.08 334.69C194.01 362.51 194.11 381.72 194.11 381.72L204.79 373.28C204.79 373.28 200.45 98.68 197.73 85.59C195.01 72.51 177.85 75.21 177.85 75.21L181.01 82.51L180.78 81.42L180.77 81.41Z" fill="#FFD400"></path><path d="M59.5 8.5C59.68 8.5 59.84 8.47 60.02 8.44C61.52 8.19 61.38 5.89 60.02 5.55C58.98 5.29 57.64 5.59999 56.63 5.80999C54.81 6.17999 53.02 6.95999 51.68 8.27999C51.1 8.84999 50.47 9.51 50.27 10.32C50.01 11.37 50.32 12.76 50.48 13.81C50.63 14.8 51.3 16.06 50.7 16.92C50.1 17.78 49.52 18.61 49.55 19.75C49.58 20.81 50.08 21.74 50.59 22.65C51.24 23.81 51.36 24.82 51.25 26.16C51.15 27.37 50.87 28.78 50.28 29.86C49.8 30.72 49.15 31.38 48.92 32.38C48.69 33.38 48.85 34.6 49.36 35.5C49.8 36.28 50.48 36.62 51.12 37.17C52.3 38.19 52.55 40.4 52.74 41.84C53.36 46.48 52.9 51.26 52.54 55.9L54.44 54.45L54.21 54.36L55.31 55.81C55.31 55.81 55.31 55.14 55.22 54.85C54.61 53.03 51.71 53.81 52.33 55.65C52.38 55.2 52.38 55.14 52.33 55.47C52.3 55.58 52.3 55.7 52.31 55.81C52.34 56.55 52.77 56.99 53.41 57.26L53.64 57.35C54.61 57.76 55.47 56.76 55.54 55.9C55.84 52.06 56.14 48.2 55.95 44.34C55.79 41.09 55.51 36.66 52.63 34.58C51.06 33.45 52.34 32.4 53 31.11C54.1 28.95 54.5 26.11 54.18 23.72C54.04 22.71 53.57 21.85 53.08 20.98C52.52 19.98 52.41 19.61 53.1 18.67C54.55 16.7 53.57 14.72 53.34 12.51C53.29 12.04 53.11 11.45 53.18 10.98C53.17 11.06 52.93 11.46 53.26 11C53.41 10.79 53.61 10.59 53.79 10.41C54.43 9.78 55.23 9.35 56.08 9.07C56.83 8.82 57.61 8.63999 58.4 8.55999C58.67 8.52999 58.95 8.53999 59.22 8.50999C59.47 8.47999 59.83 8.62 59.21 8.46V5.57C59.58 5.53 59.67 5.52 59.49 5.52C57.56 5.54 57.56 8.54 59.49 8.52L59.5 8.5Z" fill="black"></path><path d="M197.5 5.5C197.07 5.52 196.69 5.65 196.38 5.95C195.77 6.53 195.85 7.47001 196.38 8.07001C196.91 8.67001 198.13 8.73999 198.84 8.89999C200.23 9.19999 201.62 9.50001 203 9.82001C204.19 10.1 205.39 10.58 206.58 10.79C206.25 10.73 206.6 10.71 206.64 10.84C206.15 9.31 205.98 10.16 206.26 10.7C206.34 10.85 206.51 11.08 206.61 11.18C206.64 11.21 207.04 11.55 207.06 11.54L206.75 10.97C206.75 11.11 206.75 11.25 206.72 11.39C206.48 11.97 206.59 12.83 206.48 13.45C206.28 14.62 205.76 15.89 206.01 17.09C206.11 17.59 206.35 18.03 206.64 18.44C206.88 18.77 207.34 19.17 207.39 19.6C207.48 20.44 206.52 21.49 206.19 22.22C205.63 23.46 205.58 24.83 205.68 26.17C205.78 27.51 206.07 28.96 206.57 30.27C206.92 31.2 207.68 31.93 208.01 32.83C208.29 33.61 207.97 34.09 207.38 34.53C206.51 35.18 205.93 35.8 205.45 36.78C203.04 41.73 203.57 47.7 203.98 53.02C204.04 53.81 204.62 54.55 205.48 54.52C205.4 54.52 205.07 54.39 205.4 54.53C205.54 54.59 205.7 54.62 205.84 54.67C206.31 54.83 206.77 55.01 207.23 55.19C208.55 55.7 209.85 56.22 211.16 56.74C212.34 57.21 213.52 57.68 214.72 58.1C215.48 58.37 216.48 58.8 217.25 58.31C218.87 57.27 217.37 54.67 215.74 55.72C215.79 55.69 216.64 55.41 216.68 55.57C216.68 55.55 216.53 55.54 216.51 55.53C216.39 55.46 216.18 55.43 216.05 55.39C215.6 55.25 215.16 55.08 214.72 54.92C213.48 54.46 212.25 53.96 211.02 53.48C209.87 53.02 208.73 52.56 207.57 52.13C206.94 51.89 206.18 51.5 205.49 51.53L206.99 53.03C206.63 48.33 205.93 42.71 208.05 38.31C208.48 37.42 208.97 37.17 209.69 36.57C210.52 35.87 210.96 34.92 211.07 33.84C211.18 32.76 210.91 31.72 210.29 30.81C209.59 29.77 209.17 28.8 208.9 27.56C208.65 26.39 208.42 24.87 208.81 23.71C209.2 22.55 210.04 21.69 210.29 20.49C210.52 19.39 210.23 18.33 209.59 17.42C209.37 17.11 209.02 16.78 208.94 16.43C208.81 15.81 209.25 14.9 209.36 14.28C209.56 13.21 209.84 11.84 209.7 10.75C209.64 10.27 209.48 9.84 209.16 9.47C209.02 9.31 208.5 8.71001 208.93 9.32001C208.85 9.20001 208.84 9.02999 208.75 8.89999C208.15 7.99999 206.88 7.76001 205.9 7.49001C204.29 7.06001 202.66 6.71001 201.03 6.35001C200.33 6.20001 199.64 6.05 198.94 5.89C198.71 5.84 198.47 5.76 198.24 5.73C197.72 5.67 197.89 5.31 198.48 5.98V8.10001L197.48 8.53C199.41 8.46 199.41 5.46 197.48 5.53L197.5 5.5Z" fill="black"></path><path d="M59.5 5.5C58.35 5.5 57.23 5.51 56.09 5.77C54.26 6.18 52.57 7.19 51.37 8.62C50.87 9.22 50.74 10.16 51.37 10.74C51.93 11.25 52.95 11.38 53.49 10.74C53.78 10.4 54.09 10.08 54.43 9.78999C54.48 9.73999 54.54 9.7 54.59 9.66L54.45 9.77C54.49 9.7 54.63 9.64 54.7 9.59C54.86 9.48 55.03 9.38 55.2 9.28C55.37 9.18 55.54 9.11 55.71 9.02C55.99 8.88 55.42 9.13 55.69 9.02C55.77 8.99 55.86 8.95 55.94 8.92C56.27 8.8 56.62 8.7 56.96 8.63C57.12 8.6 57.27 8.56999 57.43 8.53999C57.76 8.47999 57.17 8.57 57.33 8.55C57.4 8.55 57.48 8.53 57.55 8.53C57.82 8.5 58.08 8.49 58.35 8.48C58.73 8.47 59.11 8.48 59.49 8.48C60.27 8.48 61.03 7.79 60.99 6.98C60.95 6.17 60.33 5.48 59.49 5.48L59.5 5.5Z" fill="black"></path><path d="M52.04 37.95C54.42 37.01 57.09 36.61 59.59 36.17C65.33 35.15 71.02 34.5 76.86 33.96C86.29 33.09 95.76 32.62 105.23 32.37C118.67 32.02 132.12 32.12 145.56 32.52C163.36 33.05 181.15 34.1 198.9 35.5C201.44 35.7 203.97 35.91 206.5 36.12C207.94 36.24 207.93 33.99 206.5 33.87C188.12 32.31 169.71 31.11 151.27 30.45C137.28 29.95 123.28 29.75 109.29 30.02C99.34 30.21 89.4 30.64 79.48 31.47C73.18 32 66.89 32.68 60.65 33.71C57.73 34.19 54.69 34.65 51.88 35.62C51.73 35.67 51.59 35.72 51.44 35.78C50.11 36.31 50.69 38.49 52.04 37.95Z" fill="black"></path><path d="M52.04 32.95C54.42 32.01 57.09 31.61 59.59 31.17C65.33 30.15 71.02 29.5 76.86 28.96C86.29 28.09 95.76 27.62 105.23 27.37C118.67 27.02 132.12 27.12 145.56 27.52C163.36 28.05 181.15 29.1 198.9 30.5C201.44 30.7 203.97 30.91 206.5 31.12C207.94 31.24 207.93 28.99 206.5 28.87C188.12 27.31 169.71 26.11 151.27 25.45C137.28 24.95 123.28 24.75 109.29 25.02C99.34 25.21 89.4 25.64 79.48 26.47C73.18 27 66.89 27.68 60.65 28.71C57.73 29.19 54.69 29.65 51.88 30.62C51.73 30.67 51.59 30.72 51.44 30.78C50.11 31.31 50.69 33.49 52.04 32.95Z" fill="black"></path><path d="M53.8 23.08C56.09 22.17 58.75 21.92 61.17 21.58C66.34 20.85 72.47 20.38 78.02 20.06C87.3 19.52 96.59 19.32 105.88 19.3C119.18 19.27 132.48 19.6 145.77 20.17C163.5 20.92 181.21 22.08 198.9 23.5C201.43 23.7 203.97 23.91 206.5 24.13C207.94 24.25 207.93 22 206.5 21.88C188.17 20.33 169.82 19.04 151.45 18.17C137.61 17.52 123.75 17.09 109.89 17.05C100.12 17.02 90.35 17.17 80.59 17.67C74.51 17.98 68.43 18.41 62.39 19.17C59.5 19.54 56.4301 19.83 53.6401 20.75C53.4901 20.8 53.35 20.85 53.2 20.9C51.87 21.43 52.45 23.6 53.8 23.07V23.08Z" fill="black"></path><path d="M53.8 20.08C56.11 19.17 58.74 18.86 61.17 18.48C66.55 17.65 72.36 17.12 78.02 16.72C87.29 16.06 96.59 15.77 105.88 15.67C119.18 15.52 132.48 15.78 145.77 16.29C163.5 16.96 181.21 18.08 198.9 19.5C201.43 19.7 203.97 19.91 206.5 20.13C207.94 20.25 207.93 18 206.5 17.88C188.17 16.33 169.82 15.07 151.45 14.27C137.61 13.67 123.75 13.32 109.89 13.39C100.12 13.44 90.35 13.68 80.59 14.3C74.44 14.69 68.29 15.22 62.19 16.08C59.35 16.48 56.3701 16.84 53.6401 17.76C53.4901 17.81 53.35 17.86 53.2 17.92C51.87 18.45 52.45 20.62 53.8 20.09V20.08Z" fill="black"></path><path d="M53.0499 51.07C47.8999 53.08 42.66 54.82 37.5 56.79C34 58.13 30.63 59.76 27.16 61.12C22.25 63.04 17.82 65.54 14.42 69.68C8.26997 77.15 5.96997 86.79 5.41997 96.24C4.70997 108.3 4.13996 120.37 3.75996 132.45C2.97996 157.1 2.54995 181.76 2.24995 206.42C1.93995 231.09 1.72996 255.75 1.56996 280.42C1.48996 292.71 1.44995 304.99 1.36995 317.28C1.30995 327.29 0.699957 337.28 0.659957 347.29C0.619957 357.41 1.09994 367.62 3.32994 377.52C4.38994 382.24 5.87996 386.86 7.87996 391.28C9.87996 395.7 12.7 399.65 16.41 403.07C19.96 406.35 23.67 409.59 27.5 412.55C31.12 415.35 35.22 417.77 39.69 418.92C42.09 419.54 44.65 419.71 47.1 419.97C58.64 421.2 70.2499 421.9 81.8299 422.54C98.5399 423.45 115.27 424.04 132.01 424.27C148.75 424.5 166.82 424.37 184.18 423.34C187.97 423.12 191.75 422.84 195.52 422.51C197.43 422.34 197.45 419.34 195.52 419.51C162.12 422.47 128.3 421.66 94.84 420.19C81.63 419.61 68.42 418.86 55.25 417.75C51.37 417.42 47.49 417.08 43.63 416.58C39.2 416 34.44 413.92 30.53 411.11C26.62 408.3 23.15 405.1 19.63 401.97C15.81 398.57 12.8699 394.97 10.7099 390.32C6.55994 381.37 4.79995 371.46 4.08995 361.69C3.36995 351.73 3.68994 341.73 4.01994 331.76C4.37994 320.75 4.39995 309.75 4.46995 298.74C4.72995 250.55 5.00997 202.35 6.16997 154.18C6.45997 142.21 6.77995 130.24 7.27995 118.28C7.52995 112.28 7.89995 106.29 8.21995 100.29C8.50995 94.84 8.71996 89.42 10.35 84.17C12.53 77.15 16.23 70.34 22.73 66.5C24.5 65.45 26.38 64.68 28.29 63.93C31.88 62.52 35.34 60.85 38.95 59.48C43.91 57.61 48.94 55.93 53.88 54C55.66 53.3 54.8799 50.4 53.0799 51.11L53.0499 51.07Z" fill="black"></path><path d="M202.9 53.97C209.69 56.63 216.68 58.79 223.38 61.68C226.24 62.91 229.21 64.03 232.01 65.39C240.94 69.71 245.82 79.17 247.54 88.62C248.2 92.24 248.33 95.93 248.52 99.6C248.71 103.27 248.98 107.17 249.17 110.96C249.57 118.85 249.83 126.75 250.08 134.64C250.57 150.46 250.91 166.29 251.18 182.12C251.71 214.05 251.98 245.98 252.19 277.91C252.29 293.16 252.14 308.43 252.52 323.67C252.85 336.83 253.68 350.03 252.57 363.17C252.02 369.68 250.97 376.17 249.05 382.42C247.13 388.67 244.67 394.49 240.17 399.08C237.9 401.4 235.38 403.46 232.93 405.57C230.48 407.68 228.18 409.76 225.57 411.56C219.53 415.72 212.75 417.04 205.59 417.95C201.95 418.41 198.31 418.87 194.74 419.74C192.86 420.19 193.66 423.09 195.54 422.63C203.14 420.79 211.16 420.94 218.61 418.43C224.72 416.37 229.6 412.43 234.4 408.26C239.2 404.09 244.34 400.15 247.36 394.44C250.38 388.73 252.45 382.43 253.77 376.06C256.51 362.79 256.31 349.13 255.89 335.66C255.44 320.83 255.36 306.02 255.28 291.18C255.09 258.38 254.83 225.59 254.35 192.79C253.88 160.38 253.37 127.92 251.31 95.56C250.6 84.43 247.07 72.18 237.68 65.26C235.18 63.42 232.38 62.2 229.5 61.07C224.28 59.03 219.19 56.71 213.9 54.81C210.49 53.58 207.08 52.38 203.7 51.06C201.9 50.36 201.12 53.26 202.9 53.95V53.97Z" fill="black"></path><path d="M26.89 71.38C34.79 70.32 42.61 68.68 50.56 67.96C57.11 67.37 63.7 67.17 70.26 66.84C77.41 66.49 84.57 66.3 91.73 66.13C115.82 65.55 139.92 65.37 164.02 65.55C179.18 65.67 194.34 65.94 209.49 66.48C211.42 66.55 211.42 63.55 209.49 63.48C182.78 62.51 156.03 62.35 129.3 62.55C110.24 62.69 91.16 62.91 72.11 63.74C65.89 64.01 59.65 64.26 53.44 64.71C44.5 65.36 35.75 67.17 26.88 68.36C26.07 68.47 25.39 68.97 25.38 69.86C25.38 70.59 26.08 71.47 26.88 71.36L26.89 71.38Z" fill="black"></path><path d="M28.33 97.73C34 93.64 41.45 94.16 48.02 92.88L46.12 91.43C46.06 93.46 46.71 95.34 47.47 97.19C48.17 98.9 49.01 100.66 48.88 102.55C48.75 104.44 51.75 104.47 51.88 102.55C52.14 98.57 49.01 95.35 49.12 91.43C49.15 90.39 48.14 89.8 47.22 89.98C40.35 91.31 32.75 90.85 26.81 95.13C25.26 96.25 26.75 98.85 28.32 97.72L28.33 97.73Z" fill="black"></path><path d="M27.5701 100.66C29.7601 100.68 31.8001 101.47 33.8501 102.19C36.0201 102.95 38.24 103.51 40.46 104.06C44.88 105.16 49.3601 106.25 53.8501 106.99C57.8401 107.64 62.42 106.63 66.21 108.25C67.06 108.61 67.1301 108.86 67.1901 109.63C67.2301 110.15 67.2001 110.68 67.2001 111.2C67.2001 111.56 67.2001 111.92 67.2001 112.28C67.2001 112.64 67 113.44 67.37 112.88H69.96C69.93 112.83 69.7801 112.5 69.7001 112.37C68.6801 110.74 66.08 112.24 67.11 113.88C67.21 114.04 67.27 114.23 67.37 114.39C67.98 115.4 69.34 115.32 69.96 114.39C70.58 113.46 70.1901 111.78 70.2001 110.71C70.2001 109.81 70.2001 108.87 69.9201 108.02C69.1101 105.64 66.32 105 64.12 104.67C62.19 104.38 60.25 104.39 58.31 104.35C56.19 104.31 54.1801 104.03 52.1001 103.61C48.0801 102.8 44.0701 101.9 40.1001 100.88C37.9701 100.34 35.88 99.73 33.81 99.01C31.74 98.29 29.73 97.69 27.56 97.67C25.63 97.65 25.63 100.65 27.56 100.67L27.5701 100.66Z" fill="black"></path><path d="M29.0099 93.78C27.8099 92.9 26.49 92.94 25.17 93.49C23.99 93.99 22.8399 94.47 21.6499 94.92C19.8999 95.58 19.0799 96.67 19.0899 98.57C19.0899 101.83 19.6899 105.18 20.0799 108.41C20.5099 111.95 21.0099 115.47 21.6099 118.98C24.0399 133.12 27.7999 147.16 27.0999 161.63C26.9599 164.47 26.57 167.34 26.92 170.18C27.27 173.02 28.6299 175.37 30.2799 177.78C31.9299 180.19 33.3799 182.49 34.5899 185.03C35.7999 187.57 36.42 190.26 36.39 193.2C36.36 196.61 35.9099 200 36.0299 203.41C36.1299 206.3 36.6899 209.19 36.9699 212.07C37.2399 214.82 37.5099 217.65 38.3299 220.3C38.6599 221.37 39.1499 222.34 39.6299 223.34C39.9299 223.98 40.0599 224.6 40.7299 224.98C41.6799 225.52 43.0599 225.72 44.1199 225.79C45.1799 225.86 46.17 225.71 47.17 225.96C47.8899 226.14 48.57 226.48 49.1999 226.86C51.8999 228.48 53.91 231.06 56.42 232.94C61.9 237.03 68.5899 239.12 75.4399 238.4C76.2399 238.32 76.9399 237.78 76.9399 236.9C76.8799 223.81 75.6399 210.78 74.7299 197.73C73.82 184.68 73.7299 171.73 71.9699 158.82C71.5299 155.58 71.1999 152.38 71.3199 149.11C71.4199 146.5 71.5399 143.56 70.0499 141.28C68.9999 139.67 66.3999 141.17 67.4599 142.79C68.6999 144.69 68.3899 147.3 68.2999 149.46C68.1899 152.26 68.4599 155.01 68.8299 157.79C69.6599 164.09 70.2799 170.36 70.6099 176.71C70.9399 183.23 71.1899 189.75 71.6299 196.27C72.0699 202.79 72.5799 208.88 73.0099 215.19C73.5099 222.41 73.8999 229.65 73.9299 236.89L75.4299 235.39C69.6499 236 64.1199 234.53 59.2899 231.31C54.9099 228.38 51.5999 222.94 45.8399 222.8C45.1199 222.78 44.3799 222.86 43.67 222.73C43.2 222.64 42.6999 222.34 42.2199 222.33C42.2599 222.33 41.9599 222.26 41.9599 222.26C42.5899 221.62 42.68 223.27 42.67 222.9C42.67 222.48 42.2399 221.91 42.0499 221.54C40.9599 219.43 40.5299 217.04 40.2299 214.7C39.9199 212.22 39.7599 209.73 39.4099 207.25C38.9599 204.07 38.9499 201 39.1499 197.8C39.3299 194.8 39.6199 191.7 39.0299 188.72C38.5099 186.14 37.3299 183.68 36.0599 181.4C34.7899 179.12 33.36 177 31.89 174.88C30.33 172.64 29.7299 170.32 29.7399 167.6C29.7499 164.71 30.11 161.83 30.14 158.94C30.18 155.64 30.0099 152.34 29.6899 149.06C29.0399 142.34 27.8199 135.69 26.5299 129.07C25.0699 121.55 23.6699 114.05 22.7999 106.43C22.5899 104.57 22.3899 102.71 22.2099 100.85C22.1299 100.06 21.9499 98.48 22.0299 97.99C22.0599 97.77 22.1099 97.9 21.9599 98.01C21.9999 97.98 22.2699 97.84 22.2099 97.86C22.6699 97.71 23.1299 97.54 23.5899 97.38C24.6399 97.02 26.4699 95.61 27.4599 96.34C29.0199 97.48 30.5199 94.88 28.9699 93.75L29.0099 93.78Z" fill="black"></path><path d="M43.8801 192.48C45.0501 193.69 46.7001 194.56 48.1601 195.35C49.6201 196.14 51.57 197.25 53.36 197.2C54.83 197.16 55.7 195.95 56.28 194.74C57.05 193.13 57.54 191.39 57.99 189.67C58.9 186.2 59.45 182.65 60.34 179.18C61.94 172.97 63.6901 166.88 64.6601 160.52C65.8001 153.05 66.14 145.5 65.5 137.96C65.34 136.05 62.34 136.03 62.5 137.96C63.55 150.48 61.79 162.86 58.43 174.92C57.5 178.26 56.76 181.6 56.02 184.99C55.33 188.12 54.71 191.43 53.11 194.24C53.15 194.17 53.07 194.3 53.06 194.28C53.01 194.25 53.5 194.39 53.22 194.19C53.39 194.31 52.9401 194.14 52.9101 194.13C52.0501 193.94 51.2301 193.54 50.4501 193.15C48.9501 192.4 47.1401 191.52 46.0101 190.35C44.6601 188.96 42.5401 191.08 43.8901 192.47L43.8801 192.48Z" fill="black"></path><path d="M68.03 113.54C76.4 116.51 83.83 121.52 90.94 126.73C94.44 129.29 97.86 131.95 101.48 134.35C105.1 136.75 108.2 139.04 111 142.18C113.51 144.99 116.69 148.24 117.7 151.98C118.2 153.84 121.1 153.05 120.59 151.18C119.61 147.57 116.91 144.45 114.53 141.67C111.81 138.5 108.9 135.78 105.44 133.41C101.71 130.85 98.04 128.27 94.4 125.58C90.76 122.89 86.7999 120.02 82.7999 117.53C78.3699 114.77 73.73 112.39 68.81 110.64C66.99 109.99 66.2 112.89 68.01 113.53L68.03 113.54Z" fill="black"></path><path d="M119.06 150.51C116.88 160.66 109.87 168.81 104.89 177.66C103.56 180.01 102.43 182.46 101.13 184.83C99.8301 187.2 98.3001 189.7 96.7501 192.05C93.6701 196.73 90.2601 201.18 86.7501 205.54C83.0001 210.18 78.33 214.24 75.43 219.51C74.76 220.71 76.2101 222.52 77.4801 221.56C77.7701 221.34 78.0601 221.16 78.3801 220.98C80.0701 220.04 78.56 217.45 76.87 218.39C76.55 218.57 76.2601 218.75 75.9701 218.97L78.02 221.02C80.63 216.29 84.7801 212.69 88.1601 208.54C91.7201 204.17 95.18 199.71 98.36 195.05C101.51 190.41 104.08 185.54 106.71 180.6C109.18 175.97 112.18 171.66 114.92 167.19C117.95 162.25 120.74 157.03 121.97 151.31C122.37 149.43 119.48 148.62 119.08 150.51H119.06Z" fill="black"></path><path d="M64.04 107.03C70.13 101.2 75.13 94.31 81.44 88.71C84.59 85.92 88.27 83.88 91.74 81.52C95.21 79.16 97.95 75.9 101.44 73.59L99.62 73.36C105.28 79.05 112.75 82.08 119.16 86.73C122.67 89.27 125.34 92.65 128.6 95.46C129.89 96.57 131.34 97.48 132.57 98.67C133.31 99.38 134.16 100.54 135.27 100.59C136.09 100.62 136.75 99.88 136.77 99.09C136.77 98.72 136.63 98.38 136.45 98.07C135.47 96.41 132.88 97.92 133.86 99.58C134.04 99.91 134.01 99.74 133.77 99.08L135.27 97.58C135.93 97.61 136.2 98.01 135.73 97.55C135.56 97.38 135.39 97.22 135.22 97.05C134.87 96.71 134.54 96.37 134.17 96.05C132.62 94.68 130.9 93.56 129.42 92.1C126.55 89.27 123.81 86.38 120.52 84.02C114.36 79.59 107.17 76.69 101.75 71.24C101.3 70.79 100.48 70.64 99.93 71.01C96.43 73.32 93.7 76.58 90.23 78.94C86.76 81.3 82.92 83.47 79.66 86.3C73.18 91.94 68.12 98.98 61.92 104.91C60.52 106.25 62.65 108.37 64.04 107.03Z" fill="black"></path><path d="M142.55 81.4C142.13 83.34 141.2 85.04 140.24 86.75C139.22 88.56 138.36 90.4 137.59 92.33C135.85 96.66 134.01 100.96 132.1 105.22C128.35 113.58 125.34 122.22 122.12 130.8C120.42 135.33 117.65 139.38 116.14 144C115.74 145.21 117.27 146.42 118.34 145.69C118.84 145.35 119.11 145.01 119.42 144.51C120.46 142.88 117.86 141.37 116.83 143C116.62 143.28 116.62 143.32 116.83 143.11L119.03 144.8C120.35 140.76 122.72 137.17 124.36 133.26C126.14 129.02 127.57 124.62 129.17 120.32C132.39 111.71 136.29 103.4 139.76 94.89C140.66 92.68 141.55 90.53 142.73 88.44C143.91 86.35 144.96 84.44 145.45 82.19C145.86 80.31 142.97 79.5 142.56 81.39L142.55 81.4Z" fill="black"></path><path d="M143.38 84.27C146.54 83.23 149.63 81.63 152.98 81.3C156.91 80.91 160.8 82.13 164.66 82.67C168.52 83.21 172.62 82.84 176.55 83.5C180.48 84.16 184 85.99 187.77 87.12C189.08 87.51 190.44 87.73 191.76 88.12C192.51 88.34 192.66 88.38 192.81 89.01C193.14 90.37 192.87 91.98 192.81 93.36C192.71 95.45 192.58 97.53 192.41 99.62C192.07 103.81 191.59 107.98 190.91 112.12C190.23 116.26 189.4 120.21 188.81 124.29C187.61 132.48 186.87 140.73 185.84 148.94C185.32 153.14 184.7 157.33 183.91 161.49C183.17 165.39 182.21 169.25 181.46 173.16C180.71 177.07 180.02 180.69 178.5 184.19C177.96 185.44 177.11 186.63 176.86 187.98C176.59 189.45 177.1 187.82 177.17 187.98C177.17 187.98 176.02 188.26 175.73 188.29C174.18 188.46 172.54 188.04 171.02 187.73C168.98 187.3 166.96 186.78 164.95 186.26C160.95 185.23 156.94 184.42 152.89 183.64C144.6 182.04 136.36 180.15 128.06 178.6C124.35 177.91 120.65 176.93 116.91 176.46C113.65 176.06 111.07 176.82 108.34 178.58C107.2 179.31 106.1 180.08 104.78 180.46C102.93 180.99 103.71 183.88 105.58 183.35C108.41 182.54 110.48 180.14 113.32 179.46C115.02 179.05 116.92 179.43 118.6 179.75C120.48 180.11 122.33 180.58 124.21 180.94C132.88 182.58 141.51 184.45 150.17 186.16C154.38 186.99 158.59 187.73 162.76 188.8C166.56 189.77 170.43 190.99 174.35 191.29C175.69 191.39 177.33 191.28 178.55 190.64C179.44 190.17 179.63 189.36 179.76 188.65C179.99 187.48 181.05 185.82 181.57 184.52C182.31 182.69 182.86 180.79 183.31 178.87C184.24 174.96 184.89 170.98 185.78 167.06C186.75 162.79 187.5 158.47 188.12 154.14C189.34 145.62 190.08 137.05 191.2 128.52C192.33 119.89 194.25 111.4 195.1 102.73C195.51 98.58 195.96 94.32 195.89 90.15C195.85 87.81 195.06 86.04 192.74 85.29C191.45 84.87 190.08 84.68 188.77 84.3C186.75 83.71 184.81 82.92 182.84 82.19C178.98 80.76 175.16 80.2 171.06 80.08C168.95 80.02 166.84 80 164.74 79.69C162.64 79.38 160.58 78.9 158.49 78.6C154.69 78.05 151.17 78.29 147.54 79.57C145.87 80.16 144.24 80.83 142.56 81.39C140.74 81.99 141.52 84.89 143.36 84.28L143.38 84.27Z" fill="black"></path><path d="M192.38 124.73C194.4 122.48 196.03 119.94 197.69 117.43C199.44 114.78 201.33 112.33 203.58 110.08C204.64 109.02 205.74 108 206.83 106.97C207.79 106.06 208.68 104.91 209.71 104.08C210.18 103.71 210.67 104.05 211.31 104.36C212.56 104.96 213.78 105.66 214.95 106.4C224.43 112.31 231.82 121.44 237.68 130.82C240.93 136.01 243.43 141.35 245.22 147.22C246.13 150.23 246.83 153.13 246.37 156.3C245.91 159.47 244.85 162.39 243.91 165.35C239.97 177.8 235.08 189.99 228.64 201.37C225.01 207.79 220.79 213.85 217.06 220.2C215.64 222.62 214.51 225.14 213.34 227.69C212.37 229.79 211.42 232.36 209.66 233.94C208.22 235.23 210.35 237.35 211.78 236.06C213.45 234.57 214.46 232.34 215.4 230.36C216.5 228.04 217.45 225.64 218.69 223.4C222.02 217.34 226.04 211.67 229.58 205.74C236.58 194.02 241.87 181.32 246.1 168.36C248.13 162.14 250.61 155.7 248.9 149.11C247.27 142.82 244.81 136.86 241.48 131.28C235.54 121.31 228.01 111.76 218.4 105.09C217.03 104.14 215.62 103.26 214.16 102.47C212.97 101.83 211.66 101.01 210.28 100.91C209.15 100.83 208.3 101.3 207.49 102.06C206.32 103.17 205.22 104.37 204.04 105.48C201.32 108.05 198.73 110.67 196.57 113.74C194.48 116.71 192.69 119.91 190.25 122.62C188.96 124.05 191.08 126.18 192.37 124.74L192.38 124.73Z" fill="black"></path><path d="M153.81 185.2C151.42 185.91 149.66 188.37 148.58 190.5C147.14 193.35 147.52 196.02 148.76 198.88C150.18 202.14 151.6 205.3 152.74 208.67C153.95 212.26 155.1 215.87 156.62 219.35L158.31 217.15C156.39 216.86 155 215.48 153.53 214.32C151.87 213.01 150 212.03 148.14 211.02C146.15 209.95 144.07 209.01 142.11 207.89C140.4 206.92 138.77 205.81 137.05 204.86C135.33 203.91 133.55 203.11 131.62 202.85C129.43 202.56 127.29 203.19 125.16 203.6C122.79 204.06 120.31 203.9 117.9 203.97C115.49 204.04 113.17 204.12 110.81 204.28C105.92 204.61 101.02 205.44 96.11 205.1L97.56 207C98.01 204.68 97.46 202.48 97.1 200.2C96.8 198.3 93.91 199.11 94.21 201C94.48 202.7 95.0101 204.48 94.6701 206.21C94.4701 207.21 95.09 208.04 96.12 208.11C100.33 208.4 104.54 207.82 108.73 207.45C113.51 207.03 118.29 207.05 123.08 206.86C125.35 206.77 127.49 205.98 129.74 205.8C131.64 205.65 133.37 206.31 135.03 207.18C136.78 208.1 138.42 209.2 140.12 210.2C142.03 211.32 144.06 212.24 146.02 213.28C148.08 214.38 150.19 215.43 152.01 216.92C153.66 218.26 155.35 219.72 157.52 220.05C158.88 220.25 159.76 219.1 159.21 217.85C156.68 212.03 155.32 205.76 152.6 200.01C151.56 197.82 149.91 195.2 150.86 192.72C151.46 191.16 152.87 188.62 154.61 188.11C156.46 187.56 155.67 184.66 153.81 185.22V185.2Z" fill="black"></path><path d="M160.04 220.39C162.21 218.52 163.98 216.26 166.1 214.34C168.07 212.55 170.23 210.99 171.85 208.85C172.34 208.2 171.95 207.17 171.31 206.8C170.54 206.35 169.75 206.69 169.26 207.34C167.86 209.19 165.61 210.71 163.84 212.35C161.78 214.24 160.04 216.44 157.92 218.27C157.31 218.8 157.38 219.85 157.92 220.39C158.53 221 159.43 220.92 160.04 220.39Z" fill="black"></path><path d="M156.9 190.43C164.72 197.22 172.46 204.25 179.01 212.31C182.32 216.39 185.25 220.76 188.6 224.82C191.6 228.45 194.86 231.83 197.92 235.39C200.61 238.52 203.45 242.49 207.27 244.33C208.03 244.7 208.84 244.51 209.32 243.79C211.68 240.23 212.14 235.74 212.85 231.64C213.18 229.75 210.29 228.94 209.96 230.84C209.29 234.67 208.93 238.95 206.73 242.28L208.78 241.74C205.49 240.16 203.01 236.74 200.69 234.04C197.71 230.56 194.53 227.26 191.58 223.75C188.23 219.76 185.28 215.49 182.07 211.39C178.86 207.29 175.38 203.56 171.72 199.95C167.63 195.91 163.34 192.08 159 188.31C157.55 187.05 155.42 189.16 156.88 190.43H156.9Z" fill="black"></path><path d="M135.75 210.75C144.03 214.32 150.97 220.27 159.06 224.19C161.14 225.2 163.28 225.98 165.45 226.76C167.62 227.54 169.83 228.6 171.99 229.57C174.15 230.54 176.4 231.53 178.71 232.22C180.19 232.66 182.07 233.27 183.64 233.16C185.21 233.05 185.84 231.52 186.48 230.3C187.46 228.44 188.31 226.47 189.01 224.49C189.65 222.66 186.75 221.88 186.12 223.69C185.57 225.25 184.91 226.78 184.17 228.25C183.87 228.85 183.56 229.46 183.23 230.04C183.14 230.2 183.04 230.42 183 230.4C183.05 230.42 183.39 230.1 183.43 230.18C183.45 230.21 183.34 230.21 183.19 230.16C181.55 229.63 179.73 229.44 178.06 228.86C175.94 228.12 173.9 227.17 171.86 226.24C167.96 224.47 163.84 223.23 160.01 221.32C156.18 219.41 152.87 217.23 149.41 215C145.49 212.48 141.54 210 137.25 208.15C135.5 207.39 133.97 209.98 135.74 210.74L135.75 210.75Z" fill="black"></path><path d="M76.46 219.33C77.15 225.76 76.62 232.23 75.87 238.64C75.12 245.05 74.27 251.55 73.84 258.06C72.92 271.86 71.76 285.64 70.49 299.41C69.95 305.23 70.23 311.74 67.15 316.94L68.84 316.25C63.89 315.09 59.95 312.23 57.56 307.72C55.17 303.21 54.47 298.3 54.05 293.45C53.49 287.03 53.41 280.59 52.75 274.17C51.9 265.98 50.64 257.84 49.43 249.7C48.78 245.39 48.28 241.04 47.3 236.79C46.38 232.77 45.14 228.83 43.52 225.04C42.76 223.27 40.17 224.8 40.93 226.55C43.99 233.66 45.16 241.21 46.29 248.8C47.53 257.16 48.86 265.51 49.73 273.92C50.42 280.52 50.49 287.15 51.08 293.75C51.54 298.88 52.4 304.08 54.72 308.73C57.41 314.13 62.19 317.76 68.05 319.13C68.7 319.28 69.4 319.03 69.74 318.44C72.57 313.67 72.86 307.89 73.25 302.5C73.72 295.85 74.45 289.22 75.01 282.57C76.15 268.92 76.83 255.24 78.52 241.65C79.44 234.25 80.26 226.77 79.47 219.32C79.27 217.42 76.27 217.4 76.47 219.32L76.46 219.33Z" fill="black"></path><path d="M4.82005 184.35C8.45005 183.71 12.1 183.17 15.8 183.13C18.53 183.11 20.5501 183.27 23.0701 184.01C25.2201 184.64 27.34 185.37 29.49 186C30.77 186.38 32.75 187.22 34.09 186.73C35.89 186.07 35.1101 183.17 33.2901 183.84C33.0601 183.92 33.66 183.84 33.36 183.84C33.24 183.84 33.1101 183.84 32.9801 183.82C33.1101 183.85 32.35 183.68 32.15 183.63C31.16 183.39 30.19 183.09 29.22 182.79C27.11 182.14 25.0201 181.42 22.8801 180.84C16.8101 179.21 10.0701 180.38 4.01006 181.45C2.11006 181.79 2.92004 184.68 4.81004 184.34L4.82005 184.35Z" fill="black"></path><path d="M5.44994 317.51C9.94994 317.54 14.4499 317.58 18.9399 317.45C22.9599 317.34 26.9599 316.82 30.9799 316.82C33.7199 316.82 37.3999 317.01 39.3199 314.63C41.0799 312.46 40.9799 308.95 40.9599 306.32C40.9399 303.04 40.6599 299.77 40.5499 296.49C40.3999 291.67 40.2999 286.85 40.2399 282.03C40.1099 272.4 40.0799 262.78 39.8899 253.15C39.6699 242.32 39.2899 231.51 39.2899 220.68C39.2899 218.75 36.2899 218.75 36.2899 220.68C36.2899 229.94 36.5399 239.18 36.7799 248.43C37.0199 257.63 37.0699 266.84 37.1699 276.05C37.2599 284.57 37.2799 293.12 37.7799 301.63C37.9499 304.51 38.1899 307.51 37.7599 310.38C37.6199 311.34 37.4399 312.55 36.5599 313.11C35.4599 313.81 33.8799 313.78 32.6299 313.81C28.4499 313.9 24.2999 314.28 20.1199 314.42C15.2299 314.58 10.3399 314.54 5.44994 314.51C3.51994 314.5 3.51994 317.5 5.44994 317.51Z" fill="black"></path><path d="M65.6601 318.43C67.2201 320.04 69.76 320.28 71.87 320.35C74.6 320.44 77.34 320.13 80.05 319.78C87.2 318.86 94.39 318.35 101.58 317.74C105.99 317.36 110.35 316.82 114.78 317.06C119.21 317.3 123.24 317.89 127.49 317.98C136.28 318.18 144.99 315.91 153.7 314.96C158.16 314.47 162.64 314.35 167.12 314.31C171.6 314.27 175.7 314.01 179.98 314.08C184.03 314.14 188.04 314.7 192.09 314.83C194.07 314.89 196.05 314.85 198.01 314.58C199.39 314.39 200.85 314.15 202.02 313.35C204.17 311.89 204.45 308.91 205.31 306.66C206.04 304.77 206.95 302.96 207.76 301.1C208.57 299.24 209.23 297.3 209.86 295.34C211.16 291.32 212.54 287.33 213.68 283.26C214.82 279.19 215.69 274.78 216.42 270.49C217.15 266.2 217.71 261.95 217.97 257.64C218.2 253.9 218.03 250.21 217.94 246.48C217.87 243.9 217.87 241.31 217.7 238.73C217.53 236.15 217.32 233.45 216.39 231.03C216.03 230.09 215.57 229.19 214.84 228.48C213.45 227.14 211.32 229.26 212.72 230.6C213.97 231.81 214.24 234.27 214.45 235.98C214.78 238.63 214.85 241.3 214.9 243.97C214.95 246.64 215.13 249.37 215.14 252.08C215.16 256.35 214.83 260.61 214.27 264.84C213.19 273.01 211.39 280.97 208.84 288.81C207.58 292.69 206.48 296.68 204.8 300.41C204.02 302.15 203.19 303.88 202.5 305.66C201.99 306.95 201.67 308.31 201.18 309.6C200.28 312.01 196.82 311.8 194.68 311.85C190.85 311.95 187.04 311.47 183.22 311.23C179.4 310.99 175.27 311.23 171.28 311.28C166.95 311.33 162.62 311.32 158.3 311.58C149.87 312.09 141.6 313.98 133.2 314.77C125 315.54 116.89 313.45 108.7 314.11C100.51 314.77 92.1401 315.33 83.9101 316.28C79.3401 316.81 74.36 318.05 69.77 317.16C69.03 317.02 68.2301 316.81 67.7601 316.32C66.4101 314.93 64.2901 317.06 65.6401 318.44L65.6601 318.43Z" fill="black"></path><path d="M164.03 348.95C158.62 351.09 152.76 349.73 147.52 347.76C142.28 345.79 136.9 342.96 131.89 340.14C130.24 339.21 128.33 337.58 129.37 335.53C130.47 333.34 133.29 332.42 135.51 331.95C140.98 330.81 145.12 333.87 149.45 336.71C151.97 338.36 154.66 339.63 157.28 341.1C160.14 342.7 162.92 344.47 165.49 346.51C170.2 350.24 173.93 355.31 179.33 358.13C184.73 360.95 190.7 361.21 196.31 359.33C201.53 357.58 206.11 354.44 211.03 352.03C214.04 350.56 217.21 349.54 220.46 348.74C223.99 347.87 227.85 347.16 231.49 347.74C234.41 348.21 236.83 350.05 239.27 351.58C241.87 353.22 244.64 354.62 247.79 354.58C248.42 354.58 249.1 354.12 249.24 353.48C250.07 349.53 250.23 345.16 252.13 341.53C253.72 338.48 256.29 335.66 256.15 332.02C256.08 330.1 253.08 330.09 253.15 332.02C253.28 335.35 250.35 338.07 249.09 340.96C247.47 344.68 247.17 348.76 246.34 352.69L247.79 351.59C242.03 351.66 238.1 346 232.61 344.91C229.33 344.26 225.9 344.6 222.64 345.2C219.38 345.8 216 346.71 212.87 347.95C207.41 350.13 202.6 353.63 197.15 355.83C191.46 358.13 185.28 358.19 179.89 355C177.25 353.43 175.05 351.27 172.87 349.14C170.47 346.79 168 344.58 165.28 342.61C162.39 340.52 159.31 338.7 156.13 337.08C153.54 335.76 151.14 334.22 148.71 332.62C146.51 331.17 144.21 329.77 141.64 329.12C138.83 328.4 135.86 328.62 133.09 329.47C130.63 330.23 128.03 331.65 126.77 334.01C125.65 336.1 125.93 338.45 127.39 340.3C129.36 342.79 132.86 344.04 135.6 345.48C138.65 347.08 141.73 348.62 144.91 349.93C151.08 352.48 158.34 354.4 164.83 351.84C166.6 351.14 165.83 348.24 164.03 348.95Z" fill="black"></path><path d="M218.29 243.43C223.4 239.84 229.68 239.5 235.69 240.44C238.14 240.82 240.59 241.32 242.94 242.13C243.87 242.45 244.87 242.83 245.65 243.44C245.76 243.53 246.07 243.88 246.08 243.89C246.18 243.98 246.08 244.04 246.11 243.86C246.09 244.08 246.19 243.71 246.06 244.11C245.45 245.95 248.35 246.73 248.95 244.91C250.32 240.78 243.65 239.09 240.94 238.42C236.61 237.36 232.15 236.78 227.7 237.1C223.74 237.38 220.06 238.54 216.79 240.84C215.22 241.94 216.72 244.54 218.3 243.43H218.29Z" fill="black"></path><path d="M124.22 317.07C125.12 318.1 125.36 319.64 125.48 320.95C125.65 322.9 125.56 324.86 125.46 326.81C125.27 330.38 124.69 334.39 125.88 337.85C126.5 339.67 129.4 338.89 128.77 337.05C128.21 335.43 128.19 333.69 128.22 331.99C128.25 329.88 128.42 327.78 128.51 325.67C128.66 322.11 128.85 317.8 126.34 314.94C125.06 313.49 122.95 315.61 124.22 317.06V317.07Z" fill="black"></path><path d="M165.53 351.81C165.91 350.83 166.06 349.77 166.17 348.73C166.28 347.69 166.3 346.66 166.26 345.63C166.23 344.85 165.59 344.09 164.76 344.13C163.93 344.17 163.23 344.79 163.26 345.63C163.3 346.63 163.28 347.64 163.18 348.64C163.17 348.75 163.15 348.87 163.14 348.98C163.12 349.15 163.12 349.11 163.16 348.87C163.16 348.93 163.14 349 163.13 349.06C163.09 349.29 163.05 349.52 163 349.75C162.91 350.18 162.79 350.61 162.63 351.03C162.35 351.76 162.94 352.71 163.68 352.88C164.54 353.08 165.22 352.62 165.53 351.83V351.81Z" fill="black"></path><path d="M38.47 321.32C34.12 321.14 30.28 323.74 27.34 326.73C23.93 330.2 21.27 334.44 19.15 338.8C17.03 343.16 15.21 347.57 15.4 352.29C15.54 355.83 16.64 359.21 17.79 362.53C18.74 365.24 19.57 367.99 20.6 370.68C22.34 375.22 25.19 382.15 31.2 381.15C33.78 380.72 36.05 379.13 38.21 377.76C40.84 376.1 43.65 374.74 46.35 373.19C49.2 371.55 51.96 369.76 54.52 367.7C57.08 365.64 59.35 363.36 61.72 361.16C66.11 357.1 70.58 353.09 75.53 349.7C78.39 347.74 81.41 345.99 84.56 344.54C87.71 343.09 91.11 341.72 94.76 342.01C98.41 342.3 101.7 343.31 105.3 343.23C108.58 343.16 112.09 342.6 115.26 343.66C116.68 344.13 117.8 342.15 116.72 341.15C115.55 340.07 114.83 338.46 113.97 337.15C113.15 335.91 112.26 334.42 110.57 334.66C108.67 334.93 109.48 337.83 111.37 337.55C110.99 337.66 110.66 337.59 110.37 337.35C110.45 337.42 110.53 337.5 110.6 337.58C110.7 337.76 110.9 337.95 111.02 338.12C111.44 338.72 111.83 339.35 112.22 339.97C112.93 341.09 113.62 342.35 114.6 343.26L116.06 340.75C113.39 339.86 110.49 340.01 107.72 340.13C104.67 340.26 101.85 340.12 98.84 339.58C95.83 339.04 92.82 338.64 89.79 339.37C86.96 340.05 84.17 341.36 81.57 342.65C70.95 347.91 62.82 356.38 54.08 364.15C49.3 368.4 43.62 371.09 38.14 374.27C36.01 375.51 34 377.17 31.63 377.95C29.04 378.8 27.48 377.44 26.11 375.31C24.6 372.96 23.6 370.32 22.68 367.69C21.76 365.06 20.79 362.23 19.9 359.49C18.9 356.42 18.12 353.25 18.43 350C18.63 347.93 19.36 345.87 20.11 343.94C21.91 339.31 24.4 334.76 27.57 330.92C30.24 327.68 33.92 324.13 38.43 324.32C40.36 324.4 40.36 321.4 38.43 321.32H38.47Z" fill="black"></path><path d="M40.6 323.9C40.69 323.59 40.87 323.37 41.16 323.19C41.71 322.85 42.23 322.69 43.01 322.53C44.86 322.15 46.8499 322.23 48.7399 322.35C53.2899 322.63 57.7899 323.48 62.2699 324.31C63.9199 324.62 65.56 324.94 67.22 325.18C70.19 325.6 73.25 325.47 76.25 325.55C80.54 325.66 84.85 325.82 89.1 326.43C93.35 327.04 97.51 328.17 101.69 329.09C106.1 330.07 110.55 330.82 114.98 331.73C118.91 332.53 122.93 333.48 126.54 335.27L126.9 332.53C126.7 332.54 126.5 332.55 126.3 332.55C124.37 332.59 124.37 335.59 126.3 335.55C126.78 335.54 127.22 335.51 127.69 335.42C128.93 335.18 129.17 333.24 128.05 332.68C120.99 329.18 112.92 328.43 105.3 326.81C100.88 325.87 96.4999 324.68 92.0499 323.88C87.5999 323.08 83.3 322.79 78.9 322.63C75.29 322.5 71.59 322.67 68 322.28C67.75 322.25 68.1899 322.31 67.7999 322.25C67.6499 322.23 67.5 322.21 67.35 322.18C66.92 322.11 66.5 322.04 66.07 321.96C65.1 321.79 64.13 321.61 63.16 321.43C58.34 320.53 53.49 319.62 48.59 319.33C45.17 319.13 38.9 318.83 37.69 323.09C37.16 324.95 40.0499 325.74 40.5799 323.89L40.6 323.9Z" fill="black"></path><path d="M19 342.64C21.49 337.76 24.82 333.33 27.03 328.3C28.87 324.12 29.97 319.21 33.06 315.71C34.33 314.27 32.22 312.14 30.94 313.59C27.71 317.24 26.45 322.05 24.58 326.45C22.38 331.62 18.95 336.14 16.4 341.13C15.52 342.85 18.11 344.37 18.99 342.64H19Z" fill="black"></path><path d="M228.46 208.14C229.89 206.31 232 205.44 234.22 204.95C236.2 204.51 238.65 204.19 240.64 204.76C241.92 205.12 242.17 206.09 242.23 207.33C242.32 209.15 242.09 210.98 242.29 212.8C242.72 216.83 245.18 220.35 245.71 224.35C245.94 226.1 245.32 227.2 243.78 228.06C242.04 229.03 239.97 229.4 238.03 229.76C231.96 230.89 226.14 232.94 220.2 234.58C218.34 235.09 219.13 237.99 221 237.47C227 235.82 232.87 233.78 238.98 232.62C242.98 231.87 248.63 230.41 248.76 225.4C248.88 220.77 245.59 216.84 245.24 212.33C244.97 208.82 246.29 203.81 242.12 202.12C239.68 201.12 236.64 201.47 234.11 201.93C231.22 202.45 228.2 203.65 226.34 206.03C225.17 207.53 227.27 209.67 228.46 208.15V208.14Z" fill="black"></path><path d="M195.78 88.99C198.35 85.99 201.2 83.12 204.5 80.93C207.28 79.09 210.79 77.4 214.2 78.29C218.6 79.44 220.66 84.18 222.85 87.71C224.19 89.87 225.68 91.9 227.42 93.76C229.06 95.52 230.97 97.19 232.23 99.26C234.3 102.67 227.98 105.12 225.64 105.9C223.82 106.51 224.6 109.41 226.44 108.79C229.85 107.65 234.8 105.52 235.59 101.53C236.08 99.08 234.49 97.08 233 95.33C231.16 93.18 229.01 91.3 227.33 89.02C224.21 84.77 222.21 78.92 217.31 76.31C213.42 74.24 209.05 75.05 205.29 76.99C200.76 79.32 196.95 83.05 193.67 86.88C192.42 88.34 194.53 90.47 195.79 89L195.78 88.99Z" fill="black"></path><path d="M23.91 390.96C24.83 384.39 32.51 383.12 38.01 383.6C45.16 384.22 51.39 388.68 54.82 394.9C57.15 399.13 58.25 404.13 57.1 408.88C56.65 410.76 59.54 411.56 59.99 409.68C62.14 400.8 57.85 391.09 50.79 385.59C44.72 380.86 35.99 379.03 28.63 381.66C24.74 383.05 21.61 385.92 21.01 390.16C20.9 390.97 21.21 391.76 22.06 392.01C22.76 392.21 23.79 391.76 23.91 390.96Z" fill="black"></path><path d="M7.55002 360.69C7.70002 360.64 7.85003 360.59 8.00003 360.55C8.06003 360.53 8.42004 360.46 8.26004 360.49C8.10004 360.52 8.51003 360.47 8.59003 360.47C8.77003 360.47 8.94002 360.47 9.12002 360.49C8.85002 360.47 9.15003 360.49 9.25003 360.52C9.41003 360.56 9.56003 360.59 9.72003 360.64C9.88003 360.69 10.03 360.74 10.19 360.8C9.97003 360.72 10.37 360.88 10.43 360.92C11.84 361.62 12.85 362.54 13.94 363.7C16.28 366.18 18.13 369.14 19.69 372.17C20.07 372.9 20.42 373.65 20.76 374.4C20.79 374.47 20.82 374.53 20.84 374.6C20.91 374.76 20.77 374.43 20.87 374.68C20.93 374.84 21 375 21.06 375.16C21.17 375.44 21.27 375.72 21.36 376C21.95 377.83 24.85 377.05 24.25 375.2C23.24 372.09 21.57 369.11 19.78 366.38C17.79 363.36 15.31 360.03 12 358.36C10.38 357.54 8.50003 357.16 6.75003 357.8C5.99003 358.08 5.47004 358.82 5.70004 359.65C5.90004 360.38 6.78002 360.98 7.55002 360.7V360.69Z" fill="black"></path><path d="M49.64 382.81C53.73 376.42 61.3 373.33 68.71 373.56C72.13 373.67 75.44 374.57 78.2 376.64C80.66 378.49 82.46 381.08 83.91 383.76C85.7 387.05 87.02 390.56 88.42 394.02C89.13 395.79 92.04 395.02 91.31 393.22C88.65 386.63 86.16 379.17 80.4 374.58C74.14 369.59 64.97 369.53 57.79 372.47C53.37 374.28 49.62 377.25 47.04 381.29C46 382.92 48.59 384.43 49.63 382.8L49.64 382.81Z" fill="black"></path><path d="M92.34 405.94C92.85 403.25 92.27 400.6 92.55 397.91C92.8 395.53 94.2 393.23 95.49 391.27C97.81 387.74 100.86 384.54 104.94 383.14C111.51 380.89 120.36 382.32 124.34 388.51C127.32 393.14 128.75 398.66 130.3 403.89C130.85 405.74 133.74 404.95 133.19 403.09C131.65 397.9 130.18 392.55 127.44 387.84C125.29 384.14 121.93 381.58 117.89 380.22C113.98 378.91 109.62 378.79 105.63 379.8C101.08 380.95 97.49 383.72 94.62 387.37C92.78 389.72 91.19 392.3 90.15 395.11C88.94 398.39 90.08 401.79 89.45 405.12C89.1 407.01 91.99 407.82 92.34 405.92V405.94Z" fill="black"></path><path d="M78.37 372.45C79.81 371.83 80.96 370.81 82.21 369.89C83.7 368.8 85.24 368.21 87.08 367.97C90.93 367.47 94.85 368.48 98.34 370.06C103.23 372.28 109.9 375.67 110.5 381.71C110.69 383.61 113.69 383.63 113.5 381.71C112.77 374.38 105.96 370.24 99.85 367.47C95.86 365.66 91.49 364.48 87.08 364.97C85.07 365.2 83.13 365.68 81.42 366.79C79.87 367.8 78.57 369.12 76.85 369.86C75.13 370.6 76.61 373.21 78.36 372.45H78.37Z" fill="black"></path><path d="M121.47 383.83C124.81 378.89 129.29 374.37 135.37 373.29C140.85 372.31 147.22 374.06 151.44 377.69C153.93 379.83 155.72 382.54 157.01 385.54C157.77 387.31 160.35 385.78 159.6 384.03C157.05 378.08 152.32 373.45 146.16 371.37C139.68 369.19 132.44 369.72 126.81 373.77C123.61 376.07 121.07 379.08 118.88 382.33C117.8 383.93 120.39 385.44 121.47 383.84V383.83Z" fill="black"></path><path d="M148.85 402.54C151.23 393.79 156.9 386.47 165.41 382.97C169.7 381.2 174.51 380.19 179.15 380.74C183.79 381.29 187.77 383.56 190.83 386.95C192.85 389.18 194.57 391.8 194.36 394.93C194.15 398.06 192.35 400.67 190.7 403.09C189.61 404.69 192.21 406.19 193.29 404.6C195.01 402.07 196.69 399.32 197.2 396.25C197.71 393.18 196.98 390.33 195.3 387.83C192.35 383.4 187.98 379.91 182.83 378.44C172.95 375.63 161.16 379.81 154.11 386.98C150.1 391.07 147.44 396.25 145.94 401.74C145.43 403.61 148.32 404.4 148.83 402.54H148.85Z" fill="black"></path><path d="M98.8 366.67C104.27 362.86 109.5 357.98 116.22 356.6C119.16 356 122.24 356.08 125.01 357.26C127.78 358.44 130.36 360.26 132.58 362.3C134.8 364.34 137.09 366.85 137.79 369.86C138.23 371.74 141.12 370.94 140.68 369.06C139.99 366.09 138 363.5 135.92 361.36C133.54 358.9 130.71 356.74 127.65 355.2C121.14 351.91 113.86 353.23 107.73 356.79C104.05 358.93 100.77 361.66 97.29 364.08C95.72 365.18 97.21 367.78 98.8 366.67Z" fill="black"></path><path d="M147.14 371.09C148.62 369.95 149.88 368.57 151.32 367.38C152.87 366.11 154.66 365.56 156.59 365.14C158.66 364.7 160.76 364.48 162.87 364.33C164.72 364.2 166.65 364.01 168.5 364.17C175.21 364.72 179.39 371.76 181.7 377.33C182.43 379.09 185.33 378.32 184.59 376.53C182.41 371.26 179.25 365.71 174.1 362.85C171.39 361.35 168.58 361.07 165.54 361.19C161.96 361.33 158.31 361.59 154.82 362.47C152.98 362.93 151.29 363.63 149.79 364.79C148.29 365.95 147.1 367.35 145.63 368.49C144.98 368.99 144.65 369.77 145.09 370.54C145.45 371.17 146.5 371.57 147.14 371.08V371.09Z" fill="black"></path><path d="M186.49 378.38C189.73 373.72 195.74 371.37 201.21 370.77C206.68 370.17 213.05 371.01 217.33 374.81C219.74 376.95 221.17 379.86 221.49 383.06C221.68 384.96 224.68 384.98 224.49 383.06C222.96 367.62 204.12 364.88 192.32 370.12C188.98 371.6 186.01 373.85 183.91 376.86C182.8 378.45 185.4 379.95 186.5 378.37L186.49 378.38Z" fill="black"></path><path d="M199.91 401.73C201.47 400.57 202.64 399.12 203.81 397.59C205.05 395.98 206.37 394.55 207.97 393.29C210.99 390.91 214.6 389.04 218.36 388.15C223.25 386.99 230.86 386.97 233.27 392.35C234.06 394.11 236.64 392.58 235.86 390.84C233.67 385.96 227.9 384.5 222.99 384.59C216.86 384.7 210.99 387.17 206.19 390.92C204.69 392.09 203.35 393.36 202.18 394.86C201.01 396.36 199.94 398.02 198.4 399.16C196.86 400.3 198.36 402.9 199.91 401.75V401.73Z" fill="black"></path><path d="M212.51 367.47C213.26 364.98 214.52 362.64 216.62 361.03C218.6 359.5 221.06 358.76 223.5 358.36C226.09 357.93 228.7 357.82 231.24 358.58C233.78 359.34 236.2 360.75 238.09 362.64C240.2 364.76 241.49 367.45 241.23 370.48C241.06 372.4 244.06 372.39 244.23 370.48C244.82 363.8 239.29 358.48 233.52 356.2C230.49 355 227.44 354.86 224.24 355.25C221.24 355.62 218.2 356.36 215.65 358.06C212.58 360.1 210.67 363.19 209.62 366.67C209.06 368.52 211.96 369.31 212.51 367.47Z" fill="black"></path><path d="M164.83 2.99001C155.02 2.74001 145.19 2.34001 135.38 2.63001C130.48 2.77001 125.59 3.3 120.69 3.44C115.98 3.58 111.27 3.27 106.56 3.31C101.03 3.36 95.51 3.67 90.01 4.2C88.11 4.38 88.09 7.39 90.01 7.2C94.86 6.73 99.73 6.44 104.61 6.34C109.34 6.25 114.05 6.47001 118.78 6.46001C123.66 6.46001 128.51 5.88 133.39 5.69C138.29 5.49 143.19 5.5 148.09 5.58C153.67 5.67 159.25 5.84 164.83 5.98C166.76 6.03 166.76 3.03 164.83 2.98V2.99001Z" fill="#FFD400"></path><path d="M175.08 4.95C175.01 4.7 174.88 4.47999 174.69 4.28999L174.39 4.06C174.16 3.92 173.9 3.86 173.63 3.86H172.74C172.53 3.86 172.34 3.90001 172.16 3.99001C171.97 4.05001 171.81 4.15 171.68 4.3C171.53 4.44 171.43 4.6 171.37 4.78C171.28 4.96 171.23 5.15 171.24 5.36C171.26 5.49 171.28 5.62999 171.29 5.75999C171.36 6.00999 171.49 6.23 171.68 6.42L171.98 6.64999C172.21 6.78999 172.47 6.85001 172.74 6.85001H173.63C173.84 6.85001 174.03 6.81 174.21 6.72C174.4 6.66 174.56 6.56 174.69 6.41C174.84 6.27 174.94 6.10999 175 5.92999C175.09 5.74999 175.14 5.56001 175.13 5.35001C175.11 5.22001 175.09 5.08 175.08 4.95Z" fill="#FFD400"></path><path d="M52.7601 9.99C60.6901 7.96 68.86 6.88 76.99 6.05C87.49 4.98 98.04 4.40999 108.59 4.11999C131.18 3.48999 153.88 4.01999 176.39 6.11999C186.58 7.06999 196.8 8.32 206.8 10.57C208.68 10.99 209.48 8.09999 207.6 7.67999C198.68 5.67999 189.57 4.46999 180.49 3.52999C169.48 2.38999 158.43 1.7 147.37 1.3C125.03 0.489996 102.55 0.699999 80.28 2.74C70.8 3.61 61.2201 4.73 51.9801 7.1C50.1101 7.58 50.9 10.47 52.78 9.99H52.7601Z" fill="black"></path></svg> 