<?xml version="1.0" encoding="UTF-8"?> <svg xmlns="http://www.w3.org/2000/svg" width="158" height="119" viewBox="0 0 158 119" fill="none"><path d="M0.550293 27.465C0.550293 28.1871 1.28887 40.9093 1.28887 40.9093L6.07499 75.5273L7.2834 92.2183L7.51192 96.9972C7.51192 96.9972 6.63258 95.8838 7.91229 96.0429C9.192 96.2037 10.2359 96.5694 10.2359 96.5694L10.894 98.6644C10.894 98.6644 13.7551 98.988 13.8739 99.116C13.9927 99.244 14.5924 102.048 14.7734 102.407C14.9544 102.765 18.8666 104.469 18.7514 104.577C18.6363 104.685 18.7533 107.048 18.7533 107.048C18.7533 107.048 20.2743 107.103 20.4132 107.334C20.5522 107.564 20.4352 108.566 20.5741 108.546C20.7131 108.526 22.6582 108.796 22.6582 108.796L21.5522 112.973C21.5522 112.973 23.2067 113.1 23.7204 112.973C24.2341 112.847 25.0951 113.03 25.0951 113.03L25.4004 115.63C25.4004 115.63 26.3109 114.048 28.3931 114.487C30.4754 114.928 32.9398 115.383 32.9398 115.383C32.9398 115.383 32.1939 118.546 33.8155 118.577C35.437 118.608 45.6619 108.028 45.6619 108.028C45.6619 108.028 54.289 100.593 64.7881 96.7175C75.2854 92.8418 95.759 87.0757 96.0844 86.9185C96.4098 86.7613 102.927 83.8801 103.03 83.9606C103.132 84.041 114.324 79.6918 114.324 79.6918L139.618 69.6369C139.618 69.6369 148.9 66.7558 151.461 67.2366C154.022 67.7174 157.222 68.1964 157.222 68.1964L154.273 52.3663C154.273 52.3663 152.381 35.8562 152.721 31.7026C153.061 27.5491 152.298 19.8123 153.399 13.9988C154.5 8.18522 154.589 6.48686 154.223 6.61483C153.858 6.7428 152.456 6.91099 152.357 6.58741C152.258 6.26382 151.777 4.82323 151.618 4.98411C151.459 5.14499 148.871 5.98229 148.871 5.98229L147.403 4.5161C147.403 4.5161 146.49 4.64956 146.174 4.65687C145.858 4.66419 145.426 3.46309 145.083 3.5033C144.739 3.54352 144.083 3.40093 144.083 3.40093C144.083 3.40093 141.337 0.693424 141.518 0.759237C141.699 0.825051 136.086 4.46674 135.852 4.24554C135.618 4.02433 135.755 3.15413 134.726 2.46857C133.697 1.78301 132.256 0.759237 132.256 0.759237L90.4884 11.2254C90.4884 11.2254 67.5889 15.3205 67.0368 15.3534C66.4847 15.3863 28.9562 21.4979 28.9562 21.4979C28.9562 21.4979 3.52105 26.1341 3.15542 26.2822C2.78979 26.4302 0.550293 27.4668 0.550293 27.4668V27.465Z" fill="#57CE5D"></path><path d="M23.5977 82.3226C23.5977 82.3226 26.4753 94.9241 26.7952 98.2842C27.1151 101.644 27.7934 110.465 28.1736 110.776C28.5539 111.087 33.3692 110.776 33.3692 110.776C33.3692 110.776 33.5155 107.822 33.4351 107.293C33.3546 106.765 26.9908 89.8125 26.9908 89.8125L23.0347 75.9587L23.5959 82.3226H23.5977Z" fill="#A9FFAB"></path><path d="M21.5518 43.0975C21.5153 43.3919 22.4549 47.6332 22.4549 47.6332L24.7182 59.6588L27.1167 72.955C27.1167 72.955 28.8754 81.2421 28.9559 81.5218C29.0363 81.8015 30.157 84.2 30.316 84.6808C30.4751 85.1616 31.7566 88.3609 31.9157 88.6808C32.0747 89.0008 34.8462 95.5693 35.3014 97.4852C35.7566 99.403 38.2813 107.083 38.2996 107.803C38.3179 108.524 38.6341 108.271 38.6341 108.271L48.2978 101.844C48.2978 101.844 50.7877 98.3262 61.0364 95.0227C71.285 91.7192 77.5648 88.6424 82.1059 88.0209C86.6471 87.3993 96.4039 84.6168 96.4039 84.6168L103.132 80.838L115.499 75.3846C115.499 75.3846 125.073 70.5071 131.386 67.9111C137.698 65.3151 142.98 64.5144 144.26 64.5144C145.539 64.5144 152.722 64.3279 152.722 64.3279L149.221 31.5472C149.221 31.5472 148.261 13.1468 148.181 12.9055C148.101 12.6642 101.313 23.9384 101.313 23.9384C101.313 23.9384 30.0016 40.0025 29.8389 40.0957C29.6762 40.1889 23.2611 41.8507 23.1076 41.9805C22.954 42.1103 21.5518 43.0957 21.5518 43.0957V43.0975Z" fill="#A9FFAB"></path><path d="M79.1428 70.8783C79.5194 69.8618 79.066 67.2677 79.2433 65.6333C79.4225 63.9971 78.2854 63.4212 78.2854 63.4212C78.2854 63.4212 76.459 63.4048 76.4737 63.5455C76.4883 63.6863 76.5907 64.3481 76.6949 65.1306C76.7991 65.913 76.6346 67.4578 76.5267 67.5364C76.4188 67.615 69.3585 84.2769 67.3384 88.2714C65.3182 92.2659 60.7479 88.0685 60.7479 88.0685L59.2725 85.9496L58.8667 85.0374C58.8667 85.0374 56.9764 84.0282 56.7954 82.8253C56.6144 81.6224 56.4956 80.5218 56.4956 80.5218C56.4956 80.5218 55.15 79.743 54.8429 78.0428C54.5358 76.3427 54.7204 74.0904 54.7533 74.2713C54.7862 74.4523 53.1647 72.9569 52.8356 71.4395C52.5047 69.9222 52.6747 68.264 52.6747 68.264C52.6747 68.264 51.7369 66.4231 51.8411 65.4267C51.9453 64.4304 52.1464 63.264 52.1464 63.264C52.1464 63.264 51.6327 62.2055 51.406 61.3079C51.1774 60.4121 51.2835 58.9532 51.2835 58.9532C51.2835 58.9532 50.6071 57.4157 50.5467 56.0739C50.4882 54.732 50.9763 54.6771 50.9763 54.6771C50.9763 54.6771 50.9252 53.5437 50.8612 53.0336C50.7972 52.5236 51.2689 52.4121 51.1263 52.4029C50.9837 52.3938 49.9562 50.4651 50.1756 48.944C50.395 47.423 50.618 47.3499 50.618 47.3499C50.618 47.3499 50.3036 46.37 50.2615 44.7941C50.2195 43.2182 50.6381 42.6588 50.7698 42.4267C50.9014 42.1945 51.044 42.0683 51.044 42.0683C51.044 42.0683 50.3932 39.7905 51.9581 37.8179C53.523 35.8471 54.5687 36.2511 54.5687 36.2511C54.5687 36.2511 55.3475 34.9952 57.2122 34.6204C59.0769 34.2456 59.6181 34.7758 59.6181 34.7758C59.6181 34.7758 61.3895 33.4413 63.6199 34.0921C65.8484 34.7447 66.6949 36.2712 66.6949 36.2712C66.6949 36.2712 67.4736 35.8014 68.3896 36.9385C69.3055 38.0775 69.9782 39.2749 70.0002 39.3992C70.0221 39.5235 70.0404 39.6826 70.0404 39.6826C70.0404 39.6826 71.3018 38.7886 72.4901 38.9513C73.6784 39.114 74.5194 40.0464 74.8027 40.5656C75.0879 41.0848 75.8905 43.2 76.2634 43.6332C76.6364 44.0665 76.9581 44.5162 76.9581 44.5162C76.9581 44.5162 79.0934 42.849 80.9545 41.944C82.8156 41.0391 85.5231 40.9788 87.8375 41.4248C90.152 41.8727 91.4335 42.5784 91.4335 42.5784C91.4335 42.5784 92.2617 39.7246 92.2032 38.699C92.1447 37.6734 93.4865 35.2201 95.5615 35.8069C97.6364 36.3937 100.677 38.0117 101.088 40.6972C101.501 43.3828 99.013 45.7265 99.013 45.7265C99.013 45.7265 97.631 47.317 97.4481 47.9148C97.2653 48.5126 97.4463 49.0263 97.4463 49.0263C97.4463 49.0263 99.3567 50.9276 100.284 53.8782C101.21 56.8289 99.247 58.9404 99.247 58.9404L98.6346 59.5711C98.6346 59.5711 98.3677 60.2329 97.9344 60.3883C97.5012 60.5455 95.5816 60.9916 95.4426 61.0245C95.3037 61.0574 95.0734 61.381 94.9838 61.9697C94.8942 62.5583 94.8192 62.7594 94.8412 62.9203C94.8631 63.0812 95.1099 65.2805 95.8979 65.9094C96.6858 66.5382 97.9125 67.1927 97.9125 67.1927C97.9125 67.1927 101.569 71.2201 96.3787 76.8947C91.1885 82.5694 77.5742 84.7778 77.2707 84.8217C76.9673 84.8655 76.119 72.4542 76.119 72.4542C76.119 72.4542 76.9801 68.1013 77.545 67.637C78.1099 67.1726 79.1574 71.0081 79.1574 71.0081L79.1391 70.8801L79.1428 70.8783Z" fill="#57CE5D"></path><path d="M55.059 37.412C51.8049 38.0774 56.591 46.3955 56.591 46.3955C56.591 46.3955 54.719 46.5948 55.4868 48.6935C56.2528 50.7904 58.4447 52.8617 58.4447 52.8617C58.4447 52.8617 57.2857 52.4394 57.5691 54.4833C57.8524 56.5272 61.0078 60.465 61.0078 60.465C61.0078 60.465 59.3095 59.9075 59.9639 61.7649C60.6184 63.6204 62.2473 65.4687 62.8652 65.9587C63.4831 66.4486 64.315 68.8947 64.315 68.8947C64.315 68.8947 62.5325 67.9788 62.5526 69.1049C62.5727 70.2311 63.6916 73.8088 64.3095 74.6698C64.9274 75.5309 66.0663 76.1251 65.496 75.8271C64.9256 75.5291 63.538 75.7101 63.9969 77.5766C64.4557 79.4432 66.5727 81.3061 66.5727 81.3061C66.5727 81.3061 65.3899 86.7448 65.3771 87.8874C65.3643 89.03 65.4356 90.8874 65.4356 90.8874C65.4356 90.8874 63.1468 90.1562 61.4228 88.7814C59.6989 87.4066 59.4484 85.8088 59.4484 85.8088C59.4484 85.8088 58.0444 84.9953 57.5014 83.637C56.9584 82.2786 56.9676 81.5401 56.9676 81.5401L56.942 81.3664C56.942 81.3664 55.0882 80.4212 54.9767 77.9532C54.867 75.4852 55.2272 75.4998 55.2272 75.4998C55.2272 75.4998 53.3807 73.7484 52.9073 72.6479C52.4338 71.5473 52.7519 69.2292 52.7519 69.2292C52.7519 69.2292 51.9548 67.8801 51.8378 66.7174C51.7208 65.5546 52.0718 64.2475 52.0718 64.2475C52.0718 64.2475 51.399 63.2859 51.165 62.1049C50.931 60.9239 51.0791 59.966 51.0791 59.966C51.0791 59.966 50.2034 58.1634 50.2564 57.1104C50.3094 56.0555 50.5434 55.8837 50.5434 55.8837C50.5434 55.8837 50.4411 54.487 50.4795 54.061C50.5178 53.635 50.7263 53.423 50.7263 53.423C50.7263 53.423 49.5672 51.9239 49.6714 49.9952C49.7756 48.0646 50.0663 48.3882 50.0663 48.3882C50.0663 48.3882 49.5891 46.6131 49.6239 45.1725C49.6586 43.7319 50.3387 43.2676 50.3387 43.2676C50.3387 43.2676 49.6897 42.306 50.4612 40.0354C51.2327 37.7648 52.293 37.6204 52.9621 37.4357C53.6312 37.2511 53.8451 37.0445 54.218 37.2218C54.591 37.3992 55.059 37.4156 55.059 37.4156V37.412Z" fill="#93E593"></path><path d="M59.8159 34.891C60.7666 35.2474 61.7373 36.3535 61.7903 36.7045C61.8433 37.0555 61.1596 37.0482 62.4869 36.348C63.8141 35.6478 64.9019 39.6496 64.9348 40.3005C64.9677 40.9513 65.198 42.4376 65.2035 42.1944C65.209 41.9513 65.1359 40.3827 66.0024 41.2054C66.869 42.0281 67.1852 47.2438 67.0975 47.359C67.0097 47.4742 67.3699 49.2036 67.3699 49.2036C67.3699 49.2036 67.1103 47.986 68.5143 49.2804C69.9183 50.5747 69.7958 54.7594 69.7958 54.7594C69.7958 54.7594 69.9311 53.3389 70.7629 53.902C71.5947 54.465 71.4028 61.8746 71.4028 61.8746C71.4028 61.8746 71.6587 61.0848 72.666 62.2713C73.6734 63.4578 73.5253 67.9916 73.6002 67.9422C73.6752 67.8929 76.6569 66.3773 76.6569 66.3773C76.6569 66.3773 76.6953 64.072 76.4339 63.849L76.1725 63.6259C76.1725 63.6259 74.6441 63.1616 74.4138 62.913L74.1834 62.6662C74.1834 62.6662 73.3041 61.7704 73.0591 61.7466C72.8141 61.7228 71.7081 60.1579 71.5637 59.646C71.4211 59.1323 71.4156 56.913 71.5984 55.9861C71.7812 55.0592 72.8818 52.8416 73.0024 52.1049C73.1231 51.3681 73.5947 52.2109 73.8525 53.4742C74.1103 54.7356 74.4046 54.5729 74.5692 54.3023C74.7337 54.0318 74.3333 55.2091 74.9019 56.8892C75.4704 58.5693 76.3626 58.6844 76.4302 58.6077C76.4979 58.5309 76.1944 59.913 77.1505 60.5528C78.1066 61.1927 79.1524 60.2731 79.1524 60.2731C79.1524 60.2731 79.5801 60.5839 79.8288 61.679C80.0792 62.774 79.7703 64.7027 80.3279 64.4047C80.8854 64.1068 81.178 63.8819 81.0372 64.4047C80.8964 64.9276 80.4887 65.7064 80.9769 66.9806C81.4631 68.253 82.7483 67.8801 82.6313 68.509C82.5143 69.1378 81.635 71.5985 82.2035 72.7741C82.7721 73.9496 89.8507 77.796 92.7484 75.7997C95.6442 73.8033 95.9458 70.8472 95.5656 69.5729C95.1853 68.2987 94.1542 67.445 94.8233 67.4888C95.4924 67.5327 93.88 65.019 93.88 65.019C93.88 65.019 93.8617 65.4925 93.9769 64.445C94.0921 63.3974 94.0116 63.1652 94.0189 62.306C94.0262 61.4468 93.6734 61.1141 94.1999 60.0976C94.7264 59.0811 94.2475 58.7777 95.2968 58.8161C96.3462 58.8545 95.7721 56.4011 95.7721 56.4011C95.7721 56.4011 95.7045 56.4687 96.3279 55.763C96.9513 55.0574 95.9476 53.0318 95.9476 53.0318C95.9476 53.0318 97.0409 54.2201 97.0482 52.0537C97.0555 49.8873 96.5601 48.7411 96.5601 48.7411C96.5601 48.7411 97.0811 49.8764 97.2511 48.9787C97.4211 48.0811 97.2621 48.3005 97.4595 47.9166C97.6551 47.5327 99.0866 45.9659 99.7996 44.7959C100.513 43.6259 101.701 42.2859 100.577 39.5235C99.4522 36.7612 95.8873 35.4869 94.2822 35.8745C92.6771 36.2621 92.2913 38.1378 92.2109 38.9403C92.1304 39.7429 91.7502 41.5656 91.6259 41.7283C91.5016 41.891 91.4412 42.5784 91.4412 42.5784C91.4412 42.5784 89.2822 41.5893 88.0244 41.401C86.7666 41.2127 87.5619 40.997 86.7666 41.2127C85.9714 41.4266 84.7685 41.7593 85.7118 43.2987C86.6551 44.838 87.5399 45.8325 86.6953 46.8873C85.8507 47.9422 85.7721 48.4467 86.1688 49.2786C86.5655 50.1104 87.5345 51.5162 87.2474 52.2292C86.9604 52.9422 86.3845 54.0263 87.1999 54.6625C88.0171 55.2987 88.3224 56.0537 88.2328 56.891C88.1012 58.1268 86.4357 57.9056 86.4357 57.9056C86.4357 57.9056 84.5089 58.4431 83.7995 57.7155C83.0902 56.9879 83.5984 56.1963 83.9037 55.4303C84.209 54.6661 84.0299 54.2073 83.465 53.8069C82.9001 53.4065 83.4759 53.1012 83.5454 52.1213C83.6149 51.1415 82.7593 51.0793 82.7575 50.242C82.7556 49.4047 83.3059 49.0756 82.4485 48.0318C81.5911 46.9879 80.8032 47.5893 80.8324 46.1542C80.8617 44.7191 80.8068 44.6679 80.5052 43.8105C80.2035 42.9531 79.4229 42.9604 79.4229 42.9604L76.9659 44.5199C76.9659 44.5199 75.0792 41.1414 74.6715 40.348C74.2639 39.5546 72.5344 38.8197 71.5655 38.9787C70.5966 39.1378 70.2273 39.7136 70.2273 39.7136C70.2273 39.7136 69.7666 38.2529 68.5765 37.167C67.3845 36.0811 67.0499 35.8105 66.9 35.8873C66.7501 35.9641 66.1925 34.5272 63.6295 34.0939C61.0664 33.6606 60.0463 34.8873 59.9695 34.8727C59.8927 34.858 59.8214 34.8928 59.8214 34.8928L59.8159 34.891Z" fill="#93E593"></path><path d="M95.5782 47.9641C95.5782 47.9641 93.58 47.0299 90.8396 47.4303C88.0992 47.8325 87.6056 48.8289 87.6056 48.8289L87.2217 50.1195C87.3405 50.1726 88.4721 51.4705 89.9292 52.2183C90.1248 52.1195 90.3259 52.0409 90.5306 51.9715C91.1888 51.6698 91.8908 51.4541 92.5965 51.3005C93.2893 51.1488 94.0224 51.0464 94.7372 51.1104C94.9237 51.0921 95.1102 51.083 95.3003 51.0848C95.3113 51.0848 95.3241 51.0848 95.335 51.0848C95.6531 50.6552 95.8488 50.1799 95.9456 49.7009C96.218 48.348 95.5782 47.9623 95.5782 47.9623V47.9641Z" fill="#57CE5D"></path><path d="M82.3768 49.5601C82.3768 49.5601 81.1793 48.4888 78.0971 49.2786C75.0148 50.0683 74.2945 50.8928 74.0733 50.9641C74.0733 50.9641 73.8557 52.1908 75.0678 53.4577C75.161 53.5546 75.2524 53.6479 75.3439 53.7356C75.6254 53.6296 75.9435 53.6314 76.2378 53.6497C76.3822 53.6588 76.5248 53.6771 76.6656 53.6954C76.6821 53.6899 76.6985 53.6844 76.715 53.6808C77.183 53.5437 77.6473 53.4705 78.1355 53.4852C78.194 53.4852 78.2543 53.4925 78.3128 53.4961C78.8027 53.4376 79.2963 53.4157 79.7826 53.4705C79.8228 53.4742 79.8576 53.4925 79.8868 53.5162C79.9526 53.5199 80.0203 53.5217 80.0861 53.5272C80.3384 53.529 80.5888 53.5619 80.8302 53.6387C80.8558 53.6442 80.8813 53.6515 80.9069 53.657C82.4152 52.5345 82.9033 50.8453 82.9033 50.8453L82.375 49.5619L82.3768 49.5601Z" fill="#57CE5D"></path><path d="M70.0167 42.2529C69.9418 42.2858 69.8705 42.3242 69.8028 42.3681C69.0387 42.8617 68.6036 44.0518 68.8211 44.5655C69.057 45.1249 69.7498 45.5436 69.7846 45.8489C69.8193 46.1542 69.8266 46.3992 69.8266 46.3992C69.8266 46.3992 70.7626 46.4887 71.0314 47.1962C71.3001 47.9056 71.4628 48.2364 71.4628 48.2364C71.4628 48.2364 72.9857 49.0171 72.971 49.2218C72.9564 49.4266 72.6584 48.5143 72.801 48.5582C72.9436 48.6021 73.9491 47.1103 73.9491 47.1103L74.0789 45.0609C74.0789 45.0609 74.1685 45.1889 73.695 44.5564C73.2215 43.9238 72.854 43.039 72.7645 43.0043C72.6749 42.9695 72.1758 43.3352 71.4171 42.571C70.6584 41.8068 70.3531 41.8489 70.3531 41.8489C70.3531 41.8489 70.6493 41.9805 70.3056 41.9933C69.9619 42.0061 70.0186 42.2511 70.0186 42.2511L70.0167 42.2529Z" fill="#57CE5D"></path><path d="M94.8286 39.9641C94.8286 39.9641 94.9053 40.8709 94.5598 41.5016C94.2143 42.1323 94.0991 42.1268 94.0991 42.1268C94.0991 42.1268 94.9529 44.178 94.9547 44.3407C94.9565 44.5034 96.313 45.2804 96.313 45.2804L96.4318 45.7722C96.4318 45.7722 96.675 45.4522 97.0644 45.061C97.4538 44.6698 97.6329 44.5857 97.6329 44.5857C97.6329 44.5857 97.5013 43.529 98.1393 42.9239C98.7774 42.3188 98.9163 42.1871 98.7829 42.1597C98.6494 42.1323 98.4191 41.3827 98.8103 41.1524C99.2015 40.9221 99.132 40.337 99.132 40.337C99.132 40.337 98.8103 38.9093 97.8249 38.4796C96.8414 38.0518 96.4867 38.6131 96.3514 38.6844C96.2161 38.7557 95.4903 39.7685 95.4044 39.7374C95.3185 39.7063 94.8267 39.9623 94.8267 39.9623L94.8286 39.9641Z" fill="#57CE5D"></path><path opacity="0.39" d="M85.726 56.5529C85.587 56.4341 84.2159 56.2128 84.4298 57.0081C84.6437 57.8033 85.7461 58.3061 86.2488 58.2165C86.7516 58.1269 87.6565 57.3097 87.5615 56.5858C87.4664 55.8618 86.503 56.4761 86.2031 56.4834C85.9033 56.4907 85.7242 56.5529 85.7242 56.5529H85.726Z" fill="black"></path><path d="M84.9215 58.9495C84.9142 59.0044 85.3237 60.0464 85.7606 60.0537C86.1975 60.061 86.3986 60.0336 86.3986 60.0336C86.3986 60.0336 87.2414 60.1195 87.4644 59.5217C87.6875 58.9258 87.4736 58.1305 87.4736 58.1305L86.4315 57.9056L85.554 58.5674L84.9233 58.9477L84.9215 58.9495Z" fill="#A9FFAB"></path><path opacity="0.21" d="M76.3586 63.4614C76.4902 63.6899 76.5743 64.9733 76.5798 65.0464C76.5853 65.1195 76.7242 66.2694 76.7242 66.2694C76.7242 66.2694 71.9454 69.5016 70.6437 71.8782C69.3421 74.2548 69.545 73.7576 69.545 73.7576C69.545 73.7576 67.9033 74.7923 66.4847 79.6808C65.066 84.5693 64.4627 88.3664 64.4755 88.4669C64.4883 88.5675 64.5761 90.211 64.5761 90.211C64.5761 90.211 61.9637 89.1488 60.6291 87.9843C59.2945 86.8179 58.7699 84.8015 58.7699 84.8015C58.7699 84.8015 57.1154 84.3188 56.6748 82.7393C56.2342 81.1598 56.375 80.4358 56.375 80.4358C56.375 80.4358 55.2068 79.721 54.7059 77.2311C54.2049 74.7393 54.8101 74.306 54.8101 74.306C54.8101 74.306 53.1501 73.0062 52.7954 71.9861C52.4408 70.966 52.5559 68.1798 52.5559 68.1798C52.5559 68.1798 51.6108 66.2987 51.6199 64.9751C51.6272 63.6533 52.0294 63.1798 52.0294 63.1798C52.0294 63.1798 51.2378 61.8398 51.13 60.5711C51.0203 59.3023 51.1665 58.869 51.1665 58.869C51.1665 58.869 50.4243 56.6369 50.4993 55.6295C50.5742 54.6204 50.8612 54.401 50.8612 54.401C50.8612 54.401 50.6656 53.1707 50.7461 52.9513C50.8265 52.7319 50.9618 51.9623 50.9618 51.9623C50.9618 51.9623 50.2726 51.2438 50.1446 49.465C50.0185 47.6862 50.4517 47.0317 50.4517 47.0317C50.4517 47.0317 50.0002 44.5198 50.2781 43.2291C50.5559 41.9385 50.9289 41.986 50.9289 41.986C50.9289 41.986 50.4079 39.8964 51.843 37.7355C53.2781 35.5765 54.3311 36.3242 54.4536 36.1688C54.5761 36.0134 56.4975 34.1578 58.1684 34.3589C59.8393 34.5582 59.6967 34.8105 59.6967 34.8105C59.6967 34.8105 60.8576 33.6331 63.8521 34.0701C63.8521 34.0701 65.6328 34.8361 66.0788 35.3644C66.5249 35.8927 66.5103 35.688 66.5103 35.688C66.5103 35.688 67.5999 36.2547 68.7991 37.4302C69.9984 38.6057 69.9253 39.6021 69.9253 39.6021C69.9253 39.6021 66.9472 42.0372 67.0697 45.0555C67.1922 48.0719 69.4317 49.0482 70.013 49.3023C70.5962 49.5564 72.5688 51.2676 72.7187 51.5418C72.8686 51.816 72.7333 52.3754 72.7333 52.3754C72.7333 52.3754 70.982 55.6826 71.3695 58.2621C71.7571 60.8416 72.6364 61.4541 72.9399 61.6625C73.2434 61.8709 74.024 62.3224 74.4536 62.8069C74.8851 63.2913 74.9015 63.3462 75.311 63.3645C75.7205 63.3828 76.3549 63.4595 76.3549 63.4595L76.3586 63.4614Z" fill="black"></path><path opacity="0.53" d="M94.0991 42.1268C94.1137 42.1451 94.9547 44.3407 94.9547 44.3407L96.0278 44.9696L96.4318 45.7722L97.388 44.7813C97.388 44.7813 97.1229 44.4175 96.7116 44.4705C96.3002 44.5235 95.9876 44.4394 95.8286 44.061L95.6677 43.6826C95.6677 43.6826 95.3642 43.9897 94.9474 43.4522C94.5306 42.9148 94.4392 41.7319 94.4392 41.7319L94.0991 42.1286V42.1268Z" fill="black"></path><path opacity="0.53" d="M87.2211 50.1196L87.8554 48.4413C87.8554 48.4413 88.4368 47.7539 91.1644 47.4925C93.892 47.2311 95.5757 47.9642 95.5757 47.9642L96.0876 49.0026C96.0876 49.0026 95.892 49.6826 95.9432 49.7009C95.9944 49.7192 96.3838 48.9532 93.7659 48.2311C91.148 47.509 89.8628 48.2366 88.7403 48.5309C87.6178 48.8252 87.2192 50.1177 87.2192 50.1177L87.2211 50.1196Z" fill="black"></path><path opacity="0.53" d="M74.2504 44.8965C74.2431 44.9184 74.0329 47.2603 74.0329 47.2603L73.1736 48.1597L73.0036 49.0409L71.8135 48.348C71.8135 48.348 71.9689 47.9257 72.3784 47.8636C72.7879 47.8014 73.0658 47.6369 73.117 47.2292L73.1681 46.8215C73.1681 46.8215 73.5447 47.0354 73.7989 46.4029C74.053 45.7703 73.8171 44.6094 73.8171 44.6094L74.2522 44.8983L74.2504 44.8965Z" fill="black"></path><path opacity="0.53" d="M83.053 50.7009L81.9835 49.2603C81.9835 49.2603 81.2358 48.7575 78.5411 49.253C75.8446 49.7484 74.064 50.7173 74.064 50.7173L74.2194 52.0537C74.2194 52.0537 74.5941 52.6534 74.5503 52.6863C74.5064 52.7192 73.9214 52.0866 76.2431 50.6753C78.5631 49.2639 79.9982 49.6113 81.159 49.5875C82.3181 49.5638 83.0567 50.6972 83.0567 50.6972L83.053 50.7009Z" fill="black"></path><path opacity="0.39" d="M78.3182 57.5509L80.3256 57.6039C80.3256 57.6039 81.6272 58.9147 82.7058 58.6917C83.7844 58.4687 84.6272 58.423 84.6272 58.423C84.6272 58.423 84.9691 60.1286 86.3987 60.0317C87.8283 59.9349 87.4736 58.1286 87.4736 58.1286C87.4736 58.1286 88.2104 58.0171 89.4682 57.6442C90.7259 57.2712 91.6711 55.6862 91.6711 55.6862L93.4773 55.3315L91.8704 56.3809C91.8704 56.3809 92.044 57.8507 89.7972 58.5272C88.5852 58.891 88.1501 58.5509 88.1501 58.5509C88.1501 58.5509 88.3457 60.6899 86.395 60.7557C84.4444 60.8215 84.4499 59.3773 84.4499 59.3773C84.4499 59.3773 82.7826 60.189 81.6108 59.4321C80.2049 58.5253 79.9325 58.0464 79.9325 58.0464L78.3164 57.5491L78.3182 57.5509Z" fill="black"></path><path opacity="0.39" d="M82.7826 61.5912C83.1994 62.2328 88.278 64.0208 91.0916 60.4102C91.0916 60.4102 89.6437 63.3352 86.6327 63.1981C83.6217 63.061 82.7808 61.5912 82.7808 61.5912H82.7826Z" fill="black"></path><path opacity="0.39" d="M78.2873 63.4193C79.5689 63.5637 79.7554 64.7374 80.9437 65.2091C82.132 65.6807 82.5762 66.0793 82.419 65.9751C82.2618 65.8709 81.2069 65.8416 80.6219 65.6497C80.0369 65.4577 80.2453 65.5272 80.3129 65.9842C80.3806 66.4413 79.7316 66.2219 79.6018 66.0336C79.472 65.8453 79.5396 66.8654 79.5396 66.8654C79.5396 66.8654 79.4903 65.1579 79.0735 64.4248C78.6566 63.6899 78.2837 63.4193 78.2837 63.4193H78.2873Z" fill="black"></path><path opacity="0.39" d="M94.6857 61.1323C94.0349 62.2694 93.1921 63.5912 92.7277 63.9824C92.2652 64.3718 93.9233 63.8746 94.0349 63.4779C94.1464 63.0811 93.8118 63.6095 94.2451 63.7722C94.6784 63.9349 94.6071 63.4285 94.5522 63.0245C94.4974 62.6204 94.7789 62.646 94.8338 62.1927C94.8886 61.7393 95.0623 60.9788 95.0623 60.9788L94.6875 61.1342L94.6857 61.1323Z" fill="black"></path><path d="M85.6698 56.1488C85.5309 56.03 84.1598 55.8088 84.3737 56.604C84.5876 57.3993 85.69 57.902 86.1927 57.8125C86.6954 57.7229 87.6004 56.9057 87.5053 56.1817C87.4102 55.4578 86.4468 56.072 86.147 56.0794C85.8472 56.0867 85.668 56.1488 85.668 56.1488H85.6698Z" fill="#A9FFAB"></path><path d="M88.1608 74.9459C85.7567 74.2512 83.2741 73.5345 81.2576 71.9897C79.2759 70.4724 77.8975 68.0628 78.4569 65.5162C78.541 65.1305 77.9322 65.0537 77.8499 65.4358C77.285 68.008 78.5684 70.5217 80.5008 72.1652C82.6086 73.9586 85.318 74.7576 87.9268 75.5126C88.3034 75.6204 88.5392 75.0555 88.1608 74.9459Z" fill="#3985C4"></path><path d="M86.4185 58.5747C86.3546 58.4285 86.2138 58.2786 86.0621 58.2237C85.8427 58.1433 85.6105 58.1743 85.4332 58.2968C85.3418 58.3005 85.2504 58.3206 85.1827 58.3499C85.0365 58.4138 84.8865 58.5546 84.8317 58.7063C84.7732 58.8709 84.7586 59.061 84.8354 59.2219C84.8646 59.2712 84.8939 59.3206 84.9231 59.37C84.9962 59.4614 85.0858 59.529 85.1918 59.5729C85.4076 59.6935 85.6928 59.6716 85.9158 59.5875C86.1443 59.5016 86.3253 59.3115 86.4222 59.0903C86.4898 58.9349 86.4844 58.7301 86.4185 58.5747Z" fill="#A9FFAB"></path><path d="M87.5963 50.0208C87.5963 50.0208 87.6475 49.7631 87.6512 49.6845C87.6566 49.5748 87.6603 49.4651 87.6713 49.3554C87.7097 49.019 87.8523 48.5821 88.0296 48.242C88.3568 47.6132 88.8376 47.083 89.3733 46.6241C89.4044 46.5967 89.4958 46.5291 89.4172 46.5839C89.43 46.5748 89.4409 46.5656 89.4537 46.5565C89.4903 46.5345 89.525 46.5108 89.5616 46.4888C89.6512 46.4358 89.7444 46.3901 89.8376 46.3462C90.0479 46.2493 90.3294 46.147 90.6018 46.0684C90.9236 45.9751 91.2526 45.902 91.5854 45.8636C92.3441 45.7777 93.1448 45.8325 93.8395 46.1707C94.8815 46.679 95.472 47.6899 95.781 48.7722C95.8779 49.1104 96.4062 48.9678 96.3093 48.626C95.9949 47.5236 95.4099 46.4724 94.4099 45.8581C93.6439 45.3865 92.7188 45.2292 91.8303 45.2914C91.0881 45.3444 90.355 45.5254 89.6731 45.8216C88.8066 46.2 88.1173 46.9861 87.6493 47.7887C87.3751 48.2622 87.1886 48.7795 87.1247 49.3225C87.11 49.4505 87.0991 49.5803 87.0991 49.7082C87.0991 49.7265 87.0991 49.7448 87.0954 49.7631C87.1046 49.6278 87.0735 49.8143 87.0643 49.8545C87.0186 50.0702 87.0552 50.2402 87.2051 50.4048C87.4446 50.6644 87.8322 50.2768 87.5927 50.0172L87.5963 50.0208Z" fill="black"></path><path d="M93.2987 40.7008C93.3608 41.1085 93.5272 41.4851 93.6899 41.8598C93.8526 42.2346 93.9751 42.5984 94.1104 42.975C94.2456 43.3516 94.3901 43.7374 94.4778 44.1341C94.5217 44.3278 94.5509 44.5271 94.5802 44.7227C94.6058 44.8873 94.6423 45.0829 94.5601 45.2383C94.3937 45.5491 94.8672 45.8269 95.0336 45.5143C95.2274 45.1523 95.1378 44.7611 95.0756 44.3754C95.0025 43.9202 94.8764 43.4887 94.721 43.0554C94.5747 42.6478 94.4431 42.2346 94.2731 41.8342C94.103 41.4339 93.8946 41.0043 93.827 40.5509C93.774 40.2035 93.2456 40.3516 93.2987 40.6971V40.7008Z" fill="black"></path><path d="M94.6384 44.443C94.7481 44.5234 94.8559 44.6057 94.9638 44.688C94.9437 44.6715 94.9437 44.6733 94.9638 44.688C94.9784 44.7008 94.9949 44.7117 95.0095 44.7245C95.0369 44.7465 95.0643 44.7684 95.0918 44.7885C95.1466 44.8324 95.2014 44.8744 95.2563 44.9183C95.4629 45.0828 95.6676 45.251 95.8687 45.4211C95.9784 45.5125 96.1503 45.5362 96.2563 45.4211C96.3495 45.3187 96.3733 45.1322 96.2563 45.0335C95.8194 44.666 95.3733 44.3077 94.9126 43.9677C94.7974 43.8817 94.6018 43.9439 94.5378 44.0664C94.4629 44.209 94.5122 44.3498 94.6366 44.4412L94.6384 44.443Z" fill="black"></path><path d="M95.7319 45.955C95.9622 45.6936 96.2712 45.5492 96.5856 45.4102L96.1834 45.1013C96.1066 45.6406 96.1926 46.1689 96.3352 46.6918C96.4778 47.2146 96.6423 47.7685 96.8141 48.2969C97.1377 49.2932 97.8909 50.0391 98.4924 50.8691C99.1505 51.7795 99.7246 52.6991 100.044 53.7832C100.324 54.732 100.394 55.679 100.118 56.6369C100.01 57.0135 99.8562 57.3773 99.6588 57.7156C99.5454 57.9112 99.4595 58.0647 99.3078 58.1982C99.0427 58.4322 99.4321 58.8198 99.6953 58.5858C100.065 58.2603 100.299 57.7174 100.478 57.2731C100.825 56.4066 100.927 55.4596 100.787 54.5382C100.62 53.4523 100.176 52.4011 99.5783 51.4852C99.2584 50.9934 98.9165 50.5144 98.5564 50.0501C98.2419 49.6442 97.9001 49.2548 97.6405 48.8106C97.326 48.2749 97.1962 47.6588 97.0171 47.0702C96.8379 46.4815 96.624 45.8599 96.7118 45.2457C96.7465 45.0007 96.5399 44.8343 96.3096 44.9367C95.9549 45.0939 95.6057 45.2713 95.3461 45.5674C95.114 45.8307 95.4997 46.2201 95.7337 45.955H95.7319Z" fill="black"></path><path d="M94.337 42.3151C95.4449 41.1414 95.231 39.1725 94.5455 37.8398C94.3846 37.5253 93.9111 37.8032 94.072 38.1158C94.6405 39.2182 94.8764 40.944 93.9495 41.9275C93.7082 42.1835 94.0939 42.5729 94.337 42.3151Z" fill="black"></path><path d="M95.1612 40.2256C95.3422 40.0263 95.6311 39.9532 95.8541 39.8124C96.0936 39.6607 96.2545 39.4468 96.3989 39.2073C96.5232 39.0026 96.6384 38.7283 96.8559 38.6022C97.0479 38.4925 97.2819 38.5419 97.4775 38.6168C97.9163 38.785 98.3605 39.1525 98.6 39.5583C98.6932 39.7155 98.759 39.8929 98.8157 40.0647C98.8505 40.1689 98.8834 40.275 98.9016 40.3828C98.9071 40.4121 98.9016 40.4815 98.9108 40.5053C98.9346 40.5565 98.887 40.5218 98.9272 40.487C98.6658 40.7247 99.0552 41.1122 99.3148 40.8746C99.6238 40.5931 99.3898 40.0135 99.2636 39.6973C99.1064 39.3005 98.887 38.9733 98.5689 38.6826C98.1941 38.3426 97.728 38.0409 97.2124 37.9934C96.6621 37.9422 96.302 38.3005 96.0369 38.7375C95.8943 38.9751 95.7755 39.2201 95.5269 39.3645C95.2782 39.509 94.9748 39.6095 94.7718 39.8362C94.536 40.0976 94.9217 40.487 95.1594 40.2238L95.1612 40.2256Z" fill="black"></path><path d="M96.8941 45.924C96.8941 45.902 96.8941 45.8801 96.8941 45.8581C96.8941 45.849 96.8941 45.8399 96.8959 45.8307C96.8996 45.7996 96.8978 45.8069 96.8941 45.849C96.8904 45.849 96.916 45.7503 96.9197 45.7411C96.9234 45.7302 96.9343 45.6753 96.9435 45.6717L96.9307 45.7027C96.9362 45.6918 96.9416 45.6808 96.9453 45.668C96.9617 45.6333 96.98 45.6004 96.9983 45.5693C97.0221 45.5309 97.0477 45.4943 97.0733 45.4578C97.1116 45.4029 97.0349 45.5016 97.0787 45.4505C97.0915 45.4358 97.1043 45.4194 97.1171 45.4048C97.1775 45.3353 97.2415 45.2713 97.3091 45.2091C97.5541 44.9806 97.8374 44.7941 98.0842 44.5693C98.1903 44.4724 98.1903 44.2786 98.0842 44.1817C97.9709 44.0775 97.81 44.0793 97.6967 44.1817C97.1628 44.6662 96.3347 45.0976 96.3438 45.9258C96.3438 46.0684 96.4681 46.2073 96.618 46.2C96.768 46.1927 96.8941 46.0793 96.8923 45.9258L96.8941 45.924Z" fill="black"></path><path d="M97.8927 44.4687C97.8781 43.9751 97.9787 43.5217 98.273 43.1195C98.3973 42.9513 98.5381 42.7575 98.7172 42.6442C98.9238 42.5162 99.156 42.4723 99.3425 42.3023C99.4522 42.2017 99.4448 42.0153 99.3425 41.9147C99.2346 41.8069 99.0646 41.8142 98.9549 41.9147C98.8891 41.9751 98.7977 42.0098 98.7136 42.0427C98.5783 42.0975 98.4558 42.1542 98.3406 42.2438C98.1176 42.4175 97.9439 42.646 97.7776 42.8727C97.443 43.3352 97.3278 43.9056 97.3443 44.4687C97.3553 44.8215 97.9037 44.8215 97.8927 44.4687Z" fill="black"></path><path d="M98.9142 42.1506C98.9234 42.0464 98.9069 41.944 98.8905 41.8417C98.8758 41.7521 98.8576 41.6844 98.8649 41.6204C98.8649 41.6351 98.8722 41.5894 98.874 41.5821C98.8758 41.5747 98.8941 41.5181 98.8813 41.5528C98.896 41.5181 98.9161 41.4852 98.9362 41.4523C98.98 41.381 99.0312 41.3151 99.0788 41.2438C99.2726 40.955 99.5431 40.7155 99.8027 40.4632C99.9087 40.3608 99.9069 40.1799 99.8027 40.0757C99.6985 39.9714 99.5212 39.9714 99.4151 40.0757C99.2726 40.2146 99.1226 40.348 98.9855 40.4906C98.8375 40.6442 98.7113 40.8142 98.5925 40.9897C98.4846 41.147 98.3694 41.3005 98.3365 41.4943C98.2945 41.7301 98.3896 41.9385 98.3694 42.1488C98.3548 42.2969 98.5047 42.423 98.6437 42.423C98.8027 42.423 98.9033 42.2969 98.9179 42.1488L98.9142 42.1506Z" fill="black"></path><path d="M94.3091 62.4103C94.4078 62.0446 94.6253 61.7064 94.9178 61.4651C95.1738 61.253 95.4882 61.1781 95.8082 61.1196C96.3566 61.0172 96.9233 60.9806 97.4663 60.849C98.0093 60.7174 98.4754 60.4633 98.7515 59.9861C99.1263 59.339 99.0147 58.5638 98.7643 57.8947C98.6418 57.5675 98.1116 57.7082 98.236 58.041C98.459 58.6351 98.6144 59.4084 98.1244 59.9185C97.7807 60.2768 97.2433 60.3554 96.7752 60.4194C96.214 60.498 95.6052 60.5346 95.0751 60.7466C94.4389 61.0008 93.9581 61.6114 93.7826 62.264C93.6911 62.6059 94.2195 62.7503 94.3109 62.4103H94.3091Z" fill="black"></path><path d="M98.7682 59.6351C99.929 59.1872 100.172 57.5364 99.642 56.5291C99.4775 56.2165 99.004 56.4943 99.1685 56.8051C99.3587 57.1671 99.3989 57.6808 99.313 58.1013C99.2636 58.3426 99.196 58.5309 99.0643 58.7302C98.9601 58.8892 98.7883 59.041 98.6219 59.1049C98.483 59.158 98.3879 59.2896 98.43 59.4432C98.4665 59.5748 98.6292 59.6881 98.7682 59.6351Z" fill="black"></path><path d="M91.4205 42.7173C91.6581 42.4796 91.7788 42.1524 91.8775 41.8361C91.9762 41.5199 92.0695 41.1725 92.1572 40.8416C92.2706 40.4065 92.3437 39.9623 92.3949 39.5162C92.4461 39.0701 92.4699 38.6186 92.5869 38.1816C92.7916 37.4102 93.3492 36.6588 94.053 36.2694C94.7569 35.88 95.6125 36.0299 96.3145 36.273C97.7825 36.7831 99.2377 37.6935 100.123 38.9952C101.09 40.4193 101.095 42.2584 100.225 43.7338C99.7185 44.5912 98.9945 45.3188 98.3638 46.0829C97.7331 46.8471 97.064 47.6149 97.0677 48.6277C97.0677 48.9806 97.6161 48.9806 97.6161 48.6277C97.6143 47.7027 98.351 46.9458 98.9105 46.2786C99.5174 45.5564 100.19 44.8544 100.678 44.0427C101.587 42.5345 101.687 40.5875 100.803 39.0464C99.9635 37.5857 98.4827 36.5601 96.9525 35.9293C96.1938 35.6167 95.3858 35.4102 94.5613 35.5308C93.7368 35.6515 93.0439 36.2621 92.5722 36.9403C92.287 37.3498 92.0951 37.8105 92 38.3005C91.9049 38.7904 91.883 39.3352 91.8044 39.8489C91.7294 40.3352 91.5942 40.7996 91.468 41.2731C91.3748 41.6204 91.2998 42.0647 91.0366 42.3297C90.7879 42.5802 91.1755 42.9678 91.4241 42.7173H91.4205Z" fill="black"></path><path d="M86.033 58.0355C86.6326 58.3956 87.2798 58.3225 87.9416 58.2238C88.6034 58.1251 89.3383 58.0465 89.9891 57.8125C90.4498 57.6461 90.8739 57.3499 91.2268 57.0117C91.5796 56.6735 91.8959 56.2512 91.9123 55.7503L91.7112 56.0154C92.2725 55.913 92.8282 55.7924 93.3676 55.6041C93.6985 55.4889 93.5558 54.9587 93.2213 55.0757C92.682 55.264 92.1262 55.3865 91.565 55.487C91.4443 55.509 91.3675 55.6388 91.3639 55.7521C91.3511 56.136 91.0147 56.4706 90.7478 56.7083C90.4663 56.9587 90.1262 57.1982 89.7606 57.3097C89.1738 57.4907 88.5558 57.5821 87.9489 57.6717C87.3913 57.754 86.8209 57.8691 86.309 57.562C86.0056 57.3792 85.7295 57.8545 86.033 58.0355Z" fill="black"></path><path d="M85.9933 56.3809C86.1615 56.3791 86.315 56.3151 86.4631 56.2383C86.5271 56.2054 86.5892 56.1689 86.6514 56.1341C86.6825 56.1177 86.7136 56.0994 86.7465 56.0829C86.7647 56.0738 86.7812 56.0647 86.7995 56.0573C86.8452 56.0354 86.7446 56.0738 86.8269 56.0464C86.858 56.0372 86.8872 56.0263 86.9183 56.0208C86.9494 56.0153 86.9183 56.0208 86.9147 56.0208C86.9329 56.0208 86.9512 56.0189 86.9695 56.0189C86.9878 56.0189 87.0061 56.0189 87.0225 56.0226C87.017 56.0226 86.9823 56.0153 87.0134 56.0226C87.0298 56.0263 87.0463 56.0317 87.0627 56.0354C87.0737 56.0391 87.1231 56.0628 87.0792 56.0409C87.0902 56.0464 87.1011 56.0519 87.1121 56.0592C87.1176 56.0628 87.1615 56.0902 87.1359 56.072C87.1121 56.0555 87.145 56.0793 87.1468 56.0811C87.1578 56.0921 87.1706 56.1049 87.1816 56.1158C87.1834 56.1177 87.209 56.1487 87.1925 56.1268C87.1743 56.1012 87.2017 56.1451 87.2053 56.1506C87.2126 56.1615 87.2181 56.1725 87.2236 56.1835C87.2017 56.1396 87.2236 56.189 87.2273 56.1999C87.2291 56.2072 87.2419 56.2584 87.2364 56.2274C87.2309 56.1981 87.2364 56.2402 87.2364 56.2438C87.2364 56.2621 87.2364 56.2804 87.2364 56.2987C87.2364 56.306 87.2273 56.348 87.2364 56.3096C87.2254 56.3645 87.2072 56.4157 87.1889 56.4669C87.1743 56.5071 87.2053 56.4303 87.1889 56.4705C87.1834 56.4833 87.1779 56.4943 87.1724 56.5052C87.1596 56.5345 87.145 56.5619 87.1304 56.5893C87.0957 56.657 87.0573 56.7228 87.017 56.7868C86.9823 56.8435 86.9439 56.8983 86.9055 56.9531C86.9019 56.9568 86.8671 57.0043 86.8854 56.9806C86.9 56.9605 86.8726 56.9952 86.8726 56.9952C86.8507 57.0226 86.8287 57.0482 86.805 57.0738C86.7666 57.1158 86.7264 57.1561 86.6843 57.1945C86.6368 57.2383 86.7136 57.178 86.6715 57.2054C86.6478 57.22 86.624 57.2383 86.5984 57.253C86.5381 57.2895 86.4741 57.3243 86.4083 57.3535C86.3955 57.359 86.3845 57.3645 86.3717 57.37C86.2931 57.4065 86.3955 57.3608 86.3479 57.3809C86.3095 57.3956 86.2711 57.4102 86.2328 57.4248C86.1669 57.4467 86.0993 57.4632 86.0317 57.4796C85.9805 57.4924 86.0225 57.4815 86.0353 57.4796C86.017 57.4815 85.9988 57.4833 85.9805 57.4833C85.953 57.4833 85.869 57.4705 85.9494 57.4851C85.805 57.4577 85.6532 57.5254 85.6112 57.6771C85.5746 57.8105 85.6569 57.9861 85.8031 58.0153C86.1322 58.0775 86.4796 57.9349 86.7666 57.785C87.0536 57.635 87.2529 57.4084 87.432 57.1451C87.6112 56.8818 87.8105 56.5418 87.783 56.2127C87.7501 55.8087 87.4284 55.5089 87.0298 55.4705C86.8123 55.4504 86.613 55.5272 86.4247 55.6277C86.3351 55.6753 86.2474 55.7283 86.156 55.774C86.1377 55.7831 86.1212 55.7923 86.103 55.7996C86.1359 55.7849 86.0902 55.8051 86.0774 55.8087C86.0573 55.816 86.0353 55.8215 86.0134 55.827C85.9567 55.8434 86.0499 55.827 85.9878 55.827C85.8397 55.8288 85.7136 55.9513 85.7136 56.1012C85.7136 56.2511 85.8397 56.3773 85.9878 56.3754L85.9933 56.3809Z" fill="black"></path><path d="M85.9268 58.0811C85.9341 58.0939 85.9415 58.1067 85.9488 58.1213C85.9744 58.1633 85.9451 58.1048 85.9543 58.1341C85.9634 58.1688 85.9744 58.2017 85.9817 58.2365C86.0018 58.3279 86.0018 58.3389 86.0109 58.4376C86.0274 58.6222 86.0329 58.8069 86.0603 58.9897C86.1151 59.3535 86.1316 59.752 86.2797 60.1049C86.3235 60.2091 86.415 60.3187 86.5448 60.3059C86.8848 60.2749 87.1992 60.1798 87.4588 59.9495C87.6764 59.7557 87.7842 59.5418 87.819 59.2602C87.8482 59.0244 87.8464 58.7831 87.8208 58.5454C87.797 58.3242 87.7696 58.0646 87.6087 57.8928C87.5082 57.7849 87.3236 57.7904 87.2212 57.8928C87.1133 58.0006 87.1188 58.1725 87.2212 58.2803C87.2486 58.3096 87.1755 58.2127 87.2102 58.2694C87.2358 58.3096 87.223 58.2639 87.2065 58.2548C87.223 58.2639 87.234 58.3425 87.2395 58.359C87.2504 58.401 87.2577 58.4431 87.265 58.4851C87.2687 58.5125 87.2724 58.5454 87.2669 58.4997C87.2705 58.5308 87.2742 58.5601 87.276 58.5911C87.2943 58.7922 87.2943 58.997 87.276 59.1981C87.276 59.2127 87.2614 59.2803 87.276 59.2054C87.2724 59.2273 87.2687 59.2474 87.265 59.2694C87.2577 59.3023 87.2468 59.3352 87.2395 59.3681C87.2303 59.4138 87.276 59.3206 87.2486 59.348C87.2303 59.3663 87.2175 59.3974 87.2029 59.4193C87.1809 59.4485 87.1517 59.4814 87.1115 59.5217C87.0877 59.5454 87.064 59.5674 87.0384 59.5875C87.0237 59.5984 87.0237 59.6003 87.0384 59.5875C87.0237 59.5984 87.0091 59.6076 86.9945 59.6167C86.9725 59.6314 86.9488 59.6442 86.925 59.6569C86.9177 59.6606 86.8501 59.6917 86.8921 59.6752C86.8336 59.7008 86.7696 59.7191 86.7056 59.7319C86.6289 59.7484 86.6014 59.752 86.5411 59.7575L86.8062 59.9586C86.7294 59.7776 86.6965 59.582 86.6691 59.3882C86.6563 59.295 86.6416 59.1853 86.627 59.0811C86.6197 59.0317 86.6124 58.9842 86.6033 58.9367C86.5996 58.9184 86.5959 58.9001 86.5923 58.8818C86.5813 58.8306 86.5923 58.8983 86.5905 58.8654C86.5521 58.518 86.5868 58.1158 86.3967 57.805C86.2065 57.4942 85.7385 57.7794 85.9232 58.0811H85.9268Z" fill="black"></path><path d="M87.0754 50.2403C87.143 50.4908 87.2875 50.5163 87.463 50.6589C87.6695 50.8271 87.8121 51.0831 87.9968 51.2732C88.3716 51.6553 88.8304 51.9898 89.2856 52.2696C90.0169 52.7193 90.8944 52.9515 91.7463 52.9898C93.3442 53.063 94.9676 52.3646 95.8103 50.9661C96.0425 50.5803 96.2198 50.1471 96.3094 49.7046C96.399 49.2622 96.4648 48.7302 96.1504 48.3701C95.9182 48.1032 95.5325 48.4926 95.7628 48.7577C95.9346 48.9551 95.8122 49.4304 95.7591 49.6535C95.6787 49.999 95.5434 50.3317 95.3643 50.6388C95.0279 51.2184 94.5306 51.6791 93.9365 51.988C92.7153 52.626 91.1705 52.5803 89.9365 51.999C89.4447 51.7686 88.9767 51.4268 88.5727 51.0648C88.3752 50.8875 88.2089 50.6919 88.0407 50.4853C87.9639 50.392 87.8871 50.297 87.7939 50.2202C87.7573 50.1891 87.7189 50.1599 87.6769 50.1361C87.6494 50.1215 87.6202 50.1087 87.5909 50.0977C87.5726 50.0904 87.5763 50.0886 87.6019 50.0922C87.5105 49.7522 86.9822 49.8966 87.0736 50.2385L87.0754 50.2403Z" fill="black"></path><path d="M83.5758 41.7228C83.9085 41.6953 84.2193 41.5674 84.552 41.5326C84.9505 41.4906 85.3491 41.4412 85.7476 41.401C86.5593 41.3187 87.3326 41.4961 88.1114 41.7081C88.8902 41.9202 89.6288 42.2017 90.3838 42.4632C90.7165 42.5783 91.0584 42.6624 91.3582 42.8526C91.6014 43.0061 91.839 43.1743 92.137 43.1908C92.4898 43.2091 92.488 42.6606 92.137 42.6423C91.8902 42.6295 91.6471 42.3663 91.4313 42.2602C91.095 42.0939 90.722 42.0061 90.371 41.8782C89.6196 41.6039 88.8646 41.3388 88.0913 41.1359C87.318 40.933 86.5483 40.7703 85.7476 40.8526C85.3491 40.8946 84.9505 40.944 84.552 40.9842C84.2211 41.0171 83.9048 41.1487 83.5758 41.1743C83.2266 41.2017 83.2229 41.752 83.5758 41.7228Z" fill="black"></path><path d="M92.5707 47.262C91.9308 47.2968 91.2946 47.3991 90.6584 47.507C90.5743 47.5216 90.4994 47.5143 90.4354 47.4905C90.2507 47.5234 90.0643 47.549 89.876 47.5582C89.4336 48.081 89.2087 48.7831 89.3111 49.5143C89.5012 50.8799 90.7645 51.8342 92.1301 51.6423C93.4957 51.4522 94.45 50.1889 94.2581 48.8233C94.185 48.3022 93.9564 47.8397 93.6237 47.4796C93.2654 47.4467 92.9199 47.3315 92.5707 47.2584V47.262Z" fill="black"></path><path d="M91.6566 49.1799C92.1625 49.1799 92.5725 48.7698 92.5725 48.264C92.5725 47.7581 92.1625 47.3481 91.6566 47.3481C91.1508 47.3481 90.7407 47.7581 90.7407 48.264C90.7407 48.7698 91.1508 49.1799 91.6566 49.1799Z" fill="#A9FFAB"></path><path d="M87.8079 49.0372C87.9853 48.6094 88.4441 48.3516 88.8536 48.1926C89.3326 48.0061 89.8408 47.9037 90.3436 47.8068C91.0273 47.677 91.7037 47.5692 92.4021 47.5728C93.1443 47.5746 93.9067 47.6697 94.6288 47.8489C94.8811 47.911 95.0657 48.0061 95.3125 48.1085C95.5264 48.1962 95.7677 48.3077 95.9341 48.0792C96.1425 47.794 95.6672 47.5198 95.4606 47.8032L95.4569 47.8086L95.6215 47.6825C95.7202 47.6679 95.7239 47.6916 95.6416 47.6532C95.5977 47.6331 95.5484 47.6185 95.5026 47.6002C95.4094 47.5618 95.318 47.5216 95.2248 47.4814C94.9597 47.3681 94.6928 47.2986 94.4094 47.2492C93.6306 47.1103 92.8573 47.0043 92.0639 47.0335C91.3893 47.0573 90.7293 47.1779 90.0694 47.3059C89.5374 47.4083 89.009 47.5326 88.5099 47.7483C87.9688 47.9823 87.5081 48.3388 87.2778 48.8946C87.1425 49.22 87.6726 49.3626 87.8061 49.0408L87.8079 49.0372Z" fill="black"></path><path d="M94.9892 60.9183C94.4846 61.8105 94.5102 62.8397 94.7149 63.8141C94.8246 64.3297 94.9563 64.8507 95.1848 65.3297C95.4133 65.8087 95.7698 66.1743 96.1025 66.5619C96.3329 66.8306 96.7186 66.4412 96.4901 66.1743C96.2031 65.8397 95.8959 65.518 95.693 65.1231C95.4736 64.699 95.3621 64.2145 95.2597 63.7502C95.0733 62.8964 95.0148 61.9805 95.4608 61.1944C95.6345 60.8873 95.161 60.6094 94.9873 60.9183H94.9892Z" fill="black"></path><path d="M94.7223 72.3189C94.6291 72.3811 94.5304 72.4377 94.428 72.4853C94.3969 72.5017 94.3695 72.5255 94.3512 72.5566C94.3275 72.5822 94.311 72.6132 94.3019 72.6498C94.2909 72.6864 94.2891 72.7229 94.2964 72.7595C94.2964 72.7961 94.3092 72.8308 94.3293 72.8619C94.3677 72.9204 94.4225 72.9716 94.4938 72.988L94.567 72.9972C94.6163 72.9972 94.662 72.9844 94.7059 72.9606C94.8083 72.9131 94.9052 72.8564 95.0002 72.7942C95.0313 72.7778 95.0587 72.754 95.077 72.7229C95.1008 72.6973 95.1172 72.6663 95.1264 72.6297C95.1373 72.5931 95.1392 72.5566 95.1318 72.52C95.1318 72.4834 95.1191 72.4487 95.0989 72.4176C95.0606 72.3591 95.0057 72.3079 94.9344 72.2915L94.8613 72.2823C94.8119 72.2823 94.7662 72.2951 94.7223 72.3189Z" fill="black"></path><path d="M83.0803 50.9897C83.1717 50.7996 83.1772 50.6296 83.0803 50.4395C83.0712 50.4212 82.9725 50.2475 83.0036 50.3151C83.0292 50.37 83.0054 50.3225 83.0036 50.306C82.978 50.2036 82.9377 50.1013 82.8993 50.0044C82.7366 49.5875 82.5045 49.2146 82.212 48.8764C81.7494 48.3407 81.1498 47.9221 80.5227 47.6022C80.2339 47.4541 79.967 47.3389 79.6489 47.2822C78.126 47.0153 76.3417 47.2822 75.1589 48.3371C74.1882 49.2036 73.8426 50.4998 73.8408 51.763C73.8408 52.1159 74.3893 52.1159 74.3893 51.763C74.3893 50.7612 74.6086 49.7192 75.3052 48.9623C75.8427 48.3773 76.5721 48.0373 77.3399 47.8691C77.9761 47.7301 78.6452 47.7064 79.2979 47.7795C79.3107 47.7795 79.3984 47.7923 79.371 47.7886C79.3436 47.785 79.4112 47.7941 79.4258 47.7978C79.4843 47.8069 79.5447 47.8179 79.6032 47.8289C79.6873 47.8453 79.7714 47.8672 79.8536 47.8928C79.8701 47.8983 79.8847 47.9038 79.9012 47.9093C79.9816 47.9367 79.7238 47.8252 79.9524 47.9331C80.1425 48.0226 80.3308 48.1159 80.5136 48.2201C80.8171 48.3919 81.1096 48.5875 81.3728 48.8161C81.7549 49.147 82.0822 49.5382 82.3015 49.997C82.3564 50.1104 82.3948 50.2109 82.4423 50.359C82.4624 50.4194 82.6087 50.71 82.6068 50.7155C82.4533 51.0318 82.9268 51.3097 83.0803 50.9916V50.9897Z" fill="black"></path><path d="M74.0201 43.3169C74.075 43.7557 74.0055 44.1926 73.9488 44.6259C73.8867 45.0921 73.872 45.5637 73.841 46.0317C73.8099 46.4997 73.8208 46.9495 73.8739 47.4138C73.9141 47.7721 73.947 48.1451 74.2121 48.4156C74.4589 48.6679 74.8464 48.2804 74.5996 48.0281C74.3949 47.8178 74.4095 47.3663 74.3839 47.0921C74.3419 46.6515 74.3766 46.2091 74.4059 45.7685C74.4333 45.3571 74.4516 44.9495 74.5064 44.5418C74.5613 44.1341 74.6198 43.7264 74.5667 43.3169C74.5229 42.9714 73.9744 42.9677 74.0183 43.3169H74.0201Z" fill="black"></path><path d="M73.8687 46.9531C73.5342 47.3864 73.2179 47.8343 72.9108 48.2895C72.8303 48.4084 72.8833 48.5985 73.0095 48.6643C73.1484 48.7374 73.2983 48.6935 73.3843 48.5656C73.6914 48.1122 74.0077 47.6643 74.3422 47.2292C74.3824 47.1762 74.3861 47.0775 74.3696 47.0171C74.3514 46.9531 74.3038 46.8837 74.2435 46.8526C74.0972 46.7758 73.962 46.8288 73.8687 46.9513V46.9531Z" fill="black"></path><path d="M73.9383 48.5565C73.6037 48.3426 73.2253 48.2676 72.8377 48.2128C72.5927 48.178 72.4245 48.3846 72.5287 48.615C72.7481 49.1086 72.7481 49.6771 72.7408 50.2073C72.7335 50.7795 72.7755 51.3828 72.6878 51.9513C72.6037 52.4888 72.3843 52.9916 72.1759 53.4888C71.9364 54.061 71.7225 54.6442 71.5342 55.2365C70.9145 57.1817 70.8706 59.4157 72.1284 61.1214C72.4319 61.5327 72.8322 62.0373 73.3075 62.264C73.6238 62.4157 73.9035 61.9422 73.5836 61.7905C73.2399 61.6278 72.9053 61.2402 72.6476 60.9057C72.1467 60.2567 71.8085 59.4742 71.7024 58.6589C71.5489 57.4724 71.7591 56.2987 72.1284 55.1762C72.3167 54.6022 72.5342 54.0391 72.7682 53.4815C72.9766 52.9843 73.1668 52.4852 73.2362 51.9477C73.3167 51.3316 73.2874 50.6826 73.2893 50.061C73.2911 49.4395 73.2436 48.8819 73.0004 48.3371L72.6915 48.7393C73.0297 48.7868 73.3679 48.8416 73.6604 49.0281C73.9529 49.2146 74.2344 48.7448 73.9364 48.5546L73.9383 48.5565Z" fill="black"></path><path d="M74.2832 44.6752C73.1205 43.986 72.87 42.262 73.115 41.0445C73.1844 40.699 72.6561 40.5527 72.5866 40.8982C72.2923 42.3644 72.6195 44.3242 74.0071 45.1487C74.3106 45.3297 74.5866 44.8562 74.2832 44.6752Z" fill="black"></path><path d="M72.9179 42.891C72.6765 42.7393 72.3895 42.7192 72.1171 42.657C71.8447 42.5949 71.6875 42.4578 71.4955 42.2749C71.1208 41.9184 70.704 41.5949 70.1573 41.7521C69.6656 41.8929 69.2853 42.3078 69.0092 42.7192C68.7734 43.0684 68.6198 43.4431 68.5668 43.8618C68.523 44.2128 68.4188 44.9349 68.8209 45.1287C69.1372 45.2823 69.4151 44.8088 69.097 44.6552C69.055 44.6351 69.1116 44.6625 69.1153 44.6771C69.1262 44.7155 69.1043 44.6424 69.1025 44.6333C69.0879 44.5638 69.0824 44.4943 69.0805 44.423C69.0751 44.2475 69.0879 44.072 69.1098 43.8983C69.1464 43.6077 69.2743 43.3188 69.4389 43.0592C69.6381 42.7484 69.9288 42.3846 70.3018 42.2804C70.6985 42.1689 70.9782 42.5546 71.2414 42.7887C71.4334 42.9605 71.6363 43.0958 71.8868 43.1653C72.1372 43.2347 72.4206 43.2292 72.64 43.3645C72.9398 43.5528 73.2158 43.0775 72.916 42.891H72.9179Z" fill="black"></path><path d="M73.0681 49.1743C72.9584 48.7703 72.6275 48.4906 72.271 48.2986C72.09 48.2018 71.9017 48.1231 71.7134 48.0464C71.6312 48.0116 71.5471 47.9787 71.4648 47.944C71.4045 47.9184 71.5215 47.9696 71.4648 47.944C71.4429 47.9348 71.4228 47.9257 71.4008 47.9166C71.3661 47.9001 71.3314 47.8855 71.2966 47.8672C71.1687 47.8032 70.9931 47.8288 70.9218 47.9659C70.856 48.0902 70.8835 48.2731 71.0206 48.3407C71.176 48.4175 71.3368 48.4815 71.4959 48.5454C71.5398 48.5637 71.5818 48.5802 71.6239 48.5985C71.6348 48.6021 71.6988 48.6314 71.633 48.6021C71.6513 48.6094 71.6714 48.6186 71.6897 48.6259C71.7738 48.6624 71.8597 48.7008 71.942 48.7447C72.0242 48.7886 72.0974 48.8288 72.1705 48.8763C72.207 48.9001 72.2418 48.9257 72.2765 48.9495C72.218 48.9092 72.271 48.9458 72.282 48.955C72.2984 48.9696 72.3167 48.9842 72.3332 48.9988C72.3624 49.0263 72.3917 49.0555 72.4191 49.0866C72.4301 49.0994 72.4484 49.114 72.4557 49.1286C72.4246 49.0646 72.4502 49.1231 72.4612 49.1414C72.4831 49.1743 72.5014 49.2109 72.5197 49.2456C72.5471 49.2968 72.505 49.1963 72.5197 49.2493C72.527 49.2731 72.5361 49.2968 72.5416 49.3206C72.58 49.4595 72.739 49.5582 72.8798 49.5125C73.0206 49.4668 73.112 49.3242 73.0718 49.1743H73.0681Z" fill="black"></path><path d="M71.168 48.4522C71.0254 47.9513 70.7749 47.4614 70.3636 47.1268C70.146 46.9513 69.9084 46.7813 69.6506 46.6679C69.5062 46.604 69.3691 46.5692 69.2137 46.5528C69.1003 46.54 68.9723 46.5509 68.8681 46.5034C68.7329 46.4413 68.572 46.465 68.4934 46.6021C68.4239 46.721 68.4568 46.9147 68.5921 46.9769C68.7274 47.0391 68.8608 47.0683 69.0107 47.0848C69.1296 47.0976 69.2447 47.0994 69.3581 47.1378C69.5793 47.2146 69.7932 47.3718 69.976 47.5162C70.3234 47.7886 70.5208 48.1853 70.6396 48.5985C70.7365 48.9367 71.2649 48.7941 71.168 48.4522Z" fill="black"></path><path d="M69.4666 46.4888C69.4885 46.5418 69.4666 46.4742 69.4611 46.4614C69.4556 46.4376 69.4501 46.4139 69.4446 46.3883C69.4446 46.3828 69.4318 46.3005 69.4392 46.3608C69.4337 46.3206 69.4282 46.2786 69.4227 46.2384C69.4081 46.1305 69.3825 46.0318 69.335 45.9331C69.2435 45.7448 69.0754 45.6168 68.9108 45.4961C68.8834 45.476 68.9474 45.5272 68.9072 45.4943C68.8871 45.4778 68.8688 45.4614 68.8487 45.4468C68.7956 45.4047 68.7408 45.3627 68.6841 45.3224C68.6019 45.2639 68.5141 45.2128 68.4264 45.1634C68.2454 45.0647 68.0589 44.9806 67.8743 44.8892C67.7463 44.8252 67.5708 44.8508 67.4995 44.9879C67.4337 45.1122 67.4611 45.295 67.5982 45.3627C67.7701 45.4486 67.9456 45.5272 68.1156 45.6186C68.1997 45.6643 68.2838 45.7118 68.3642 45.7649C68.3861 45.7795 68.4081 45.7941 68.43 45.8106C68.43 45.8106 68.4977 45.8599 68.4611 45.8325C68.5013 45.8636 68.5397 45.8965 68.5818 45.9276C68.6201 45.9568 68.6567 45.9842 68.6951 46.0135C68.6658 45.9916 68.6768 45.9989 68.6988 46.0171C68.7152 46.0318 68.7317 46.0446 68.7481 46.0592C68.7774 46.0866 68.8066 46.1159 68.8322 46.1469C68.803 46.1086 68.8304 46.1469 68.8414 46.1652C68.845 46.1707 68.8688 46.2274 68.8578 46.1963C68.8468 46.1652 68.8651 46.2274 68.8669 46.2329C68.8724 46.2566 68.8779 46.2804 68.8834 46.306C68.8852 46.3188 68.8962 46.3919 68.8889 46.3334C68.8925 46.3627 68.8962 46.3919 68.8999 46.4193C68.9163 46.5418 68.9419 46.6479 68.9913 46.7612C69.0479 46.8928 69.2527 46.9331 69.366 46.8599C69.5031 46.7722 69.5251 46.6259 69.4648 46.4852L69.4666 46.4888Z" fill="black"></path><path d="M80.0089 64.1908C79.6688 63.6241 79.0601 63.1707 78.3946 63.0866C77.8041 63.0116 77.1771 63.1524 76.5921 63.2347C76.1003 63.3041 75.5171 63.3718 75.0911 63.0555C74.5628 62.6625 74.5153 61.9458 74.5646 61.3444C74.5939 60.9934 74.0454 60.9952 74.0162 61.3444C73.9632 62.0043 74.0454 62.7063 74.4842 63.2292C74.8626 63.6789 75.4239 63.8471 75.9961 63.8361C76.5683 63.8252 77.1679 63.6917 77.7529 63.6387C78.1003 63.6076 78.4312 63.5985 78.7529 63.7575C79.0747 63.9166 79.3507 64.1597 79.5354 64.4668C79.72 64.774 80.1917 64.4943 80.0089 64.1908Z" fill="black"></path><path d="M74.4884 62.4742C74.4555 62.4706 74.4518 62.4706 74.4793 62.4742C74.4665 62.4724 74.4518 62.4706 74.439 62.4669C74.408 62.4596 74.3769 62.4541 74.3458 62.445C74.3202 62.4377 74.2946 62.4303 74.269 62.4212C74.2672 62.4212 74.1904 62.3883 74.2343 62.4084C74.1813 62.3846 74.1301 62.3554 74.0807 62.3243C74.0533 62.3079 74.0277 62.2896 74.0021 62.2713C74.0368 62.2969 73.9747 62.2494 73.971 62.2457C73.7791 62.0812 73.6694 61.9294 73.5505 61.7027C73.4902 61.5876 73.4646 61.5272 73.4226 61.3993C73.3823 61.2786 73.3513 61.1543 73.3275 61.03C73.3165 60.9642 73.3184 60.9824 73.3111 60.9038C73.3056 60.8398 73.3019 60.774 73.3019 60.71C73.3019 60.5711 73.3074 60.5199 73.3293 60.4175C73.3604 60.2731 73.2873 60.1214 73.1374 60.0793C73.0003 60.0428 72.8303 60.125 72.7992 60.2713C72.5633 61.3828 73.2452 62.913 74.4866 63.0245C74.6346 63.0373 74.7608 62.8892 74.7608 62.7503C74.7608 62.5912 74.6346 62.4888 74.4866 62.476L74.4884 62.4742Z" fill="black"></path><path d="M77.1991 44.264C76.892 44.0921 76.7055 43.7247 76.53 43.4322C76.3161 43.0738 76.0894 42.7247 75.903 42.3499C75.5117 41.5601 75.296 40.6808 74.733 39.9861C74.1699 39.2914 73.3472 38.7832 72.4935 38.6789C71.6397 38.5747 70.8042 38.9641 70.1424 39.4321C68.764 40.4084 67.5519 41.7685 67.0108 43.3919C66.4605 45.0428 66.8792 46.8417 68.0035 48.1506C68.669 48.9258 69.5794 49.4651 70.4203 50.0282C70.881 50.3371 71.3454 50.6479 71.7732 51.0007C72.1516 51.3115 72.4514 51.6369 72.5849 52.1159C72.6799 52.456 73.2101 52.3115 73.1132 51.9697C72.8792 51.1342 72.2211 50.6278 71.5465 50.1397C70.8116 49.6077 70.0309 49.1378 69.3015 48.5967C67.9779 47.6132 67.1296 46.0592 67.338 44.381C67.5465 42.7027 68.6763 41.3188 69.9011 40.3005C70.5026 39.7996 71.1991 39.3298 71.9962 39.2274C72.7933 39.125 73.6452 39.6259 74.1936 40.2036C74.8518 40.8965 75.0547 41.9057 75.4825 42.7375C75.6836 43.1269 75.9231 43.4998 76.1516 43.8727C76.3509 44.1963 76.5776 44.5473 76.9176 44.7375C77.2266 44.9111 77.5026 44.4377 77.1937 44.264H77.1991Z" fill="black"></path><path d="M85.7385 55.8673C85.7385 55.8673 85.6654 55.8801 85.7056 55.8764C85.7422 55.8728 85.6892 55.8764 85.68 55.8764C85.6581 55.8764 85.6361 55.8764 85.6142 55.8728C85.627 55.8728 85.6617 55.8819 85.6051 55.8728C85.5173 55.8581 85.4314 55.8362 85.3455 55.8161C85.1517 55.7704 84.9579 55.7357 84.7586 55.7759C84.3893 55.849 84.1023 56.1872 84.0987 56.5656C84.095 56.9441 84.3583 57.2165 84.6087 57.445C84.8427 57.6571 85.106 57.8582 85.4149 57.9404C85.7513 58.03 86.1864 58.0885 86.51 57.9258C86.6416 57.8581 86.68 57.6735 86.6087 57.551C86.5301 57.4176 86.3656 57.3847 86.234 57.4523C86.1937 57.4724 86.2468 57.4468 86.2522 57.445C86.2394 57.4486 86.2285 57.4541 86.2157 57.456C86.2047 57.4578 86.1334 57.4742 86.17 57.4669C86.2065 57.4596 86.1279 57.4706 86.1151 57.4706C86.0786 57.4724 86.0402 57.4724 86.0036 57.4706C85.9378 57.4706 85.8738 57.4633 85.808 57.4578C85.7989 57.4578 85.7532 57.4505 85.8025 57.4578C85.7861 57.456 85.7678 57.4523 85.7513 57.4505C85.7184 57.445 85.6855 57.4395 85.6526 57.4322C85.5978 57.4212 85.5429 57.4066 85.4899 57.3901C85.4698 57.3828 85.4479 57.3755 85.4277 57.3682C85.5027 57.392 85.4131 57.3591 85.3948 57.3481C85.3418 57.3188 85.2906 57.2878 85.2431 57.253C85.2175 57.2347 85.1937 57.2183 85.1681 57.2C85.1316 57.1726 85.1956 57.222 85.159 57.1927C85.1407 57.1781 85.1224 57.1634 85.1042 57.1488C84.9945 57.0574 84.8903 56.9587 84.797 56.8527C84.7769 56.8307 84.7586 56.8088 84.7404 56.785C84.7751 56.8289 84.7221 56.7558 84.7148 56.7466C84.702 56.7265 84.6892 56.7064 84.6782 56.6845C84.6745 56.6772 84.6544 56.6333 84.6654 56.6589C84.6745 56.6826 84.6544 56.615 84.6544 56.6168C84.6508 56.6059 84.6471 56.5638 84.6526 56.615C84.6526 56.6022 84.6508 56.5894 84.6508 56.5784C84.6508 56.562 84.6508 56.5455 84.6508 56.5291C84.6398 56.5693 84.6526 56.487 84.6508 56.5291C84.6563 56.5126 84.6782 56.445 84.6581 56.4925C84.6636 56.4779 84.6727 56.4633 84.68 56.4505C84.6837 56.445 84.7184 56.392 84.6983 56.4194C84.68 56.4432 84.7038 56.4121 84.7075 56.4102C84.7184 56.3993 84.7312 56.3883 84.7422 56.3755C84.7751 56.3408 84.755 56.3645 84.7422 56.3719C84.755 56.3627 84.7696 56.3536 84.7824 56.3444C84.7934 56.339 84.8043 56.3335 84.8153 56.3262C84.8519 56.306 84.7787 56.3371 84.819 56.3243C84.8354 56.3188 84.8519 56.3134 84.8683 56.3097C84.8793 56.3079 84.936 56.2969 84.8848 56.3042C84.9195 56.3006 84.9542 56.3024 84.9908 56.3042C85.042 56.3042 85.0146 56.3042 85 56.3042C85.0237 56.3079 85.0475 56.3115 85.0713 56.317C85.1535 56.3335 85.2358 56.3536 85.318 56.3737C85.5045 56.4157 85.6983 56.4505 85.8866 56.4011C86.2266 56.3097 86.0822 55.7795 85.7404 55.8728L85.7385 55.8673Z" fill="black"></path><path d="M85.8868 57.8709C85.7899 58.2219 85.9306 58.593 85.9873 58.9385C85.9873 58.944 85.9964 58.997 85.9928 58.9714C85.9891 58.9458 85.9946 59.0007 85.9946 59.0043C85.9983 59.05 86.0038 59.0957 86.0111 59.1414C86.0257 59.2566 86.044 59.3699 86.0604 59.4851C86.0879 59.6752 86.1043 59.8672 86.0824 60.0573L86.2835 59.7922C86.2213 59.8032 86.1811 59.8105 86.108 59.8142C86.0714 59.8142 86.0348 59.816 85.9983 59.8142C85.991 59.8142 85.9087 59.8087 85.9507 59.8142C85.8228 59.7996 85.746 59.7685 85.6454 59.71C85.5942 59.6807 85.5485 59.646 85.5047 59.6094C85.501 59.6058 85.4754 59.582 85.4772 59.5802C85.4772 59.5802 85.5211 59.646 85.4864 59.5893C85.4443 59.5217 85.4059 59.454 85.3712 59.3809C85.3621 59.3608 85.3529 59.3407 85.3438 59.3206C85.3145 59.2566 85.3493 59.3407 85.331 59.2895C85.3127 59.2438 85.2944 59.1981 85.278 59.1524C85.2432 59.0555 85.2122 58.9586 85.1866 58.8599C85.1738 58.8124 85.1628 58.7648 85.1537 58.7155C85.15 58.6954 85.1463 58.6734 85.1427 58.6533C85.1299 58.5875 85.1427 58.7118 85.1427 58.6496C85.1427 58.6167 85.139 58.582 85.139 58.5491C85.139 58.4997 85.139 58.54 85.1354 58.5674C85.139 58.5381 85.1683 58.4979 85.1262 58.5802C85.1939 58.4486 85.161 58.2822 85.0275 58.2054C84.905 58.1341 84.7204 58.1707 84.6527 58.3041C84.5467 58.5107 84.5979 58.7575 84.6509 58.9732C84.7113 59.2164 84.8008 59.4559 84.9105 59.6807C85.0202 59.9056 85.1738 60.0774 85.3986 60.2018C85.7222 60.3809 86.0751 60.3919 86.4316 60.3261C86.5595 60.3023 86.6198 60.1762 86.6326 60.061C86.6783 59.6789 86.5833 59.2749 86.5339 58.9019C86.512 58.7319 86.4718 58.5674 86.4389 58.3992C86.4315 58.3571 86.4224 58.3151 86.4169 58.273C86.4096 58.2219 86.4206 58.3041 86.4151 58.2548C86.4133 58.2347 86.4114 58.2145 86.4096 58.1963C86.4078 58.1579 86.406 58.1213 86.4078 58.0847C86.4078 58.0793 86.4151 58.0262 86.4078 58.0573C86.4023 58.0902 86.4188 58.0226 86.4188 58.0226C86.5138 57.6826 85.9836 57.5363 85.8904 57.8763L85.8868 57.8709Z" fill="black"></path><path d="M82.618 50.7868L82.6436 50.7795C82.6271 50.7942 82.6125 50.807 82.5961 50.8197C82.5759 50.8417 82.5503 50.8618 82.5302 50.8856C82.4608 50.9642 82.4114 51.0592 82.3657 51.1525C82.2633 51.3664 82.1847 51.5876 82.0695 51.7942C81.8428 52.2018 81.5449 52.5839 81.2323 52.9294C80.735 53.4815 80.0714 53.902 79.3712 54.1507C78.0933 54.604 76.5832 54.5199 75.5101 53.626C75.1993 53.3664 74.9306 53.0592 74.7203 52.7119C74.6326 52.5675 74.5522 52.4157 74.4918 52.2567C74.4425 52.1251 74.3364 51.8856 74.4022 51.743C74.5503 51.4249 74.0787 51.147 73.9288 51.4669C73.7496 51.8508 73.894 52.2695 74.0586 52.6333C74.2231 52.9971 74.4644 53.3426 74.7368 53.6424C75.2798 54.2421 76.0092 54.6662 76.7971 54.8508C78.4041 55.2274 80.1683 54.6808 81.3694 53.5711C81.799 53.1744 82.1884 52.668 82.4864 52.1653C82.6399 51.9075 82.7332 51.626 82.8703 51.3609C82.9854 51.1397 83.1719 51.0702 83.1664 50.785C83.161 50.4322 82.6125 50.4322 82.618 50.785V50.7868Z" fill="black"></path><path d="M84.0517 41.1086C83.7282 41.1725 83.3881 41.1323 83.0609 41.1927C82.677 41.2621 82.2912 41.3206 81.9073 41.3883C81.1157 41.5254 80.4247 41.88 79.7373 42.2841C79.0499 42.6881 78.3899 43.147 77.7446 43.6186C77.4393 43.8417 77.1029 44.0336 76.8159 44.2822C76.6294 44.4431 76.4594 44.7813 76.2199 44.8636C75.8872 44.9769 76.0298 45.5071 76.3662 45.3919C76.6477 45.295 76.8287 45.072 77.0206 44.8581C77.2583 44.593 77.5618 44.4175 77.8506 44.2164C78.5179 43.7502 79.1687 43.2676 79.8671 42.8453C80.5654 42.423 81.2272 42.0647 82.0133 41.9239C82.3973 41.8563 82.783 41.8033 83.1669 41.7301C83.5088 41.6643 83.858 41.7064 84.198 41.6387C84.538 41.5711 84.3973 41.0409 84.0517 41.1104V41.1086Z" fill="black"></path><path d="M79.7113 48.9587C79.2579 49.0172 78.81 49.1086 78.3548 49.1817C77.9234 49.253 77.4828 49.2877 77.0568 49.3828C76.8283 49.4998 76.6144 49.6461 76.4243 49.8307C76.3182 49.9331 76.2049 49.9642 76.1007 49.9495C75.8886 50.381 75.799 50.8801 75.8703 51.392C76.0605 52.7576 77.3237 53.7119 78.6893 53.5199C80.055 53.3298 81.0093 52.0665 80.8173 50.7009C80.7131 49.9587 80.2926 49.3389 79.7113 48.9587Z" fill="black"></path><path d="M78.2177 51.0555C78.7235 51.0555 79.1336 50.6454 79.1336 50.1396C79.1336 49.6338 78.7235 49.2237 78.2177 49.2237C77.7118 49.2237 77.3018 49.6338 77.3018 50.1396C77.3018 50.6454 77.7118 51.0555 78.2177 51.0555Z" fill="#A9FFAB"></path><path d="M82.5596 49.4943C81.8923 48.6515 80.6126 48.6936 79.6473 48.7685C79.0477 48.8142 78.4444 48.8654 77.8539 48.9842C77.1592 49.1232 76.4864 49.3535 75.8429 49.6497C75.1994 49.9458 74.5943 50.3005 74.0477 50.7429C73.7734 50.966 74.1628 51.3517 74.4352 51.1305C75.6418 50.1524 77.2305 49.5564 78.7661 49.3956C79.3731 49.3316 79.9892 49.2676 80.598 49.2859C81.172 49.3042 81.7954 49.4065 82.172 49.8819C82.3914 50.1579 82.7771 49.7685 82.5596 49.4943Z" fill="black"></path><path d="M78.0936 63.615C78.9656 64.4651 79.0387 65.7594 79.004 66.9056C78.993 67.2585 79.5415 67.2585 79.5525 66.9056C79.5927 65.6095 79.461 64.1835 78.483 63.2274C78.2307 62.9806 77.8413 63.3682 78.0954 63.615H78.0936Z" fill="black"></path><path d="M54.3252 36.5308C54.6689 36.4266 54.9303 36.1981 55.1936 35.9622C55.4568 35.7264 55.7585 35.5527 56.062 35.3663C56.3965 35.1597 56.7274 34.9769 57.1113 34.8855C57.4952 34.7941 57.8901 34.7356 58.2868 34.7337C59.0638 34.7264 59.7969 34.9531 60.4404 35.39C61.0254 35.7867 61.6287 36.3169 61.7823 37.0372C61.8554 37.3827 62.3856 37.2365 62.3106 36.891C62.179 36.2749 61.7695 35.7666 61.2996 35.3644C60.8298 34.9622 60.2667 34.5948 59.6525 34.3919C58.4093 33.9787 56.9559 34.178 55.8481 34.8544C55.5428 35.0409 55.2265 35.2127 54.9523 35.4449C54.7109 35.6496 54.4879 35.9092 54.1771 36.0043C53.8407 36.1067 53.9833 36.6368 54.3234 36.5326L54.3252 36.5308Z" fill="black"></path><path d="M59.8945 35.2C60.4941 35.0793 60.9511 34.6387 61.5544 34.5254C62.24 34.3974 62.9475 34.3243 63.6458 34.3883C64.7921 34.4943 65.9402 35.0226 66.5362 36.0446C66.8671 36.615 67.2309 37.3152 67.1431 37.9952C67.123 38.1433 67.2839 38.2676 67.4173 38.2695C67.5819 38.2695 67.6733 38.1415 67.6916 37.9952C67.7793 37.3225 67.4703 36.6369 67.1669 36.0555C66.8634 35.4742 66.4594 34.9751 65.9109 34.6003C64.7464 33.8051 63.293 33.7246 61.9383 33.9111C61.5361 33.9678 61.1394 34.0263 60.7701 34.2055C60.4283 34.3718 60.1303 34.593 59.75 34.6698C59.4045 34.7393 59.5508 35.2676 59.8963 35.1981L59.8945 35.2Z" fill="black"></path><path d="M66.7971 36.262C67.2322 36.2328 67.6253 36.4631 67.9635 36.7136C68.2743 36.9421 68.565 37.2182 68.8191 37.507C68.9836 37.6935 69.0897 37.8434 69.2396 38.05C69.426 38.3096 69.6052 38.5746 69.7624 38.8507C69.8355 38.9805 69.9068 39.1194 69.9416 39.22C69.9507 39.2492 69.9855 39.39 69.9708 39.3114C69.98 39.3608 69.9507 39.3626 69.9763 39.3169C69.9727 39.3242 69.9599 39.3534 69.9818 39.3096C70.0001 39.2712 70.0202 39.2511 70.0549 39.2255C69.9361 39.3132 69.8758 39.4631 69.9562 39.6002C70.0257 39.7191 70.2103 39.7867 70.331 39.699C70.6052 39.4979 70.5211 39.1779 70.4059 38.911C70.267 38.5874 70.0714 38.2876 69.8721 37.9988C69.4516 37.3863 68.9928 36.8251 68.4041 36.3644C67.9489 36.0079 67.3986 35.6752 66.7971 35.7154C66.4461 35.7392 66.4443 36.2876 66.7971 36.2639V36.262Z" fill="black"></path><path d="M51.5704 38.529C51.8921 38.3517 52.1151 38.0518 52.4387 37.8709C52.808 37.6643 53.1755 37.5217 53.596 37.4668C53.9872 37.4175 54.3912 37.401 54.7568 37.5674C55.1005 37.7246 55.415 37.9422 55.7934 38.0153C56.1389 38.0811 56.287 37.5528 55.9397 37.4869C55.5429 37.412 55.2157 37.1597 54.8446 37.0135C54.4259 36.8489 53.9598 36.8709 53.5228 36.9275C53.0859 36.9842 52.6837 37.1195 52.2888 37.3279C52.1097 37.423 51.9305 37.5217 51.7733 37.6515C51.6161 37.7813 51.4808 37.9531 51.2943 38.0555C50.9853 38.2255 51.2614 38.699 51.5704 38.529Z" fill="black"></path><path d="M51.1246 38.2511C50.7718 38.8745 50.4043 39.4925 50.1502 40.1652C49.8961 40.838 49.8577 41.4413 49.9181 42.1214C50.0369 43.4321 50.3915 44.7813 51.0899 45.9075C51.2745 46.2073 51.7499 45.9312 51.5634 45.6314C50.9181 44.5894 50.5762 43.3352 50.4665 42.1214C50.408 41.4852 50.45 40.9129 50.6786 40.3115C50.9071 39.71 51.2691 39.1085 51.5981 38.5272C51.7718 38.2201 51.2983 37.944 51.1246 38.2511Z" fill="black"></path><path d="M50.1174 42.9037C49.7408 43.3681 49.5653 43.9239 49.4848 44.5107C49.4044 45.0975 49.3496 45.6972 49.3642 46.2785C49.3989 47.5893 50.1302 48.7063 50.6457 49.8672C50.7883 50.189 51.2618 49.9111 51.1192 49.5911C50.6567 48.5491 49.9711 47.5272 49.9163 46.3553C49.8925 45.8306 49.9455 45.2785 50.0022 44.7557C50.0589 44.2328 50.1741 43.699 50.5049 43.2931C50.7262 43.0207 50.3404 42.6313 50.1174 42.9056V42.9037Z" fill="black"></path><path d="M49.8068 47.9385C49.5801 48.5783 49.3992 49.2401 49.3626 49.922C49.326 50.6039 49.4723 51.2255 49.6368 51.858C49.8014 52.4906 50.114 53.0025 50.5107 53.5253C50.9312 54.0793 51.3717 54.6167 51.7977 55.1652C52.0134 55.4431 52.3992 55.0537 52.1853 54.7776C51.7867 54.2657 51.3754 53.7648 50.9823 53.2493C50.6149 52.763 50.3206 52.3078 50.1633 51.7118C50.0079 51.125 49.8745 50.5326 49.9074 49.9202C49.9403 49.3078 50.1231 48.6752 50.3333 48.0829C50.4522 47.7502 49.922 47.6057 49.805 47.9366L49.8068 47.9385Z" fill="black"></path><path d="M50.4133 53.2951C50.194 53.6315 50.1885 54.0867 50.2049 54.4742C50.225 54.8965 50.2762 55.3316 50.4298 55.7284C50.7662 56.5949 51.4883 57.1945 52.0861 57.8783C52.3183 58.1452 52.7058 57.7558 52.4737 57.4907C51.9545 56.8965 51.3 56.3682 50.9782 55.6315C50.8356 55.3042 50.7845 54.9459 50.7589 54.5912C50.7369 54.2695 50.7004 53.8563 50.885 53.573C51.0696 53.2896 50.6035 53.0007 50.4115 53.2969L50.4133 53.2951Z" fill="black"></path><path d="M63.2925 89.5747C63.0475 89.4541 62.7715 89.4193 62.5246 89.3078C62.212 89.167 61.9433 88.9074 61.7038 88.6698C61.2175 88.1871 60.7458 87.6533 60.3912 87.0647C59.6764 85.8727 59.4168 84.4815 59.1864 83.1305C59.1279 82.7831 58.5978 82.9312 58.6581 83.2767C58.9012 84.7008 59.1901 86.1597 59.9579 87.4065C60.3418 88.0299 60.8482 88.6058 61.3729 89.114C61.6179 89.3517 61.8903 89.5967 62.1938 89.7575C62.4552 89.8946 62.7568 89.9221 63.0164 90.0519C63.3309 90.2091 63.6106 89.7356 63.2925 89.5784V89.5747Z" fill="black"></path><path d="M59.4992 85.3957C58.5156 84.9899 57.9251 84.1379 57.5851 83.1599C57.4041 82.637 57.3182 82.0959 57.2432 81.5511C57.1683 81.0063 57.0988 80.4195 57.1792 79.8655C57.2012 79.7174 57.1427 79.573 56.9873 79.5273C56.8593 79.4908 56.671 79.573 56.6491 79.7193C56.5595 80.3427 56.6125 80.9624 56.6966 81.584C56.7807 82.2056 56.8812 82.8546 57.1098 83.4615C57.5302 84.5785 58.2286 85.4634 59.3511 85.9259C59.6765 86.0612 59.8191 85.531 59.4973 85.3975L59.4992 85.3957Z" fill="black"></path><path d="M56.9361 81.0484C55.1774 79.9259 55.0933 77.3665 55.4169 75.5292C55.5119 74.9917 55.6491 74.4615 55.8392 73.9496C55.9617 73.6187 55.4315 73.4761 55.3108 73.8034C54.9324 74.8217 54.7459 75.9222 54.7313 77.0063C54.7167 78.0904 54.8885 79.2549 55.4352 80.2202C55.7331 80.7485 56.15 81.1946 56.6619 81.5219C56.9598 81.712 57.2359 81.2385 56.9379 81.0484H56.9361Z" fill="black"></path><path d="M55.2085 74.9733C54.83 74.6077 54.4224 74.2694 54.0732 73.8727C53.724 73.476 53.4534 72.9879 53.3108 72.4632C53.033 71.4413 53.1792 70.3608 53.0878 69.3151C53.0567 68.966 52.5083 68.9623 52.5394 69.3151C52.6381 70.434 52.4827 71.5894 52.8026 72.6808C52.9635 73.2329 53.2414 73.7338 53.6107 74.1744C53.9799 74.615 54.4132 74.9678 54.8191 75.3609C55.0732 75.6058 55.4608 75.2183 55.2066 74.9733H55.2085Z" fill="black"></path><path d="M53.4404 69.4066C53.1041 69.136 52.8828 68.743 52.6927 68.3645C52.5026 67.9861 52.3399 67.5784 52.254 67.1579C52.062 66.2365 52.1169 65.2164 52.3435 64.306C52.4295 63.9641 51.8993 63.8179 51.8152 64.1598C51.5647 65.1707 51.5154 66.2823 51.7256 67.3042C51.8189 67.7576 51.9998 68.1963 52.2046 68.6113C52.4094 69.0263 52.6763 69.4925 53.0529 69.796C53.3253 70.0154 53.7165 69.6296 53.4404 69.4084V69.4066Z" fill="black"></path><path d="M50.3807 55.3699C50.0205 55.8434 49.9803 56.5107 50.0114 57.0829C50.0443 57.7228 50.1759 58.3608 50.3843 58.9659C50.6238 59.6625 50.9638 60.3261 51.4008 60.9184C51.8377 61.5107 52.4136 61.9787 52.9602 62.4705C53.2216 62.7063 53.611 62.3188 53.3478 62.0829C52.8578 61.6424 52.3258 61.2292 51.92 60.7045C51.5141 60.1798 51.1686 59.5381 50.9383 58.8928C50.7426 58.3425 50.6074 57.763 50.5671 57.1798C50.5306 56.6661 50.5306 56.0756 50.856 55.646C51.0699 55.3644 50.5927 55.0921 50.3825 55.3699H50.3807Z" fill="black"></path><path d="M50.6893 59.8362C50.7441 60.1964 50.6984 60.5638 50.7185 60.9258C50.7368 61.2677 50.8045 61.6095 50.8739 61.9441C50.9964 62.5346 51.086 63.1525 51.3931 63.6808C51.9525 64.6406 52.9233 65.2421 53.6893 66.0117C53.9379 66.2622 54.3273 65.8746 54.0769 65.6242C53.3474 64.8911 52.395 64.3152 51.8666 63.4029C51.5741 62.8984 51.501 62.2805 51.3858 61.7174C51.3218 61.3993 51.267 61.0812 51.2615 60.7558C51.256 60.3975 51.2725 60.0464 51.2176 59.69C51.1628 59.3335 50.6363 59.4907 50.6893 59.8362Z" fill="black"></path><path d="M89.8635 52.4047C90.3023 52.3499 90.6935 52.0921 91.1122 51.9568C91.6003 51.7996 92.1012 51.6808 92.6021 51.5802C93.103 51.4797 93.6241 51.3956 94.1414 51.3444C94.5802 51.3005 95.0281 51.3243 95.4614 51.2365C95.8069 51.167 95.6606 50.6387 95.3151 50.7082C94.9038 50.7905 94.4687 50.7612 94.0519 50.8051C93.5455 50.8581 93.0409 50.9349 92.5418 51.0336C92.0427 51.1323 91.5893 51.2365 91.1231 51.3773C90.8946 51.4468 90.6625 51.5199 90.4431 51.6149C90.2548 51.6972 90.0701 51.8288 89.8635 51.8544C89.518 51.8983 89.5144 52.4468 89.8635 52.4029V52.4047Z" fill="black"></path><path d="M85.8136 57.7301C85.4388 58.1323 84.916 58.2036 84.395 58.2713C83.7423 58.3554 83.0842 58.4504 82.4242 58.4358C82.0439 58.4285 81.6509 58.2932 81.3109 58.1287C80.9891 57.9733 80.5705 57.7429 80.4535 57.3773C80.4205 57.2713 80.3109 57.1634 80.1884 57.1762C79.6198 57.2329 79.0531 57.2676 78.4827 57.2329C78.1299 57.2128 78.1317 57.7612 78.4827 57.7813C79.0531 57.8142 79.6216 57.7813 80.1884 57.7247L79.9233 57.5236C80.0732 57.9916 80.4845 58.3133 80.9032 58.5364C81.3419 58.7722 81.8429 58.9495 82.3419 58.9806C83.0568 59.0263 83.7898 58.8965 84.4973 58.8051C85.1317 58.7247 85.746 58.604 86.1994 58.1159C86.4407 57.8581 86.0531 57.4687 85.8118 57.7283L85.8136 57.7301Z" fill="black"></path><path d="M82.5228 50.9038L82.5484 50.8965C82.5319 50.9111 82.5173 50.9239 82.5008 50.9367C82.4807 50.9586 82.4551 50.9787 82.435 51.0025C82.3656 51.0811 82.3162 51.1762 82.2705 51.2694C82.1681 51.4833 82.0895 51.7045 81.9743 51.9111C81.7476 52.3188 81.4497 52.7009 81.137 53.0464C80.6398 53.5985 79.9762 54.019 79.276 54.2676C77.9981 54.721 76.488 54.6369 75.4149 53.7429C75.1041 53.4833 74.8354 53.1762 74.6251 52.8288C74.5374 52.6844 74.4569 52.5327 74.3966 52.3736C74.3473 52.242 74.2412 52.0025 74.307 51.8599C74.4551 51.5418 73.9834 51.2639 73.8335 51.5839C73.6544 51.9678 73.7988 52.3864 73.9633 52.7502C74.1279 53.114 74.3692 53.4595 74.6416 53.7594C75.1846 54.359 75.914 54.7831 76.7019 54.9678C78.3089 55.3444 80.073 54.7978 81.2741 53.6881C81.7038 53.2914 82.0932 52.785 82.3911 52.2822C82.5447 52.0244 82.638 51.7429 82.7751 51.4778C82.8902 51.2566 83.0767 51.1871 83.0712 50.902C83.0657 50.5491 82.5173 50.5491 82.5228 50.902V50.9038Z" fill="black"></path><path d="M80.834 53.2201C80.6183 53.253 80.3953 53.1726 80.1832 53.147C79.9547 53.1177 79.7225 53.1122 79.4922 53.1067C78.9913 53.0976 78.4885 53.125 77.9894 53.1671C77.4903 53.2091 77.0041 53.2713 76.5178 53.3554C76.1046 53.4267 75.6951 53.5747 75.2764 53.6077C74.9273 53.6351 74.9236 54.1835 75.2764 54.1561C75.6896 54.1232 76.0845 53.9916 76.4885 53.9148C77.0132 53.8161 77.5452 53.7484 78.0772 53.7064C78.5744 53.6662 79.0754 53.6406 79.5744 53.6552C79.8048 53.6607 80.037 53.668 80.2637 53.71C80.5086 53.7539 80.7335 53.785 80.9803 53.7484C81.3276 53.6954 81.1796 53.1671 80.834 53.2201Z" fill="black"></path><path d="M78.7408 64.5072C78.0662 64.6699 77.4318 65.1653 77.079 65.7631L77.5104 65.7083C77.4135 65.5949 77.3111 65.4852 77.2069 65.3792C77.1027 65.2732 76.9236 65.275 76.8194 65.3792C76.7152 65.4834 76.7152 65.6607 76.8194 65.7668C76.9236 65.8728 77.0259 65.9825 77.1228 66.0959C77.2398 66.233 77.4702 66.1836 77.5543 66.041C77.5817 65.9935 77.6146 65.9478 77.6475 65.9039C77.6567 65.8929 77.664 65.8819 77.6731 65.8691C77.7097 65.8198 77.6347 65.9167 77.6676 65.8765C77.6877 65.8509 77.7078 65.8253 77.7298 65.7997C77.781 65.7393 77.8358 65.679 77.8925 65.6224C77.9547 65.5584 78.0205 65.498 78.0881 65.4414C78.11 65.4231 78.1338 65.4048 78.1557 65.3865C78.1174 65.4158 78.1558 65.3865 78.1722 65.3756C78.2161 65.3445 78.2618 65.3134 78.3075 65.2841C78.3971 65.2275 78.4903 65.1781 78.5872 65.1342C78.6164 65.1214 78.6183 65.1214 78.5909 65.1324C78.6018 65.1269 78.6146 65.1233 78.6256 65.1178C78.653 65.1068 78.6823 65.0977 78.7097 65.0867C78.7682 65.0666 78.8267 65.0501 78.887 65.0373C79.0314 65.0026 79.1174 64.8399 79.079 64.6991C79.0387 64.5529 78.887 64.4724 78.7408 64.5072Z" fill="black"></path><path d="M67.5966 73.6497C66.6222 75.136 66.1725 76.9788 65.8069 78.6973C65.4412 80.4157 65.22 82.0044 65.0335 83.6735C65.0043 83.9295 64.9787 84.1854 64.9494 84.4413C64.9421 84.5163 64.933 84.5894 64.9239 84.6644C64.9184 84.7156 64.9513 84.6004 64.9239 84.6625C64.8983 84.7174 64.9367 84.637 64.944 84.6278L65.1085 84.5017C64.8434 84.6095 64.8873 84.9422 64.8781 85.1799C64.8599 85.6022 64.8489 86.0245 64.8379 86.4487C64.805 87.7028 64.7849 88.9569 64.7794 90.211C64.7739 91.2201 64.7483 92.2439 64.8324 93.2512C64.8526 93.4944 64.8562 93.8929 65.1871 93.9094C65.3571 93.9185 65.5564 93.8399 65.7173 93.796C68.0189 93.1635 70.2858 92.381 72.5546 91.6406C75.6241 90.637 78.6881 89.6205 81.7429 88.5748C83.5893 87.9423 85.4285 87.3134 87.3261 86.8435C88.9897 86.4304 90.6753 86.1068 92.3737 85.8691C92.6991 85.8234 93.0592 85.8106 93.3974 85.732C93.5912 85.6863 93.7064 85.5145 93.7594 85.3298C93.8709 84.9477 93.7228 84.5291 93.5638 84.1836C93.1982 83.381 92.5912 82.6881 92.0062 82.0391C90.0373 79.8545 88.1451 77.5967 86.2438 75.3536C85.5857 74.5766 84.9294 73.7978 84.2731 73.0172C84.2201 72.955 84.1707 72.8892 84.1159 72.8289C84.0775 72.7887 84.1469 72.8709 84.1433 72.8673C84.1323 72.8472 84.1159 72.8289 84.1049 72.8088C83.9184 72.5199 83.7228 72.2365 83.5327 71.9495C82.8526 70.9276 82.1707 69.9056 81.4906 68.8855C81.0793 68.2676 80.6204 67.6625 80.2475 67.0208C80.0299 66.646 79.8508 66.2493 79.6369 65.8727C79.4833 65.604 79.3243 65.3371 79.1414 65.0885C79.0208 64.9257 78.8745 64.7173 78.6643 64.6643C78.5418 64.6332 78.4486 64.6881 78.3572 64.6917C78.1945 64.6972 78.0299 64.6625 77.8672 64.657C77.4467 64.6424 77.0592 64.7813 76.8233 65.147C76.635 65.4413 76.582 65.71 76.5564 66.0409C76.5564 66.0574 76.5619 66.0409 76.529 66.1067C76.5144 66.1342 76.4888 66.1598 76.4796 66.1872C76.529 66.0318 76.9568 66.1488 76.9093 66.3005C76.9422 66.1945 76.9221 66.0318 76.9349 65.9184C76.9714 65.5967 77.0317 65.2676 77.0226 64.9422C77.0098 64.4285 76.7466 63.9769 76.6131 63.4943C76.5199 63.1543 75.9897 63.2987 76.0848 63.6405C76.231 64.1689 76.5071 64.6332 76.465 65.1963C76.4394 65.5473 76.3572 65.902 76.359 66.253C76.359 66.3919 76.3901 66.5364 76.5217 66.6095C76.7228 66.721 76.8946 66.5693 76.9915 66.4029C77.1488 66.1342 77.0701 65.8855 77.1908 65.6223C77.2895 65.4102 77.401 65.2493 77.6442 65.2128C77.8398 65.1835 78.0409 65.2237 78.2365 65.2365C78.3115 65.242 78.3846 65.2438 78.4595 65.2365C78.518 65.231 78.7648 65.2018 78.5162 65.1963C78.5016 65.1963 78.5144 65.2054 78.4998 65.1853C78.5363 65.2329 78.5893 65.2731 78.6277 65.3188C79.0299 65.8033 79.3334 66.4413 79.6277 67.0117C79.9678 67.6698 80.4193 68.2694 80.8307 68.8855C81.5985 70.0373 82.3663 71.189 83.1341 72.3408C83.4303 72.785 83.7155 73.2055 84.0592 73.6132C84.9294 74.6461 85.8014 75.679 86.6753 76.7082C87.8288 78.0684 88.9879 79.4249 90.1579 80.7704C90.6259 81.3097 91.0958 81.8472 91.5748 82.3773C92.1707 83.0391 92.8581 83.7722 93.1616 84.6296C93.2384 84.849 93.264 84.9386 93.2475 85.1434C93.2585 85.0227 93.1927 85.3225 93.2384 85.1891C93.2311 85.2073 93.2183 85.2238 93.2091 85.2421C93.178 85.3024 93.2603 85.1982 93.2146 85.2348C93.1561 85.2841 93.2786 85.1872 93.295 85.1964C93.2822 85.1891 93.2 85.2128 93.1854 85.2146C93.0958 85.2293 93.2274 85.2092 93.1488 85.2201C93.1086 85.2256 93.0683 85.2311 93.0281 85.2366C92.913 85.2512 92.7978 85.2658 92.6826 85.2823C90.8453 85.5254 89.0226 85.8636 87.2237 86.3079C85.1561 86.8179 83.1543 87.52 81.1415 88.2073C79.4303 88.7905 77.7136 89.3664 75.997 89.935C72.8782 90.9697 69.7593 92.0099 66.6149 92.966C66.231 93.083 65.8471 93.2 65.4577 93.3024C65.3626 93.328 65.2675 93.3481 65.1725 93.3701C65.1414 93.3774 65.2602 93.3737 65.2109 93.3646C65.1505 93.3536 65.3242 93.4011 65.3242 93.3993C65.3736 93.4286 65.4321 93.4962 65.4266 93.5255C65.4303 93.509 65.412 93.4797 65.4101 93.4633C65.4083 93.4377 65.401 93.4121 65.3973 93.3883C65.4138 93.4889 65.3973 93.3737 65.3937 93.35C65.3864 93.2677 65.3791 93.1854 65.3736 93.1032C65.359 92.8673 65.3516 92.6297 65.3462 92.3938C65.3297 91.7503 65.3297 91.105 65.3315 90.4615C65.3352 89.0538 65.359 87.6461 65.3973 86.2384C65.4083 85.8161 65.4193 85.3938 65.443 84.9715C65.4449 84.9258 65.4504 84.8801 65.4522 84.8362C65.4522 84.8234 65.4577 84.8088 65.4558 84.7978C65.4705 84.8874 65.1633 85.1433 65.326 85.0099C65.465 84.8965 65.465 84.7869 65.4851 84.6223C65.8343 81.7082 66.1505 78.7558 67.1213 75.9678C67.3681 75.2603 67.6624 74.5638 68.0756 73.9349C68.2694 73.6387 67.7941 73.3645 67.6021 73.6589L67.5966 73.6497Z" fill="black"></path><path d="M93.2891 83.5767C92.2781 82.4451 91.2251 81.3519 90.1245 80.3043C89.9892 80.1197 89.8576 79.9296 89.7315 79.7376C89.5816 79.5109 89.3823 79.4049 89.1849 79.3902C88.8265 79.0429 88.4426 78.6919 88.0331 78.4049C87.9472 78.3007 87.8594 78.1946 87.7735 78.0904C87.821 77.9259 87.8028 77.7431 87.6803 77.5712C86.9801 76.5822 86.2342 75.6261 85.4426 74.7102C84.6876 73.6736 83.9582 72.6187 83.1976 71.573C82.7022 70.8911 81.9819 69.8527 81.0715 69.7467C80.8466 69.7211 80.6547 69.7632 80.5011 69.8509C79.896 68.7303 79.3494 67.5785 78.8704 66.3975C78.8649 66.3427 78.8539 66.286 78.8375 66.233C78.8521 65.6297 78.1519 65.0849 77.6419 65.6498C77.5194 65.7869 77.3951 65.924 77.2744 66.0611C77.0916 66.2037 76.9179 66.3774 76.7424 66.5438C76.4901 66.7851 76.1665 67.0703 75.9545 67.392C75.7515 67.3664 75.5431 67.4213 75.3914 67.595C74.7845 68.2878 74.3548 69.052 74.0934 69.8911C73.6711 70.403 73.0861 71.0721 72.7643 71.7632C72.6236 71.7156 72.47 71.7047 72.3311 71.7357C71.9124 71.8308 71.5303 72.0264 71.1757 72.2769C71.0806 71.8253 70.7899 71.5036 70.1428 71.6644C69.2269 71.8911 68.4316 73.0319 67.9581 73.7778C67.4481 74.5822 66.5486 75.9899 66.8813 76.9643C66.8813 76.9698 66.885 76.9734 66.8868 76.9771C66.7479 77.0283 66.6199 77.1252 66.523 77.2714C65.6711 78.5731 65.4005 80.1434 65.214 81.6608C65.097 82.6188 65.0623 83.584 65.1427 84.5365C65.097 85.1764 65.1427 85.8235 65.225 86.4616C65.3128 87.1398 65.4298 87.8107 65.4992 88.4872C65.3036 88.5694 65.1373 88.7212 65.0641 88.9296C64.5852 90.3117 64.7186 91.7468 65.3713 93.0466C65.5047 93.3117 65.9014 93.478 66.1848 93.3775C70.757 91.7541 75.3238 90.1124 79.9289 88.5822C82.1794 87.8345 84.4335 87.0886 86.7351 86.5109C87.907 86.2166 89.0898 85.9661 90.2854 85.7833C90.9838 85.6773 91.6748 85.5932 92.3128 85.3318C92.7571 85.4652 93.2635 85.1252 93.2452 84.6389C93.2543 84.617 93.2616 84.5932 93.269 84.5713C93.5249 84.3372 93.6127 83.9332 93.2891 83.5712V83.5767ZM74.3585 71.8948C74.4115 71.9021 74.4645 71.9039 74.5175 71.9021C74.3329 72.074 74.1629 72.2805 74.0075 72.5054C74.0733 72.3098 74.2122 72.0941 74.3585 71.8948Z" fill="#57CE5D"></path><path d="M99.6386 80.5729C99.1011 78.8947 98.9823 77.1725 98.7666 75.4358C98.5417 73.6314 98.0573 71.9604 97.432 70.2584C97.262 68.9897 97.0737 67.7228 96.8616 66.4595C96.8105 66.1542 96.6002 65.9952 96.3571 65.9531L96.1688 65.0244C96.1377 64.8745 96.0755 64.7612 95.9914 64.6771C95.9914 64.6423 95.9933 64.6094 95.9951 64.5747C96.1925 64.348 96.2145 63.9769 96.0609 63.7008C96.1103 63.4047 96.1998 63.125 96.3717 62.9184C96.9585 62.209 95.9457 61.1853 95.3534 61.9001C95.1011 62.2054 94.9238 62.5527 94.7977 62.9239C94.6039 62.9878 94.4466 63.1341 94.39 63.3553C93.9476 63.39 93.507 63.4577 93.07 63.56C92.9256 63.2639 92.6185 63.0573 92.2583 63.1908C91.8104 63.3571 91.4028 63.7922 91.6093 64.2694C91.5655 64.4193 91.5179 64.5655 91.4667 64.7118C91.4338 64.7155 91.3991 64.7209 91.3644 64.7301C91.0042 64.8215 90.6642 65.1323 90.421 65.4028C89.858 66.0299 89.5545 66.8178 89.5271 67.6588C89.5179 67.9074 89.6185 68.0884 89.7666 68.2036C89.6806 68.3846 89.6057 68.5692 89.5581 68.752C89.2474 68.2292 88.8415 67.7794 88.4101 67.3169C87.8177 66.6826 87.1651 65.6697 86.3223 65.3553C85.9804 65.2273 85.6422 65.2913 85.293 65.2365C84.7702 65.1524 84.3534 65.22 83.8049 65.306C82.666 65.4833 81.5289 65.6771 80.3954 65.8836C80.368 65.8891 80.3424 65.8946 80.3168 65.9019C79.7519 65.2621 78.9109 66.1213 79.2053 66.7977C79.2638 66.9312 79.3223 67.0646 79.3808 67.1981C79.485 67.4376 79.6605 67.5509 79.847 67.571C79.9365 67.6752 80.0261 67.7794 80.1157 67.8836C80.134 67.933 80.1596 67.9842 80.1925 68.0354C80.6404 68.7301 81.2291 69.2877 81.7775 69.8946C82.2016 70.4595 82.5874 71.0445 82.9 71.6679C83.0335 71.933 83.251 72.0391 83.4722 72.0317C83.5069 72.0756 83.5399 72.1213 83.5746 72.1652C84.1084 72.8361 84.7062 73.4065 85.3314 73.9897C86.0389 74.6497 86.4814 75.4851 87.0499 76.2584C88.1304 77.7301 89.6313 78.9495 90.5216 80.5436C90.9274 81.2676 91.2839 81.9239 91.8616 82.5309C92.5106 83.2146 93.0353 83.9257 93.3772 84.8106C93.5819 85.3426 94.1962 85.3992 94.5527 85.1597C95.7318 85.2694 97.0371 84.5199 97.9092 83.8727C98.4503 83.4705 99.0938 83.0391 99.496 82.4888C99.9403 81.88 99.8525 81.2493 99.635 80.5711L99.6386 80.5729Z" fill="#A9FFAB"></path><path d="M81.0513 69.1142C80.3108 67.7869 79.6783 66.1983 78.6582 65.063C78.0384 64.3719 77.022 65.3939 77.6399 66.0813C78.0969 66.5895 78.3821 67.286 78.713 67.8783C79.0787 68.5328 79.4425 69.1855 79.8081 69.8399C80.2596 70.6498 81.5046 69.924 81.0513 69.1123V69.1142Z" fill="#57CE5D"></path><path d="M101.704 66.6771C101.443 66.2256 100.971 66.0007 100.514 65.7886C100.105 65.5985 99.684 65.4395 99.2544 65.3079C98.6091 64.7813 97.9308 64.2987 97.2178 63.8618C96.4263 63.3755 95.7005 64.6205 96.4902 65.1049C97.0917 65.4742 97.6621 65.8764 98.205 66.3133C98.2763 66.4358 98.3897 66.5382 98.5524 66.5985C99.0625 67.03 99.5487 67.4888 100.009 67.9806C100.413 68.4102 100.969 68.1561 101.159 67.7411C101.605 67.6662 102 67.1872 101.704 66.6771Z" fill="#57CE5D"></path><path d="M96.4648 64.1232C96.6513 64.2768 98.0901 75.7979 98.2509 76.1178C98.4118 76.4377 98.7683 79.8491 98.75 80.6242C98.7318 81.3993 98.6093 83.7101 98.75 83.5145C98.8908 83.3189 103.639 80.0374 103.639 80.0374C103.639 80.0374 103.213 67.8692 102.732 67.5108C102.251 67.1525 96.4648 63.7101 96.4648 63.7101V64.1214V64.1232Z" fill="#57CE5D"></path><path d="M120.004 60.9148C119.945 61.0025 119.874 61.0829 119.795 61.1579C119.689 61.1323 119.571 61.1287 119.441 61.1579C118.132 61.4632 116.825 61.7978 115.572 62.2895C114.667 62.646 113.168 63.061 112.885 64.1085C112.755 64.5912 113.242 65.2073 113.772 64.9952C115.251 64.3974 116.744 63.8435 118.258 63.3407C119.386 62.966 120.556 62.6917 121.247 61.6405C121.757 60.8636 120.51 60.1414 120.004 60.9129V60.9148Z" fill="#57CE5D"></path><path d="M121.784 64.3352C121.686 64.3663 121.589 64.3992 121.49 64.4303C121.124 64.2091 120.548 64.1981 120.124 64.3042C118.781 64.6405 117.528 65.2164 116.126 65.2841C115.841 65.2987 115.605 65.4486 115.481 65.6917L114.28 65.9129C113.369 66.0811 113.755 67.4687 114.662 67.3023L114.951 67.2493C114.974 67.2895 115 67.3316 115.031 67.37C115.695 68.2 117.347 67.2713 118.102 67.0281C118.823 66.7959 119.543 66.5656 120.265 66.3334C120.618 66.2713 120.962 66.178 121.238 66.0208C121.547 65.9221 121.857 65.8215 122.166 65.7228C123.046 65.4413 122.669 64.05 121.784 64.3334V64.3352Z" fill="#57CE5D"></path><path d="M121.931 66.8125C121.642 66.9386 121.412 67.1214 121.179 67.3097C121.092 67.3024 120.995 67.3134 120.891 67.35C119.903 67.69 118.838 67.6955 117.861 68.0721C116.995 68.4066 116.286 69.0191 115.481 69.467C115.379 69.5236 115.3 69.6077 115.245 69.7028C115.198 69.7192 115.148 69.7339 115.099 69.7448C114.732 69.8289 114.479 70.2732 114.596 70.6315C114.721 71.0172 115.088 71.2238 115.483 71.1342C115.733 71.0776 115.982 70.9697 116.189 70.818C116.24 70.7796 116.286 70.7394 116.329 70.6973C116.637 70.5949 116.913 70.4469 117.205 70.2951C117.36 70.4414 117.584 70.5182 117.854 70.445C119.207 70.0794 120.543 69.6626 121.865 69.1946C122.307 69.0373 122.426 68.5986 122.32 68.2476C122.428 68.1763 122.54 68.1105 122.66 68.0575C123.507 67.6863 122.775 66.445 121.933 66.8143L121.931 66.8125Z" fill="#57CE5D"></path><path d="M121.551 60.4576C121.119 61.326 120.752 62.0847 120.362 62.8306C120.309 62.9311 120.145 62.9915 120.02 63.0317C117.666 63.7739 115.309 64.5088 112.951 65.2419C112.839 65.2767 112.715 65.2657 112.596 65.2748C112.613 65.1487 112.6 65.0079 112.651 64.8982C112.931 64.2949 113.209 63.688 113.527 63.1048C113.62 62.933 113.825 62.7684 114.013 62.7063C116.324 61.9604 118.638 61.2346 120.956 60.5088C121.108 60.4613 121.278 60.4777 121.551 60.4558V60.4576Z" stroke="black" stroke-width="4" stroke-linecap="round" stroke-linejoin="round"></path><path d="M123.613 66.4723C123.395 66.911 123.194 67.2145 123.09 67.5472C122.739 68.6624 121.969 69.1706 120.852 69.4613C118.922 69.9659 117.033 70.635 115.126 71.231C114.975 71.2785 114.817 71.3041 114.582 71.3571C114.635 71.1633 114.649 71.0427 114.7 70.9403C114.987 70.3553 115.262 69.763 115.585 69.1981C115.697 69.0043 115.912 68.8068 116.121 68.7392C118.417 67.9915 120.719 67.2675 123.022 66.5436C123.165 66.4979 123.324 66.5052 123.611 66.4723H123.613Z" stroke="black" stroke-width="4" stroke-linecap="round" stroke-linejoin="round"></path><path d="M123.205 65.1725C122.971 65.3078 122.858 65.4047 122.726 65.4467C120.397 66.1798 118.066 66.9093 115.734 67.6295C115.584 67.6753 115.381 67.7045 115.253 67.6387C114.518 67.2621 113.798 66.8544 112.964 66.3992C113.192 66.284 113.309 66.2036 113.439 66.1634C115.779 65.4175 118.119 64.6753 120.461 63.9367C120.587 63.8965 120.757 63.8489 120.856 63.9001C121.604 64.2877 122.34 64.7008 123.202 65.1725H123.205Z" stroke="black" stroke-width="4" stroke-linecap="round" stroke-linejoin="round"></path><path d="M134.243 59.1725C133.883 59.0902 133.468 59.2767 133.366 59.6515C132.949 59.4796 132.344 59.752 132.322 60.306C132.286 61.2091 132.282 62.1122 132.317 63.0135C132.307 63.4851 132.317 63.9586 132.346 64.4321C132.353 64.5637 132.392 64.6734 132.448 64.7667C132.51 65.0665 132.615 65.3517 132.796 65.6003C133.147 66.0848 133.933 66.0647 134.112 65.4285C134.567 63.816 134.446 62.1396 134.646 60.4906C134.679 60.3462 134.713 60.2018 134.746 60.0573C134.83 59.6917 134.633 59.2603 134.243 59.1707V59.1725Z" fill="#57CE5D"></path><path d="M140.593 59.668C140.472 58.8325 139.719 57.6972 138.779 58.1671C138.136 58.2621 137.587 58.5437 137.178 58.9422C137.137 58.9641 137.097 58.9861 137.059 59.0099C136.278 59.5035 136.037 60.6022 136.247 61.5583C136.254 61.6369 136.262 61.7137 136.273 61.7905C136.395 62.6186 136.876 63.5492 137.819 63.6077C138.183 63.6296 138.492 63.5272 138.752 63.3481C139.567 63.2183 140.307 62.5821 140.441 61.5546C140.488 61.1872 140.496 60.7576 140.424 60.3444C140.578 60.1689 140.629 59.9184 140.593 59.6643V59.668Z" fill="#57CE5D"></path><path d="M147.212 58.9971C147.287 58.7064 147.255 58.4376 147.152 58.1982C147.03 57.604 146.657 57.1451 145.916 57.1707C145.887 57.1616 145.858 57.1543 145.829 57.1451C145.713 57.0208 145.549 56.9331 145.333 56.9239C144.386 56.8855 143.618 57.3078 143.139 57.9495C143.039 58.0501 142.942 58.1561 142.856 58.2676C141.49 60.0281 142.867 62.6844 145.183 61.902C146.11 61.5894 146.721 60.8837 146.938 59.9824C147.042 59.721 147.116 59.445 147.158 59.1634C147.178 59.1067 147.196 59.0501 147.211 58.9952L147.212 58.9971Z" fill="#57CE5D"></path><path d="M153.474 59.5236C153.482 59.4523 153.478 59.3773 153.46 59.2969C153.315 56.8709 153.326 54.4431 153.491 52.0154C153.525 51.4907 153.079 51.2658 152.675 51.3389C152.65 49.2238 152.648 47.1104 152.677 44.9952C152.686 44.3554 152.004 44.1579 151.575 44.4011C151.251 44.2475 150.84 44.3718 150.642 44.6881C150.355 45.147 150.383 45.8654 150.341 46.3993C150.282 47.1305 150.266 47.8654 150.291 48.5985C150.341 49.977 150.546 51.3481 150.794 52.7027C150.796 52.7155 150.8 52.7265 150.802 52.7375C150.776 55.0665 151.388 57.3225 152.037 59.5474C152.056 59.8344 152.074 60.1214 152.098 60.4084C152.171 61.3262 153.611 61.3335 153.538 60.4084C153.515 60.1123 153.494 59.8179 153.476 59.5218L153.474 59.5236Z" fill="#57CE5D"></path><path d="M135.832 17.0646C135.832 16.4193 135.163 16.2255 134.737 16.4741C134.421 16.3717 134.013 16.4613 133.821 16.7593C133.779 16.8233 133.739 16.8873 133.697 16.9494C133.534 17.1999 133.554 17.4449 133.669 17.635C133.613 18.1779 133.556 18.7191 133.505 19.262C133.461 19.7319 133.843 19.9677 134.227 19.9531C134.311 19.9896 134.403 20.0098 134.496 20.0061C134.56 19.997 134.624 19.9896 134.688 19.9805C134.737 19.9659 134.785 19.9476 134.828 19.9238C135.253 20.0847 135.836 19.8726 135.836 19.2803C135.836 18.5417 135.834 17.8032 135.832 17.0628V17.0646Z" fill="#57CE5D"></path><path d="M43.4904 103.535L42.0626 98.7979C41.7957 97.913 40.4045 98.2897 40.6732 99.18C40.6897 99.2366 40.7079 99.2933 40.7244 99.35C40.686 99.3884 40.6531 99.4323 40.6257 99.4798C40.2893 99.1343 39.5672 99.1416 39.3734 99.7504C39.1467 100.465 39.6586 100.961 40.0114 101.527C40.4447 102.224 40.75 102.964 40.962 103.756C41.0772 104.184 41.4538 104.319 41.7902 104.248C41.962 104.441 42.2399 104.474 42.494 104.385C42.5123 104.385 42.5288 104.387 42.5471 104.387C43.0334 104.542 43.6805 104.169 43.4886 103.535H43.4904Z" fill="#57CE5D"></path><path d="M29.2248 47.6113C29.2175 47.1798 28.9031 46.9531 28.5685 46.922C28.3784 45.9549 28.3071 44.975 28.3546 43.9659C28.3747 43.5235 27.8738 43.1158 27.4424 43.2712C27.1334 43.3827 26.925 43.3754 26.6197 43.2566C26.1462 43.0719 25.7458 43.5345 25.7075 43.9513C25.6544 44.5454 25.5265 45.1122 25.3437 45.6807C25.1535 46.273 25.7148 46.6368 26.1901 46.5491C26.3894 47.0811 26.5649 47.6149 26.7203 48.1688C26.8884 48.7758 27.1279 49.2822 27.6746 49.6277C27.9689 49.8124 28.2998 49.7118 28.5466 49.5144C28.8354 49.284 29.1243 48.9915 29.2833 48.6515C29.4716 48.2475 29.2321 48.0043 29.2248 47.6131V47.6113Z" fill="#57CE5D"></path><path d="M35.1593 45.602C35.3092 45.103 35.3312 44.5783 35.1813 44.0554C34.9783 43.3516 34.4665 42.8013 34.0935 42.187C33.9326 41.9238 33.6877 41.8287 33.45 41.847C33.344 41.7867 33.2324 41.7373 33.1136 41.7044C32.8211 41.624 32.5268 41.6678 32.2489 41.794C32.1008 41.6843 31.9015 41.6459 31.6639 41.7391C28.8339 42.8433 29.5743 47.4649 32.6072 47.7008C33.9217 47.8031 35.3348 47.0719 35.1593 45.6002V45.602Z" fill="#57CE5D"></path><path d="M43.1206 42.5728C43.0183 41.8982 42.1901 40.6587 41.3802 40.6569C40.8556 39.8324 40.2596 38.9238 39.1261 39.3607C39.0969 39.3717 39.0694 39.3863 39.042 39.3991C38.8428 39.3607 38.6234 39.4083 38.4333 39.5929C37.6727 40.3352 37.2248 41.5125 37.3309 42.5582C37.3345 42.6971 37.351 42.8361 37.3729 42.9732C37.3089 43.7849 37.7184 44.454 38.5758 44.8726C38.585 44.8763 38.5923 44.88 38.6014 44.8836C39.6764 45.5911 41.0603 45.4266 42.0695 44.5893C42.1627 44.5107 42.2267 44.4266 42.2651 44.3388C42.8135 43.8909 43.2175 43.209 43.1206 42.571V42.5728Z" fill="#57CE5D"></path><path opacity="0.21" d="M0.665297 28.6788C0.550123 29.6295 8.53369 96.3755 9.26313 96.2092C9.99256 96.0428 10.7768 96.5364 10.8646 96.2092C10.9249 95.9862 8.73844 75.5419 7.39109 62.8124C6.775 56.9806 6.33442 52.7667 6.36732 52.8599C6.47153 53.1542 12.8938 98.6644 12.8938 98.6644L13.8756 99.116C13.8756 99.116 9.13515 55.295 9.56477 55.7447C9.99439 56.1945 11.9085 63.9166 11.7512 65.3371C11.594 66.7576 15.9981 103.09 16.6763 103.487C17.3546 103.884 18.4935 103.09 18.9652 103.487C19.4368 103.884 11.3088 55.5583 11.3088 55.5583C11.3088 55.5583 20.2778 107.385 20.5776 106.434C20.8774 105.483 14.4185 65.2768 14.3673 65.7758C14.3162 66.2749 19.499 98.7357 20.5886 103.229C21.6782 107.723 22.6855 108.743 22.6617 108.794C22.6379 108.845 23.2814 108.354 23.5191 106.679C23.7568 105.004 20.8774 86.1196 20.7165 83.5602C20.5557 80.9989 24.4862 95.0154 24.2814 95.6882C24.0767 96.3609 24.4222 100.189 24.4899 96.9953C24.5575 93.8015 22.8006 88.7357 23.5191 89.0282C24.2376 89.3207 29.3235 103.392 29.6617 104.919C29.9999 106.445 31.201 115.26 31.201 115.26C31.201 115.26 32.0804 115.986 32.4003 115.056C32.7202 114.127 33.8884 106.008 33.4643 106.067C33.0402 106.125 22.3107 74.7137 21.0346 67.9349C19.7568 61.1561 15.6178 40.8014 16.2467 39.3772C16.8756 37.9531 109.958 17.4978 110.388 17.4028C110.817 17.3077 152.185 7.5563 152.185 7.5563C152.185 7.5563 138.331 6.63674 135.856 6.37166C133.38 6.10657 130.953 4.97129 129.925 4.65867C128.9 4.34606 129.693 2.6477 128.896 2.77567C128.099 2.90364 79.4863 14.7026 70.9068 15.4448C62.3254 16.187 5.76403 25.1761 3.1589 26.2821C0.553779 27.39 0.668954 28.6807 0.668954 28.6807L0.665297 28.6788Z" fill="black"></path><path d="M112.075 79.5492C112.048 79.5328 112.018 79.52 111.987 79.509C111.963 76.5565 111.764 73.6095 111.384 70.679C111.358 70.487 111.276 70.3371 111.159 70.2256C111.066 69.5711 110.969 68.9148 110.868 68.2603C110.75 67.37 110.605 66.4834 110.437 65.6022C109.927 62.5912 109.34 59.5912 108.671 56.6095C108.596 56.2767 108.311 56.1159 108.016 56.1031C107.793 54.2676 107.58 52.4102 106.885 50.6899C106.035 47.008 105.141 43.337 104.203 39.6771C104.265 39.5765 104.303 39.4522 104.303 39.3023C104.272 34.9165 104.241 30.5308 104.208 26.145C104.205 25.6898 103.854 25.4576 103.499 25.4503C103.499 25.4412 103.495 25.4302 103.495 25.4211C103.475 24.2437 103.42 23.0737 103.06 21.9403C102.93 21.5289 102.558 21.3918 102.227 21.4522C102.113 21.2657 101.993 21.081 101.859 20.9055C101.676 20.56 101.47 20.2255 101.239 19.9055C100.773 19.2602 100.214 18.5052 99.4387 18.2273C97.8208 16.3589 96.0164 14.677 93.6252 13.8342C93.5959 13.8232 93.5685 13.8159 93.5411 13.8086C92.1663 12.6295 90.6197 11.3954 88.8866 10.9439L88.7842 10.8653C88.5045 10.6514 88.2284 10.7007 88.031 10.8744C87.722 10.9859 87.5301 11.2967 87.5173 11.5965C87.3509 11.5051 87.1882 11.4905 87.0456 11.5289C86.9634 11.4558 86.8793 11.3827 86.797 11.3095C86.1096 10.6916 85.0877 11.7081 85.7787 12.3278C85.9067 12.443 86.0365 12.5563 86.1644 12.6697C85.733 12.5289 85.307 12.3735 84.8884 12.198C84.8829 12.1889 84.8811 12.1779 84.8756 12.1669C84.8445 12.0591 84.8134 11.953 84.7824 11.8452C84.7421 10.9348 83.3399 10.9183 83.3436 11.8123C83.3418 11.8123 83.3381 11.8159 83.3363 11.8159C82.9085 12.0956 82.8299 12.7995 83.3363 13.0591C84.6178 13.719 85.9963 14.1048 87.3729 14.4869C87.4058 14.5271 87.446 14.5655 87.4935 14.602C88.7147 15.5527 89.9359 16.4997 91.2833 17.2657C91.2906 17.2693 91.2997 17.273 91.3071 17.2785C91.9908 17.8415 92.7001 18.3717 93.4771 18.8105C94.4551 19.5838 95.4442 20.3425 96.4387 21.0938C96.4369 21.1505 96.4387 21.209 96.4515 21.2693C96.8793 23.6587 97.3948 26.028 98.0018 28.379C98.0767 28.6697 98.2742 28.8251 98.499 28.8726C98.9085 30.2127 99.3985 31.5253 99.9652 32.8068C100.252 34.9074 100.631 36.9933 101.095 39.0591C100.929 39.1707 100.817 39.359 100.834 39.6295C100.971 41.9458 101.196 44.2566 101.505 46.5546C101.327 46.7063 101.239 46.9458 101.349 47.242C102.353 49.9477 101.958 52.8489 102.091 55.6698C102.104 55.9257 102.225 56.1086 102.391 56.2237C102.497 57.8069 102.687 59.3791 103.071 60.9258C103.009 64.125 103.267 67.3188 103.826 70.4779C103.848 70.604 103.896 70.7027 103.96 70.7813C103.883 73.7448 103.766 76.7083 103.603 79.6699C103.583 80.0483 103.812 80.2695 104.093 80.3371C103.861 81.2421 103.715 82.1635 103.649 83.1068C103.62 83.5181 103.967 83.7814 104.327 83.8106C104.338 83.8527 104.347 83.8966 104.358 83.9386C104.519 84.6004 105.62 84.6498 105.748 83.9386C105.859 83.3116 105.954 82.6808 106.031 82.0501C106.305 81.9715 106.537 81.754 106.554 81.3902C106.74 77.2933 106.581 73.1945 106.079 69.125C106.047 68.8709 105.91 68.6863 105.735 68.5748C105.682 68.1781 105.625 67.7832 105.563 67.3883C105.643 64.1305 105.618 60.8691 105.484 57.6113C105.468 57.2091 105.185 56.9806 104.874 56.9276C104.903 56.827 104.914 56.7155 104.894 56.5948C104.863 56.3974 104.834 56.1981 104.803 55.9989C105.013 55.8453 105.146 55.5875 105.071 55.2603C105.064 55.2292 105.057 55.2 105.049 55.1689C104.993 54.9239 104.813 54.7758 104.601 54.699C104.333 52.8965 104.09 51.0884 103.874 49.2804C104.373 50.6314 104.965 51.9678 105.19 53.3864C105.219 53.5747 105.303 53.7064 105.415 53.7904C105.121 53.9422 104.903 54.2859 104.993 54.6369C105.75 57.6296 106.508 60.6223 107.265 63.6131C107.28 63.8782 107.294 64.1433 107.309 64.4084C107.422 66.5291 107.534 68.6497 107.645 70.7686C107.664 71.1031 107.863 71.3152 108.11 71.4084C108.307 73.7137 108.574 76.0117 108.909 78.3042C108.989 78.8563 109.525 78.9313 109.91 78.7064C109.947 79.1434 109.98 79.5803 110.013 80.019C109.638 80.0392 109.347 80.4066 109.344 80.7777C109.245 80.8673 109.168 80.9843 109.117 81.1178C109.029 81.3481 109.038 81.5766 109.104 81.8106C109.218 82.2128 109.603 82.3792 109.991 82.3134C110.994 82.1434 111.898 81.4541 112.331 80.5346C112.497 80.1836 112.43 79.7576 112.073 79.5492H112.075ZM101.126 30.4376C101.113 30.3114 101.101 30.1871 101.088 30.061C101.23 30.4961 101.367 30.9312 101.501 31.3699C101.541 31.6789 101.578 31.9897 101.616 32.2986L101.126 30.4376Z" fill="#FFCE00"></path></svg> 