<?xml version="1.0" encoding="UTF-8"?> <svg xmlns="http://www.w3.org/2000/svg" width="342" height="132" viewBox="0 0 342 132" fill="none"><rect x="6.35254" y="9.71686" width="335.619" height="121.755" rx="13.079" fill="#2E2A1D"></rect><rect x="0.50304" y="0.691273" width="334.613" height="122.866" rx="12.576" fill="#FFF3CF" stroke="#2E2A1D" stroke-width="1.00608"></rect><path d="M20.5124 61.458H22.9718C23.067 61.7753 23.2204 62.0557 23.432 62.299C23.8974 62.849 24.5903 63.1241 25.5106 63.1241C26.8857 63.1241 27.5733 62.7009 27.5733 61.8547C27.5733 61.6431 27.4993 61.4527 27.3512 61.2835C27.2137 61.1142 26.9915 60.9661 26.6848 60.8392C26.3886 60.7122 26.0977 60.6117 25.8121 60.5377C25.537 60.4531 25.1774 60.3526 24.7331 60.2362C24.6696 60.2256 24.6167 60.2151 24.5744 60.2045C24.5427 60.1939 24.4951 60.1833 24.4316 60.1728C24.3787 60.1516 24.3311 60.1357 24.2888 60.1252C22.0885 59.5962 20.9884 58.5331 20.9884 56.9358C20.9884 55.9838 21.3745 55.1799 22.1467 54.524C22.9295 53.8576 23.9715 53.5244 25.2726 53.5244C26.9651 53.5244 28.245 54.0956 29.1124 55.238C29.4721 55.7458 29.726 56.3117 29.8741 56.9358H27.4147C27.3512 56.7137 27.2295 56.5021 27.0497 56.3011C26.6477 55.878 26.0554 55.6665 25.2726 55.6665C24.6696 55.6665 24.2148 55.7828 23.908 56.0155C23.6012 56.2377 23.4478 56.518 23.4478 56.8565C23.4478 57.47 24.146 57.9355 25.5423 58.2528C25.902 58.3374 26.1241 58.3903 26.2087 58.4115C26.3039 58.4326 26.5208 58.4908 26.8593 58.586C27.2084 58.6812 27.4411 58.7606 27.5575 58.824C27.6844 58.8769 27.8907 58.9668 28.1763 59.0938C28.4725 59.2101 28.6787 59.3212 28.7951 59.427C28.922 59.5328 29.0807 59.6756 29.2711 59.8554C29.4721 60.0247 29.6149 60.1992 29.6995 60.379C29.7842 60.5589 29.8582 60.7704 29.9217 61.0137C29.9957 61.2464 30.0327 61.5003 30.0327 61.7753C30.0327 62.7591 29.6361 63.5895 28.8427 64.2665C28.0493 64.9329 26.9386 65.2661 25.5106 65.2661C23.6277 65.2661 22.2472 64.6314 21.3692 63.3621C20.9567 62.812 20.6711 62.1773 20.5124 61.458ZM31.6061 63.9492C30.7704 63.1135 30.3526 62.098 30.3526 60.9026C30.3526 59.7073 30.7704 58.6971 31.6061 57.872C32.4523 57.0363 33.489 56.6185 34.7161 56.6185C35.9643 56.6185 36.9904 57.031 37.7943 57.8561C38.5982 58.6812 39.0002 59.6967 39.0002 60.9026V61.3787H32.6533C32.7379 61.9076 32.976 62.3571 33.3673 62.7274C33.7587 63.0976 34.2083 63.2827 34.7161 63.2827C35.2767 63.2827 35.758 63.1241 36.16 62.8067C36.3186 62.6692 36.4456 62.5105 36.5408 62.3307H38.9209C38.741 62.8702 38.4766 63.3462 38.1275 63.7587C37.2813 64.7108 36.1441 65.1868 34.7161 65.1868C33.489 65.1868 32.4523 64.7743 31.6061 63.9492ZM32.7327 60.0299H36.6201C36.5355 59.6068 36.3186 59.2525 35.9696 58.9668C35.6311 58.6707 35.2132 58.5226 34.7161 58.5226C34.2189 58.5226 33.7958 58.6654 33.4467 58.951C33.0976 59.2366 32.8596 59.5962 32.7327 60.0299ZM39.0733 58.7606V56.8565H40.1047V55.1111H42.3261V56.8565H44.611V58.7606H42.3261V63.0447H44.7062V64.9488H40.1047V58.7606H39.0733ZM48.5113 58.7606V56.8565H49.5426V55.1111H51.764V56.8565H54.0489V58.7606H51.764V63.0447H54.1441V64.9488H49.5426V58.7606H48.5113ZM54.7714 64.9488V53.8417H56.9928V57.9672H57.0721C57.2096 57.7239 57.4053 57.5018 57.6592 57.3008C58.241 56.8459 58.8916 56.6185 59.6109 56.6185C60.6158 56.6185 61.3933 56.9094 61.9434 57.4912C62.504 58.073 62.7843 58.9192 62.7843 60.0299V64.9488H60.5629V60.3473C60.5629 59.7549 60.4148 59.3053 60.1186 58.9986C59.833 58.6812 59.4258 58.5226 58.8969 58.5226C58.3679 58.5226 57.9184 58.7235 57.5481 59.1255C57.1779 59.5275 56.9928 60.0405 56.9928 60.6646V64.9488H54.7714ZM64.5988 63.9492C63.7631 63.1135 63.3453 62.098 63.3453 60.9026C63.3453 59.7073 63.7631 58.6971 64.5988 57.872C65.445 57.0363 66.4817 56.6185 67.7087 56.6185C68.957 56.6185 69.9831 57.031 70.787 57.8561C71.5909 58.6812 71.9929 59.6967 71.9929 60.9026V61.3787H65.646C65.7306 61.9076 65.9686 62.3571 66.36 62.7274C66.7514 63.0976 67.201 63.2827 67.7087 63.2827C68.2694 63.2827 68.7507 63.1241 69.1527 62.8067C69.3113 62.6692 69.4383 62.5105 69.5335 62.3307H71.9136C71.7337 62.8702 71.4693 63.3462 71.1202 63.7587C70.274 64.7108 69.1368 65.1868 67.7087 65.1868C66.4817 65.1868 65.445 64.7743 64.5988 63.9492ZM65.7253 60.0299H69.6128C69.5282 59.6068 69.3113 59.2525 68.9623 58.9668C68.6238 58.6707 68.2059 58.5226 67.7087 58.5226C67.2116 58.5226 66.7884 58.6654 66.4394 58.951C66.0903 59.2366 65.8523 59.5962 65.7253 60.0299ZM76.5132 64.9488V56.8565H78.7346V57.9672H78.8139C78.962 57.7028 79.1419 57.4806 79.3534 57.3008C79.8718 56.8459 80.4853 56.6185 81.194 56.6185C82.0403 56.6185 82.749 56.8724 83.3202 57.3801C83.553 57.6023 83.7434 57.8508 83.8915 58.1259H83.9708C84.1189 57.8508 84.3093 57.6023 84.542 57.3801C85.1132 56.8724 85.7955 56.6185 86.5889 56.6185C87.5621 56.6185 88.3184 56.9147 88.8579 57.5071C89.408 58.0889 89.683 58.9298 89.683 60.0299V64.9488H87.4616V60.268C87.4616 59.1044 86.9591 58.5226 85.9542 58.5226C85.4676 58.5226 85.0551 58.713 84.7166 59.0938C84.3781 59.4746 84.2088 59.9718 84.2088 60.5853V64.9488H81.9874V60.268C81.9874 59.1044 81.4849 58.5226 80.48 58.5226C79.9934 58.5226 79.5809 58.713 79.2424 59.0938C78.9039 59.4746 78.7346 59.9718 78.7346 60.5853V64.9488H76.5132ZM91.5009 63.9492C90.6547 63.1135 90.2315 62.098 90.2315 60.9026C90.2315 59.7073 90.6547 58.6971 91.5009 57.872C92.3472 57.0363 93.405 56.6185 94.6744 56.6185C95.9332 56.6185 96.9857 57.0363 97.8319 57.872C98.6888 58.6971 99.1172 59.7073 99.1172 60.9026C99.1172 62.098 98.6888 63.1135 97.8319 63.9492C96.9857 64.7743 95.9332 65.1868 94.6744 65.1868C93.405 65.1868 92.3472 64.7743 91.5009 63.9492ZM93.1511 59.189C92.7386 59.6333 92.5323 60.2045 92.5323 60.9026C92.5323 61.6008 92.7386 62.172 93.1511 62.6163C93.5637 63.0606 94.0714 63.2827 94.6744 63.2827C95.2773 63.2827 95.7851 63.0606 96.1976 62.6163C96.6102 62.172 96.8164 61.6008 96.8164 60.9026C96.8164 60.2045 96.6102 59.6333 96.1976 59.189C95.7851 58.7447 95.2773 58.5226 94.6744 58.5226C94.0714 58.5226 93.5637 58.7447 93.1511 59.189ZM100.551 63.9492C99.7046 63.1135 99.2814 62.098 99.2814 60.9026C99.2814 59.7073 99.7046 58.6971 100.551 57.872C101.397 57.0363 102.455 56.6185 103.724 56.6185C104.983 56.6185 106.036 57.0363 106.882 57.872C107.739 58.6971 108.167 59.7073 108.167 60.9026C108.167 62.098 107.739 63.1135 106.882 63.9492C106.036 64.7743 104.983 65.1868 103.724 65.1868C102.455 65.1868 101.397 64.7743 100.551 63.9492ZM102.201 59.189C101.788 59.6333 101.582 60.2045 101.582 60.9026C101.582 61.6008 101.788 62.172 102.201 62.6163C102.614 63.0606 103.121 63.2827 103.724 63.2827C104.327 63.2827 104.835 63.0606 105.248 62.6163C105.66 62.172 105.866 61.6008 105.866 60.9026C105.866 60.2045 105.66 59.6333 105.248 59.189C104.835 58.7447 104.327 58.5226 103.724 58.5226C103.121 58.5226 102.614 58.7447 102.201 59.189ZM109.474 64.0126C108.765 63.2193 108.411 62.1826 108.411 60.9026C108.411 59.6227 108.765 58.5913 109.474 57.8085C110.193 57.0152 111.082 56.6185 112.139 56.6185C112.848 56.6185 113.488 56.8301 114.059 57.2532C114.303 57.4542 114.509 57.6657 114.678 57.8879H114.758V53.8417H116.979V64.9488H114.758V63.9174H114.678C114.509 64.1396 114.303 64.3511 114.059 64.5521C113.488 64.9752 112.848 65.1868 112.139 65.1868C111.082 65.1868 110.193 64.7954 109.474 64.0126ZM111.267 59.1573C110.897 59.5804 110.711 60.1622 110.711 60.9026C110.711 61.6431 110.897 62.2249 111.267 62.648C111.637 63.0712 112.113 63.2827 112.695 63.2827C113.308 63.2827 113.806 63.0765 114.186 62.6639C114.567 62.2408 114.758 61.6537 114.758 60.9026C114.758 60.1516 114.567 59.5698 114.186 59.1573C113.806 58.7341 113.308 58.5226 112.695 58.5226C112.113 58.5226 111.637 58.7341 111.267 59.1573ZM118.137 64.8219C117.894 64.5786 117.772 64.2771 117.772 63.9174C117.772 63.5578 117.894 63.2563 118.137 63.013C118.381 62.7697 118.682 62.648 119.042 62.648C119.401 62.648 119.703 62.7697 119.946 63.013C120.189 63.2563 120.311 63.5578 120.311 63.9174C120.311 64.2771 120.189 64.5786 119.946 64.8219C119.703 65.0652 119.401 65.1868 119.042 65.1868C118.682 65.1868 118.381 65.0652 118.137 64.8219ZM126.321 63.6001C125.178 62.4788 124.607 61.0772 124.607 59.3953C124.607 57.7133 125.178 56.317 126.321 55.2063C127.474 54.085 128.939 53.5244 130.716 53.5244C132.715 53.5244 134.249 54.2278 135.317 55.6347C135.804 56.2588 136.148 56.957 136.349 57.7292H133.889C133.752 57.3695 133.54 57.0416 133.255 56.7454C132.588 56.079 131.742 55.7458 130.716 55.7458C129.679 55.7458 128.822 56.0896 128.145 56.7772C127.479 57.4542 127.146 58.3269 127.146 59.3953C127.146 60.506 127.468 61.3945 128.114 62.061C128.77 62.7168 129.637 63.0447 130.716 63.0447C131.795 63.0447 132.662 62.6745 133.318 61.934C133.614 61.5849 133.831 61.2147 133.969 60.8233H136.428C136.185 61.659 135.82 62.3995 135.333 63.0447C134.191 64.5257 132.652 65.2661 130.716 65.2661C128.939 65.2661 127.474 64.7108 126.321 63.6001ZM137.135 64.9488V56.8565H139.357V58.0465H139.436C139.531 57.7927 139.674 57.5705 139.864 57.3801C140.298 56.9253 140.843 56.6978 141.499 56.6978H142.451V58.8399H141.261C140.658 58.8399 140.187 59.0039 139.849 59.3318C139.521 59.6491 139.357 60.0934 139.357 60.6646V64.9488H137.135ZM143.709 63.9492C142.873 63.1135 142.455 62.098 142.455 60.9026C142.455 59.7073 142.873 58.6971 143.709 57.872C144.555 57.0363 145.592 56.6185 146.819 56.6185C148.067 56.6185 149.093 57.031 149.897 57.8561C150.701 58.6812 151.103 59.6967 151.103 60.9026V61.3787H144.756C144.841 61.9076 145.079 62.3571 145.47 62.7274C145.861 63.0976 146.311 63.2827 146.819 63.2827C147.379 63.2827 147.861 63.1241 148.263 62.8067C148.421 62.6692 148.548 62.5105 148.643 62.3307H151.024C150.844 62.8702 150.579 63.3462 150.23 63.7587C149.384 64.7108 148.247 65.1868 146.819 65.1868C145.592 65.1868 144.555 64.7743 143.709 63.9492ZM144.835 60.0299H148.723C148.638 59.6068 148.421 59.2525 148.072 58.9668C147.734 58.6707 147.316 58.5226 146.819 58.5226C146.322 58.5226 145.898 58.6654 145.549 58.951C145.2 59.2366 144.962 59.5962 144.835 60.0299ZM152.477 64.0126C151.768 63.2193 151.414 62.1826 151.414 60.9026C151.414 59.6227 151.768 58.5913 152.477 57.8085C153.196 57.0152 154.085 56.6185 155.143 56.6185C155.852 56.6185 156.492 56.8301 157.063 57.2532C157.306 57.4542 157.512 57.6657 157.682 57.8879H157.761V56.8565H159.982V64.9488H157.761V63.9174H157.682C157.512 64.1396 157.306 64.3511 157.063 64.5521C156.492 64.9752 155.852 65.1868 155.143 65.1868C154.085 65.1868 153.196 64.7954 152.477 64.0126ZM154.27 59.1573C153.9 59.5804 153.715 60.1622 153.715 60.9026C153.715 61.6431 153.9 62.2249 154.27 62.648C154.64 63.0712 155.116 63.2827 155.698 63.2827C156.312 63.2827 156.809 63.0765 157.19 62.6639C157.57 62.2408 157.761 61.6537 157.761 60.9026C157.761 60.1516 157.57 59.5698 157.19 59.1573C156.809 58.7341 156.312 58.5226 155.698 58.5226C155.116 58.5226 154.64 58.7341 154.27 59.1573ZM160.458 58.7606V56.8565H161.49V55.1111H163.711V56.8565H165.996V58.7606H163.711V63.0447H166.091V64.9488H161.49V58.7606H160.458ZM167.496 63.9492C166.66 63.1135 166.242 62.098 166.242 60.9026C166.242 59.7073 166.66 58.6971 167.496 57.872C168.342 57.0363 169.379 56.6185 170.606 56.6185C171.854 56.6185 172.88 57.031 173.684 57.8561C174.488 58.6812 174.89 59.6967 174.89 60.9026V61.3787H168.543C168.628 61.9076 168.866 62.3571 169.257 62.7274C169.649 63.0976 170.098 63.2827 170.606 63.2827C171.167 63.2827 171.648 63.1241 172.05 62.8067C172.208 62.6692 172.335 62.5105 172.431 62.3307H174.811C174.631 62.8702 174.366 63.3462 174.017 63.7587C173.171 64.7108 172.034 65.1868 170.606 65.1868C169.379 65.1868 168.342 64.7743 167.496 63.9492ZM168.622 60.0299H172.51C172.425 59.6068 172.208 59.2525 171.859 58.9668C171.521 58.6707 171.103 58.5226 170.606 58.5226C170.109 58.5226 169.686 58.6654 169.337 58.951C168.987 59.2366 168.749 59.5962 168.622 60.0299ZM180.077 64.0126C179.368 63.2193 179.014 62.1826 179.014 60.9026C179.014 59.6227 179.368 58.5913 180.077 57.8085C180.796 57.0152 181.685 56.6185 182.742 56.6185C183.451 56.6185 184.091 56.8301 184.662 57.2532C184.906 57.4542 185.112 57.6657 185.281 57.8879H185.361V56.8565H187.582V64.9488H185.361V63.9174H185.281C185.112 64.1396 184.906 64.3511 184.662 64.5521C184.091 64.9752 183.451 65.1868 182.742 65.1868C181.685 65.1868 180.796 64.7954 180.077 64.0126ZM181.87 59.1573C181.5 59.5804 181.314 60.1622 181.314 60.9026C181.314 61.6431 181.5 62.2249 181.87 62.648C182.24 63.0712 182.716 63.2827 183.298 63.2827C183.911 63.2827 184.409 63.0765 184.789 62.6639C185.17 62.2408 185.361 61.6537 185.361 60.9026C185.361 60.1516 185.17 59.5698 184.789 59.1573C184.409 58.7341 183.911 58.5226 183.298 58.5226C182.716 58.5226 182.24 58.7341 181.87 59.1573ZM193.283 63.9492C192.447 63.1135 192.029 62.098 192.029 60.9026C192.029 59.7073 192.447 58.6971 193.283 57.872C194.129 57.0363 195.166 56.6185 196.393 56.6185C197.863 56.6185 198.984 57.1474 199.756 58.2052C200.106 58.6601 200.359 59.189 200.518 59.7919H198.217C198.122 59.5592 197.995 59.3477 197.837 59.1573C197.435 58.7341 196.953 58.5226 196.393 58.5226C195.832 58.5226 195.345 58.7447 194.933 59.189C194.531 59.6333 194.33 60.2045 194.33 60.9026C194.33 61.6008 194.531 62.172 194.933 62.6163C195.345 63.0606 195.832 63.2827 196.393 63.2827C196.953 63.2827 197.435 63.0712 197.837 62.648C197.995 62.4576 198.122 62.2461 198.217 62.0134H200.518C200.37 62.6269 200.127 63.1558 199.788 63.6001C199.016 64.6579 197.884 65.1868 196.393 65.1868C195.166 65.1868 194.129 64.7743 193.283 63.9492ZM201.152 64.9488V56.8565H203.374V58.0465H203.453C203.548 57.7927 203.691 57.5705 203.881 57.3801C204.315 56.9253 204.86 56.6978 205.516 56.6978H206.468V58.8399H205.278C204.675 58.8399 204.204 59.0039 203.865 59.3318C203.538 59.6491 203.374 60.0934 203.374 60.6646V64.9488H201.152ZM206.234 56.8565H208.535L210.122 63.0447H210.756L212.502 56.8565H214.802L211.55 67.9636H209.249L210.122 64.9488H208.376L206.234 56.8565ZM215.037 67.9636V56.8565H217.259V57.8879H217.338C217.507 57.6657 217.714 57.4542 217.957 57.2532C218.528 56.8301 219.168 56.6185 219.877 56.6185C220.935 56.6185 221.818 57.0152 222.527 57.8085C223.246 58.5913 223.606 59.6227 223.606 60.9026C223.606 62.1826 223.246 63.2193 222.527 64.0126C221.818 64.7954 220.935 65.1868 219.877 65.1868C219.168 65.1868 218.528 64.9752 217.957 64.5521C217.714 64.3511 217.507 64.1396 217.338 63.9174H217.259V67.9636H215.037ZM217.83 59.1573C217.449 59.5698 217.259 60.1516 217.259 60.9026C217.259 61.6537 217.449 62.2408 217.83 62.6639C218.211 63.0765 218.708 63.2827 219.321 63.2827C219.903 63.2827 220.379 63.0712 220.749 62.648C221.12 62.2249 221.305 61.6431 221.305 60.9026C221.305 60.1622 221.12 59.5804 220.749 59.1573C220.379 58.7341 219.903 58.5226 219.321 58.5226C218.708 58.5226 218.211 58.7341 217.83 59.1573ZM223.685 58.7606V56.8565H224.716V55.1111H226.938V56.8565H229.223V58.7606H226.938V63.0447H229.318V64.9488H224.716V58.7606H223.685ZM230.738 63.9492C229.892 63.1135 229.469 62.098 229.469 60.9026C229.469 59.7073 229.892 58.6971 230.738 57.872C231.585 57.0363 232.642 56.6185 233.912 56.6185C235.171 56.6185 236.223 57.0363 237.069 57.872C237.926 58.6971 238.355 59.7073 238.355 60.9026C238.355 62.098 237.926 63.1135 237.069 63.9492C236.223 64.7743 235.171 65.1868 233.912 65.1868C232.642 65.1868 231.585 64.7743 230.738 63.9492ZM232.389 59.189C231.976 59.6333 231.77 60.2045 231.77 60.9026C231.77 61.6008 231.976 62.172 232.389 62.6163C232.801 63.0606 233.309 63.2827 233.912 63.2827C234.515 63.2827 235.023 63.0606 235.435 62.6163C235.848 62.172 236.054 61.6008 236.054 60.9026C236.054 60.2045 235.848 59.6333 235.435 59.189C235.023 58.7447 234.515 58.5226 233.912 58.5226C233.309 58.5226 232.801 58.7447 232.389 59.189ZM242.173 56.8565H244.473L245.584 62.7274H245.822L247.012 56.8565H249.868L251.058 62.7274H251.296L252.407 56.8565H254.708L252.962 64.9488H249.63L248.52 59.3953H248.361L247.25 64.9488H243.918L242.173 56.8565ZM255.855 64.0126C255.146 63.2193 254.792 62.1826 254.792 60.9026C254.792 59.6227 255.146 58.5913 255.855 57.8085C256.575 57.0152 257.463 56.6185 258.521 56.6185C259.23 56.6185 259.87 56.8301 260.441 57.2532C260.684 57.4542 260.89 57.6657 261.06 57.8879H261.139V56.8565H263.36V64.9488H261.139V63.9174H261.06C260.89 64.1396 260.684 64.3511 260.441 64.5521C259.87 64.9752 259.23 65.1868 258.521 65.1868C257.463 65.1868 256.575 64.7954 255.855 64.0126ZM257.648 59.1573C257.278 59.5804 257.093 60.1622 257.093 60.9026C257.093 61.6431 257.278 62.2249 257.648 62.648C258.018 63.0712 258.494 63.2827 259.076 63.2827C259.69 63.2827 260.187 63.0765 260.568 62.6639C260.949 62.2408 261.139 61.6537 261.139 60.9026C261.139 60.1516 260.949 59.5698 260.568 59.1573C260.187 58.7341 259.69 58.5226 259.076 58.5226C258.494 58.5226 258.018 58.7341 257.648 59.1573ZM264.471 64.9488V53.8417H266.693V63.0447H268.517V64.9488H264.471ZM268.919 64.9488V53.8417H271.14V63.0447H272.965V64.9488H268.919ZM274.144 63.9492C273.309 63.1135 272.891 62.098 272.891 60.9026C272.891 59.7073 273.309 58.6971 274.144 57.872C274.99 57.0363 276.027 56.6185 277.254 56.6185C278.502 56.6185 279.528 57.031 280.332 57.8561C281.136 58.6812 281.538 59.6967 281.538 60.9026V61.3787H275.191C275.276 61.9076 275.514 62.3571 275.905 62.7274C276.297 63.0976 276.746 63.2827 277.254 63.2827C277.815 63.2827 278.296 63.1241 278.698 62.8067C278.857 62.6692 278.984 62.5105 279.079 62.3307H281.459C281.279 62.8702 281.015 63.3462 280.666 63.7587C279.819 64.7108 278.682 65.1868 277.254 65.1868C276.027 65.1868 274.99 64.7743 274.144 63.9492ZM275.271 60.0299H279.158C279.074 59.6068 278.857 59.2525 278.508 58.9668C278.169 58.6707 277.751 58.5226 277.254 58.5226C276.757 58.5226 276.334 58.6654 275.985 58.951C275.636 59.2366 275.398 59.5962 275.271 60.0299ZM281.611 58.7606V56.8565H282.643V55.1111H284.864V56.8565H287.149V58.7606H284.864V63.0447H287.244V64.9488H282.643V58.7606H281.611ZM20.3537 76.8565H22.6545L23.7652 82.7274H24.0032L25.1932 76.8565H28.0493L29.2394 82.7274H29.4774L30.5881 76.8565H32.8888L31.1435 84.9488H27.8113L26.7006 79.3953H26.542L25.4312 84.9488H22.0991L20.3537 76.8565ZM33.3698 84.9488V73.8417H35.5912V77.9672H35.6706C35.8081 77.7239 36.0038 77.5018 36.2577 77.3008C36.8395 76.8459 37.49 76.6185 38.2093 76.6185C39.2143 76.6185 39.9917 76.9094 40.5418 77.4912C41.1025 78.073 41.3828 78.9192 41.3828 80.0299V84.9488H39.1614V80.3473C39.1614 79.7549 39.0133 79.3053 38.7171 78.9986C38.4315 78.6812 38.0242 78.5226 37.4953 78.5226C36.9664 78.5226 36.5168 78.7235 36.1466 79.1255C35.7764 79.5275 35.5912 80.0405 35.5912 80.6646V84.9488H33.3698ZM43.1972 83.9492C42.3615 83.1135 41.9437 82.098 41.9437 80.9026C41.9437 79.7073 42.3615 78.6971 43.1972 77.872C44.0435 77.0363 45.0801 76.6185 46.3072 76.6185C47.5554 76.6185 48.5815 77.031 49.3854 77.8561C50.1894 78.6812 50.5914 79.6967 50.5914 80.9026V81.3787H44.2445C44.3291 81.9076 44.5671 82.3571 44.9585 82.7274C45.3499 83.0976 45.7994 83.2827 46.3072 83.2827C46.8678 83.2827 47.3491 83.1241 47.7511 82.8067C47.9098 82.6692 48.0367 82.5105 48.1319 82.3307H50.512C50.3322 82.8702 50.0677 83.3462 49.7187 83.7587C48.8724 84.7108 47.7352 85.1868 46.3072 85.1868C45.0801 85.1868 44.0435 84.7743 43.1972 83.9492ZM44.3238 80.0299H48.2113C48.1266 79.6068 47.9098 79.2525 47.5607 78.9668C47.2222 78.6707 46.8044 78.5226 46.3072 78.5226C45.81 78.5226 45.3869 78.6654 45.0378 78.951C44.6887 79.2366 44.4507 79.5962 44.3238 80.0299ZM51.2992 84.9488V76.8565H53.5206V78.0465H53.5999C53.6951 77.7927 53.8379 77.5705 54.0283 77.3801C54.462 76.9253 55.0068 76.6978 55.6627 76.6978H56.6147V78.8399H55.4247C54.8217 78.8399 54.351 79.0039 54.0125 79.3318C53.6845 79.6491 53.5206 80.0934 53.5206 80.6646V84.9488H51.2992ZM57.8726 83.9492C57.0369 83.1135 56.619 82.098 56.619 80.9026C56.619 79.7073 57.0369 78.6971 57.8726 77.872C58.7188 77.0363 59.7555 76.6185 60.9825 76.6185C62.2308 76.6185 63.2568 77.031 64.0608 77.8561C64.8647 78.6812 65.2667 79.6967 65.2667 80.9026V81.3787H58.9198C59.0044 81.9076 59.2424 82.3571 59.6338 82.7274C60.0252 83.0976 60.4748 83.2827 60.9825 83.2827C61.5432 83.2827 62.0245 83.1241 62.4264 82.8067C62.5851 82.6692 62.7121 82.5105 62.8073 82.3307H65.1873C65.0075 82.8702 64.7431 83.3462 64.394 83.7587C63.5477 84.7108 62.4106 85.1868 60.9825 85.1868C59.7555 85.1868 58.7188 84.7743 57.8726 83.9492ZM58.9991 80.0299H62.8866C62.802 79.6068 62.5851 79.2525 62.236 78.9668C61.8975 78.6707 61.4797 78.5226 60.9825 78.5226C60.4854 78.5226 60.0622 78.6654 59.7132 78.951C59.3641 79.2366 59.1261 79.5962 58.9991 80.0299ZM70.4534 84.0126C69.7447 83.2193 69.3903 82.1826 69.3903 80.9026C69.3903 79.6227 69.7447 78.5913 70.4534 77.8085C71.1727 77.0152 72.0613 76.6185 73.1191 76.6185C73.8278 76.6185 74.4678 76.8301 75.039 77.2532C75.2823 77.4542 75.4886 77.6657 75.6579 77.8879H75.7372V76.8565H77.9586V84.9488H75.7372V83.9174H75.6579C75.4886 84.1396 75.2823 84.3511 75.039 84.5521C74.4678 84.9752 73.8278 85.1868 73.1191 85.1868C72.0613 85.1868 71.1727 84.7954 70.4534 84.0126ZM72.2464 79.1573C71.8762 79.5804 71.691 80.1622 71.691 80.9026C71.691 81.6431 71.8762 82.2249 72.2464 82.648C72.6166 83.0712 73.0927 83.2827 73.6745 83.2827C74.288 83.2827 74.7852 83.0765 75.166 82.6639C75.5468 82.2408 75.7372 81.6537 75.7372 80.9026C75.7372 80.1516 75.5468 79.5698 75.166 79.1573C74.7852 78.7341 74.288 78.5226 73.6745 78.5226C73.0927 78.5226 72.6166 78.7341 72.2464 79.1573ZM79.0693 84.9488V73.8417H81.2907V83.0447H83.1155V84.9488H79.0693ZM83.5171 84.9488V73.8417H85.7385V83.0447H87.5632V84.9488H83.5171ZM91.1427 78.7606V76.8565H92.174V75.1111H94.3955V76.8565H96.6803V78.7606H94.3955V83.0447H96.7755V84.9488H92.174V78.7606H91.1427ZM97.4028 84.9488V73.8417H99.6242V77.9672H99.7035C99.8411 77.7239 100.037 77.5018 100.291 77.3008C100.872 76.8459 101.523 76.6185 102.242 76.6185C103.247 76.6185 104.025 76.9094 104.575 77.4912C105.135 78.073 105.416 78.9192 105.416 80.0299V84.9488H103.194V80.3473C103.194 79.7549 103.046 79.3053 102.75 78.9986C102.464 78.6812 102.057 78.5226 101.528 78.5226C100.999 78.5226 100.55 78.7235 100.18 79.1255C99.8093 79.5275 99.6242 80.0405 99.6242 80.6646V84.9488H97.4028ZM107.23 83.9492C106.395 83.1135 105.977 82.098 105.977 80.9026C105.977 79.7073 106.395 78.6971 107.23 77.872C108.076 77.0363 109.113 76.6185 110.34 76.6185C111.588 76.6185 112.614 77.031 113.418 77.8561C114.222 78.6812 114.624 79.6967 114.624 80.9026V81.3787H108.277C108.362 81.9076 108.6 82.3571 108.991 82.7274C109.383 83.0976 109.832 83.2827 110.34 83.2827C110.901 83.2827 111.382 83.1241 111.784 82.8067C111.943 82.6692 112.07 82.5105 112.165 82.3307H114.545C114.365 82.8702 114.101 83.3462 113.752 83.7587C112.905 84.7108 111.768 85.1868 110.34 85.1868C109.113 85.1868 108.076 84.7743 107.23 83.9492ZM108.357 80.0299H112.244C112.16 79.6068 111.943 79.2525 111.594 78.9668C111.255 78.6707 110.837 78.5226 110.34 78.5226C109.843 78.5226 109.42 78.6654 109.071 78.951C108.722 79.2366 108.484 79.5962 108.357 80.0299ZM119.811 84.0126C119.102 83.2193 118.748 82.1826 118.748 80.9026C118.748 79.6227 119.102 78.5913 119.811 77.8085C120.53 77.0152 121.419 76.6185 122.477 76.6185C123.185 76.6185 123.825 76.8301 124.397 77.2532C124.64 77.4542 124.846 77.6657 125.015 77.8879H125.095V76.8565H127.316V84.9488H125.095V83.9174H125.015C124.846 84.1396 124.64 84.3511 124.397 84.5521C123.825 84.9752 123.185 85.1868 122.477 85.1868C121.419 85.1868 120.53 84.7954 119.811 84.0126ZM121.604 79.1573C121.234 79.5804 121.049 80.1622 121.049 80.9026C121.049 81.6431 121.234 82.2249 121.604 82.648C121.974 83.0712 122.45 83.2827 123.032 83.2827C123.646 83.2827 124.143 83.0765 124.524 82.6639C124.904 82.2408 125.095 81.6537 125.095 80.9026C125.095 80.1516 124.904 79.5698 124.524 79.1573C124.143 78.7341 123.646 78.5226 123.032 78.5226C122.45 78.5226 121.974 78.7341 121.604 79.1573ZM128.427 81.7753V76.8565H130.648V81.458C130.648 82.0504 130.791 82.5052 131.077 82.8226C131.373 83.1293 131.786 83.2827 132.314 83.2827C132.843 83.2827 133.293 83.0817 133.663 82.6798C134.033 82.2778 134.218 81.7648 134.218 81.1407V76.8565H136.44V84.9488H134.218V83.8381H134.139C134.012 84.0814 133.817 84.3088 133.552 84.5204C132.981 84.9647 132.33 85.1868 131.6 85.1868C130.595 85.1868 129.813 84.8959 129.252 84.3141C128.702 83.7323 128.427 82.8861 128.427 81.7753ZM136.92 78.7606V76.8565H137.951V75.1111H140.172V76.8565H142.457V78.7606H140.172V83.0447H142.553V84.9488H137.951V78.7606H136.92ZM143.18 81.7753V76.8565H145.401V81.458C145.401 82.0504 145.544 82.5052 145.83 82.8226C146.126 83.1293 146.538 83.2827 147.067 83.2827C147.596 83.2827 148.046 83.0817 148.416 82.6798C148.786 82.2778 148.971 81.7648 148.971 81.1407V76.8565H151.193V84.9488H148.971V83.8381H148.892C148.765 84.0814 148.569 84.3088 148.305 84.5204C147.734 84.9647 147.083 85.1868 146.353 85.1868C145.348 85.1868 144.565 84.8959 144.005 84.3141C143.455 83.7323 143.18 82.8861 143.18 81.7753ZM152.307 84.9488V76.8565H154.529V77.9672H154.608C154.756 77.7028 154.936 77.4806 155.147 77.3008C155.666 76.8459 156.279 76.6185 156.988 76.6185C157.834 76.6185 158.543 76.8724 159.114 77.3801C159.347 77.6023 159.537 77.8508 159.685 78.1259H159.765C159.913 77.8508 160.103 77.6023 160.336 77.3801C160.907 76.8724 161.589 76.6185 162.383 76.6185C163.356 76.6185 164.112 76.9147 164.652 77.5071C165.202 78.0889 165.477 78.9298 165.477 80.0299V84.9488H163.256V80.268C163.256 79.1044 162.753 78.5226 161.748 78.5226C161.262 78.5226 160.849 78.713 160.51 79.0938C160.172 79.4746 160.003 79.9718 160.003 80.5853V84.9488H157.781V80.268C157.781 79.1044 157.279 78.5226 156.274 78.5226C155.787 78.5226 155.375 78.713 155.036 79.0938C154.698 79.4746 154.529 79.9718 154.529 80.5853V84.9488H152.307ZM166.501 84.9488V76.8565H168.723V77.9672H168.802C168.94 77.7239 169.135 77.5018 169.389 77.3008C169.971 76.8459 170.622 76.6185 171.341 76.6185C172.346 76.6185 173.123 76.9094 173.673 77.4912C174.234 78.073 174.514 78.9192 174.514 80.0299V84.9488H172.293V80.3473C172.293 79.7549 172.145 79.3053 171.849 78.9986C171.563 78.6812 171.156 78.5226 170.627 78.5226C170.098 78.5226 169.648 78.7235 169.278 79.1255C168.908 79.5275 168.723 80.0405 168.723 80.6646V84.9488H166.501ZM180.141 83.9492C179.306 83.1135 178.888 82.098 178.888 80.9026C178.888 79.7073 179.306 78.6971 180.141 77.872C180.988 77.0363 182.024 76.6185 183.251 76.6185C184.722 76.6185 185.843 77.1474 186.615 78.2052C186.964 78.6601 187.218 79.189 187.377 79.7919H185.076C184.981 79.5592 184.854 79.3477 184.695 79.1573C184.293 78.7341 183.812 78.5226 183.251 78.5226C182.691 78.5226 182.204 78.7447 181.792 79.189C181.39 79.6333 181.189 80.2045 181.189 80.9026C181.189 81.6008 181.39 82.172 181.792 82.6163C182.204 83.0606 182.691 83.2827 183.251 83.2827C183.812 83.2827 184.293 83.0712 184.695 82.648C184.854 82.4576 184.981 82.2461 185.076 82.0134H187.377C187.229 82.6269 186.985 83.1558 186.647 83.6001C185.875 84.6579 184.743 85.1868 183.251 85.1868C182.024 85.1868 180.988 84.7743 180.141 83.9492ZM188.804 83.9492C187.958 83.1135 187.535 82.098 187.535 80.9026C187.535 79.7073 187.958 78.6971 188.804 77.872C189.651 77.0363 190.708 76.6185 191.978 76.6185C193.237 76.6185 194.289 77.0363 195.135 77.872C195.992 78.6971 196.421 79.7073 196.421 80.9026C196.421 82.098 195.992 83.1135 195.135 83.9492C194.289 84.7743 193.237 85.1868 191.978 85.1868C190.708 85.1868 189.651 84.7743 188.804 83.9492ZM190.454 79.189C190.042 79.6333 189.836 80.2045 189.836 80.9026C189.836 81.6008 190.042 82.172 190.454 82.6163C190.867 83.0606 191.375 83.2827 191.978 83.2827C192.581 83.2827 193.088 83.0606 193.501 82.6163C193.914 82.172 194.12 81.6008 194.12 80.9026C194.12 80.2045 193.914 79.6333 193.501 79.189C193.088 78.7447 192.581 78.5226 191.978 78.5226C191.375 78.5226 190.867 78.7447 190.454 79.189ZM196.585 84.9488V83.0447L200.631 78.9192V78.7606H196.743V76.8565H203.566V78.7606L199.52 82.8861V83.0447H203.725V84.9488H196.585ZM204.566 75.4761C204.323 75.2328 204.201 74.9524 204.201 74.6351C204.201 74.3177 204.323 74.0427 204.566 73.81C204.82 73.5667 205.121 73.445 205.47 73.445C205.82 73.445 206.116 73.5667 206.359 73.81C206.613 74.0427 206.74 74.3177 206.74 74.6351C206.74 74.9524 206.613 75.2328 206.359 75.4761C206.116 75.7088 205.82 75.8251 205.47 75.8251C205.121 75.8251 204.82 75.7088 204.566 75.4761ZM204.36 84.9488V76.8565H206.581V84.9488H204.36ZM207.692 84.9488V76.8565H209.913V77.9672H209.993C210.13 77.7239 210.326 77.5018 210.58 77.3008C211.161 76.8459 211.812 76.6185 212.531 76.6185C213.536 76.6185 214.314 76.9094 214.864 77.4912C215.424 78.073 215.705 78.9192 215.705 80.0299V84.9488H213.483V80.3473C213.483 79.7549 213.335 79.3053 213.039 78.9986C212.753 78.6812 212.346 78.5226 211.817 78.5226C211.288 78.5226 210.839 78.7235 210.469 79.1255C210.098 79.5275 209.913 80.0405 209.913 80.6646V84.9488H207.692ZM217.519 83.9492C216.684 83.1135 216.266 82.098 216.266 80.9026C216.266 79.7073 216.684 78.6971 217.519 77.872C218.365 77.0363 219.402 76.6185 220.629 76.6185C221.877 76.6185 222.904 77.031 223.707 77.8561C224.511 78.6812 224.913 79.6967 224.913 80.9026V81.3787H218.566C218.651 81.9076 218.889 82.3571 219.281 82.7274C219.672 83.0976 220.121 83.2827 220.629 83.2827C221.19 83.2827 221.671 83.1241 222.073 82.8067C222.232 82.6692 222.359 82.5105 222.454 82.3307H224.834C224.654 82.8702 224.39 83.3462 224.041 83.7587C223.194 84.7108 222.057 85.1868 220.629 85.1868C219.402 85.1868 218.365 84.7743 217.519 83.9492ZM218.646 80.0299H222.533C222.449 79.6068 222.232 79.2525 221.883 78.9668C221.544 78.6707 221.126 78.5226 220.629 78.5226C220.132 78.5226 219.709 78.6654 219.36 78.951C219.011 79.2366 218.773 79.5962 218.646 80.0299ZM225.066 82.3307H227.367C227.441 82.5211 227.557 82.6956 227.716 82.8543C228.054 83.1928 228.52 83.3621 229.112 83.3621C230.011 83.3621 230.461 83.0976 230.461 82.5687C230.461 82.4841 230.44 82.41 230.397 82.3466C230.355 82.2725 230.281 82.209 230.175 82.1562C230.069 82.0927 229.969 82.0398 229.874 81.9975C229.778 81.9552 229.636 81.9129 229.445 81.8705C229.265 81.8177 229.117 81.7806 229.001 81.7595C228.895 81.7383 228.721 81.7013 228.477 81.6484C228.245 81.5955 228.075 81.5585 227.97 81.5373C226.298 81.1777 225.463 80.3579 225.463 79.0779C225.463 78.4009 225.764 77.8244 226.367 77.3484C226.98 76.8618 227.816 76.6185 228.874 76.6185C230.291 76.6185 231.355 77.0575 232.063 77.9355C232.37 78.3163 232.576 78.75 232.682 79.2366H230.461C230.387 79.0779 230.291 78.9457 230.175 78.8399C229.847 78.5755 229.413 78.4432 228.874 78.4432C228.493 78.4432 228.213 78.5067 228.033 78.6336C227.853 78.75 227.763 78.8981 227.763 79.0779C227.763 79.1414 227.774 79.2049 227.795 79.2683C227.827 79.3212 227.874 79.3741 227.938 79.427C228.001 79.4693 228.065 79.5116 228.128 79.5539C228.192 79.5857 228.282 79.6227 228.398 79.665C228.514 79.6967 228.615 79.7285 228.699 79.7602C228.795 79.7919 228.916 79.8237 229.064 79.8554C229.212 79.8871 229.339 79.9136 229.445 79.9347C229.551 79.9559 229.689 79.9876 229.858 80.0299C230.027 80.0617 230.165 80.0881 230.27 80.1093C231.931 80.4795 232.761 81.2993 232.761 82.5687C232.761 83.2774 232.434 83.891 231.778 84.4093C231.122 84.9276 230.233 85.1868 229.112 85.1868C227.61 85.1868 226.499 84.7108 225.78 83.7587C225.452 83.325 225.214 82.849 225.066 82.3307ZM232.845 82.3307H235.146C235.22 82.5211 235.336 82.6956 235.495 82.8543C235.833 83.1928 236.299 83.3621 236.891 83.3621C237.79 83.3621 238.24 83.0976 238.24 82.5687C238.24 82.4841 238.219 82.41 238.177 82.3466C238.134 82.2725 238.06 82.209 237.954 82.1562C237.849 82.0927 237.748 82.0398 237.653 81.9975C237.558 81.9552 237.415 81.9129 237.224 81.8705C237.045 81.8177 236.897 81.7806 236.78 81.7595C236.674 81.7383 236.5 81.7013 236.257 81.6484C236.024 81.5955 235.855 81.5585 235.749 81.5373C234.077 81.1777 233.242 80.3579 233.242 79.0779C233.242 78.4009 233.543 77.8244 234.146 77.3484C234.76 76.8618 235.595 76.6185 236.653 76.6185C238.071 76.6185 239.134 77.0575 239.843 77.9355C240.149 78.3163 240.356 78.75 240.461 79.2366H238.24C238.166 79.0779 238.071 78.9457 237.954 78.8399C237.626 78.5755 237.193 78.4432 236.653 78.4432C236.272 78.4432 235.992 78.5067 235.812 78.6336C235.632 78.75 235.543 78.8981 235.543 79.0779C235.543 79.1414 235.553 79.2049 235.574 79.2683C235.606 79.3212 235.654 79.3741 235.717 79.427C235.781 79.4693 235.844 79.5116 235.908 79.5539C235.971 79.5857 236.061 79.6227 236.177 79.665C236.294 79.6967 236.394 79.7285 236.479 79.7602C236.574 79.7919 236.696 79.8237 236.844 79.8554C236.992 79.8871 237.119 79.9136 237.224 79.9347C237.33 79.9559 237.468 79.9876 237.637 80.0299C237.806 80.0617 237.944 80.0881 238.05 80.1093C239.71 80.4795 240.541 81.2993 240.541 82.5687C240.541 83.2774 240.213 83.891 239.557 84.4093C238.901 84.9276 238.013 85.1868 236.891 85.1868C235.389 85.1868 234.278 84.7108 233.559 83.7587C233.231 83.325 232.993 82.849 232.845 82.3307ZM245.659 84.0126C244.95 83.2193 244.596 82.1826 244.596 80.9026C244.596 79.6227 244.95 78.5913 245.659 77.8085C246.378 77.0152 247.267 76.6185 248.324 76.6185C249.033 76.6185 249.673 76.8301 250.244 77.2532C250.488 77.4542 250.694 77.6657 250.863 77.8879H250.942V76.8565H253.164V84.9488H250.942V83.9174H250.863C250.694 84.1396 250.488 84.3511 250.244 84.5521C249.673 84.9752 249.033 85.1868 248.324 85.1868C247.267 85.1868 246.378 84.7954 245.659 84.0126ZM247.452 79.1573C247.081 79.5804 246.896 80.1622 246.896 80.9026C246.896 81.6431 247.081 82.2249 247.452 82.648C247.822 83.0712 248.298 83.2827 248.88 83.2827C249.493 83.2827 249.99 83.0765 250.371 82.6639C250.752 82.2408 250.942 81.6537 250.942 80.9026C250.942 80.1516 250.752 79.5698 250.371 79.1573C249.99 78.7341 249.493 78.5226 248.88 78.5226C248.298 78.5226 247.822 78.7341 247.452 79.1573ZM254.275 84.9488V76.8565H256.496V77.9672H256.575C256.713 77.7239 256.909 77.5018 257.162 77.3008C257.744 76.8459 258.395 76.6185 259.114 76.6185C260.119 76.6185 260.896 76.9094 261.447 77.4912C262.007 78.073 262.288 78.9192 262.288 80.0299V84.9488H260.066V80.3473C260.066 79.7549 259.918 79.3053 259.622 78.9986C259.336 78.6812 258.929 78.5226 258.4 78.5226C257.871 78.5226 257.422 78.7235 257.051 79.1255C256.681 79.5275 256.496 80.0405 256.496 80.6646V84.9488H254.275ZM263.991 84.0126C263.282 83.2193 262.928 82.1826 262.928 80.9026C262.928 79.6227 263.282 78.5913 263.991 77.8085C264.71 77.0152 265.599 76.6185 266.657 76.6185C267.365 76.6185 268.005 76.8301 268.577 77.2532C268.82 77.4542 269.026 77.6657 269.195 77.8879H269.275V73.8417H271.496V84.9488H269.275V83.9174H269.195C269.026 84.1396 268.82 84.3511 268.577 84.5521C268.005 84.9752 267.365 85.1868 266.657 85.1868C265.599 85.1868 264.71 84.7954 263.991 84.0126ZM265.784 79.1573C265.414 79.5804 265.229 80.1622 265.229 80.9026C265.229 81.6431 265.414 82.2249 265.784 82.648C266.154 83.0712 266.63 83.2827 267.212 83.2827C267.825 83.2827 268.323 83.0765 268.703 82.6639C269.084 82.2408 269.275 81.6537 269.275 80.9026C269.275 80.1516 269.084 79.5698 268.703 79.1573C268.323 78.7341 267.825 78.5226 267.212 78.5226C266.63 78.5226 266.154 78.7341 265.784 79.1573ZM275.785 76.8565H278.085L279.196 82.7274H279.434L280.624 76.8565H283.48L284.67 82.7274H284.908L286.019 76.8565H288.32L286.574 84.9488H283.242L282.131 79.3953H281.973L280.862 84.9488H277.53L275.785 76.8565ZM289.007 75.4761C288.764 75.2328 288.642 74.9524 288.642 74.6351C288.642 74.3177 288.764 74.0427 289.007 73.81C289.261 73.5667 289.562 73.445 289.911 73.445C290.26 73.445 290.557 73.5667 290.8 73.81C291.054 74.0427 291.181 74.3177 291.181 74.6351C291.181 74.9524 291.054 75.2328 290.8 75.4761C290.557 75.7088 290.26 75.8251 289.911 75.8251C289.562 75.8251 289.261 75.7088 289.007 75.4761ZM288.801 84.9488V76.8565H291.022V84.9488H288.801ZM292.133 84.9488V76.8565H294.354V77.9672H294.434C294.571 77.7239 294.767 77.5018 295.021 77.3008C295.602 76.8459 296.253 76.6185 296.972 76.6185C297.977 76.6185 298.755 76.9094 299.305 77.4912C299.865 78.073 300.146 78.9192 300.146 80.0299V84.9488H297.924V80.3473C297.924 79.7549 297.776 79.3053 297.48 78.9986C297.194 78.6812 296.787 78.5226 296.258 78.5226C295.729 78.5226 295.28 78.7235 294.91 79.1255C294.539 79.5275 294.354 80.0405 294.354 80.6646V84.9488H292.133ZM300.548 78.7606V76.8565H301.579V75.1111H303.801V76.8565H306.086V78.7606H303.801V83.0447H306.181V84.9488H301.579V78.7606H300.548ZM307.586 83.9492C306.75 83.1135 306.332 82.098 306.332 80.9026C306.332 79.7073 306.75 78.6971 307.586 77.872C308.432 77.0363 309.469 76.6185 310.696 76.6185C311.944 76.6185 312.97 77.031 313.774 77.8561C314.578 78.6812 314.98 79.6967 314.98 80.9026V81.3787H308.633C308.717 81.9076 308.955 82.3571 309.347 82.7274C309.738 83.0976 310.188 83.2827 310.696 83.2827C311.256 83.2827 311.738 83.1241 312.14 82.8067C312.298 82.6692 312.425 82.5105 312.52 82.3307H314.9C314.721 82.8702 314.456 83.3462 314.107 83.7587C313.261 84.7108 312.124 85.1868 310.696 85.1868C309.469 85.1868 308.432 84.7743 307.586 83.9492ZM308.712 80.0299H312.6C312.515 79.6068 312.298 79.2525 311.949 78.9668C311.611 78.6707 311.193 78.5226 310.696 78.5226C310.198 78.5226 309.775 78.6654 309.426 78.951C309.077 79.2366 308.839 79.5962 308.712 80.0299ZM315.688 84.9488V76.8565H317.909V78.0465H317.988C318.084 77.7927 318.226 77.5705 318.417 77.3801C318.85 76.9253 319.395 76.6978 320.051 76.6978H321.003V78.8399H319.813C319.21 78.8399 318.739 79.0039 318.401 79.3318C318.073 79.6491 317.909 80.0934 317.909 80.6646V84.9488H315.688ZM20.2744 96.8565H22.5751L24.0825 103.045H24.9552L26.4626 96.8565H28.7634L26.6213 104.949H22.4165L20.2744 96.8565ZM29.3614 95.4761C29.1181 95.2328 28.9964 94.9524 28.9964 94.6351C28.9964 94.3177 29.1181 94.0427 29.3614 93.81C29.6152 93.5667 29.9167 93.445 30.2658 93.445C30.6149 93.445 30.9111 93.5667 31.1544 93.81C31.4082 94.0427 31.5352 94.3177 31.5352 94.6351C31.5352 94.9524 31.4082 95.2328 31.1544 95.4761C30.9111 95.7088 30.6149 95.8251 30.2658 95.8251C29.9167 95.8251 29.6152 95.7088 29.3614 95.4761ZM29.1551 104.949V96.8565H31.3765V104.949H29.1551ZM32.4872 104.949V93.8417H34.7086V97.8879H34.788C34.9572 97.6657 35.1635 97.4542 35.4068 97.2532C35.978 96.8301 36.618 96.6185 37.3267 96.6185C38.3845 96.6185 39.2678 97.0152 39.9765 97.8085C40.6959 98.5913 41.0555 99.6227 41.0555 100.903C41.0555 102.183 40.6959 103.219 39.9765 104.013C39.2678 104.795 38.3845 105.187 37.3267 105.187C36.618 105.187 35.978 104.975 35.4068 104.552C35.1635 104.351 34.9572 104.14 34.788 103.917H34.7086V104.949H32.4872ZM35.2798 99.1573C34.899 99.5698 34.7086 100.152 34.7086 100.903C34.7086 101.654 34.899 102.241 35.2798 102.664C35.6607 103.076 36.1578 103.283 36.7714 103.283C37.3532 103.283 37.8292 103.071 38.1994 102.648C38.5696 102.225 38.7548 101.643 38.7548 100.903C38.7548 100.162 38.5696 99.5804 38.1994 99.1573C37.8292 98.7341 37.3532 98.5226 36.7714 98.5226C36.1578 98.5226 35.6607 98.7341 35.2798 99.1573ZM42.547 103.949C41.7114 103.113 41.2935 102.098 41.2935 100.903C41.2935 99.7073 41.7114 98.6971 42.547 97.872C43.3933 97.0363 44.4299 96.6185 45.657 96.6185C46.9052 96.6185 47.9313 97.031 48.7353 97.8561C49.5392 98.6812 49.9412 99.6967 49.9412 100.903V101.379H43.5943C43.6789 101.908 43.9169 102.357 44.3083 102.727C44.6997 103.098 45.1493 103.283 45.657 103.283C46.2177 103.283 46.699 103.124 47.1009 102.807C47.2596 102.669 47.3865 102.511 47.4817 102.331H49.8618C49.682 102.87 49.4175 103.346 49.0685 103.759C48.2222 104.711 47.0851 105.187 45.657 105.187C44.4299 105.187 43.3933 104.774 42.547 103.949ZM43.6736 100.03H47.5611C47.4765 99.6068 47.2596 99.2525 46.9105 98.9668C46.572 98.6707 46.1542 98.5226 45.657 98.5226C45.1598 98.5226 44.7367 98.6654 44.3876 98.951C44.0386 99.2366 43.8005 99.5962 43.6736 100.03ZM50.0936 102.331H52.3944C52.4684 102.521 52.5848 102.696 52.7435 102.854C53.082 103.193 53.5474 103.362 54.1398 103.362C55.0389 103.362 55.4885 103.098 55.4885 102.569C55.4885 102.484 55.4673 102.41 55.425 102.347C55.3827 102.273 55.3087 102.209 55.2029 102.156C55.0971 102.093 54.9966 102.04 54.9014 101.997C54.8062 101.955 54.6634 101.913 54.473 101.871C54.2932 101.818 54.1451 101.781 54.0287 101.759C53.9229 101.738 53.7484 101.701 53.5051 101.648C53.2724 101.596 53.1031 101.558 52.9973 101.537C51.326 101.178 50.4903 100.358 50.4903 99.0779C50.4903 98.4009 50.7918 97.8244 51.3948 97.3484C52.0083 96.8618 52.844 96.6185 53.9018 96.6185C55.3192 96.6185 56.3824 97.0575 57.0911 97.9355C57.3979 98.3163 57.6041 98.75 57.7099 99.2366H55.4885C55.4145 99.0779 55.3192 98.9457 55.2029 98.8399C54.875 98.5755 54.4413 98.4432 53.9018 98.4432C53.521 98.4432 53.2406 98.5067 53.0608 98.6336C52.881 98.75 52.7911 98.8981 52.7911 99.0779C52.7911 99.1414 52.8016 99.2049 52.8228 99.2683C52.8545 99.3212 52.9021 99.3741 52.9656 99.427C53.0291 99.4693 53.0925 99.5116 53.156 99.5539C53.2195 99.5857 53.3094 99.6227 53.4258 99.665C53.5421 99.6967 53.6426 99.7285 53.7272 99.7602C53.8224 99.7919 53.9441 99.8237 54.0922 99.8554C54.2403 99.8871 54.3672 99.9136 54.473 99.9347C54.5788 99.9559 54.7163 99.9876 54.8855 100.03C55.0548 100.062 55.1923 100.088 55.2981 100.109C56.9589 100.48 57.7892 101.299 57.7892 102.569C57.7892 103.277 57.4613 103.891 56.8055 104.409C56.1496 104.928 55.2611 105.187 54.1398 105.187C52.6377 105.187 51.527 104.711 50.8077 103.759C50.4797 103.325 50.2417 102.849 50.0936 102.331ZM63.0182 103.949C62.1826 103.113 61.7647 102.098 61.7647 100.903C61.7647 99.7073 62.1826 98.6971 63.0182 97.872C63.8645 97.0363 64.9012 96.6185 66.1282 96.6185C67.5986 96.6185 68.7199 97.1474 69.4921 98.2052C69.8412 98.6601 70.095 99.189 70.2537 99.7919H67.953C67.8578 99.5592 67.7308 99.3477 67.5721 99.1573C67.1702 98.7341 66.6889 98.5226 66.1282 98.5226C65.5676 98.5226 65.081 98.7447 64.6684 99.189C64.2665 99.6333 64.0655 100.204 64.0655 100.903C64.0655 101.601 64.2665 102.172 64.6684 102.616C65.081 103.061 65.5676 103.283 66.1282 103.283C66.6889 103.283 67.1702 103.071 67.5721 102.648C67.7308 102.458 67.8578 102.246 67.953 102.013H70.2537C70.1056 102.627 69.8623 103.156 69.5238 103.6C68.7516 104.658 67.6197 105.187 66.1282 105.187C64.9012 105.187 63.8645 104.774 63.0182 103.949ZM71.5542 104.013C70.8455 103.219 70.4911 102.183 70.4911 100.903C70.4911 99.6227 70.8455 98.5913 71.5542 97.8085C72.2735 97.0152 73.1621 96.6185 74.2199 96.6185C74.9286 96.6185 75.5686 96.8301 76.1398 97.2532C76.3831 97.4542 76.5894 97.6657 76.7587 97.8879H76.838V96.8565H79.0594V104.949H76.838V103.917H76.7587C76.5894 104.14 76.3831 104.351 76.1398 104.552C75.5686 104.975 74.9286 105.187 74.2199 105.187C73.1621 105.187 72.2735 104.795 71.5542 104.013ZM73.3472 99.1573C72.977 99.5804 72.7918 100.162 72.7918 100.903C72.7918 101.643 72.977 102.225 73.3472 102.648C73.7174 103.071 74.1934 103.283 74.7752 103.283C75.3888 103.283 75.886 103.076 76.2668 102.664C76.6476 102.241 76.838 101.654 76.838 100.903C76.838 100.152 76.6476 99.5698 76.2668 99.1573C75.886 98.7341 75.3888 98.5226 74.7752 98.5226C74.1934 98.5226 73.7174 98.7341 73.3472 99.1573ZM80.1701 104.949V96.8565H82.3915V97.9672H82.4709C82.6084 97.7239 82.8041 97.5018 83.0579 97.3008C83.6397 96.8459 84.2903 96.6185 85.0096 96.6185C86.0145 96.6185 86.792 96.9094 87.3421 97.4912C87.9027 98.073 88.1831 98.9192 88.1831 100.03V104.949H85.9616V100.347C85.9616 99.7549 85.8136 99.3053 85.5174 98.9986C85.2318 98.6812 84.8245 98.5226 84.2956 98.5226C83.7667 98.5226 83.3171 98.7235 82.9469 99.1255C82.5766 99.5275 82.3915 100.041 82.3915 100.665V104.949H80.1701ZM93.0325 104.949V93.8417H95.2539V103.045H97.0786V104.949H93.0325ZM97.6865 95.4761C97.4432 95.2328 97.3216 94.9524 97.3216 94.6351C97.3216 94.3177 97.4432 94.0427 97.6865 93.81C97.9404 93.5667 98.2419 93.445 98.591 93.445C98.9401 93.445 99.2362 93.5667 99.4795 93.81C99.7334 94.0427 99.8604 94.3177 99.8604 94.6351C99.8604 94.9524 99.7334 95.2328 99.4795 95.4761C99.2362 95.7088 98.9401 95.8251 98.591 95.8251C98.2419 95.8251 97.9404 95.7088 97.6865 95.4761ZM97.4803 104.949V96.8565H99.7017V104.949H97.4803ZM100.098 96.8565H102.399L103.906 103.045H104.779L106.287 96.8565H108.587L106.445 104.949H102.24L100.098 96.8565ZM109.757 103.949C108.921 103.113 108.503 102.098 108.503 100.903C108.503 99.7073 108.921 98.6971 109.757 97.872C110.603 97.0363 111.639 96.6185 112.867 96.6185C114.115 96.6185 115.141 97.031 115.945 97.8561C116.749 98.6812 117.151 99.6967 117.151 100.903V101.379H110.804C110.888 101.908 111.126 102.357 111.518 102.727C111.909 103.098 112.359 103.283 112.867 103.283C113.427 103.283 113.908 103.124 114.31 102.807C114.469 102.669 114.596 102.511 114.691 102.331H117.071C116.892 102.87 116.627 103.346 116.278 103.759C115.432 104.711 114.295 105.187 112.867 105.187C111.639 105.187 110.603 104.774 109.757 103.949ZM110.883 100.03H114.771C114.686 99.6068 114.469 99.2525 114.12 98.9668C113.782 98.6707 113.364 98.5226 112.867 98.5226C112.369 98.5226 111.946 98.6654 111.597 98.951C111.248 99.2366 111.01 99.5962 110.883 100.03ZM122.337 104.013C121.629 103.219 121.274 102.183 121.274 100.903C121.274 99.6227 121.629 98.5913 122.337 97.8085C123.057 97.0152 123.945 96.6185 125.003 96.6185C125.712 96.6185 126.352 96.8301 126.923 97.2532C127.166 97.4542 127.373 97.6657 127.542 97.8879H127.621V96.8565H129.843V104.949H127.621V103.917H127.542C127.373 104.14 127.166 104.351 126.923 104.552C126.352 104.975 125.712 105.187 125.003 105.187C123.945 105.187 123.057 104.795 122.337 104.013ZM124.13 99.1573C123.76 99.5804 123.575 100.162 123.575 100.903C123.575 101.643 123.76 102.225 124.13 102.648C124.501 103.071 124.977 103.283 125.558 103.283C126.172 103.283 126.669 103.076 127.05 102.664C127.431 102.241 127.621 101.654 127.621 100.903C127.621 100.152 127.431 99.5698 127.05 99.1573C126.669 98.7341 126.172 98.5226 125.558 98.5226C124.977 98.5226 124.501 98.7341 124.13 99.1573ZM130.953 104.949V93.8417H133.175V103.045H134.999V104.949H130.953ZM136.194 103.949C135.348 103.113 134.925 102.098 134.925 100.903C134.925 99.7073 135.348 98.6971 136.194 97.872C137.041 97.0363 138.099 96.6185 139.368 96.6185C140.627 96.6185 141.679 97.0363 142.525 97.872C143.382 98.6971 143.811 99.7073 143.811 100.903C143.811 102.098 143.382 103.113 142.525 103.949C141.679 104.774 140.627 105.187 139.368 105.187C138.099 105.187 137.041 104.774 136.194 103.949ZM137.845 99.189C137.432 99.6333 137.226 100.204 137.226 100.903C137.226 101.601 137.432 102.172 137.845 102.616C138.257 103.061 138.765 103.283 139.368 103.283C139.971 103.283 140.479 103.061 140.891 102.616C141.304 102.172 141.51 101.601 141.51 100.903C141.51 100.204 141.304 99.6333 140.891 99.189C140.479 98.7447 139.971 98.5226 139.368 98.5226C138.765 98.5226 138.257 98.7447 137.845 99.189ZM144.451 104.949V96.8565H146.672V97.9672H146.752C146.889 97.7239 147.085 97.5018 147.339 97.3008C147.921 96.8459 148.571 96.6185 149.291 96.6185C150.295 96.6185 151.073 96.9094 151.623 97.4912C152.184 98.073 152.464 98.9192 152.464 100.03V104.949H150.243V100.347C150.243 99.7549 150.094 99.3053 149.798 98.9986C149.513 98.6812 149.105 98.5226 148.576 98.5226C148.048 98.5226 147.598 98.7235 147.228 99.1255C146.858 99.5275 146.672 100.041 146.672 100.665V104.949H144.451ZM154.183 103.854C153.464 103.071 153.104 102.061 153.104 100.823C153.104 99.5857 153.464 98.5755 154.183 97.7927C154.903 97.0099 155.786 96.6185 156.833 96.6185C157.531 96.6185 158.171 96.8353 158.753 97.269C158.996 97.47 159.203 97.6816 159.372 97.9037H159.451V96.8565H161.673V107.964H154.294V106.059H159.451V103.743H159.372C159.192 103.997 158.986 104.214 158.753 104.393C158.182 104.817 157.542 105.028 156.833 105.028C155.786 105.028 154.903 104.637 154.183 103.854ZM155.976 99.1414C155.595 99.5539 155.405 100.115 155.405 100.823C155.405 101.532 155.595 102.093 155.976 102.505C156.357 102.918 156.854 103.124 157.468 103.124C158.05 103.124 158.526 102.918 158.896 102.505C159.266 102.093 159.451 101.532 159.451 100.823C159.451 100.115 159.266 99.5539 158.896 99.1414C158.526 98.7288 158.05 98.5226 157.468 98.5226C156.854 98.5226 156.357 98.7288 155.976 99.1414ZM162.228 102.331H164.529C164.603 102.521 164.719 102.696 164.878 102.854C165.216 103.193 165.682 103.362 166.274 103.362C167.173 103.362 167.623 103.098 167.623 102.569C167.623 102.484 167.602 102.41 167.559 102.347C167.517 102.273 167.443 102.209 167.337 102.156C167.231 102.093 167.131 102.04 167.036 101.997C166.94 101.955 166.798 101.913 166.607 101.871C166.427 101.818 166.279 101.781 166.163 101.759C166.057 101.738 165.883 101.701 165.639 101.648C165.407 101.596 165.237 101.558 165.132 101.537C163.46 101.178 162.625 100.358 162.625 99.0779C162.625 98.4009 162.926 97.8244 163.529 97.3484C164.143 96.8618 164.978 96.6185 166.036 96.6185C167.453 96.6185 168.517 97.0575 169.225 97.9355C169.532 98.3163 169.738 98.75 169.844 99.2366H167.623C167.549 99.0779 167.453 98.9457 167.337 98.8399C167.009 98.5755 166.576 98.4432 166.036 98.4432C165.655 98.4432 165.375 98.5067 165.195 98.6336C165.015 98.75 164.925 98.8981 164.925 99.0779C164.925 99.1414 164.936 99.2049 164.957 99.2683C164.989 99.3212 165.036 99.3741 165.1 99.427C165.163 99.4693 165.227 99.5116 165.29 99.5539C165.354 99.5857 165.444 99.6227 165.56 99.665C165.676 99.6967 165.777 99.7285 165.861 99.7602C165.957 99.7919 166.078 99.8237 166.226 99.8554C166.375 99.8871 166.501 99.9136 166.607 99.9347C166.713 99.9559 166.851 99.9876 167.02 100.03C167.189 100.062 167.327 100.088 167.432 100.109C169.093 100.48 169.923 101.299 169.923 102.569C169.923 103.277 169.596 103.891 168.94 104.409C168.284 104.928 167.395 105.187 166.274 105.187C164.772 105.187 163.661 104.711 162.942 103.759C162.614 103.325 162.376 102.849 162.228 102.331ZM170.769 95.4761C170.525 95.2328 170.404 94.9524 170.404 94.6351C170.404 94.3177 170.525 94.0427 170.769 93.81C171.023 93.5667 171.324 93.445 171.673 93.445C172.022 93.445 172.318 93.5667 172.562 93.81C172.816 94.0427 172.943 94.3177 172.943 94.6351C172.943 94.9524 172.816 95.2328 172.562 95.4761C172.318 95.7088 172.022 95.8251 171.673 95.8251C171.324 95.8251 171.023 95.7088 170.769 95.4761ZM170.563 104.949V96.8565H172.784V104.949H170.563ZM174.561 104.013C173.852 103.219 173.498 102.183 173.498 100.903C173.498 99.6227 173.852 98.5913 174.561 97.8085C175.28 97.0152 176.169 96.6185 177.227 96.6185C177.935 96.6185 178.575 96.8301 179.147 97.2532C179.39 97.4542 179.596 97.6657 179.766 97.8879H179.845V93.8417H182.066V104.949H179.845V103.917H179.766C179.596 104.14 179.39 104.351 179.147 104.552C178.575 104.975 177.935 105.187 177.227 105.187C176.169 105.187 175.28 104.795 174.561 104.013ZM176.354 99.1573C175.984 99.5804 175.799 100.162 175.799 100.903C175.799 101.643 175.984 102.225 176.354 102.648C176.724 103.071 177.2 103.283 177.782 103.283C178.396 103.283 178.893 103.076 179.274 102.664C179.654 102.241 179.845 101.654 179.845 100.903C179.845 100.152 179.654 99.5698 179.274 99.1573C178.893 98.7341 178.396 98.5226 177.782 98.5226C177.2 98.5226 176.724 98.7341 176.354 99.1573ZM183.954 103.949C183.119 103.113 182.701 102.098 182.701 100.903C182.701 99.7073 183.119 98.6971 183.954 97.872C184.801 97.0363 185.837 96.6185 187.064 96.6185C188.313 96.6185 189.339 97.031 190.143 97.8561C190.947 98.6812 191.349 99.6967 191.349 100.903V101.379H185.002C185.086 101.908 185.324 102.357 185.716 102.727C186.107 103.098 186.557 103.283 187.064 103.283C187.625 103.283 188.106 103.124 188.508 102.807C188.667 102.669 188.794 102.511 188.889 102.331H191.269C191.089 102.87 190.825 103.346 190.476 103.759C189.63 104.711 188.492 105.187 187.064 105.187C185.837 105.187 184.801 104.774 183.954 103.949ZM185.081 100.03H188.969C188.884 99.6068 188.667 99.2525 188.318 98.9668C187.979 98.6707 187.562 98.5226 187.064 98.5226C186.567 98.5226 186.144 98.6654 185.795 98.951C185.446 99.2366 185.208 99.5962 185.081 100.03ZM195.393 101.458H197.852C197.948 101.775 198.101 102.056 198.312 102.299C198.778 102.849 199.471 103.124 200.391 103.124C201.766 103.124 202.454 102.701 202.454 101.855C202.454 101.643 202.38 101.453 202.232 101.283C202.094 101.114 201.872 100.966 201.565 100.839C201.269 100.712 200.978 100.612 200.693 100.538C200.418 100.453 200.058 100.353 199.614 100.236C199.55 100.226 199.497 100.215 199.455 100.204C199.423 100.194 199.376 100.183 199.312 100.173C199.259 100.152 199.212 100.136 199.169 100.125C196.969 99.5962 195.869 98.5331 195.869 96.9358C195.869 96.1107 196.176 95.3861 196.789 94.762C197.403 94.1273 198.233 93.7359 199.28 93.5879V92.0963H201.502V93.6672C202.697 93.9528 203.602 94.5769 204.215 95.5395C204.469 95.9521 204.649 96.4175 204.755 96.9358H202.295C202.232 96.7137 202.11 96.5021 201.93 96.3011C201.528 95.878 200.936 95.6665 200.153 95.6665C199.55 95.6665 199.095 95.7828 198.788 96.0155C198.482 96.2377 198.328 96.518 198.328 96.8565C198.328 97.47 199.026 97.9355 200.423 98.2528C200.782 98.3374 201.005 98.3903 201.089 98.4115C201.184 98.4326 201.401 98.4908 201.74 98.586C202.089 98.6812 202.322 98.7606 202.438 98.824C202.565 98.8769 202.771 98.9668 203.057 99.0938C203.353 99.2101 203.559 99.3212 203.676 99.427C203.803 99.5328 203.961 99.6756 204.152 99.8554C204.353 100.025 204.495 100.199 204.58 100.379C204.665 100.559 204.739 100.77 204.802 101.014C204.876 101.246 204.913 101.5 204.913 101.775C204.913 102.611 204.612 103.351 204.009 103.997C203.406 104.631 202.57 105.028 201.502 105.187V106.694H199.28V105.171C197.873 104.917 196.805 104.229 196.075 103.108C195.747 102.611 195.52 102.061 195.393 101.458ZM205.233 101.458H207.692C207.788 101.775 207.941 102.056 208.153 102.299C208.618 102.849 209.311 103.124 210.231 103.124C211.606 103.124 212.294 102.701 212.294 101.855C212.294 101.643 212.22 101.453 212.072 101.283C211.934 101.114 211.712 100.966 211.405 100.839C211.109 100.712 210.818 100.612 210.533 100.538C210.258 100.453 209.898 100.353 209.454 100.236C209.39 100.226 209.337 100.215 209.295 100.204C209.263 100.194 209.216 100.183 209.152 100.173C209.099 100.152 209.052 100.136 209.009 100.125C206.809 99.5962 205.709 98.5331 205.709 96.9358C205.709 95.9838 206.095 95.1799 206.867 94.524C207.65 93.8576 208.692 93.5244 209.993 93.5244C211.686 93.5244 212.966 94.0956 213.833 95.238C214.193 95.7458 214.447 96.3117 214.595 96.9358H212.135C212.072 96.7137 211.95 96.5021 211.77 96.3011C211.368 95.878 210.776 95.6665 209.993 95.6665C209.39 95.6665 208.935 95.7828 208.629 96.0155C208.322 96.2377 208.168 96.518 208.168 96.8565C208.168 97.47 208.867 97.9355 210.263 98.2528C210.623 98.3374 210.845 98.3903 210.929 98.4115C211.025 98.4326 211.241 98.4908 211.58 98.586C211.929 98.6812 212.162 98.7606 212.278 98.824C212.405 98.8769 212.611 98.9668 212.897 99.0938C213.193 99.2101 213.399 99.3212 213.516 99.427C213.643 99.5328 213.801 99.6756 213.992 99.8554C214.193 100.025 214.336 100.199 214.42 100.379C214.505 100.559 214.579 100.77 214.642 101.014C214.716 101.246 214.753 101.5 214.753 101.775C214.753 102.759 214.357 103.589 213.563 104.267C212.77 104.933 211.659 105.266 210.231 105.266C208.348 105.266 206.968 104.631 206.09 103.362C205.677 102.812 205.392 102.177 205.233 101.458ZM215.232 99.3953C215.232 97.7556 215.814 96.3699 216.977 95.238C218.151 94.0956 219.606 93.5244 221.341 93.5244C223.076 93.5244 224.525 94.0956 225.688 95.238C226.863 96.3699 227.45 97.7556 227.45 99.3953C227.45 100.823 226.984 102.077 226.053 103.156C225.133 104.235 223.959 104.901 222.531 105.155V108.202H220.151V105.155C218.723 104.901 217.543 104.235 216.612 103.156C215.692 102.077 215.232 100.823 215.232 99.3953ZM218.77 96.7772C218.104 97.4542 217.771 98.3269 217.771 99.3953C217.771 100.464 218.104 101.342 218.77 102.029C219.447 102.706 220.304 103.045 221.341 103.045C222.377 103.045 223.229 102.706 223.895 102.029C224.572 101.342 224.911 100.464 224.911 99.3953C224.911 98.3269 224.572 97.4542 223.895 96.7772C223.229 96.0896 222.377 95.7458 221.341 95.7458C220.304 95.7458 219.447 96.0896 218.77 96.7772ZM228.32 100.585V93.8417H230.7V100.585C230.7 101.347 230.912 101.95 231.335 102.394C231.768 102.828 232.35 103.045 233.08 103.045C233.81 103.045 234.386 102.828 234.81 102.394C235.243 101.95 235.46 101.347 235.46 100.585V93.8417H237.84V100.585C237.84 102.013 237.412 103.151 236.555 103.997C235.698 104.843 234.54 105.266 233.08 105.266C231.62 105.266 230.462 104.843 229.605 103.997C228.748 103.151 228.32 102.013 228.32 100.585ZM239.185 104.949V93.8417H241.565V104.949H239.185ZM242.997 104.949V93.8417H248.233C249.556 93.8417 250.613 94.2014 251.407 94.9207C252.2 95.6294 252.597 96.5127 252.597 97.5705C252.597 98.3956 252.364 99.0991 251.899 99.6809C251.433 100.263 250.82 100.696 250.058 100.982L252.597 104.949H249.899L247.599 101.299H245.377V104.949H242.997ZM245.377 99.0779H248.154C248.81 99.0779 249.302 98.9457 249.63 98.6812C249.968 98.4062 250.137 98.036 250.137 97.5705C250.137 97.1051 249.968 96.7401 249.63 96.4757C249.302 96.2007 248.81 96.0631 248.154 96.0631H245.377V99.0779ZM253.55 104.949V93.8417H258.786C260.108 93.8417 261.166 94.2014 261.96 94.9207C262.753 95.6294 263.15 96.5127 263.15 97.5705C263.15 98.3956 262.917 99.0991 262.452 99.6809C261.986 100.263 261.373 100.696 260.611 100.982L263.15 104.949H260.452L258.151 101.299H255.93V104.949H253.55ZM255.93 99.0779H258.707C259.363 99.0779 259.855 98.9457 260.183 98.6812C260.521 98.4062 260.69 98.036 260.69 97.5705C260.69 97.1051 260.521 96.7401 260.183 96.4757C259.855 96.2007 259.363 96.0631 258.707 96.0631H255.93V99.0779ZM264.103 104.949V93.8417H272.433V96.0631H266.483V98.2846H271.243V100.347H266.483V102.727H272.433V104.949H264.103ZM273.463 104.949V93.8417H275.843V102.727H281.317V104.949H273.463ZM281.766 104.822C281.523 104.579 281.401 104.277 281.401 103.917C281.401 103.558 281.523 103.256 281.766 103.013C282.01 102.77 282.311 102.648 282.671 102.648C283.03 102.648 283.332 102.77 283.575 103.013C283.818 103.256 283.94 103.558 283.94 103.917C283.94 104.277 283.818 104.579 283.575 104.822C283.332 105.065 283.03 105.187 282.671 105.187C282.311 105.187 282.01 105.065 281.766 104.822Z" fill="#2E2A1D"></path><path d="M20.6535 33.9443H24.7409C24.8699 34.3029 25.0636 34.6112 25.3217 34.8694C25.924 35.4717 26.7702 35.7729 27.8602 35.7729C28.6203 35.7729 29.1867 35.651 29.5596 35.4072C29.9325 35.1634 30.1189 34.855 30.1189 34.4821C30.1189 34.3244 30.0759 34.181 29.9899 34.0519C29.9182 33.9085 29.7891 33.7794 29.6027 33.6647C29.4306 33.5499 29.2585 33.4567 29.0864 33.385C28.9143 33.299 28.6633 33.2129 28.3334 33.1269C28.0179 33.0265 27.7526 32.9476 27.5375 32.8902C27.3223 32.8329 27.0068 32.754 26.5909 32.6536C26.1894 32.5532 25.881 32.4743 25.6659 32.417C24.3035 32.0441 23.2135 31.5278 22.396 30.8681C21.5929 30.2084 21.1913 29.2618 21.1913 28.0285C21.1913 26.7234 21.7507 25.6119 22.8693 24.694C24.0023 23.7618 25.5225 23.2957 27.4299 23.2957C29.868 23.2957 31.6893 24.0845 32.894 25.6621C33.4247 26.3505 33.7904 27.1393 33.9912 28.0285H29.9038C29.8178 27.799 29.6744 27.5839 29.4736 27.3831C29.0146 26.9528 28.3334 26.7377 27.4299 26.7377C26.7272 26.7377 26.2109 26.8453 25.881 27.0604C25.5512 27.2612 25.3862 27.5122 25.3862 27.8133C25.3862 28.2149 25.6229 28.5376 26.0961 28.7814C26.5838 29.0108 27.2937 29.2331 28.2259 29.4483C28.7708 29.5773 29.1581 29.6777 29.3875 29.7494C29.6313 29.8068 30.0114 29.9215 30.5277 30.0936C31.0583 30.2514 31.4599 30.402 31.7324 30.5454C32.0049 30.6888 32.3275 30.8896 32.7004 31.1477C33.0876 31.3915 33.3745 31.6569 33.5609 31.9437C33.7617 32.2162 33.9338 32.5532 34.0772 32.9548C34.235 33.3563 34.3138 33.7938 34.3138 34.267C34.3138 35.6438 33.7474 36.8126 32.6144 37.7735C31.4814 38.7344 29.8967 39.2149 27.8602 39.2149C25.3074 39.2149 23.3426 38.34 21.9658 36.5904C21.3778 35.8302 20.9404 34.9482 20.6535 33.9443ZM34.3231 27.3831V23.726H47.7683V27.3831H43.0356V38.7846H39.0558V27.3831H34.3231ZM48.5111 38.7846V23.726H60.1278V27.3831H52.4909V29.6419H58.6219V32.8687H52.4909V35.1275H60.1278V38.7846H48.5111ZM61.516 38.7846V23.726H68.8302C70.6802 23.726 72.1789 24.2566 73.3262 25.3179C74.4879 26.3648 75.0687 27.6627 75.0687 29.2116C75.0687 30.7605 74.4879 32.0656 73.3262 33.1269C72.1789 34.1738 70.6802 34.6973 68.8302 34.6973H65.4958V38.7846H61.516ZM65.4958 31.0402H68.7226C69.4684 31.0402 70.0277 30.8752 70.4006 30.5454C70.7878 30.2155 70.9814 29.7709 70.9814 29.2116C70.9814 28.6523 70.7878 28.2077 70.4006 27.8779C70.0277 27.548 69.4684 27.3831 68.7226 27.3831H65.4958V31.0402ZM80.0082 30.0721V25.8772L83.1275 23.726H86.7846V38.7846H82.6972V28.2436L80.0082 30.0721ZM88.638 38.548C88.2651 38.1751 88.0787 37.7162 88.0787 37.1712C88.0787 36.6262 88.2651 36.1673 88.638 35.7944C89.0109 35.4215 89.4698 35.2351 90.0148 35.2351C90.5597 35.2351 91.0187 35.4215 91.3915 35.7944C91.7644 36.1673 91.9509 36.6262 91.9509 37.1712C91.9509 37.7162 91.7644 38.1751 91.3915 38.548C91.0187 38.9209 90.5597 39.1073 90.0148 39.1073C89.4698 39.1073 89.0109 38.9209 88.638 38.548ZM88.638 30.7175C88.2651 30.3446 88.0787 29.8857 88.0787 29.3407C88.0787 28.7957 88.2651 28.3368 88.638 27.9639C89.0109 27.591 89.4698 27.4046 90.0148 27.4046C90.5597 27.4046 91.0187 27.591 91.3915 27.9639C91.7644 28.3368 91.9509 28.7957 91.9509 29.3407C91.9509 29.8857 91.7644 30.3446 91.3915 30.7175C91.0187 31.0904 90.5597 31.2768 90.0148 31.2768C89.4698 31.2768 89.0109 31.0904 88.638 30.7175Z" fill="#2E2A1D"></path></svg> 