<?xml version="1.0" encoding="UTF-8"?> <svg xmlns="http://www.w3.org/2000/svg" width="67" height="68" viewBox="0 0 67 68" fill="none"><path fill-rule="evenodd" clip-rule="evenodd" d="M31.8912 5.90841L29.1791 1.21086L24.6363 1.35519C12.7363 1.73328 6.78628 1.92233 3.20687 5.73665C-0.372533 9.55096 -0.183488 15.501 0.194601 27.401L0.425635 34.6726H3.26474L0.573724 39.3336L0.678436 42.6293C1.05652 54.5293 1.24557 60.4793 5.05989 64.0587C8.87421 67.6381 14.8242 67.4491 26.7242 67.071L32.7094 66.8808L34.6977 63.437L36.6143 66.7567L41.9525 66.5871C53.8525 66.2091 59.8025 66.02 63.382 62.2057C66.9614 58.3914 66.7723 52.4414 66.3942 40.5413L66.1632 33.2696H63.3242L66.0151 28.6087L65.9104 25.3131C65.5323 13.413 65.3433 7.46303 61.5289 3.88363C57.7146 0.304225 51.7646 0.49327 39.8646 0.871359L34.7047 1.0353L31.8912 5.90841Z" fill="url(#paint0_linear_10_2353)"></path><path d="M16.5892 34.1451L24.4732 36.8225L43.1927 25.3785C43.4644 25.2132 43.7423 25.5817 43.5085 25.7972L29.337 38.8412L28.8106 46.1436C28.802 46.266 28.8308 46.388 28.8931 46.4936C28.9555 46.5992 29.0485 46.6833 29.1598 46.7348C29.271 46.7864 29.3953 46.8028 29.5162 46.7821C29.6371 46.7613 29.7488 46.7043 29.8365 46.6186L34.1996 42.3277L42.1766 48.3656C43.036 49.0169 44.281 48.5578 44.5124 47.505L50.0666 22.2861C50.3837 20.8477 48.9734 19.6332 47.5986 20.1597L16.5501 32.0492C15.5756 32.4226 15.6025 33.8097 16.5892 34.1451Z" fill="white"></path><defs><linearGradient id="paint0_linear_10_2353" x1="34.3381" y1="66.8291" x2="32.2502" y2="1.11335" gradientUnits="userSpaceOnUse"><stop stop-color="#C98F00"></stop><stop offset="1" stop-color="#FF6C17"></stop></linearGradient></defs></svg> 