<?xml version="1.0" encoding="UTF-8"?> <svg xmlns="http://www.w3.org/2000/svg" width="190" height="31" viewBox="0 0 190 31" fill="none"><g clip-path="url(#clip0_10_913)"><path d="M13.5478 14.1029C13.5478 14.3666 13.7362 14.621 14.113 14.8659C14.5087 15.0919 14.9891 15.2992 15.5542 15.4876C16.1383 15.6571 16.76 15.8926 17.4194 16.1941C18.0976 16.4955 18.7099 16.8252 19.2562 17.1831C19.8214 17.5411 20.283 18.0309 20.6409 18.6526C21.0177 19.2743 21.1872 19.9808 21.1496 20.772C21.1119 21.5445 20.9141 22.2415 20.5561 22.8632C20.1982 23.4661 19.746 23.9653 19.1997 24.361C18.6533 24.7378 17.994 25.0674 17.2215 25.35C16.4491 25.6138 15.6861 25.8116 14.9325 25.9435C14.179 26.0565 13.3594 26.1319 12.474 26.1696L13.4631 20.9981C13.7833 20.8662 13.9435 20.6402 13.9435 20.3199C13.9435 19.9619 13.642 19.6228 13.0392 19.3026C12.4363 18.9635 11.7393 18.6432 10.948 18.3418C10.1756 18.0403 9.41258 17.5976 8.659 17.0136C7.92426 16.4107 7.41559 15.6665 7.133 14.7811C6.85041 13.8956 6.90693 12.6993 7.30256 11.1922C8.18801 8.36625 10.835 6.69896 15.2434 6.19029L14.4239 13.2834C13.8399 13.4152 13.5478 13.6884 13.5478 14.1029ZM20.1605 6.13377L19.454 13.9333C17.9657 13.4812 16.6469 13.2363 15.4977 13.1986L16.7129 6.049C17.0708 6.049 17.4382 6.049 17.815 6.049C18.1918 6.03016 18.512 6.03016 18.7758 6.049C19.0395 6.06783 19.275 6.08667 19.4823 6.10551C19.7084 6.10551 19.8779 6.11493 19.9909 6.13377H20.1605ZM5.97437 25.887L7.83948 20.2351C9.47852 20.7815 10.9009 21.0923 12.1066 21.1677L11.061 26.2261C10.2321 26.2261 9.39374 26.1978 8.54596 26.1413C7.69819 26.0848 7.05764 26.0283 6.62433 25.9717L5.97437 25.887ZM32.4563 20.7438L36.13 25.6609L37.4865 27.4977L32.1738 30.4367L30.6478 26.1978C30.497 26.1978 30.384 26.1978 30.3086 26.1978C28.6696 26.1978 27.153 25.7551 25.7589 24.8696C24.3836 23.9653 23.2909 22.7408 22.4808 21.1959C21.6896 19.6323 21.294 17.9367 21.294 16.1093C21.294 14.2818 21.6896 12.5957 22.4808 11.0509C23.2909 9.50604 24.3836 8.28147 25.7589 7.37718C27.153 6.47288 28.6602 6.02074 30.2804 6.02074C31.9194 6.02074 33.4266 6.47288 34.8019 7.37718C36.196 8.28147 37.2887 9.50604 38.0799 11.0509C38.89 12.5957 39.2951 14.2818 39.2951 16.1093C39.2951 17.5976 39.0219 19.0011 38.4756 20.3199C37.9481 21.6198 37.2039 22.7408 36.2431 23.6827L33.4172 19.6699C33.8693 18.9164 34.0954 18.0874 34.0954 17.1831C34.0954 15.9962 33.7374 14.9883 33.0215 14.1594C32.3056 13.3116 31.439 12.8877 30.4217 12.8877C29.7435 12.8877 29.1218 13.0855 28.5566 13.4812C27.9914 13.858 27.5487 14.376 27.2284 15.0354C26.9081 15.6948 26.748 16.4107 26.748 17.1831C26.748 18.37 27.1059 19.3873 27.8218 20.2351C28.5377 21.0641 29.4044 21.4785 30.4217 21.4785C31.1753 21.4785 31.8535 21.2336 32.4563 20.7438ZM39.9325 7.68803L47.1103 6.89677C47.0726 7.23588 47.0255 7.67861 46.969 8.22496C46.9125 8.7713 46.8371 9.77921 46.7429 11.2487C46.6487 12.7182 46.5828 14.0558 46.5451 15.2615C46.5074 16.4672 46.5263 17.6635 46.6016 18.8504C46.6958 20.0373 46.856 20.8568 47.082 21.309V25.9152C46.1212 25.8775 45.1792 25.6326 44.2561 25.1805C43.3518 24.7283 42.5511 24.0784 41.8541 23.2306C41.2889 22.5335 40.8367 21.5256 40.4976 20.2069C40.1585 18.8881 39.9419 17.5411 39.8477 16.1658C39.7723 14.7717 39.7346 13.4246 39.7346 12.1247C39.7346 10.8248 39.7723 9.76037 39.8477 8.93143L39.9325 7.68803ZM54.4294 7.57499C54.4671 7.85759 54.5048 8.25321 54.5425 8.76188C54.599 9.25171 54.6461 10.1843 54.6838 11.5595C54.7403 12.9348 54.7403 14.2253 54.6838 15.4311C54.6461 16.6368 54.4859 17.9179 54.2034 19.2743C53.9208 20.6307 53.5346 21.714 53.0447 22.5241C51.8955 24.4081 50.3224 25.5102 48.3254 25.8304V21.2525C48.5515 20.9133 48.7399 20.4047 48.8906 19.7265C49.0602 19.0482 49.1732 18.2947 49.2297 17.4657C49.2863 16.6368 49.3239 15.7607 49.3428 14.8376C49.3616 13.9145 49.3522 13.029 49.3145 12.1812C49.2957 11.3335 49.2674 10.561 49.2297 9.86399C49.2109 9.16693 49.1826 8.61116 49.145 8.19669L49.1167 7.57499H54.4294ZM55.4373 6.58592L63.2651 6.16203L61.2869 25.8022L56.4546 25.6326L55.4373 6.58592ZM74.5114 17.9179L79.4285 24.7001L73.6918 26.3391L70.8377 18.8787L69.6508 18.8222V26.0565H64.8184L63.6881 7.82933C64.9126 7.22646 66.6364 6.74606 68.8595 6.38811L69.1986 11.1074L69.6225 16.6462C69.6979 16.6085 69.7921 16.5614 69.9051 16.5049C70.0181 16.4295 70.2254 16.26 70.5268 15.9962C70.8282 15.7325 71.0826 15.4405 71.2898 15.1202C71.497 14.7999 71.676 14.3666 71.8267 13.8203C71.9774 13.2551 72.0151 12.6617 71.9398 12.0399C71.8079 10.8907 71.2239 10.0241 70.1877 9.4401L70.0181 6.24681C70.2819 6.20913 70.5362 6.18087 70.7811 6.16203C73.0419 5.9548 74.9258 6.44462 76.433 7.63151C77.9401 8.8184 78.6655 10.335 78.6089 12.1812C78.5901 12.8595 78.43 13.5188 78.1285 14.1594C77.8459 14.7999 77.5068 15.3369 77.1112 15.7702C76.7156 16.2035 76.3199 16.5897 75.9243 16.9288C75.5287 17.2679 75.199 17.5128 74.9352 17.6635L74.5114 17.9179ZM90.2416 17.9179L95.1587 24.7001L89.4221 26.3391L86.5679 18.8787L85.381 18.8222V26.0565H80.5487L79.4183 7.82933C80.6429 7.22646 82.3667 6.74606 84.5897 6.38811L84.9288 11.1074L85.3527 16.6462C85.4281 16.6085 85.5223 16.5614 85.6353 16.5049C85.7484 16.4295 85.9556 16.26 86.257 15.9962C86.5585 15.7325 86.8128 15.4405 87.02 15.1202C87.2273 14.7999 87.4062 14.3666 87.5569 13.8203C87.7077 13.2551 87.7453 12.6617 87.67 12.0399C87.5381 10.8907 86.9541 10.0241 85.9179 9.4401L85.7484 6.24681C86.0121 6.20913 86.2664 6.18087 86.5114 6.16203C88.7721 5.9548 90.656 6.44462 92.1632 7.63151C93.6704 8.8184 94.3957 10.335 94.3392 12.1812C94.3203 12.8595 94.1602 13.5188 93.8588 14.1594C93.5762 14.7999 93.2371 15.3369 92.8414 15.7702C92.4458 16.2035 92.0502 16.5897 91.6545 16.9288C91.2589 17.2679 90.9292 17.5128 90.6655 17.6635L90.2416 17.9179ZM107.611 14.1876L107.696 18.4265L101.762 18.0026L101.451 15.0354L107.611 14.1876ZM95.1492 7.09459L99.4446 6.75547L101.479 24.9827L96.1665 25.0674L95.1492 7.09459ZM100.547 6.6707L109.307 5.99248L108.798 13.0573L101.197 12.8029L100.547 6.6707ZM102.497 24.9544L101.931 19.7547L108.798 19.0765V24.8414L102.497 24.9544ZM109.8 6.5294L117.317 7.4337L115.085 25.887L111.27 25.8022L109.8 6.5294ZM117.007 20.8003L121.754 20.2634V26L116.046 25.887L117.007 20.8003ZM173.225 17.494C172.792 17.2491 172.415 16.9947 172.095 16.731C171.774 16.4672 171.473 16.147 171.19 15.7702C170.908 15.3745 170.7 14.9601 170.569 14.5268C170.437 14.0746 170.38 13.5377 170.399 12.916C170.418 12.2943 170.531 11.6255 170.738 10.9096C171.322 9.00679 172.745 7.62209 175.005 6.75547L174.412 3.84478H180.629L180.148 5.79466C180.827 5.75698 181.42 5.74756 181.929 5.7664C182.437 5.78524 182.843 5.80408 183.144 5.82292L183.596 5.87944L182.89 13.6507C182.89 13.6507 182.155 13.4812 180.685 13.1421C178.255 12.7276 177.021 12.9537 176.983 13.8203C176.983 14.1029 177.21 14.3666 177.662 14.6115L173.225 17.494ZM179.046 15.205C179.103 15.2427 179.206 15.2803 179.357 15.318C179.791 15.4876 180.13 15.6194 180.375 15.7136C180.619 15.8078 180.959 15.9586 181.392 16.1658C181.825 16.373 182.164 16.5614 182.409 16.731C182.673 16.9005 182.965 17.1266 183.285 17.4092C183.606 17.673 183.85 17.9555 184.02 18.257C184.19 18.5396 184.331 18.8787 184.444 19.2743C184.557 19.6511 184.604 20.0561 184.585 20.4895C184.491 22.8444 182.965 24.4457 180.007 25.2935L180.629 28.3738H174.412L175.005 25.9435C174.101 25.9623 173.178 25.9435 172.236 25.887C171.313 25.8304 170.616 25.7645 170.145 25.6891L169.41 25.6044L171.275 19.9525C171.539 20.0467 171.878 20.1503 172.292 20.2634C172.707 20.3764 173.357 20.5366 174.242 20.7438C175.147 20.9322 175.891 20.9793 176.475 20.8851C177.078 20.772 177.379 20.4895 177.379 20.0373C177.379 19.9619 177.36 19.8866 177.323 19.8112C177.304 19.717 177.257 19.6323 177.181 19.5569C177.125 19.4815 177.059 19.4156 176.983 19.3591C176.927 19.2837 176.833 19.2178 176.701 19.1613C176.588 19.0859 176.484 19.02 176.39 18.9635C176.296 18.9069 176.164 18.841 175.994 18.7656C175.825 18.6903 175.684 18.6338 175.57 18.5961C175.457 18.5396 175.297 18.4736 175.09 18.3983C174.902 18.3041 174.751 18.2287 174.638 18.1722L179.046 15.205Z" fill="#FFF3CF"></path></g><defs><clipPath id="clip0_10_913"><rect width="190" height="31" fill="white"></rect></clipPath></defs></svg> 