<?xml version="1.0" encoding="UTF-8"?> <svg xmlns="http://www.w3.org/2000/svg" width="1200" height="681" viewBox="0 0 1200 681" fill="none"><path fill-rule="evenodd" clip-rule="evenodd" d="M1288 0H-94V681H-72.8341C144.56 621.034 373.539 589 610 589C844.709 589 1072.05 620.561 1288 679.672V0Z" fill="#FFD048"></path><mask id="mask0_10_2085" style="mask-type:alpha" maskUnits="userSpaceOnUse" x="-94" y="0" width="1382" height="681"><path fill-rule="evenodd" clip-rule="evenodd" d="M1288 0H-94V681H-72.8341C144.56 621.034 373.539 589 610 589C844.709 589 1072.05 620.561 1288 679.672V0Z" fill="#FFD048"></path></mask><g mask="url(#mask0_10_2085)"><path d="M0 312.357C415.976 209.597 513.668 263.015 590.239 325.638C499.603 269.266 390.291 222.468 0 354.825C0 340.641 0 326.46 0 312.357ZM0 490.729C289.316 288.096 459.945 280.841 590.239 325.638C442.602 279.887 248.256 331.81 0 547.445C0 528.536 0 509.639 0 490.729ZM0 396.814C360.852 238.095 486.758 274.406 590.239 325.638C473.726 278.509 326.445 259.414 0 442.369C0 427.153 0 412.017 0 396.814ZM357.852 678C306.476 403.594 440.913 348.321 590.239 325.638C456.383 361.393 323.91 408.945 444.758 678C415.698 678 386.82 678 357.852 678ZM524.823 678C340.975 419.764 470.073 371.457 590.239 325.638C482.635 380.301 361.318 435.244 605.897 678C578.896 678 551.915 678 524.823 678ZM157.222 678C254.535 425.246 407.821 306.741 590.239 325.638C424.885 331.398 285.663 406.959 265.599 678C229.411 678 193.314 678 157.222 678ZM0 678C0 656.362 0 634.711 0 613.206C209.068 398.867 419.351 273.161 590.239 325.638C393.104 270.167 202.036 469.634 31.5942 678C21.1876 678 10.6898 678 0 678ZM274.786 0C640.208 156.735 677.802 250.065 590.239 325.638C683.145 239.605 542.262 134.249 170.067 0C204.94 0 239.909 0 274.786 0ZM448.415 0C751.023 200.17 685.914 265.692 590.239 325.638C679.631 258.25 704.241 178.664 364.226 0C392.446 0 420.291 0 448.415 0ZM0 224.8C449.164 188.039 549.294 248.37 590.239 325.638C529.417 256.184 435.757 198.792 0 270.378C0 255.229 0 240.028 0 224.8ZM0 0C16.0323 0 32.343 0 48.5626 0C391.697 116.188 701.803 225.012 590.239 325.638C661.304 222.68 387.104 138.09 0 53.9742C0 36.0181 0 17.9291 0 0ZM0 119.735C435.757 161.369 609.924 231.103 590.239 325.638C574.231 240.161 451.415 176.597 0 176.464C0 157.556 0 138.646 0 119.735ZM1200 157.212C898.494 382.633 734.334 380.448 590.239 325.638C754.21 385.918 944.151 323.878 1200 93.5695C1200 114.81 1200 135.972 1200 157.212ZM685.914 678C386.82 453.664 492.571 387.971 590.239 325.638C500.074 395.651 423.104 475.792 772.866 678C743.991 678 714.926 678 685.914 678ZM1200 262.646C810.461 445.242 705.46 383.878 590.239 325.638C719.333 380.58 853.868 419.486 1200 211.452C1200 228.508 1200 245.509 1200 262.646ZM960.558 0C895.682 266.248 766.304 337.557 590.239 325.638C749.054 316.33 871.072 269.955 855.744 0C890.713 0 925.635 0 960.558 0ZM766.304 0C851.9 263.997 733.444 301.604 590.239 325.638C718.771 290.084 832.493 252.211 682.113 0C710.332 0 738.46 0 766.304 0ZM604.581 0C811.305 237.273 705.926 280.998 590.239 325.638C694.77 272.949 784.585 219.477 526.042 0C552.198 0 578.378 0 604.581 0ZM1200 0C1200 6.56848 1200 13.1641 1200 19.7054C979.589 230.626 782.898 401.398 590.239 325.638C782.523 368.927 932.901 244.08 1082.01 0C1121.44 0 1160.53 0 1200 0ZM865.212 678C474.197 500.038 503.074 403.86 590.239 325.638C498.571 414.216 555.385 526.827 973.402 678C937.401 678 901.26 678 865.212 678ZM1200 678C1166.39 678 1132.45 678 1098.84 678C684.834 551.895 480.197 428.663 590.239 325.638C487.32 441.27 778.539 549.365 1200 647.45C1200 657.594 1200 667.804 1200 678ZM1200 455.651C692.615 496.609 634.208 412.918 590.239 325.638C657.925 403.741 710.99 486.902 1200 404.563C1200 421.539 1200 438.674 1200 455.651ZM1200 573.612C710.52 522.576 556.792 432.636 590.239 325.638C602.897 422.505 688.958 507.096 1200 509.97C1200 531.21 1200 552.385 1200 573.612ZM1200 357.42C737.945 476.48 675.973 395.928 590.239 325.638C691.583 389.083 772.117 462.92 1200 309.762C1200 325.638 1200 341.53 1200 357.42Z" fill="white" fill-opacity="0.08"></path></g></svg> 