<?xml version="1.0" encoding="UTF-8"?> <svg xmlns="http://www.w3.org/2000/svg" width="154" height="205" viewBox="0 0 154 205" fill="none"><path d="M0.445312 202.015C0.445312 202.015 4.48346 199.307 9.05116 195.624C13.6189 191.941 21.0391 192.368 21.0391 192.368C21.0391 192.368 17.4643 190.111 9.52051 182.601C1.5827 175.09 0.49343 164.125 0.49343 164.125C0.49343 164.125 6.64991 166.743 12.5416 167.911C18.4333 169.078 26.9549 172.28 26.9549 172.28L29.025 173.134C29.025 173.134 23.4704 169.638 21.2497 163.042C19.029 156.446 18.1504 151.915 18.5898 151.469C19.0291 151.024 32.2447 157.162 32.2567 154.695C32.2688 152.228 30.5537 149.104 30.5537 149.104C30.5537 149.104 34.002 145.981 38.5516 149.104C43.1012 152.228 45.5085 153.431 46.1103 154.033C46.7121 154.635 42.6259 142.496 43.4684 135.022C44.3109 127.548 46.1765 126.416 46.1765 126.416C46.1765 126.416 51.2919 125.038 58.6339 132.013C65.9759 138.988 69.2858 142.4 69.2858 142.4C69.2858 142.4 67.1795 137.646 69.2858 134.101C71.3922 130.557 71.2357 128.932 72.8184 129.75C74.4012 130.563 77.8135 134.872 77.8135 134.872C77.8135 134.872 77.32 128.342 80.3711 129.756C83.4223 131.17 88.4834 136.171 89.5606 136.075C90.6379 135.979 85.9257 126.597 85.8776 125.875C85.8294 125.152 77.8857 112.96 80.0522 102.206C82.2187 91.4513 83.5486 91.4212 85.5948 89.9287C87.6349 88.4422 97.0592 94.6408 97.0592 94.6408L109.968 103.048C109.968 103.048 104.257 93.7923 108.584 91.7161C112.911 89.6398 121.938 96.8615 121.938 96.8615C121.938 96.8615 116.72 88.9056 116.618 76.6348C116.516 64.364 121.691 55.3369 123.021 55.6378C124.351 55.9387 127.535 59.5796 127.535 59.5796C127.535 59.5796 125.151 45.7141 131.669 44.5044C138.187 43.2948 142.766 52.6649 142.766 52.6649L145.492 57.5816C145.492 57.5816 145.625 53.1223 146.72 48.2115C147.815 43.3008 151.709 43.5596 153.972 45.2326C156.235 46.9056 163.372 52.6288 163.372 52.6288C163.372 52.6288 164.221 42.1453 166.851 42.7231C169.48 43.3008 176.239 48.35 176.239 48.35C176.239 48.35 168.668 38.2818 173.284 24.5426C177.9 10.8033 184.977 11.7301 186.855 12.7712C188.732 13.8124 192.235 16.4483 194.094 19.9448C195.954 23.4412 197.988 25.8966 197.988 25.8966C197.988 25.8966 197.904 21.6599 202.044 23.1524C206.185 24.6449 208.243 28.1835 208.243 28.1835C208.243 28.1835 209.795 17.4232 217.619 10.2015C225.442 2.97986 235.336 -1.76839 239.416 0.903622C243.496 3.58166 241.872 4.91164 244.489 9.365C247.107 13.8184 247.493 22.8936 250.309 23.7662C253.125 24.6388 258.415 7.04204 265.095 5.30884C271.781 3.58166 279.009 8.37202 279.912 8.08316C280.814 7.79429 282.614 148.617 283.216 148.015C283.817 147.413 280.207 194.354 280.808 193.752C281.41 193.15 279.31 199.77 278.859 200.071C278.407 200.372 31.7031 200.071 31.7031 200.071L0.445312 202.015Z" fill="#FF541F"></path><path opacity="0.58" d="M234.283 63.4976C233.549 59.8265 232.857 56.0292 231.37 52.5688C230.113 49.638 228.018 46.966 224.799 46.1595C224.016 45.9609 223.162 46.4063 222.945 47.2127C221.477 52.7373 220.676 58.4304 220.556 64.1415C217.372 62.6731 214.989 59.9951 213.063 57.0342C210.524 53.1345 208.604 48.8677 206.155 44.9138C204.746 42.639 203.164 40.4544 201.262 38.5708C200.516 37.8306 199.463 38.1014 198.897 38.8777C198.241 39.7744 197.717 40.7373 197.308 41.7423C195.551 38.0713 193.499 34.5507 191.122 31.2288C190.61 30.5126 189.437 30.1214 188.757 30.9218C181.096 40.0271 182.973 52.6109 185.705 63.4193C184.454 62.9559 183.196 62.4986 181.944 62.0352C181.222 61.7704 180.241 62.3361 180.091 63.0883C179.904 64.0392 179.946 65.0141 180.187 65.9228C176.281 65.0863 172.315 64.5266 168.325 64.2438C167.17 64.1656 166.472 65.5798 167.025 66.5066C167.82 67.8366 168.524 69.2027 169.138 70.6109C167.934 69.6841 166.73 68.7573 165.527 67.8306C163.481 66.2538 160.983 64.5748 158.564 66.5186C156.608 68.0954 156.03 71.0262 155.639 73.3672C155.423 74.6851 155.302 76.0031 155.272 77.321C153.647 75.5698 151.782 74.0412 149.711 72.7955C148.67 72.1696 147.533 72.994 147.449 74.0953L147.262 76.5748C145.174 73.8004 142.532 71.4534 139.493 69.7323C138.47 69.1545 137.278 69.8948 137.23 71.0322C136.803 81.1545 139.24 91.313 144.157 100.16C140.781 100.039 137.41 99.9128 134.034 99.7924C133.294 99.7684 132.656 100.394 132.53 101.092C129.87 100.105 126.957 99.8285 124.086 100.322C123.051 100.503 122.811 101.742 123.19 102.531C126.036 108.482 129.888 113.935 134.516 118.623C133.697 118.442 132.879 118.262 132.066 118.081C130.773 117.792 129.479 117.504 128.185 117.221C127.12 116.986 126.006 116.763 124.929 117.028C123.888 117.281 123.015 118.051 122.696 119.08C122.359 120.158 122.636 121.259 122.931 122.312C123.136 123.052 123.346 123.792 123.551 124.533C122.991 123.991 122.022 124.075 121.451 124.581C119.091 126.651 117.888 129.63 117.882 132.645C109.884 126.013 101.88 119.375 93.8819 112.743C92.7926 111.841 90.915 112.659 91.3663 114.206C94.1828 123.901 97.4085 133.469 101.019 142.894C99.906 142.25 98.7024 141.756 97.4446 141.437C96.4938 141.197 95.5489 141.895 95.5429 142.888C95.5309 144.314 95.6452 145.734 95.8679 147.13C94.255 145.933 92.4797 144.958 90.584 144.224C89.6633 143.869 88.6642 144.777 88.6823 145.674C88.6943 146.288 88.7364 146.896 88.8147 147.498C86.3112 145.891 83.4285 144.904 80.4195 144.603C79.5409 144.519 79.0053 145.367 78.915 146.107C78.6803 147.991 78.7946 149.905 79.2159 151.746C79.0835 151.656 78.9511 151.56 78.8187 151.469C78.1748 151.042 77.1096 151.307 76.7606 152.011C76.6583 152.222 76.574 152.438 76.5138 152.655C69.4787 148.779 62.3473 145.078 55.1256 141.564C53.934 140.986 52.6222 141.937 52.917 143.261C54.4637 150.206 57.3282 156.759 61.2881 162.633C59.8317 162.194 58.3814 161.748 56.925 161.309C55.2339 160.797 54.3914 163.144 55.7636 164.059C56.6061 164.619 57.4486 165.185 58.2851 165.744C52.6702 165.931 47.0614 166.117 41.4466 166.304C40.3934 166.34 39.4546 167.586 40.1467 168.567C42.9451 172.527 46.4656 175.909 50.5278 178.503C49.3784 178.725 48.2289 178.948 47.0855 179.171C46.0504 179.375 45.5449 181.006 46.4235 181.686C46.6101 181.831 46.8026 181.981 46.9892 182.125C44.251 182.047 41.5429 181.614 38.8889 180.789C37.6973 180.422 36.4215 181.915 37.1919 182.998C43.2581 191.556 52.58 197.634 62.8708 199.74C64.7064 200.113 66.5659 200.354 68.4375 200.474C72.2048 201.51 76.0203 202.352 79.938 202.575C85.6371 202.894 91.2219 201.546 96.7765 200.499C108.157 198.356 119.772 198.567 131.278 199.319C143.08 200.089 154.869 201.149 166.64 202.256C178.249 203.351 190.141 205.349 201.786 203.754C202.995 203.586 204.241 203.333 205.138 202.436C206.155 201.419 206.257 200.017 206.058 198.669C205.601 195.558 204.843 192.458 204.109 189.401C202.604 183.173 200.732 177.04 198.53 171.028C198.024 169.656 196.092 169.548 195.629 171.028C195.346 171.931 195.057 172.834 194.775 173.736C191.946 169.096 189.124 164.456 186.295 159.816C185.711 158.86 184.267 158.824 183.695 159.816C182.131 162.531 181.336 165.582 181.342 168.663C178.285 166.087 175.234 163.512 172.177 160.936C171.316 160.208 169.427 160.575 169.607 162.001C169.926 164.499 170.089 167.002 170.095 169.512C168.416 168.717 166.736 167.929 165.063 167.134C164.257 166.755 163.053 167.002 162.855 168.031C162.753 168.567 162.65 169.102 162.548 169.638C156.939 167.104 152.016 163.157 148.273 158.288C149.513 158.535 150.777 158.685 152.046 158.733C153.268 158.781 153.81 157.439 153.346 156.47C153.196 156.158 153.045 155.839 152.895 155.526C156.217 155.471 159.485 156.242 162.428 157.885C163.974 158.751 165.334 156.795 164.251 155.52C159.376 149.772 155.741 143.062 153.533 135.877C158.125 137.712 162.584 139.855 166.893 142.292C168.139 142.996 169.288 141.841 169.102 140.595C168.692 137.778 168.277 134.962 167.868 132.146C171.876 134.282 175.312 137.465 177.756 141.293C178.568 142.569 180.494 142.039 180.56 140.535C180.734 136.569 180.909 132.609 181.084 128.643C182.582 129.473 183.906 130.623 184.911 132.019C185.597 132.97 187.378 133.042 187.661 131.658C189.455 122.956 192.361 114.543 196.321 106.611C196.706 120.41 198.121 134.168 200.534 147.762C200.775 149.11 202.646 149.128 203.284 148.123C206.925 142.4 211.18 137.116 215.964 132.326C218.034 136.34 219.509 140.619 220.375 145.066C220.556 146.005 221.814 146.462 222.584 145.963C227.826 142.611 230.841 137.062 232.676 131.267C234.831 124.454 235.8 117.179 236.534 110.095C238.141 94.5748 237.364 78.8135 234.295 63.5096L234.283 63.4976Z" fill="#8E1E00"></path><path d="M42.8549 198.495C35.3384 198.458 27.9663 196.021 21.557 192.163C15.1478 188.306 9.18391 182.613 5.30828 175.915C3.17187 172.226 1.65538 168.206 0.927195 164.005L0.26515 164.517C4.98932 166.701 10.0806 167.736 15.0997 169C20.1187 170.264 25.3906 172.063 29.7175 175.367C30.1809 175.722 30.6323 174.934 30.1749 174.585C25.9262 171.341 20.9432 169.56 15.8098 168.248C10.6764 166.936 5.51892 165.955 0.722528 163.734C0.349409 163.56 -0.0116598 163.843 0.0605569 164.246C1.39055 171.913 5.35041 178.912 10.6523 184.539C16.0505 190.268 22.8811 194.715 30.3434 197.237C34.3695 198.597 38.6002 199.373 42.8549 199.391C43.4387 199.391 43.4387 198.488 42.8549 198.488V198.495Z" fill="black"></path><path d="M27.8755 172.906C26.2867 170.294 24.5115 167.808 22.9588 165.173C21.2918 162.35 19.6368 159.281 19.1493 156.001C18.9086 154.388 19.035 152.727 19.8233 151.283L19.3118 151.487C23.5425 153.203 27.5085 155.429 32.0762 156.157C32.3951 156.206 32.7381 155.959 32.6298 155.604C32.2205 154.268 31.6849 152.974 31.2576 151.644C31.0169 150.898 30.5837 149.718 31.1012 148.996C31.8234 147.991 33.8816 148.256 34.9106 148.346C36.9147 148.515 38.8224 149.303 40.5315 150.326C42.4693 151.481 44.3109 153.004 45.5265 154.93C45.8334 155.417 46.6157 154.966 46.3088 154.472C45.1533 152.643 43.4864 151.169 41.687 149.983C39.8876 148.797 37.7451 147.798 35.5545 147.509C34.1102 147.317 31.9858 147.094 30.7461 148.081C29.8976 148.761 29.8976 149.851 30.0962 150.825C30.4513 152.547 31.2457 154.165 31.7572 155.845L32.3108 155.291C27.7491 154.563 23.7772 152.336 19.5465 150.621C19.366 150.549 19.1253 150.669 19.035 150.825C17.5305 153.576 18.1443 156.831 19.1915 159.624C20.4493 162.97 22.3509 166.039 24.2888 169.024C25.2276 170.468 26.1905 171.889 27.0872 173.357C27.3881 173.851 28.1704 173.399 27.8695 172.9L27.8755 172.906Z" fill="black"></path><path d="M46.9769 154.575C45.6529 151.12 44.7924 147.473 44.3109 143.808C43.7994 139.885 43.6851 135.81 44.4614 131.911C44.8646 129.877 45.5206 127.897 46.5798 126.103L46.0682 126.308C50.8345 127.397 55.1133 129.714 58.8866 132.795C62.66 135.877 65.7292 139.301 68.9669 142.719C69.3641 143.14 70.002 142.503 69.6048 142.081C66.2648 138.549 62.9789 134.914 59.1695 131.869C55.36 128.823 51.0812 126.525 46.3089 125.435C46.1103 125.393 45.9057 125.465 45.7974 125.64C43.8596 128.926 43.1795 132.807 43.0411 136.575C42.8907 140.685 43.3902 144.838 44.3109 148.84C44.7743 150.868 45.3641 152.866 46.1043 154.803C46.3089 155.339 47.1815 155.11 46.9769 154.563V154.575Z" fill="black"></path><path d="M69.7132 142.28C69.1716 140.312 68.8767 138.248 68.979 136.208C69.0693 134.348 69.5928 132.23 70.9108 130.827C71.8315 129.846 72.7764 130.659 73.5587 131.399C74.8827 132.651 76.0803 134.023 77.4885 135.191C77.7654 135.419 78.2829 135.293 78.2589 134.872C78.1566 133 78.2288 129.624 80.967 130.298C83.2177 130.851 85.2097 132.699 86.7984 134.3C87.659 135.166 88.4835 136.081 89.1696 137.098C89.4946 137.58 90.2769 137.128 89.9519 136.641C88.4715 134.45 86.4494 132.494 84.2949 130.978C82.7603 129.895 79.986 128.3 78.3551 130.087C77.2357 131.315 77.2719 133.325 77.3622 134.866L78.1324 134.547C76.5376 133.223 75.2438 131.562 73.643 130.256C72.662 129.455 71.5126 129.064 70.4715 129.991C68.985 131.315 68.317 133.608 68.1304 135.515C67.9017 137.85 68.2268 140.264 68.8466 142.514C69.0031 143.074 69.8697 142.833 69.7192 142.274L69.7132 142.28Z" fill="black"></path><path d="M90.6141 134.908C86.7626 125.471 80.0946 116.511 80.2029 105.919C80.233 103.09 80.8047 100.382 81.587 97.674C82.1347 95.7843 82.6944 93.8044 83.7536 92.1314C84.4998 90.9519 85.5589 90.1154 87.0033 90.1695C89.1698 90.2478 91.1197 91.6981 92.895 92.7693C98.5519 96.1695 104.696 98.9077 109.643 103.361C110.089 103.758 110.63 103.175 110.281 102.723C109.282 101.447 108.614 99.8827 108.169 98.3421C107.723 96.8014 107.405 95.1043 107.862 93.5637C108.993 89.7302 113.97 92.4323 116.046 93.7503C117.659 94.7733 119.176 95.9529 120.59 97.2347C121.017 97.6259 121.661 96.988 121.228 96.5968C119.832 95.333 118.333 94.1595 116.757 93.1304C115.09 92.0471 113.212 90.988 111.208 90.7292C109.631 90.5246 108.042 91.0782 107.296 92.5587C106.508 94.1234 106.7 96.0552 107.08 97.7041C107.537 99.7142 108.379 101.724 109.655 103.355L110.293 102.717C105.713 98.5948 100.129 95.9108 94.8388 92.8536C91.9923 91.2046 87.4245 87.4313 84.1387 90.2658C82.8448 91.3791 82.1587 93.1123 81.5931 94.677C80.6903 97.1745 79.9381 99.8044 79.565 102.434C78.8007 107.851 79.8719 113.195 81.8699 118.232C84.1628 124.015 87.3885 129.377 89.7415 135.136C89.9582 135.666 90.8308 135.437 90.6141 134.896V134.908Z" fill="black"></path><path d="M120.729 93.7262C119.104 89.6098 117.804 85.337 117.304 80.9258C116.871 77.0622 117.076 73.1926 117.798 69.3772C118.297 66.7533 118.941 64.1475 119.82 61.6259C120.211 60.5005 120.65 59.3812 121.222 58.334C121.637 57.5697 122.131 56.7152 122.871 56.2277C125.08 54.7653 126.668 59.8987 127.09 61.1204C127.252 61.5898 127.968 61.5296 127.974 61C127.998 58.6108 127.974 56.2217 128.179 53.8385C128.384 51.4554 128.739 48.7593 130.135 46.7372C131.531 44.7152 134.089 44.5828 136.183 45.6841C138.969 47.1585 140.859 50.1314 142.327 52.8155C144.018 55.9027 145.36 59.2247 146.275 62.6249C146.426 63.1846 147.298 62.9499 147.148 62.3842C146.287 59.2006 145.048 56.0833 143.531 53.1585C142.014 50.2337 140.047 47.0381 137.176 45.2207C135.106 43.9087 132.223 43.4935 130.273 45.2267C128.323 46.9599 127.8 49.7342 127.475 52.1114C127.066 55.0602 127.108 58.0331 127.078 61L127.962 60.8797C127.427 59.3391 126.831 57.7202 125.826 56.4203C125.302 55.7402 124.574 55.0843 123.665 55.0662C121.704 55.0301 120.524 57.5938 119.862 59.0682C118.695 61.6921 117.93 64.5025 117.31 67.3009C116.486 71.008 116.022 74.7753 116.209 78.5788C116.474 83.8927 117.912 89.0381 119.856 93.9729C120.067 94.5086 120.939 94.2738 120.729 93.7322V93.7262Z" fill="black"></path><path d="M145.926 57.7022C146.564 55.6861 146.372 53.4836 146.402 51.4013C146.432 49.4575 146.45 46.9178 148.123 45.5939C151.565 42.8677 155.88 46.9058 158.366 49.1144C159.882 50.4685 161.369 52.0091 163.15 53.0202C163.385 53.1526 163.758 53.0442 163.812 52.7494C164.077 51.4073 164.137 50.0232 164.306 48.6691C164.498 47.1345 164.679 45.3531 165.485 43.9991C166.195 42.8075 167.369 43.1626 168.434 43.6862C169.975 44.4505 171.353 45.5337 172.701 46.5869C173.898 47.5257 175.078 48.645 176.444 49.3311C176.805 49.5116 177.353 49.1084 177.064 48.7112C170.823 40.3762 170.546 28.623 176.101 19.8607C177.431 17.7664 179.104 15.6541 181.132 14.1977C182.498 13.2168 184.147 12.6089 185.838 12.9399C189.377 13.638 191.874 17.2609 193.674 20.0894C196.039 23.8145 197.814 27.8466 199.872 31.7403L200.655 31.283C199.367 29.616 196.725 25.0422 199.932 23.8506C203.754 22.4304 206.528 26.1435 208.225 28.9841C209.17 30.5668 209.958 32.2338 210.873 33.8346C211.162 34.3401 211.944 33.8827 211.656 33.3772C209.754 30.0613 208.261 26.1014 205.054 23.7905C202.496 21.949 197.369 22.2739 197.549 26.312C197.64 28.292 198.693 30.2057 199.878 31.7343C200.221 32.1797 200.937 31.8065 200.661 31.2769C198.711 27.5939 197.02 23.7784 194.829 20.2218C192.921 17.1165 190.412 13.4093 186.753 12.2418C182.534 10.8938 179.014 14.4384 176.673 17.4835C173.405 21.7323 171.533 26.968 171.256 32.312C170.943 38.312 172.683 44.3481 176.287 49.1626L176.907 48.5427C175.553 47.8627 174.392 46.7554 173.206 45.8286C171.792 44.7213 170.336 43.5598 168.699 42.8015C167.609 42.296 166.231 41.9048 165.25 42.8376C164.149 43.8847 163.86 45.7203 163.625 47.1465C163.337 48.9159 163.301 50.7393 162.951 52.4966L163.613 52.2258C161.874 51.2388 160.43 49.7222 158.943 48.4043C157.313 46.9539 155.603 45.4615 153.617 44.5287C151.908 43.7283 149.989 43.4454 148.279 44.4083C146.378 45.4795 145.776 47.4896 145.595 49.5477C145.367 52.1475 145.866 54.9339 145.072 57.4555C144.897 58.0091 145.77 58.2498 145.944 57.6962L145.926 57.7022Z" fill="black"></path><path d="M25.643 191.116C22.0382 191.411 18.4515 192.158 14.9791 193.126C11.0914 194.21 7.08333 195.606 3.7373 197.923C2.26889 198.94 0.884741 200.18 0.0542497 201.786C-0.210545 202.304 0.565814 202.761 0.836626 202.244C2.37725 199.253 5.82556 197.508 8.78043 196.226C12.4454 194.643 16.3512 193.572 20.2689 192.801C22.0443 192.452 23.8436 192.164 25.6491 192.019C26.2268 191.971 26.2268 191.068 25.6491 191.116H25.643Z" fill="black"></path></svg> 