<?xml version="1.0" encoding="UTF-8"?> <svg xmlns="http://www.w3.org/2000/svg" width="46" height="46" viewBox="0 0 46 46" fill="none"><path fill-rule="evenodd" clip-rule="evenodd" d="M22.4154 4.0808L20.587 0.913902L17.5241 1.01122C9.50148 1.26611 5.49016 1.39356 3.07702 3.96507C0.663888 6.53657 0.791337 10.5479 1.04623 18.5706L1.20199 23.4729H3.11607L1.30183 26.6153L1.37242 28.8371C1.62732 36.8597 1.75477 40.871 4.32627 43.2842C6.89778 45.6973 10.9091 45.5699 18.9318 45.315L22.9669 45.1868L24.3073 42.865L25.5995 45.1031L29.1983 44.9888C37.2209 44.7339 41.2322 44.6064 43.6454 42.0349C46.0585 39.4634 45.9311 35.4521 45.6762 27.4294L45.5204 22.5269H43.6066L45.4206 19.3851L45.35 17.1629V17.1629C45.0951 9.14027 44.9676 5.12895 42.3961 2.71582C39.8246 0.302682 35.8133 0.43013 27.7906 0.685028L24.3121 0.795546L22.4154 4.0808Z" fill="url(#paint0_linear_9_907)"></path><path d="M12.099 23.1173L17.4141 24.9223L30.0343 17.2071C30.2175 17.0956 30.4049 17.3441 30.2472 17.4893L20.6932 26.2832L20.3383 31.2063C20.3325 31.2888 20.3519 31.3711 20.394 31.4423C20.436 31.5135 20.4987 31.5702 20.5737 31.6049C20.6487 31.6397 20.7325 31.6508 20.814 31.6368C20.8955 31.6228 20.9708 31.5843 21.0299 31.5266L23.9714 28.6338L29.3493 32.7043C29.9287 33.1434 30.768 32.8339 30.924 32.1241L34.6685 15.1223C34.8823 14.1525 33.9315 13.3338 33.0047 13.6887L12.0726 21.7043C11.4156 21.956 11.4338 22.8911 12.099 23.1173Z" fill="#92785E"></path><defs><linearGradient id="paint0_linear_9_907" x1="24.0648" y1="45.1519" x2="22.6572" y2="0.848171" gradientUnits="userSpaceOnUse"><stop stop-color="#23180D"></stop><stop offset="1" stop-color="#342414"></stop></linearGradient></defs></svg> 