<?xml version="1.0" encoding="UTF-8"?> <svg xmlns="http://www.w3.org/2000/svg" width="170" height="284" viewBox="0 0 170 284" fill="none"><path d="M169.446 219.289L168.028 187.027L167.471 130.853L165.695 70.4976C165.695 70.4976 166.775 54.0352 157.232 47.1162C147.688 40.1972 136.614 38.2355 136.614 38.2355C136.614 38.2355 135.752 35.5581 136.415 34.8953C137.078 34.2326 136.746 28.0824 136.746 28.0824L140.246 25.2459L137.747 20.5139L141.094 18.5721L142.022 9.20765C142.022 9.20765 109.866 -1.76065 70.4529 1.3277C31.0399 4.41606 30.861 8.00808 30.861 8.00808L31.7093 18.148L34.6319 18.6583L33.2402 23.3173L34.1813 26.4653C34.1813 26.4653 35.858 27.804 36.0966 31.0183C36.3352 34.2326 35.3079 37.5595 35.3079 37.5595C35.3079 37.5595 14.4383 46.3276 9.81242 48.899C9.02376 49.3364 8.30802 52.0138 7.65191 56.1559C7.63866 56.1758 7.6254 56.1891 7.61215 56.209C7.04219 57.1501 6.65118 58.1574 6.3662 59.1913C6.28004 59.2973 6.21376 59.4365 6.174 59.6022C5.70346 61.8754 5.43173 64.1817 5.21966 66.488C4.7226 68.3702 4.39786 70.2855 4.24543 72.2273C4.22555 72.5057 4.33822 72.731 4.52379 72.8967C4.11952 75.3024 4.07976 77.7347 4.15266 80.1669C4.02011 81.89 3.88756 83.6065 3.75501 85.3296C3.71525 85.8466 4.02011 86.1514 4.39787 86.2442C4.44426 87.404 4.49065 88.5572 4.54367 89.717C4.5503 89.876 4.59007 90.0152 4.64971 90.1345C3.4369 110.872 2.82055 131.642 2.82055 131.642L1.30288 197.133C1.30288 197.133 -0.599178 241.378 1.30288 247.813C3.20493 254.241 2.33011 261.651 15.6909 272.858C29.0517 284.065 61.9301 281.023 62.7254 281.884C63.514 282.746 138.403 280.433 138.403 280.433C138.403 280.433 160.81 274.886 165.178 258.602C169.552 242.319 168.657 233.716 168.657 233.716L169.439 219.275L169.446 219.289Z" fill="#839496"></path><path d="M30.695 63.3533C28.064 63.0617 13.5368 67.0381 13.5368 67.0381C13.5368 67.0381 17.5662 99.0086 18.5073 100.586C19.4484 102.163 19.4484 115.418 19.4484 116.081C19.4484 116.743 21.039 124.497 22.2319 124.928C23.4248 125.359 24.7105 126.121 24.0677 125.743C23.4248 125.366 14.4182 122.927 11.6281 123.152C8.83797 123.377 -0.261414 125.346 1.30927 124.358C2.87996 123.371 3.50293 211.283 3.50293 211.283C3.50293 211.283 20.2503 211.508 20.1774 212.502C20.1045 213.496 15.3129 223.285 12.7349 229.329C10.1634 235.373 11.7076 244.698 15.9027 250.636C20.1045 256.581 33.3592 249.291 37.3357 243.989C41.3121 238.687 57.2178 228.746 61.1942 228.083C65.1706 227.421 79.2737 228.594 78.5182 229.329C77.7626 230.065 70.4725 220.793 70.4725 220.793C70.4725 220.793 83.4622 220.985 83.5947 222.549C83.7273 224.113 81.0763 226.095 89.6919 230.071C98.3075 234.048 104.994 236.222 107.281 235.466C109.567 234.711 110.045 231.138 110.045 231.138C110.045 231.138 121.344 240.629 124.075 240.649C126.805 240.669 144.162 232.225 146.084 231.808C148.006 231.39 155.296 232.053 157.947 232.716C160.598 233.379 163.753 236.745 163.753 236.745L168.438 224.133L168.08 166.21C168.08 166.21 161.924 160.511 158.941 160.829C155.959 161.147 146.144 162.247 146.084 162.028C146.025 161.81 144.056 163.228 144.056 163.228L143.473 159.165L153.315 157.833L163.759 154.155L163.256 149.88C163.256 149.88 160.969 139.011 160.79 138.15C160.611 137.288 154.024 137.838 154.024 137.838L151.996 139.283C151.996 139.283 165.085 108.91 164.177 103.224C163.262 97.5307 152.022 80.273 150.352 78.6294C148.682 76.9858 147.211 75.6405 147.211 75.6405C147.211 75.6405 154.077 71.3724 154.03 71.5315C153.984 71.6905 154.938 68.5492 154.938 68.5492C154.938 68.5492 145.574 53.8497 143.486 53.4918C141.399 53.1339 138.085 54.751 136.76 55.5993C135.434 56.4476 128.952 60.8283 128.952 60.8283C128.952 60.8283 126.255 60.4041 124.214 59.4167C122.173 58.4292 110.601 56.8386 109.097 56.9778C107.592 57.117 98.9768 56.4476 98.3141 56.4476C97.6514 56.4476 95.3318 56.9778 95.3318 56.9778L90.3679 68.2642C90.3679 68.2642 67.8282 51.8084 67.1655 51.1457C66.5027 50.483 50.5241 63.6582 49.9012 63.3666C49.2782 63.075 43.0948 72.3135 42.5381 72.9961C41.9814 73.6788 33.969 72.3467 33.969 72.3467L30.874 62.6773L30.7017 63.3732L30.695 63.3533Z" fill="#A3D880"></path><path d="M160.863 250.563C161.022 248.694 160.684 246.799 159.73 245.069C159.014 243.77 157.934 242.617 156.655 241.795C156.628 241.769 156.608 241.742 156.575 241.716C154.693 239.893 151.996 239.151 149.802 239.84C149.332 239.708 148.821 239.681 148.311 239.761C148.205 239.781 148.112 239.807 148.013 239.827C147.35 239.23 146.416 238.912 145.574 239.25C141.823 240.748 138.469 243.744 138.595 248.085C138.35 247.859 138.052 247.674 137.687 247.541C135.262 246.653 132.81 247.356 130.556 248.708C129.986 248.986 129.436 249.337 128.899 249.748C128.82 249.748 128.74 249.728 128.661 249.728C126.321 249.775 124.293 250.895 122.988 252.664C122.968 252.664 122.955 252.671 122.935 252.677C122.279 252.856 121.815 253.194 121.51 253.605C121.377 253.671 121.251 253.744 121.119 253.811C121.868 252.611 121.523 250.901 120.463 250.099C119.661 248.35 118.64 246.699 117.262 245.341C115.559 243.651 112.808 242.67 110.654 244.062C109.634 243.77 108.62 243.658 107.626 243.691C107.553 243.677 107.486 243.658 107.407 243.651C104.12 243.32 100.879 244.254 98.831 246.527C98.7184 246.58 98.5991 246.633 98.4864 246.686C97.426 247.183 97.088 248.184 97.2272 249.158C96.6506 248.409 95.7095 247.979 94.5696 248.363C94.4371 248.409 94.3112 248.462 94.1786 248.509C93.834 247.674 93.0917 246.984 92.197 246.772C92.1374 246.726 92.0844 246.673 92.0247 246.627C91.1234 244.546 90.2022 242.345 88.8237 240.695C87.1006 238.634 84.6087 238.409 82.077 238.561C81.0564 238.621 80.0557 238.753 79.0682 238.932C77.7361 238.495 76.1787 238.422 74.6478 238.634C70.9232 239.158 67.742 241.364 65.8068 244.572C65.4357 245.188 65.3562 245.785 65.4622 246.328C63.1956 246.017 60.9158 246.083 58.7023 246.54C58.4372 246.547 58.1655 246.607 57.9004 246.726C55.667 247.289 53.5197 248.257 51.5381 249.649C51.3791 249.635 51.2266 249.616 51.0676 249.609C48.6684 249.437 46.276 249.423 43.8901 249.808C40.1788 250.404 36.6928 252.028 34.1943 254.838C32.6567 255.335 31.2053 256.011 29.9726 256.979C29.2105 256.455 28.4483 255.991 27.6796 255.613C25.5853 254.573 21.98 253.718 19.1435 254.222C18.7127 250.57 15.7437 248.038 13.053 245.845C11.4955 244.572 9.88507 243.373 8.26799 242.18C7.67153 241.742 6.92926 241.02 6.15386 241.192C4.49702 240.708 2.43591 242.093 2.76065 244.393C2.86006 245.102 2.97935 245.805 3.1119 246.501C2.99923 246.918 2.9926 247.395 3.17154 247.932C4.47051 251.922 5.6303 255.998 7.27389 259.861C8.38066 262.459 9.79891 265.945 12.8409 266.641C13.0397 266.688 13.2385 266.694 13.4373 266.688C14.0868 267.364 14.8689 267.953 15.6045 268.457C15.7768 268.61 15.9557 268.755 16.128 268.908C20.2834 275.35 29.3231 277.066 36.6133 276.191C37.1633 276.125 37.614 275.926 37.9851 275.641C42.1803 277.364 47.6876 275.323 51.8562 274.481C52.2936 274.395 52.6449 274.223 52.9298 273.998C54.9976 275.104 56.8996 273.216 56.8267 271.406C57.6088 271.121 58.2583 270.512 58.3974 269.657C58.4504 269.345 58.5035 269.034 58.5697 268.722C58.8415 268.643 59.0999 268.517 59.3518 268.325C59.4247 268.669 59.5572 269.007 59.7494 269.352C61.1743 271.857 63.2884 271.618 65.449 270.194C66.4431 270.684 67.5233 270.73 68.6301 270.452C70.9364 272.056 73.5078 271.022 75.781 269.034C81.6396 269.769 87.4982 270.512 93.3568 271.247C94.3708 271.373 95.1131 270.836 95.5439 270.068C97.4393 270.068 99.3281 270.021 101.224 269.942C101.502 270.982 102.297 271.91 103.623 272.069C111.191 272.977 118.753 272.593 126.189 271.042C125.652 272.626 125.811 274.177 127.243 275.462C128.654 276.728 130.437 276.125 131.305 274.952C132.478 275.283 133.837 275.171 135.076 274.992C141.339 274.09 148.284 271.877 153.016 267.476C154.302 266.283 155.051 264.6 153.997 263.096C154.68 262.698 155.117 262.035 155.29 261.313C155.906 261.326 156.536 261.088 157.086 260.478C159.425 257.886 161.327 254.122 160.863 250.583V250.563ZM8.69877 245.473C8.62587 245.241 8.55297 245.016 8.47344 244.791C8.84457 245.069 9.22233 245.347 9.58683 245.626C10.7864 246.534 11.9594 247.475 13.0927 248.462C13.8748 249.145 14.7231 249.894 15.4388 250.736C13.2452 248.913 10.9918 247.163 8.69214 245.473H8.69877ZM110.833 259.06C112.874 257.886 114.949 256.806 117.07 255.918C115.002 256.979 112.921 258.026 110.833 259.06ZM137.966 259.981C137.986 260.04 138.012 260.1 138.039 260.16C137.76 260.431 137.568 260.743 137.449 261.074C136.985 261.26 136.528 261.452 136.077 261.664C136.733 261.154 137.356 260.577 137.966 259.987V259.981Z" fill="#545951"></path><path d="M39.1048 271.797C38.3625 267.788 36.3743 260.683 31.9804 258.947C31.9406 258.602 31.8279 258.258 31.6291 257.946C30.1645 255.666 27.1358 254.354 24.5179 255.421C23.9745 255.64 23.4841 256.004 23.1196 256.448C21.5621 256.362 20.1041 256.82 18.9311 258.079C17.7912 258.649 16.7705 259.523 16.0018 260.544C14.451 260.981 13.2779 262.599 14.451 264.275C14.4841 264.322 14.5239 264.368 14.557 264.421C14.5769 265.051 14.8088 265.554 15.1733 265.899C15.4053 266.648 15.7632 267.37 16.194 268.02C18.7853 271.923 23.1925 274.501 27.7852 275.184C28.3154 275.263 28.7926 275.197 29.2167 275.038C31.1983 275.635 33.2727 276.019 35.4133 276.178C36.6725 276.271 37.4612 275.601 37.786 274.713C38.7005 274.19 39.35 273.163 39.0982 271.804L39.1048 271.797Z" fill="#EA8C26"></path><path d="M160.472 248.317C160.147 246.607 159.505 245.036 158.451 243.909C158.212 243.333 157.954 242.789 157.695 242.292C156.582 240.191 154.428 239.27 152.115 239.588C150.995 239.741 150.047 240.125 149.259 240.662C147.244 240.715 145.335 241.113 143.46 241.822C143.069 241.676 142.664 241.557 142.247 241.457C141.929 241.848 141.591 242.226 141.253 242.591C141.027 242.829 140.822 243.054 140.623 243.273C140.351 243.929 140.013 244.519 139.53 245.096C139.337 245.321 139.119 245.493 138.874 245.613C139.298 246.096 139.894 246.441 140.689 246.507C140.736 246.507 140.782 246.521 140.829 246.527C140.802 247.873 141.65 249.251 143.387 249.278C143.738 249.278 144.109 249.284 144.487 249.297C144.871 249.901 145.223 250.523 145.554 251.113C146.382 252.591 146.005 251.948 146.13 253.181C146.203 253.91 145.899 254.228 146.13 254.984C147.178 258.41 152.155 257.88 154.302 259.961C155.859 261.472 157.994 260.597 158.736 258.794C158.769 258.708 158.802 258.616 158.835 258.529C159.213 258.065 159.518 257.522 159.736 256.972C160.333 255.468 160.711 253.466 160.737 251.412C160.81 250.954 160.876 250.49 160.936 250.026C161.016 249.291 160.823 248.727 160.485 248.317H160.472Z" fill="#EA8C26"></path><path d="M55.8328 220.528C56.7209 218.997 57.8144 217.884 59.067 217.088C58.729 217.029 58.391 216.969 58.053 216.916C57.5095 217.857 56.4823 218.56 55.1436 218.368C51.7371 217.871 48.3836 216.731 44.9507 216.472C42.2268 216.267 39.7018 216.293 37.1304 215.379C33.7504 215.452 30.8476 215.597 29.721 215.823C26.4073 216.485 19.1172 217.811 14.7829 226.241C10.4486 234.671 12.4898 242.995 17.9507 245.546C23.4051 248.105 21.112 249.616 29.6812 243.088C38.2504 236.56 48.2776 227.089 51.3394 225.2C52.2408 224.644 53.321 223.954 54.7194 223.331C54.9447 222.357 55.3291 221.396 55.8328 220.521V220.528Z" fill="#52A020"></path><path d="M34.4727 193.343C33.9425 187.583 33.7238 182.136 33.4852 181.201C33.0279 179.379 25.7378 182.03 25.7378 182.692C25.7378 182.957 25.8372 184.84 25.9366 186.994C29.5883 187.464 32.7827 189.963 34.4661 193.349L34.4727 193.343Z" fill="#52A020"></path><path d="M78.525 211.283C78.1008 210.521 53.0759 213.231 51.3395 213.536C49.6031 213.841 39.7482 211.972 37.0575 206.942C36.5671 206.021 36.1496 204.636 35.7983 202.985C35.5862 204.927 35.1488 206.856 34.5524 208.725C34.4331 210.216 34.2475 211.25 34.0288 211.932C40.3116 212.151 69.1671 216.366 69.1671 216.366C69.1671 216.366 70.8174 214.093 74.131 213.304C77.4447 212.516 78.9558 212.045 78.5316 211.283H78.525Z" fill="#52A020"></path><path d="M84.0654 217.811C85.3909 215.823 96.0544 209.394 107.288 218.573C118.521 227.752 117.964 231.874 124.207 231.138C130.45 230.403 146.091 224.14 146.091 224.14C146.091 224.14 140.889 218.798 148.928 212.005C156.96 205.219 162.56 209.01 162.56 209.01C162.56 209.01 165.622 171.823 165.271 170.955C164.919 170.087 156.052 171.419 152.864 168.106C149.676 164.792 145.826 168.106 146.098 168.106C146.369 168.106 144.07 168.106 144.07 168.106C144.07 168.106 141.067 187.908 142.062 187.285C143.056 186.662 133.777 210.521 133.115 210.521C132.452 210.521 129.721 211.283 129.721 211.283C129.721 211.283 102.496 210.256 97.5919 211.051C92.6876 211.846 84.2775 213.304 84.2775 213.304L84.0654 217.811Z" fill="#52A020"></path><path d="M87.2063 224.14C87.3786 224.438 99.6459 231.211 103.45 231.138C107.254 231.066 108.639 231.138 108.639 231.138C108.639 231.138 101.137 225.837 96.9088 224.14C92.6805 222.443 91.3683 222.642 90.3675 222.543C89.3668 222.443 87.1201 222.543 87.1201 222.543V225.2L87.2063 224.14Z" fill="#52A020"></path><path d="M45.4741 204.868C48.2775 209.195 50.9285 175.396 50.2657 171.419C49.603 167.443 49.9012 159.868 49.9012 159.868C49.9012 159.868 38.522 157.084 36.1097 156.296C33.6973 155.507 42.6774 200.533 45.4808 204.861L45.4741 204.868Z" fill="#52A020"></path><path d="M17.9709 191.772C18.3752 191.368 18.8126 191.01 19.2898 190.718C18.574 176.555 17.0431 153.505 16.1418 140.343C15.7574 140.403 15.3597 140.416 14.9488 140.383C12.1388 140.178 9.96504 137.918 8.67933 135.572C7.78464 133.935 7.16828 131.92 7.03574 129.965C5.51144 130.23 4.02691 130.747 2.83398 131.648L2.74121 202.972C2.74121 202.972 7.34723 202.853 11.7412 202.806C12.0063 200.261 13.2191 197.558 14.2331 195.821C15.1344 194.277 16.3605 192.66 17.9775 191.772H17.9709Z" fill="#52A020"></path><path d="M52.9165 212.502C53.5793 211.846 53.0955 200.679 81.8384 193.336C110.581 185.993 122.086 202.621 122.292 205.245L122.504 207.87C122.504 207.87 126.242 207.929 126.692 207.896C127.143 207.863 135.209 203.82 135.156 188.942C135.096 174.064 135.898 162.797 135.5 162.134C135.103 161.471 123.24 147.852 123.538 149.357C123.836 150.861 121.185 157.495 120.522 156.17C119.86 154.844 100.375 146.275 99.1822 146.58C97.9893 146.885 89.5527 143.087 89.5527 143.087C89.5527 143.087 89.5129 141.45 88.1211 141.848C86.7294 142.245 62.0623 145.751 62.0623 145.751C62.0623 145.751 57.3105 147.223 57.4364 147.388C57.5623 147.554 54.1757 205.199 49.9077 212.496H52.9232L52.9165 212.502Z" fill="#52A020"></path><path d="M67.3574 99.5122C67.3574 99.5122 60.8692 91.8907 56.3095 87.8944C51.7499 83.8981 42.5379 81.8105 42.5379 81.8105C42.5379 81.8105 40.3243 81.287 40.5099 78.6227C40.6955 75.9585 18.454 73.9968 16.3664 74.1294L14.7891 75.6338L16.8436 85.7737C26.2279 87.0594 29.6145 100.208 31.1123 108.022C32.3516 114.497 33.0872 121.86 30.0983 127.977C29.1241 129.978 27.3744 132.689 25.2404 134.783C26.1285 139.933 26.99 145.089 26.9171 145.254C26.7647 145.586 30.3833 145.586 31.9341 145.778C33.4849 145.97 34.3597 146.911 39.0452 149.383C43.7308 151.849 49.6026 152.882 49.6026 152.882V142.941L65.5083 114.444L63.2948 108.877C61.0813 103.31 67.3574 99.5321 67.3574 99.5321V99.5122Z" fill="#52A020"></path><path d="M114.962 126.452L124.685 140.668C124.685 140.668 128.582 133 135.156 137.301C141.724 141.596 140.007 138.866 140.007 138.866C140.007 138.866 157.636 107.803 156.973 107.803C156.311 107.803 151.208 99.1477 153.096 94.1971C154.985 89.2464 155.118 91.0623 155.118 91.0623L138.755 75.6404L135.62 76.0049C135.62 76.0049 124.506 87.2648 125.169 87.2648C125.831 87.2648 121.457 119.142 120.662 120.103C119.867 121.064 117.653 128.268 117.653 128.268L114.976 126.466L114.962 126.452Z" fill="#52A020"></path><path d="M47.7273 77.3901C48.9401 75.9851 68.4114 58.8931 69.6109 59.4895C70.8105 60.086 87.6175 74.5403 87.6175 74.5403C87.6175 74.5403 90.3877 75.2826 89.546 75.6338C88.7044 75.9851 90.1756 65.3017 92.7537 63.6847C95.3317 62.0676 116.811 64.7981 117.666 65.421C118.521 66.044 112.927 120.09 112.927 120.09C112.927 120.09 88.426 116.425 86.577 116.75C84.728 117.075 73.4614 115.749 73.4614 115.749L72.9975 113.489L77.8222 101.858C77.8222 101.858 78.2066 101.328 77.8222 100.586C77.4378 99.8436 67.351 92.0631 67.351 92.0631C67.351 92.0631 68.5373 89.6573 67.351 89.7833C66.1647 89.9092 47.7207 77.3901 47.7207 77.3901H47.7273Z" fill="#52A020"></path><path d="M70.1141 123.126C70.8099 126.353 68.7554 133.975 70.1141 133.478C71.4727 132.98 89.5455 132.444 89.5455 132.444C89.5455 132.444 101.992 142.597 102.303 141.43C102.615 140.264 97.8827 129.965 97.8827 129.965L102.323 124.352L81.8379 120.084L69.6435 122.151L70.1207 123.126H70.1141Z" fill="#52A020"></path><path d="M146.363 148.886C146.475 148.774 146.88 148.489 147.456 148.111C150.2 146.308 156.98 142.226 156.98 142.226C156.98 142.226 160.638 138.017 160.79 138.15C160.943 138.282 151.658 138.945 151.989 139.276C152.321 139.608 146.356 148.886 146.356 148.886H146.363Z" fill="#52A020"></path><path d="M129.463 67.0381C130.457 66.044 139.61 59.5293 140.001 59.4697C140.392 59.41 148.239 65.3813 150.286 67.0381C152.334 68.695 152.016 69.8481 151.512 70.597C151.009 71.3459 146.363 74.1228 146.363 74.1228C146.363 74.1228 139.325 69.3179 138.867 70.0006C138.41 70.6832 126.905 84.6073 126.693 83.6132C126.481 82.6191 129.463 67.0381 129.463 67.0381Z" fill="#52A020"></path><path opacity="0.25" d="M24.7169 145.241C24.4187 148.223 25.6712 209.672 25.6712 209.672C25.6712 209.672 35.208 209.493 36.1094 208.347C37.0107 207.2 32.3914 172.705 31.722 171.068C31.0527 169.431 30.5225 164.089 35.7581 171.068C40.9937 178.047 42.6174 204.616 44.1219 205.252C45.6263 205.888 50.1992 160.252 49.9009 159.874C49.6027 159.497 41.1727 157.011 36.1094 153.943C31.046 150.874 30.5026 141.987 30.1116 138.15C29.7206 134.313 26.5262 129.302 30.1116 130.813C33.697 132.324 39.3303 135.307 39.1646 133.484C38.9989 131.662 43.426 90.2206 42.5379 91.0557C41.6498 91.8907 34.479 112.86 30.1116 114.967C25.7441 117.075 21.105 116.525 21.105 116.525C21.105 116.525 26.4069 123.901 25.7441 126.452C25.0814 129.004 24.7169 145.241 24.7169 145.241Z" fill="black"></path><path opacity="0.25" d="M22.2321 217.373C18.4545 221.787 11.2505 225.79 12.5296 233.73C13.8087 241.669 27.3617 238.256 44.1157 227.367C60.8697 216.479 77.6568 220.985 76.55 221.052C75.4432 221.118 45.1363 215.856 36.1032 216.167C27.0701 216.479 22.2321 217.367 22.2321 217.367V217.373Z" fill="black"></path><path opacity="0.25" d="M101.422 212.502C105.936 212.502 113.345 227.235 113.948 231.138C114.551 235.042 117.335 238.462 126.547 238.077C135.759 237.693 146.363 229.945 148.019 225.207C149.676 220.468 155.495 162.174 153.58 162.823C151.664 163.473 144.063 162.148 144.063 162.148C144.063 162.148 140.02 189.658 137.058 198.936L134.102 208.208L124.684 210.269L101.422 212.509V212.502Z" fill="black"></path><path opacity="0.25" d="M123.034 146.308C120.264 143.637 117.493 140.966 114.73 138.296C113.583 137.189 112.39 136.102 111.224 134.989L106.439 129.587C106.26 129.388 106.068 129.243 105.862 129.123C105.843 128.653 105.684 128.149 105.491 127.818C105.167 127.268 104.537 126.744 103.907 126.598C103.231 126.446 102.469 126.479 101.866 126.863C101.243 127.261 100.932 127.771 100.647 128.447C100.594 128.567 100.561 128.699 100.521 128.825C100.103 129.322 99.9177 129.998 100.123 130.807C100.097 131.237 100.09 131.675 100.143 132.092C100.216 132.695 100.348 133.219 100.693 133.683C100.686 134.134 100.826 134.617 101.164 135.108C102.449 136.977 103.748 138.832 105.127 140.628C105.438 141.072 105.763 141.503 106.094 141.934C105.869 142.908 106.167 143.989 107.307 144.671C107.731 144.93 108.156 145.181 108.58 145.44C106.837 146.288 106.061 148.906 108.268 150.026C110.926 151.365 113.577 152.71 116.234 154.049C116.943 154.407 117.633 154.427 118.236 154.241C118.401 154.301 118.567 154.374 118.733 154.433C120.131 154.95 121.337 154.022 121.841 152.823C121.98 152.624 122.1 152.405 122.199 152.173C122.385 151.736 122.563 151.292 122.749 150.854C122.875 150.55 122.941 150.258 122.954 149.986C123.975 149.098 124.353 147.561 123.047 146.301L123.034 146.308Z" fill="black"></path><path opacity="0.25" d="M84.2772 63.6847C82.7397 66.7067 66.9997 74.6331 65.5947 78.6228C64.1897 82.6124 56.0711 84.8657 58.1389 84.0705C60.2066 83.2752 77.5505 97.8554 77.8288 99.5122C78.1072 101.169 78.8693 101.858 78.8693 101.858L79.7706 104.814L71.0424 119.673C71.0424 119.673 62.3605 130.939 65.5947 129.972C68.8288 129.004 85.7816 124.816 86.5836 125.584C87.3855 126.353 97.8898 129.972 97.8898 129.972L101.873 126.857C101.873 126.857 87.1137 122.542 86.5836 122.456C86.0534 122.37 82.7463 100.579 82.7463 100.579C82.7463 100.579 84.5291 86.0984 84.9599 83.3613C85.3906 80.6242 90.0497 71.9689 90.3744 70.0005C90.6992 68.0322 84.2839 63.678 84.2839 63.678L84.2772 63.6847Z" fill="black"></path><path opacity="0.09" d="M168.988 219.951L167.57 187.689L167.013 131.516L165.237 71.1603C165.237 71.1603 166.318 54.6979 156.774 47.7789C147.231 40.86 136.156 38.8983 136.156 38.8983C136.156 38.8983 135.295 36.2208 135.958 35.5581C136.62 34.8953 136.289 28.7451 136.289 28.7451L139.788 25.9086L137.29 21.1767L140.637 19.2349L141.564 9.87038C141.564 9.87038 109.408 -1.09792 69.9953 1.99044C30.5824 5.07879 30.4034 8.67082 30.4034 8.67082L31.2517 18.8107L34.1744 19.321L32.7827 23.9801L33.7238 27.1281C33.7238 27.1281 35.4005 28.4668 35.6391 31.6811C35.8776 34.8953 34.8504 38.2223 34.8504 38.2223C34.8504 38.2223 13.9808 46.9903 9.3549 49.5617C8.56624 49.9991 7.8505 52.6766 7.19439 56.8187C7.18114 56.8386 7.16788 56.8518 7.15463 56.8717C6.58467 57.8128 6.19366 58.8202 5.90868 59.854C5.82252 59.9601 5.75624 60.0992 5.71648 60.2649C5.24594 62.5381 4.97421 64.8444 4.76214 67.1508C4.26508 69.0329 3.94034 70.9482 3.78791 72.8901C3.76803 73.1684 3.8807 73.3937 4.06627 73.5594C3.662 75.9652 3.62224 78.3974 3.69514 80.8296C3.56259 82.5528 3.43004 84.2693 3.29749 85.9924C3.25773 86.5093 3.56259 86.8142 3.94035 86.907C3.98674 88.0668 4.03313 89.2199 4.08615 90.3797C4.09278 90.5388 4.13255 90.6779 4.19219 90.7972C2.97938 111.534 2.36303 132.304 2.36303 132.304L0.845358 197.796C0.845358 197.796 -1.0567 242.04 0.845358 248.476C2.74741 254.904 1.87261 262.314 15.2334 273.52C28.5942 284.727 61.4725 281.685 62.2678 282.547C63.0565 283.409 137.946 281.096 137.946 281.096C137.946 281.096 160.353 275.548 164.72 259.265C169.094 242.982 168.2 234.379 168.2 234.379L168.982 219.938L168.988 219.951Z" fill="#8FBFC1"></path><path opacity="0.37" d="M151.717 68.3039C151.817 61.3783 147.774 54.6184 142.598 54.8106C141.949 54.8371 141.312 54.9432 140.683 55.1354C139.258 50.7414 136.448 47.4012 132.604 47.5404C127.879 47.7127 122.491 53.1471 122.809 60.5499C124.89 109.301 127.66 158.098 128.389 206.968C128.595 220.714 128.568 234.465 128.23 248.217C128.058 255.149 132.233 261.903 137.349 261.711C142.479 261.518 146.966 256.13 147.145 248.701C147.164 247.806 147.178 246.905 147.198 246.01C151.008 244.314 153.838 239.668 154.07 233.697C156.171 178.451 150.949 123.517 151.717 68.3039Z" fill="white"></path><path opacity="0.3" d="M36.1096 15.9875C38.3364 15.676 70.1544 14.3704 82.7464 13.0383C95.3384 11.7062 135.613 18.3468 135.613 18.3468C135.613 18.3468 135.904 21.0442 132.849 21.011C129.794 20.9779 70.8701 20.2886 64.879 20.3019C58.8878 20.3151 54.0764 25.5441 59.4644 25.2525C64.8525 24.9609 104.146 24.444 113.656 24.7025C123.167 24.9609 129.721 25.3851 129.721 25.3851L131.252 39.2098C131.252 39.2098 136.753 46.9439 132.611 47.5537C128.469 48.1634 66.1315 48.3423 49.9144 61.8356C33.6972 75.329 46.5145 231.583 47.7273 252.87C48.9401 274.157 117.759 278.074 117.759 278.074C117.759 278.074 26.4071 293.376 11.8269 262.89C-2.75336 232.404 4.63616 95.9136 4.63616 95.9136C4.63616 95.9136 4.13911 57.044 11.9594 50.2841C19.7797 43.5242 37.0175 40.237 37.0175 40.237V26.8431L35.5065 21.9455L36.1029 16.0007L36.1096 15.9875Z" fill="black"></path><path d="M141.637 12.3291C140.61 8.2268 136.746 6.82843 132.969 6.18557C131.232 5.89397 129.496 5.7084 127.753 5.58911C126.176 4.89324 124.572 4.25701 122.941 3.70031C117.679 1.91754 112.152 1.03611 106.612 0.824029C105.518 0.784265 104.65 1.08912 103.994 1.59943C88.5454 -0.84607 72.8783 -0.488188 57.4962 2.6797C56.9527 2.79236 56.4888 2.97793 56.0978 3.22315C51.8629 3.63404 47.6413 4.28352 43.4528 5.15834C41.6965 5.271 39.8409 5.36378 38.1045 5.76142C37.5412 5.67526 36.9712 5.70178 36.4211 5.88072C36.1826 5.96025 35.9506 6.05302 35.7253 6.16569C35.553 6.1922 35.374 6.22534 35.2083 6.28499C34.2275 6.6031 33.3593 7.19294 32.7827 8.05449C31.8483 8.70398 31.3313 9.79086 31.2253 10.9507C31.2187 10.9772 31.2054 11.0103 31.1922 11.0368C31.159 11.1495 31.1325 11.2621 31.106 11.3814C30.1848 12.7334 29.9992 14.6355 30.9005 16.0338C32.1929 18.0353 34.6782 18.7378 36.7923 17.578C37.1966 17.3593 37.6008 17.1406 38.0117 16.9418C38.078 16.9087 38.2172 16.8358 38.3497 16.7629C38.8269 16.5243 39.3505 16.3586 39.874 16.2062C48.536 16.173 57.0588 14.3107 65.6677 13.2769C70.9166 12.6473 76.1986 12.296 81.4807 12.2032C84.2973 12.581 87.1073 13.0582 89.904 13.6613C91.6073 14.0324 92.9924 13.4492 93.9401 12.4551C94.636 12.4948 95.3252 12.5346 96.0211 12.581C96.5115 13.0714 97.0881 13.4028 97.7707 13.7076C100.408 13.7474 103.053 14.0655 105.637 14.5825C105.922 14.3107 106.168 13.9992 106.353 13.648C106.373 13.6082 106.393 13.5618 106.413 13.5221C108.023 13.7408 109.64 13.9131 111.271 13.9926C112.994 14.0788 114.717 14.0854 116.44 14.0722C121.046 14.8807 125.639 15.7688 130.218 16.7364C130.749 16.849 131.252 16.8689 131.716 16.8159C133.532 17.4587 135.421 17.8696 137.482 17.7835C140.312 17.6642 142.34 15.1325 141.637 12.3291Z" fill="#D3AA00"></path><path d="M98.0489 2.77247C77.0468 0.499284 55.8524 1.70546 35.2347 6.27172C34.0285 6.53682 33.6574 7.57069 33.8694 8.50515C33.7303 8.49852 33.5977 8.50515 33.4652 8.5184C32.5373 8.45213 31.5498 8.97569 31.3311 9.94992C31.0992 10.9772 30.8739 12.011 30.6419 13.0383C30.4166 14.0523 30.9467 15.2386 32.0336 15.4838C33.1603 15.7422 34.0947 15.1391 34.4791 14.092C34.8635 13.0582 35.2413 12.0309 35.6257 10.997C35.7251 10.7253 35.7317 10.4271 35.6787 10.1355C35.8709 10.1487 36.0763 10.1421 36.2884 10.0957C56.5748 5.60236 77.398 4.50221 98.0489 6.73564C100.587 7.01399 100.567 3.03094 98.0489 2.75921V2.77247Z" fill="#FFD400"></path><path d="M133.32 6.74227C128.084 5.62224 122.796 4.91311 117.447 4.61488C114.889 4.46907 114.896 8.45212 117.447 8.5913C122.444 8.86965 127.369 9.53239 132.266 10.5729C134.765 11.1097 135.825 7.27245 133.327 6.73563L133.32 6.74227Z" fill="#FFD400"></path><path d="M119.7 56.7061C129.131 52.7893 128.568 206.127 128.521 224.564C128.475 243.001 128.541 255.733 128.541 255.733L135.619 250.139C135.619 250.139 132.743 68.1515 130.94 59.4763C129.138 50.8011 117.765 52.5971 117.765 52.5971L119.859 57.4351L119.707 56.7127L119.7 56.7061Z" fill="#FFD400"></path><path d="M32.8758 7.38512C36.8654 6.84167 40.7292 5.64211 44.7056 4.986C48.8808 4.29013 53.1621 3.99853 57.3771 3.6274C65.827 2.88513 74.3035 2.42784 82.7865 2.33505C99.4808 2.16274 116.387 3.2165 132.624 7.2592C134.023 7.61045 135.448 7.82914 136.839 8.20691C137.953 8.50514 139.596 8.87627 140.186 9.98967C140.829 11.1959 140.716 12.8527 140.643 14.1715C140.571 15.5633 140.372 16.9418 140.133 18.3136L141.094 17.5846C140.365 17.6509 139.755 17.8895 139.119 18.2474C138.635 18.5191 138.132 18.9631 137.555 18.7842C136.329 18.3998 135.805 20.3217 137.025 20.6995C137.787 20.9381 138.503 20.8055 139.205 20.4742C139.808 20.1892 140.398 19.6391 141.087 19.5729C141.492 19.5397 141.969 19.2945 142.048 18.8438C142.519 16.1531 142.983 13.257 142.439 10.5397C142.194 9.31368 141.618 8.30632 140.577 7.59719C139.391 6.78865 137.9 6.40427 136.515 6.07952C128.88 4.29676 121.258 2.71944 113.458 1.838C96.0213 -0.136956 78.3992 -0.0176565 60.9162 1.34758C56.0318 1.73197 51.154 2.18925 46.2895 2.77246C41.4251 3.35567 37.0377 4.82695 32.3389 5.46981C31.8021 5.54271 31.5238 6.22532 31.6431 6.69587C31.7955 7.27245 32.3389 7.46464 32.8691 7.39174L32.8758 7.38512Z" fill="black"></path><path d="M33.2862 6.10605C32.0403 6.18558 30.8606 6.68263 30.3105 7.87556C29.8267 8.91605 29.84 10.1024 29.9195 11.229C30.0056 12.4286 30.0719 13.6082 30.052 14.8078C30.0322 15.8682 30.0189 16.9617 30.4497 17.9492C31.0395 19.3144 32.3584 20.0103 33.6971 20.4742C34.9099 20.8983 35.4268 18.9764 34.2273 18.5589C33.6441 18.3534 33.0542 18.095 32.6102 17.6708C32.3186 17.3925 32.2258 17.1472 32.1198 16.6966C31.8945 15.7621 32.0668 14.3969 32.0469 13.3166C32.0204 12.1436 31.8149 10.9705 31.8746 9.79087C31.9276 8.81001 32.1993 8.17379 33.2928 8.10089C34.5653 8.02137 34.5719 6.03315 33.2928 6.11268L33.2862 6.10605Z" fill="black"></path><path d="M32.8887 18.5655C33.1472 18.433 32.6303 18.6384 32.9484 18.539C33.0942 18.4926 33.2334 18.4396 33.3792 18.3998C33.7967 18.2739 34.2142 18.1679 34.6384 18.0685C36.0169 17.7437 37.4086 17.4786 38.807 17.24C43.5853 16.4116 48.3636 15.8682 53.2083 15.4308C60.452 14.7813 67.7288 14.4433 74.9991 14.3439C84.4033 14.2113 93.8142 14.4831 103.192 15.1127C114.372 15.8615 125.52 17.1208 136.587 18.8704C138.098 19.109 139.609 19.3608 141.12 19.6126C142.373 19.8247 142.91 17.9094 141.651 17.6973C130.258 15.7621 118.786 14.324 107.268 13.4227C97.5653 12.6605 87.8296 12.2828 78.094 12.3292C70.4924 12.3623 62.8908 12.6539 55.3158 13.2636C50.0603 13.6878 44.8114 14.2577 39.6089 15.0994C37.223 15.4838 34.645 15.782 32.3718 16.637C32.2061 16.6966 32.0404 16.7629 31.888 16.8424C30.7481 17.4322 31.7555 19.1487 32.8887 18.5589V18.5655Z" fill="black"></path><path d="M33.6841 17.7437C33.9824 19.0758 33.936 20.3947 33.5383 21.7002C33.26 22.6148 32.531 23.2776 32.3189 24.2054C32.1068 25.1332 32.3785 26.2135 33.0744 26.863C33.6377 27.3865 34.0685 27.5655 34.3535 28.3276C35.0096 30.0772 35.0361 32.0721 35.0295 33.9211C35.0295 35.8828 34.8771 37.8445 34.718 39.7996L35.9772 38.8386L35.8248 38.779L36.5538 39.74C36.5538 39.74 36.5538 39.2959 36.4941 39.1037C36.0899 37.8976 34.1679 38.4145 34.5788 39.6339C34.612 39.3357 34.612 39.2959 34.5788 39.5146C34.5589 39.5875 34.5589 39.6671 34.5656 39.74C34.5855 40.2304 34.8704 40.522 35.2946 40.7009L35.447 40.7606C36.0899 41.0323 36.6598 40.3696 36.7062 39.7996C36.8586 37.8445 37.0045 35.8828 37.0177 33.9211C37.031 31.9594 36.9581 29.8585 36.3285 27.9764C36.07 27.2076 35.7386 26.4521 35.109 25.9153C34.8704 25.7098 34.4794 25.5574 34.3204 25.2724C34.1083 24.8681 34.2872 24.4837 34.5126 24.1524C35.8844 22.1178 36.123 19.5795 35.5928 17.2201C35.3145 15.9742 33.3992 16.4978 33.6775 17.7503L33.6841 17.7437Z" fill="black"></path><path d="M136.335 18.1944C136.7 19.4536 136.495 20.6597 137.356 21.7466C137.979 22.5287 138.973 23.1583 139.205 24.1921C139.351 24.835 138.271 25.3718 137.82 25.7363C137.071 26.346 136.342 27.0286 135.971 27.9432C135.355 29.4675 135.812 31.3762 135.898 32.9734C135.951 33.9079 135.991 34.8423 135.991 35.7834C135.991 36.2009 135.991 36.6317 135.938 37.0492C135.925 37.1884 135.878 37.3408 135.872 37.4866C135.858 37.6987 135.732 37.7252 135.905 37.533C135.043 38.4741 136.448 39.8858 137.31 38.938C137.853 38.3416 137.906 37.48 137.953 36.7112C138.012 35.737 137.972 34.7628 137.933 33.7886C137.893 32.8143 137.84 31.9064 137.767 30.9653C137.707 30.2297 137.522 29.3283 137.833 28.6258C138.615 26.863 141.498 26.4123 141.213 24.1192C141.067 22.9462 140.312 21.9587 139.503 21.1435C139.079 20.7128 138.688 20.3615 138.562 19.7518C138.416 19.0559 138.456 18.3534 138.251 17.6642C137.893 16.4381 135.971 16.9617 136.335 18.1944Z" fill="black"></path><path d="M34.3864 27.9035C35.9638 27.2805 37.7333 27.0154 39.3901 26.7238C43.1942 26.0478 46.9652 25.617 50.8356 25.2591C57.0852 24.6826 63.3613 24.3711 69.6374 24.2054C78.5446 23.9734 87.4584 24.0397 96.3656 24.3048C108.162 24.6561 119.952 25.3519 131.716 26.2798C133.399 26.4123 135.076 26.5515 136.753 26.6907C137.707 26.7702 137.701 25.279 136.753 25.1995C124.572 24.1656 112.371 23.3703 100.15 22.9329C90.8782 22.6016 81.5998 22.469 72.3282 22.648C65.7339 22.7739 59.1463 23.0589 52.572 23.6089C48.3967 23.9602 44.2281 24.4108 40.0926 25.0935C38.1574 25.4116 36.1427 25.7164 34.2804 26.3593C34.181 26.3924 34.0882 26.4256 33.9888 26.4653C33.1074 26.8166 33.4918 28.2613 34.3864 27.9035Z" fill="black"></path><path d="M34.3864 24.5898C35.9638 23.9668 37.7333 23.7017 39.3901 23.4101C43.1942 22.7341 46.9652 22.3033 50.8356 21.9455C57.0852 21.3689 63.3613 21.0574 69.6374 20.8917C78.5446 20.6597 87.4584 20.726 96.3656 20.9911C108.162 21.3424 119.952 22.0382 131.716 22.9661C133.399 23.0986 135.076 23.2378 136.753 23.377C137.707 23.4565 137.701 21.9653 136.753 21.8858C124.572 20.8519 112.371 20.0567 100.15 19.6192C90.8782 19.2879 81.5998 19.1553 72.3282 19.3343C65.7339 19.4602 59.1463 19.7452 52.572 20.2952C48.3967 20.6465 44.2281 21.0972 40.0926 21.7798C38.1574 22.0979 36.1427 22.4027 34.2804 23.0456C34.181 23.0787 34.0882 23.1119 33.9888 23.1516C33.1074 23.5029 33.4918 24.9477 34.3864 24.5898Z" fill="black"></path><path d="M35.0558 36.5986C31.6427 37.9307 28.1699 39.0838 24.7502 40.3894C22.4306 41.2775 20.1972 42.3578 17.8975 43.2591C14.6435 44.5315 11.7076 46.1884 9.45425 48.9321C5.37842 53.8828 3.85412 60.2715 3.48962 66.5344C3.01907 74.527 2.64131 82.5263 2.38947 90.5321C1.87254 106.869 1.58755 123.212 1.38873 139.555C1.18991 155.898 1.04411 172.248 0.938075 188.597C0.885056 196.742 0.858539 204.881 0.80552 213.026C0.765756 219.66 0.361492 226.281 0.334982 232.915C0.308473 239.549 0.626575 246.388 2.10448 252.949C2.80698 256.077 3.79447 259.139 5.11995 262.068C6.44542 264.998 8.31434 267.616 10.7731 269.882C13.2318 272.149 15.5846 274.203 18.1228 276.165C20.522 278.02 23.2392 279.624 26.2016 280.386C27.7922 280.797 29.4888 280.91 31.1125 281.082C38.7605 281.897 46.4549 282.361 54.1293 282.786C65.2037 283.389 76.2913 283.78 87.3855 283.932C98.4797 284.085 110.455 283.998 121.961 283.316C124.472 283.17 126.977 282.984 129.476 282.766C130.742 282.653 130.755 280.665 129.476 280.777C107.341 282.739 84.9268 282.202 62.7516 281.228C53.9968 280.844 45.2421 280.347 36.5138 279.611C33.9424 279.392 31.371 279.167 28.8128 278.836C25.8769 278.451 22.7222 277.073 20.1309 275.21C17.5396 273.348 15.2399 271.227 12.9071 269.153C10.3755 266.9 8.427 264.514 6.99548 261.432C4.24512 255.501 3.07871 248.933 2.60817 242.458C2.13099 235.857 2.34307 229.23 2.56177 222.622C2.80035 215.326 2.81362 208.035 2.86001 200.739C3.03232 168.801 3.2179 136.857 3.98667 104.933C4.17886 97.0004 4.39093 89.0675 4.7223 81.1411C4.88798 77.1647 5.1332 73.1949 5.34527 69.2185C5.53747 65.6066 5.67665 62.0146 6.75691 58.5352C8.20167 53.8828 10.6538 49.3695 14.9616 46.8246C16.1346 46.1287 17.3806 45.6184 18.6464 45.1214C21.0256 44.1869 23.3187 43.0801 25.7112 42.1722C28.9984 40.9329 32.3319 39.8195 35.6059 38.5404C36.7855 38.0765 36.2686 36.1545 35.0757 36.6251L35.0558 36.5986Z" fill="black"></path><path d="M134.367 38.5205C138.867 40.2834 143.499 41.7149 147.94 43.6302C149.835 44.4454 151.804 45.1877 153.659 46.089C159.577 48.952 162.812 55.2215 163.952 61.4844C164.389 63.8835 164.475 66.329 164.601 68.7612C164.727 71.1935 164.906 73.7781 165.032 76.2899C165.297 81.5189 165.469 86.7545 165.635 91.9835C165.96 102.468 166.185 112.959 166.364 123.45C166.715 144.611 166.894 165.773 167.033 186.934C167.1 197.041 167 207.161 167.252 217.261C167.471 225.982 168.021 234.73 167.285 243.439C166.921 247.753 166.225 252.054 164.952 256.197C163.68 260.339 162.049 264.196 159.067 267.238C157.563 268.775 155.893 270.141 154.269 271.539C152.645 272.937 151.121 274.316 149.391 275.509C145.388 278.266 140.895 279.141 136.15 279.744C133.737 280.048 131.325 280.353 128.959 280.93C127.713 281.228 128.243 283.15 129.489 282.845C134.526 281.626 139.841 281.725 144.779 280.062C148.828 278.696 152.062 276.085 155.243 273.322C158.424 270.558 161.831 267.947 163.832 264.163C165.847 260.345 167.206 256.203 168.08 251.982C169.896 243.187 169.764 234.134 169.485 225.207C169.187 215.379 169.134 205.563 169.081 195.728C168.955 173.991 168.783 152.259 168.465 130.522C168.153 109.042 167.815 87.5299 166.45 66.0838C165.98 58.7075 163.64 50.589 157.417 46.0028C155.76 44.7834 153.904 43.9749 151.996 43.226C148.536 41.874 145.163 40.3364 141.657 39.0772C139.397 38.2621 137.137 37.4668 134.897 36.592C133.704 36.128 133.187 38.05 134.367 38.5073V38.5205Z" fill="black"></path><path d="M17.7185 50.0588C22.9541 49.3563 28.1367 48.2694 33.4055 47.7922C37.7464 47.4012 42.1139 47.2686 46.4614 47.0499C51.2 46.818 55.9452 46.6921 60.6904 46.5794C76.6557 46.195 92.6277 46.0757 108.6 46.195C118.647 46.2745 128.694 46.4535 138.734 46.8114C140.013 46.8578 140.013 44.8695 138.734 44.8232C121.033 44.1803 103.304 44.0742 85.5894 44.2068C72.9576 44.2996 60.3126 44.4454 47.6875 44.9955C43.5652 45.1744 39.4298 45.3401 35.3142 45.6383C29.3893 46.0691 23.5904 47.2686 17.7119 48.0573C17.1751 48.1302 16.7244 48.4616 16.7178 49.0514C16.7178 49.5352 17.1817 50.1184 17.7119 50.0455L17.7185 50.0588Z" fill="black"></path><path d="M18.6728 67.5219C22.4305 64.8113 27.3679 65.1559 31.7221 64.3076L30.4629 63.3466C30.4231 64.692 30.8539 65.9379 31.3576 67.164C31.8215 68.2973 32.3782 69.4637 32.2921 70.7163C32.2059 71.9688 34.1941 71.9887 34.2803 70.7163C34.4526 68.0786 32.3782 65.9446 32.4511 63.3466C32.471 62.6574 31.8016 62.2664 31.1919 62.3857C26.6389 63.2671 21.6021 62.9623 17.6655 65.7988C16.6382 66.541 17.6257 68.2641 18.6662 67.5153L18.6728 67.5219Z" fill="black"></path><path d="M18.1691 69.4637C19.6205 69.477 20.9724 70.0005 22.3311 70.4777C23.7692 70.9814 25.2405 71.3525 26.7117 71.717C29.641 72.446 32.6101 73.1684 35.5858 73.6588C38.2301 74.0896 41.2654 73.4203 43.7772 74.4939C44.3405 74.7325 44.3869 74.8982 44.4267 75.4085C44.4532 75.7531 44.4333 76.1044 44.4333 76.449C44.4333 76.6876 44.4333 76.9261 44.4333 77.1647C44.4333 77.4033 44.3008 77.9335 44.546 77.5624H46.2625C46.2426 77.5292 46.1432 77.3105 46.0902 77.2244C45.4142 76.1441 43.6911 77.1382 44.3737 78.2251C44.44 78.3312 44.4797 78.4571 44.546 78.5631C44.9503 79.2325 45.8516 79.1795 46.2625 78.5631C46.6734 77.9468 46.4149 76.8334 46.4216 76.1242C46.4216 75.5278 46.4216 74.9048 46.236 74.3415C45.6992 72.7642 43.8501 72.34 42.3921 72.1213C41.113 71.9291 39.8273 71.9357 38.5416 71.9092C37.1366 71.8827 35.8045 71.6971 34.426 71.4188C31.7618 70.882 29.1042 70.2855 26.4732 69.6095C25.0615 69.2517 23.6764 68.8474 22.3045 68.3702C20.9327 67.893 19.6006 67.4954 18.1624 67.4822C16.8834 67.4689 16.8834 69.4571 18.1624 69.4704L18.1691 69.4637Z" fill="black"></path><path d="M19.1237 64.9041C18.3285 64.3209 17.4536 64.3474 16.5788 64.7119C15.7968 65.0433 15.0346 65.3614 14.246 65.6596C13.0862 66.097 12.5427 66.8194 12.5494 68.0786C12.5494 70.2391 12.947 72.4593 13.2055 74.5999C13.4905 76.946 13.8218 79.2789 14.2195 81.6051C15.8299 90.9762 18.3218 100.281 17.8579 109.871C17.7651 111.753 17.5067 113.655 17.7386 115.537C17.9706 117.419 18.8719 118.977 19.9654 120.574C21.0589 122.171 22.0199 123.696 22.8218 125.379C23.6237 127.062 24.0346 128.845 24.0147 130.793C23.9949 133.053 23.6966 135.3 23.7761 137.56C23.8424 139.475 24.2136 141.391 24.3991 143.299C24.5847 145.208 24.757 146.997 25.3004 148.754C25.5191 149.463 25.8439 150.106 26.162 150.768C26.3608 151.192 26.447 151.603 26.891 151.855C27.5206 152.213 28.4352 152.346 29.1377 152.392C29.8402 152.438 30.4963 152.339 31.159 152.505C31.6362 152.624 32.0869 152.849 32.5044 153.101C34.2938 154.175 35.6259 155.885 37.2894 157.131C40.9212 159.841 45.3549 161.226 49.8946 160.749C50.4248 160.696 50.8887 160.338 50.8887 159.755C50.849 151.08 50.0272 142.444 49.4241 133.796C48.821 125.193 48.7613 116.564 47.5949 108.009C47.3033 105.861 47.0846 103.74 47.1641 101.573C47.2304 99.8436 47.3099 97.8951 46.3225 96.3841C45.6266 95.3171 43.9035 96.3112 44.606 97.3848C45.4278 98.644 45.2223 100.374 45.1627 101.805C45.0898 103.661 45.2687 105.483 45.5139 107.326C46.064 111.501 46.4749 115.657 46.6936 119.865C46.9123 124.186 47.078 128.507 47.3696 132.828C47.6546 137.01 47.9992 141.185 48.2842 145.367C48.6155 150.152 48.874 154.95 48.8939 159.748L49.888 158.754C46.0574 159.159 42.3924 158.184 39.1914 156.05C36.2886 154.109 34.095 150.503 30.2776 150.41C29.8004 150.397 29.31 150.45 28.8395 150.364C28.528 150.304 28.1966 150.106 27.8785 150.099C27.905 150.099 27.7062 150.053 27.7062 150.053C28.1237 149.628 28.1834 150.722 28.1767 150.477C28.1767 150.198 27.8917 149.821 27.7658 149.575C27.0434 148.177 26.7585 146.593 26.5596 145.042C26.3542 143.399 26.2482 141.748 26.0162 140.105C25.718 137.997 25.7113 135.963 25.8439 133.842C25.9632 131.854 26.1554 129.799 25.7644 127.824C25.4197 126.114 24.6377 124.484 23.796 122.973C22.9544 121.462 22.0066 120.057 21.0324 118.652C19.9986 117.168 19.6009 115.63 19.6075 113.827C19.6142 111.912 19.8528 110.003 19.8726 108.088C19.8991 105.901 19.7865 103.714 19.5744 101.54C19.1436 97.0866 18.3351 92.6794 17.4801 88.2921C16.5125 83.3083 15.5847 78.3378 15.0081 73.2877C14.869 72.055 14.7364 70.8223 14.6171 69.5896C14.5641 69.0661 14.4448 68.019 14.4978 67.6942C14.5177 67.5484 14.5508 67.6346 14.4514 67.7075C14.4779 67.6876 14.6569 67.5948 14.6171 67.6081C14.922 67.5086 15.2268 67.396 15.5317 67.2899C16.2276 67.0514 17.4404 66.1169 18.0965 66.6007C19.1304 67.3562 20.1245 65.6331 19.0972 64.8842L19.1237 64.9041Z" fill="black"></path><path d="M28.9788 130.316C29.7542 131.118 30.8477 131.695 31.8153 132.218C32.7829 132.742 34.0752 133.478 35.2615 133.444C36.2357 133.418 36.8123 132.616 37.1967 131.814C37.707 130.747 38.0317 129.594 38.33 128.454C38.9331 126.154 39.2976 123.802 39.8874 121.502C40.9478 117.386 42.1076 113.35 42.7504 109.135C43.506 104.185 43.7313 99.1808 43.3071 94.1838C43.2011 92.918 41.2129 92.9047 41.3189 94.1838C42.0148 102.481 40.8484 110.686 38.6216 118.679C38.0052 120.892 37.5148 123.106 37.0244 125.352C36.5671 127.427 36.1562 129.62 35.0958 131.483C35.1223 131.436 35.0693 131.522 35.0627 131.509C35.0295 131.489 35.3543 131.582 35.1687 131.45C35.2814 131.529 34.9832 131.416 34.9633 131.41C34.3933 131.284 33.8499 131.019 33.3329 130.76C32.3388 130.263 31.1393 129.68 30.3904 128.905C29.4957 127.983 28.0907 129.388 28.9854 130.31L28.9788 130.316Z" fill="black"></path><path d="M44.9838 77.9998C50.5309 79.9681 55.4551 83.2884 60.1671 86.7413C62.4867 88.4379 64.7533 90.2008 67.1524 91.7913C69.5515 93.3819 71.606 94.8996 73.4616 96.9806C75.1251 98.8429 77.2326 100.997 77.902 103.475C78.2333 104.708 80.1553 104.185 79.8173 102.945C79.1678 100.553 77.3784 98.485 75.8011 96.6426C73.9984 94.5417 72.0699 92.7391 69.7768 91.1684C67.3048 89.4718 64.8725 87.7619 62.4602 85.9791C59.955 84.1235 57.4234 82.2943 54.7724 80.6441C51.8365 78.8149 48.7614 77.2376 45.5007 76.0779C44.2946 75.6471 43.771 77.569 44.9706 77.9932L44.9838 77.9998Z" fill="black"></path><path d="M78.8033 102.501C77.3585 109.228 72.7128 114.629 69.4123 120.494C68.5309 122.052 67.782 123.676 66.9204 125.246C66.0589 126.817 65.0449 128.474 64.0176 130.031C61.9764 133.133 59.7165 136.082 57.3903 138.972C54.905 142.047 51.81 144.737 49.8881 148.23C49.444 149.025 50.405 150.225 51.2467 149.589C51.4389 149.443 51.6311 149.324 51.8432 149.204C52.9632 148.581 51.9625 146.865 50.8424 147.488C50.6303 147.607 50.4382 147.726 50.246 147.872L51.6046 149.231C53.3343 146.096 56.0847 143.71 58.3247 140.96C60.6841 138.064 62.9771 135.108 65.0846 132.019C67.1921 128.931 68.8755 125.717 70.6185 122.443C72.2555 119.374 74.2437 116.518 76.0596 113.556C78.0677 110.282 79.9167 106.822 80.7319 103.031C80.997 101.785 79.0816 101.249 78.8166 102.501H78.8033Z" fill="black"></path><path d="M42.3397 73.6854C46.3758 69.8216 49.6895 65.2553 53.8713 61.544C55.959 59.695 58.3978 58.343 60.6975 56.7789C62.9972 55.2149 64.8131 53.0543 67.1261 51.5234L65.9199 51.371C69.671 55.142 74.6216 57.1501 78.8698 60.2318C81.196 61.9151 82.9655 64.1552 85.126 66.0175C85.9809 66.7531 86.9419 67.3562 87.7571 68.1449C88.2475 68.6154 88.8108 69.3842 89.5465 69.4173C90.0899 69.4372 90.5273 68.9468 90.5406 68.4232C90.5406 68.178 90.4478 67.9527 90.3285 67.7472C89.679 66.6471 87.9625 67.6478 88.612 68.748C88.7313 68.9667 88.7114 68.854 88.5524 68.4166L89.5465 67.4225C89.9839 67.4424 90.1628 67.7075 89.8513 67.4026C89.7387 67.2899 89.626 67.1839 89.5133 67.0712C89.2814 66.8459 89.0627 66.6206 88.8175 66.4085C87.7902 65.5005 86.6503 64.7583 85.6695 63.7907C83.7674 61.9151 81.9515 59.9998 79.7711 58.4358C75.6886 55.4998 70.9236 53.5779 67.3315 49.966C67.0333 49.6678 66.4898 49.5684 66.1253 49.8136C63.8058 51.3445 61.9965 53.505 59.6968 55.0691C57.3971 56.6331 54.8522 58.0713 52.6917 59.9468C48.3971 63.6846 45.0437 68.3503 40.9347 72.2804C40.0069 73.1684 41.4185 74.5734 42.3397 73.6854Z" fill="black"></path><path d="M94.3707 56.6994C94.0924 57.9851 93.476 59.1118 92.8398 60.245C92.1638 61.4446 91.5939 62.664 91.0836 63.9431C89.9304 66.8127 88.711 69.6625 87.4452 72.4858C84.9599 78.0263 82.965 83.7523 80.831 89.4386C79.7044 92.4408 77.8686 95.1249 76.8679 98.1867C76.6028 98.9887 77.6168 99.7906 78.3259 99.3068C78.6573 99.0814 78.8362 98.8561 79.0416 98.5247C79.7309 97.4445 78.0078 96.4437 77.3251 97.524C77.186 97.7096 77.186 97.7361 77.3251 97.5969L78.7832 98.7169C79.658 96.0395 81.2287 93.6602 82.3156 91.0689C83.4952 88.2589 84.443 85.3429 85.5033 82.4931C87.6374 76.787 90.222 71.2796 92.5217 65.6397C93.1182 64.1751 93.708 62.7502 94.4901 61.3651C95.2721 59.9799 95.968 58.7141 96.2927 57.223C96.5644 55.977 94.6491 55.4402 94.3774 56.6928L94.3707 56.6994Z" fill="black"></path><path d="M94.9208 58.6014C97.015 57.9122 99.0629 56.8518 101.283 56.6331C103.888 56.3747 106.466 57.1832 109.024 57.5411C111.582 57.899 114.299 57.6537 116.904 58.0911C119.508 58.5286 121.841 59.7414 124.34 60.4903C125.208 60.7487 126.109 60.8945 126.984 61.153C127.481 61.2988 127.58 61.3253 127.68 61.7428C127.899 62.6442 127.72 63.7112 127.68 64.6257C127.614 66.0108 127.527 67.3893 127.415 68.7745C127.189 71.5513 126.871 74.315 126.421 77.0587C125.97 79.8024 125.42 82.4202 125.029 85.1242C124.234 90.552 123.743 96.0196 123.061 101.461C122.716 104.244 122.305 107.021 121.782 109.778C121.291 112.363 120.655 114.921 120.158 117.512C119.661 120.103 119.203 122.503 118.196 124.822C117.838 125.651 117.275 126.439 117.109 127.334C116.93 128.308 117.268 127.228 117.315 127.334C117.315 127.334 116.553 127.52 116.36 127.539C115.333 127.652 114.246 127.374 113.239 127.168C111.887 126.883 110.548 126.539 109.216 126.194C106.565 125.511 103.908 124.975 101.223 124.458C95.7293 123.397 90.2684 122.145 84.7677 121.117C82.3089 120.66 79.8568 120.011 77.3781 119.699C75.2176 119.434 73.5077 119.938 71.6985 121.104C70.943 121.588 70.2139 122.098 69.3391 122.35C68.1131 122.701 68.63 124.617 69.8693 124.265C71.7449 123.729 73.1167 122.138 74.9989 121.687C76.1256 121.416 77.3848 121.668 78.4982 121.88C79.7441 122.118 80.9702 122.43 82.2161 122.668C87.962 123.755 93.6815 124.994 99.4208 126.128C102.211 126.678 105.001 127.168 107.765 127.877C110.283 128.52 112.848 129.329 115.446 129.528C116.334 129.594 117.421 129.521 118.229 129.097C118.819 128.785 118.945 128.249 119.031 127.778C119.184 127.003 119.886 125.902 120.231 125.041C120.721 123.828 121.086 122.569 121.384 121.296C122 118.705 122.431 116.067 123.021 113.469C123.664 110.64 124.161 107.777 124.572 104.907C125.38 99.2604 125.871 93.5807 126.613 87.9276C127.362 82.2081 128.634 76.5815 129.198 70.8356C129.469 68.0852 129.768 65.262 129.721 62.4983C129.695 60.9475 129.171 59.7745 127.633 59.2775C126.779 58.9991 125.871 58.8732 125.002 58.6213C123.664 58.2303 122.378 57.7068 121.072 57.223C118.514 56.2753 115.983 55.9041 113.265 55.8246C111.867 55.7848 110.469 55.7716 109.077 55.5661C107.685 55.3607 106.32 55.0426 104.935 54.8437C102.416 54.4792 100.084 54.6383 97.6778 55.4866C96.571 55.8776 95.4907 56.3217 94.3773 56.6928C93.1712 57.0904 93.6881 59.0124 94.9075 58.6081L94.9208 58.6014Z" fill="black"></path><path d="M127.395 85.4158C128.734 83.9247 129.814 82.2413 130.914 80.5778C132.074 78.8216 133.326 77.1979 134.818 75.7067C135.52 75.0042 136.249 74.3282 136.971 73.6456C137.608 73.0425 138.198 72.2804 138.88 71.7303C139.192 71.4851 139.516 71.7104 139.941 71.9158C140.769 72.3135 141.578 72.7774 142.353 73.2678C148.636 77.1846 153.533 83.2354 157.417 89.4519C159.571 92.8915 161.228 96.4305 162.414 100.321C163.017 102.316 163.481 104.238 163.176 106.338C162.871 108.439 162.169 110.375 161.546 112.336C158.935 120.587 155.694 128.666 151.426 136.208C149.02 140.463 146.223 144.479 143.751 148.687C142.81 150.291 142.061 151.961 141.286 153.651C140.643 155.043 140.013 156.746 138.847 157.793C137.893 158.648 139.304 160.053 140.252 159.198C141.359 158.211 142.028 156.733 142.651 155.421C143.38 153.883 144.01 152.293 144.832 150.808C147.038 146.792 149.703 143.034 152.049 139.104C156.688 131.337 160.194 122.92 162.997 114.331C164.343 110.209 165.986 105.941 164.853 101.573C163.773 97.4047 162.142 93.4548 159.935 89.7567C155.999 83.1493 151.008 76.8201 144.639 72.3997C143.731 71.7701 142.797 71.1868 141.829 70.6633C141.041 70.2391 140.173 69.6957 139.258 69.6294C138.509 69.5764 137.946 69.8879 137.409 70.3916C136.634 71.1272 135.905 71.9225 135.122 72.6581C133.32 74.3614 131.603 76.0977 130.172 78.1323C128.74 80.1669 127.6 82.2214 125.983 84.0174C125.128 84.9651 126.533 86.3768 127.388 85.4224L127.395 85.4158Z" fill="black"></path><path d="M101.833 125.492C100.249 125.962 99.083 127.592 98.3673 129.004C97.4129 130.893 97.6648 132.662 98.4866 134.558C99.4277 136.718 100.369 138.813 101.124 141.046C101.926 143.425 102.688 145.818 103.696 148.124L104.816 146.666C103.543 146.474 102.622 145.559 101.648 144.79C100.548 143.922 99.3084 143.273 98.0757 142.603C96.7569 141.894 95.3783 141.271 94.0794 140.529C92.9461 139.886 91.8658 139.151 90.7259 138.521C89.586 137.891 88.4064 137.361 87.1273 137.189C85.6759 136.997 84.2576 137.414 82.846 137.686C81.2753 137.991 79.6317 137.885 78.0345 137.931C76.4373 137.978 74.8998 138.031 73.3357 138.137C70.0949 138.355 66.8475 138.905 63.5935 138.68L64.5544 139.939C64.8527 138.402 64.4882 136.944 64.2496 135.433C64.0508 134.173 62.1355 134.71 62.3343 135.963C62.5132 137.089 62.8645 138.269 62.6391 139.416C62.5066 140.078 62.9175 140.628 63.6001 140.675C66.3902 140.867 69.1804 140.483 71.9572 140.237C75.1251 139.959 78.293 139.972 81.4675 139.846C82.9719 139.787 84.3902 139.263 85.8813 139.144C87.1405 139.045 88.2871 139.482 89.3872 140.058C90.547 140.668 91.6339 141.397 92.7605 142.06C94.0264 142.802 95.3717 143.412 96.6707 144.101C98.0359 144.83 99.4343 145.526 100.64 146.514C101.734 147.402 102.854 148.369 104.292 148.588C105.193 148.72 105.777 147.958 105.412 147.13C103.735 143.273 102.834 139.117 101.032 135.307C100.342 133.855 99.2487 132.119 99.8783 130.475C100.276 129.441 101.21 127.758 102.364 127.42C103.59 127.056 103.066 125.134 101.833 125.505V125.492Z" fill="black"></path><path d="M105.962 148.813C107.4 147.574 108.573 146.076 109.978 144.804C111.284 143.617 112.715 142.584 113.789 141.165C114.114 140.734 113.855 140.052 113.431 139.807C112.921 139.508 112.397 139.734 112.073 140.165C111.145 141.391 109.654 142.398 108.48 143.485C107.115 144.737 105.962 146.195 104.557 147.408C104.153 147.759 104.199 148.455 104.557 148.813C104.961 149.218 105.558 149.165 105.962 148.813Z" fill="black"></path><path d="M103.881 128.958C109.064 133.458 114.193 138.117 118.534 143.458C120.728 146.162 122.67 149.058 124.89 151.749C126.878 154.155 129.038 156.395 131.066 158.754C132.849 160.829 134.731 163.46 137.263 164.679C137.767 164.924 138.304 164.798 138.622 164.321C140.186 161.962 140.491 158.986 140.961 156.269C141.18 155.016 139.264 154.48 139.046 155.739C138.602 158.277 138.363 161.114 136.905 163.321L138.264 162.963C136.083 161.916 134.44 159.649 132.902 157.86C130.927 155.553 128.82 153.366 126.865 151.04C124.644 148.396 122.689 145.566 120.562 142.849C118.461 140.165 116.128 137.659 113.703 135.267C110.992 132.589 108.149 130.051 105.273 127.553C104.312 126.718 102.9 128.116 103.868 128.958H103.881Z" fill="black"></path><path d="M89.8639 142.424C95.3513 144.79 99.9507 148.734 105.312 151.332C106.691 152.001 108.109 152.518 109.547 153.035C110.985 153.552 112.45 154.254 113.881 154.897C115.313 155.54 116.804 156.196 118.335 156.653C119.316 156.945 120.562 157.349 121.602 157.276C122.643 157.203 123.06 156.189 123.485 155.381C124.134 154.148 124.697 152.843 125.161 151.53C125.585 150.318 123.663 149.801 123.246 151C122.881 152.034 122.444 153.048 121.954 154.022C121.755 154.42 121.549 154.824 121.331 155.209C121.271 155.315 121.205 155.46 121.178 155.447C121.211 155.46 121.437 155.248 121.463 155.301C121.476 155.321 121.404 155.321 121.304 155.288C120.217 154.937 119.011 154.811 117.904 154.427C116.499 153.936 115.147 153.307 113.795 152.69C111.211 151.517 108.48 150.695 105.942 149.43C103.404 148.164 101.21 146.719 98.9169 145.241C96.3189 143.571 93.7011 141.927 90.858 140.701C89.6982 140.198 88.6842 141.914 89.8572 142.418L89.8639 142.424Z" fill="black"></path><path d="M50.5707 148.111C51.028 152.372 50.6767 156.66 50.1797 160.908C49.6826 165.196 49.1193 169.464 48.8343 173.779C48.2246 182.924 47.4558 192.057 46.6142 201.183C46.2563 205.04 46.4418 209.354 44.4006 212.801L45.5206 212.343C42.2401 211.574 39.6289 209.679 38.045 206.69C36.461 203.701 35.9971 200.447 35.7188 197.233C35.3476 192.978 35.2946 188.71 34.8572 184.455C34.2939 179.027 33.4588 173.633 32.6569 168.238C32.2261 165.382 31.8948 162.499 31.2453 159.682C30.6356 157.018 29.8138 154.407 28.7401 151.895C28.2365 150.722 26.52 151.736 27.0236 152.896C29.0516 157.608 29.827 162.611 30.5759 167.642C31.3977 173.182 32.2792 178.716 32.8557 184.29C33.313 188.664 33.3594 193.058 33.7504 197.432C34.0553 200.832 34.6252 204.278 36.1628 207.359C37.9456 210.938 41.1134 213.344 44.9971 214.252C45.4279 214.351 45.8918 214.186 46.1171 213.795C47.9926 210.633 48.1848 206.803 48.4433 203.231C48.7548 198.823 49.2386 194.429 49.6097 190.022C50.3653 180.976 50.8159 171.91 51.9359 162.903C52.5457 157.999 53.0891 153.042 52.5655 148.104C52.433 146.845 50.4448 146.832 50.5773 148.104L50.5707 148.111Z" fill="black"></path><path d="M3.09183 124.928C5.49757 124.504 7.91655 124.146 10.3687 124.12C12.1779 124.106 13.5167 124.212 15.1868 124.703C16.6117 125.12 18.0167 125.604 19.4415 126.022C20.2899 126.274 21.6021 126.83 22.4901 126.506C23.6831 126.068 23.1661 124.146 21.96 124.59C21.8075 124.643 22.2052 124.59 22.0063 124.59C21.9268 124.59 21.8407 124.59 21.7545 124.577C21.8407 124.597 21.337 124.484 21.2044 124.451C20.5483 124.292 19.9055 124.093 19.2626 123.894C17.8642 123.464 16.4791 122.986 15.0609 122.602C11.0381 121.522 6.57121 122.297 2.55502 123.006C1.29582 123.232 1.83263 125.147 3.0852 124.922L3.09183 124.928Z" fill="black"></path><path d="M3.50961 213.178C6.49192 213.198 9.47423 213.225 12.4499 213.139C15.1141 213.066 17.7651 212.721 20.4293 212.721C22.2452 212.721 24.6841 212.847 25.9565 211.27C27.1229 209.831 27.0566 207.505 27.0434 205.762C27.0301 203.588 26.8446 201.421 26.7717 199.248C26.6723 196.053 26.606 192.859 26.5662 189.664C26.4801 183.282 26.4602 176.907 26.3343 170.525C26.1885 163.347 25.9366 156.183 25.9366 149.005C25.9366 147.726 23.9484 147.726 23.9484 149.005C23.9484 155.142 24.1141 161.266 24.2732 167.396C24.4322 173.527 24.4654 179.597 24.5316 185.701C24.5913 191.348 24.6045 197.014 24.9359 202.654C25.0486 204.563 25.2076 206.551 24.9226 208.453C24.8299 209.089 24.7106 209.891 24.1273 210.262C23.3983 210.726 22.3512 210.706 21.5228 210.726C18.7526 210.786 16.0022 211.038 13.2319 211.13C9.99116 211.236 6.75039 211.21 3.50961 211.19C2.23052 211.183 2.23052 213.172 3.50961 213.178Z" fill="black"></path><path d="M43.4132 213.788C44.4471 214.855 46.1304 215.014 47.5288 215.06C49.3381 215.12 51.154 214.915 52.95 214.683C57.6885 214.073 62.4536 213.735 67.2187 213.331C70.1414 213.079 73.0309 212.721 75.9668 212.88C78.9028 213.039 81.5736 213.43 84.3902 213.49C90.2157 213.622 95.9881 212.118 101.761 211.488C104.716 211.164 107.685 211.084 110.655 211.058C113.624 211.031 116.341 210.859 119.177 210.905C121.861 210.945 124.519 211.316 127.203 211.402C128.515 211.442 129.827 211.415 131.126 211.236C132.041 211.111 133.009 210.951 133.784 210.421C135.209 209.454 135.394 207.479 135.964 205.988C136.448 204.735 137.051 203.535 137.588 202.303C138.125 201.07 138.562 199.784 138.98 198.485C139.841 195.821 140.756 193.177 141.512 190.48C142.294 187.696 142.844 184.86 143.327 182.016C143.811 179.173 144.182 176.357 144.355 173.5C144.507 171.022 144.394 168.576 144.335 166.104C144.288 164.394 144.288 162.678 144.176 160.968C144.063 159.258 143.924 157.469 143.308 155.865C143.069 155.242 142.764 154.645 142.28 154.175C141.359 153.287 139.947 154.692 140.875 155.58C141.704 156.382 141.883 158.012 142.022 159.145C142.241 160.902 142.287 162.671 142.32 164.441C142.353 166.21 142.473 168.019 142.479 169.815C142.492 172.645 142.274 175.469 141.903 178.272C141.187 183.686 139.994 188.962 138.304 194.158C137.469 196.729 136.74 199.373 135.626 201.845C135.109 202.999 134.559 204.145 134.102 205.325C133.764 206.18 133.552 207.081 133.227 207.936C132.631 209.533 130.338 209.394 128.92 209.427C126.381 209.493 123.856 209.175 121.325 209.016C118.793 208.857 116.056 209.016 113.411 209.049C110.542 209.083 107.672 209.076 104.809 209.248C99.2223 209.586 93.7415 210.839 88.1745 211.362C82.74 211.873 77.3652 210.488 71.9374 210.925C66.5096 211.362 60.9625 211.734 55.5081 212.363C52.4794 212.714 49.179 213.536 46.137 212.946C45.6466 212.854 45.1164 212.714 44.8049 212.39C43.9102 211.468 42.5052 212.88 43.3999 213.795L43.4132 213.788Z" fill="black"></path><path d="M108.606 234.015C105.021 235.433 101.137 234.532 97.6645 233.226C94.1917 231.92 90.6262 230.045 87.3059 228.176C86.2124 227.56 84.9465 226.479 85.6358 225.121C86.3648 223.669 88.2337 223.06 89.705 222.748C93.3302 221.993 96.0739 224.021 98.9436 225.903C100.614 226.996 102.396 227.838 104.133 228.812C106.028 229.873 107.871 231.046 109.574 232.398C112.695 234.87 115.167 238.23 118.746 240.099C122.325 241.968 126.281 242.14 129.999 240.894C133.459 239.734 136.494 237.653 139.755 236.056C141.75 235.082 143.851 234.406 146.005 233.876C148.344 233.299 150.902 232.828 153.315 233.213C155.25 233.524 156.854 234.744 158.471 235.758C160.194 236.845 162.03 237.772 164.117 237.746C164.535 237.746 164.985 237.441 165.078 237.017C165.628 234.399 165.734 231.503 166.993 229.097C168.047 227.076 169.75 225.207 169.658 222.795C169.611 221.522 167.623 221.516 167.669 222.795C167.756 225.002 165.814 226.804 164.979 228.719C163.905 231.185 163.706 233.889 163.156 236.493L164.117 235.764C160.3 235.811 157.695 232.06 154.057 231.337C151.883 230.906 149.61 231.132 147.449 231.529C145.289 231.927 143.049 232.53 140.974 233.352C137.356 234.797 134.168 237.116 130.556 238.574C126.785 240.099 122.689 240.138 119.117 238.024C117.368 236.984 115.91 235.552 114.465 234.141C112.874 232.583 111.237 231.119 109.435 229.813C107.519 228.428 105.478 227.222 103.371 226.148C101.654 225.273 100.064 224.253 98.4531 223.192C96.9951 222.231 95.4708 221.303 93.7676 220.873C91.9053 220.395 89.937 220.541 88.1012 221.105C86.4708 221.608 84.7477 222.549 83.9127 224.113C83.1704 225.499 83.356 227.056 84.3236 228.282C85.6292 229.932 87.9488 230.761 89.7647 231.715C91.786 232.775 93.8272 233.796 95.9347 234.664C100.024 236.354 104.835 237.627 109.136 235.93C110.309 235.466 109.799 233.544 108.606 234.015Z" fill="black"></path><path d="M144.567 164.083C147.953 161.703 152.115 161.478 156.098 162.101C157.722 162.353 159.346 162.684 160.903 163.221C161.519 163.433 162.182 163.685 162.699 164.089C162.772 164.149 162.977 164.381 162.984 164.388C163.05 164.447 162.984 164.487 163.004 164.368C162.991 164.513 163.057 164.268 162.971 164.533C162.566 165.753 164.488 166.27 164.886 165.064C165.794 162.326 161.374 161.206 159.578 160.762C156.708 160.06 153.752 159.676 150.803 159.888C148.178 160.073 145.74 160.842 143.572 162.366C142.532 163.095 143.526 164.818 144.573 164.083H144.567Z" fill="black"></path><path d="M82.2229 212.887C82.8194 213.569 82.9784 214.59 83.0579 215.458C83.1706 216.75 83.1109 218.049 83.0447 219.342C82.9188 221.708 82.5344 224.365 83.323 226.658C83.7339 227.865 85.6559 227.348 85.2383 226.128C84.8672 225.055 84.854 223.901 84.8738 222.775C84.8937 221.376 85.0064 219.985 85.066 218.586C85.1654 216.227 85.2914 213.37 83.6279 211.475C82.7796 210.514 81.3812 211.919 82.2229 212.88V212.887Z" fill="black"></path><path d="M109.601 235.91C109.853 235.261 109.952 234.558 110.025 233.869C110.098 233.18 110.111 232.497 110.085 231.814C110.065 231.298 109.641 230.794 109.09 230.82C108.54 230.847 108.076 231.258 108.096 231.814C108.123 232.477 108.11 233.147 108.043 233.809C108.037 233.882 108.023 233.962 108.017 234.035C108.004 234.147 108.004 234.121 108.03 233.962C108.03 234.001 108.017 234.048 108.01 234.088C107.984 234.24 107.957 234.393 107.924 234.545C107.864 234.83 107.785 235.115 107.679 235.393C107.493 235.877 107.884 236.507 108.375 236.619C108.945 236.752 109.395 236.447 109.601 235.923V235.91Z" fill="black"></path><path d="M25.3931 215.703C22.5102 215.584 19.9653 217.307 18.0169 219.289C15.7569 221.588 13.994 224.398 12.589 227.288C11.184 230.177 9.97786 233.1 10.1038 236.228C10.1966 238.574 10.9256 240.814 11.6877 243.015C12.3173 244.811 12.8674 246.633 13.55 248.416C14.7032 251.425 16.592 256.018 20.575 255.355C22.2849 255.07 23.7893 254.016 25.2208 253.108C26.9638 252.008 28.8261 251.107 30.6155 250.079C32.5043 248.993 34.3334 247.806 36.0301 246.441C37.7267 245.076 39.2311 243.565 40.8018 242.107C43.7112 239.416 46.6736 236.758 49.9542 234.512C51.8496 233.213 53.8511 232.053 55.9387 231.092C58.0263 230.131 60.2796 229.223 62.6986 229.415C65.1176 229.608 67.298 230.277 69.6838 230.224C71.8576 230.177 74.1838 229.806 76.2847 230.509C77.2258 230.82 77.9681 229.508 77.2523 228.845C76.4769 228.13 75.9997 227.063 75.4298 226.194C74.8863 225.373 74.2965 224.385 73.1765 224.544C71.9173 224.723 72.4541 226.645 73.7067 226.46C73.4548 226.532 73.2361 226.486 73.0439 226.327C73.0969 226.373 73.15 226.426 73.1964 226.479C73.2626 226.599 73.3952 226.725 73.4747 226.837C73.7531 227.235 74.0115 227.652 74.27 228.063C74.7405 228.806 75.1978 229.641 75.8473 230.244L76.8149 228.58C75.0454 227.99 73.1235 228.09 71.2877 228.169C69.2663 228.256 67.3974 228.163 65.4026 227.805C63.4077 227.447 61.4129 227.182 59.4048 227.666C57.5293 228.116 55.6802 228.985 53.9571 229.84C46.9188 233.326 41.5308 238.939 35.7384 244.088C32.5706 246.905 28.8062 248.688 25.1744 250.795C23.7628 251.617 22.4307 252.717 20.86 253.234C19.1435 253.797 18.1096 252.896 17.2017 251.484C16.201 249.927 15.5382 248.177 14.9285 246.434C14.3188 244.691 13.6759 242.816 13.0861 241C12.4234 238.965 11.9064 236.865 12.1119 234.711C12.2444 233.339 12.7282 231.974 13.2253 230.694C14.4182 227.626 16.0684 224.61 18.1693 222.066C19.9388 219.918 22.3777 217.566 25.3666 217.692C26.6457 217.745 26.6457 215.756 25.3666 215.703H25.3931Z" fill="black"></path><path d="M26.8049 217.413C26.8645 217.208 26.9838 217.062 27.176 216.943C27.5405 216.717 27.8851 216.611 28.4021 216.505C29.6281 216.253 30.947 216.306 32.1995 216.386C35.215 216.571 38.1973 217.135 41.1664 217.685C42.2599 217.89 43.3468 218.102 44.4469 218.261C46.4153 218.54 48.4432 218.454 50.4315 218.507C53.2746 218.58 56.131 218.686 58.9476 219.09C61.7643 219.494 64.5213 220.243 67.2915 220.853C70.2142 221.502 73.1633 221.999 76.0993 222.602C78.7038 223.133 81.368 223.762 83.7605 224.949L83.9991 223.133C83.8665 223.139 83.734 223.146 83.6014 223.146C82.3224 223.172 82.3224 225.161 83.6014 225.134C83.9196 225.127 84.2112 225.108 84.5227 225.048C85.3445 224.889 85.5035 223.603 84.7612 223.232C80.0823 220.912 74.734 220.415 69.684 219.342C66.7547 218.719 63.8519 217.93 60.9027 217.4C57.9535 216.87 55.1037 216.678 52.1877 216.572C49.7952 216.485 47.3431 216.598 44.9639 216.34C44.7982 216.32 45.0898 216.359 44.8313 216.32C44.7319 216.306 44.6325 216.293 44.5331 216.273C44.2481 216.227 43.9698 216.181 43.6848 216.127C43.0419 216.015 42.3991 215.896 41.7562 215.776C38.5618 215.18 35.3476 214.577 32.1001 214.384C29.8336 214.252 25.6782 214.053 24.8763 216.876C24.5251 218.109 26.4404 218.633 26.7916 217.407L26.8049 217.413Z" fill="black"></path><path d="M12.4897 229.833C14.14 226.599 16.3469 223.663 17.8115 220.329C19.031 217.559 19.76 214.305 21.8078 211.985C22.6495 211.031 21.2511 209.619 20.4028 210.58C18.2622 212.999 17.4271 216.187 16.1878 219.103C14.7298 222.53 12.4566 225.525 10.7666 228.832C10.1834 229.972 11.8999 230.979 12.4831 229.833H12.4897Z" fill="black"></path><path d="M151.307 140.695C152.255 139.482 153.653 138.905 155.124 138.581C156.437 138.289 158.06 138.077 159.379 138.455C160.227 138.693 160.393 139.336 160.433 140.158C160.492 141.364 160.34 142.577 160.473 143.783C160.758 146.454 162.388 148.787 162.739 151.438C162.892 152.597 162.481 153.326 161.46 153.896C160.307 154.539 158.935 154.784 157.649 155.023C153.627 155.772 149.769 157.131 145.833 158.217C144.6 158.555 145.124 160.477 146.363 160.133C150.339 159.039 154.23 157.687 158.279 156.919C160.93 156.421 164.674 155.454 164.76 152.134C164.84 149.065 162.66 146.461 162.428 143.472C162.249 141.145 163.124 137.825 160.36 136.705C158.743 136.042 156.728 136.274 155.051 136.579C153.136 136.924 151.135 137.719 149.902 139.296C149.127 140.29 150.518 141.709 151.307 140.701V140.695Z" fill="black"></path><path d="M129.648 61.7296C131.351 59.7414 133.24 57.8393 135.427 56.3879C137.27 55.1685 139.596 54.0485 141.856 54.6383C144.772 55.4005 146.137 58.5418 147.589 60.8813C148.477 62.3128 149.464 63.6582 150.617 64.8909C151.704 66.0573 152.97 67.164 153.805 68.5359C155.177 70.7958 150.988 72.4195 149.438 72.9365C148.231 73.3407 148.748 75.2627 149.968 74.8518C152.228 74.0963 155.508 72.6846 156.032 70.0403C156.357 68.4166 155.303 67.0911 154.315 65.9313C153.096 64.5065 151.671 63.2605 150.558 61.7495C148.49 58.9328 147.164 55.0558 143.917 53.3261C141.339 51.9542 138.443 52.491 135.951 53.7767C132.949 55.3209 130.424 57.7929 128.25 60.3312C127.421 61.2988 128.82 62.7104 129.655 61.7362L129.648 61.7296Z" fill="black"></path><path d="M15.7437 261.856C16.3534 257.502 21.4432 256.66 25.0883 256.979C29.8269 257.389 33.9557 260.345 36.2289 264.468C37.7731 267.271 38.5021 270.585 37.7399 273.733C37.4417 274.979 39.357 275.509 39.6552 274.263C41.0801 268.378 38.237 261.942 33.5581 258.297C29.5353 255.163 23.7496 253.95 18.8718 255.693C16.2938 256.614 14.2194 258.516 13.8218 261.326C13.7489 261.863 13.9543 262.387 14.5176 262.552C14.9815 262.685 15.6642 262.387 15.7437 261.856Z" fill="black"></path><path d="M4.9011 241.795C5.00051 241.762 5.09993 241.729 5.19934 241.702C5.23911 241.689 5.4777 241.643 5.37166 241.663C5.26562 241.683 5.53734 241.649 5.59036 241.649C5.70965 241.649 5.82231 241.649 5.94161 241.663C5.76267 241.649 5.96149 241.663 6.02777 241.683C6.1338 241.709 6.23321 241.729 6.33925 241.762C6.44529 241.795 6.5447 241.828 6.65074 241.868C6.50494 241.815 6.77003 241.921 6.80979 241.948C7.74425 242.412 8.41362 243.021 9.136 243.79C10.6868 245.434 11.9129 247.395 12.9467 249.403C13.1986 249.887 13.4305 250.384 13.6559 250.881C13.6758 250.928 13.6956 250.968 13.7089 251.014C13.7553 251.12 13.6625 250.901 13.7288 251.067C13.7685 251.173 13.8149 251.279 13.8547 251.385C13.9276 251.571 13.9939 251.756 14.0535 251.942C14.4445 253.155 16.3665 252.638 15.9688 251.412C15.2995 249.35 14.1927 247.376 13.0064 245.566C11.6875 243.565 10.044 241.358 7.85029 240.251C6.77666 239.708 5.53071 239.456 4.37092 239.88C3.86724 240.066 3.52263 240.556 3.67506 241.106C3.8076 241.59 4.3908 241.987 4.9011 241.802V241.795Z" fill="black"></path><path d="M32.7964 256.455C35.507 252.22 40.5239 250.172 45.4347 250.325C47.7013 250.398 49.895 250.994 51.7241 252.366C53.3545 253.592 54.5474 255.309 55.5084 257.085C56.6947 259.265 57.5695 261.591 58.4973 263.884C58.9679 265.057 60.8964 264.547 60.4126 263.354C58.6497 258.987 56.9995 254.043 53.1821 251.001C49.0334 247.694 42.9561 247.654 38.1977 249.602C35.2684 250.802 32.7831 252.77 31.0732 255.448C30.384 256.528 32.1005 257.529 32.7897 256.448L32.7964 256.455Z" fill="black"></path><path d="M61.0949 271.784C61.4329 270.001 61.0485 268.245 61.2341 266.462C61.3998 264.885 62.3276 263.361 63.1825 262.062C64.7201 259.722 66.7414 257.602 69.4454 256.674C73.7996 255.183 79.6648 256.13 82.3025 260.233C84.2774 263.301 85.2252 266.959 86.2524 270.426C86.6169 271.652 88.5322 271.128 88.1677 269.895C87.1471 266.456 86.1729 262.91 84.357 259.789C82.9321 257.336 80.7053 255.64 78.0278 254.739C75.3504 253.837 72.547 253.791 69.9027 254.46C66.8872 255.222 64.508 257.058 62.6059 259.477C61.3865 261.035 60.3328 262.744 59.6435 264.607C58.8416 266.78 59.5971 269.034 59.1796 271.241C58.9476 272.493 60.8629 273.03 61.0949 271.771V271.784Z" fill="black"></path><path d="M51.8362 249.589C52.7906 249.178 53.5527 248.502 54.3811 247.892C55.3686 247.17 56.3892 246.779 57.6087 246.62C60.1602 246.289 62.7581 246.958 65.0711 248.005C68.3119 249.476 72.7323 251.723 73.13 255.726C73.2559 256.985 75.2441 256.998 75.1182 255.726C74.6344 250.868 70.1212 248.124 66.0718 246.289C63.4275 245.089 60.5313 244.307 57.6087 244.632C56.2766 244.784 54.9909 245.102 53.8576 245.838C52.8304 246.507 51.9688 247.382 50.8289 247.873C49.689 248.363 50.6698 250.093 51.8296 249.589H51.8362Z" fill="black"></path><path d="M80.4003 257.131C82.6138 253.857 85.5829 250.862 89.6123 250.146C93.2441 249.496 97.4657 250.656 100.262 253.062C101.913 254.48 103.099 256.276 103.954 258.264C104.458 259.437 106.167 258.423 105.67 257.264C103.98 253.32 100.846 250.252 96.7632 248.873C92.4687 247.429 87.6705 247.78 83.9393 250.464C81.8185 251.988 80.1352 253.983 78.6838 256.137C77.968 257.197 79.6845 258.198 80.4003 257.138V257.131Z" fill="black"></path><path d="M98.546 269.531C100.123 263.732 103.881 258.881 109.521 256.561C112.364 255.388 115.552 254.719 118.627 255.083C121.656 255.441 124.34 256.952 126.368 259.199C127.706 260.677 128.846 262.413 128.707 264.487C128.568 266.562 127.375 268.292 126.282 269.895C125.559 270.956 127.282 271.95 127.998 270.896C129.138 269.219 130.251 267.397 130.589 265.362C130.927 263.328 130.444 261.439 129.33 259.782C127.375 256.846 124.479 254.533 121.066 253.559C114.518 251.697 106.704 254.467 102.032 259.219C99.3744 261.929 97.6116 265.362 96.6175 269.001C96.2795 270.24 98.1948 270.764 98.5328 269.531H98.546Z" fill="black"></path><path d="M65.3762 245.758C69.0013 243.233 72.4675 239.999 76.9211 239.085C78.8695 238.687 80.9107 238.74 82.7465 239.522C84.5823 240.304 86.2922 241.51 87.7634 242.862C89.2347 244.214 90.7524 245.878 91.2163 247.873C91.5079 249.119 93.4232 248.588 93.1316 247.342C92.6743 245.374 91.3555 243.658 89.977 242.239C88.3997 240.609 86.5241 239.178 84.4961 238.157C80.1817 235.976 75.357 236.851 71.2944 239.211C68.8556 240.629 66.6818 242.438 64.3755 244.042C63.335 244.771 64.3224 246.494 65.3762 245.758Z" fill="black"></path><path d="M97.4125 248.688C98.3934 247.932 99.2284 247.018 100.183 246.229C101.21 245.387 102.396 245.023 103.675 244.744C105.047 244.453 106.439 244.307 107.837 244.208C109.063 244.122 110.342 243.996 111.569 244.102C116.016 244.466 118.786 249.132 120.317 252.823C120.8 253.99 122.722 253.479 122.232 252.293C120.787 248.8 118.693 245.122 115.28 243.227C113.484 242.233 111.622 242.047 109.607 242.127C107.234 242.219 104.815 242.392 102.502 242.975C101.283 243.28 100.163 243.744 99.1688 244.513C98.1746 245.281 97.386 246.209 96.4118 246.965C95.981 247.296 95.7623 247.813 96.0539 248.323C96.2925 248.741 96.9884 249.006 97.4125 248.681V248.688Z" fill="black"></path><path d="M123.492 253.519C125.639 250.431 129.622 248.873 133.247 248.476C136.873 248.078 141.094 248.635 143.931 251.153C145.528 252.571 146.476 254.5 146.688 256.621C146.814 257.88 148.802 257.893 148.676 256.621C147.662 246.388 135.176 244.572 127.356 248.045C125.142 249.026 123.174 250.517 121.782 252.512C121.046 253.565 122.769 254.56 123.498 253.512L123.492 253.519Z" fill="black"></path><path d="M132.385 268.994C133.419 268.225 134.195 267.264 134.97 266.25C135.792 265.183 136.667 264.236 137.727 263.401C139.729 261.823 142.121 260.584 144.613 259.994C147.854 259.225 152.897 259.212 154.494 262.778C155.018 263.944 156.728 262.93 156.211 261.777C154.759 258.543 150.935 257.575 147.681 257.635C143.619 257.708 139.729 259.345 136.547 261.83C135.553 262.605 134.665 263.447 133.89 264.441C133.114 265.435 132.405 266.535 131.385 267.291C130.364 268.046 131.358 269.769 132.385 269.007V268.994Z" fill="black"></path><path d="M140.736 246.289C141.233 244.638 142.068 243.088 143.46 242.021C144.772 241.007 146.402 240.516 148.02 240.251C149.736 239.966 151.466 239.893 153.149 240.397C154.832 240.901 156.436 241.835 157.689 243.088C159.087 244.493 159.942 246.275 159.77 248.283C159.657 249.556 161.645 249.549 161.758 248.283C162.149 243.856 158.484 240.331 154.66 238.82C152.652 238.024 150.631 237.932 148.51 238.19C146.522 238.435 144.507 238.926 142.817 240.052C140.782 241.404 139.517 243.452 138.821 245.758C138.45 246.985 140.372 247.508 140.736 246.289Z" fill="black"></path></svg> 