<?xml version="1.0" encoding="UTF-8"?> <svg xmlns="http://www.w3.org/2000/svg" width="342" height="132" viewBox="0 0 342 132" fill="none"><rect x="6.35205" y="10.0573" width="335.619" height="121.755" rx="13.079" fill="#2E2A1D"></rect><rect x="0.50304" y="1.0316" width="334.613" height="122.866" rx="12.576" fill="#FFF3CF" stroke="#2E2A1D" stroke-width="1.00608"></rect><path d="M22.3847 63.9405C21.2423 62.8192 20.6711 61.4176 20.6711 59.7357C20.6711 58.0537 21.2423 56.6574 22.3847 55.5467C23.5378 54.4254 25.0028 53.8648 26.78 53.8648C28.7792 53.8648 30.3131 54.5682 31.3815 55.9751C31.8681 56.5992 32.2118 57.2974 32.4128 58.0696H29.9534C29.8159 57.7099 29.6043 57.382 29.3187 57.0858C28.6523 56.4194 27.806 56.0862 26.78 56.0862C25.7433 56.0862 24.8865 56.43 24.2095 57.1176C23.543 57.7946 23.2098 58.6673 23.2098 59.7357C23.2098 60.8464 23.5325 61.7349 24.1777 62.4013C24.8336 63.0572 25.701 63.3851 26.78 63.3851C27.8589 63.3851 28.7263 63.0149 29.3822 62.2744C29.6784 61.9253 29.8952 61.5551 30.0327 61.1637H32.4922C32.2489 61.9994 31.8839 62.7398 31.3973 63.3851C30.2549 64.8661 28.7158 65.6065 26.78 65.6065C25.0028 65.6065 23.5378 65.0512 22.3847 63.9405ZM33.9927 64.2895C33.1465 63.4539 32.7234 62.4384 32.7234 61.243C32.7234 60.0477 33.1465 59.0375 33.9927 58.2124C34.839 57.3767 35.8968 56.9589 37.1662 56.9589C38.425 56.9589 39.4775 57.3767 40.3238 58.2124C41.1806 59.0375 41.609 60.0477 41.609 61.243C41.609 62.4384 41.1806 63.4539 40.3238 64.2895C39.4775 65.1146 38.425 65.5272 37.1662 65.5272C35.8968 65.5272 34.839 65.1146 33.9927 64.2895ZM35.6429 59.5294C35.2304 59.9737 35.0241 60.5449 35.0241 61.243C35.0241 61.9412 35.2304 62.5124 35.6429 62.9567C36.0555 63.401 36.5632 63.6231 37.1662 63.6231C37.7691 63.6231 38.2769 63.401 38.6894 62.9567C39.102 62.5124 39.3083 61.9412 39.3083 61.243C39.3083 60.5449 39.102 59.9737 38.6894 59.5294C38.2769 59.0851 37.7691 58.863 37.1662 58.863C36.5632 58.863 36.0555 59.0851 35.6429 59.5294ZM41.7733 65.2892V63.3851L45.8194 59.2596V59.101H41.9319V57.1969H48.7548V59.101L44.7087 63.2264V63.3851H48.9135V65.2892H41.7733ZM48.8342 57.1969H51.1349L52.7216 63.3851H53.3563L55.1017 57.1969H57.4025L54.1497 68.304H51.849L52.7216 65.2892H50.9763L48.8342 57.1969ZM61.4499 65.2892V57.1969H63.6713V58.3076H63.7506C63.8987 58.0431 64.0785 57.821 64.2901 57.6412C64.8084 57.1863 65.422 56.9589 66.1307 56.9589C66.977 56.9589 67.6857 57.2128 68.2569 57.7205C68.4896 57.9427 68.68 58.1912 68.8281 58.4663H68.9075C69.0556 58.1912 69.246 57.9427 69.4787 57.7205C70.0499 57.2128 70.7322 56.9589 71.5256 56.9589C72.4988 56.9589 73.2551 57.2551 73.7946 57.8475C74.3446 58.4292 74.6197 59.2702 74.6197 60.3703V65.2892H72.3983V60.6084C72.3983 59.4448 71.8958 58.863 70.8909 58.863C70.4043 58.863 69.9917 59.0534 69.6532 59.4342C69.3147 59.815 69.1455 60.3122 69.1455 60.9257V65.2892H66.9241V60.6084C66.9241 59.4448 66.4216 58.863 65.4167 58.863C64.9301 58.863 64.5175 59.0534 64.179 59.4342C63.8405 59.815 63.6713 60.3122 63.6713 60.9257V65.2892H61.4499ZM76.4376 64.2895C75.5913 63.4539 75.1682 62.4384 75.1682 61.243C75.1682 60.0477 75.5913 59.0375 76.4376 58.2124C77.2838 57.3767 78.3417 56.9589 79.611 56.9589C80.8698 56.9589 81.9224 57.3767 82.7686 58.2124C83.6254 59.0375 84.0539 60.0477 84.0539 61.243C84.0539 62.4384 83.6254 63.4539 82.7686 64.2895C81.9224 65.1146 80.8698 65.5272 79.611 65.5272C78.3417 65.5272 77.2838 65.1146 76.4376 64.2895ZM78.0878 59.5294C77.6752 59.9737 77.469 60.5449 77.469 61.243C77.469 61.9412 77.6752 62.5124 78.0878 62.9567C78.5003 63.401 79.0081 63.6231 79.611 63.6231C80.214 63.6231 80.7217 63.401 81.1343 62.9567C81.5468 62.5124 81.7531 61.9412 81.7531 61.243C81.7531 60.5449 81.5468 59.9737 81.1343 59.5294C80.7217 59.0851 80.214 58.863 79.611 58.863C79.0081 58.863 78.5003 59.0851 78.0878 59.5294ZM85.3606 64.353C84.6518 63.5597 84.2974 62.523 84.2974 61.243C84.2974 59.9631 84.6518 58.9317 85.3606 58.1489C86.0799 57.3556 86.9684 56.9589 88.0262 56.9589C88.735 56.9589 89.375 57.1704 89.9462 57.5936C90.1895 57.7946 90.3958 58.0061 90.565 58.2283H90.6443V54.1821H92.8658V65.2892H90.6443V64.2578H90.565C90.3958 64.48 90.1895 64.6915 89.9462 64.8925C89.375 65.3156 88.735 65.5272 88.0262 65.5272C86.9684 65.5272 86.0799 65.1358 85.3606 64.353ZM87.1535 59.4976C86.7833 59.9208 86.5982 60.5026 86.5982 61.243C86.5982 61.9835 86.7833 62.5653 87.1535 62.9884C87.5238 63.4116 87.9998 63.6231 88.5816 63.6231C89.1951 63.6231 89.6923 63.4169 90.0731 63.0043C90.4539 62.5812 90.6443 61.9941 90.6443 61.243C90.6443 60.492 90.4539 59.9102 90.0731 59.4976C89.6923 59.0745 89.1951 58.863 88.5816 58.863C87.9998 58.863 87.5238 59.0745 87.1535 59.4976ZM94.754 64.2895C93.9183 63.4539 93.5004 62.4384 93.5004 61.243C93.5004 60.0477 93.9183 59.0375 94.754 58.2124C95.6002 57.3767 96.6369 56.9589 97.8639 56.9589C99.1122 56.9589 100.138 57.3714 100.942 58.1965C101.746 59.0216 102.148 60.0371 102.148 61.243V61.7191H95.8012C95.8858 62.248 96.1238 62.6975 96.5152 63.0678C96.9066 63.438 97.3562 63.6231 97.8639 63.6231C98.4246 63.6231 98.9059 63.4645 99.3078 63.1471C99.4665 63.0096 99.5935 62.8509 99.6887 62.6711H102.069C101.889 63.2106 101.624 63.6866 101.275 64.0991C100.429 65.0512 99.292 65.5272 97.8639 65.5272C96.6369 65.5272 95.6002 65.1146 94.754 64.2895ZM95.8805 60.3703H99.768C99.6834 59.9472 99.4665 59.5928 99.1174 59.3072C98.7789 59.011 98.3611 58.863 97.8639 58.863C97.3668 58.863 96.9436 59.0058 96.5946 59.2914C96.2455 59.577 96.0075 59.9366 95.8805 60.3703ZM107.335 64.353C106.626 63.5597 106.272 62.523 106.272 61.243C106.272 59.9631 106.626 58.9317 107.335 58.1489C108.054 57.3556 108.943 56.9589 110.001 56.9589C110.709 56.9589 111.349 57.1704 111.92 57.5936C112.164 57.7946 112.37 58.0061 112.539 58.2283H112.619V57.1969H114.84V65.2892H112.619V64.2578H112.539C112.37 64.48 112.164 64.6915 111.92 64.8925C111.349 65.3156 110.709 65.5272 110.001 65.5272C108.943 65.5272 108.054 65.1358 107.335 64.353ZM109.128 59.4976C108.758 59.9208 108.572 60.5026 108.572 61.243C108.572 61.9835 108.758 62.5653 109.128 62.9884C109.498 63.4116 109.974 63.6231 110.556 63.6231C111.169 63.6231 111.667 63.4169 112.047 63.0043C112.428 62.5812 112.619 61.9941 112.619 61.243C112.619 60.492 112.428 59.9102 112.047 59.4976C111.667 59.0745 111.169 58.863 110.556 58.863C109.974 58.863 109.498 59.0745 109.128 59.4976ZM116.728 64.2895C115.893 63.4539 115.475 62.4384 115.475 61.243C115.475 60.0477 115.893 59.0375 116.728 58.2124C117.574 57.3767 118.611 56.9589 119.838 56.9589C121.309 56.9589 122.43 57.4878 123.202 58.5456C123.551 59.0005 123.805 59.5294 123.964 60.1323H121.663C121.568 59.8996 121.441 59.6881 121.282 59.4976C120.88 59.0745 120.399 58.863 119.838 58.863C119.278 58.863 118.791 59.0851 118.378 59.5294C117.976 59.9737 117.775 60.5449 117.775 61.243C117.775 61.9412 117.976 62.5124 118.378 62.9567C118.791 63.401 119.278 63.6231 119.838 63.6231C120.399 63.6231 120.88 63.4116 121.282 62.9884C121.441 62.798 121.568 62.5865 121.663 62.3537H123.964C123.816 62.9673 123.572 63.4962 123.234 63.9405C122.462 64.9983 121.33 65.5272 119.838 65.5272C118.611 65.5272 117.574 65.1146 116.728 64.2895ZM123.963 59.101V57.1969H124.994V55.4515H127.216V57.1969H129.501V59.101H127.216V63.3851H129.596V65.2892H124.994V59.101H123.963ZM130.429 55.8164C130.186 55.5731 130.064 55.2928 130.064 54.9755C130.064 54.6581 130.186 54.3831 130.429 54.1504C130.683 53.9071 130.985 53.7854 131.334 53.7854C131.683 53.7854 131.979 53.9071 132.222 54.1504C132.476 54.3831 132.603 54.6581 132.603 54.9755C132.603 55.2928 132.476 55.5731 132.222 55.8164C131.979 56.0492 131.683 56.1655 131.334 56.1655C130.985 56.1655 130.683 56.0492 130.429 55.8164ZM130.223 65.2892V57.1969H132.445V65.2892H130.223ZM132.841 57.1969H135.142L136.649 63.3851H137.522L139.029 57.1969H141.33L139.188 65.2892H134.983L132.841 57.1969ZM142.388 64.353C141.68 63.5597 141.325 62.523 141.325 61.243C141.325 59.9631 141.68 58.9317 142.388 58.1489C143.108 57.3556 143.996 56.9589 145.054 56.9589C145.763 56.9589 146.403 57.1704 146.974 57.5936C147.217 57.7946 147.424 58.0061 147.593 58.2283H147.672V57.1969H149.894V65.2892H147.672V64.2578H147.593C147.424 64.48 147.217 64.6915 146.974 64.8925C146.403 65.3156 145.763 65.5272 145.054 65.5272C143.996 65.5272 143.108 65.1358 142.388 64.353ZM144.181 59.4976C143.811 59.9208 143.626 60.5026 143.626 61.243C143.626 61.9835 143.811 62.5653 144.181 62.9884C144.552 63.4116 145.028 63.6231 145.609 63.6231C146.223 63.6231 146.72 63.4169 147.101 63.0043C147.482 62.5812 147.672 61.9941 147.672 61.243C147.672 60.492 147.482 59.9102 147.101 59.4976C146.72 59.0745 146.223 58.863 145.609 58.863C145.028 58.863 144.552 59.0745 144.181 59.4976ZM150.37 59.101V57.1969H151.401V55.4515H153.622V57.1969H155.907V59.101H153.622V63.3851H156.002V65.2892H151.401V59.101H150.37ZM157.407 64.2895C156.572 63.4539 156.154 62.4384 156.154 61.243C156.154 60.0477 156.572 59.0375 157.407 58.2124C158.253 57.3767 159.29 56.9589 160.517 56.9589C161.765 56.9589 162.791 57.3714 163.595 58.1965C164.399 59.0216 164.801 60.0371 164.801 61.243V61.7191H158.454C158.539 62.248 158.777 62.6975 159.168 63.0678C159.56 63.438 160.009 63.6231 160.517 63.6231C161.078 63.6231 161.559 63.4645 161.961 63.1471C162.12 63.0096 162.247 62.8509 162.342 62.6711H164.722C164.542 63.2106 164.278 63.6866 163.929 64.0991C163.082 65.0512 161.945 65.5272 160.517 65.5272C159.29 65.5272 158.253 65.1146 157.407 64.2895ZM158.534 60.3703H162.421C162.337 59.9472 162.12 59.5928 161.771 59.3072C161.432 59.011 161.014 58.863 160.517 58.863C160.02 58.863 159.597 59.0058 159.248 59.2914C158.899 59.577 158.661 59.9366 158.534 60.3703ZM166.176 64.353C165.467 63.5597 165.112 62.523 165.112 61.243C165.112 59.9631 165.467 58.9317 166.176 58.1489C166.895 57.3556 167.783 56.9589 168.841 56.9589C169.55 56.9589 170.19 57.1704 170.761 57.5936C171.005 57.7946 171.211 58.0061 171.38 58.2283H171.459V54.1821H173.681V65.2892H171.459V64.2578H171.38C171.211 64.48 171.005 64.6915 170.761 64.8925C170.19 65.3156 169.55 65.5272 168.841 65.5272C167.783 65.5272 166.895 65.1358 166.176 64.353ZM167.969 59.4976C167.598 59.9208 167.413 60.5026 167.413 61.243C167.413 61.9835 167.598 62.5653 167.969 62.9884C168.339 63.4116 168.815 63.6231 169.397 63.6231C170.01 63.6231 170.507 63.4169 170.888 63.0043C171.269 62.5812 171.459 61.9941 171.459 61.243C171.459 60.492 171.269 59.9102 170.888 59.4976C170.507 59.0745 170.01 58.863 169.397 58.863C168.815 58.863 168.339 59.0745 167.969 59.4976ZM174.839 65.1622C174.596 64.9189 174.474 64.6175 174.474 64.2578C174.474 63.8982 174.596 63.5967 174.839 63.3534C175.082 63.1101 175.384 62.9884 175.744 62.9884C176.103 62.9884 176.405 63.1101 176.648 63.3534C176.891 63.5967 177.013 63.8982 177.013 64.2578C177.013 64.6175 176.891 64.9189 176.648 65.1622C176.405 65.4055 176.103 65.5272 175.744 65.5272C175.384 65.5272 175.082 65.4055 174.839 65.1622ZM181.785 65.2892V54.1821H184.879L189.242 62.0364H189.401L189.242 60.6877V54.1821H191.623V65.2892H188.528L184.165 57.4349H184.006L184.165 58.7836V65.2892H181.785ZM193.685 64.2895C192.839 63.4539 192.416 62.4384 192.416 61.243C192.416 60.0477 192.839 59.0375 193.685 58.2124C194.532 57.3767 195.589 56.9589 196.859 56.9589C198.118 56.9589 199.17 57.3767 200.016 58.2124C200.873 59.0375 201.302 60.0477 201.302 61.243C201.302 62.4384 200.873 63.4539 200.016 64.2895C199.17 65.1146 198.118 65.5272 196.859 65.5272C195.589 65.5272 194.532 65.1146 193.685 64.2895ZM195.335 59.5294C194.923 59.9737 194.717 60.5449 194.717 61.243C194.717 61.9412 194.923 62.5124 195.335 62.9567C195.748 63.401 196.256 63.6231 196.859 63.6231C197.462 63.6231 197.969 63.401 198.382 62.9567C198.795 62.5124 199.001 61.9412 199.001 61.243C199.001 60.5449 198.795 59.9737 198.382 59.5294C197.969 59.0851 197.462 58.863 196.859 58.863C196.256 58.863 195.748 59.0851 195.335 59.5294ZM201.307 57.1969H203.608L204.719 63.0678H204.957L206.147 57.1969H209.003L210.193 63.0678H210.431L211.542 57.1969H213.842L212.097 65.2892H208.765L207.654 59.7357H207.495L206.385 65.2892H203.053L201.307 57.1969ZM217.66 61.7984H220.119C220.214 62.1157 220.368 62.3961 220.579 62.6394C221.045 63.1894 221.738 63.4645 222.658 63.4645C224.033 63.4645 224.721 63.0413 224.721 62.1951C224.721 61.9835 224.647 61.7931 224.498 61.6239C224.361 61.4546 224.139 61.3065 223.832 61.1796C223.536 61.0526 223.245 60.9521 222.959 60.8781C222.684 60.7935 222.325 60.693 221.88 60.5766C221.817 60.566 221.764 60.5555 221.722 60.5449C221.69 60.5343 221.642 60.5237 221.579 60.5131C221.526 60.492 221.478 60.4761 221.436 60.4655C219.236 59.9366 218.136 58.8735 218.136 57.2762C218.136 56.4511 218.442 55.7265 219.056 55.1024C219.67 54.4677 220.5 54.0763 221.547 53.9282V52.4367H223.769V54.0076C224.964 54.2932 225.868 54.9173 226.482 55.8799C226.736 56.2925 226.916 56.7579 227.021 57.2762H224.562C224.498 57.0541 224.377 56.8425 224.197 56.6415C223.795 56.2184 223.203 56.0069 222.42 56.0069C221.817 56.0069 221.362 56.1232 221.055 56.3559C220.749 56.5781 220.595 56.8584 220.595 57.1969C220.595 57.8104 221.293 58.2759 222.69 58.5932C223.049 58.6778 223.271 58.7307 223.356 58.7519C223.451 58.773 223.668 58.8312 224.007 58.9264C224.356 59.0216 224.588 59.101 224.705 59.1644C224.832 59.2173 225.038 59.3072 225.324 59.4342C225.62 59.5505 225.826 59.6616 225.942 59.7674C226.069 59.8732 226.228 60.016 226.418 60.1958C226.619 60.3651 226.762 60.5396 226.847 60.7194C226.931 60.8992 227.005 61.1108 227.069 61.3541C227.143 61.5868 227.18 61.8407 227.18 62.1157C227.18 62.9514 226.879 63.6919 226.276 64.3372C225.673 64.9718 224.837 65.3685 223.769 65.5272V67.0346H221.547V65.5113C220.14 65.2575 219.072 64.5699 218.342 63.4486C218.014 62.9514 217.787 62.4013 217.66 61.7984ZM227.5 61.7984H229.959C230.054 62.1157 230.208 62.3961 230.419 62.6394C230.885 63.1894 231.578 63.4645 232.498 63.4645C233.873 63.4645 234.561 63.0413 234.561 62.1951C234.561 61.9835 234.487 61.7931 234.339 61.6239C234.201 61.4546 233.979 61.3065 233.672 61.1796C233.376 61.0526 233.085 60.9521 232.8 60.8781C232.524 60.7935 232.165 60.693 231.721 60.5766C231.657 60.566 231.604 60.5555 231.562 60.5449C231.53 60.5343 231.483 60.5237 231.419 60.5131C231.366 60.492 231.319 60.4761 231.276 60.4655C229.076 59.9366 227.976 58.8735 227.976 57.2762C227.976 56.3242 228.362 55.5203 229.134 54.8644C229.917 54.198 230.959 53.8648 232.26 53.8648C233.953 53.8648 235.232 54.436 236.1 55.5784C236.46 56.0862 236.713 56.6521 236.862 57.2762H234.402C234.339 57.0541 234.217 56.8425 234.037 56.6415C233.635 56.2184 233.043 56.0069 232.26 56.0069C231.657 56.0069 231.202 56.1232 230.895 56.3559C230.589 56.5781 230.435 56.8584 230.435 57.1969C230.435 57.8104 231.133 58.2759 232.53 58.5932C232.889 58.6778 233.112 58.7307 233.196 58.7519C233.291 58.773 233.508 58.8312 233.847 58.9264C234.196 59.0216 234.429 59.101 234.545 59.1644C234.672 59.2173 234.878 59.3072 235.164 59.4342C235.46 59.5505 235.666 59.6616 235.783 59.7674C235.909 59.8732 236.068 60.016 236.259 60.1958C236.46 60.3651 236.602 60.5396 236.687 60.7194C236.772 60.8992 236.846 61.1108 236.909 61.3541C236.983 61.5868 237.02 61.8407 237.02 62.1157C237.02 63.0995 236.624 63.9299 235.83 64.6069C235.037 65.2733 233.926 65.6065 232.498 65.6065C230.615 65.6065 229.235 64.9718 228.357 63.7025C227.944 63.1524 227.659 62.5177 227.5 61.7984ZM237.499 59.7357C237.499 58.096 238.08 56.7103 239.244 55.5784C240.418 54.436 241.873 53.8648 243.608 53.8648C245.342 53.8648 246.792 54.436 247.955 55.5784C249.129 56.7103 249.716 58.096 249.716 59.7357C249.716 61.1637 249.251 62.4172 248.32 63.4962C247.4 64.5752 246.226 65.2416 244.798 65.4955V68.542H242.418V65.4955C240.989 65.2416 239.81 64.5752 238.879 63.4962C237.959 62.4172 237.499 61.1637 237.499 59.7357ZM241.037 57.1176C240.371 57.7946 240.037 58.6673 240.037 59.7357C240.037 60.804 240.371 61.682 241.037 62.3696C241.714 63.0466 242.571 63.3851 243.608 63.3851C244.644 63.3851 245.496 63.0466 246.162 62.3696C246.839 61.682 247.178 60.804 247.178 59.7357C247.178 58.6673 246.839 57.7946 246.162 57.1176C245.496 56.43 244.644 56.0862 243.608 56.0862C242.571 56.0862 241.714 56.43 241.037 57.1176ZM250.587 60.9257V54.1821H252.967V60.9257C252.967 61.6873 253.178 62.2903 253.601 62.7346C254.035 63.1683 254.617 63.3851 255.347 63.3851C256.077 63.3851 256.653 63.1683 257.076 62.7346C257.51 62.2903 257.727 61.6873 257.727 60.9257V54.1821H260.107V60.9257C260.107 62.3537 259.679 63.4909 258.822 64.3372C257.965 65.1834 256.807 65.6065 255.347 65.6065C253.887 65.6065 252.729 65.1834 251.872 64.3372C251.015 63.4909 250.587 62.3537 250.587 60.9257ZM261.451 65.2892V54.1821H263.831V65.2892H261.451ZM265.264 65.2892V54.1821H270.5C271.822 54.1821 272.88 54.5418 273.674 55.2611C274.467 55.9698 274.864 56.8531 274.864 57.9109C274.864 58.736 274.631 59.4395 274.165 60.0213C273.7 60.6031 273.086 61.0368 272.325 61.3224L274.864 65.2892H272.166L269.865 61.6397H267.644V65.2892H265.264ZM267.644 59.4183H270.421C271.077 59.4183 271.568 59.2861 271.896 59.0216C272.235 58.7466 272.404 58.3764 272.404 57.9109C272.404 57.4455 272.235 57.0805 271.896 56.8161C271.568 56.541 271.077 56.4035 270.421 56.4035H267.644V59.4183ZM275.817 65.2892V54.1821H281.053C282.375 54.1821 283.433 54.5418 284.226 55.2611C285.02 55.9698 285.416 56.8531 285.416 57.9109C285.416 58.736 285.184 59.4395 284.718 60.0213C284.253 60.6031 283.639 61.0368 282.878 61.3224L285.416 65.2892H282.719L280.418 61.6397H278.197V65.2892H275.817ZM278.197 59.4183H280.974C281.63 59.4183 282.121 59.2861 282.449 59.0216C282.788 58.7466 282.957 58.3764 282.957 57.9109C282.957 57.4455 282.788 57.0805 282.449 56.8161C282.121 56.541 281.63 56.4035 280.974 56.4035H278.197V59.4183ZM286.37 65.2892V54.1821H294.7V56.4035H288.75V58.6249H293.51V60.6877H288.75V63.0678H294.7V65.2892H286.37ZM295.73 65.2892V54.1821H298.11V63.0678H303.584V65.2892H295.73ZM307.214 55.8164C306.971 55.5731 306.849 55.2928 306.849 54.9755C306.849 54.6581 306.971 54.3831 307.214 54.1504C307.468 53.9071 307.769 53.7854 308.118 53.7854C308.467 53.7854 308.764 53.9071 309.007 54.1504C309.261 54.3831 309.388 54.6581 309.388 54.9755C309.388 55.2928 309.261 55.5731 309.007 55.8164C308.764 56.0492 308.467 56.1655 308.118 56.1655C307.769 56.1655 307.468 56.0492 307.214 55.8164ZM307.008 65.2892V57.1969H309.229V65.2892H307.008ZM309.784 62.6711H312.085C312.159 62.8615 312.276 63.036 312.434 63.1947C312.773 63.5332 313.238 63.7025 313.831 63.7025C314.73 63.7025 315.179 63.438 315.179 62.9091C315.179 62.8245 315.158 62.7504 315.116 62.687C315.074 62.6129 315 62.5494 314.894 62.4966C314.788 62.4331 314.687 62.3802 314.592 62.3379C314.497 62.2956 314.354 62.2533 314.164 62.2109C313.984 62.1581 313.836 62.121 313.72 62.0999C313.614 62.0787 313.439 62.0417 313.196 61.9888C312.963 61.9359 312.794 61.8989 312.688 61.8777C311.017 61.5181 310.181 60.6983 310.181 59.4183C310.181 58.7413 310.483 58.1648 311.086 57.6888C311.699 57.2022 312.535 56.9589 313.593 56.9589C315.01 56.9589 316.073 57.3979 316.782 58.2759C317.089 58.6567 317.295 59.0904 317.401 59.577H315.179C315.105 59.4183 315.01 59.2861 314.894 59.1803C314.566 58.9158 314.132 58.7836 313.593 58.7836C313.212 58.7836 312.931 58.8471 312.752 58.974C312.572 59.0904 312.482 59.2385 312.482 59.4183C312.482 59.4818 312.492 59.5452 312.514 59.6087C312.545 59.6616 312.593 59.7145 312.656 59.7674C312.72 59.8097 312.783 59.852 312.847 59.8943C312.91 59.9261 313 59.9631 313.117 60.0054C313.233 60.0371 313.333 60.0689 313.418 60.1006C313.513 60.1323 313.635 60.1641 313.783 60.1958C313.931 60.2275 314.058 60.254 314.164 60.2751C314.27 60.2963 314.407 60.328 314.576 60.3703C314.746 60.4021 314.883 60.4285 314.989 60.4497C316.65 60.8199 317.48 61.6397 317.48 62.9091C317.48 63.6178 317.152 64.2314 316.496 64.7497C315.84 65.268 314.952 65.5272 313.831 65.5272C312.329 65.5272 311.218 65.0512 310.499 64.0991C310.171 63.6654 309.933 63.1894 309.784 62.6711ZM20.3537 77.1969H22.6545L23.7652 83.0678H24.0032L25.1932 77.1969H28.0493L29.2394 83.0678H29.4774L30.5881 77.1969H32.8888L31.1435 85.2892H27.8113L26.7006 79.7357H26.542L25.4312 85.2892H22.0991L20.3537 77.1969ZM33.5761 75.8164C33.3328 75.5731 33.2111 75.2928 33.2111 74.9755C33.2111 74.6581 33.3328 74.3831 33.5761 74.1504C33.83 73.9071 34.1314 73.7854 34.4805 73.7854C34.8296 73.7854 35.1258 73.9071 35.3691 74.1504C35.623 74.3831 35.7499 74.6581 35.7499 74.9755C35.7499 75.2928 35.623 75.5731 35.3691 75.8164C35.1258 76.0492 34.8296 76.1655 34.4805 76.1655C34.1314 76.1655 33.83 76.0492 33.5761 75.8164ZM33.3698 85.2892V77.1969H35.5912V85.2892H33.3698ZM36.0673 79.101V77.1969H37.0986V75.4515H39.32V77.1969H41.6049V79.101H39.32V83.3851H41.7001V85.2892H37.0986V79.101H36.0673ZM42.3274 85.2892V74.1821H44.5488V78.3076H44.6281C44.7656 78.0643 44.9613 77.8422 45.2152 77.6412C45.797 77.1863 46.4476 76.9589 47.1669 76.9589C48.1718 76.9589 48.9493 77.2498 49.4994 77.8316C50.06 78.4134 50.3403 79.2596 50.3403 80.3703V85.2892H48.1189V80.6877C48.1189 80.0953 47.9708 79.6457 47.6746 79.339C47.389 79.0216 46.9818 78.863 46.4529 78.863C45.9239 78.863 45.4744 79.0639 45.1041 79.4659C44.7339 79.8679 44.5488 80.3809 44.5488 81.005V85.2892H42.3274ZM54.4757 77.1969H56.7765L58.3632 83.3851H58.9979L60.7433 77.1969H63.044L59.7912 88.304H57.4905L58.3632 85.2892H56.6178L54.4757 77.1969ZM64.0723 84.2895C63.226 83.4539 62.8029 82.4384 62.8029 81.243C62.8029 80.0477 63.226 79.0375 64.0723 78.2124C64.9186 77.3767 65.9764 76.9589 67.2457 76.9589C68.5045 76.9589 69.5571 77.3767 70.4033 78.2124C71.2602 79.0375 71.6886 80.0477 71.6886 81.243C71.6886 82.4384 71.2602 83.4539 70.4033 84.2895C69.5571 85.1146 68.5045 85.5272 67.2457 85.5272C65.9764 85.5272 64.9186 85.1146 64.0723 84.2895ZM65.7225 79.5294C65.3099 79.9737 65.1037 80.5449 65.1037 81.243C65.1037 81.9412 65.3099 82.5124 65.7225 82.9567C66.135 83.401 66.6428 83.6231 67.2457 83.6231C67.8487 83.6231 68.3565 83.401 68.769 82.9567C69.1815 82.5124 69.3878 81.9412 69.3878 81.243C69.3878 80.5449 69.1815 79.9737 68.769 79.5294C68.3565 79.0851 67.8487 78.863 67.2457 78.863C66.6428 78.863 66.135 79.0851 65.7225 79.5294ZM72.3288 82.1157V77.1969H74.5503V81.7984C74.5503 82.3908 74.6931 82.8456 74.9787 83.163C75.2749 83.4697 75.6874 83.6231 76.2163 83.6231C76.7452 83.6231 77.1948 83.4221 77.565 83.0202C77.9353 82.6182 78.1204 82.1052 78.1204 81.481V77.1969H80.3418V85.2892H78.1204V84.1785H78.041C77.9141 84.4218 77.7184 84.6492 77.454 84.8608C76.8827 85.3051 76.2322 85.5272 75.5023 85.5272C74.4974 85.5272 73.7146 85.2363 73.1539 84.6545C72.6039 84.0727 72.3288 83.2264 72.3288 82.1157ZM81.7736 79.4183V74.1821H83.995V79.4183L83.5983 81.7984H82.1702L81.7736 79.4183ZM81.9798 85.1622C81.7365 84.9189 81.6149 84.6175 81.6149 84.2578C81.6149 83.8982 81.7365 83.5967 81.9798 83.3534C82.2231 83.1101 82.5246 82.9884 82.8843 82.9884C83.2439 82.9884 83.5454 83.1101 83.7887 83.3534C84.032 83.5967 84.1536 83.8982 84.1536 84.2578C84.1536 84.6175 84.032 84.9189 83.7887 85.1622C83.5454 85.4055 83.2439 85.5272 82.8843 85.5272C82.5246 85.5272 82.2231 85.4055 81.9798 85.1622ZM89.3948 85.2892V74.1821H97.7251V76.4035H91.7749V78.6249H96.5351V80.6877H91.7749V83.0678H97.7251V85.2892H89.3948ZM98.5959 85.2892V77.1969H100.817V78.3076H100.897C101.034 78.0643 101.23 77.8422 101.484 77.6412C102.066 77.1863 102.716 76.9589 103.435 76.9589C104.44 76.9589 105.218 77.2498 105.768 77.8316C106.329 78.4134 106.609 79.2596 106.609 80.3703V85.2892H104.387V80.6877C104.387 80.0953 104.239 79.6457 103.943 79.339C103.658 79.0216 103.25 78.863 102.721 78.863C102.193 78.863 101.743 79.0639 101.373 79.4659C101.002 79.8679 100.817 80.3809 100.817 81.005V85.2892H98.5959ZM107.852 75.8164C107.609 75.5731 107.487 75.2928 107.487 74.9755C107.487 74.6581 107.609 74.3831 107.852 74.1504C108.106 73.9071 108.407 73.7854 108.757 73.7854C109.106 73.7854 109.402 73.9071 109.645 74.1504C109.899 74.3831 110.026 74.6581 110.026 74.9755C110.026 75.2928 109.899 75.5731 109.645 75.8164C109.402 76.0492 109.106 76.1655 108.757 76.1655C108.407 76.1655 108.106 76.0492 107.852 75.8164ZM105.424 88.304V86.4792H107.646V77.1969H109.867V88.304H105.424ZM111.771 84.2895C110.925 83.4539 110.502 82.4384 110.502 81.243C110.502 80.0477 110.925 79.0375 111.771 78.2124C112.618 77.3767 113.675 76.9589 114.945 76.9589C116.204 76.9589 117.256 77.3767 118.102 78.2124C118.959 79.0375 119.388 80.0477 119.388 81.243C119.388 82.4384 118.959 83.4539 118.102 84.2895C117.256 85.1146 116.204 85.5272 114.945 85.5272C113.675 85.5272 112.618 85.1146 111.771 84.2895ZM113.422 79.5294C113.009 79.9737 112.803 80.5449 112.803 81.243C112.803 81.9412 113.009 82.5124 113.422 82.9567C113.834 83.401 114.342 83.6231 114.945 83.6231C115.548 83.6231 116.055 83.401 116.468 82.9567C116.881 82.5124 117.087 81.9412 117.087 81.243C117.087 80.5449 116.881 79.9737 116.468 79.5294C116.055 79.0851 115.548 78.863 114.945 78.863C114.342 78.863 113.834 79.0851 113.422 79.5294ZM119.314 77.1969H121.615L123.201 83.3851H123.836L125.581 77.1969H127.882L124.629 88.304H122.329L123.201 85.2892H121.456L119.314 77.1969ZM131.295 79.101V77.1969H132.326V75.4515H134.548V77.1969H136.832V79.101H134.548V83.3851H136.928V85.2892H132.326V79.101H131.295ZM137.555 85.2892V74.1821H139.776V78.3076H139.856C139.993 78.0643 140.189 77.8422 140.443 77.6412C141.025 77.1863 141.675 76.9589 142.394 76.9589C143.399 76.9589 144.177 77.2498 144.727 77.8316C145.288 78.4134 145.568 79.2596 145.568 80.3703V85.2892H143.346V80.6877C143.346 80.0953 143.198 79.6457 142.902 79.339C142.617 79.0216 142.209 78.863 141.68 78.863C141.152 78.863 140.702 79.0639 140.332 79.4659C139.961 79.8679 139.776 80.3809 139.776 81.005V85.2892H137.555ZM147.382 84.2895C146.547 83.4539 146.129 82.4384 146.129 81.243C146.129 80.0477 146.547 79.0375 147.382 78.2124C148.229 77.3767 149.265 76.9589 150.492 76.9589C151.741 76.9589 152.767 77.3714 153.571 78.1965C154.375 79.0216 154.776 80.0371 154.776 81.243V81.7191H148.43C148.514 82.248 148.752 82.6975 149.144 83.0678C149.535 83.438 149.985 83.6231 150.492 83.6231C151.053 83.6231 151.534 83.4645 151.936 83.1471C152.095 83.0096 152.222 82.8509 152.317 82.6711H154.697C154.517 83.2106 154.253 83.6866 153.904 84.0991C153.058 85.0512 151.92 85.5272 150.492 85.5272C149.265 85.5272 148.229 85.1146 147.382 84.2895ZM148.509 80.3703H152.396C152.312 79.9472 152.095 79.5928 151.746 79.3072C151.407 79.011 150.989 78.863 150.492 78.863C149.995 78.863 149.572 79.0058 149.223 79.2914C148.874 79.577 148.636 79.9366 148.509 80.3703ZM158.741 82.6711H161.042C161.116 82.8615 161.233 83.036 161.391 83.1947C161.73 83.5332 162.195 83.7025 162.788 83.7025C163.687 83.7025 164.136 83.438 164.136 82.9091C164.136 82.8245 164.115 82.7504 164.073 82.687C164.031 82.6129 163.956 82.5494 163.851 82.4966C163.745 82.4331 163.644 82.3802 163.549 82.3379C163.454 82.2956 163.311 82.2533 163.121 82.2109C162.941 82.1581 162.793 82.121 162.677 82.0999C162.571 82.0787 162.396 82.0417 162.153 81.9888C161.92 81.9359 161.751 81.8989 161.645 81.8777C159.974 81.5181 159.138 80.6983 159.138 79.4183C159.138 78.7413 159.44 78.1648 160.043 77.6888C160.656 77.2022 161.492 76.9589 162.55 76.9589C163.967 76.9589 165.03 77.3979 165.739 78.2759C166.046 78.6567 166.252 79.0904 166.358 79.577H164.136C164.062 79.4183 163.967 79.2861 163.851 79.1803C163.523 78.9158 163.089 78.7836 162.55 78.7836C162.169 78.7836 161.888 78.8471 161.709 78.974C161.529 79.0904 161.439 79.2385 161.439 79.4183C161.439 79.4818 161.449 79.5452 161.471 79.6087C161.502 79.6616 161.55 79.7145 161.613 79.7674C161.677 79.8097 161.74 79.852 161.804 79.8943C161.867 79.9261 161.957 79.9631 162.074 80.0054C162.19 80.0371 162.29 80.0689 162.375 80.1006C162.47 80.1323 162.592 80.1641 162.74 80.1958C162.888 80.2275 163.015 80.254 163.121 80.2751C163.227 80.2963 163.364 80.328 163.533 80.3703C163.703 80.4021 163.84 80.4285 163.946 80.4497C165.607 80.8199 166.437 81.6397 166.437 82.9091C166.437 83.6178 166.109 84.2314 165.453 84.7497C164.797 85.268 163.909 85.5272 162.788 85.5272C161.285 85.5272 160.175 85.0512 159.455 84.0991C159.128 83.6654 158.89 83.1894 158.741 82.6711ZM167.854 84.2895C167.018 83.4539 166.6 82.4384 166.6 81.243C166.6 80.0477 167.018 79.0375 167.854 78.2124C168.7 77.3767 169.736 76.9589 170.964 76.9589C172.212 76.9589 173.238 77.3714 174.042 78.1965C174.846 79.0216 175.248 80.0371 175.248 81.243V81.7191H168.901C168.985 82.248 169.223 82.6975 169.615 83.0678C170.006 83.438 170.456 83.6231 170.964 83.6231C171.524 83.6231 172.005 83.4645 172.407 83.1471C172.566 83.0096 172.693 82.8509 172.788 82.6711H175.168C174.989 83.2106 174.724 83.6866 174.375 84.0991C173.529 85.0512 172.392 85.5272 170.964 85.5272C169.736 85.5272 168.7 85.1146 167.854 84.2895ZM168.98 80.3703H172.868C172.783 79.9472 172.566 79.5928 172.217 79.3072C171.879 79.011 171.461 78.863 170.964 78.863C170.466 78.863 170.043 79.0058 169.694 79.2914C169.345 79.577 169.107 79.9366 168.98 80.3703ZM176.622 84.353C175.913 83.5597 175.559 82.523 175.559 81.243C175.559 79.9631 175.913 78.9317 176.622 78.1489C177.341 77.3556 178.23 76.9589 179.288 76.9589C179.996 76.9589 180.636 77.1704 181.208 77.5936C181.451 77.7946 181.657 78.0061 181.826 78.2283H181.906V77.1969H184.127V85.2892H181.906V84.2578H181.826C181.657 84.48 181.451 84.6915 181.208 84.8925C180.636 85.3156 179.996 85.5272 179.288 85.5272C178.23 85.5272 177.341 85.1358 176.622 84.353ZM178.415 79.4976C178.045 79.9208 177.86 80.5026 177.86 81.243C177.86 81.9835 178.045 82.5653 178.415 82.9884C178.785 83.4116 179.261 83.6231 179.843 83.6231C180.457 83.6231 180.954 83.4169 181.335 83.0043C181.715 82.5812 181.906 81.9941 181.906 81.243C181.906 80.492 181.715 79.9102 181.335 79.4976C180.954 79.0745 180.457 78.863 179.843 78.863C179.261 78.863 178.785 79.0745 178.415 79.4976ZM184.682 82.6711H186.983C187.057 82.8615 187.174 83.036 187.332 83.1947C187.671 83.5332 188.136 83.7025 188.729 83.7025C189.628 83.7025 190.077 83.438 190.077 82.9091C190.077 82.8245 190.056 82.7504 190.014 82.687C189.972 82.6129 189.898 82.5494 189.792 82.4966C189.686 82.4331 189.585 82.3802 189.49 82.3379C189.395 82.2956 189.252 82.2533 189.062 82.2109C188.882 82.1581 188.734 82.121 188.618 82.0999C188.512 82.0787 188.337 82.0417 188.094 81.9888C187.861 81.9359 187.692 81.8989 187.586 81.8777C185.915 81.5181 185.079 80.6983 185.079 79.4183C185.079 78.7413 185.381 78.1648 185.984 77.6888C186.597 77.2022 187.433 76.9589 188.491 76.9589C189.908 76.9589 190.971 77.3979 191.68 78.2759C191.987 78.6567 192.193 79.0904 192.299 79.577H190.077C190.003 79.4183 189.908 79.2861 189.792 79.1803C189.464 78.9158 189.03 78.7836 188.491 78.7836C188.11 78.7836 187.829 78.8471 187.65 78.974C187.47 79.0904 187.38 79.2385 187.38 79.4183C187.38 79.4818 187.39 79.5452 187.412 79.6087C187.443 79.6616 187.491 79.7145 187.554 79.7674C187.618 79.8097 187.681 79.852 187.745 79.8943C187.808 79.9261 187.898 79.9631 188.015 80.0054C188.131 80.0371 188.231 80.0689 188.316 80.1006C188.411 80.1323 188.533 80.1641 188.681 80.1958C188.829 80.2275 188.956 80.254 189.062 80.2751C189.168 80.2963 189.305 80.328 189.474 80.3703C189.644 80.4021 189.781 80.4285 189.887 80.4497C191.548 80.8199 192.378 81.6397 192.378 82.9091C192.378 83.6178 192.05 84.2314 191.394 84.7497C190.738 85.268 189.85 85.5272 188.729 85.5272C187.227 85.5272 186.116 85.0512 185.397 84.0991C185.069 83.6654 184.831 83.1894 184.682 82.6711ZM193.81 84.2895C192.964 83.4539 192.541 82.4384 192.541 81.243C192.541 80.0477 192.964 79.0375 193.81 78.2124C194.657 77.3767 195.715 76.9589 196.984 76.9589C198.243 76.9589 199.295 77.3767 200.142 78.2124C200.998 79.0375 201.427 80.0477 201.427 81.243C201.427 82.4384 200.998 83.4539 200.142 84.2895C199.295 85.1146 198.243 85.5272 196.984 85.5272C195.715 85.5272 194.657 85.1146 193.81 84.2895ZM195.461 79.5294C195.048 79.9737 194.842 80.5449 194.842 81.243C194.842 81.9412 195.048 82.5124 195.461 82.9567C195.873 83.401 196.381 83.6231 196.984 83.6231C197.587 83.6231 198.095 83.401 198.507 82.9567C198.92 82.5124 199.126 81.9412 199.126 81.243C199.126 80.5449 198.92 79.9737 198.507 79.5294C198.095 79.0851 197.587 78.863 196.984 78.863C196.381 78.863 195.873 79.0851 195.461 79.5294ZM202.067 85.2892V77.1969H204.288V78.3076H204.368C204.505 78.0643 204.701 77.8422 204.955 77.6412C205.537 77.1863 206.187 76.9589 206.907 76.9589C207.911 76.9589 208.689 77.2498 209.239 77.8316C209.8 78.4134 210.08 79.2596 210.08 80.3703V85.2892H207.859V80.6877C207.859 80.0953 207.71 79.6457 207.414 79.339C207.129 79.0216 206.721 78.863 206.193 78.863C205.664 78.863 205.214 79.0639 204.844 79.4659C204.474 79.8679 204.288 80.3809 204.288 81.005V85.2892H202.067ZM210.8 84.2578C210.8 83.8982 210.921 83.5967 211.165 83.3534C211.408 83.1101 211.709 82.9884 212.069 82.9884C212.45 82.9884 212.757 83.1365 212.989 83.4327C213.222 83.7183 213.338 84.152 213.338 84.7338C213.338 85.633 213.127 86.3206 212.704 86.7966C212.281 87.2726 211.699 87.5106 210.958 87.5106V86.5586C211.307 86.5586 211.577 86.4634 211.767 86.273C211.968 86.0931 212.069 85.8445 212.069 85.5272V85.3685L212.005 85.4161C211.921 85.4373 211.836 85.4479 211.752 85.4479C211.498 85.4479 211.276 85.3368 211.085 85.1146C210.895 84.8925 210.8 84.6069 210.8 84.2578ZM217.952 85.2892V74.1821H220.173V78.2283H220.252C220.422 78.0061 220.628 77.7946 220.871 77.5936C221.442 77.1704 222.082 76.9589 222.791 76.9589C223.849 76.9589 224.732 77.3556 225.441 78.1489C226.16 78.9317 226.52 79.9631 226.52 81.243C226.52 82.523 226.16 83.5597 225.441 84.353C224.732 85.1358 223.849 85.5272 222.791 85.5272C222.082 85.5272 221.442 85.3156 220.871 84.8925C220.628 84.6915 220.422 84.48 220.252 84.2578H220.173V85.2892H217.952ZM220.744 79.4976C220.363 79.9102 220.173 80.492 220.173 81.243C220.173 81.9941 220.363 82.5812 220.744 83.0043C221.125 83.4169 221.622 83.6231 222.236 83.6231C222.818 83.6231 223.294 83.4116 223.664 82.9884C224.034 82.5653 224.219 81.9835 224.219 81.243C224.219 80.5026 224.034 79.9208 223.664 79.4976C223.294 79.0745 222.818 78.863 222.236 78.863C221.622 78.863 221.125 79.0745 220.744 79.4976ZM228.011 84.2895C227.176 83.4539 226.758 82.4384 226.758 81.243C226.758 80.0477 227.176 79.0375 228.011 78.2124C228.858 77.3767 229.894 76.9589 231.121 76.9589C232.37 76.9589 233.396 77.3714 234.2 78.1965C235.004 79.0216 235.406 80.0371 235.406 81.243V81.7191H229.059C229.143 82.248 229.381 82.6975 229.773 83.0678C230.164 83.438 230.614 83.6231 231.121 83.6231C231.682 83.6231 232.163 83.4645 232.565 83.1471C232.724 83.0096 232.851 82.8509 232.946 82.6711H235.326C235.146 83.2106 234.882 83.6866 234.533 84.0991C233.687 85.0512 232.549 85.5272 231.121 85.5272C229.894 85.5272 228.858 85.1146 228.011 84.2895ZM229.138 80.3703H233.025C232.941 79.9472 232.724 79.5928 232.375 79.3072C232.036 79.011 231.619 78.863 231.121 78.863C230.624 78.863 230.201 79.0058 229.852 79.2914C229.503 79.577 229.265 79.9366 229.138 80.3703ZM236.891 84.2895C236.055 83.4539 235.637 82.4384 235.637 81.243C235.637 80.0477 236.055 79.0375 236.891 78.2124C237.737 77.3767 238.774 76.9589 240.001 76.9589C241.471 76.9589 242.593 77.4878 243.365 78.5456C243.714 79.0005 243.968 79.5294 244.126 80.1323H241.826C241.73 79.8996 241.603 79.6881 241.445 79.4976C241.043 79.0745 240.562 78.863 240.001 78.863C239.44 78.863 238.954 79.0851 238.541 79.5294C238.139 79.9737 237.938 80.5449 237.938 81.243C237.938 81.9412 238.139 82.5124 238.541 82.9567C238.954 83.401 239.44 83.6231 240.001 83.6231C240.562 83.6231 241.043 83.4116 241.445 82.9884C241.603 82.798 241.73 82.5865 241.826 82.3537H244.126C243.978 82.9673 243.735 83.4962 243.396 83.9405C242.624 84.9983 241.492 85.5272 240.001 85.5272C238.774 85.5272 237.737 85.1146 236.891 84.2895ZM245.427 84.353C244.718 83.5597 244.364 82.523 244.364 81.243C244.364 79.9631 244.718 78.9317 245.427 78.1489C246.146 77.3556 247.035 76.9589 248.093 76.9589C248.801 76.9589 249.441 77.1704 250.012 77.5936C250.256 77.7946 250.462 78.0061 250.631 78.2283H250.711V77.1969H252.932V85.2892H250.711V84.2578H250.631C250.462 84.48 250.256 84.6915 250.012 84.8925C249.441 85.3156 248.801 85.5272 248.093 85.5272C247.035 85.5272 246.146 85.1358 245.427 84.353ZM247.22 79.4976C246.85 79.9208 246.664 80.5026 246.664 81.243C246.664 81.9835 246.85 82.5653 247.22 82.9884C247.59 83.4116 248.066 83.6231 248.648 83.6231C249.261 83.6231 249.759 83.4169 250.139 83.0043C250.52 82.5812 250.711 81.9941 250.711 81.243C250.711 80.492 250.52 79.9102 250.139 79.4976C249.759 79.0745 249.261 78.863 248.648 78.863C248.066 78.863 247.59 79.0745 247.22 79.4976ZM254.043 82.1157V77.1969H256.264V81.7984C256.264 82.3908 256.407 82.8456 256.693 83.163C256.989 83.4697 257.401 83.6231 257.93 83.6231C258.459 83.6231 258.909 83.4221 259.279 83.0202C259.649 82.6182 259.834 82.1052 259.834 81.481V77.1969H262.056V85.2892H259.834V84.1785H259.755C259.628 84.4218 259.432 84.6492 259.168 84.8608C258.597 85.3051 257.946 85.5272 257.216 85.5272C256.211 85.5272 255.428 85.2363 254.868 84.6545C254.318 84.0727 254.043 83.2264 254.043 82.1157ZM262.615 82.6711H264.916C264.99 82.8615 265.106 83.036 265.265 83.1947C265.603 83.5332 266.069 83.7025 266.661 83.7025C267.56 83.7025 268.01 83.438 268.01 82.9091C268.01 82.8245 267.988 82.7504 267.946 82.687C267.904 82.6129 267.83 82.5494 267.724 82.4966C267.618 82.4331 267.518 82.3802 267.423 82.3379C267.327 82.2956 267.185 82.2533 266.994 82.2109C266.814 82.1581 266.666 82.121 266.55 82.0999C266.444 82.0787 266.27 82.0417 266.026 81.9888C265.794 81.9359 265.624 81.8989 265.518 81.8777C263.847 81.5181 263.011 80.6983 263.011 79.4183C263.011 78.7413 263.313 78.1648 263.916 77.6888C264.529 77.2022 265.365 76.9589 266.423 76.9589C267.84 76.9589 268.903 77.3979 269.612 78.2759C269.919 78.6567 270.125 79.0904 270.231 79.577H268.01C267.936 79.4183 267.84 79.2861 267.724 79.1803C267.396 78.9158 266.962 78.7836 266.423 78.7836C266.042 78.7836 265.762 78.8471 265.582 78.974C265.402 79.0904 265.312 79.2385 265.312 79.4183C265.312 79.4818 265.323 79.5452 265.344 79.6087C265.376 79.6616 265.423 79.7145 265.487 79.7674C265.55 79.8097 265.614 79.852 265.677 79.8943C265.741 79.9261 265.831 79.9631 265.947 80.0054C266.063 80.0371 266.164 80.0689 266.248 80.1006C266.344 80.1323 266.465 80.1641 266.613 80.1958C266.761 80.2275 266.888 80.254 266.994 80.2751C267.1 80.2963 267.237 80.328 267.407 80.3703C267.576 80.4021 267.713 80.4285 267.819 80.4497C269.48 80.8199 270.31 81.6397 270.31 82.9091C270.31 83.6178 269.982 84.2314 269.327 84.7497C268.671 85.268 267.782 85.5272 266.661 85.5272C265.159 85.5272 264.048 85.0512 263.329 84.0991C263.001 83.6654 262.763 83.1894 262.615 82.6711ZM271.727 84.2895C270.891 83.4539 270.473 82.4384 270.473 81.243C270.473 80.0477 270.891 79.0375 271.727 78.2124C272.573 77.3767 273.61 76.9589 274.837 76.9589C276.085 76.9589 277.111 77.3714 277.915 78.1965C278.719 79.0216 279.121 80.0371 279.121 81.243V81.7191H272.774C272.859 82.248 273.097 82.6975 273.488 83.0678C273.88 83.438 274.329 83.6231 274.837 83.6231C275.398 83.6231 275.879 83.4645 276.281 83.1471C276.439 83.0096 276.566 82.8509 276.662 82.6711H279.042C278.862 83.2106 278.597 83.6866 278.248 84.0991C277.402 85.0512 276.265 85.5272 274.837 85.5272C273.61 85.5272 272.573 85.1146 271.727 84.2895ZM272.853 80.3703H276.741C276.656 79.9472 276.439 79.5928 276.09 79.3072C275.752 79.011 275.334 78.863 274.837 78.863C274.34 78.863 273.917 79.0058 273.568 79.2914C273.218 79.577 272.98 79.9366 272.853 80.3703ZM284.435 84.2895C283.588 83.4539 283.165 82.4384 283.165 81.243C283.165 80.0477 283.588 79.0375 284.435 78.2124C285.281 77.3767 286.339 76.9589 287.608 76.9589C288.867 76.9589 289.919 77.3767 290.766 78.2124C291.623 79.0375 292.051 80.0477 292.051 81.243C292.051 82.4384 291.623 83.4539 290.766 84.2895C289.919 85.1146 288.867 85.5272 287.608 85.5272C286.339 85.5272 285.281 85.1146 284.435 84.2895ZM286.085 79.5294C285.672 79.9737 285.466 80.5449 285.466 81.243C285.466 81.9412 285.672 82.5124 286.085 82.9567C286.497 83.401 287.005 83.6231 287.608 83.6231C288.211 83.6231 288.719 83.401 289.131 82.9567C289.544 82.5124 289.75 81.9412 289.75 81.243C289.75 80.5449 289.544 79.9737 289.131 79.5294C288.719 79.0851 288.211 78.863 287.608 78.863C287.005 78.863 286.497 79.0851 286.085 79.5294ZM292.691 85.2892V77.1969H294.913V78.3076H294.992C295.13 78.0643 295.325 77.8422 295.579 77.6412C296.161 77.1863 296.811 76.9589 297.531 76.9589C298.536 76.9589 299.313 77.2498 299.863 77.8316C300.424 78.4134 300.704 79.2596 300.704 80.3703V85.2892H298.483V80.6877C298.483 80.0953 298.335 79.6457 298.038 79.339C297.753 79.0216 297.346 78.863 296.817 78.863C296.288 78.863 295.838 79.0639 295.468 79.4659C295.098 79.8679 294.913 80.3809 294.913 81.005V85.2892H292.691ZM301.741 85.2892V74.1821H303.963V83.3851H305.787V85.2892H301.741ZM305.475 77.1969H307.776L309.362 83.3851H309.997L311.742 77.1969H314.043L310.79 88.304H308.49L309.362 85.2892H307.617L305.475 77.1969ZM21.6707 104.194C20.9514 103.412 20.5917 102.401 20.5917 101.164C20.5917 99.9261 20.9514 98.9158 21.6707 98.1331C22.39 97.3503 23.2733 96.9589 24.3205 96.9589C25.0187 96.9589 25.6587 97.1757 26.2405 97.6094C26.4838 97.8104 26.69 98.022 26.8593 98.2441H26.9386V97.1969H29.16V108.304H21.7818V106.4H26.9386V104.083H26.8593C26.6795 104.337 26.4732 104.554 26.2405 104.734C25.6693 105.157 25.0293 105.369 24.3205 105.369C23.2733 105.369 22.39 104.977 21.6707 104.194ZM23.4637 99.4818C23.0829 99.8943 22.8925 100.455 22.8925 101.164C22.8925 101.872 23.0829 102.433 23.4637 102.846C23.8445 103.258 24.3417 103.464 24.9552 103.464C25.537 103.464 26.013 103.258 26.3833 102.846C26.7535 102.433 26.9386 101.872 26.9386 101.164C26.9386 100.455 26.7535 99.8943 26.3833 99.4818C26.013 99.0692 25.537 98.863 24.9552 98.863C24.3417 98.863 23.8445 99.0692 23.4637 99.4818ZM30.2708 105.289V97.1969H32.4922V98.3869H32.5715C32.6667 98.1331 32.8095 97.9109 32.9999 97.7205C33.4336 97.2657 33.9784 97.0382 34.6342 97.0382H35.5863V99.1803H34.3962C33.7933 99.1803 33.3226 99.3443 32.9841 99.6722C32.6561 99.9895 32.4922 100.434 32.4922 101.005V105.289H30.2708ZM36.86 104.29C36.0137 103.454 35.5906 102.438 35.5906 101.243C35.5906 100.048 36.0137 99.0375 36.86 98.2124C37.7062 97.3767 38.7641 96.9589 40.0334 96.9589C41.2922 96.9589 42.3448 97.3767 43.191 98.2124C44.0479 99.0375 44.4763 100.048 44.4763 101.243C44.4763 102.438 44.0479 103.454 43.191 104.29C42.3448 105.115 41.2922 105.527 40.0334 105.527C38.7641 105.527 37.7062 105.115 36.86 104.29ZM38.5102 99.5294C38.0976 99.9737 37.8914 100.545 37.8914 101.243C37.8914 101.941 38.0976 102.512 38.5102 102.957C38.9227 103.401 39.4305 103.623 40.0334 103.623C40.6364 103.623 41.1441 103.401 41.5567 102.957C41.9692 102.512 42.1755 101.941 42.1755 101.243C42.1755 100.545 41.9692 99.9737 41.5567 99.5294C41.1441 99.0851 40.6364 98.863 40.0334 98.863C39.4305 98.863 38.9227 99.0851 38.5102 99.5294ZM44.4818 97.1969H46.7826L47.8933 103.068H48.1313L49.3214 97.1969H52.1775L53.3675 103.068H53.6055L54.7162 97.1969H57.017L55.2716 105.289H51.9394L50.8287 99.7357H50.6701L49.5594 105.289H46.2272L44.4818 97.1969ZM56.8632 99.101V97.1969H57.8946V95.4515H60.116V97.1969H62.4009V99.101H60.116V103.385H62.4961V105.289H57.8946V99.101H56.8632ZM63.1234 105.289V94.1821H65.3448V98.3076H65.4241C65.5616 98.0643 65.7573 97.8422 66.0112 97.6412C66.593 97.1863 67.2436 96.9589 67.9629 96.9589C68.9678 96.9589 69.7453 97.2498 70.2954 97.8316C70.856 98.4134 71.1363 99.2596 71.1363 100.37V105.289H68.9149V100.688C68.9149 100.095 68.7668 99.6457 68.4706 99.339C68.185 99.0216 67.7778 98.863 67.2488 98.863C66.7199 98.863 66.2704 99.0639 65.9001 99.4659C65.5299 99.8679 65.3448 100.381 65.3448 101.005V105.289H63.1234ZM76.6522 104.353C75.9434 103.56 75.5891 102.523 75.5891 101.243C75.5891 99.9631 75.9434 98.9317 76.6522 98.1489C77.3715 97.3556 78.26 96.9589 79.3179 96.9589C80.0266 96.9589 80.6666 97.1704 81.2378 97.5936C81.4811 97.7946 81.6874 98.0061 81.8566 98.2283H81.936V97.1969H84.1574V105.289H81.936V104.258H81.8566C81.6874 104.48 81.4811 104.692 81.2378 104.893C80.6666 105.316 80.0266 105.527 79.3179 105.527C78.26 105.527 77.3715 105.136 76.6522 104.353ZM78.4452 99.4976C78.0749 99.9208 77.8898 100.503 77.8898 101.243C77.8898 101.984 78.0749 102.565 78.4452 102.988C78.8154 103.412 79.2914 103.623 79.8732 103.623C80.4867 103.623 80.9839 103.417 81.3647 103.004C81.7455 102.581 81.936 101.994 81.936 101.243C81.936 100.492 81.7455 99.9102 81.3647 99.4976C80.9839 99.0745 80.4867 98.863 79.8732 98.863C79.2914 98.863 78.8154 99.0745 78.4452 99.4976ZM85.2681 105.289V97.1969H87.4895V98.3076H87.5688C87.7063 98.0643 87.902 97.8422 88.1559 97.6412C88.7377 97.1863 89.3883 96.9589 90.1076 96.9589C91.1125 96.9589 91.89 97.2498 92.4401 97.8316C93.0007 98.4134 93.281 99.2596 93.281 100.37V105.289H91.0596V100.688C91.0596 100.095 90.9115 99.6457 90.6153 99.339C90.3297 99.0216 89.9225 98.863 89.3936 98.863C88.8646 98.863 88.4151 99.0639 88.0448 99.4659C87.6746 99.8679 87.4895 100.381 87.4895 101.005V105.289H85.2681ZM94.9844 104.353C94.2757 103.56 93.9213 102.523 93.9213 101.243C93.9213 99.9631 94.2757 98.9317 94.9844 98.1489C95.7037 97.3556 96.5923 96.9589 97.6501 96.9589C98.3588 96.9589 98.9988 97.1704 99.57 97.5936C99.8133 97.7946 100.02 98.0061 100.189 98.2283H100.268V94.1821H102.49V105.289H100.268V104.258H100.189C100.02 104.48 99.8133 104.692 99.57 104.893C98.9988 105.316 98.3588 105.527 97.6501 105.527C96.5923 105.527 95.7037 105.136 94.9844 104.353ZM96.7774 99.4976C96.4072 99.9208 96.222 100.503 96.222 101.243C96.222 101.984 96.4072 102.565 96.7774 102.988C97.1476 103.412 97.6237 103.623 98.2055 103.623C98.819 103.623 99.3162 103.417 99.697 103.004C100.078 102.581 100.268 101.994 100.268 101.243C100.268 100.492 100.078 99.9102 99.697 99.4976C99.3162 99.0745 98.819 98.863 98.2055 98.863C97.6237 98.863 97.1476 99.0745 96.7774 99.4976ZM108.19 104.29C107.355 103.454 106.937 102.438 106.937 101.243C106.937 100.048 107.355 99.0375 108.19 98.2124C109.037 97.3767 110.073 96.9589 111.3 96.9589C112.771 96.9589 113.892 97.4878 114.664 98.5456C115.013 99.0005 115.267 99.5294 115.426 100.132H113.125C113.03 99.8996 112.903 99.6881 112.744 99.4976C112.342 99.0745 111.861 98.863 111.3 98.863C110.74 98.863 110.253 99.0851 109.84 99.5294C109.438 99.9737 109.238 100.545 109.238 101.243C109.238 101.941 109.438 102.512 109.84 102.957C110.253 103.401 110.74 103.623 111.3 103.623C111.861 103.623 112.342 103.412 112.744 102.988C112.903 102.798 113.03 102.586 113.125 102.354H115.426C115.278 102.967 115.034 103.496 114.696 103.94C113.924 104.998 112.792 105.527 111.3 105.527C110.073 105.527 109.037 105.115 108.19 104.29ZM116.853 104.29C116.007 103.454 115.584 102.438 115.584 101.243C115.584 100.048 116.007 99.0375 116.853 98.2124C117.699 97.3767 118.757 96.9589 120.027 96.9589C121.285 96.9589 122.338 97.3767 123.184 98.2124C124.041 99.0375 124.469 100.048 124.469 101.243C124.469 102.438 124.041 103.454 123.184 104.29C122.338 105.115 121.285 105.527 120.027 105.527C118.757 105.527 117.699 105.115 116.853 104.29ZM118.503 99.5294C118.091 99.9737 117.885 100.545 117.885 101.243C117.885 101.941 118.091 102.512 118.503 102.957C118.916 103.401 119.424 103.623 120.027 103.623C120.63 103.623 121.137 103.401 121.55 102.957C121.962 102.512 122.169 101.941 122.169 101.243C122.169 100.545 121.962 99.9737 121.55 99.5294C121.137 99.0851 120.63 98.863 120.027 98.863C119.424 98.863 118.916 99.0851 118.503 99.5294ZM125.11 105.289V97.1969H127.331V98.3076H127.41C127.559 98.0431 127.738 97.821 127.95 97.6412C128.468 97.1863 129.082 96.9589 129.791 96.9589C130.637 96.9589 131.346 97.2128 131.917 97.7205C132.149 97.9427 132.34 98.1912 132.488 98.4663H132.567C132.715 98.1912 132.906 97.9427 133.139 97.7205C133.71 97.2128 134.392 96.9589 135.185 96.9589C136.159 96.9589 136.915 97.2551 137.454 97.8475C138.004 98.4292 138.28 99.2702 138.28 100.37V105.289H136.058V100.608C136.058 99.4448 135.556 98.863 134.551 98.863C134.064 98.863 133.652 99.0534 133.313 99.4342C132.975 99.815 132.805 100.312 132.805 100.926V105.289H130.584V100.608C130.584 99.4448 130.081 98.863 129.077 98.863C128.59 98.863 128.177 99.0534 127.839 99.4342C127.5 99.815 127.331 100.312 127.331 100.926V105.289H125.11ZM138.669 99.2596V97.3556H139.701V94.1821H144.223V96.0862H141.922V97.3556H143.747V99.2596H141.922V105.289H139.701V99.2596H138.669ZM145.181 104.29C144.334 103.454 143.911 102.438 143.911 101.243C143.911 100.048 144.334 99.0375 145.181 98.2124C146.027 97.3767 147.085 96.9589 148.354 96.9589C149.613 96.9589 150.665 97.3767 151.512 98.2124C152.368 99.0375 152.797 100.048 152.797 101.243C152.797 102.438 152.368 103.454 151.512 104.29C150.665 105.115 149.613 105.527 148.354 105.527C147.085 105.527 146.027 105.115 145.181 104.29ZM146.831 99.5294C146.418 99.9737 146.212 100.545 146.212 101.243C146.212 101.941 146.418 102.512 146.831 102.957C147.243 103.401 147.751 103.623 148.354 103.623C148.957 103.623 149.465 103.401 149.877 102.957C150.29 102.512 150.496 101.941 150.496 101.243C150.496 100.545 150.29 99.9737 149.877 99.5294C149.465 99.0851 148.957 98.863 148.354 98.863C147.751 98.863 147.243 99.0851 146.831 99.5294ZM153.437 105.289V97.1969H155.658V98.3869H155.738C155.833 98.1331 155.976 97.9109 156.166 97.7205C156.6 97.2657 157.145 97.0382 157.801 97.0382H158.753V99.1803H157.563C156.96 99.1803 156.489 99.3443 156.15 99.6722C155.822 99.9895 155.658 100.434 155.658 101.005V105.289H153.437ZM158.598 99.101V97.1969H159.63V95.4515H161.851V97.1969H164.136V99.101H161.851V103.385H164.231V105.289H159.63V99.101H158.598ZM168.671 105.289V94.1821H170.892V103.385H172.717V105.289H168.671ZM173.325 95.8164C173.082 95.5731 172.96 95.2928 172.96 94.9755C172.96 94.6581 173.082 94.3831 173.325 94.1504C173.579 93.9071 173.88 93.7854 174.229 93.7854C174.578 93.7854 174.875 93.9071 175.118 94.1504C175.372 94.3831 175.499 94.6581 175.499 94.9755C175.499 95.2928 175.372 95.5731 175.118 95.8164C174.875 96.0492 174.578 96.1655 174.229 96.1655C173.88 96.1655 173.579 96.0492 173.325 95.8164ZM173.119 105.289V97.1969H175.34V105.289H173.119ZM177.228 104.29C176.393 103.454 175.975 102.438 175.975 101.243C175.975 100.048 176.393 99.0375 177.228 98.2124C178.074 97.3767 179.111 96.9589 180.338 96.9589C181.586 96.9589 182.613 97.3714 183.416 98.1965C184.22 99.0216 184.622 100.037 184.622 101.243V101.719H178.275C178.36 102.248 178.598 102.698 178.99 103.068C179.381 103.438 179.83 103.623 180.338 103.623C180.899 103.623 181.38 103.464 181.782 103.147C181.941 103.01 182.068 102.851 182.163 102.671H184.543C184.363 103.211 184.099 103.687 183.75 104.099C182.903 105.051 181.766 105.527 180.338 105.527C179.111 105.527 178.074 105.115 177.228 104.29ZM178.355 100.37H182.242C182.158 99.9472 181.941 99.5928 181.592 99.3072C181.253 99.011 180.835 98.863 180.338 98.863C179.841 98.863 179.418 99.0058 179.069 99.2914C178.72 99.577 178.482 99.9366 178.355 100.37ZM189.809 104.353C189.1 103.56 188.746 102.523 188.746 101.243C188.746 99.9631 189.1 98.9317 189.809 98.1489C190.528 97.3556 191.417 96.9589 192.475 96.9589C193.184 96.9589 193.824 97.1704 194.395 97.5936C194.638 97.7946 194.844 98.0061 195.014 98.2283H195.093V97.1969H197.314V105.289H195.093V104.258H195.014C194.844 104.48 194.638 104.692 194.395 104.893C193.824 105.316 193.184 105.527 192.475 105.527C191.417 105.527 190.528 105.136 189.809 104.353ZM191.602 99.4976C191.232 99.9208 191.047 100.503 191.047 101.243C191.047 101.984 191.232 102.565 191.602 102.988C191.972 103.412 192.448 103.623 193.03 103.623C193.644 103.623 194.141 103.417 194.522 103.004C194.902 102.581 195.093 101.994 195.093 101.243C195.093 100.492 194.902 99.9102 194.522 99.4976C194.141 99.0745 193.644 98.863 193.03 98.863C192.448 98.863 191.972 99.0745 191.602 99.4976ZM198.425 105.289V94.1821H200.646V98.3076H200.726C200.863 98.0643 201.059 97.8422 201.313 97.6412C201.895 97.1863 202.545 96.9589 203.265 96.9589C204.269 96.9589 205.047 97.2498 205.597 97.8316C206.158 98.4134 206.438 99.2596 206.438 100.37V105.289H204.217V100.688C204.217 100.095 204.068 99.6457 203.772 99.339C203.487 99.0216 203.079 98.863 202.55 98.863C202.022 98.863 201.572 99.0639 201.202 99.4659C200.832 99.8679 200.646 100.381 200.646 101.005V105.289H198.425ZM208.252 104.29C207.417 103.454 206.999 102.438 206.999 101.243C206.999 100.048 207.417 99.0375 208.252 98.2124C209.099 97.3767 210.135 96.9589 211.362 96.9589C212.611 96.9589 213.637 97.3714 214.441 98.1965C215.245 99.0216 215.647 100.037 215.647 101.243V101.719H209.3C209.384 102.248 209.622 102.698 210.014 103.068C210.405 103.438 210.855 103.623 211.362 103.623C211.923 103.623 212.404 103.464 212.806 103.147C212.965 103.01 213.092 102.851 213.187 102.671H215.567C215.387 103.211 215.123 103.687 214.774 104.099C213.928 105.051 212.79 105.527 211.362 105.527C210.135 105.527 209.099 105.115 208.252 104.29ZM209.379 100.37H213.266C213.182 99.9472 212.965 99.5928 212.616 99.3072C212.277 99.011 211.86 98.863 211.362 98.863C210.865 98.863 210.442 99.0058 210.093 99.2914C209.744 99.577 209.506 99.9366 209.379 100.37ZM217.021 104.353C216.312 103.56 215.958 102.523 215.958 101.243C215.958 99.9631 216.312 98.9317 217.021 98.1489C217.74 97.3556 218.629 96.9589 219.686 96.9589C220.395 96.9589 221.035 97.1704 221.606 97.5936C221.85 97.7946 222.056 98.0061 222.225 98.2283H222.305V97.1969H224.526V105.289H222.305V104.258H222.225C222.056 104.48 221.85 104.692 221.606 104.893C221.035 105.316 220.395 105.527 219.686 105.527C218.629 105.527 217.74 105.136 217.021 104.353ZM218.814 99.4976C218.444 99.9208 218.258 100.503 218.258 101.243C218.258 101.984 218.444 102.565 218.814 102.988C219.184 103.412 219.66 103.623 220.242 103.623C220.855 103.623 221.353 103.417 221.733 103.004C222.114 102.581 222.305 101.994 222.305 101.243C222.305 100.492 222.114 99.9102 221.733 99.4976C221.353 99.0745 220.855 98.863 220.242 98.863C219.66 98.863 219.184 99.0745 218.814 99.4976ZM226.303 104.353C225.594 103.56 225.24 102.523 225.24 101.243C225.24 99.9631 225.594 98.9317 226.303 98.1489C227.022 97.3556 227.911 96.9589 228.969 96.9589C229.678 96.9589 230.318 97.1704 230.889 97.5936C231.132 97.7946 231.338 98.0061 231.508 98.2283H231.587V94.1821H233.808V105.289H231.587V104.258H231.508C231.338 104.48 231.132 104.692 230.889 104.893C230.318 105.316 229.678 105.527 228.969 105.527C227.911 105.527 227.022 105.136 226.303 104.353ZM228.096 99.4976C227.726 99.9208 227.541 100.503 227.541 101.243C227.541 101.984 227.726 102.565 228.096 102.988C228.466 103.412 228.942 103.623 229.524 103.623C230.138 103.623 230.635 103.417 231.016 103.004C231.396 102.581 231.587 101.994 231.587 101.243C231.587 100.492 231.396 99.9102 231.016 99.4976C230.635 99.0745 230.138 98.863 229.524 98.863C228.942 98.863 228.466 99.0745 228.096 99.4976ZM234.967 105.162C234.723 104.919 234.602 104.617 234.602 104.258C234.602 103.898 234.723 103.597 234.967 103.353C235.21 103.11 235.511 102.988 235.871 102.988C236.231 102.988 236.532 103.11 236.775 103.353C237.019 103.597 237.14 103.898 237.14 104.258C237.14 104.617 237.019 104.919 236.775 105.162C236.532 105.406 236.231 105.527 235.871 105.527C235.511 105.527 235.21 105.406 234.967 105.162Z" fill="#2E2A1D"></path><path d="M20.6535 34.2847H24.7409C24.8699 34.6433 25.0636 34.9516 25.3217 35.2098C25.924 35.8121 26.7702 36.1133 27.8602 36.1133C28.6203 36.1133 29.1867 35.9914 29.5596 35.7476C29.9325 35.5038 30.1189 35.1954 30.1189 34.8225C30.1189 34.6648 30.0759 34.5214 29.9899 34.3923C29.9182 34.2489 29.7891 34.1198 29.6027 34.0051C29.4306 33.8903 29.2585 33.7971 29.0864 33.7254C28.9143 33.6394 28.6633 33.5533 28.3334 33.4673C28.0179 33.3669 27.7526 33.288 27.5375 33.2306C27.3223 33.1733 27.0068 33.0944 26.5909 32.994C26.1894 32.8936 25.881 32.8147 25.6659 32.7574C24.3035 32.3845 23.2135 31.8682 22.396 31.2085C21.5929 30.5488 21.1913 29.6022 21.1913 28.3688C21.1913 27.0638 21.7507 25.9523 22.8693 25.0344C24.0023 24.1022 25.5225 23.6361 27.4299 23.6361C29.868 23.6361 31.6893 24.4249 32.894 26.0025C33.4247 26.6909 33.7904 27.4797 33.9912 28.3688H29.9038C29.8178 28.1394 29.6744 27.9243 29.4736 27.7235C29.0146 27.2932 28.3334 27.0781 27.4299 27.0781C26.7272 27.0781 26.2109 27.1857 25.881 27.4008C25.5512 27.6016 25.3862 27.8525 25.3862 28.1537C25.3862 28.5553 25.6229 28.878 26.0961 29.1218C26.5838 29.3512 27.2937 29.5735 28.2259 29.7887C28.7708 29.9177 29.1581 30.0181 29.3875 30.0898C29.6313 30.1472 30.0114 30.2619 30.5277 30.434C31.0583 30.5918 31.4599 30.7424 31.7324 30.8858C32.0049 31.0292 32.3275 31.23 32.7004 31.4881C33.0876 31.7319 33.3745 31.9973 33.5609 32.2841C33.7617 32.5566 33.9338 32.8936 34.0772 33.2952C34.235 33.6967 34.3138 34.1341 34.3138 34.6074C34.3138 35.9842 33.7474 37.153 32.6144 38.1139C31.4814 39.0748 29.8967 39.5552 27.8602 39.5552C25.3074 39.5552 23.3426 38.6804 21.9658 36.9307C21.3778 36.1706 20.9404 35.2886 20.6535 34.2847ZM34.3231 27.7235V24.0664H47.7683V27.7235H43.0356V39.125H39.0558V27.7235H34.3231ZM48.5111 39.125V24.0664H60.1278V27.7235H52.4909V29.9823H58.6219V33.2091H52.4909V35.4679H60.1278V39.125H48.5111ZM61.516 39.125V24.0664H68.8302C70.6802 24.0664 72.1789 24.597 73.3262 25.6583C74.4879 26.7052 75.0687 28.0031 75.0687 29.552C75.0687 31.1009 74.4879 32.406 73.3262 33.4673C72.1789 34.5142 70.6802 35.0377 68.8302 35.0377H65.4958V39.125H61.516ZM65.4958 31.3806H68.7226C69.4684 31.3806 70.0277 31.2156 70.4006 30.8858C70.7878 30.5559 70.9814 30.1113 70.9814 29.552C70.9814 28.9927 70.7878 28.5481 70.4006 28.2183C70.0277 27.8884 69.4684 27.7235 68.7226 27.7235H65.4958V31.3806ZM79.7931 36.5435V33.1016L84.8484 24.0664H89.2585L84.2031 33.1016H87.645V29.7671H87.8602H91.6248V33.1016H93.5609V36.5435H91.6248V39.125H87.645V36.5435H79.7931ZM94.1211 38.8884C93.7482 38.5155 93.5618 38.0566 93.5618 37.5116C93.5618 36.9666 93.7482 36.5077 94.1211 36.1348C94.494 35.7619 94.9529 35.5755 95.4979 35.5755C96.0429 35.5755 96.5018 35.7619 96.8747 36.1348C97.2475 36.5077 97.434 36.9666 97.434 37.5116C97.434 38.0566 97.2475 38.5155 96.8747 38.8884C96.5018 39.2612 96.0429 39.4477 95.4979 39.4477C94.9529 39.4477 94.494 39.2612 94.1211 38.8884ZM94.1211 31.0579C93.7482 30.685 93.5618 30.2261 93.5618 29.6811C93.5618 29.1361 93.7482 28.6772 94.1211 28.3043C94.494 27.9314 94.9529 27.745 95.4979 27.745C96.0429 27.745 96.5018 27.9314 96.8747 28.3043C97.2475 28.6772 97.434 29.1361 97.434 29.6811C97.434 30.2261 97.2475 30.685 96.8747 31.0579C96.5018 31.4308 96.0429 31.6172 95.4979 31.6172C94.9529 31.6172 94.494 31.4308 94.1211 31.0579Z" fill="#2E2A1D"></path></svg> 