<?xml version="1.0" encoding="UTF-8"?> <svg xmlns="http://www.w3.org/2000/svg" width="67" height="68" viewBox="0 0 67 68" fill="none"><path fill-rule="evenodd" clip-rule="evenodd" d="M32.0975 5.90841L29.3854 1.21084L24.8419 1.35519C12.9418 1.73328 6.99184 1.92233 3.41244 5.73665C-0.166966 9.55096 0.0220784 15.501 0.400168 27.401L0.631201 34.6726H3.47031L0.77929 39.3336L0.884002 42.6293C1.26209 54.5293 1.45114 60.4793 5.26545 64.0587C9.07977 67.6381 15.0298 67.4491 26.9298 67.071L32.915 66.8808L34.9033 63.437L36.8199 66.7567L42.1581 66.5871C54.0581 66.2091 60.0081 66.02 63.5875 62.2057C67.1669 58.3914 66.9779 52.4414 66.5998 40.5413L66.3687 33.2696H63.5305L66.2207 28.6099L66.116 25.3131C65.7379 13.413 65.5488 7.46303 61.7345 3.88363C57.9202 0.304225 51.9702 0.49327 40.0701 0.871359L34.911 1.03528L32.0975 5.90841Z" fill="url(#paint0_linear_10_2355)"></path><path d="M29.6436 16.2889C27.8141 17.1829 26.2965 17.9729 26.2965 18.0561C26.2757 18.2848 31.2444 20.7172 31.7018 20.7172C31.9305 20.7172 32.4294 20.5716 32.8244 20.4261C33.4689 20.1558 33.6352 20.1558 34.2797 20.4261C34.6747 20.5716 35.2153 20.7172 35.4647 20.7172C36.0053 20.7172 40.4959 18.5966 40.7037 18.2432C40.8909 17.9521 34.3837 14.6881 33.5937 14.6881C33.261 14.6881 31.4939 15.4158 29.6436 16.2889Z" fill="white"></path><path d="M19.2288 21.4448L16.5054 22.7754V28.4718C16.5054 34.376 16.5885 35.4779 17.0251 35.4779C17.1706 35.4779 18.418 34.9166 19.8109 34.2305L22.3265 33.0039V29.4489C22.3265 26.6838 22.3889 25.9146 22.5968 25.9146C22.7423 25.9146 24.3639 26.6215 26.1934 27.4739C28.0021 28.3262 29.6861 29.0331 29.9148 29.0331C30.3721 29.0331 34.8835 26.9125 35.0706 26.6007C35.1954 26.4136 22.7631 20.0935 22.2433 20.0935C22.0978 20.0935 20.7257 20.6964 19.2288 21.4448Z" fill="white"></path><path d="M42.1384 21.4031C40.7247 22.1099 39.5812 22.7336 39.5812 22.796C39.5812 22.8584 40.7662 23.5029 42.2423 24.2305L44.8826 25.561L38.9575 28.4716C35.6935 30.0932 29.3319 33.2117 24.8205 35.4154L16.6085 39.4486L16.5462 40.7376C16.5046 41.4444 16.5254 42.7126 16.6085 43.5442L16.7541 45.041L17.6896 45.6024C18.2094 45.8934 19.4775 46.5171 20.5378 46.9745L22.4297 47.7853L25.07 46.4755C26.5461 45.7479 27.7311 45.1034 27.7311 45.041C27.7311 44.9787 26.5253 44.3134 25.0284 43.5857L22.3257 42.2344L36.2549 35.3946C48.5624 29.3656 50.2048 28.4924 50.3295 28.0142C50.4127 27.7232 50.4751 26.3926 50.4751 25.0829L50.4958 22.6921L47.8971 21.3823C46.4834 20.6754 45.1737 20.0933 44.9866 20.1141C44.8202 20.1141 43.5313 20.6962 42.1384 21.4031Z" fill="white"></path><path d="M47.6479 33.5234L44.9868 34.854V38.4922C44.9868 40.488 44.9452 42.1304 44.8829 42.1304C44.8205 42.1304 43.1365 41.3196 41.1407 40.3217L37.5025 38.4922L34.7998 39.8435C33.3238 40.5712 32.0972 41.2364 32.0972 41.2988C32.0972 41.4651 37.0451 44.0015 41.2031 45.9765L45.0284 47.7644L47.8142 46.4131L50.6 45.0617L50.5793 39.0743C50.5585 35.7895 50.4961 32.8789 50.4337 32.6503C50.2882 32.2137 50.1842 32.2553 47.6479 33.5234Z" fill="white"></path><path d="M28.9375 48.2844C27.4614 49.012 26.2764 49.6773 26.2764 49.7397C26.2764 49.906 32.9915 53.1492 33.3865 53.1492C33.823 53.1492 36.401 52.0473 38.9373 50.7583C40.4134 50.0307 40.8292 49.7397 40.6005 49.5941C40.4342 49.4694 39.2908 48.8665 38.0434 48.2428C36.2139 47.3073 35.6525 47.0994 35.1328 47.2241C33.4696 47.5567 33.1578 47.5567 32.5549 47.2449C32.2014 47.0578 31.8272 46.9122 31.7441 46.933C31.6609 46.933 30.3927 47.5359 28.9375 48.2844Z" fill="white"></path><defs><linearGradient id="paint0_linear_10_2355" x1="34.5437" y1="66.8291" x2="32.4558" y2="1.11335" gradientUnits="userSpaceOnUse"><stop stop-color="#C98F00"></stop><stop offset="1" stop-color="#FF6C17"></stop></linearGradient></defs></svg> 