<?xml version="1.0" encoding="UTF-8"?> <svg xmlns="http://www.w3.org/2000/svg" width="190" height="300" viewBox="0 0 190 300" fill="none"><path d="M23.3411 216.42C23.2959 216.503 23.3185 216.518 23.3938 216.488C23.3938 216.397 23.3712 216.367 23.3411 216.42Z" fill="#515151"></path><path d="M176.37 78.9498L171.811 78.5806L166.228 66.8039C166.228 66.8039 153.351 49.753 140.602 42.0978C127.854 34.4425 118.714 31.8205 118.714 31.8205L121.366 27.5935C121.366 27.5935 127.726 21.8747 127.432 20.7294C127.138 19.5842 119.438 3.09832 119.438 3.09832C111.149 -2.86913 67.4484 3.03804 65.8058 3.79151C64.1633 4.54498 58.4369 20.6767 58.4369 20.6767L65.6175 27.9929L66.386 32.0314C66.386 32.0314 63.6811 33.1767 58.4369 34.985C53.1928 36.7934 47.1048 42.2183 34.0774 51.8175C21.0499 61.4166 17.5237 73.7735 17.5237 73.7735C17.5237 73.7735 1.90435 77.6312 1.74612 76.275C1.5879 74.9188 1.88928 83.6288 1.88928 83.6288C1.88928 83.6288 8.41429 86.5749 15.7003 89.7696C15.6928 89.8299 15.6777 89.8977 15.6702 89.9655C15.6174 90.7416 15.5798 91.5252 15.5647 92.3012C15.5346 92.4369 15.5195 92.58 15.5195 92.7307C15.4969 95.9028 15.4667 99.0674 15.4441 102.239C15.4441 102.722 15.5873 103.098 15.8209 103.385C15.9866 108.742 16.8832 114.076 17.9758 119.313C18.5258 121.95 19.106 124.587 19.6937 127.217C18.7142 127.239 18.0587 127.285 18.0587 127.285L27.7106 213.044L26.0002 214.393C26.0002 214.393 23.8001 216.307 23.3706 216.488C23.4309 217.422 22.3384 225.326 22.3384 225.326C22.3384 225.326 23.7398 226.803 25.4351 226.803C27.1304 226.803 26.0906 228.799 26.0906 228.799L20.4848 286.236L17.3353 287.683L17.373 291.623L17.3353 298.065H172.233V287.871C172.233 287.871 166.898 284.066 167.373 283.637C167.848 283.215 158.61 227.548 157.563 226.418C156.516 225.288 160.08 224.196 160.08 224.196L162.95 221.604L158.61 217.648C158.61 217.648 176.694 93.4314 176.354 92.7985C176.015 92.1656 177.756 91.3971 177.756 91.3971L188.124 88.662L188.312 82.2048L176.354 78.9272L176.37 78.9498ZM110.238 20.2924C110.313 16.3895 116.371 16.3895 116.296 20.2924C116.25 22.6282 115.55 25.1222 115.934 27.4353C116.205 29.0553 115.535 30.6903 113.817 31.165C112.355 31.5643 110.358 30.6677 110.087 29.0477C109.59 26.064 110.177 23.2762 110.238 20.2924ZM97.1576 20.0363C97.1576 18.3937 98.544 17.0073 100.187 17.0073C100.39 17.0073 100.586 17.0299 100.774 17.0676C102.552 16.4045 104.994 17.3087 105.016 19.7801C105.039 22.1384 105.167 24.4139 104.655 26.7421C104.3 28.347 102.447 29.2738 100.925 28.8593C100.435 28.7237 100.021 28.4675 99.6892 28.1436C98.2803 27.8949 97.1651 26.6291 97.1651 25.1674V20.0363H97.1576ZM85.2754 17.369C86.7974 16.9546 88.651 17.8889 89.0051 19.4862C89.525 21.8144 89.3893 24.0899 89.3667 26.4483C89.3366 30.3512 83.2712 30.3512 83.3089 26.4483C83.324 24.6776 83.55 22.8467 83.1582 21.0986C82.804 19.4938 83.6253 17.8211 85.2754 17.369ZM68.6389 20.0061C69.6636 18.0697 72.1425 18.1526 73.6042 19.4335C74.433 20.1568 74.6289 21.3322 74.3577 22.3645C74.418 22.6508 74.4782 22.9371 74.5461 23.231C74.7344 24.0447 74.9529 24.8434 75.1564 25.6496C75.5708 27.2997 74.6289 28.8594 73.0391 29.3792C71.5021 29.8765 69.7013 28.7991 69.3095 27.262C68.9704 25.9359 68.5937 24.6173 68.3676 23.2611C68.1793 22.1158 68.0738 21.0836 68.6389 20.0136V20.0061ZM151.761 216.269L119.453 225.959H52.3941L37.9426 220.187C37.9426 220.187 32.5855 166.623 30.1593 141.525C30.8676 141.164 31.395 140.418 31.184 139.423C30.4306 135.859 29.6922 132.288 28.9613 128.709C28.9613 128.694 28.9613 128.679 28.9538 128.671C28.0722 124.346 27.2133 120.014 26.3694 115.681C25.5933 108.252 24.8097 100.815 24.0337 93.3862C29.4209 95.6918 33.9568 97.5529 35.0192 97.7337C37.9954 98.2536 41.4689 99.1578 41.4689 99.1578C51.6482 104.877 129.722 102.111 129.722 102.111L144.973 100.906C144.973 100.906 165.143 97.2666 165.392 95.737C164.954 98.2386 151.754 216.262 151.754 216.262L151.761 216.269Z" fill="#515151"></path><path d="M175.202 78.5806C174.072 79.5074 171.811 80.7054 171.811 80.7054C171.811 80.7054 170.885 68.6499 154.768 53.7388C138.651 38.8277 118.714 30.6225 118.714 30.6225L118.925 28.3168L126.701 22.161C126.701 22.161 122.15 6.941 120.229 4.80116C118.308 2.66131 83.9646 0.528996 74.0113 3.09832C64.058 5.66764 65.5649 4.16824 64.058 5.67517C62.5511 7.18211 60.0044 22.907 60.0044 22.907L66.9287 27.9627L66.3787 32.0239C66.3787 32.0239 55.2425 34.646 44.5809 43.891C33.9194 53.136 28.3135 58.2446 24.712 63.225C21.1104 68.2054 18.0589 75.4387 18.0589 75.4387C18.0589 75.4387 1.96484 73.781 1.74633 76.2675C1.52783 78.7539 4.50402 79.7334 4.50402 79.7334C4.50402 79.6129 5.0465 79.7334 5.99587 80.0423C12.8298 82.2575 40.806 94.0794 41.4616 94.313C42.2075 94.5767 63.9299 97.1234 97.1503 96.9803C130.371 96.8371 143.27 94.2 143.27 94.2C143.27 94.2 177.658 83.7795 185.479 82.0164C182.352 81.4513 176.121 77.8121 175.194 78.5806H175.202ZM73.288 29.8841C71.8564 30.2759 69.7844 29.3868 69.5583 27.7668C69.2268 25.4009 68.1041 23.2988 67.2527 21.0986C66.6575 19.5616 67.9158 17.7683 69.37 17.369C71.0653 16.9018 72.5044 17.9567 73.0996 19.4862C73.951 21.6863 75.0737 23.7885 75.4052 26.1544C75.6312 27.7819 75.036 29.4018 73.288 29.8841ZM88.5909 26.1921C88.621 27.8346 87.1819 29.221 85.562 29.221C83.942 29.221 82.5556 27.8271 82.533 26.1921C82.5029 24.542 82.1563 22.9898 81.87 21.3548C81.5912 19.7349 82.2844 18.0923 83.9872 17.6252C84.4091 17.5046 84.8763 17.5121 85.3359 17.6026C85.7654 17.5272 86.2024 17.5347 86.6243 17.6252C88.2518 17.9944 89.0354 19.7424 88.7491 21.2719C88.7491 21.3548 88.7416 21.4377 88.7491 21.5281C88.7491 21.5583 88.7491 21.6788 88.7491 21.7994C88.7642 21.822 88.832 22.3569 88.8471 22.4323C88.8923 22.6508 88.945 22.8618 88.9978 23.0727C89.2238 23.9844 89.0279 24.8584 88.5532 25.5516C88.5607 25.7626 88.5909 25.9736 88.5909 26.1845V26.1921ZM105.009 23.8865C105.009 25.0543 104.346 26.0037 103.404 26.5161C103.057 27.7668 101.671 28.7162 100.443 28.7162C98.6723 28.7162 97.6024 27.3147 97.414 25.6873C97.1804 23.6303 97.1804 21.5884 97.414 19.5314C97.6024 17.8964 98.6497 16.5025 100.443 16.5025C101.664 16.5025 103.035 17.4293 103.397 18.6574C104.346 19.1848 105.016 20.2322 105.016 21.3247V23.8865H105.009ZM115.67 27.2545C115.542 27.6237 115.354 27.9627 115.12 28.2641C115.354 29.9217 114.397 31.7903 112.235 31.7903C109.507 31.7903 108.693 28.8367 109.778 27.051C109.673 26.5914 109.665 26.1092 109.824 25.642C110.291 24.3009 110.494 22.907 109.869 21.5658C109.176 20.0739 109.432 18.3108 110.954 17.4217C112.272 16.6532 114.412 17.0224 115.098 18.5067C116.394 21.3096 116.688 24.3009 115.663 27.2545H115.67Z" fill="#2D2D2D"></path><path d="M13.8693 90.0258C13.583 90.8094 20.2286 91.6834 20.2286 91.6834L34.5143 218.115C34.5143 218.115 31.6587 218.424 29.775 218.658C27.8913 218.891 26.7838 221.197 27.7181 221.174C28.6524 221.152 54.6394 231.821 54.6394 231.821C54.6394 231.821 117.554 231.444 119.438 230.819C121.321 230.193 159.831 220.466 159.831 220.466C159.831 220.466 162.664 219.027 162.709 220.466C162.754 221.905 160.419 222.741 160.087 224.203C159.756 225.665 156.184 226.803 156.184 226.803L167.381 285.181L172.24 287.871L173.099 294.991C173.099 294.991 171.585 298.239 169.814 298.118C168.044 297.998 17.3504 298.065 17.3504 298.065L18.1038 290.47L21.8259 284.601L22.2102 270.624L26.1056 228.799C26.1056 228.799 21.7807 224.414 21.8259 223.54C21.8712 222.666 23.3856 216.488 23.3856 216.488L29.1572 213.037L13.8693 90.0182V90.0258Z" fill="#2D2D2D"></path><path d="M170.749 93.3862C171.058 95.3302 154.482 217.392 154.482 217.392C154.482 217.392 156.742 219.441 158.626 217.663C160.51 215.885 175.202 91.9396 175.202 91.9396L170.749 93.3862Z" fill="#2D2D2D"></path><path opacity="0.56" d="M54.6474 238.316C54.2706 240.749 51.189 298.081 51.189 298.081C51.189 298.081 131.787 299.52 131.456 298.766C131.124 298.013 119.069 234.608 119.446 234.284C119.822 233.96 54.6474 235.882 54.6474 235.882V238.316Z" fill="#515151"></path><path opacity="0.56" d="M41.4689 96.9878C41.4689 95.3302 46.7356 90.0559 45.9822 87.042C45.2287 84.0282 46.0424 77.7066 47.896 72.1987C49.7495 66.6909 61.805 45.7747 68.2094 40.0333C74.6139 34.2918 68.4129 34.2165 85.4487 30.8636C102.485 27.5106 116.921 28.8443 125.902 50.0242C134.884 71.2042 137.754 87.1701 137.83 88.2325C137.905 89.2949 145.839 99.429 145.839 99.429L63.5003 100.898L39.2612 99.1578L41.4614 96.9803L41.4689 96.9878Z" fill="#515151"></path><path d="M64.3745 154.101C64.0656 154.854 67.6295 183.312 67.6295 183.312L69.8597 223.706C69.8597 223.706 68.8652 226.215 69.8597 225.944C70.8543 225.672 119.453 225.944 119.453 225.944L124.833 221.649L125.104 184.985L123.597 175.944C123.597 175.944 125.104 178.957 125.857 172.176C126.611 165.395 125.857 155.977 125.857 155.977C125.857 155.977 125.895 151.328 125.503 150.077C125.111 148.826 111.82 146.144 103.012 145.601C94.2043 145.059 82.4954 145.941 82.4954 145.941C82.4954 145.941 66.1602 147.673 64.3595 149.007C62.5587 150.341 64.3745 154.101 64.3745 154.101Z" fill="#BF9A00"></path><path d="M24.0269 93.3862C24.1323 93.0698 37.9283 220.187 37.9283 220.187L52.3798 225.959L121.367 225.243L151.755 216.269C151.755 216.269 165.761 95.398 165.392 95.7446C165.023 96.0912 138.343 102.119 138.343 102.119C138.343 102.119 61.2933 101.298 54.0148 100.582C46.7364 99.866 38.4181 98.1933 37.6797 98.2762C36.9413 98.3591 24.0344 93.3938 24.0344 93.3938L24.0269 93.3862Z" fill="url(#paint0_radial_3_14434)"></path><path d="M122.482 128.234C122.49 127.292 122.301 126.373 121.902 125.522C121.796 125.13 121.683 124.738 121.555 124.354C121.39 123.374 121.096 122.425 120.666 121.513C120.387 120.918 120.011 120.3 119.559 119.788C118.519 117.949 117.238 116.231 115.739 114.702C114.767 113.707 112.958 114.159 112.597 115.516C111.986 115.681 111.504 116.148 111.278 116.812C111.112 117.301 110.962 117.799 110.833 118.296C110.705 118.205 110.57 118.138 110.427 118.077C110.381 116.472 110.185 114.868 109.846 113.293C110.012 112.713 109.824 112.095 109.44 111.643C109.183 110.731 108.867 109.834 108.513 108.953C108.513 108.938 108.513 108.93 108.513 108.915C108.513 108.915 108.513 108.915 108.505 108.915C108.445 108.764 108.385 108.614 108.324 108.463C107.963 107.612 106.735 107.355 105.974 107.695C105.054 108.101 104.73 108.96 104.881 109.917C105.213 111.989 104.941 114.137 104.188 116.088C103.404 117.128 102.485 118.1 101.483 118.981C99.0869 121.106 96.269 122.696 93.5037 124.286C93.2852 124.414 93.1044 124.58 92.9612 124.776C91.3036 124.881 89.6686 125.258 88.1391 125.883C87.3554 125.115 86.2931 125.273 85.4944 125.898C84.1155 126.991 83.0983 128.415 82.3072 129.967C82.2093 130.11 82.1415 130.261 82.0661 130.404C81.5764 131.022 81.1318 131.692 80.7475 132.401C80.4462 132.951 80.4386 133.606 80.6797 134.149C79.9639 136.417 79.4214 138.986 80.3256 141.133C80.6571 141.917 81.3051 142.505 82.1339 142.512C82.5634 143.296 83.234 143.906 84.2964 144.14C84.4019 144.162 84.5073 144.17 84.6128 144.177C85.4642 145.579 86.6849 146.762 88.1315 147.5C88.4781 147.673 88.8699 147.749 89.2542 147.719C89.8569 148.118 90.4974 148.457 91.1906 148.721C91.9365 149 92.9537 148.54 93.3154 147.854C93.6168 147.289 93.6469 146.566 93.3455 146.001C94.9805 146.046 96.6231 145.812 98.2355 145.579C99.7274 145.368 101.219 145.014 102.44 144.095C103.736 143.13 104.241 141.691 105.273 140.531C105.619 140.139 105.808 139.642 105.8 139.152C105.853 139.137 105.906 139.122 105.959 139.107C106.207 139.031 106.463 138.948 106.712 138.873C106.75 138.873 106.795 138.888 106.833 138.896C109.176 139.099 111.444 138.421 113.576 137.517C115.332 136.771 117.117 135.942 118.654 134.797C119.77 133.975 120.749 132.988 121.442 131.813C122.158 131.542 122.753 130.849 122.685 130.057C122.633 129.447 122.55 128.837 122.459 128.234H122.482ZM96.6834 142.015C96.3669 142.053 96.0504 142.09 95.734 142.128C95.8847 141.932 96.0278 141.721 96.1559 141.503C96.3368 141.706 96.5703 141.879 96.8265 141.992C96.7813 141.992 96.7286 142 96.6834 142.007V142.015ZM100.353 140.99C99.9609 141.322 99.4636 141.525 98.9287 141.668C99.426 141.344 99.9609 141.066 100.511 140.824C100.458 140.877 100.405 140.938 100.353 140.99ZM116.575 124.067C116.733 123.774 116.899 123.48 117.057 123.186C117.185 123.457 117.306 123.728 117.419 124.007C117.132 123.962 116.846 123.985 116.575 124.067Z" fill="#FFCE00"></path><path d="M109.801 122.696C109.801 122.696 109.801 122.673 109.801 122.666C109.756 122.56 109.718 122.455 109.673 122.349C109.409 121.754 108.565 121.566 108.023 121.807C107.39 122.086 107.134 122.704 107.254 123.367C107.45 124.406 106.991 125.401 106.358 126.222C106.395 125.65 106.335 125.062 106.139 124.452C105.627 122.824 103.201 123.495 103.585 125.152C103.962 126.757 101.746 127.443 100.571 127.496C100.368 127.503 100.172 127.503 99.9683 127.496C99.5388 127.368 99.0867 127.353 98.6422 127.443C97.2407 127.353 95.8544 127.217 94.4454 127.511C90.565 128.332 88.2444 133.049 89.6006 136.711C90.3691 138.798 92.3809 140.425 94.679 140.244C94.9502 140.222 95.2064 140.139 95.4173 139.996C96.3592 140.199 97.3688 140.192 98.3107 140.109C99.3655 140.018 100.488 139.792 101.114 138.85C101.377 138.459 101.453 138.044 101.573 137.607C101.777 137.532 102.003 137.494 102.206 137.426C105.996 136.258 109.221 133.282 110.253 129.394C110.848 127.142 110.668 124.813 109.801 122.673V122.696ZM92.9008 137.035C92.4788 136.658 92.1925 136.13 92.0267 135.558C92.0569 135.648 92.087 135.739 92.1247 135.821C92.3281 136.274 92.6446 136.635 93.0213 136.891C92.9761 136.937 92.9309 136.989 92.9008 137.042V137.035ZM99.1018 130.088C99.1771 130.088 99.26 130.095 99.3354 130.103C99.3429 130.11 99.3504 130.118 99.358 130.125C99.26 130.306 99.1696 130.487 99.0943 130.668C99.0943 130.479 99.0943 130.299 99.0566 130.118C99.0717 130.103 99.0867 130.095 99.1018 130.08V130.088Z" fill="#FF6700"></path><path d="M113.079 164.046C111.105 161.032 109.131 158.011 107.157 154.997C106.825 154.485 106.154 154.274 105.612 154.59C105.107 154.884 104.874 155.623 105.205 156.135C107.179 159.149 109.153 162.17 111.127 165.184C111.459 165.696 112.129 165.907 112.672 165.591C113.177 165.297 113.41 164.559 113.079 164.046Z" fill="white"></path><path d="M126.114 165.169C126.016 164.566 125.262 164.227 124.72 164.378C124.08 164.551 123.831 165.161 123.929 165.764C124.253 167.784 124.275 169.878 124.019 171.905C123.906 172.794 123.801 173.841 123.432 174.67C123.19 175.213 122.791 175.311 122.271 175.107C120.84 174.557 120.644 172.259 120.35 170.993C119.845 168.884 119.348 166.774 118.85 164.657C118.511 163.24 116.334 163.843 116.673 165.259L118.074 171.174C118.481 172.884 118.76 174.761 119.935 176.139C120.968 177.353 122.972 177.933 124.366 176.991C125.925 175.944 126.084 173.6 126.287 171.905C126.566 169.652 126.476 167.399 126.114 165.161V165.169Z" fill="white"></path><path d="M122.06 148.45C121.586 148.065 120.93 147.982 120.463 148.45C120.071 148.841 119.981 149.663 120.463 150.047C121.555 150.921 122.218 151.75 122.829 152.993C122.859 153.061 122.897 153.129 122.927 153.196C122.927 153.204 122.964 153.272 122.979 153.309C122.995 153.355 123.047 153.475 123.055 153.49C123.085 153.558 123.108 153.633 123.13 153.701C123.243 154.018 123.341 154.342 123.416 154.673C123.454 154.839 123.492 155.005 123.522 155.17C123.537 155.246 123.545 155.321 123.56 155.389C123.56 155.404 123.56 155.404 123.56 155.412C123.597 155.766 123.62 156.12 123.62 156.474C123.62 157.062 124.14 157.634 124.75 157.604C125.36 157.574 125.88 157.107 125.88 156.474C125.873 153.407 124.464 150.356 122.06 148.435V148.45Z" fill="white"></path><path d="M94.7243 155.736C89.0884 156.632 83.2641 155.947 77.6131 155.623C76.837 155.577 76.4829 156.203 76.5356 156.806C75.4506 156.542 74.3657 156.263 73.2807 155.984C71.2765 155.464 69.2572 154.952 67.4187 153.957C66.1378 153.264 65.0001 155.216 66.281 155.909C68.1345 156.911 70.1387 157.499 72.1655 158.026C74.3883 158.606 76.611 159.179 78.8563 159.654C83.249 160.58 87.7472 161.13 92.2228 160.595C93.1948 160.482 93.5112 159.405 93.1646 158.772C93.2099 158.742 93.2626 158.704 93.3078 158.659C93.4434 158.523 93.5489 158.335 93.6017 158.139C94.1818 158.079 94.7545 158.004 95.3346 157.913C96.7662 157.687 96.1559 155.502 94.7319 155.736H94.7243ZM87.2725 158.395C87.2725 158.395 87.2801 158.471 87.2876 158.501C86.3533 158.463 85.4115 158.403 84.4772 158.297C85.4115 158.343 86.3382 158.373 87.2725 158.395Z" fill="white"></path><path d="M33.5427 172.056C30.4987 152.172 27.9671 132.212 25.9628 112.2C25.3977 106.527 24.8703 100.846 24.3881 95.1569C24.2675 93.7178 22.0071 93.7027 22.1277 95.1569C23.8531 115.395 26.1135 135.595 28.8938 155.713C29.6774 161.364 30.4987 167.007 31.3652 172.643C31.5837 174.075 33.7612 173.465 33.5427 172.041V172.056Z" fill="#FFD400"></path><path d="M34.703 183.93C34.5598 182.499 32.2994 182.484 32.4426 183.93C33.5125 194.728 34.7557 205.502 36.1647 216.262C36.2476 216.872 36.6243 217.384 37.2949 217.392C37.8449 217.392 38.508 216.864 38.4251 216.262C37.0161 205.502 35.7729 194.728 34.703 183.93Z" fill="#FFD400"></path><path d="M167.419 94.313C166.741 94.313 166.364 94.8404 166.289 95.4432C164.435 109.654 162.582 123.864 160.728 138.074C158.867 152.345 157.006 166.623 155.145 180.894C154.098 188.896 153.058 196.905 152.01 204.907C151.928 205.517 152.591 206.029 153.141 206.037C153.819 206.037 154.196 205.51 154.271 204.907C156.124 190.696 157.978 176.486 159.831 162.276C161.693 148.005 163.554 133.727 165.415 119.456C166.462 111.454 167.502 103.445 168.549 95.4432C168.632 94.8329 167.969 94.3205 167.419 94.313Z" fill="#FFD400"></path><path d="M155.174 211.688C155.159 211.575 155.129 211.462 155.092 211.349C155.016 211.153 154.933 210.95 154.82 210.769C154.753 210.641 154.655 210.528 154.526 210.452C154.421 210.354 154.293 210.287 154.142 210.249C153.992 210.204 153.841 210.196 153.69 210.226C153.539 210.226 153.396 210.279 153.268 210.362C153.027 210.52 152.816 210.746 152.748 211.04C152.68 211.326 152.696 211.658 152.861 211.914C152.884 211.952 152.899 211.989 152.922 212.027C152.937 212.065 152.944 212.102 152.952 212.14C152.952 212.185 152.952 212.238 152.952 212.283C152.952 212.306 152.944 212.328 152.937 212.351C152.891 212.502 152.884 212.652 152.914 212.803C152.914 212.954 152.967 213.097 153.05 213.225C153.117 213.353 153.215 213.466 153.344 213.542C153.449 213.64 153.577 213.707 153.728 213.745C154.014 213.813 154.346 213.798 154.602 213.632C154.858 213.466 155.031 213.248 155.122 212.954C155.182 212.75 155.212 212.532 155.227 212.321C155.242 212.11 155.212 211.899 155.174 211.688Z" fill="#FFD400"></path><path d="M123.529 224.859C114.774 225.394 106.026 225.966 97.2635 226.448C88.463 226.931 79.7454 226.448 70.96 225.966C66.07 225.695 61.18 225.424 56.29 225.145C54.8358 225.062 54.8433 227.322 56.29 227.405C65.0151 227.895 73.7403 228.468 82.4729 228.837C91.2433 229.206 99.976 228.551 108.724 228.016C113.659 227.714 118.587 227.42 123.522 227.119C124.968 227.029 124.976 224.768 123.522 224.859H123.529Z" fill="#FFD400"></path><path d="M144.475 220.119C138.297 221.476 132.148 222.975 126.038 224.625C124.636 225.002 125.232 227.187 126.641 226.803C132.751 225.152 138.899 223.646 145.078 222.297C146.502 221.988 145.899 219.803 144.475 220.119Z" fill="#FFD400"></path><path d="M52.2285 225.507C50.7216 225.348 49.1996 225.22 47.6926 225.017C46.3741 224.836 45.0932 224.52 43.978 223.774C41.9814 222.455 40.5347 220.496 38.1537 219.788C36.7523 219.373 36.1571 221.558 37.551 221.965C39.8566 222.651 41.3032 224.904 43.3677 226.042C45.9898 227.496 49.3201 227.451 52.2285 227.759C52.8388 227.827 53.3587 227.194 53.3587 226.629C53.3587 225.966 52.8388 225.567 52.2285 225.499V225.507Z" fill="#FFD400"></path><path d="M142.667 96.9803C129.632 99.2105 116.484 101.411 103.208 100.657C96.7057 100.288 90.2485 99.6476 83.731 99.6023C77.3868 99.5571 71.0351 99.7606 64.6909 99.6099C57.5631 99.4441 50.4353 98.8037 43.5486 96.8748C42.1472 96.483 41.5444 98.6605 42.9458 99.0523C55.4082 102.533 68.4356 101.87 81.237 101.855C87.7394 101.848 94.174 102.27 100.654 102.744C107.367 103.234 114.05 103.106 120.749 102.45C128.306 101.712 135.788 100.439 143.27 99.1578C144.701 98.9091 144.091 96.7316 142.667 96.9803Z" fill="#FFD400"></path><path d="M155.657 95.9254C155.483 95.285 154.873 95.0288 154.263 95.1343C151.189 95.6617 148.115 96.1891 145.033 96.7166C144.43 96.822 144.091 97.5605 144.242 98.1105C144.415 98.7509 145.025 99.0071 145.636 98.9016C148.71 98.3742 151.784 97.8468 154.866 97.3194C155.468 97.2139 155.807 96.4754 155.657 95.933V95.9254Z" fill="#FFD400"></path><path d="M37.8905 96.6789C33.4902 95.2473 29.2482 93.4089 25.1946 91.1937C23.9212 90.4929 22.7759 92.4444 24.0568 93.1451C28.2762 95.4583 32.7142 97.3721 37.2952 98.8639C38.6816 99.316 39.2768 97.131 37.898 96.6864L37.8905 96.6789Z" fill="#FFD400"></path><path d="M17.8253 299.166C17.8856 299.15 17.9459 299.143 17.9986 299.128C17.7801 299.181 17.7349 299.15 18.0212 299.128C18.3452 299.105 18.6692 299.083 18.9932 299.06C20.0857 299.007 21.1782 298.977 22.2708 298.955C26.023 298.872 29.7753 298.849 33.5351 298.834C38.9073 298.804 44.2795 298.804 49.6517 298.804C56.1316 298.804 62.6114 298.826 69.0912 298.849C76.1888 298.879 83.2865 298.909 90.3841 298.955C97.4818 299 104.647 299.037 111.775 299.09C118.443 299.135 125.119 299.181 131.787 299.233C137.476 299.279 143.172 299.324 148.861 299.369C153.065 299.399 157.269 299.437 161.474 299.467C163.629 299.482 165.784 299.505 167.946 299.512C168.104 299.512 168.27 299.512 168.428 299.512C169.882 299.505 169.882 297.244 168.428 297.252C166.838 297.267 165.241 297.237 163.651 297.222C159.891 297.191 156.124 297.161 152.364 297.131C146.985 297.086 141.612 297.048 136.233 297.003C129.723 296.95 123.205 296.905 116.695 296.86C109.598 296.807 102.492 296.762 95.3947 296.724C88.297 296.687 81.1391 296.641 74.0113 296.611C67.3205 296.581 60.6222 296.559 53.9314 296.551C48.2352 296.543 42.539 296.536 36.8428 296.551C32.6837 296.566 28.5245 296.581 24.3654 296.649C22.2406 296.679 20.0857 296.649 17.976 296.86C17.7349 296.882 17.4712 296.89 17.2376 296.973C15.8588 297.417 16.4465 299.603 17.8404 299.15L17.8253 299.166Z" fill="black"></path><path d="M82.7445 145.76C79.2559 145.91 75.7523 146.114 72.3316 146.83C68.9108 147.545 65.6935 148.819 62.5817 150.363C61.8735 150.718 61.9262 151.614 62.3557 152.142C64.9024 155.268 69.8602 155.329 73.5296 155.381C78.9093 155.457 84.2816 155.713 89.6613 155.939C92.6375 156.067 95.6288 156.127 98.6049 156.353C99.916 156.451 101.219 156.602 102.508 156.866C103.065 156.979 103.811 157.16 104.143 157.461C104.512 157.8 104.814 158.531 105.062 159.073C105.401 159.804 105.74 160.535 106.094 161.266C106.848 162.803 107.639 164.34 108.649 165.727C109.56 166.977 110.826 168.514 112.529 168.499C114.767 168.477 115.724 165.825 116.244 164.069L114.352 164.566C116.251 166.51 116.809 169.26 117.449 171.807C118.059 174.211 118.76 177.33 120.9 178.859C122.543 180.035 124.426 179.289 125.609 177.85C127.011 176.139 127.787 173.902 128.05 171.724C128.435 168.635 127.711 165.418 127.237 162.374C126.762 159.33 126.348 156.308 127.048 153.272C127.312 152.142 127.335 151.064 126.785 150.017C126.144 148.804 125.044 147.922 123.793 147.395C122.543 146.867 121.224 146.717 119.905 146.513C118.481 146.295 117.065 146.023 115.648 145.797C108.935 144.735 101.634 143.944 95.1465 146.475C93.8054 146.995 94.3931 149.188 95.7493 148.653C100.88 146.649 106.539 146.867 111.911 147.523C114.533 147.847 117.118 148.359 119.725 148.743C121.48 149 125.074 149.452 124.999 151.931C124.969 152.918 124.539 153.905 124.441 154.899C124.298 156.331 124.396 157.8 124.547 159.232C124.863 162.223 125.526 165.161 125.79 168.16C125.978 170.383 125.888 172.493 124.976 174.565C124.63 175.363 123.537 177.609 122.422 177.134C121.397 176.705 120.825 175.062 120.493 174.12C120.041 172.854 119.732 171.536 119.401 170.232C118.73 167.588 117.909 164.95 115.957 162.954C115.355 162.336 114.307 162.652 114.066 163.451C113.825 164.25 113.554 165.297 112.936 165.945C112.589 166.314 112.544 166.299 112.205 166.141C111.037 165.598 110.231 164.099 109.606 163.052C108.845 161.778 108.197 160.445 107.556 159.104C106.953 157.838 106.471 156.301 105.266 155.464C103.849 154.492 101.739 154.394 100.097 154.214C97.3693 153.912 94.6267 153.867 91.884 153.754C86.5269 153.528 81.1622 153.121 75.7975 153.114C73.6125 153.114 71.3973 153.144 69.2273 152.85C67.306 152.594 65.2264 152.089 63.953 150.529L63.727 152.307C66.6655 150.846 69.717 149.67 72.9343 149C76.1516 148.329 79.4594 148.156 82.7445 148.013C84.1911 147.952 84.1987 145.692 82.7445 145.752V145.76Z" fill="black"></path><path d="M94.8754 150.702C94.2801 149.843 93.8582 148.924 93.8431 147.869C93.8356 146.928 94.1068 146.016 94.4233 145.134C95.1391 143.16 96.0734 141.292 96.1789 139.152C96.2542 137.698 93.9863 137.705 93.9185 139.152C93.813 141.269 92.6602 143.168 92.0348 145.149C91.2964 147.478 91.4999 149.813 92.9164 151.848C93.263 152.345 93.9034 152.579 94.461 152.255C94.9583 151.968 95.2144 151.215 94.8678 150.71L94.8754 150.702Z" fill="black"></path><path d="M88.6968 146.928C86.798 145.88 84.7185 144.984 83.0307 143.597C81.3429 142.211 80.5216 140.523 80.3785 138.451C80.0922 134.337 81.7347 129.101 85.1856 126.591C86.4891 125.642 88.0412 125.378 89.6085 125.235C91.6051 125.054 93.6395 124.919 95.5759 124.339C99.6296 123.126 102.53 120.044 104.173 116.231C105.168 113.918 105.929 111.379 106.011 108.847C106.102 106.007 105.032 103.505 103.276 101.328L101.679 102.925C105.687 107.258 113.84 113.391 109.854 120.066C109.108 121.317 111.06 122.455 111.806 121.204C116.522 113.3 108.114 106.549 103.276 101.32C102.267 100.228 100.782 101.81 101.679 102.918C103.261 104.884 103.962 107.167 103.698 109.676C103.472 111.816 102.764 114.054 101.822 115.983C100.971 117.723 99.8255 119.343 98.2583 120.519C96.465 121.867 94.3176 122.462 92.1175 122.734C90.3845 122.952 88.6063 122.952 86.9035 123.367C85.2007 123.781 83.5958 124.776 82.3752 126.117C79.3462 129.447 77.666 134.503 78.1708 138.986C78.4346 141.352 79.4367 143.469 81.245 145.044C83.1136 146.671 85.4041 147.704 87.559 148.887C88.8324 149.587 89.9777 147.636 88.6968 146.935V146.928Z" fill="black"></path><path d="M113.342 118.499C115.121 115.885 116.65 112.027 115.445 108.893C115.03 107.808 113.071 107.823 113.222 109.194C113.764 113.978 118.119 116.646 120.546 120.421C121.691 122.199 121.924 124.459 121.977 126.524C122.03 128.588 121.939 130.826 120.922 132.657C118.948 136.213 114.164 137.6 110.374 137.961C108.686 138.127 106.343 138.029 105.047 139.325C104.414 139.958 104.173 140.779 103.932 141.608C103.668 142.505 103.208 143.01 102.266 143.243C99.8403 143.853 97.0374 142.686 95.0257 144.675C94.3852 145.308 94.1516 146.069 93.7975 146.867C93.7448 146.98 93.6016 147.206 93.6016 147.206C93.3002 147.365 92.6447 147.221 92.268 147.146C90.8439 146.86 90.2412 149.037 91.6652 149.324C92.6598 149.519 93.805 149.7 94.7393 149.158C95.4175 148.758 95.7264 148.095 95.9976 147.402C96.2463 146.769 96.5025 146.189 97.173 145.903C98.2505 145.436 99.6143 145.654 100.752 145.647C103.035 145.617 105.22 144.893 106.011 142.557C106.2 141.985 106.298 141.073 106.81 140.772C107.533 140.35 108.746 140.387 109.552 140.305C113.825 139.883 118.707 138.85 121.683 135.467C124.66 132.084 124.735 126.531 123.733 122.289C123.115 119.69 121.45 117.761 119.702 115.817C117.954 113.873 115.784 111.824 115.49 109.201L113.267 109.503C114.269 112.102 112.845 115.222 111.391 117.369C110.57 118.575 112.529 119.705 113.342 118.507V118.499Z" fill="black"></path><path d="M62.702 153.415C63.7267 154.733 64.0055 156.625 64.1788 158.237C64.3898 160.219 64.3973 162.215 64.5028 164.205C64.6158 166.307 65.0453 168.311 65.3768 170.391C65.8063 173.095 66.0097 175.823 66.183 178.551C66.5447 184.134 66.9968 189.717 67.2831 195.308C67.5694 200.898 67.7804 206.549 68.1044 212.163C68.2325 214.431 68.5037 216.683 68.6393 218.944C68.7599 221.061 68.9106 223.359 68.1797 225.386C67.6824 226.757 69.8675 227.345 70.3572 225.989C71.0278 224.128 71.0203 222.026 70.9525 220.074C70.8771 217.949 70.636 215.84 70.4703 213.715C70.0182 208.086 69.8976 202.428 69.6188 196.792C69.3325 191.005 68.8654 185.226 68.5037 179.447C68.3304 176.697 68.1345 173.954 67.7653 171.219C67.4564 168.951 66.9064 166.736 66.7783 164.446C66.5447 160.294 66.9968 155.291 64.2994 151.81C63.9226 151.32 63.1014 151.418 62.702 151.81C62.2198 152.285 62.3328 152.925 62.702 153.407V153.415Z" fill="black"></path><path d="M123.168 178.211C123.168 184.202 122.897 190.184 122.957 196.174C123.01 201.75 123.718 207.303 123.695 212.878C123.68 215.742 123.484 218.658 122.437 221.355C121.91 222.711 124.095 223.299 124.614 221.958C126.521 217.045 126.031 211.334 125.677 206.188C125.262 200.183 125.157 194.208 125.27 188.18C125.33 184.857 125.421 181.534 125.421 178.211C125.421 176.757 123.16 176.757 123.16 178.211H123.168Z" fill="black"></path><path d="M12.7398 89.1593C13.2296 94.8027 13.8851 100.431 14.5105 106.06C15.5729 115.591 16.6729 125.107 17.7956 134.631C19.0765 145.511 20.395 156.384 21.7513 167.249C22.9794 177.066 24.2302 186.884 25.5789 196.687C26.4379 202.918 27.2365 209.187 28.4421 215.365C28.5174 215.764 28.6003 216.156 28.6907 216.555C29.0072 217.972 31.1847 217.377 30.8682 215.953C29.6401 210.415 28.962 204.734 28.1784 199.128C26.8598 189.724 25.6467 180.314 24.4638 170.895C23.1 160.061 21.7814 149.226 20.5005 138.383C19.3402 128.573 18.1949 118.755 17.0949 108.938C16.4017 102.744 15.6934 96.5583 15.1057 90.3498C15.068 89.9504 15.0304 89.5511 14.9927 89.1517C14.8646 87.7126 12.6042 87.6976 12.7323 89.1517L12.7398 89.1593Z" fill="black"></path><path d="M22.6632 94.5014C23.1379 96.046 23.3187 97.7111 23.5598 99.3085C24.0496 102.496 24.4414 105.442 24.8407 108.561C26.0463 117.912 27.1313 127.27 28.1861 136.635C29.4369 147.681 30.6349 158.727 31.7952 169.78C32.82 179.53 33.8221 189.287 34.7564 199.045C35.2838 204.523 35.9092 210.023 36.1578 215.523C36.1653 215.764 36.1804 216.013 36.1804 216.254C36.1879 217.708 38.4483 217.708 38.4408 216.254C38.4333 214.619 38.26 212.976 38.1244 211.349C37.8682 208.184 37.5743 205.012 37.2805 201.848C36.3914 192.407 35.4345 182.973 34.4474 173.548C33.2946 162.464 32.0966 151.381 30.8609 140.297C29.7684 130.57 28.6533 120.85 27.4327 111.138C26.9881 107.627 26.536 104.108 26.0237 100.604C25.7298 98.6002 25.4661 96.5734 25.0216 94.5918C24.9688 94.3582 24.9086 94.1171 24.8407 93.8835C24.4113 92.4971 22.2337 93.0849 22.6632 94.4863V94.5014Z" fill="black"></path><path d="M174.072 91.9396C173.589 97.455 172.934 102.955 172.309 108.456C171.254 117.738 170.154 127.013 169.039 136.281C167.758 146.875 166.447 157.469 165.09 168.055C163.877 177.556 162.634 187.057 161.3 196.543C160.441 202.624 159.643 208.742 158.452 214.77C158.377 215.169 158.294 215.561 158.204 215.953C157.887 217.369 160.065 217.972 160.381 216.555C161.594 211.093 162.287 205.495 163.079 199.957C164.405 190.689 165.633 181.414 166.831 172.123C168.202 161.469 169.536 150.808 170.832 140.146C171.992 130.6 173.13 121.061 174.222 111.507C174.923 105.381 175.639 99.2633 176.227 93.1225C176.264 92.7232 176.302 92.3239 176.34 91.9245C176.468 90.4779 174.207 90.4854 174.079 91.9245L174.072 91.9396Z" fill="black"></path><path d="M164.315 95.4055C163.84 96.9426 163.659 98.6002 163.41 100.182C162.921 103.347 162.491 106.519 162.077 109.691C160.864 118.906 159.771 128.144 158.709 137.381C157.443 148.329 156.23 159.292 155.054 170.247C154.022 179.869 153.013 189.498 152.071 199.135C151.536 204.59 150.895 210.076 150.647 215.553C150.639 215.787 150.624 216.02 150.624 216.254C150.617 217.708 152.877 217.708 152.884 216.254C152.892 214.627 153.065 212.999 153.201 211.379C153.457 208.282 153.743 205.186 154.045 202.096C154.934 192.799 155.898 183.508 156.885 174.218C158.046 163.323 159.244 152.428 160.487 141.54C161.587 131.896 162.717 122.259 163.953 112.637C164.631 107.363 165.113 101.961 166.319 96.6789C166.372 96.4528 166.424 96.2268 166.492 96.0008C166.922 94.6068 164.736 94.0116 164.315 95.398V95.4055Z" fill="black"></path><path d="M27.3418 216.525C31.2523 218.703 35.4114 220.391 39.5027 222.191C41.4919 223.065 43.4735 224.015 45.5455 224.685C47.2182 225.228 49.0793 225.499 50.6164 226.373C51.8822 227.089 53.0199 225.137 51.7541 224.422C50.2246 223.555 48.4388 223.193 46.7661 222.696C44.6489 222.063 42.6522 221.121 40.6329 220.232C36.5416 218.432 32.39 216.736 28.472 214.566C27.1986 213.858 26.0609 215.81 27.3342 216.518L27.3418 216.525Z" fill="black"></path><path d="M27.7261 211.914C25.0664 211.824 22.2258 214.408 21.3518 216.797C20.8771 218.1 20.8168 219.615 20.8018 220.986C20.7942 222.538 20.9148 224.113 21.2689 225.627C21.3895 226.14 21.8717 226.411 22.3615 226.456C24.1547 226.614 25.0589 227.677 24.9835 229.455C24.863 232.062 24.5616 234.699 24.1849 237.283C23.4013 242.723 22.7909 248.178 22.2635 253.641C21.7361 259.104 21.0956 264.657 20.5682 270.172C20.297 272.998 20.0559 275.823 19.8675 278.649C19.7771 279.952 19.7017 281.248 19.6415 282.552C19.5962 283.524 19.7469 284.571 19.5435 285.528C19.3175 286.552 18.1948 287.148 17.5543 287.901C16.9139 288.655 16.5598 289.559 16.4015 290.538C16.0549 292.671 16.394 294.795 16.4091 296.928C16.4241 298.382 18.6845 298.382 18.6695 296.928C18.6544 295.006 18.3078 293.055 18.5791 291.141C18.7072 290.229 19.0161 289.589 19.6867 288.948C20.4929 288.18 21.3443 287.464 21.6758 286.349C21.947 285.422 21.8943 284.398 21.8943 283.441C21.8943 282.092 22.0073 280.743 22.0902 279.395C22.2786 276.441 22.5272 273.487 22.806 270.541C23.3485 264.785 24.0115 259.036 24.5691 253.279C25.1342 247.433 25.9404 241.631 26.6637 235.799C26.8596 234.254 26.9802 232.702 27.1083 231.15C27.2063 229.967 27.3871 228.769 27.0631 227.601C26.4603 225.401 24.5088 224.399 22.369 224.211L23.4615 225.039C22.9492 222.824 22.8286 220.202 23.3711 217.979C23.793 216.277 25.8802 214.114 27.7337 214.182C29.1879 214.235 29.1879 211.974 27.7337 211.922L27.7261 211.914Z" fill="black"></path><path d="M156.697 218.756C158.34 219.14 160.231 219.404 161.693 220.3C161.874 220.413 162.047 220.594 162.1 220.632C162.1 220.632 162.152 220.752 162.137 220.632C162.152 220.828 162.183 220.609 162.122 220.797C161.987 221.189 161.557 221.875 161.271 222.237C160.759 222.892 159.96 223.08 159.199 223.291C158.106 223.585 156.991 223.819 155.884 224.037C153.533 224.497 151.159 224.851 148.816 225.348C147.392 225.65 147.995 227.827 149.419 227.526C151.559 227.074 153.714 226.735 155.861 226.335C156.901 226.14 157.933 225.936 158.965 225.687C159.907 225.461 160.894 225.243 161.746 224.761C162.891 224.113 163.833 222.764 164.27 221.528C164.752 220.142 163.885 218.944 162.718 218.273C161.083 217.347 159.116 217 157.308 216.578C155.891 216.247 155.288 218.424 156.705 218.756H156.697Z" fill="black"></path><path d="M157.496 226.81C157.503 229.598 157.865 232.393 158.174 235.151C158.498 238.074 158.822 240.99 159.116 243.914C159.545 248.216 160.314 252.398 161.165 256.632C162.017 260.867 162.597 265.425 163.169 269.841C163.493 272.297 163.772 274.768 164.277 277.187C164.782 279.605 165.483 282.084 165.678 284.601C165.791 286.04 168.052 286.055 167.939 284.601C167.766 282.356 167.261 280.171 166.763 277.986C166.266 275.8 165.965 273.789 165.671 271.664C165.076 267.271 164.563 262.863 163.802 258.493C163.041 254.123 162.039 249.987 161.549 245.639C161.21 242.573 160.917 239.506 160.57 236.439C160.223 233.373 159.764 230.02 159.749 226.803C159.749 225.348 157.481 225.348 157.488 226.803L157.496 226.81Z" fill="black"></path><path d="M166.816 286.161C167.856 286.952 169.205 287.555 170.004 288.609C170.802 289.664 170.644 291.149 170.795 292.354C170.87 292.987 171.013 293.612 171.081 294.245C171.126 294.667 171.209 295.225 170.953 295.587C170.667 295.986 170.041 296.197 169.604 296.363C168.994 296.604 168.376 296.815 167.781 297.086C167.223 297.342 167.088 298.141 167.374 298.631C167.706 299.203 168.361 299.286 168.919 299.037C170.237 298.435 171.797 298.156 172.731 296.95C173.809 295.572 173.244 293.763 173.033 292.203C172.822 290.644 172.92 288.896 171.978 287.494C171.036 286.093 169.318 285.234 167.947 284.202C167.457 283.832 166.681 284.126 166.402 284.609C166.063 285.189 166.319 285.784 166.809 286.153L166.816 286.161Z" fill="black"></path><path d="M157.88 215.388C155.959 215.003 153.887 215.862 152.071 216.412C149.479 217.196 146.782 217.671 144.144 218.281C138.215 219.66 132.149 220.707 126.302 222.41C124.743 222.862 123.213 223.404 121.684 223.939C121.081 224.15 120.478 224.331 119.875 224.527C119.694 224.587 119.514 224.655 119.333 224.708C119.182 224.753 118.753 224.798 119.114 224.806L120.207 226.237L119.86 226.78C121.103 226.026 119.966 224.075 118.723 224.828C118.429 225.009 118.082 225.273 118.029 225.642C117.924 226.366 118.308 227.059 119.122 227.074C119.725 227.081 120.35 226.757 120.908 226.577C122.249 226.155 123.56 225.657 124.893 225.22C127.719 224.294 130.605 223.6 133.506 222.975C139.435 221.702 145.373 220.406 151.272 218.989C152.32 218.74 153.337 218.379 154.369 218.085C155.228 217.836 156.381 217.392 157.285 217.573C158.709 217.851 159.312 215.674 157.888 215.395L157.88 215.388Z" fill="black"></path><path d="M52.0858 227.044C53.0578 227.262 54.1277 227.202 55.1147 227.209C56.8778 227.225 58.6409 227.194 60.3965 227.164C63.5837 227.104 66.7708 227.006 69.9505 226.938C75.2473 226.833 80.5442 227.081 85.8411 227.164C91.1379 227.247 96.6533 227.225 102.063 227.187C107.857 227.149 113.644 227.074 119.438 227.081C120.892 227.081 120.892 224.821 119.438 224.821C108.942 224.821 98.4466 225.039 87.9508 224.934C82.1265 224.874 76.3022 224.618 70.4704 224.678C67.6901 224.7 64.9173 224.821 62.137 224.874C60.1177 224.919 58.0984 224.957 56.0791 224.957C55.2955 224.957 54.5119 224.957 53.7359 224.934C53.4797 224.926 53.2235 224.911 52.9673 224.896C52.8618 224.896 52.7639 224.881 52.6659 224.874C52.6659 224.874 52.9146 224.919 52.681 224.874C51.2645 224.557 50.6617 226.742 52.0782 227.051L52.0858 227.044Z" fill="black"></path><path d="M25.4438 224.844C29.5201 227.096 34.0861 228.536 38.4185 230.216C40.7768 231.135 43.0749 232.19 45.4107 233.162C46.7142 233.704 48.0177 234.156 49.3739 234.541C50.5493 234.872 51.8076 235.159 52.8851 235.769C54.1509 236.485 55.2886 234.533 54.0228 233.817C51.8227 232.567 49.1705 232.243 46.8272 231.316C44.3483 230.336 41.9523 229.184 39.4733 228.212C35.1711 226.531 30.6352 225.13 26.5891 222.885C25.3157 222.184 24.1705 224.135 25.4513 224.836L25.4438 224.844Z" fill="black"></path><path d="M160.14 224.776C158.219 224.391 156.147 225.25 154.331 225.8C151.739 226.584 149.042 227.059 146.405 227.669C140.475 229.048 134.41 230.095 128.563 231.798C127.003 232.25 125.473 232.793 123.944 233.328C123.341 233.539 122.738 233.719 122.136 233.915C121.955 233.976 121.774 234.043 121.593 234.096C121.442 234.141 121.013 234.187 121.375 234.194L122.467 235.626L122.12 236.168C123.364 235.415 122.226 233.463 120.983 234.217C120.689 234.398 120.342 234.661 120.29 235.03C120.184 235.754 120.568 236.447 121.382 236.462C121.985 236.47 122.61 236.146 123.168 235.965C124.509 235.543 125.82 235.046 127.154 234.609C129.979 233.682 132.865 232.989 135.766 232.363C141.696 231.09 147.633 229.794 153.533 228.377C154.58 228.129 155.597 227.767 156.629 227.473C157.488 227.225 158.641 226.78 159.545 226.961C160.969 227.24 161.572 225.062 160.148 224.783L160.14 224.776Z" fill="black"></path><path d="M54.3465 236.432C55.3185 236.65 56.3884 236.59 57.3754 236.598C59.1386 236.613 60.9017 236.583 62.6573 236.552C65.8444 236.492 69.0316 236.394 72.2112 236.326C77.5081 236.221 82.8049 236.47 88.1018 236.552C93.3987 236.635 98.9141 236.613 104.324 236.575C110.118 236.537 115.905 236.462 121.699 236.47C123.153 236.47 123.153 234.209 121.699 234.209C111.203 234.209 100.707 234.428 90.2115 234.322C84.3872 234.262 78.5629 234.006 72.7311 234.066C69.9508 234.089 67.1781 234.209 64.3978 234.262C62.3785 234.307 60.3592 234.345 58.3399 234.345C57.5563 234.345 56.7727 234.345 55.9966 234.322C55.7404 234.315 55.4842 234.3 55.2281 234.284C55.1226 234.284 55.0246 234.269 54.9267 234.262C54.9267 234.262 55.1753 234.307 54.9418 234.262C53.5252 233.945 52.9225 236.13 54.339 236.439L54.3465 236.432Z" fill="black"></path><path d="M0.661533 75.9661C0.0662941 78.1587 -0.355645 81.0821 0.42796 83.2747C0.887575 84.5631 1.94242 85.083 3.17057 85.5276C3.73567 85.731 4.33092 85.8892 4.88095 86.1379C5.85292 86.5749 6.76462 87.1551 7.70645 87.6373C11.3005 89.4833 15.2034 90.8244 18.9406 92.3615C22.6552 93.8835 26.302 95.5939 30.009 97.1159C31.7571 97.8317 33.5805 98.4872 35.3964 99.0372C36.0519 99.2331 36.7074 99.414 37.3629 99.6099C37.6718 99.7003 37.9883 99.7907 38.2897 99.9037C38.4554 99.9715 38.6212 100.145 38.4629 99.9489C39.3746 101.079 40.972 99.4743 40.0603 98.3516C39.5404 97.7036 38.2897 97.5228 37.5362 97.3043C36.293 96.9426 35.0874 96.5433 33.8593 96.1213C30.22 94.863 26.7616 93.1903 23.2128 91.706C19.664 90.2217 16.0699 88.7826 12.4985 87.3058C10.7052 86.5674 8.97225 85.7687 7.26189 84.8495C6.58377 84.4803 5.90566 84.1111 5.18233 83.8398C4.53435 83.5987 3.84869 83.4329 3.22331 83.1391C2.20613 82.6644 2.31162 81.3986 2.32669 80.3814C2.34929 79.1005 2.49999 77.8045 2.83152 76.5689C3.21579 75.1599 1.03072 74.5646 0.653991 75.9661H0.661533Z" fill="black"></path><path d="M40.1435 100.635C41.771 100.183 43.5643 100.665 45.1993 100.838C47.3165 101.057 49.4413 101.215 51.551 101.471C55.8759 101.991 60.1405 102.496 64.4956 102.676C68.8506 102.857 73.2207 102.985 77.5833 103.219C81.9459 103.453 86.3386 103.671 90.7162 103.566C97.1508 103.415 103.593 103.505 110.02 103.302C115.008 103.144 119.988 102.887 124.976 102.654C129.655 102.435 134.349 102.119 139.028 102.111C140.483 102.111 140.483 99.851 139.028 99.851C134.945 99.851 130.861 100.122 126.785 100.311C121.654 100.552 116.522 100.808 111.391 100.996C105.424 101.215 99.4413 101.094 93.4739 101.237C84.6508 101.448 75.8729 100.808 67.0649 100.506C62.1523 100.341 57.3226 99.9489 52.4476 99.3235C50.0817 99.0146 47.7008 98.8263 45.3274 98.5927C43.406 98.4043 41.447 97.9296 39.5408 98.4571C38.1393 98.8413 38.7345 101.026 40.1435 100.635Z" fill="black"></path><path d="M139.217 101.983C140.694 101.426 142.253 101.275 143.806 101.034C145.358 100.793 146.88 100.303 148.424 99.9791C151.679 99.3009 154.927 98.7735 158.144 97.9371C164.692 96.2494 171.209 94.4411 177.719 92.6026C181.276 91.6005 184.907 90.8546 188.441 89.762C188.938 89.6113 189.247 89.1819 189.27 88.6695C189.383 86.2283 191.071 81.7753 187.883 80.6978C186.52 80.2382 184.915 80.2382 183.604 79.9896C181.019 79.5074 178.555 78.5203 175.964 78.0607C174.539 77.8121 173.929 79.9896 175.361 80.2382C177.712 80.6526 179.972 81.4588 182.293 82.0089C183.634 82.3253 185.005 82.3705 186.354 82.6342C186.663 82.6945 186.979 82.8226 187.288 82.8754C187.446 82.9055 187.529 83.0562 187.416 82.8603C187.642 83.222 187.507 84.1186 187.477 84.5857C187.386 85.9495 187.085 87.3057 187.017 88.6695L187.846 87.577C184.711 88.5414 181.509 89.2195 178.344 90.071C175.18 90.9224 171.835 91.9019 168.572 92.7985C165.31 93.6951 162.062 94.5692 158.792 95.4206C155.56 96.2569 152.342 96.92 149.065 97.5378C147.317 97.8693 145.614 98.4043 143.873 98.7283C142.133 99.0523 140.317 99.1502 138.622 99.7907C137.273 100.296 137.861 102.481 139.225 101.968L139.217 101.983Z" fill="black"></path><path d="M14.5484 75.8757C16.9821 77.1415 19.4987 78.2114 22.068 79.1758C24.6373 80.1403 27.1012 80.8033 29.5123 81.8657C34.2064 83.9227 38.8477 86.0851 43.7377 87.6297C45.1316 88.0668 45.7269 85.8892 44.3405 85.4522C39.5183 83.9302 34.9598 81.7979 30.3336 79.7786C28.0053 78.7614 25.5415 78.0607 23.1605 77.1867C20.6063 76.2449 18.1048 75.1825 15.6862 73.9317C14.3977 73.2611 13.2525 75.2126 14.5484 75.8832V75.8757Z" fill="black"></path><path d="M44.8902 87.9839C46.4122 87.5695 48.0849 88.014 49.6219 88.1798C51.6714 88.3983 53.7208 88.5414 55.7702 88.7976C59.8088 89.2874 63.7947 89.7545 67.8634 89.9128C71.9321 90.071 76.159 90.2141 80.3106 90.4327C84.4622 90.6512 88.2898 90.8395 92.2908 90.7566C98.3712 90.621 104.459 90.6964 110.532 90.508C115.234 90.3573 119.935 90.1162 124.637 89.8977C129.067 89.6943 133.513 89.3853 137.951 89.3853C139.405 89.3853 139.405 87.1249 137.951 87.1249C129.241 87.14 120.516 87.8935 111.813 88.2024C106.215 88.4058 100.617 88.2928 95.0183 88.4284C86.8055 88.6243 78.6379 88.0216 70.4402 87.7503C65.7612 87.5921 61.1575 87.2379 56.5162 86.6352C54.2709 86.3413 52.018 86.1605 49.7576 85.942C47.9417 85.7612 46.1033 85.3242 44.3025 85.8214C42.901 86.2057 43.4963 88.3907 44.9053 87.9989L44.8902 87.9839Z" fill="black"></path><path d="M138.132 89.2497C151.136 86.8612 163.78 82.9206 176.671 80.0348C178.088 79.7183 177.493 77.5408 176.069 77.8573C163.177 80.7355 150.534 84.6761 137.529 87.0722C136.097 87.3359 136.708 89.5134 138.132 89.2497Z" fill="black"></path><path d="M2.03288 77.1641C4.27821 78.0155 6.9304 77.0059 9.15312 76.5237C12.0389 75.8983 15 75.7476 17.8331 74.8585C19.2119 74.4215 18.6242 72.2364 17.2303 72.681C14.5253 73.5399 11.6923 73.7208 8.92709 74.2708C6.99822 74.6475 4.58712 75.7325 2.63564 74.9866C1.27187 74.4667 0.684172 76.6518 2.03288 77.1641Z" fill="black"></path><path d="M118.436 33.3048C119.205 33.0486 120.207 33.6589 120.9 33.9528C121.917 34.3747 122.995 34.646 124.042 34.985C126.355 35.7385 128.465 36.7557 130.552 38.0064C134.854 40.5908 138.847 43.6348 142.901 46.5884C150.262 51.9531 157.594 57.3555 163.245 64.6038C164.91 66.7361 166.334 68.9814 167.539 71.4001C168.127 72.5755 168.685 73.7584 169.31 74.9112C169.935 76.064 170.606 77.2545 170.681 78.5731C170.764 80.0197 173.025 80.0273 172.942 78.5731C172.806 76.1319 171.367 74.0975 170.327 71.9576C169.182 69.5993 167.992 67.3012 166.462 65.1538C163.674 61.2509 160.404 57.7247 156.825 54.53C153.246 51.3353 149.366 48.457 145.455 45.6541C141.146 42.5574 136.949 39.2949 132.435 36.4995C129.949 34.9624 127.425 33.6966 124.645 32.7924C123.416 32.3931 122.203 32.0465 121.013 31.5568C120.011 31.1424 118.911 30.7581 117.833 31.1197C116.462 31.5794 117.05 33.7644 118.436 33.2973V33.3048Z" fill="black"></path><path d="M65.822 31.0444C62.017 33.2521 57.4811 33.6514 53.6007 35.7084C49.7204 37.7653 46.5709 40.9826 43.0899 43.6348C39.6089 46.287 35.5703 48.879 32.1872 51.9757C28.8192 55.0649 26.265 58.8398 23.5224 62.464C21.9928 64.4833 20.2975 66.382 18.9488 68.5294C17.6755 70.5637 16.9296 72.8769 15.5733 74.866L17.6378 75.74C17.6378 75.6496 17.6679 75.5668 17.7358 75.4914C18.3913 74.1954 16.4398 73.0502 15.7843 74.3537C15.6487 74.6174 15.5055 74.8434 15.4603 75.1448C15.2644 76.3956 16.7713 77.1189 17.5248 76.0188C18.6927 74.3085 19.3783 72.3419 20.388 70.5411C21.4805 68.5972 22.9196 66.8943 24.2909 65.1463C27.0561 61.6276 29.4974 57.8075 32.677 54.6354C35.8566 51.4634 39.6692 48.9769 43.2783 46.3021C46.8874 43.6273 49.9012 40.5682 53.6234 38.3003C57.7674 35.7837 62.7704 35.4296 66.9522 33.0034C68.2105 32.2726 67.0727 30.3211 65.8145 31.0519L65.822 31.0444Z" fill="black"></path><path d="M68.2473 30.7581C67.8705 29.432 68.1192 28.023 68.0664 26.6668C68.0438 26.064 67.5692 25.529 66.9362 25.5366C65.4745 25.5592 64.0128 24.3385 62.8826 23.5399C62.31 23.133 61.7449 22.7261 61.1647 22.3343C60.69 22.0103 60.027 21.6411 59.7331 21.1363C59.1379 20.1191 60.1551 18.243 60.4941 17.2861C61.2551 15.1387 62.1216 13.0215 63.0936 10.957C63.8546 9.35963 64.6005 7.71707 65.4293 6.15739C65.7156 5.6149 66.0246 5.00459 66.5445 4.65046C67.1849 4.21345 68.0815 4.07029 68.8199 3.89699C70.5529 3.49765 72.3763 3.10585 73.9812 2.93256C78.6225 2.4202 83.3166 2.32979 87.9806 2.27704C93.5939 2.21677 99.2148 2.29965 104.821 2.5935C107.428 2.72912 110.035 2.90242 112.626 3.19627C114.292 3.38464 116.017 3.58807 117.637 4.12303C119.023 4.58265 119.619 2.3976 118.24 1.94552C116.635 1.41809 114.917 1.2222 113.252 1.01123C110.863 0.717373 108.452 0.544066 106.049 0.400908C100.104 0.0543129 94.1439 -0.0436336 88.1991 0.0166437C83.294 0.0618517 78.3287 0.137203 73.4537 0.739977C71.2837 1.00369 69.0309 1.41056 66.9438 2.05854C65.2862 2.57844 64.2916 3.49013 63.4778 5.01213C62.5963 6.67729 61.7901 8.42533 60.9914 10.1357C59.8461 12.592 58.8289 15.1161 57.9625 17.6854C57.4727 19.1321 56.9001 20.8425 57.7816 22.2665C58.6632 23.6906 60.4263 24.542 61.7449 25.4838C63.2518 26.5537 65.0074 27.8196 66.9362 27.7894L65.806 26.6592C65.8663 28.2415 65.6252 29.8087 66.0698 31.3533C66.4691 32.7472 68.6466 32.1595 68.2473 30.7505V30.7581Z" fill="black"></path><path d="M119.807 32.1143C120.244 30.5697 120.011 28.995 120.071 27.4202L118.941 28.5504C121.48 28.5881 123.642 26.5312 125.624 25.19C126.551 24.5571 127.628 23.9091 128.178 22.8919C128.691 21.9576 128.608 20.9103 128.367 19.9082C127.674 16.9998 126.355 14.1216 125.119 11.4015C123.816 8.53083 122.339 5.6978 120.463 3.15108C119.611 1.99074 117.645 3.12094 118.511 4.28881C121.736 8.67399 123.974 13.8654 125.722 18.9889C125.971 19.7123 126.491 20.8048 126.272 21.5959C126.076 22.2967 125.142 22.7789 124.592 23.1481C123.68 23.7584 122.814 24.429 121.894 25.0242C121.028 25.5893 120.011 26.29 118.933 26.275C118.308 26.2674 117.826 26.8024 117.803 27.4052C117.75 28.7689 117.999 30.1704 117.622 31.4965C117.223 32.8979 119.408 33.4932 119.8 32.0993L119.807 32.1143Z" fill="black"></path><path d="M65.9196 19.6444C67.1177 19.23 68.3684 18.9136 69.6267 18.7252C70.1993 18.6423 70.9679 18.5821 71.6159 18.6047C71.9398 18.6122 72.196 18.6348 72.407 18.68C72.5652 18.7101 72.7235 18.7478 72.8742 18.793C72.9269 18.8081 72.9872 18.8307 73.0399 18.8458C73.3639 18.9588 72.8892 18.7554 73.1906 18.906C73.492 19.0567 73.5071 19.0643 73.6578 19.2225C73.8311 19.4033 73.8763 19.4937 73.9516 19.7575C74.1927 20.6013 74.1927 21.4829 74.1701 22.3569C74.1324 23.8563 74.027 25.3256 74.0797 26.825C74.1098 27.586 74.1324 28.347 74.0948 29.1155C74.0872 29.2963 74.0722 29.4772 74.0571 29.658C74.042 29.7936 74.0571 29.658 74.0571 29.6279C74.042 29.7258 74.027 29.8238 74.0044 29.9217C73.9968 29.9669 73.9742 30.0046 73.9742 30.0498C73.9441 30.2533 73.9064 30.095 73.9968 30.0347C73.8536 30.1327 74.0571 29.9745 74.0722 29.9594C74.2002 29.8615 74.7729 29.7484 74.6147 29.7409C73.1605 29.6655 73.168 31.9259 74.6147 32.0013C76.4154 32.0917 76.3702 29.447 76.3702 28.2641C76.3702 26.6668 76.2949 25.0995 76.3778 23.4947C76.4757 21.6035 76.7093 19.0341 75.2099 17.595C73.9893 16.4196 72.1207 16.2689 70.5083 16.3819C68.7451 16.5025 66.982 16.9018 65.3093 17.4745C63.938 17.9416 64.5257 20.1267 65.9121 19.652L65.9196 19.6444Z" fill="black"></path><path d="M65.49 19.4335C66.0551 21.0158 66.7859 22.5227 67.464 24.0598C68.0668 25.4235 68.5189 26.8175 68.8655 28.2641C69.1217 29.3416 69.6415 30.0197 70.6964 30.419C71.3896 30.6752 72.1355 30.8108 72.8739 30.8033C73.7329 30.7958 74.5692 30.6225 75.4282 30.6526C76.8824 30.7053 76.8824 28.4449 75.4282 28.3922C74.6898 28.3696 73.9665 28.4826 73.2356 28.5278C72.5801 28.5655 72.0225 28.4751 71.3971 28.2792C71.1184 28.1888 71.5101 28.3545 71.3067 28.2415C71.2389 28.2038 71.1711 28.1586 71.1033 28.121C71.367 28.2716 71.1937 28.1511 71.1259 28.1134C71.3218 28.234 71.2464 28.1963 71.156 28.1134C71.3067 28.2566 71.2012 28.2415 71.156 28.0908C71.1334 28.0004 71.1033 27.91 71.0807 27.8196C71.0129 27.5634 70.9601 27.2997 70.8998 27.0435C70.1991 24.1653 68.662 21.6035 67.6675 18.8307C67.464 18.2581 66.8989 17.8738 66.2736 18.0396C65.716 18.1903 65.279 18.8533 65.4824 19.4335H65.49Z" fill="black"></path><path d="M83.6409 28.9422C83.7615 26.8627 83.0909 24.8735 82.8271 22.8316C82.5634 20.7897 82.6463 18.8684 82.149 16.932L81.3579 18.3259C82.7744 17.8437 84.2587 17.9718 85.728 18.0773C87.1973 18.1827 88.7946 18.2882 90.3091 17.9266L88.9152 16.5326C88.2144 20.6993 88.8474 24.9263 88.3275 29.1005L89.1563 28.0079C86.8733 28.3244 84.6053 27.6689 82.36 28.4374L83.4601 28.7313L83.3922 28.6484L83.6861 29.7485V29.6957C83.5957 29.8615 83.4977 30.0272 83.4073 30.193C83.671 29.869 83.8368 29.5676 83.8217 29.1306C83.769 27.6764 81.5086 27.6764 81.5613 29.1306V29.2587C81.6141 29.0703 81.6668 28.882 81.7196 28.6861C81.8401 28.445 81.6819 28.7313 81.6367 28.8217C81.5463 28.9724 81.5086 29.1306 81.4935 29.2964C81.4483 29.7183 81.6141 30.0122 81.8703 30.3286C82.1038 30.6149 82.6237 30.7355 82.9703 30.6225C85.1403 29.8765 87.5212 30.5019 89.7666 30.193C90.294 30.1177 90.5426 29.5526 90.5954 29.1005C91.0851 25.1297 90.4372 21.0836 91.1002 17.1354C91.2434 16.2915 90.6029 15.5305 89.7063 15.7415C86.7527 16.4498 83.6936 15.1387 80.7551 16.1408C80.1674 16.3367 79.8058 16.9094 79.964 17.5348C80.4311 19.3355 80.3558 21.2117 80.5894 23.0426C80.8455 25.0091 81.4935 26.938 81.373 28.9422C81.2901 30.3964 83.5505 30.3889 83.6334 28.9422H83.6409Z" fill="black"></path><path d="M96.1036 16.721C95.32 18.6423 95.4481 20.7822 95.6742 22.8015C95.9002 24.8208 96.3071 26.8174 95.9002 28.7689C95.7269 29.6279 96.4201 30.3587 97.2941 30.1628C99.3209 29.7032 101.529 30.0649 103.616 30.08C105.07 30.0875 105.07 27.8271 103.616 27.8196C101.31 27.8045 98.9743 27.4579 96.6913 27.9778L98.0852 29.3717C98.5072 27.3147 98.2209 25.2502 97.9798 23.1857C97.7537 21.2343 97.5202 19.1924 98.2887 17.3238C98.5223 16.7587 98.04 16.0805 97.4975 15.9298C96.8496 15.749 96.3372 16.1484 96.1036 16.721Z" fill="black"></path><path d="M98.5 17.9943C99.1706 17.5046 99.6829 17.6176 100.451 17.7834C101.152 17.9265 101.853 18.0094 102.569 18.0471C102.697 18.0471 102.817 18.0546 102.945 18.0622C103.006 18.0622 103.292 18.0697 103.081 18.0697C103.149 18.0697 103.382 18.1074 103.179 18.0697C103.285 18.0923 103.209 18.0471 103.224 18.0697C103.39 18.3108 103.511 19.1547 103.563 19.6746C103.895 23.02 103.42 26.3729 103.413 29.7183C103.413 31.1725 105.665 31.1725 105.673 29.7183C105.688 25.8681 106.411 21.8672 105.598 18.0622C105.447 17.3464 105.123 16.6155 104.483 16.2086C103.91 15.847 103.232 15.8168 102.576 15.7867C100.768 15.7038 98.9973 14.8373 97.3623 16.0504C96.8725 16.4121 96.6239 17.0299 96.9554 17.595C97.2417 18.0772 98.0103 18.3635 98.5 18.0019V17.9943Z" fill="black"></path><path d="M108.769 17.6779C108.189 19.7047 108.626 21.8446 108.513 23.9166C108.385 26.2599 108.166 28.5806 108.603 30.9088C108.694 31.391 109.229 31.7376 109.696 31.7376C111.052 31.7301 112.446 31.4211 113.787 31.7074C114.315 31.8205 114.759 31.617 115.061 31.1876C116.304 29.4244 116.877 27.2168 117.246 25.1146C117.615 23.0124 117.803 20.7671 117.931 18.5821C117.962 18.0998 117.562 17.6101 117.103 17.4895C114.842 16.9244 112.604 15.8771 110.223 16.0806C108.784 16.2011 108.769 18.4615 110.223 18.341C112.393 18.1526 114.443 19.1547 116.5 19.6746L115.671 18.5821C115.55 20.5637 115.407 22.5528 115.061 24.5118C114.714 26.4709 114.247 28.4299 113.102 30.0423L114.375 29.5224C112.8 29.1833 111.263 29.4621 109.681 29.4696L110.773 30.2985C110.374 28.1963 110.645 26.0263 110.766 23.9091C110.864 22.0555 110.427 20.0815 110.939 18.2731C111.346 16.8717 109.161 16.2764 108.762 17.6704L108.769 17.6779Z" fill="black"></path><path d="M53.1405 236.515C53.0953 242.866 51.6185 249.128 51.8596 255.495C51.9123 256.941 54.1727 256.949 54.12 255.495C53.8789 249.128 55.3557 242.866 55.4009 236.515C55.4084 235.061 53.148 235.061 53.1405 236.515Z" fill="black"></path><path d="M123.371 236.771C123.364 236.47 123.371 236.176 123.371 235.882H121.111C121.39 242.008 123.567 247.847 123.929 253.958C124.012 255.404 126.28 255.412 126.189 253.958C125.827 247.847 123.642 242 123.371 235.882C123.303 234.435 121.133 234.42 121.111 235.882C121.111 236.183 121.103 236.477 121.111 236.771C121.148 238.225 123.409 238.225 123.371 236.771Z" fill="black"></path><path d="M38.4256 99.2407C39.925 98.1105 41.1005 96.6789 42.2231 95.187C43.3458 93.6951 44.589 92.1355 45.5007 90.4929C46.2767 89.0915 46.5555 87.5996 46.5782 86.0098C46.6008 84.2617 46.646 82.574 46.9323 80.8485C48.2207 73.0728 51.1743 65.523 55.1074 58.7117C57.2698 54.967 59.7713 51.4181 62.7626 48.2837C63.7647 47.2289 62.1749 45.6315 61.1653 46.6864C55.8307 52.2771 51.8675 59.1186 48.8988 66.2237C47.3994 69.8178 46.1713 73.5324 45.3199 77.3374C44.9205 79.1382 44.5739 80.9691 44.4006 82.8076C44.2499 84.3823 44.491 86.0249 44.1972 87.5845C43.8431 89.4531 42.4718 90.9827 41.4018 92.4971C40.2114 94.1849 38.9606 96.046 37.2804 97.3042C36.1276 98.1707 37.2578 100.13 38.4181 99.2557L38.4256 99.2407Z" fill="black"></path><path d="M146.819 97.9523C145.772 96.37 144.446 95.0288 143.15 93.6575C141.997 92.4369 140.754 91.1484 140.121 89.5662C139.579 88.2175 139.541 86.7407 139.413 85.3091C139.225 83.3049 138.855 81.3308 138.358 79.3793C137.364 75.5215 136.09 71.709 134.877 67.9191C133.732 64.3326 132.413 60.7988 130.899 57.3479C129.181 53.445 127.192 49.6475 124.766 46.1364C123.944 44.9459 121.985 46.0761 122.814 47.2741C127.124 53.5053 130.108 60.5878 132.458 67.7684C133.687 71.5282 134.907 75.3332 135.955 79.1457C136.497 81.1047 136.942 83.1014 137.137 85.1282C137.281 86.6352 137.318 88.1948 137.77 89.649C138.968 93.552 142.706 95.8124 144.876 99.0825C145.674 100.288 147.633 99.1578 146.827 97.9447L146.819 97.9523Z" fill="black"></path><defs><radialGradient id="paint0_radial_3_14434" cx="0" cy="0" r="1" gradientUnits="userSpaceOnUse" gradientTransform="translate(94.7171 159.669) scale(68.5203 68.5202)"><stop stop-color="#FFFF00"></stop><stop offset="1" stop-color="#FFFF00" stop-opacity="0"></stop></radialGradient></defs></svg> 