<?xml version="1.0" encoding="UTF-8"?> <svg xmlns="http://www.w3.org/2000/svg" width="1200" height="678" viewBox="0 0 1200 678" fill="none"><path d="M0 365.643C415.976 468.403 513.668 414.985 590.239 352.362C499.603 408.734 390.291 455.532 0 323.175C0 337.359 0 351.54 0 365.643ZM0 187.271C289.316 389.904 459.945 397.159 590.239 352.362C442.602 398.113 248.256 346.19 0 130.555C0 149.464 0 168.361 0 187.271ZM0 281.186C360.852 439.905 486.758 403.594 590.239 352.362C473.726 399.491 326.445 418.586 0 235.631C0 250.847 0 265.983 0 281.186ZM357.852 0C306.476 274.406 440.913 329.679 590.239 352.362C456.383 316.607 323.91 269.055 444.758 0C415.698 0 386.82 0 357.852 0ZM524.823 0C340.975 258.236 470.073 306.543 590.239 352.362C482.635 297.699 361.318 242.756 605.897 0C578.896 0 551.915 0 524.823 0ZM157.222 0C254.535 252.754 407.821 371.259 590.239 352.362C424.885 346.602 285.663 271.041 265.599 0C229.411 0 193.314 0 157.222 0ZM0 0C0 21.6377 0 43.2886 0 64.7941C209.068 279.133 419.351 404.839 590.239 352.362C393.104 407.833 202.036 208.366 31.5942 0C21.1876 0 10.6898 0 0 0ZM274.786 678C640.208 521.265 677.802 427.935 590.239 352.362C683.145 438.395 542.262 543.751 170.067 678C204.94 678 239.909 678 274.786 678ZM448.415 678C751.023 477.83 685.914 412.308 590.239 352.362C679.631 419.75 704.241 499.336 364.226 678C392.446 678 420.291 678 448.415 678ZM0 453.2C449.164 489.961 549.294 429.63 590.239 352.362C529.417 421.816 435.757 479.208 0 407.622C0 422.771 0 437.972 0 453.2ZM0 678C16.0323 678 32.343 678 48.5626 678C391.697 561.812 701.803 452.988 590.239 352.362C661.304 455.32 387.104 539.91 0 624.026C0 641.982 0 660.071 0 678ZM0 558.265C435.757 516.631 609.924 446.897 590.239 352.362C574.231 437.839 451.415 501.403 0 501.536C0 520.444 0 539.354 0 558.265ZM1200 520.788C898.494 295.367 734.334 297.553 590.239 352.362C754.21 292.082 944.151 354.122 1200 584.431C1200 563.19 1200 542.028 1200 520.788ZM685.914 0C386.82 224.336 492.571 290.029 590.239 352.362C500.074 282.349 423.104 202.208 772.866 0C743.991 0 714.926 0 685.914 0ZM1200 415.354C810.461 232.758 705.46 294.122 590.239 352.362C719.333 297.42 853.868 258.514 1200 466.548C1200 449.492 1200 432.491 1200 415.354ZM960.558 678C895.682 411.752 766.304 340.443 590.239 352.362C749.054 361.67 871.072 408.045 855.744 678C890.713 678 925.635 678 960.558 678ZM766.304 678C851.9 414.003 733.444 376.396 590.239 352.362C718.771 387.916 832.493 425.789 682.113 678C710.332 678 738.46 678 766.304 678ZM604.581 678C811.305 440.727 705.926 397.002 590.239 352.362C694.77 405.051 784.585 458.523 526.042 678C552.198 678 578.378 678 604.581 678ZM1200 678C1200 671.432 1200 664.836 1200 658.295C979.589 447.374 782.898 276.602 590.239 352.362C782.523 309.073 932.901 433.92 1082.01 678C1121.44 678 1160.53 678 1200 678ZM865.212 0C474.197 177.962 503.074 274.14 590.239 352.362C498.571 263.784 555.385 151.173 973.402 0C937.401 0 901.26 0 865.212 0ZM1200 0C1166.39 0 1132.45 0 1098.84 0C684.834 126.105 480.197 249.337 590.239 352.362C487.32 236.73 778.539 128.635 1200 30.5497C1200 20.4061 1200 10.1964 1200 0ZM1200 222.349C692.615 181.391 634.208 265.082 590.239 352.362C657.925 274.259 710.99 191.098 1200 273.437C1200 256.461 1200 239.326 1200 222.349ZM1200 104.388C710.52 155.424 556.792 245.364 590.239 352.362C602.897 255.495 688.958 170.904 1200 168.03C1200 146.79 1200 125.615 1200 104.388ZM1200 320.58C737.945 201.52 675.973 282.072 590.239 352.362C691.583 288.917 772.117 215.08 1200 368.238C1200 352.362 1200 336.47 1200 320.58Z" fill="#FFBB62" fill-opacity="0.13"></path></svg> 