<?xml version="1.0" encoding="UTF-8"?> <svg xmlns="http://www.w3.org/2000/svg" width="264" height="72" viewBox="0 0 264 72" fill="none"><rect x="5.59668" y="5.6412" width="257.522" height="65.5684" rx="12.3535" fill="#2E2A1D"></rect><rect x="1.22123" y="1.26554" width="256.572" height="64.6181" rx="11.8783" fill="#FFF3CF" stroke="#2E2A1D" stroke-width="0.950266"></rect><path d="M78.4327 40.7957V37.7457L86.4935 28.8134V28.5956H78.6505V25.5455H90.7418V28.5956L82.681 37.5278V37.7457H90.9597V40.7957H78.4327ZM92.2566 40.7957V25.5455H103.694V28.5956H95.5245V31.6456H102.06V34.4778H95.5245V37.7457H103.694V40.7957H92.2566ZM105.108 40.7957V25.5455H112.297C114.113 25.5455 115.565 26.0393 116.654 27.027C117.744 28.0001 118.288 29.2128 118.288 30.6652C118.288 31.7981 117.969 32.7639 117.33 33.5628C116.691 34.3616 115.848 34.9571 114.803 35.3492L118.288 40.7957H114.585L111.426 35.7849H108.376V40.7957H105.108ZM108.376 32.7349H112.188C113.089 32.7349 113.764 32.5534 114.214 32.1903C114.679 31.8126 114.912 31.3043 114.912 30.6652C114.912 30.0262 114.679 29.5251 114.214 29.162C113.764 28.7844 113.089 28.5956 112.188 28.5956H108.376V32.7349ZM121.34 38.9004C119.742 37.3318 118.944 35.4218 118.944 33.1706C118.944 30.9194 119.742 29.0167 121.34 27.4627C122.952 25.8941 124.949 25.1098 127.331 25.1098C129.713 25.1098 131.703 25.8941 133.301 27.4627C134.913 29.0167 135.719 30.9194 135.719 33.1706C135.719 35.4218 134.913 37.3318 133.301 38.9004C131.703 40.4544 129.713 41.2315 127.331 41.2315C124.949 41.2315 122.952 40.4544 121.34 38.9004ZM123.802 29.5759C122.887 30.5055 122.429 31.7037 122.429 33.1706C122.429 34.6375 122.887 35.843 123.802 36.7871C124.731 37.7166 125.908 38.1814 127.331 38.1814C128.755 38.1814 129.924 37.7166 130.839 36.7871C131.768 35.843 132.233 34.6375 132.233 33.1706C132.233 31.7037 131.768 30.5055 130.839 29.5759C129.924 28.6319 128.755 28.1598 127.331 28.1598C125.908 28.1598 124.731 28.6319 123.802 29.5759ZM139.974 28.5956V25.5455H153.046V28.5956H148.144V40.7957H144.876V28.5956H139.974ZM151.631 40.7957L155.662 25.5455H162.524L166.555 40.7957H163.178L162.306 37.4189H155.88L155.008 40.7957H151.631ZM156.642 34.3689H161.544L160.019 28.5956H158.167L156.642 34.3689ZM166.017 40.7957L169.938 33.2796L166.235 25.5455H169.72L172.553 31.7545H173.642L176.474 25.5455H179.96L176.256 33.2796L180.178 40.7957H176.648L173.642 34.8046H172.553L169.546 40.7957H166.017Z" fill="#2E2A1D"></path></svg> 