<?xml version="1.0" encoding="UTF-8"?> <svg xmlns="http://www.w3.org/2000/svg" width="253" height="399" viewBox="0 0 253 399" fill="none"><path d="M140.7 149.96C139.61 148.45 137.75 147.93 136.01 147.6C134.67 147.35 133.75 148.59 134.32 149.8C134.57 150.34 134.83 150.91 135.06 151.5C135.14 152.27 135.28 153.05 135.6 153.74C135.6 153.88 135.62 154.01 135.61 154.15C135.57 155.8 134.46 156.72 133.09 157.44C132.28 157.86 131.45 158.22 130.59 158.51C130.16 158.2 129.59 158.1 129.03 158.46C128.64 158.71 128.27 158.98 127.88 159.24C127.25 159.37 126.62 159.47 125.99 159.54C127.46 155.25 126.76 150.26 123.89 146.57C123.75 146.39 123.58 146.28 123.41 146.21C120.77 143.13 116.63 141.49 112.6 142.48C111.49 142.75 111.16 144.2 111.94 144.99C112.61 145.67 113.3 146.34 113.98 147.01C113.85 147.43 113.88 147.91 114.1 148.24C115.8 150.88 116.77 153.91 116.87 157.01C113.5 158.91 109.71 160 106.44 162.07C102.28 164.7 99.96 168.94 98.17 173.41C96.34 177.96 98.1999 182.66 100.83 186.51C103.61 190.57 107.48 193.63 112.02 195.49C113.31 196.02 114.28 194.33 113.71 193.29C113.02 192.01 112.3 190.76 111.56 189.51C112.08 189.32 112.52 188.96 112.8 188.37C113.5 186.9 112.56 184.93 110.81 185.01C110.59 185.01 110.4 185.07 110.23 185.15C109.88 183.96 109.33 182.84 108.59 181.84C109.37 179.62 110.25 177.45 111.23 175.33C111.57 174.97 111.93 174.63 112.26 174.26C112.77 174.51 113.41 174.51 113.96 174.05C116.7 171.46 119.58 169.02 122.55 166.72C123.08 167.19 123.93 167.35 124.64 166.78C127.95 164.08 132.46 163.49 135.77 160.75C137.33 159.46 138.52 157.53 138.9 155.51C139.68 155.32 140.38 154.8 140.82 154.06C141.58 152.78 141.56 151.16 140.69 149.96H140.7ZM106.18 165.98C106.35 165.83 106.53 165.71 106.7 165.57C105.5 166.77 104.41 168.07 103.42 169.45C104.17 168.17 105.04 166.98 106.17 165.98H106.18Z" fill="#FFCE00"></path><path d="M31.95 288.21C31.89 288.32 31.92 288.34 32.02 288.3C32.02 288.18 31.99 288.14 31.95 288.21Z" fill="#515151"></path><path d="M235.05 105.76L229 105.27L221.59 89.64C221.59 89.64 204.5 67.01 187.58 56.85C170.66 46.69 158.53 43.21 158.53 43.21L162.05 37.6C162.05 37.6 170.49 30.01 170.1 28.49C169.71 26.97 159.49 5.08999 159.49 5.08999C148.49 -2.83001 90.49 5.00999 88.31 6.00999C86.13 7.00999 78.53 28.42 78.53 28.42L88.06 38.13L89.0799 43.49C89.0799 43.49 85.49 45.01 78.53 47.41C71.57 49.81 63.49 57.01 46.2 69.75C28.91 82.49 24.23 98.89 24.23 98.89C24.23 98.89 3.49996 104.01 3.28996 102.21C3.07996 100.41 3.47996 111.97 3.47996 111.97C3.47996 111.97 12.1399 115.88 21.8099 120.12C21.7999 120.2 21.7799 120.29 21.7699 120.38C21.6999 121.41 21.65 122.45 21.63 123.48C21.59 123.66 21.57 123.85 21.57 124.05C21.54 128.26 21.5 132.46 21.47 136.67C21.47 137.31 21.66 137.81 21.97 138.19C22.19 145.3 23.3799 152.38 24.8299 159.33C25.5599 162.83 26.3299 166.33 27.1099 169.82C25.8099 169.85 24.94 169.91 24.94 169.91L37.75 283.73L35.48 285.52C35.48 285.52 32.5599 288.06 31.9899 288.3C32.0699 289.54 30.6199 300.03 30.6199 300.03C30.6199 300.03 32.48 301.99 34.73 301.99C36.98 301.99 35.6 304.64 35.6 304.64L28.16 380.87L23.98 382.79L24.0299 388.02L23.98 396.57H229.56V383.04C229.56 383.04 222.48 377.99 223.11 377.42C223.74 376.86 211.48 302.98 210.09 301.48C208.7 299.98 213.43 298.53 213.43 298.53L217.24 295.09L211.48 289.84C211.48 289.84 235.48 124.98 235.03 124.14C234.58 123.3 236.89 122.28 236.89 122.28L250.65 118.65L250.9 110.08L235.03 105.73L235.05 105.76ZM147.28 27.91C147.38 22.73 155.42 22.73 155.32 27.91C155.26 31.01 154.33 34.32 154.84 37.39C155.2 39.54 154.31 41.71 152.03 42.34C150.09 42.87 147.44 41.68 147.08 39.53C146.42 35.57 147.2 31.87 147.28 27.91ZM129.92 27.57C129.92 25.39 131.76 23.55 133.94 23.55C134.21 23.55 134.47 23.58 134.72 23.63C137.08 22.75 140.32 23.95 140.35 27.23C140.38 30.36 140.55 33.38 139.87 36.47C139.4 38.6 136.94 39.83 134.92 39.28C134.27 39.1 133.72 38.76 133.28 38.33C131.41 38 129.93 36.32 129.93 34.38V27.57H129.92ZM114.15 24.03C116.17 23.48 118.63 24.72 119.1 26.84C119.79 29.93 119.61 32.95 119.58 36.08C119.54 41.26 111.49 41.26 111.54 36.08C111.56 33.73 111.86 31.3 111.34 28.98C110.87 26.85 111.96 24.63 114.15 24.03ZM92.07 27.53C93.43 24.96 96.72 25.07 98.66 26.77C99.76 27.73 100.02 29.29 99.66 30.66C99.74 31.04 99.82 31.42 99.91 31.81C100.16 32.89 100.45 33.95 100.72 35.02C101.27 37.21 100.02 39.28 97.91 39.97C95.87 40.63 93.4799 39.2 92.9599 37.16C92.5099 35.4 92.0099 33.65 91.7099 31.85C91.4599 30.33 91.32 28.96 92.07 27.54V27.53ZM202.39 288.01L159.51 300.87H70.51L51.3299 293.21C51.3299 293.21 44.22 222.12 41 188.81C41.9399 188.33 42.6399 187.34 42.3599 186.02C41.3599 181.29 40.38 176.55 39.41 171.8C39.41 171.78 39.4099 171.76 39.3999 171.75C38.2299 166.01 37.09 160.26 35.97 154.51C34.94 144.65 33.8999 134.78 32.8699 124.92C40.0199 127.98 46.04 130.45 47.45 130.69C51.4 131.38 56.01 132.58 56.01 132.58C69.52 140.17 173.14 136.5 173.14 136.5L193.38 134.9C193.38 134.9 220.15 130.07 220.48 128.04C219.9 131.36 202.38 288 202.38 288L202.39 288.01Z" fill="#515151"></path><path d="M233.5 105.27C232 106.5 229 108.09 229 108.09C229 108.09 227.77 92.09 206.38 72.3C184.99 52.51 158.53 41.62 158.53 41.62L158.81 38.56L169.13 30.39C169.13 30.39 163.09 10.19 160.54 7.35C157.99 4.51 112.41 1.67999 99.2 5.08999C85.99 8.49999 87.99 6.50999 85.99 8.50999C83.99 10.51 80.61 31.38 80.61 31.38L89.8 38.09L89.07 43.48C89.07 43.48 74.29 46.96 60.14 59.23C45.99 71.5 38.55 78.28 33.77 84.89C28.99 91.5 24.94 101.1 24.94 101.1C24.94 101.1 3.58 98.9 3.29 102.2C3 105.5 6.95001 106.8 6.95001 106.8C6.95001 106.64 7.66999 106.8 8.92999 107.21C18 110.15 55.13 125.84 56 126.15C56.99 126.5 85.82 129.88 129.91 129.69C174 129.5 191.12 126 191.12 126C191.12 126 236.76 112.17 247.14 109.83C242.99 109.08 234.72 104.25 233.49 105.27H233.5ZM98.24 40.64C96.34 41.16 93.59 39.98 93.29 37.83C92.85 34.69 91.36 31.9 90.23 28.98C89.44 26.94 91.11 24.56 93.04 24.03C95.29 23.41 97.2 24.81 97.99 26.84C99.12 29.76 100.61 32.55 101.05 35.69C101.35 37.85 100.56 40 98.24 40.64ZM118.55 35.74C118.59 37.92 116.68 39.76 114.53 39.76C112.38 39.76 110.54 37.91 110.51 35.74C110.47 33.55 110.01 31.49 109.63 29.32C109.26 27.17 110.18 24.99 112.44 24.37C113 24.21 113.62 24.22 114.23 24.34C114.8 24.24 115.38 24.25 115.94 24.37C118.1 24.86 119.14 27.18 118.76 29.21C118.76 29.32 118.75 29.43 118.76 29.55C118.76 29.59 118.76 29.75 118.76 29.91C118.78 29.94 118.87 30.65 118.89 30.75C118.95 31.04 119.02 31.32 119.09 31.6C119.39 32.81 119.13 33.97 118.5 34.89C118.51 35.17 118.55 35.45 118.55 35.73V35.74ZM140.34 32.68C140.34 34.23 139.46 35.49 138.21 36.17C137.75 37.83 135.91 39.09 134.28 39.09C131.93 39.09 130.51 37.23 130.26 35.07C129.95 32.34 129.95 29.63 130.26 26.9C130.51 24.73 131.9 22.88 134.28 22.88C135.9 22.88 137.72 24.11 138.2 25.74C139.46 26.44 140.35 27.83 140.35 29.28V32.68H140.34ZM154.49 37.15C154.32 37.64 154.07 38.09 153.76 38.49C154.07 40.69 152.8 43.17 149.93 43.17C146.31 43.17 145.23 39.25 146.67 36.88C146.53 36.27 146.52 35.63 146.73 35.01C147.35 33.23 147.62 31.38 146.79 29.6C145.87 27.62 146.21 25.28 148.23 24.1C149.98 23.08 152.82 23.57 153.73 25.54C155.45 29.26 155.84 33.23 154.48 37.15H154.49Z" fill="#2D2D2D"></path><path d="M19.38 120.46C19 121.5 27.82 122.66 27.82 122.66L46.78 290.46C46.78 290.46 42.99 290.87 40.49 291.18C37.99 291.49 36.52 294.55 37.76 294.52C39 294.49 73.49 308.65 73.49 308.65C73.49 308.65 156.99 308.15 159.49 307.32C161.99 306.49 213.1 293.58 213.1 293.58C213.1 293.58 216.86 291.67 216.92 293.58C216.98 295.49 213.88 296.6 213.44 298.54C213 300.48 208.26 301.99 208.26 301.99L223.12 379.47L229.57 383.04L230.71 392.49C230.71 392.49 228.7 396.8 226.35 396.64C224 396.48 24 396.57 24 396.57L25 386.49L29.94 378.7L30.45 360.15L35.62 304.64C35.62 304.64 29.88 298.82 29.94 297.66C30 296.5 32.01 288.3 32.01 288.3L39.67 283.72L19.38 120.45V120.46Z" fill="#2D2D2D"></path><path d="M227.59 124.92C228 127.5 206 289.5 206 289.5C206 289.5 209 292.22 211.5 289.86C214 287.5 233.5 123 233.5 123L227.59 124.92Z" fill="#2D2D2D"></path><path opacity="0.56" d="M73.5 317.27C73 320.5 68.91 396.59 68.91 396.59C68.91 396.59 175.88 398.5 175.44 397.5C175 396.5 159 312.35 159.5 311.92C160 311.49 73.5 314.04 73.5 314.04V317.27Z" fill="#515151"></path><path opacity="0.56" d="M56.01 129.7C56.01 127.5 63 120.5 62 116.5C61 112.5 62.08 104.11 64.54 96.8C67 89.49 83 61.73 91.5 54.11C100 46.49 91.77 46.39 114.38 41.94C136.99 37.49 156.15 39.26 168.07 67.37C179.99 95.48 183.8 116.67 183.9 118.08C184 119.49 194.53 132.94 194.53 132.94L85.25 134.89L53.08 132.58L56 129.69L56.01 129.7Z" fill="#515151"></path><path d="M86.4101 205.5C86.0001 206.5 90.7301 244.27 90.7301 244.27L93.6901 297.88C93.6901 297.88 92.3701 301.21 93.6901 300.85C95.0101 300.49 159.51 300.85 159.51 300.85L166.65 295.15L167.01 246.49L165.01 234.49C165.01 234.49 167.01 238.49 168.01 229.49C169.01 220.49 168.01 207.99 168.01 207.99C168.01 207.99 168.06 201.82 167.54 200.16C167.02 198.5 149.38 194.94 137.69 194.22C126 193.5 110.46 194.67 110.46 194.67C110.46 194.67 88.7801 196.97 86.3901 198.74C84.0001 200.51 86.4101 205.5 86.4101 205.5Z" fill="#BF9A00"></path><path d="M33.86 124.56C34 124.14 52.31 292.85 52.31 292.85L71.49 300.51L163.05 299.56L203.38 287.65C203.38 287.65 221.97 127.23 221.48 127.69C220.99 128.15 185.58 136.15 185.58 136.15C185.58 136.15 83.32 135.06 73.66 134.11C64 133.16 52.96 130.94 51.98 131.05C51 131.16 33.87 124.57 33.87 124.57L33.86 124.56Z" fill="url(#paint0_radial_10_2084)"></path><path d="M163.53 171.17C163.54 169.92 163.29 168.7 162.76 167.57C162.62 167.05 162.47 166.53 162.3 166.02C162.08 164.72 161.69 163.46 161.12 162.25C160.75 161.46 160.25 160.64 159.65 159.96C158.27 157.52 156.57 155.24 154.58 153.21C153.29 151.89 150.89 152.49 150.41 154.29C149.6 154.51 148.96 155.13 148.66 156.01C148.44 156.66 148.24 157.32 148.07 157.98C147.9 157.86 147.72 157.77 147.53 157.69C147.49 156.22 147.35 154.76 147.12 153.31C146.8 153.28 146.48 153.24 146.17 153.15C145.01 152.84 143.95 152.17 143.16 151.26C142.57 150.58 142.16 149.83 141.9 149.05C141.69 148.81 141.48 148.55 141.26 148.32C141.15 148.21 140.59 147.77 140.23 147.43C140.53 150 140.17 152.63 139.24 155.05C138.2 156.43 136.98 157.72 135.65 158.89C132.47 161.71 128.73 163.82 125.06 165.93C124.77 166.1 124.53 166.32 124.34 166.58C122.14 166.72 119.97 167.22 117.94 168.05C116.9 167.03 115.49 167.24 114.43 168.07C112.6 169.52 111.25 171.41 110.2 173.47C110.07 173.66 109.98 173.86 109.88 174.05C109.23 174.87 108.64 175.76 108.13 176.7C107.73 177.43 107.72 178.3 108.04 179.02C107.09 182.03 106.37 185.44 107.57 188.29C108.01 189.33 108.87 190.11 109.97 190.12C110.54 191.16 111.43 191.97 112.84 192.28C112.98 192.31 113.12 192.32 113.26 192.33C114.39 194.19 116.01 195.76 117.93 196.74C118.39 196.97 118.91 197.07 119.42 197.03C120.22 197.56 121.07 198.01 121.99 198.36C122.98 198.73 124.33 198.12 124.81 197.21C125.21 196.46 125.25 195.5 124.85 194.75C127.02 194.81 129.2 194.5 131.34 194.19C133.32 193.91 135.3 193.44 136.92 192.22C138.64 190.94 139.31 189.03 140.68 187.49C141.14 186.97 141.39 186.31 141.38 185.66C141.45 185.64 141.52 185.62 141.59 185.6C141.92 185.5 142.26 185.39 142.59 185.29C142.64 185.29 142.7 185.31 142.75 185.32C145.86 185.59 148.87 184.69 151.7 183.49C154.03 182.5 156.4 181.4 158.44 179.88C159.92 178.79 161.22 177.48 162.14 175.92C163.09 175.56 163.88 174.64 163.79 173.59C163.72 172.78 163.61 171.97 163.49 171.17H163.53ZM129.29 189.46C128.87 189.51 128.45 189.56 128.03 189.61C128.23 189.35 128.42 189.07 128.59 188.78C128.83 189.05 129.14 189.28 129.48 189.43C129.42 189.43 129.35 189.44 129.29 189.45V189.46ZM134.16 188.1C133.64 188.54 132.98 188.81 132.27 189C132.93 188.57 133.64 188.2 134.37 187.88C134.3 187.95 134.23 188.03 134.16 188.1ZM155.69 165.64C155.9 165.25 156.12 164.86 156.33 164.47C156.5 164.83 156.66 165.19 156.81 165.56C156.43 165.5 156.05 165.53 155.69 165.64Z" fill="#FFCE00"></path><path d="M138.81 159.29C138.81 159.29 138.79 159.27 138.79 159.25C138.68 159.15 138.57 159.04 138.46 158.94C137.81 158.37 136.69 158.62 136.17 159.22C135.56 159.91 135.6 160.8 136.13 161.53C136.95 162.67 136.96 164.12 136.65 165.47C136.37 164.77 135.97 164.09 135.39 163.46C133.86 161.79 131.31 163.96 132.72 165.74C134.07 167.46 131.79 169.53 130.41 170.25C130.17 170.37 129.93 170.49 129.69 170.6C129.1 170.69 128.55 170.93 128.07 171.28C126.34 171.96 124.59 172.58 123.07 173.72C118.86 176.88 118.73 183.86 122.41 187.51C124.51 189.59 127.84 190.42 130.5 188.91C130.81 188.73 131.07 188.48 131.25 188.19C132.49 187.91 133.7 187.33 134.8 186.7C136.02 186 137.24 185.1 137.47 183.61C137.56 182.99 137.43 182.45 137.33 181.85C137.53 181.65 137.78 181.47 137.99 181.28C141.89 177.75 144.1 172.36 143.16 167.1C142.61 164.05 141.09 161.36 138.85 159.27L138.81 159.29ZM126.54 186.02C125.83 185.8 125.18 185.33 124.66 184.73C124.75 184.82 124.83 184.91 124.93 184.99C125.43 185.42 126.01 185.68 126.61 185.77C126.59 185.85 126.56 185.93 126.54 186.02ZM130.09 174.18C130.19 174.14 130.28 174.1 130.38 174.07C130.4 174.07 130.41 174.07 130.43 174.09C130.41 174.36 130.41 174.63 130.42 174.89C130.32 174.66 130.2 174.45 130.07 174.25C130.08 174.23 130.09 174.2 130.1 174.18H130.09Z" fill="#FF6700"></path><path d="M151.05 218.7C148.43 214.7 145.81 210.69 143.19 206.69C142.75 206.01 141.86 205.73 141.14 206.15C140.47 206.54 140.16 207.52 140.6 208.2C143.22 212.2 145.84 216.21 148.46 220.21C148.9 220.89 149.79 221.17 150.51 220.75C151.18 220.36 151.49 219.38 151.05 218.7Z" fill="white"></path><path d="M162.97 198C162.34 197.49 161.47 197.38 160.85 198C160.33 198.52 160.21 199.61 160.85 200.12C162.3 201.28 163.18 202.38 163.99 204.03C164.03 204.12 164.08 204.21 164.12 204.3C164.12 204.31 164.17 204.4 164.19 204.45C164.21 204.51 164.28 204.67 164.29 204.69C164.33 204.78 164.36 204.88 164.39 204.97C164.54 205.39 164.67 205.82 164.77 206.26C164.82 206.48 164.87 206.7 164.91 206.92C164.93 207.02 164.94 207.12 164.96 207.21C164.96 207.23 164.96 207.23 164.96 207.24C165.01 207.71 165.04 208.18 165.04 208.65C165.04 209.43 165.73 210.19 166.54 210.15C167.35 210.11 168.04 209.49 168.04 208.65C168.03 204.58 166.16 200.53 162.97 197.98V198Z" fill="white"></path><path d="M126.69 207.67C119.21 208.86 111.48 207.95 103.98 207.52C102.95 207.46 102.48 208.29 102.55 209.09C101.11 208.74 99.67 208.37 98.23 208C95.57 207.31 92.89 206.63 90.45 205.31C88.75 204.39 87.24 206.98 88.94 207.9C91.4 209.23 94.06 210.01 96.75 210.71C99.7 211.48 102.65 212.24 105.63 212.87C111.46 214.1 117.43 214.83 123.37 214.12C124.66 213.97 125.08 212.54 124.62 211.7C124.68 211.66 124.75 211.61 124.81 211.55C124.99 211.37 125.13 211.12 125.2 210.86C125.97 210.78 126.73 210.68 127.5 210.56C129.4 210.26 128.59 207.36 126.7 207.67H126.69ZM116.8 211.2C116.8 211.2 116.81 211.3 116.82 211.34C115.58 211.29 114.33 211.21 113.09 211.07C114.33 211.13 115.56 211.17 116.8 211.2Z" fill="white"></path><path d="M45.49 229.33C41.45 202.94 38.09 176.45 35.43 149.89C34.68 142.36 33.98 134.82 33.34 127.27C33.18 125.36 30.18 125.34 30.34 127.27C32.63 154.13 35.6301 180.94 39.3201 207.64C40.3601 215.14 41.45 222.63 42.6 230.11C42.89 232.01 45.78 231.2 45.49 229.31V229.33Z" fill="#FFD400"></path><path d="M47.03 245.09C46.84 243.19 43.84 243.17 44.03 245.09C45.45 259.42 47.1 273.72 48.97 288C49.08 288.81 49.58 289.49 50.47 289.5C51.2 289.5 52.08 288.8 51.97 288C50.1 273.72 48.45 259.42 47.03 245.09Z" fill="#FFD400"></path><path d="M223.17 126.15C222.27 126.15 221.77 126.85 221.67 127.65C219.21 146.51 216.75 165.37 214.29 184.23C211.82 203.17 209.35 222.12 206.88 241.06C205.49 251.68 204.11 262.31 202.72 272.93C202.61 273.74 203.49 274.42 204.22 274.43C205.12 274.43 205.62 273.73 205.72 272.93C208.18 254.07 210.64 235.21 213.1 216.35C215.57 197.41 218.04 178.46 220.51 159.52C221.9 148.9 223.28 138.27 224.67 127.65C224.78 126.84 223.9 126.16 223.17 126.15Z" fill="#FFD400"></path><path d="M206.92 281.93C206.9 281.78 206.86 281.63 206.81 281.48C206.71 281.22 206.6 280.95 206.45 280.71C206.36 280.54 206.23 280.39 206.06 280.29C205.92 280.16 205.75 280.07 205.55 280.02C205.35 279.96 205.15 279.95 204.95 279.99C204.75 279.99 204.56 280.06 204.39 280.17C204.07 280.38 203.79 280.68 203.7 281.07C203.61 281.45 203.63 281.89 203.85 282.23C203.88 282.28 203.9 282.33 203.93 282.38C203.95 282.43 203.96 282.48 203.97 282.53C203.97 282.59 203.97 282.66 203.97 282.72C203.97 282.75 203.96 282.78 203.95 282.81C203.89 283.01 203.88 283.21 203.92 283.41C203.92 283.61 203.99 283.8 204.1 283.97C204.19 284.14 204.32 284.29 204.49 284.39C204.63 284.52 204.8 284.61 205 284.66C205.38 284.75 205.82 284.73 206.16 284.51C206.5 284.29 206.73 284 206.85 283.61C206.93 283.34 206.97 283.05 206.99 282.77C207.01 282.49 206.97 282.21 206.92 281.93Z" fill="#FFD400"></path><path d="M164.92 299.41C153.3 300.12 141.69 300.88 130.06 301.52C118.38 302.16 106.81 301.52 95.15 300.88C88.66 300.52 82.17 300.16 75.68 299.79C73.75 299.68 73.76 302.68 75.68 302.79C87.26 303.44 98.84 304.2 110.43 304.69C122.07 305.18 133.66 304.31 145.27 303.6C151.82 303.2 158.36 302.81 164.91 302.41C166.83 302.29 166.84 299.29 164.91 299.41H164.92Z" fill="#FFD400"></path><path d="M192.72 293.12C184.52 294.92 176.36 296.91 168.25 299.1C166.39 299.6 167.18 302.5 169.05 301.99C177.16 299.8 185.32 297.8 193.52 296.01C195.41 295.6 194.61 292.7 192.72 293.12Z" fill="#FFD400"></path><path d="M70.2901 300.27C68.2901 300.06 66.27 299.89 64.27 299.62C62.52 299.38 60.82 298.96 59.34 297.97C56.69 296.22 54.77 293.62 51.61 292.68C49.75 292.13 48.96 295.03 50.81 295.57C53.87 296.48 55.79 299.47 58.53 300.98C62.01 302.91 66.4301 302.85 70.2901 303.26C71.1001 303.35 71.7901 302.51 71.7901 301.76C71.7901 300.88 71.1001 300.35 70.2901 300.26V300.27Z" fill="#FFD400"></path><path d="M190.32 129.69C173.02 132.65 155.57 135.57 137.95 134.57C129.32 134.08 120.75 133.23 112.1 133.17C103.68 133.11 95.25 133.38 86.83 133.18C77.37 132.96 67.91 132.11 58.77 129.55C56.91 129.03 56.11 131.92 57.97 132.44C74.51 137.06 91.8 136.18 108.79 136.16C117.42 136.15 125.96 136.71 134.56 137.34C143.47 137.99 152.34 137.82 161.23 136.95C171.26 135.97 181.19 134.28 191.12 132.58C193.02 132.25 192.21 129.36 190.32 129.69Z" fill="#FFD400"></path><path d="M207.56 128.29C207.33 127.44 206.52 127.1 205.71 127.24C201.63 127.94 197.55 128.64 193.46 129.34C192.66 129.48 192.21 130.46 192.41 131.19C192.64 132.04 193.45 132.38 194.26 132.24C198.34 131.54 202.42 130.84 206.51 130.14C207.31 130 207.76 129.02 207.56 128.3V128.29Z" fill="#FFD400"></path><path d="M51.26 129.29C45.42 127.39 39.79 124.95 34.41 122.01C32.72 121.08 31.2 123.67 32.9 124.6C38.5 127.67 44.39 130.21 50.47 132.19C52.31 132.79 53.1 129.89 51.27 129.3L51.26 129.29Z" fill="#FFD400"></path><path d="M24.63 398.03C24.71 398.01 24.79 398 24.86 397.98C24.57 398.05 24.5101 398.01 24.8901 397.98C25.3201 397.95 25.75 397.92 26.18 397.89C27.63 397.82 29.08 397.78 30.53 397.75C35.51 397.64 40.49 397.61 45.48 397.59C52.61 397.55 59.74 397.55 66.87 397.55C75.47 397.55 84.0701 397.58 92.6701 397.61C102.09 397.65 111.51 397.69 120.93 397.75C130.35 397.81 139.86 397.86 149.32 397.93C158.17 397.99 167.03 398.05 175.88 398.12C183.43 398.18 190.99 398.24 198.54 398.3C204.12 398.34 209.7 398.39 215.28 398.43C218.14 398.45 221 398.48 223.87 398.49C224.08 398.49 224.3 398.49 224.51 398.49C226.44 398.48 226.44 395.48 224.51 395.49C222.4 395.51 220.28 395.47 218.17 395.45C213.18 395.41 208.18 395.37 203.19 395.33C196.05 395.27 188.92 395.22 181.78 395.16C173.14 395.09 164.49 395.03 155.85 394.97C146.43 394.9 137 394.84 127.58 394.79C118.16 394.74 108.66 394.68 99.2001 394.64C90.3201 394.6 81.43 394.57 72.55 394.56C64.99 394.55 57.43 394.54 49.87 394.56C44.35 394.58 38.83 394.6 33.31 394.69C30.49 394.73 27.63 394.69 24.83 394.97C24.51 395 24.16 395.01 23.85 395.12C22.02 395.71 22.8 398.61 24.65 398.01L24.63 398.03Z" fill="black"></path><path d="M170.6 230.55C170.59 229.55 170.89 228.71 171.16 227.76C171.5 226.53 171.52 225.48 171.24 224.25C170.68 221.75 170.42 219.2 170.27 216.65C169.97 211.63 170.13 206.59 169.61 201.59C169.4 199.58 168.83 198.2 167.08 197.03C165.17 195.75 162.49 195.75 160.29 195.36C155.16 194.45 150.01 193.54 144.8 193.23C138.86 192.88 132.88 193.46 127.23 195.4C125.41 196.02 126.19 198.92 128.03 198.29C137.43 195.07 147.16 196.11 156.76 197.77C159.1 198.17 161.44 198.69 163.8 198.99C164.68 199.1 165.43 199.39 166.06 200.04C166.18 200.17 166.3 200.29 166.4 200.44C166.4 200.44 166.6 200.82 166.52 200.59C166.6 200.79 166.65 201.79 166.69 202.24C167.11 206.88 167.01 211.55 167.26 216.19C167.4 218.72 167.63 221.25 168.09 223.74C168.33 225.04 168.56 226 168.17 227.29C167.84 228.38 167.59 229.41 167.6 230.55C167.63 232.48 170.63 232.48 170.6 230.55Z" fill="black"></path><path d="M110.79 194.43C101.51 194.84 92.42 196.38 84.03 200.53C83.09 200.99 83.15 202.2 83.73 202.89C86.68 206.44 91.67 207.01 95.99 207.14C101.62 207.31 107.26 207.2 112.9 207.4C119.15 207.63 125.4 207.94 131.65 207.99C134.35 208.01 137 208.21 139.23 209.92C140.34 210.77 140.88 212.58 141.5 213.81L143.72 218.25C144.78 220.38 145.55 222.88 147.82 223.99C150.23 225.17 152.47 223.67 153.98 221.81C155.18 220.32 153.07 218.19 151.86 219.69C150.91 220.86 149.87 222.02 148.55 220.89C147.78 220.23 147.43 218.97 146.98 218.07L144.87 213.85L142.98 210.07C142.29 208.7 141.57 207.83 140.27 206.99C138.19 205.65 135.68 205.05 133.22 205C121.65 204.76 110.1 204.25 98.53 204.19C94.29 204.17 88.84 204.35 85.86 200.77L85.56 203.13C93.45 199.22 102.08 197.82 110.8 197.44C112.72 197.36 112.73 194.36 110.8 194.44L110.79 194.43Z" fill="black"></path><path d="M126.89 200.99C126.1 199.85 125.54 198.63 125.52 197.23C125.51 195.98 125.87 194.77 126.29 193.6C127.24 190.98 128.48 188.5 128.62 185.66C128.72 183.73 125.71 183.74 125.62 185.66C125.48 188.47 123.95 190.99 123.12 193.62C122.14 196.71 122.41 199.81 124.29 202.51C124.75 203.17 125.6 203.48 126.34 203.05C127 202.67 127.34 201.67 126.88 201L126.89 200.99Z" fill="black"></path><path d="M118.69 195.98C115.77 194.41 112.56 193.8 109.44 192.77C105.95 191.62 103.31 189.46 101.15 186.51C98.99 183.56 97.79 180.44 98 176.81C98.19 173.71 99.19 170.65 100.75 167.98C102.31 165.31 104.42 163.02 107.14 161.61C109.17 160.56 111.52 160.35 113.67 159.62C115.82 158.89 117.69 157.69 118.38 155.47C119.2 152.83 118.38 149.62 116.75 147.45C114.5 144.43 110.81 143.18 107.2 142.69C106.13 142.54 105.09 142.53 104.02 142.54C103.49 142.54 102.88 142.6 102.37 142.42C101.5 142.11 101.42 140.82 101.33 139.96C101.14 138.06 98.13 138.04 98.33 139.96C98.58 142.39 99.27 144.87 101.98 145.41C103.5 145.71 105.06 145.43 106.6 145.62C108.39 145.84 110.37 146.3 111.96 147.18C114.38 148.52 116.14 151.35 115.61 154.19C115.23 156.22 112.98 156.75 111.27 157.19C108.77 157.84 106.34 158.42 104.17 159.9C101.5 161.73 99.34 164.25 97.8 167.1C96.26 169.95 95.28 173.18 95.02 176.46C94.74 180.03 95.63 183.37 97.48 186.43C99.59 189.92 102.56 193.14 106.34 194.79C109.85 196.33 113.77 196.75 117.16 198.58C118.86 199.5 120.38 196.91 118.67 195.99L118.69 195.98Z" fill="black"></path><path d="M151.4 158.25C153.76 154.78 155.79 149.66 154.19 145.5C153.64 144.06 151.04 144.08 151.24 145.9C151.96 152.25 157.74 155.79 160.96 160.8C162.48 163.16 162.79 166.16 162.86 168.9C162.93 171.64 162.81 174.61 161.46 177.04C158.84 181.76 152.49 183.6 147.46 184.08C145.22 184.3 142.11 184.17 140.39 185.89C139.55 186.73 139.23 187.82 138.91 188.92C138.56 190.11 137.95 190.78 136.7 191.09C133.48 191.9 129.76 190.35 127.09 192.99C126.24 193.83 125.93 194.84 125.46 195.9C125.39 196.05 125.2 196.35 125.2 196.35C124.8 196.56 123.93 196.37 123.43 196.27C121.54 195.89 120.74 198.78 122.63 199.16C123.95 199.42 125.47 199.66 126.71 198.94C127.61 198.41 128.02 197.53 128.38 196.61C128.71 195.77 129.05 195 129.94 194.62C131.37 194 133.18 194.29 134.69 194.28C137.72 194.24 140.62 193.28 141.67 190.18C141.92 189.42 142.05 188.21 142.73 187.81C143.69 187.25 145.3 187.3 146.37 187.19C152.04 186.63 158.52 185.26 162.47 180.77C166.42 176.28 166.52 168.91 165.19 163.28C164.37 159.83 162.16 157.27 159.84 154.69C157.52 152.11 154.64 149.39 154.25 145.91L151.3 146.31C152.63 149.76 150.74 153.9 148.81 156.75C147.72 158.35 150.32 159.85 151.4 158.26V158.25Z" fill="black"></path><path d="M84.19 204.59C85.55 206.34 85.92 208.85 86.15 210.99C86.43 213.62 86.44 216.27 86.58 218.91C86.73 221.7 87.3 224.36 87.74 227.12C88.31 230.71 88.58 234.33 88.81 237.95C89.29 245.36 89.89 252.77 90.27 260.19C90.65 267.61 90.93 275.11 91.36 282.56C91.53 285.57 91.89 288.56 92.07 291.56C92.23 294.37 92.43 297.42 91.46 300.11C90.8 301.93 93.7 302.71 94.35 300.91C95.24 298.44 95.23 295.65 95.14 293.06C95.04 290.24 94.72 287.44 94.5 284.62C93.9 277.15 93.74 269.64 93.37 262.16C92.99 254.48 92.37 246.81 91.89 239.14C91.66 235.49 91.4 231.85 90.91 228.22C90.5 225.21 89.77 222.27 89.6 219.23C89.29 213.72 89.89 207.08 86.31 202.46C85.81 201.81 84.72 201.94 84.19 202.46C83.55 203.09 83.7 203.94 84.19 204.58V204.59Z" fill="black"></path><path d="M165.04 276.07C165.54 282.35 165.77 288.78 163.46 294.75C163.17 295.51 163.78 296.4 164.51 296.6C165.36 296.83 166.06 296.31 166.36 295.55C168.75 289.35 168.56 282.59 168.04 276.07C167.89 274.16 164.89 274.14 165.04 276.07Z" fill="black"></path><path d="M17.88 119.31C18.53 126.8 19.4 134.27 20.23 141.74C21.64 154.39 23.1 167.02 24.59 179.66C26.29 194.1 28.04 208.53 29.84 222.95C31.47 235.98 33.13 249.01 34.92 262.02C36.06 270.29 37.12 278.61 38.72 286.81C38.82 287.34 38.93 287.86 39.05 288.39C39.47 290.27 42.36 289.48 41.94 287.59C40.31 280.24 39.41 272.7 38.37 265.26C36.62 252.78 35.01 240.29 33.44 227.79C31.63 213.41 29.88 199.03 28.18 184.64C26.64 171.62 25.12 158.59 23.66 145.56C22.74 137.34 21.8 129.13 21.02 120.89C20.97 120.36 20.92 119.83 20.87 119.3C20.7 117.39 17.7 117.37 17.87 119.3L17.88 119.31Z" fill="black"></path><path d="M31.05 126.4C31.68 128.45 31.92 130.66 32.24 132.78C32.89 137.01 33.41 140.92 33.94 145.06C35.54 157.47 36.98 169.89 38.38 182.32C40.04 196.98 41.63 211.64 43.17 226.31C44.53 239.25 45.86 252.2 47.1 265.15C47.8 272.42 48.63 279.72 48.96 287.02C48.97 287.34 48.99 287.67 48.99 287.99C49 289.92 52 289.92 51.99 287.99C51.98 285.82 51.75 283.64 51.57 281.48C51.23 277.28 50.84 273.07 50.45 268.87C49.27 256.34 48 243.82 46.69 231.31C45.16 216.6 43.57 201.89 41.93 187.18C40.48 174.27 39 161.37 37.38 148.48C36.79 143.82 36.19 139.15 35.51 134.5C35.12 131.84 34.77 129.15 34.18 126.52C34.11 126.21 34.03 125.89 33.94 125.58C33.37 123.74 30.48 124.52 31.05 126.38V126.4Z" fill="black"></path><path d="M232 123C231.36 130.32 230.49 137.62 229.66 144.92C228.26 157.24 226.8 169.55 225.32 181.85C223.62 195.91 221.88 209.97 220.08 224.02C218.47 236.63 216.82 249.24 215.05 261.83C213.91 269.9 212.85 278.02 211.27 286.02C211.17 286.55 211.06 287.07 210.94 287.59C210.52 289.47 213.41 290.27 213.83 288.39C215.44 281.14 216.36 273.71 217.41 266.36C219.17 254.06 220.8 241.75 222.39 229.42C224.21 215.28 225.98 201.13 227.7 186.98C229.24 174.31 230.75 161.65 232.2 148.97C233.13 140.84 234.08 132.72 234.86 124.57C234.91 124.04 234.96 123.51 235.01 122.98C235.18 121.06 232.18 121.07 232.01 122.98L232 123Z" fill="black"></path><path d="M219.05 127.6C218.42 129.64 218.18 131.84 217.85 133.94C217.2 138.14 216.63 142.35 216.08 146.56C214.47 158.79 213.02 171.05 211.61 183.31C209.93 197.84 208.32 212.39 206.76 226.93C205.39 239.7 204.05 252.48 202.8 265.27C202.09 272.51 201.24 279.79 200.91 287.06C200.9 287.37 200.88 287.68 200.88 287.99C200.87 289.92 203.87 289.92 203.88 287.99C203.89 285.83 204.12 283.67 204.3 281.52C204.64 277.41 205.02 273.3 205.42 269.2C206.6 256.86 207.88 244.53 209.19 232.2C210.73 217.74 212.32 203.28 213.97 188.83C215.43 176.03 216.93 163.24 218.57 150.47C219.47 143.47 220.11 136.3 221.71 129.29C221.78 128.99 221.85 128.69 221.94 128.39C222.51 126.54 219.61 125.75 219.05 127.59V127.6Z" fill="black"></path><path d="M37.26 288.35C42.45 291.24 47.97 293.48 53.4 295.87C56.04 297.03 58.67 298.29 61.42 299.18C63.64 299.9 66.11 300.26 68.15 301.42C69.83 302.37 71.34 299.78 69.66 298.83C67.63 297.68 65.26 297.2 63.04 296.54C60.23 295.7 57.58 294.45 54.9 293.27C49.47 290.88 43.96 288.63 38.76 285.75C37.07 284.81 35.56 287.4 37.25 288.34L37.26 288.35Z" fill="black"></path><path d="M37.77 282.23C34.24 282.11 30.47 285.54 29.31 288.71C28.68 290.44 28.6 292.45 28.58 294.27C28.57 296.33 28.73 298.42 29.2 300.43C29.36 301.11 30 301.47 30.65 301.53C33.03 301.74 34.23 303.15 34.13 305.51C33.97 308.97 33.57 312.47 33.07 315.9C32.03 323.12 31.22 330.36 30.52 337.61C29.82 344.86 28.97 352.23 28.27 359.55C27.91 363.3 27.59 367.05 27.34 370.8C27.22 372.53 27.12 374.25 27.04 375.98C26.98 377.27 27.18 378.66 26.91 379.93C26.61 381.29 25.12 382.08 24.27 383.08C23.42 384.08 22.95 385.28 22.74 386.58C22.28 389.41 22.73 392.23 22.75 395.06C22.77 396.99 25.77 396.99 25.75 395.06C25.73 392.51 25.27 389.92 25.63 387.38C25.8 386.17 26.21 385.32 27.1 384.47C28.17 383.45 29.3 382.5 29.74 381.02C30.1 379.79 30.03 378.43 30.03 377.16C30.03 375.37 30.18 373.58 30.29 371.79C30.54 367.87 30.87 363.95 31.24 360.04C31.96 352.4 32.84 344.77 33.58 337.13C34.32 329.49 35.4 321.67 36.36 313.93C36.62 311.88 36.78 309.82 36.95 307.76C37.08 306.19 37.32 304.6 36.89 303.05C36.09 300.13 33.5 298.8 30.66 298.55L32.11 299.65C31.43 296.71 31.27 293.23 31.99 290.28C32.55 288.02 35.32 285.15 37.78 285.24C39.71 285.31 39.71 282.31 37.78 282.24L37.77 282.23Z" fill="black"></path><path d="M208.94 291.31C211.12 291.82 213.63 292.17 215.57 293.36C215.81 293.51 216.04 293.75 216.11 293.8C216.11 293.8 216.18 293.96 216.16 293.8C216.18 294.06 216.22 293.77 216.14 294.02C215.96 294.54 215.39 295.45 215.01 295.93C214.33 296.8 213.27 297.05 212.26 297.33C210.81 297.72 209.33 298.03 207.86 298.32C204.74 298.93 201.59 299.4 198.48 300.06C196.59 300.46 197.39 303.35 199.28 302.95C202.12 302.35 204.98 301.9 207.83 301.37C209.21 301.11 210.58 300.84 211.95 300.51C213.2 300.21 214.51 299.92 215.64 299.28C217.16 298.42 218.41 296.63 218.99 294.99C219.63 293.15 218.48 291.56 216.93 290.67C214.76 289.44 212.15 288.98 209.75 288.42C207.87 287.98 207.07 290.87 208.95 291.31H208.94Z" fill="black"></path><path d="M210 302C210.01 305.7 210.49 309.41 210.9 313.07C211.33 316.95 211.76 320.82 212.15 324.7C212.72 330.41 213.74 335.96 214.87 341.58C216 347.2 216.77 353.25 217.53 359.11C217.96 362.37 218.33 365.65 219 368.86C219.67 372.07 220.6 375.36 220.86 378.7C221.01 380.61 224.01 380.63 223.86 378.7C223.63 375.72 222.96 372.82 222.3 369.92C221.64 367.02 221.24 364.35 220.85 361.53C220.06 355.7 219.38 349.85 218.37 344.05C217.37 338.34 216.03 332.76 215.38 326.99C214.93 322.92 214.54 318.85 214.08 314.78C213.62 310.71 213.01 306.26 212.99 301.99C212.99 300.06 209.98 300.06 209.99 301.99L210 302Z" fill="black"></path><path d="M222.37 380.77C223.75 381.82 225.54 382.62 226.6 384.02C227.66 385.42 227.45 387.39 227.65 388.99C227.75 389.83 227.94 390.66 228.03 391.5C228.09 392.06 228.2 392.8 227.86 393.28C227.48 393.81 226.65 394.09 226.07 394.31C225.26 394.63 224.44 394.91 223.65 395.27C222.91 395.61 222.73 396.67 223.11 397.32C223.55 398.08 224.42 398.19 225.16 397.86C226.91 397.06 228.98 396.69 230.22 395.09C231.65 393.26 230.9 390.86 230.62 388.79C230.34 386.72 230.47 384.4 229.22 382.54C227.97 380.68 225.69 379.54 223.87 378.17C223.22 377.68 222.19 378.07 221.82 378.71C221.37 379.48 221.71 380.27 222.36 380.76L222.37 380.77Z" fill="black"></path><path d="M210.51 286.84C207.96 286.33 205.21 287.47 202.8 288.2C199.36 289.24 195.78 289.87 192.28 290.68C184.41 292.51 176.36 293.9 168.6 296.16C166.53 296.76 164.5 297.48 162.47 298.19C161.67 298.47 160.87 298.71 160.07 298.97C159.83 299.05 159.59 299.14 159.35 299.21C159.15 299.27 158.58 299.33 159.06 299.34L160.51 301.24L160.05 301.96C161.7 300.96 160.19 298.37 158.54 299.37C158.15 299.61 157.69 299.96 157.62 300.45C157.48 301.41 157.99 302.33 159.07 302.35C159.87 302.36 160.7 301.93 161.44 301.69C163.22 301.13 164.96 300.47 166.73 299.89C170.48 298.66 174.31 297.74 178.16 296.91C186.03 295.22 193.91 293.5 201.74 291.62C203.13 291.29 204.48 290.81 205.85 290.42C206.99 290.09 208.52 289.5 209.72 289.74C211.61 290.11 212.41 287.22 210.52 286.85L210.51 286.84Z" fill="black"></path><path d="M70.1 302.31C71.39 302.6 72.81 302.52 74.12 302.53C76.46 302.55 78.8 302.51 81.13 302.47C85.36 302.39 89.59 302.26 93.81 302.17C100.84 302.03 107.87 302.36 114.9 302.47C121.93 302.58 129.25 302.55 136.43 302.5C144.12 302.45 151.8 302.35 159.49 302.36C161.42 302.36 161.42 299.36 159.49 299.36C145.56 299.36 131.63 299.65 117.7 299.51C109.97 299.43 102.24 299.09 94.5 299.17C90.81 299.2 87.13 299.36 83.44 299.43C80.76 299.49 78.08 299.54 75.4 299.54C74.36 299.54 73.32 299.54 72.29 299.51C71.95 299.5 71.61 299.48 71.27 299.46C71.13 299.46 71 299.44 70.87 299.43C70.87 299.43 71.2 299.49 70.89 299.43C69.01 299.01 68.21 301.91 70.09 302.32L70.1 302.31Z" fill="black"></path><path d="M34.74 299.39C40.15 302.38 46.21 304.29 51.96 306.52C55.09 307.74 58.14 309.14 61.24 310.43C62.97 311.15 64.7 311.75 66.5 312.26C68.06 312.7 69.73 313.08 71.16 313.89C72.84 314.84 74.35 312.25 72.67 311.3C69.75 309.64 66.23 309.21 63.12 307.98C59.83 306.68 56.65 305.15 53.36 303.86C47.65 301.63 41.63 299.77 36.26 296.79C34.57 295.86 33.05 298.45 34.75 299.38L34.74 299.39Z" fill="black"></path><path d="M213.51 299.3C210.96 298.79 208.21 299.93 205.8 300.66C202.36 301.7 198.78 302.33 195.28 303.14C187.41 304.97 179.36 306.36 171.6 308.62C169.53 309.22 167.5 309.94 165.47 310.65C164.67 310.93 163.87 311.17 163.07 311.43C162.83 311.51 162.59 311.6 162.35 311.67C162.15 311.73 161.58 311.79 162.06 311.8L163.51 313.7L163.05 314.42C164.7 313.42 163.19 310.83 161.54 311.83C161.15 312.07 160.69 312.42 160.62 312.91C160.48 313.87 160.99 314.79 162.07 314.81C162.87 314.82 163.7 314.39 164.44 314.15C166.22 313.59 167.96 312.93 169.73 312.35C173.48 311.12 177.31 310.2 181.16 309.37C189.03 307.68 196.91 305.96 204.74 304.08C206.13 303.75 207.48 303.27 208.85 302.88C209.99 302.55 211.52 301.96 212.72 302.2C214.61 302.57 215.41 299.68 213.52 299.31L213.51 299.3Z" fill="black"></path><path d="M73.1 314.77C74.39 315.06 75.81 314.98 77.12 314.99C79.46 315.01 81.8 314.97 84.13 314.93C88.36 314.85 92.59 314.72 96.81 314.63C103.84 314.49 110.87 314.82 117.9 314.93C124.93 315.04 132.25 315.01 139.43 314.96C147.12 314.91 154.8 314.81 162.49 314.82C164.42 314.82 164.42 311.82 162.49 311.82C148.56 311.82 134.63 312.11 120.7 311.97C112.97 311.89 105.24 311.55 97.5 311.63C93.81 311.66 90.13 311.82 86.44 311.89C83.76 311.95 81.08 312 78.4 312C77.36 312 76.32 312 75.29 311.97C74.95 311.96 74.61 311.94 74.27 311.92C74.13 311.92 74 311.9 73.87 311.89C73.87 311.89 74.2 311.95 73.89 311.89C72.01 311.47 71.21 314.37 73.09 314.78L73.1 314.77Z" fill="black"></path><path d="M1.85003 101.8C1.06003 104.71 0.500034 108.59 1.54003 111.5C2.15003 113.21 3.55002 113.9 5.18002 114.49C5.93002 114.76 6.72004 114.97 7.45004 115.3C8.74004 115.88 9.95004 116.65 11.2 117.29C15.97 119.74 21.15 121.52 26.11 123.56C31.04 125.58 35.88 127.85 40.8 129.87C43.12 130.82 45.54 131.69 47.95 132.42C48.82 132.68 49.69 132.92 50.56 133.18C50.97 133.3 51.39 133.42 51.79 133.57C52.01 133.66 52.23 133.89 52.02 133.63C53.23 135.13 55.35 133 54.14 131.51C53.45 130.65 51.79 130.41 50.79 130.12C49.14 129.64 47.54 129.11 45.91 128.55C41.08 126.88 36.49 124.66 31.78 122.69C27.07 120.72 22.3 118.81 17.56 116.85C15.18 115.87 12.88 114.81 10.61 113.59C9.71001 113.1 8.81003 112.61 7.85003 112.25C6.99003 111.93 6.08003 111.71 5.25003 111.32C3.90003 110.69 4.04002 109.01 4.06002 107.66C4.09002 105.96 4.29004 104.24 4.73004 102.6C5.24004 100.73 2.34002 99.94 1.84002 101.8H1.85003Z" fill="black"></path><path d="M54.25 134.54C56.41 133.94 58.79 134.58 60.96 134.81C63.77 135.1 66.59 135.31 69.39 135.65C75.13 136.34 80.79 137.01 86.57 137.25C92.35 137.49 98.15 137.66 103.94 137.97C109.73 138.28 115.56 138.57 121.37 138.43C129.91 138.23 138.46 138.35 146.99 138.08C153.61 137.87 160.22 137.53 166.84 137.22C173.05 136.93 179.28 136.51 185.49 136.5C187.42 136.5 187.42 133.5 185.49 133.5C180.07 133.5 174.65 133.86 169.24 134.11C162.43 134.43 155.62 134.77 148.81 135.02C140.89 135.31 132.95 135.15 125.03 135.34C113.32 135.62 101.67 134.77 89.98 134.37C83.46 134.15 77.05 133.63 70.58 132.8C67.44 132.39 64.28 132.14 61.13 131.83C58.58 131.58 55.98 130.95 53.45 131.65C51.59 132.16 52.38 135.06 54.25 134.54Z" fill="black"></path><path d="M185.74 136.33C187.7 135.59 189.77 135.39 191.83 135.07C193.89 134.75 195.91 134.1 197.96 133.67C202.28 132.77 206.59 132.07 210.86 130.96C219.55 128.72 228.2 126.32 236.84 123.88C241.56 122.55 246.38 121.56 251.07 120.11C251.73 119.91 252.14 119.34 252.17 118.66C252.32 115.42 254.56 109.51 250.33 108.08C248.52 107.47 246.39 107.47 244.65 107.14C241.22 106.5 237.95 105.19 234.51 104.58C232.62 104.25 231.81 107.14 233.71 107.47C236.83 108.02 239.83 109.09 242.91 109.82C244.69 110.24 246.51 110.3 248.3 110.65C248.71 110.73 249.13 110.9 249.54 110.97C249.75 111.01 249.86 111.21 249.71 110.95C250.01 111.43 249.83 112.62 249.79 113.24C249.67 115.05 249.27 116.85 249.18 118.66L250.28 117.21C246.12 118.49 241.87 119.39 237.67 120.52C233.47 121.65 229.03 122.95 224.7 124.14C220.38 125.33 216.06 126.49 211.72 127.62C207.43 128.73 203.16 129.61 198.81 130.43C196.49 130.87 194.23 131.58 191.92 132.01C189.61 132.44 187.2 132.57 184.95 133.42C183.16 134.09 183.94 136.99 185.75 136.31L185.74 136.33Z" fill="black"></path><path d="M20.2801 101.68C23.5101 103.36 26.8501 104.78 30.2601 106.06C33.6701 107.34 36.9401 108.22 40.1401 109.63C46.3701 112.36 52.53 115.23 59.02 117.28C60.87 117.86 61.6601 114.97 59.8201 114.39C53.4201 112.37 47.3701 109.54 41.2301 106.86C38.1401 105.51 34.87 104.58 31.71 103.42C28.32 102.17 25.0001 100.76 21.7901 99.1C20.0801 98.21 18.5601 100.8 20.2801 101.69V101.68Z" fill="black"></path><path d="M60.55 117.75C62.57 117.2 64.79 117.79 66.83 118.01C69.55 118.3 72.27 118.49 74.99 118.83C80.35 119.48 85.64 120.1 91.04 120.31C96.44 120.52 102.05 120.71 107.56 121C113.07 121.29 118.15 121.54 123.46 121.43C131.53 121.25 139.61 121.35 147.67 121.1C153.91 120.9 160.15 120.58 166.39 120.29C172.27 120.02 178.17 119.61 184.06 119.61C185.99 119.61 185.99 116.61 184.06 116.61C172.5 116.63 160.92 117.63 149.37 118.04C141.94 118.31 134.51 118.16 127.08 118.34C116.18 118.6 105.34 117.8 94.46 117.44C88.25 117.23 82.14 116.76 75.98 115.96C73 115.57 70.01 115.33 67.01 115.04C64.6 114.8 62.16 114.22 59.77 114.88C57.91 115.39 58.7 118.29 60.57 117.77L60.55 117.75Z" fill="black"></path><path d="M184.3 119.43C201.56 116.26 218.34 111.03 235.45 107.2C237.33 106.78 236.54 103.89 234.65 104.31C217.54 108.13 200.76 113.36 183.5 116.54C181.6 116.89 182.41 119.78 184.3 119.43Z" fill="black"></path><path d="M3.66997 103.39C6.64997 104.52 10.17 103.18 13.12 102.54C16.95 101.71 20.88 101.51 24.64 100.33C26.47 99.75 25.69 96.85 23.84 97.44C20.25 98.58 16.49 98.82 12.82 99.55C10.26 100.05 7.05996 101.49 4.46996 100.5C2.65996 99.81 1.87997 102.71 3.66997 103.39Z" fill="black"></path><path d="M158.16 45.18C159.18 44.84 160.51 45.65 161.43 46.04C162.78 46.6 164.21 46.96 165.6 47.41C168.67 48.41 171.47 49.76 174.24 51.42C179.95 54.85 185.25 58.89 190.63 62.81C200.4 69.93 210.13 77.1 217.63 86.72C219.84 89.55 221.73 92.53 223.33 95.74C224.11 97.3 224.85 98.87 225.68 100.4C226.51 101.93 227.4 103.51 227.5 105.26C227.61 107.18 230.61 107.19 230.5 105.26C230.32 102.02 228.41 99.32 227.03 96.48C225.51 93.35 223.93 90.3 221.9 87.45C218.2 82.27 213.86 77.59 209.11 73.35C204.36 69.11 199.21 65.29 194.02 61.57C188.3 57.46 182.73 53.13 176.74 49.42C173.44 47.38 170.09 45.7 166.4 44.5C164.77 43.97 163.16 43.51 161.58 42.86C160.25 42.31 158.79 41.8 157.36 42.28C155.54 42.89 156.32 45.79 158.16 45.17V45.18Z" fill="black"></path><path d="M88.33 42.18C83.28 45.11 77.26 45.64 72.11 48.37C66.94 51.11 62.78 55.37 58.16 58.89C53.54 62.41 48.18 65.85 43.69 69.96C39.2 74.07 35.83 79.07 32.19 83.88C30.16 86.56 27.91 89.08 26.12 91.93C24.43 94.63 23.44 97.7 21.64 100.34L24.38 101.5C24.38 101.38 24.42 101.27 24.51 101.17C25.38 99.45 22.79 97.93 21.92 99.66C21.74 100.01 21.55 100.31 21.49 100.71C21.23 102.37 23.23 103.33 24.23 101.87C25.78 99.6 26.69 96.99 28.03 94.6C29.48 92.02 31.39 89.76 33.21 87.44C36.88 82.77 40.12 77.7 44.34 73.49C48.56 69.28 53.62 65.98 58.41 62.43C63.2 58.88 67.2 54.82 72.14 51.81C77.64 48.47 84.28 48 89.83 44.78C91.5 43.81 89.99 41.22 88.32 42.19L88.33 42.18Z" fill="black"></path><path d="M91.5499 41.8C91.0499 40.04 91.38 38.17 91.31 36.37C91.28 35.57 90.65 34.86 89.81 34.87C87.87 34.9 85.93 33.28 84.43 32.22C83.67 31.68 82.92 31.14 82.15 30.62C81.52 30.19 80.64 29.7 80.25 29.03C79.46 27.68 80.81 25.19 81.26 23.92C82.27 21.07 83.42 18.26 84.7099 15.52C85.7199 13.4 86.71 11.22 87.81 9.14999C88.19 8.42999 88.6 7.61999 89.29 7.14999C90.14 6.56999 91.33 6.37999 92.31 6.14999C94.61 5.61999 97.03 5.09999 99.16 4.86999C105.32 4.18999 111.55 4.06999 117.74 3.99999C125.19 3.91999 132.65 4.02999 140.09 4.41999C143.55 4.59999 147.01 4.83 150.45 5.22C152.66 5.47 154.95 5.73999 157.1 6.44999C158.94 7.05999 159.73 4.15999 157.9 3.55999C155.77 2.85999 153.49 2.6 151.28 2.32C148.11 1.93 144.91 1.69999 141.72 1.50999C133.83 1.04999 125.92 0.919995 118.03 0.999995C111.52 1.05999 104.93 1.16 98.4599 1.96C95.5799 2.31 92.59 2.85 89.82 3.71C87.62 4.4 86.3 5.61 85.22 7.63C84.05 9.84 82.98 12.16 81.92 14.43C80.4 17.69 79.05 21.04 77.9 24.45C77.25 26.37 76.49 28.64 77.66 30.53C78.83 32.42 81.17 33.55 82.92 34.8C84.92 36.22 87.25 37.9 89.81 37.86L88.31 36.36C88.39 38.46 88.07 40.54 88.66 42.59C89.19 44.44 92.0799 43.66 91.5499 41.79V41.8Z" fill="black"></path><path d="M159.98 43.6C160.56 41.55 160.25 39.46 160.33 37.37L158.83 38.87C162.2 38.92 165.07 36.19 167.7 34.41C168.93 33.57 170.36 32.71 171.09 31.36C171.77 30.12 171.66 28.73 171.34 27.4C170.42 23.54 168.67 19.72 167.03 16.11C165.3 12.3 163.34 8.54 160.85 5.16C159.72 3.62 157.11 5.12 158.26 6.67C162.54 12.49 165.51 19.38 167.83 26.18C168.16 27.14 168.85 28.59 168.56 29.64C168.3 30.57 167.06 31.21 166.33 31.7C165.12 32.51 163.97 33.4 162.75 34.19C161.6 34.94 160.25 35.87 158.82 35.85C157.99 35.84 157.35 36.55 157.32 37.35C157.25 39.16 157.58 41.02 157.08 42.78C156.55 44.64 159.45 45.43 159.97 43.58L159.98 43.6Z" fill="black"></path><path d="M88.46 27.05C90.05 26.5 91.71 26.08 93.38 25.83C94.14 25.72 95.16 25.64 96.02 25.67C96.45 25.68 96.79 25.71 97.07 25.77C97.28 25.81 97.49 25.86 97.69 25.92C97.76 25.94 97.84 25.97 97.91 25.99C98.34 26.14 97.71 25.87 98.11 26.07C98.51 26.27 98.53 26.28 98.73 26.49C98.96 26.73 99.02 26.85 99.12 27.2C99.44 28.32 99.44 29.49 99.41 30.65C99.36 32.64 99.22 34.59 99.29 36.58C99.33 37.59 99.36 38.6 99.31 39.62C99.3 39.86 99.28 40.1 99.26 40.34C99.24 40.52 99.26 40.34 99.26 40.3C99.24 40.43 99.22 40.56 99.19 40.69C99.18 40.75 99.15 40.8 99.15 40.86C99.11 41.13 99.06 40.92 99.18 40.84C98.99 40.97 99.26 40.76 99.28 40.74C99.45 40.61 100.21 40.46 100 40.45C98.07 40.35 98.08 43.35 100 43.45C102.39 43.57 102.33 40.06 102.33 38.49C102.33 36.37 102.23 34.29 102.34 32.16C102.47 29.65 102.78 26.24 100.79 24.33C99.17 22.77 96.69 22.57 94.55 22.72C92.21 22.88 89.87 23.41 87.65 24.17C85.83 24.79 86.61 27.69 88.45 27.06L88.46 27.05Z" fill="black"></path><path d="M87.89 26.77C88.64 28.87 89.61 30.87 90.51 32.91C91.31 34.72 91.91 36.57 92.37 38.49C92.71 39.92 93.4 40.82 94.8 41.35C95.72 41.69 96.71 41.87 97.69 41.86C98.83 41.85 99.94 41.62 101.08 41.66C103.01 41.73 103.01 38.73 101.08 38.66C100.1 38.63 99.14 38.78 98.17 38.84C97.3 38.89 96.56 38.77 95.73 38.51C95.36 38.39 95.88 38.61 95.61 38.46C95.52 38.41 95.43 38.35 95.34 38.3C95.69 38.5 95.46 38.34 95.37 38.29C95.63 38.45 95.53 38.4 95.41 38.29C95.61 38.48 95.47 38.46 95.41 38.26C95.38 38.14 95.34 38.02 95.31 37.9C95.22 37.56 95.15 37.21 95.07 36.87C94.14 33.05 92.1 29.65 90.78 25.97C90.51 25.21 89.76 24.7 88.93 24.92C88.19 25.12 87.61 26 87.88 26.77H87.89Z" fill="black"></path><path d="M111.98 39.39C112.14 36.63 111.25 33.99 110.9 31.28C110.55 28.57 110.66 26.02 110 23.45L108.95 25.3C110.83 24.66 112.8 24.83 114.75 24.97C116.7 25.11 118.82 25.25 120.83 24.77L118.98 22.92C118.05 28.45 118.89 34.06 118.2 39.6L119.3 38.15C116.27 38.57 113.26 37.7 110.28 38.72L111.74 39.11L111.65 39L112.04 40.46V40.39C111.92 40.61 111.79 40.83 111.67 41.05C112.02 40.62 112.24 40.22 112.22 39.64C112.15 37.71 109.15 37.71 109.22 39.64V39.81C109.29 39.56 109.36 39.31 109.43 39.05C109.59 38.73 109.38 39.11 109.32 39.23C109.2 39.43 109.15 39.64 109.13 39.86C109.07 40.42 109.29 40.81 109.63 41.23C109.94 41.61 110.63 41.77 111.09 41.62C113.97 40.63 117.13 41.46 120.11 41.05C120.81 40.95 121.14 40.2 121.21 39.6C121.86 34.33 121 28.96 121.88 23.72C122.07 22.6 121.22 21.59 120.03 21.87C116.11 22.81 112.05 21.07 108.15 22.4C107.37 22.66 106.89 23.42 107.1 24.25C107.72 26.64 107.62 29.13 107.93 31.56C108.27 34.17 109.13 36.73 108.97 39.39C108.86 41.32 111.86 41.31 111.97 39.39H111.98Z" fill="black"></path><path d="M128.52 23.17C127.48 25.72 127.65 28.56 127.95 31.24C128.25 33.92 128.79 36.57 128.25 39.16C128.02 40.3 128.94 41.27 130.1 41.01C132.79 40.4 135.72 40.88 138.49 40.9C140.42 40.91 140.42 37.91 138.49 37.9C135.43 37.88 132.33 37.42 129.3 38.11L131.15 39.96C131.71 37.23 131.33 34.49 131.01 31.75C130.71 29.16 130.4 26.45 131.42 23.97C131.73 23.22 131.09 22.32 130.37 22.12C129.51 21.88 128.83 22.41 128.52 23.17Z" fill="black"></path><path d="M131.7 24.86C132.59 24.21 133.27 24.36 134.29 24.58C135.22 24.77 136.15 24.88 137.1 24.93C137.27 24.93 137.43 24.94 137.6 24.95C137.68 24.95 138.06 24.96 137.78 24.96C137.87 24.96 138.18 25.01 137.91 24.96C138.05 24.99 137.95 24.93 137.97 24.96C138.19 25.28 138.35 26.4 138.42 27.09C138.86 31.53 138.23 35.98 138.22 40.42C138.22 42.35 141.21 42.35 141.22 40.42C141.24 35.31 142.2 30 141.12 24.95C140.92 24 140.49 23.03 139.64 22.49C138.88 22.01 137.98 21.97 137.11 21.93C134.71 21.82 132.36 20.67 130.19 22.28C129.54 22.76 129.21 23.58 129.65 24.33C130.03 24.97 131.05 25.35 131.7 24.87V24.86Z" fill="black"></path><path d="M145.33 24.44C144.56 27.13 145.14 29.97 144.99 32.72C144.82 35.83 144.53 38.91 145.11 42C145.23 42.64 145.94 43.1 146.56 43.1C148.36 43.09 150.21 42.68 151.99 43.06C152.69 43.21 153.28 42.94 153.68 42.37C155.33 40.03 156.09 37.1 156.58 34.31C157.07 31.52 157.32 28.54 157.49 25.64C157.53 25 157 24.35 156.39 24.19C153.39 23.44 150.42 22.05 147.26 22.32C145.35 22.48 145.33 25.48 147.26 25.32C150.14 25.07 152.86 26.4 155.59 27.09L154.49 25.64C154.33 28.27 154.14 30.91 153.68 33.51C153.22 36.11 152.6 38.71 151.08 40.85L152.77 40.16C150.68 39.71 148.64 40.08 146.54 40.09L147.99 41.19C147.46 38.4 147.82 35.52 147.98 32.71C148.11 30.25 147.53 27.63 148.21 25.23C148.75 23.37 145.85 22.58 145.32 24.43L145.33 24.44Z" fill="black"></path><path d="M71.4999 314.88C71.4399 323.31 69.4799 331.62 69.7999 340.07C69.8699 341.99 72.8699 342 72.7999 340.07C72.4799 331.62 74.4399 323.31 74.4999 314.88C74.51 312.95 71.5099 312.95 71.4999 314.88Z" fill="black"></path><path d="M164.71 315.22C164.7 314.82 164.71 314.43 164.71 314.04H161.71C162.08 322.17 164.97 329.92 165.45 338.03C165.56 339.95 168.57 339.96 168.45 338.03C167.97 329.92 165.07 322.16 164.71 314.04C164.62 312.12 161.74 312.1 161.71 314.04C161.71 314.44 161.7 314.83 161.71 315.22C161.76 317.15 164.76 317.15 164.71 315.22Z" fill="black"></path><path d="M51.9701 132.69C53.9601 131.19 55.5201 129.29 57.0101 127.31C58.5001 125.33 60.15 123.26 61.36 121.08C62.39 119.22 62.7601 117.24 62.7901 115.13C62.8201 112.81 62.8801 110.57 63.2601 108.28C64.9701 97.96 68.89 87.94 74.11 78.9C76.98 73.93 80.3 69.22 84.27 65.06C85.6 63.66 83.49 61.54 82.15 62.94C75.07 70.36 69.81 79.44 65.87 88.87C63.88 93.64 62.25 98.57 61.12 103.62C60.59 106.01 60.13 108.44 59.9 110.88C59.7 112.97 60.0201 115.15 59.6301 117.22C59.1601 119.7 57.3401 121.73 55.9201 123.74C54.3401 125.98 52.6801 128.45 50.4501 130.12C48.9201 131.27 50.42 133.87 51.96 132.71L51.9701 132.69Z" fill="black"></path><path d="M195.83 130.98C194.44 128.88 192.68 127.1 190.96 125.28C189.43 123.66 187.78 121.95 186.94 119.85C186.22 118.06 186.17 116.1 186 114.2C185.75 111.54 185.26 108.92 184.6 106.33C183.28 101.21 181.59 96.15 179.98 91.12C178.46 86.36 176.71 81.67 174.7 77.09C172.42 71.91 169.78 66.87 166.56 62.21C165.47 60.63 162.87 62.13 163.97 63.72C169.69 71.99 173.65 81.39 176.77 90.92C178.4 95.91 180.02 100.96 181.41 106.02C182.13 108.62 182.72 111.27 182.98 113.96C183.17 115.96 183.22 118.03 183.82 119.96C185.41 125.14 190.37 128.14 193.25 132.48C194.31 134.08 196.91 132.58 195.84 130.97L195.83 130.98Z" fill="black"></path><path d="M98.8401 139.44C98.7501 144.49 106.85 144.36 110.18 144.41C112.61 144.45 115.05 144.33 117.48 144.41C118.72 144.45 118.91 144.48 120.18 144.86C121.74 145.33 123.24 146.07 124.39 147.24C125.77 148.65 126.65 150.79 126.41 152.78C126.14 155.01 124.62 156.94 123.55 158.85C122.6 160.54 125.19 162.05 126.14 160.36C127.09 158.67 128.31 156.9 128.96 154.97C129.61 153.04 129.56 150.88 128.86 148.94C127.6 145.45 124.76 143.2 121.29 142.07C119.09 141.35 116.91 141.38 114.63 141.4C111.9 141.43 109.15 141.48 106.42 141.22C105.23 141.11 103.96 140.94 102.85 140.47C102.56 140.35 102.14 140.07 101.99 139.94C101.86 139.83 101.83 139.72 101.89 139.86C101.76 139.54 101.81 139.8 101.82 139.43C101.86 137.5 98.8601 137.5 98.8201 139.43L98.8401 139.44Z" fill="black"></path><path d="M125.25 161.82C129.67 160.46 135.75 158.17 136.54 152.91C137.01 149.76 134.82 147.52 132.65 145.59C131.98 144.99 130.83 144.13 130.62 143.3C130.46 142.64 130.95 141.23 131.15 140.42H128.26C129.64 145.5 135.48 147.72 139.74 149.82C141.78 150.82 143.47 152 144.88 153.81C145.96 155.21 147.54 157.7 146.01 159.31C144.68 160.71 146.8 162.83 148.13 161.43C152.2 157.15 147.16 150.71 143.29 148.31C141.07 146.93 138.58 146.02 136.31 144.74C134.24 143.57 131.82 142.07 131.16 139.62C130.78 138.22 128.62 138.17 128.27 139.62C127.79 141.6 127.13 143.62 128.38 145.46C129.78 147.51 132.61 148.71 133.47 151.12C134.23 153.25 132.28 155.2 130.67 156.26C128.77 157.5 126.62 158.27 124.47 158.93C122.63 159.5 123.42 162.39 125.27 161.82H125.25Z" fill="black"></path><path d="M172.33 266.73C172.13 266.62 171.92 266.57 171.71 266.55C171.15 264.2 170.31 261.94 169.49 259.64C169.44 259.5 169.39 259.36 169.34 259.21C168.85 256.11 168.27 253.03 167.59 249.97C167.21 248.24 164.75 248.75 164.64 250.37C164.56 251.62 164.64 252.84 164.83 254.03C164.56 254.03 164.28 254.08 164.04 254.22C163.28 254.66 163.17 255.53 163.5 256.27C163.83 257 164.17 257.77 164.5 258.55C166 262.94 165.4 267.89 164.85 272.42C164.82 272.64 164.88 272.86 164.97 273.05C164.88 273.46 164.95 273.81 165.12 274.2C165.63 275.37 167.19 275.38 168.12 274.78C168.21 274.72 168.3 274.65 168.39 274.58C169.24 274.69 170.09 274.54 170.78 273.89C171.68 273.04 171.89 271.62 171.88 270.26C172.21 269.77 172.55 269.28 172.86 268.76C173.26 268.09 173.03 267.08 172.32 266.71L172.33 266.73Z" fill="#BF9A00"></path><path d="M170.35 257.19C170.22 256.39 169.22 255.94 168.5 256.14C167.65 256.37 167.32 257.18 167.45 257.98C167.88 260.66 167.91 263.44 167.57 266.13C167.42 267.31 167.28 268.7 166.79 269.8C166.47 270.52 165.94 270.65 165.25 270.38C163.35 269.65 163.09 266.6 162.7 264.92C162.03 262.12 161.37 259.32 160.71 256.51C160.26 254.63 157.37 255.43 157.82 257.31L159.68 265.16C160.22 267.43 160.59 269.92 162.15 271.75C163.52 273.36 166.18 274.13 168.03 272.88C170.1 271.49 170.31 268.38 170.58 266.13C170.95 263.14 170.83 260.15 170.35 257.18V257.19Z" fill="white"></path><path d="M159.37 165.22C159.13 164.59 158.73 164.06 158.22 163.62C158 163.09 157.76 162.58 157.51 162.11C157.12 161.37 156.15 161.21 155.46 161.57C154.31 162.17 153.9 163.51 153.95 164.73C153.99 165.75 154.21 166.9 154.81 167.76C154.98 168 155.17 168.22 155.39 168.42C155.37 168.63 155.39 168.85 155.43 169.02C155.53 169.37 155.79 169.75 156.12 169.92C156.9 170.33 157.68 170.06 158.17 169.38C158.39 169.08 158.55 168.76 158.68 168.43C159.53 167.63 159.79 166.33 159.38 165.22H159.37Z" fill="#FFCE00"></path><path d="M123.81 183.61C118 190.5 106.11 186.55 105.06 179.52C104.01 172.49 112.63 164 116.82 165.75C121.01 167.5 122.18 164.47 122.18 164.47C122.18 164.47 124.6 166.3 120.3 168.9C116 171.5 126.34 175.71 129.67 170.6C133 165.49 131.64 165.21 133.32 162.35C135 159.49 136.98 164.71 136.49 170.1C136 175.49 123.81 183.6 123.81 183.6V183.61Z" fill="#FF6700"></path><path d="M151.9 220.87C155.59 228.82 155.48 238 155.82 246.58C156.14 254.49 155.04 263.13 157.91 270.69C159.02 273.61 160.85 276.42 163.94 277.47C167.03 278.52 170.08 277.11 172.02 274.62C174.13 271.91 174.81 268.59 174.38 265.22C173.88 261.37 171.59 258.2 170.59 254.51C169.34 249.91 168.6 245.07 168.72 240.3C168.78 237.71 169.07 235.16 169.52 232.62C169.97 230.08 170.38 227.72 170.28 225.23C170.2 223.31 167.2 223.3 167.28 225.23C167.45 229.34 166.19 233.36 165.87 237.44C165.55 241.52 165.82 245.82 166.58 249.99C167.26 253.74 168.17 257.17 169.81 260.62C171.18 263.5 172.12 266.82 171.15 269.98C170.44 272.28 168.39 275.21 165.65 274.82C162.91 274.43 161.29 271.44 160.5 269C158.14 261.71 159.16 253.68 158.81 246.15C158.4 237.09 158.39 227.75 154.5 219.36C153.69 217.61 151.1 219.13 151.91 220.87H151.9Z" fill="black"></path><defs><radialGradient id="paint0_radial_10_2084" cx="0" cy="0" r="1" gradientUnits="userSpaceOnUse" gradientTransform="translate(127.68 212.53) scale(90.94 90.94)"><stop stop-color="#FFFF00"></stop><stop offset="1" stop-color="#FFFF00" stop-opacity="0"></stop></radialGradient></defs></svg> 