<?xml version="1.0" encoding="UTF-8"?> <svg xmlns="http://www.w3.org/2000/svg" width="73" height="72" viewBox="0 0 73 72" fill="none"><path fill-rule="evenodd" clip-rule="evenodd" d="M37.3534 7.88974L35.045 2.98096L30.5066 2.74361C18.6169 2.12179 12.672 1.81088 8.78513 5.31139C4.89827 8.81189 4.58736 14.7568 3.96554 26.6466L3.58556 33.9122L6.41422 34.1504L3.34204 38.5684L3.1698 41.8617C2.54798 53.7515 2.23707 59.6964 5.73758 63.5832C9.23808 67.4701 15.183 67.781 27.0728 68.4028L33.0524 68.7156L35.3225 65.4509L36.9538 68.9196L42.2879 69.1986C54.1777 69.8204 60.1226 70.1313 64.0094 66.6308C67.8963 63.1303 68.2072 57.1854 68.829 45.2957L68.829 45.2956L69.209 38.0301L66.3798 37.7919L69.4526 33.3729L69.6248 30.0804C70.2466 18.1907 70.5575 12.2458 67.057 8.35894C63.5565 4.47208 57.6116 4.16117 45.7218 3.53935L40.5661 3.26971L37.3534 7.88974Z" fill="url(#paint0_linear_10_2354)"></path><g clip-path="url(#clip0_10_2354)"><path d="M38.5046 33.6661L49.2823 21.1379H46.7283L37.3701 32.0159L29.8957 21.1379H21.2749L32.5776 37.5874L21.2749 50.7251H23.829L33.7115 39.2375L41.605 50.7251H50.2258L38.504 33.6661H38.5046ZM35.0064 37.7323L33.8612 36.0943L24.7493 23.0606H28.6722L36.0257 33.5792L37.1709 35.2172L46.7295 48.8898H42.8066L35.0064 37.7329V37.7323Z" fill="white"></path></g><defs><linearGradient id="paint0_linear_10_2354" x1="34.6801" y1="68.8007" x2="38.114" y2="3.14153" gradientUnits="userSpaceOnUse"><stop stop-color="#C98F00"></stop><stop offset="1" stop-color="#FF6C17"></stop></linearGradient><clipPath id="clip0_10_2354"><rect width="29.5871" height="29.5871" fill="white" transform="translate(20.957 21.1379)"></rect></clipPath></defs></svg> 