<?xml version="1.0" encoding="UTF-8"?> <svg xmlns="http://www.w3.org/2000/svg" width="960" height="151" viewBox="0 0 960 151" fill="none"><path d="M3.00374 11.7967C2.99023 12.1345 2.89565 35.4911 5.48331 41.8826C8.07098 48.274 40.8458 44.2203 40.6769 44.5581C40.508 44.8959 44.6429 69.3199 44.6429 69.3199C44.6429 69.3199 61.1756 68.1714 66.3779 89.974C71.5803 111.777 69.6412 146.943 69.6412 146.943C69.6412 146.943 94.0923 146.281 94.322 146.599C94.5518 146.916 112.118 136.106 112.456 136.444C112.794 136.782 114.679 45.5107 114.679 45.5107C114.679 45.5107 850.144 43.396 850.367 44.8216C850.59 46.2472 850.515 136.444 850.515 136.444L871.061 146.943C871.061 146.943 890.114 145.518 891.965 145.2C893.816 144.883 893.83 143.835 893.83 143.835C893.83 143.835 895.654 107.29 897.776 94.6696C899.897 82.0488 903.242 74.0561 908.667 72.6441C914.092 71.232 918.511 69.4078 918.328 69.3132C918.146 69.2186 926.254 44.2135 926.254 45.5648C926.254 46.916 955.15 41.1394 955.15 41.1394L956.995 22.3906L954.394 5.54714H944.063L838.489 3H11.7937C10.0979 3 3.34155 3.68239 3.00374 11.79V11.7967Z" fill="#7C4513"></path><path d="M945.847 5.03372H8.74658V35.4371H945.847V5.03372Z" fill="#AA4D00"></path><path d="M78.107 70.9888C78.107 70.9888 66.9051 65.8878 65.189 65.5297C63.4729 65.1716 61.1419 46.5512 61.1419 46.5512H39.2109C40.2379 51.0914 40.9879 55.6925 41.3122 60.3341C43.9404 66.685 46.4064 72.7387 46.2375 72.6914C45.9064 72.5968 78.107 70.9888 78.107 70.9888Z" fill="#AA4D00"></path><path d="M61.1415 79.8531C64.8237 82.0556 66.9654 94.19 69.2693 110.419C71.5732 126.647 65.9993 145.551 68.7896 145.22C71.58 144.889 96.6864 146.234 94.9433 145.22C93.2002 144.207 74.519 135.64 74.3974 134.518C74.2758 133.397 73.4448 99.1626 69.1342 85.5419C64.8237 71.9144 64.1481 71.2388 64.8237 71.9144C65.4993 72.59 49.041 70.0429 50.8517 70.982C52.6623 71.9212 61.1415 79.8531 61.1415 79.8531Z" fill="#AA4D00"></path><path d="M886.486 67.9823C886.486 67.9823 897.688 62.8813 899.404 62.5232C901.12 62.1651 903.451 43.5447 903.451 43.5447H925.382C924.355 48.0849 923.605 52.686 923.281 57.3276C920.652 63.6785 918.186 69.7322 918.355 69.6849C918.686 69.5903 886.486 67.9823 886.486 67.9823Z" fill="#AA4D00"></path><path d="M900.073 78.8802C896.391 81.0827 894.249 93.2171 891.945 109.446C889.635 125.674 895.215 144.579 892.425 144.247C889.635 143.916 864.528 145.261 866.271 144.247C868.014 143.234 886.696 134.667 886.817 133.546C886.939 132.424 887.77 98.1897 892.08 84.569C896.391 70.9415 897.067 70.2659 896.391 70.9415C895.715 71.6172 912.174 69.07 910.363 70.0092C908.552 70.9483 900.073 78.8802 900.073 78.8802Z" fill="#AA4D00"></path><path opacity="0.44" d="M86.7342 43.5447C89.8218 50.301 85.7681 71.2456 85.7681 71.2456C85.7681 71.2456 90.0516 75.5426 93.3149 94.6765C96.5782 113.81 95.031 150.605 95.031 150.605C95.031 150.605 110.766 139.484 112.455 136.444C114.145 133.404 114.678 45.5108 114.678 45.5108L86.7342 43.5447Z" fill="black"></path><path opacity="0.44" d="M848.488 133.214C854.123 136.68 860.102 139.91 865.953 143.349C865.683 131.647 865.528 108.534 867.892 94.6765C871.156 75.5426 875.439 71.2456 875.439 71.2456C875.439 71.2456 871.385 50.301 874.473 43.5447L846.529 45.5108C846.529 45.5108 846.961 116.58 848.272 133.106C848.346 133.147 848.414 133.167 848.488 133.214Z" fill="black"></path><path d="M948.204 3.00705H11.7934C6.93882 3.00705 3.00342 6.94246 3.00342 11.797V35.7684C3.00342 40.623 6.93882 44.5584 11.7934 44.5584H948.204C953.059 44.5584 956.994 40.623 956.994 35.7684V11.797C956.994 6.94246 953.059 3.00705 948.204 3.00705Z" stroke="black" stroke-width="4.05379" stroke-miterlimit="10"></path><path d="M36.6837 46.5377C38.312 49.5646 38.9876 53.5035 39.4606 57.0235C39.9808 60.8746 40.17 64.8406 41.0551 68.6309C41.4131 70.1578 42.1023 71.7253 43.5143 72.5495C44.6629 73.2184 46.0412 73.2522 47.3317 73.3062C51.0814 73.4616 54.7366 74.4616 57.5134 77.11C59.7092 79.2045 61.4794 81.9881 62.5874 84.6568C63.8981 87.8188 64.6819 91.1834 65.2021 94.5616C65.7223 97.9398 65.9521 101.615 66.0804 105.122C66.2088 108.628 66.2291 111.966 66.3169 115.391C66.425 119.85 66.7425 124.296 66.8844 128.755C67.0398 133.782 67.1074 138.815 67.1142 143.849C67.1142 146.457 71.1679 146.464 71.1679 143.849C71.1679 139.329 71.1139 134.816 70.9855 130.302C70.8707 126.039 70.5936 121.783 70.4383 117.526C70.1815 110.547 70.3369 103.548 69.5329 96.602C68.7019 89.4674 66.9655 82.2313 62.4185 76.4952C59.9052 73.3265 56.5743 71.0023 52.6354 69.9754C50.7841 69.4889 48.8856 69.3335 46.9803 69.2524C46.6628 69.2389 46.3452 69.2051 46.0277 69.1916C45.548 69.1714 46.3588 69.266 46.0818 69.1984C45.9737 69.1714 45.8655 69.1579 45.7574 69.1308C45.6358 69.0971 45.521 69.0565 45.3994 69.016C45.9264 69.1849 45.5953 69.097 45.4534 69.0025C45.8655 69.293 45.6696 69.1849 45.575 69.0971C45.1967 68.7457 45.5953 69.293 45.4669 68.9957C45.4129 68.8606 45.3115 68.7255 45.244 68.5903C45.4534 68.9957 45.1899 68.4147 45.1561 68.3133C45.0075 67.8404 44.9062 67.3539 44.8116 66.8675C44.6359 65.9621 44.467 64.8338 44.3589 64.0636C44.0684 61.9016 43.8522 59.7328 43.5752 57.5708C43.0076 53.1116 42.332 48.5173 40.1767 44.5108C38.9403 42.2137 35.4406 44.2608 36.677 46.558L36.6837 46.5377Z" fill="black"></path><path d="M44.1023 71.2726C49.1966 73.2522 54.8719 73.7251 60.2769 74.09C65.682 74.4548 71.2965 74.8467 76.7759 74.6305C79.9716 74.5021 83.2214 74.144 86.2752 73.1576C88.748 72.3671 87.7211 68.516 85.1942 69.2457L84.9442 69.32H86.0253V69.2862C85.1132 68.6849 83.7822 69.1038 83.2552 70.0159C82.6741 71.0091 83.066 72.1847 83.9848 72.786C84.6942 73.2589 85.451 73.3941 86.2752 73.1509L85.1942 69.2389C80.0256 70.901 74.4382 70.7186 69.0804 70.4889C63.7227 70.2592 58.723 70.1105 53.6085 69.3808C50.7505 68.9754 47.8791 68.4012 45.1833 67.3539C44.1631 66.9553 42.9605 67.7931 42.6903 68.7728C42.3727 69.9213 43.0821 70.8672 44.1091 71.2658L44.1023 71.2726Z" fill="black"></path><path d="M84.7751 47.085C85.7007 50.2402 85.3697 53.6251 85.3426 56.8749C85.3156 60.1382 85.6197 63.3947 85.5453 66.658C85.5318 67.4012 85.498 68.1376 85.4507 68.8741C85.3899 69.7592 85.0994 70.8131 85.5724 71.6239C85.9642 72.2928 86.6736 72.8333 87.1533 73.4481C87.633 74.0629 88.0452 74.7048 88.4303 75.3736C89.8018 77.7519 90.5653 80.6639 90.9234 83.3056C91.3355 86.3256 91.3625 89.393 91.4774 92.4333C91.599 95.7642 91.9571 99.0207 92.3422 102.325C93.2475 110.121 93.3354 117.979 93.3421 125.816C93.3421 129.498 93.3759 133.16 93.5516 136.836C93.6326 138.532 93.6799 140.234 93.5448 141.93C93.484 142.68 93.4367 143.065 93.234 143.883C93.0313 144.7 92.9638 144.916 92.5786 145.578C91.2679 147.842 94.7677 149.882 96.0784 147.626C98.3688 143.673 97.6797 138.532 97.4635 134.174C97.1729 128.431 97.4432 122.648 97.3148 116.898C97.2473 113.831 97.1257 110.77 96.9027 107.709C96.6797 104.649 96.2879 101.73 95.9568 98.8518C95.4028 94.0211 95.6122 89.143 95.0988 84.3123C94.5042 78.6572 92.8084 73.3265 88.7613 69.1781L89.3559 70.6105C89.8288 66.6783 89.5518 62.7393 89.4235 58.8004C89.2816 54.5439 89.9167 50.1659 88.7005 46.0175C87.9641 43.5177 84.0522 44.5852 84.7886 47.0985L84.7751 47.085Z" fill="black"></path><path d="M68.7901 147.247C73.2087 147.105 77.553 148.274 81.9717 148.281C85.5255 148.288 89.6063 148.281 92.8426 149.659L93.8628 145.883C93.9574 145.869 94.7276 146.234 94.2276 145.964C93.9979 145.835 93.7412 145.741 93.4844 145.68C92.4169 145.437 91.2886 146.004 90.9913 147.099C90.7143 148.119 91.3359 149.349 92.4101 149.592C91.9777 149.49 92.6601 149.727 92.7345 149.754C93.0993 149.903 93.4709 149.984 93.8763 149.936C94.7749 149.828 95.5721 149.382 95.8289 148.45C96.0451 147.659 95.7072 146.504 94.8965 146.16C90.9913 144.498 86.7011 144.254 82.4986 144.227C80.2555 144.214 78.0733 144.072 75.8504 143.781C73.5128 143.471 71.1683 143.119 68.8036 143.194C66.2024 143.275 66.1889 147.328 68.8036 147.247H68.7901Z" fill="black"></path><path d="M92.9303 148.693C93.3559 148.45 93.8086 148.247 94.2545 148.051C94.3964 147.991 94.5383 147.93 94.6869 147.862C95.1396 147.666 94.3153 148.018 94.795 147.815C95.1666 147.659 95.5382 147.504 95.9166 147.355C97.68 146.639 99.4569 145.95 101.22 145.241C104.754 143.808 108.517 142.43 111.693 140.282C113.003 139.39 114.503 138.187 114.49 136.437C114.476 133.829 110.422 133.823 110.436 136.437C110.436 136.809 110.53 135.964 110.47 136.18C110.395 136.457 110.699 135.64 110.564 135.964C110.517 136.066 110.422 136.383 110.537 136.039C110.639 135.748 110.557 136.012 110.416 136.153C110.253 136.322 110.058 136.451 109.895 136.62C110.314 136.208 110.003 136.532 109.848 136.647C109.693 136.762 109.537 136.856 109.382 136.964C107.99 137.863 106.483 138.586 104.984 139.275C104.119 139.673 103.24 140.052 102.362 140.423C102.065 140.552 102.626 140.315 102.322 140.437C102.234 140.471 102.146 140.511 102.058 140.545C101.828 140.64 101.592 140.741 101.362 140.836C100.896 141.025 100.43 141.214 99.9703 141.403C98.288 142.086 96.599 142.741 94.9099 143.423C93.5654 143.964 92.1533 144.47 90.8899 145.193C88.6265 146.484 90.6669 149.99 92.937 148.693H92.9303Z" fill="black"></path><path d="M110.578 44.8216C110.611 50.3956 110.821 55.9695 110.814 61.5503C110.814 64.3879 110.672 67.2188 110.611 70.0564C110.551 72.8941 110.713 75.6777 110.828 78.4816C110.983 82.461 110.956 86.4473 110.983 90.4335C111.03 96.0277 111.064 101.622 111.071 107.223C111.084 113.141 111.078 119.06 110.99 124.979C110.956 127.242 110.909 129.498 110.821 131.762C110.787 132.586 110.747 133.417 110.692 134.241C110.672 134.552 110.645 134.863 110.618 135.174C110.605 135.302 110.591 135.424 110.578 135.552C110.524 136.093 110.672 135.059 110.591 135.437C110.557 135.599 110.537 135.755 110.497 135.917C109.828 138.444 113.74 139.518 114.408 136.998C114.719 135.809 114.74 134.491 114.807 133.268C114.922 131.208 114.969 129.14 115.01 127.073C115.125 121.317 115.138 115.553 115.131 109.797C115.131 103.98 115.098 98.1627 115.05 92.3455C115.023 89.1228 114.983 85.9 114.976 82.6705C114.969 79.9004 114.8 77.1371 114.712 74.367C114.625 71.5969 114.739 68.7187 114.814 65.8878C114.962 60.2598 114.78 54.6318 114.685 49.0038C114.658 47.6187 114.645 46.227 114.638 44.8419C114.625 42.234 110.571 42.2272 110.584 44.8419L110.578 44.8216Z" fill="black"></path><path d="M922.788 44.4906C919.017 51.4969 919.659 59.8747 918.058 67.3201C917.984 67.6782 917.889 68.0363 917.774 68.3876C917.747 68.462 917.497 68.989 917.714 68.5701C917.646 68.6984 917.545 68.8403 917.491 68.9755C917.308 69.4146 917.72 68.6241 917.477 68.989C917.437 69.0498 917.342 69.1106 917.295 69.1579C917.659 68.7998 917.45 69.0092 917.301 69.1038C917.747 68.8065 917.43 69.0565 917.207 69.1106C917.126 69.1308 917.031 69.1444 916.95 69.1646C916.518 69.2998 917.416 69.1511 916.937 69.1646C916.619 69.1781 916.301 69.2119 915.984 69.2254C915.173 69.2592 914.362 69.293 913.552 69.3808C909.214 69.8673 905.208 71.5496 902.113 74.6845C897.12 79.7585 894.85 86.8053 893.81 93.6968C892.742 100.804 892.762 107.986 892.587 115.155C892.479 119.58 892.168 123.999 892.026 128.424C891.864 133.559 891.79 138.687 891.79 143.822C891.79 146.43 895.843 146.437 895.843 143.822C895.843 139.302 895.897 134.789 896.026 130.275C896.141 126.08 896.404 121.898 896.566 117.709C896.83 110.736 896.668 103.75 897.451 96.8115C897.634 95.2305 897.857 93.7238 898.201 92.0145C898.546 90.3051 898.971 88.5958 899.525 86.9337C900.08 85.2717 900.546 84.1028 901.377 82.5421C901.748 81.8395 902.154 81.1571 902.593 80.495C903.059 79.7855 903.37 79.3667 903.816 78.8329C906.282 75.8872 909.444 74.0021 913.275 73.4684C916.065 73.0765 919.376 73.7522 921.058 70.8875C922.024 69.2457 922.206 67.1648 922.47 65.3203C922.794 62.9961 923.044 60.6652 923.328 58.341C923.585 56.2736 923.882 54.1859 924.348 52.132C924.794 50.1321 925.375 48.2066 926.274 46.531C927.51 44.2338 924.01 42.1867 922.774 44.4838L922.788 44.4906Z" fill="black"></path><path d="M917.788 67.3674C912.97 69.2389 907.667 69.7119 902.552 70.0497C897.438 70.3875 891.918 70.7659 886.621 70.5902C883.621 70.4956 880.635 70.1713 877.77 69.2524L876.689 73.1643C877.513 73.4008 878.27 73.2724 878.979 72.7995C879.891 72.1982 880.283 71.0091 879.709 70.0294C879.182 69.1241 877.851 68.6984 876.939 69.2997V69.3335H878.02L877.77 69.2592C875.25 68.5295 874.216 72.3739 876.689 73.1711C882.141 74.921 888.087 74.8129 893.742 74.5697C899.269 74.3332 904.809 74.1035 910.295 73.3333C913.2 72.9279 916.119 72.3536 918.862 71.2861C919.882 70.8875 920.591 69.9281 920.281 68.793C920.01 67.8201 918.815 66.9823 917.788 67.3742V67.3674Z" fill="black"></path><path d="M874.284 46.0107C873.061 50.1591 873.696 54.544 873.561 58.7937C873.433 62.7326 873.156 66.6715 873.629 70.6037L874.223 69.1714C870.724 72.759 868.839 77.3533 868.143 82.2651C867.447 87.1769 867.602 92.1023 867.21 97.0209C866.987 99.8248 866.528 102.581 866.271 105.419C865.994 108.473 865.832 111.527 865.737 114.594C865.542 120.6 865.737 126.607 865.589 132.613C865.521 135.113 865.278 137.599 865.312 140.099C865.346 142.599 865.602 145.369 866.913 147.626C868.224 149.882 871.723 147.842 870.413 145.578C869.947 144.774 869.609 143.471 869.501 142.525C869.339 141.052 869.338 139.565 869.386 138.092C869.48 134.991 869.649 131.91 869.649 128.803C869.636 120.898 869.629 112.979 870.359 105.101C870.676 101.662 871.23 98.2573 871.413 94.8048C871.575 91.6902 871.582 88.5687 871.838 85.4608C872.068 82.684 872.521 79.7991 873.663 77.1371C874.169 75.9547 874.96 74.5562 875.825 73.4684C876.311 72.8536 877.014 72.3198 877.412 71.6442C877.865 70.8672 877.595 69.8673 877.541 69.0227C877.297 65.4284 877.574 61.8678 877.642 58.2802C877.71 54.6926 877.149 50.7131 878.21 47.112C878.946 44.6054 875.034 43.5312 874.298 46.031L874.284 46.0107Z" fill="black"></path><path d="M894.181 143.194C891.83 143.119 889.499 143.464 887.175 143.775C884.85 144.085 882.736 144.214 880.479 144.227C876.277 144.254 871.993 144.497 868.081 146.16C867.27 146.504 866.933 147.666 867.149 148.45C867.406 149.376 868.203 149.828 869.101 149.936C869.507 149.984 869.872 149.903 870.243 149.754C870.318 149.72 871 149.49 870.568 149.592C871.635 149.349 872.263 148.119 871.986 147.099C871.682 145.997 870.568 145.443 869.493 145.68C869.23 145.741 868.987 145.829 868.75 145.964C868.324 146.2 868.824 145.849 869.115 145.883L870.135 149.659C873.371 148.288 877.452 148.288 881.006 148.281C885.425 148.274 889.769 147.105 894.188 147.247C896.796 147.328 896.796 143.275 894.188 143.194H894.181Z" fill="black"></path><path d="M872.088 145.193C870.994 144.565 869.784 144.119 868.615 143.646C866.98 142.977 865.339 142.342 863.697 141.68C861.71 140.883 860.474 140.383 858.657 139.565C857.089 138.863 855.528 138.133 854.056 137.241C853.745 137.052 853.434 136.856 853.13 136.64C853.069 136.593 853.002 136.545 852.941 136.505C852.616 136.289 853.184 136.741 853.042 136.586C852.941 136.478 852.806 136.39 852.697 136.289C852.596 136.194 852.515 136.086 852.414 135.998C852.123 135.741 852.697 136.43 852.468 136.066C852.285 135.768 852.461 136.039 852.522 136.248C852.4 135.863 852.535 136.822 852.542 136.444C852.556 133.836 848.502 133.829 848.488 136.444C848.482 138.038 849.718 139.147 850.894 140.011C852.204 140.971 853.684 141.707 855.15 142.396C858.852 144.153 862.69 145.606 866.487 147.132C866.906 147.301 867.318 147.47 867.737 147.639C867.926 147.714 868.115 147.795 868.305 147.876C868.555 147.977 867.933 147.714 868.176 147.822C868.271 147.862 868.365 147.903 868.453 147.943C868.994 148.173 869.534 148.409 870.041 148.7C872.311 149.997 874.351 146.497 872.088 145.2V145.193Z" fill="black"></path><path d="M848.34 44.8216C848.306 50.4564 848.09 56.0844 848.103 61.7124C848.103 64.5501 848.259 67.381 848.313 70.2186C848.36 73.0292 848.198 75.8399 848.09 78.6437C847.934 82.5894 847.968 86.5486 847.941 90.4943C847.894 96.1291 847.86 101.764 847.853 107.399C847.84 113.331 847.853 119.269 847.941 125.201C848.002 128.938 847.887 132.802 848.482 136.505C848.509 136.667 848.536 136.829 848.576 136.984C849.245 139.505 853.15 138.437 852.488 135.903C852.447 135.748 852.427 135.586 852.393 135.424C852.319 135.039 852.461 136.045 852.414 135.566C852.4 135.431 852.387 135.295 852.373 135.16C852.306 134.478 852.265 133.789 852.231 133.106C852.123 131.019 852.069 128.931 852.029 126.843C851.914 121.067 851.907 115.29 851.914 109.507C851.914 103.73 851.947 97.9533 851.995 92.1834C852.022 89.0011 852.056 85.8189 852.069 82.6435C852.076 79.8801 852.245 77.1168 852.333 74.3535C852.427 71.5158 852.306 68.7052 852.231 65.8743C852.083 60.2463 852.265 54.6183 852.36 48.9903C852.387 47.6052 852.4 46.2134 852.407 44.8284C852.42 42.2205 848.367 42.2137 848.353 44.8284L848.34 44.8216Z" fill="black"></path></svg> 