<?xml version="1.0" encoding="UTF-8"?> <svg xmlns="http://www.w3.org/2000/svg" width="45" height="46" viewBox="0 0 45 46" fill="none"><path fill-rule="evenodd" clip-rule="evenodd" d="M21.5116 4.0808L19.6832 0.913902L16.6203 1.01122C8.59768 1.26611 4.58635 1.39356 2.17321 3.96507C-0.239921 6.53657 -0.112472 10.5479 0.142425 18.5706L0.298183 23.4729H2.21226L0.398022 26.6153L0.468613 28.8371C0.72351 36.8597 0.850958 40.871 3.42247 43.2842C5.99397 45.6973 10.0053 45.5699 18.028 45.315L22.063 45.1868L23.4035 42.865L24.6957 45.1031L28.2945 44.9888C36.3171 44.7339 40.3284 44.6064 42.7416 42.0349C45.1547 39.4634 45.0273 35.4521 44.7724 27.4294L44.6166 22.5269H42.7028L44.5168 19.3851L44.4462 17.1629V17.1629C44.1913 9.14027 44.0638 5.12895 41.4923 2.71582C38.9208 0.302682 34.9095 0.43013 26.8868 0.685028L23.4083 0.795546L21.5116 4.0808Z" fill="url(#paint0_linear_9_909)"></path><path d="M19.8577 11.0792C18.6243 11.6819 17.6011 12.2145 17.6011 12.2705C17.5871 12.4247 20.9369 14.0646 21.2452 14.0646C21.3994 14.0646 21.7358 13.9665 22.0021 13.8684C22.4366 13.6861 22.5487 13.6861 22.9832 13.8684C23.2495 13.9665 23.6139 14.0646 23.7821 14.0646C24.1465 14.0646 27.174 12.635 27.3141 12.3967C27.4403 12.2005 23.0533 9.99997 22.5207 9.99997C22.2964 9.99997 21.1051 10.4905 19.8577 11.0792Z" fill="#92785E"></path><path d="M12.8361 14.5552L11 15.4522V19.2925C11 23.273 11.0561 24.0159 11.3504 24.0159C11.4485 24.0159 12.2895 23.6374 13.2285 23.1749L14.9244 22.348V19.9513C14.9244 18.0872 14.9665 17.5686 15.1066 17.5686C15.2048 17.5686 16.298 18.0451 17.5314 18.6198C18.7508 19.1944 19.8861 19.6709 20.0402 19.6709C20.3486 19.6709 23.39 18.2413 23.5162 18.0311C23.6003 17.905 15.2188 13.6441 14.8684 13.6441C14.7703 13.6441 13.8452 14.0506 12.8361 14.5552Z" fill="#92785E"></path><path d="M28.2812 14.527C27.3281 15.0035 26.5573 15.424 26.5573 15.466C26.5573 15.5081 27.3562 15.9426 28.3513 16.4331L30.1313 17.3301L26.1368 19.2924C23.9363 20.3856 19.6474 22.488 16.606 23.9737L11.0697 26.6927L11.0277 27.5617C10.9997 28.0383 11.0137 28.8932 11.0697 29.4539L11.1678 30.463L11.7986 30.8414C12.149 31.0377 13.0039 31.4581 13.7187 31.7665L14.9942 32.3131L16.7742 31.4301C17.7693 30.9396 18.5682 30.5051 18.5682 30.463C18.5682 30.421 17.7553 29.9725 16.7462 29.4819L14.9241 28.5709L24.3147 23.9597C32.6121 19.8951 33.7194 19.3064 33.8035 18.984C33.8595 18.7878 33.9016 17.8908 33.9016 17.0078L33.9156 15.396L32.1636 14.513C31.2105 14.0364 30.3275 13.644 30.2014 13.658C30.0893 13.658 29.2203 14.0504 28.2812 14.527Z" fill="#92785E"></path><path d="M31.9956 22.6982L30.2016 23.5952V26.048C30.2016 27.3935 30.1735 28.5008 30.1315 28.5008C30.0894 28.5008 28.9541 27.9542 27.6086 27.2814L25.1558 26.048L23.3338 26.959C22.3387 27.4496 21.5117 27.8981 21.5117 27.9401C21.5117 28.0523 24.8475 29.7622 27.6507 31.0937L30.2296 32.2991L32.1077 31.388L33.9858 30.477L33.9718 26.4404C33.9578 24.2259 33.9158 22.2637 33.8737 22.1095C33.7756 21.8152 33.7055 21.8432 31.9956 22.6982Z" fill="#92785E"></path><path d="M19.3814 32.6496C18.3863 33.1402 17.5874 33.5887 17.5874 33.6307C17.5874 33.7428 22.1145 35.9293 22.3808 35.9293C22.6752 35.9293 24.4131 35.1865 26.1231 34.3175C27.1182 33.8269 27.3985 33.6307 27.2443 33.5326C27.1322 33.4485 26.3613 33.0421 25.5204 32.6216C24.287 31.9909 23.9086 31.8507 23.5582 31.9348C22.4369 32.1591 22.2267 32.1591 21.8202 31.9488C21.5819 31.8227 21.3296 31.7246 21.2736 31.7386C21.2175 31.7386 20.3625 32.145 19.3814 32.6496Z" fill="#92785E"></path><defs><linearGradient id="paint0_linear_9_909" x1="23.161" y1="45.1519" x2="21.7534" y2="0.848171" gradientUnits="userSpaceOnUse"><stop stop-color="#23180D"></stop><stop offset="1" stop-color="#342414"></stop></linearGradient></defs></svg> 