<?xml version="1.0" encoding="UTF-8"?> <svg xmlns="http://www.w3.org/2000/svg" width="49" height="50" viewBox="0 0 49 50" fill="none"><path fill-rule="evenodd" clip-rule="evenodd" d="M25.1508 6.06835L23.5945 2.75904L20.5346 2.59902C12.5189 2.1798 8.51098 1.97019 5.89057 4.33014C3.27016 6.69008 3.06055 10.698 2.64134 18.7137L2.38516 23.612L4.29234 23.7726L2.22098 26.7514L2.10488 28.9714C1.68566 36.9871 1.47605 40.995 3.836 43.6154C6.19594 46.2358 10.2038 46.4454 18.2196 46.8646L22.251 47.0755L23.7815 44.8745L24.8813 47.213L28.4772 47.4011C36.493 47.8203 40.5008 48.0299 43.1213 45.67C45.7417 43.31 45.9513 39.3021 46.3705 31.2864L46.6267 26.3882L44.7194 26.2276L46.7908 23.2487L46.9069 21.0287C47.3262 13.013 47.5358 9.00512 45.1758 6.38471C42.8159 3.7643 38.808 3.55469 30.7922 3.13548L27.3166 2.9537L25.1508 6.06835Z" fill="url(#paint0_linear_9_910)"></path><path d="M22.15 13.1618C21.2589 13.4036 20.1131 14.002 18.9037 14.8295L17.898 15.5169L17.4906 15.3132C17.2615 15.1987 16.9432 14.995 16.7777 14.8677C16.2812 14.473 16.2176 14.5876 16.574 15.2368C17.3379 16.6499 19.362 18.6232 21.4116 19.9981C22.6465 20.8128 22.6847 20.8256 24.0341 20.4818C24.5306 20.3673 24.7089 20.38 25.1035 20.5328C25.3708 20.6473 25.7273 20.7365 25.9183 20.7365C26.6057 20.7365 29.2791 18.8269 30.5776 17.401C31.3415 16.5608 32.5509 14.8677 32.5509 14.6258C32.5509 14.4221 32.3599 14.473 32.0926 14.7658C31.7743 15.1095 31.2396 15.3896 30.8832 15.3896C30.7177 15.3896 30.2721 15.135 29.8902 14.8295C29.1009 14.2184 28.1334 13.6964 27.0767 13.3273C26.1219 12.9835 23.1175 12.8817 22.15 13.1618Z" fill="#92785E"></path><path d="M16.5357 18.2157C16.0392 19.2468 15.8864 20.1889 15.7464 23.1424C15.5172 28.2346 15.3008 29.6859 14.4478 31.9774C14.1678 32.7412 13.9768 33.3905 14.0023 33.4287C14.0405 33.4669 14.6006 33.085 15.2499 32.5885C15.8864 32.0792 16.4847 31.6973 16.5611 31.7228C16.6375 31.7482 17.1085 32.423 17.6178 33.2123C18.1142 34.0143 18.5853 34.689 18.6617 34.7145C18.7253 34.7399 19.2473 34.3453 19.8074 33.8615L20.8259 32.9577L21.055 33.2632C21.195 33.4287 21.8825 34.4981 22.6081 35.6438C24.0722 37.9862 24.3395 38.3554 24.5177 38.2536C24.5814 38.2154 25.3452 37.0442 26.2109 35.6693C27.0638 34.2944 27.8149 33.1104 27.8531 33.0468C27.9041 32.9831 28.3878 33.3396 28.9607 33.8361C29.5208 34.3326 30.0301 34.7399 30.1064 34.7399C30.1828 34.7399 30.6793 34.0525 31.214 33.2123C31.7487 32.372 32.2452 31.6846 32.3088 31.6846C32.3852 31.6846 32.9836 32.1174 33.6455 32.6521C34.3075 33.1868 34.8677 33.6069 34.9059 33.5814C34.9313 33.556 34.7022 32.8558 34.3966 32.0411C33.4928 29.6477 33.4419 29.2785 33.0599 22.4549C32.9326 20.0234 32.8435 19.5778 32.3343 18.4066L32.0033 17.6682L31.685 17.961C31.5195 18.1265 31.2013 18.4703 30.9976 18.7376L30.6029 19.2341L30.8321 20.1507C31.0485 21.0164 31.0485 21.0928 30.8448 21.7293C30.5775 22.5186 29.7245 23.3461 28.9352 23.5498C28.0823 23.7662 27.7767 23.9699 27.7386 24.3136C27.6876 24.7719 28.0059 25.1156 29.228 25.8667C29.8264 26.2359 30.3229 26.5924 30.3483 26.656C30.3738 26.7324 29.9155 27.0761 29.3426 27.4199C27.293 28.6547 26.771 29.4949 25.3452 33.8361C24.8614 35.2746 24.4668 36.484 24.4413 36.5095C24.3522 36.6241 24.2631 36.3822 23.9067 35.1091C23.4102 33.3396 22.3535 30.577 21.7934 29.5841C21.2842 28.6547 20.8131 28.2092 19.5783 27.4835C19.0945 27.1907 18.6235 26.8852 18.5598 26.7961C18.4452 26.6688 18.7126 26.4396 19.6546 25.8158L20.9022 25.001V24.4409V23.868L20.1766 23.6516C19.1709 23.3588 18.598 22.9642 18.2416 22.3531C17.8214 21.6147 17.7578 21.0546 17.9742 20.1634C18.1397 19.4251 18.1397 19.3869 17.8469 18.8904C17.6814 18.6103 17.3759 18.2157 17.1722 18.0247L16.7903 17.6682L16.5357 18.2157Z" fill="#92785E"></path><path d="M19.311 20.8635C19.311 21.3982 19.6038 21.9328 20.0112 22.1111C20.5204 22.3402 21.7298 22.3148 21.7298 22.0729C21.7298 21.8819 19.7184 20.4816 19.4511 20.4816C19.3747 20.4816 19.311 20.6598 19.311 20.8635Z" fill="#92785E"></path><path d="M28.5918 20.8382C28.3372 21.0292 27.8661 21.3347 27.5351 21.5257C26.6822 22.0349 26.7458 22.264 27.7515 22.264C28.9864 22.264 29.7757 21.6275 29.572 20.8128C29.4702 20.3926 29.1901 20.4054 28.5918 20.8382Z" fill="#92785E"></path><path d="M23.7923 21.9583C23.003 22.3657 22.5702 23.2314 22.3792 24.8227C22.2774 25.5738 22.1755 25.9303 22.0355 26.0194C21.9209 26.083 21.679 26.2613 21.5135 26.4013L21.208 26.6559L22.01 27.4961C22.9012 28.4255 23.4359 29.3293 23.9705 30.8315C24.3779 32.0028 24.4288 31.99 25.0399 30.4496C25.5746 29.062 26.1857 28.0817 26.975 27.2797L27.6115 26.6177L27.0513 26.2358L26.4785 25.8412L26.4021 24.7845C26.2366 22.6203 25.0399 21.3345 23.7923 21.9583Z" fill="#92785E"></path><defs><linearGradient id="paint0_linear_9_910" x1="23.3482" y1="47.1329" x2="25.6633" y2="2.86728" gradientUnits="userSpaceOnUse"><stop stop-color="#23180D"></stop><stop offset="1" stop-color="#342414"></stop></linearGradient></defs></svg> 